<?xml version="1.0" encoding="UTF-8" standalone="no"?>
<!-- Created with Inkscape (http://www.inkscape.org/) -->

<svg
   xmlns:dc="http://purl.org/dc/elements/1.1/"
   xmlns:cc="http://creativecommons.org/ns#"
   xmlns:rdf="http://www.w3.org/1999/02/22-rdf-syntax-ns#"
   xmlns:svg="http://www.w3.org/2000/svg"
   xmlns="http://www.w3.org/2000/svg"
   xmlns:xlink="http://www.w3.org/1999/xlink"
   xmlns:sodipodi="http://sodipodi.sourceforge.net/DTD/sodipodi-0.dtd"
   xmlns:inkscape="http://www.inkscape.org/namespaces/inkscape"
   version="1.0"
   width="51.200001"
   height="51.200001"
   id="svg2"
   style="display:inline;enable-background:new"
   sodipodi:version="0.32"
   inkscape:version="0.92.1 r15371"
   sodipodi:docname="shutter-panel.wachin.svg"
   inkscape:output_extension="org.inkscape.output.svg.inkscape"
   inkscape:export-filename="/home/wachin/Dropbox/UbuntuManuales/icons/nuvola-ubuntustudio-dark-panel/48x48/apps/shutter-panel.png"
   inkscape:export-xdpi="90"
   inkscape:export-ydpi="90">
  <metadata
     id="metadata57">
    <rdf:RDF>
      <cc:Work
         rdf:about="">
        <dc:format>image/svg+xml</dc:format>
        <dc:type
           rdf:resource="http://purl.org/dc/dcmitype/StillImage" />
        <dc:title></dc:title>
      </cc:Work>
    </rdf:RDF>
  </metadata>
  <sodipodi:namedview
     inkscape:window-height="745"
     inkscape:window-width="1243"
     inkscape:pageshadow="2"
     inkscape:pageopacity="0.0"
     guidetolerance="10.0"
     gridtolerance="10.0"
     objecttolerance="10.0"
     borderopacity="1.0"
     bordercolor="#666666"
     pagecolor="#ffffff"
     id="base"
     showgrid="false"
     inkscape:zoom="6.9375"
     inkscape:cx="20.47843"
     inkscape:cy="32.977561"
     inkscape:window-x="37"
     inkscape:window-y="0"
     inkscape:current-layer="svg2"
     inkscape:window-maximized="1" />
  <defs
     id="defs4">
    <inkscape:perspective
       sodipodi:type="inkscape:persp3d"
       inkscape:vp_x="0 : 261.33333 : 1"
       inkscape:vp_y="0 : 1066.6667 : 0"
       inkscape:vp_z="469.33333 : 261.33333 : 1"
       inkscape:persp3d-origin="234.66667 : 174.22222 : 1"
       id="perspective59" />
    <linearGradient
       id="linearGradient6793">
      <stop
         id="stop6795"
         style="stop-color:#44b5e8;stop-opacity:1"
         offset="0" />
      <stop
         id="stop6797"
         style="stop-color:#116b98;stop-opacity:1"
         offset="1" />
    </linearGradient>
    <filter
       id="filter3383">
      <feBlend
         inkscape:collect="always"
         mode="multiply"
         in2="BackgroundImage"
         id="feBlend3385" />
    </filter>
    <filter
       id="filter3985"
       x="-0.071800567"
       width="1.1436011"
       y="-0.15538733"
       height="1.3107746">
      <feGaussianBlur
         inkscape:collect="always"
         stdDeviation="6.7803529"
         id="feGaussianBlur3987" />
    </filter>
    <filter
       id="filter3989">
      <feGaussianBlur
         inkscape:collect="always"
         stdDeviation="6.7803529"
         id="feGaussianBlur3991" />
    </filter>
    <filter
       id="filter3993"
       x="-0.1490933"
       width="1.2981865"
       y="-0.072374105"
       height="1.1447482">
      <feGaussianBlur
         inkscape:collect="always"
         stdDeviation="6.7803529"
         id="feGaussianBlur3995" />
    </filter>
    <filter
       id="filter3997"
       x="-0.081570871"
       width="1.1631417"
       y="-0.11038305"
       height="1.2207661">
      <feGaussianBlur
         inkscape:collect="always"
         stdDeviation="6.7803529"
         id="feGaussianBlur3999" />
    </filter>
    <filter
       id="filter4001"
       x="-0.07492853"
       width="1.149857"
       y="-0.12866202"
       height="1.257324">
      <feGaussianBlur
         inkscape:collect="always"
         stdDeviation="6.7803529"
         id="feGaussianBlur4003" />
    </filter>
    <filter
       id="filter4005"
       x="-0.12232576"
       width="1.2446516"
       y="-0.076450996"
       height="1.152902">
      <feGaussianBlur
         inkscape:collect="always"
         stdDeviation="6.7803529"
         id="feGaussianBlur4007" />
    </filter>
    <filter
       id="filter4009"
       x="-0.11224329"
       width="1.2244866"
       y="-0.079873785"
       height="1.1597476">
      <feGaussianBlur
         inkscape:collect="always"
         stdDeviation="6.7803529"
         id="feGaussianBlur4011" />
    </filter>
    <radialGradient
       cx="353.6283"
       cy="241.04938"
       r="220.11942"
       fx="353.6283"
       fy="241.04938"
       id="radialGradient2607"
       xlink:href="#linearGradient6793"
       gradientUnits="userSpaceOnUse"
       gradientTransform="matrix(-1,0,0,0.9878188,582.03434,46.933265)" />
    <radialGradient
       cx="353.6283"
       cy="241.04938"
       r="220.11942"
       fx="353.6283"
       fy="241.04938"
       id="radialGradient2609"
       xlink:href="#linearGradient6793"
       gradientUnits="userSpaceOnUse"
       gradientTransform="matrix(-0.999176,-0.04058613,-0.04009174,0.9870049,587.79647,48.361326)" />
    <radialGradient
       cx="353.6283"
       cy="241.04938"
       r="220.11942"
       fx="353.6283"
       fy="241.04938"
       id="radialGradient2611"
       xlink:href="#linearGradient6793"
       gradientUnits="userSpaceOnUse"
       gradientTransform="matrix(-1,0,0,0.9878188,582.03434,46.933265)" />
    <radialGradient
       cx="353.6283"
       cy="241.04938"
       r="220.11942"
       fx="353.6283"
       fy="241.04938"
       id="radialGradient2613"
       xlink:href="#linearGradient6793"
       gradientUnits="userSpaceOnUse"
       gradientTransform="matrix(-1,0,0,0.9878188,582.03434,46.933265)" />
    <radialGradient
       cx="353.6283"
       cy="241.04938"
       r="220.11942"
       fx="353.6283"
       fy="241.04938"
       id="radialGradient2615"
       xlink:href="#linearGradient6793"
       gradientUnits="userSpaceOnUse"
       gradientTransform="matrix(-1,0,0,0.9878188,582.03434,46.933265)" />
    <radialGradient
       cx="353.6283"
       cy="241.04938"
       r="220.11942"
       fx="353.6283"
       fy="241.04938"
       id="radialGradient2617"
       xlink:href="#linearGradient6793"
       gradientUnits="userSpaceOnUse"
       gradientTransform="matrix(-0.999176,-0.04058613,-0.04009174,0.9870049,587.79647,48.361326)" />
    <radialGradient
       cx="353.6283"
       cy="241.04938"
       r="220.11942"
       fx="353.6283"
       fy="241.04938"
       id="radialGradient2619"
       xlink:href="#linearGradient6793"
       gradientUnits="userSpaceOnUse"
       gradientTransform="matrix(-1,0,0,0.9878188,582.03434,46.933265)" />
    <radialGradient
       cx="353.6283"
       cy="241.04938"
       r="220.11942"
       fx="353.6283"
       fy="241.04938"
       id="radialGradient2621"
       xlink:href="#linearGradient6793"
       gradientUnits="userSpaceOnUse"
       gradientTransform="matrix(-1,0,0,0.9878188,582.03434,46.933265)" />
    <radialGradient
       cx="353.6283"
       cy="241.04938"
       r="220.11942"
       fx="353.6283"
       fy="241.04938"
       id="radialGradient2623"
       xlink:href="#linearGradient6793"
       gradientUnits="userSpaceOnUse"
       gradientTransform="matrix(-1,0,0,0.9878188,582.03434,46.933265)" />
    <radialGradient
       cx="353.6283"
       cy="241.04938"
       r="220.11942"
       fx="353.6283"
       fy="241.04938"
       id="radialGradient2625"
       xlink:href="#linearGradient6793"
       gradientUnits="userSpaceOnUse"
       gradientTransform="matrix(-1,0,0,0.9878188,582.03434,46.933265)" />
    <filter
       id="filter3380"
       inkscape:label="Desaturate"
       x="0"
       y="0"
       width="1"
       height="1"
       inkscape:menu="Color"
       inkscape:menu-tooltip="Render in shades of gray by reducing saturation to zero"
       style="color-interpolation-filters:sRGB">
      <feColorMatrix
         id="feColorMatrix3382"
         type="saturate"
         values="0" />
    </filter>
  </defs>
  <g
     id="layer3"
     style="display:none">
    <path
       d="m 324.38759,135.62452 c -45.38059,3.2742 -125.14974,80.45343 -113.93317,80.06244 92.77726,-3.23392 150.72813,2.10512 223.11793,24.5811 10.71863,3.32799 -11.56647,-97.10992 -109.18476,-104.64354 z"
       id="path2544"
       style="display:inline;fill:#dbdbdb;fill-opacity:1;fill-rule:nonzero;stroke:none;stroke-width:25;stroke-linecap:butt;stroke-linejoin:round;stroke-miterlimit:4;stroke-dasharray:none;stroke-dashoffset:1;stroke-opacity:1;marker-mid:none;filter:url(#filter3985);enable-background:new"
       inkscape:connector-curvature="0"
       transform="scale(1.0666667)" />
    <path
       d="M 186.37822,72.150309 C 160.57833,109.62675 157.33905,256.29261 163.99898,247.2588 218.88951,172.80293 350.45207,80.852043 428.9148,43.825512 525.90264,-1.943011 243.81268,3.6410539 186.37822,72.150309 Z"
       id="path2546"
       style="display:inline;fill:#dbdbdb;fill-opacity:1;fill-rule:nonzero;stroke:#000000;stroke-width:0;stroke-linecap:butt;stroke-linejoin:round;stroke-miterlimit:4;stroke-dasharray:none;stroke-dashoffset:1;stroke-opacity:1;marker-mid:none;filter:url(#filter3989);enable-background:new"
       inkscape:connector-curvature="0"
       transform="scale(1.0666667)" />
    <path
       d="M 69.5521,231.67976 C 84.41923,274.68075 179.56014,331.84683 176.28962,321.11052 149.23774,232.30583 139.45061,174.93843 142.49683,99.2009 142.94789,87.986573 51.65499,135.42084 69.5521,231.67976 Z"
       id="path2548"
       style="display:inline;fill:#dbdbdb;fill-opacity:1;fill-rule:nonzero;stroke:none;stroke-width:25;stroke-linecap:butt;stroke-linejoin:round;stroke-miterlimit:4;stroke-dasharray:none;stroke-dashoffset:1;stroke-opacity:1;marker-mid:none;filter:url(#filter3993);enable-background:new"
       inkscape:connector-curvature="0"
       transform="scale(1.0666667)" />
    <path
       d="m 81.97729,372.8505 c 42.13653,17.1648 147.83895,-16.69886 137.60948,-21.31646 -84.61255,-38.1942 -134.204,-68.649 -189.1504,-120.86343 -8.1358,-7.73129 -32.64264,92.18775 51.54092,142.17989 z"
       id="path2550"
       style="display:inline;fill:#dbdbdb;fill-opacity:1;fill-rule:nonzero;stroke:none;stroke-width:25;stroke-linecap:butt;stroke-linejoin:round;stroke-miterlimit:4;stroke-dasharray:none;stroke-dashoffset:1;stroke-opacity:1;marker-mid:none;filter:url(#filter3997);enable-background:new"
       inkscape:connector-curvature="0"
       transform="scale(1.0666667)" />
    <path
       d="m 203.88504,453.62703 c 40.28664,-21.14484 82.54559,-123.77977 72.42084,-118.93689 -83.74641,40.05772 -138.99861,58.33341 -214.33707,66.67436 -11.15521,1.23503 49.42757,84.38627 141.91623,52.26253 z"
       id="path2552"
       style="display:inline;fill:#dbdbdb;fill-opacity:1;fill-rule:nonzero;stroke:none;stroke-width:25;stroke-linecap:butt;stroke-linejoin:round;stroke-miterlimit:4;stroke-dasharray:none;stroke-dashoffset:1;stroke-opacity:1;marker-mid:none;filter:url(#filter4001);enable-background:new"
       inkscape:connector-curvature="0"
       transform="scale(1.0666667)" />
    <path
       d="m 345.96158,410.03296 c 9.84126,-44.42146 -41.30053,-142.93171 -44.13379,-132.07183 -23.43513,89.82691 -45.12493,143.83025 -87.36533,206.76832 -6.25446,9.31914 96.3617,16.68976 131.49912,-74.69649 z"
       id="path2554"
       style="display:inline;fill:#dbdbdb;fill-opacity:1;fill-rule:nonzero;stroke:none;stroke-width:25;stroke-linecap:butt;stroke-linejoin:round;stroke-miterlimit:4;stroke-dasharray:none;stroke-dashoffset:1;stroke-opacity:1;marker-mid:none;filter:url(#filter4005);enable-background:new"
       inkscape:connector-curvature="0"
       transform="scale(1.0666667)" />
    <path
       d="M 401.89383,270.24178 C 374.5208,233.89852 266.4087,208.76833 272.82303,217.97814 c 53.05584,76.17847 80.01415,127.7542 100.41172,200.75689 3.02024,10.80938 75.29683,-62.40604 28.65908,-148.49325 z"
       id="path2556"
       style="display:inline;fill:#dbdbdb;fill-opacity:1;fill-rule:nonzero;stroke:none;stroke-width:25;stroke-linecap:butt;stroke-linejoin:round;stroke-miterlimit:4;stroke-dasharray:none;stroke-dashoffset:1;stroke-opacity:1;marker-mid:none;filter:url(#filter4009);enable-background:new"
       inkscape:connector-curvature="0"
       transform="scale(1.0666667)" />
  </g>
  <path
     id="path3225"
     style="opacity:0.6;fill:none;stroke:#3a3935;stroke-width:2.64940619;stroke-linecap:round;stroke-miterlimit:4;stroke-dasharray:none;stroke-opacity:1;marker-mid:none"
     d="m 47.540402,27.344812 c -3.465196,-3.979587 -17.151288,-6.73134 -16.339287,-5.722865 6.716428,8.341538 10.129123,13.989076 12.711286,21.982865 0.382338,1.183627 9.531953,-6.833457 3.628001,-16.26 z m -7.080555,15.307124 c 1.24582,-4.864147 -5.228304,-15.651013 -5.586972,-14.461857 -2.966692,9.836042 -5.71244,15.749404 -11.059723,22.641119 -0.791762,1.020444 12.198588,1.827526 16.646695,-8.179262 z m -17.985709,4.773548 c 5.099954,-2.315359 10.449585,-13.553876 9.167876,-13.023582 -10.601598,4.386319 -17.596065,6.387504 -27.133289,7.300839 -1.4121567,0.135235 6.25712,9.240291 17.965413,5.722743 z M 7.0416326,38.580458 C 12.375766,40.460004 25.756813,36.751934 24.461847,36.246308 13.750602,32.064046 7.4727374,28.729248 0.51698061,23.011769 -0.51294408,22.165194 -3.6153059,33.106323 7.0416326,38.580458 Z M 5.4687063,23.122273 C 7.3507616,27.830878 19.394809,34.09056 18.980788,32.914935 15.556246,23.190827 14.317275,16.909101 14.702903,8.6158472 14.760007,7.3878792 3.2030812,12.581928 5.4687063,23.122273 Z M 20.257922,5.6538087 C 16.991869,9.7574767 16.581804,25.817377 17.424894,24.828176 24.373579,16.675266 41.028303,6.6066478 50.961033,2.5522453 63.238886,-2.4594048 27.528645,-1.8479503 20.257922,5.6538087 Z m 17.470837,6.9504223 c -5.744806,0.358524 -15.842917,8.809646 -14.422991,8.766832 11.744829,-0.354115 19.080926,0.230509 28.244871,2.691628 1.35689,0.364416 -1.464218,-10.633529 -13.82188,-11.45846 z"
     inkscape:connector-curvature="0" />
  <path
     style="color:#000000;display:inline;overflow:visible;visibility:visible;opacity:1;fill:#ffffff;fill-opacity:1;stroke:none;stroke-width:2.64940619;marker:none;enable-background:accumulate"
     d="M 15.221144,29.924065 C 11.103649,27.513913 7.9202783,24.83892 7.0667227,23.071887 6.6720025,22.254733 6.565077,20.006014 6.8484998,18.482503 7.406578,15.482618 9.5888415,12.468596 12.514176,10.657386 c 0.289045,-0.178961 0.54725,-0.325383 0.573789,-0.325383 0.02653,0 0.0792,1.048895 0.117017,2.330875 0.161777,5.484502 0.923968,9.777061 2.843468,16.014043 0.340529,1.106471 0.605765,2.022396 0.589415,2.035389 -0.01636,0.01298 -0.653871,-0.34172 -1.416712,-0.788245 z"
     id="path4054"
     inkscape:connector-curvature="0" />
  <path
     style="color:#000000;display:inline;overflow:visible;visibility:visible;opacity:1;fill:#ffffff;fill-opacity:1;fill-rule:nonzero;stroke:none;stroke-width:2.64940619;marker:none;enable-background:accumulate"
     d="m 18.544495,20.765447 c 0.0346,-0.488375 0.08947,-1.367446 0.121954,-1.953495 C 18.827807,15.90057 19.439875,11.90175 20.058042,9.7202434 20.707416,7.4286239 21.190337,6.557925 22.241255,5.7839391 25.52857,3.3628775 32.674071,1.5253935 41.70733,0.7781862 c 3.04172,-0.25160313 8.395396,-0.17863436 9.35202,0.12746487 0.181738,0.058153 -0.02379,0.17491973 -1.204487,0.68430253 -5.83877,2.5190039 -11.918247,5.817202 -18.053765,9.7944134 -4.773959,3.094612 -8.750458,6.10692 -12.151811,9.205335 l -1.167698,1.063699 0.0629,-0.887954 z"
     id="path4056"
     inkscape:connector-curvature="0" />
  <path
     style="color:#000000;display:inline;overflow:visible;visibility:visible;opacity:1;fill:#ffffff;fill-opacity:1;fill-rule:nonzero;stroke:none;stroke-width:2.64940619;marker:none;enable-background:accumulate"
     d="M 49.303821,22.178756 C 48.525153,21.961767 45.43991,21.345754 43.760439,21.071938 39.693826,20.40893 35.773055,20.104376 30.263659,20.023553 l -3.903285,-0.05728 1.216677,-0.932349 c 3.001602,-2.300155 6.402336,-4.193816 8.665141,-4.825091 1.111937,-0.310206 1.416971,-0.340525 2.34242,-0.232818 1.791326,0.208479 3.729452,0.781754 5.220013,1.544017 2.677322,1.369163 4.938786,3.713539 6.109167,6.333141 0.240471,0.538235 0.210535,0.554212 -0.609971,0.325567 z"
     id="path4058"
     inkscape:connector-curvature="0" />
  <path
     style="color:#000000;display:inline;overflow:visible;visibility:visible;opacity:1;fill:#ffffff;fill-opacity:1;fill-rule:nonzero;stroke:none;stroke-width:2.64940619;marker:none;enable-background:accumulate"
     d="M 44.585065,41.121763 C 44.509114,40.865366 44.15303,39.936555 43.79376,39.057736 41.862419,34.333458 39.356127,30.034134 35.600707,25.003253 34.845138,23.991068 34.281665,23.15204 34.348544,23.13874 c 0.182619,-0.03631 3.126655,0.726197 4.587099,1.188071 1.6352,0.517141 4.560233,1.754823 5.492055,2.323877 1.323265,0.808104 1.796909,1.239993 2.224138,2.028071 0.932635,1.720368 1.357564,3.346465 1.354662,5.183991 -0.0035,2.205193 -0.722415,4.420159 -2.054967,6.331142 -0.44448,0.637419 -1.077901,1.394047 -1.167045,1.394047 -0.03373,0 -0.123472,-0.209778 -0.199421,-0.466176 z"
     id="path4060"
     inkscape:connector-curvature="0" />
  <path
     style="color:#000000;display:inline;overflow:visible;visibility:visible;opacity:1;fill:#ffffff;fill-opacity:1;fill-rule:nonzero;stroke:none;stroke-width:2.64940619;marker:none;enable-background:accumulate"
     d="m 26.393142,49.734905 c 0.461037,-0.581369 2.049031,-2.984782 2.922387,-4.423002 1.951965,-3.214448 3.788718,-7.26367 5.354525,-11.804334 0.378927,-1.098842 0.726387,-2.097787 0.772135,-2.219881 0.07486,-0.199836 0.129285,-0.137807 0.545165,0.621567 2.083858,3.804973 3.304598,7.611865 3.116916,9.720129 -0.05508,0.618744 -0.132665,0.8302 -0.618965,1.687109 -0.984561,1.734889 -2.562952,3.384452 -4.255343,4.447235 -0.936248,0.587938 -2.570553,1.308711 -3.80216,1.676854 -1.146851,0.342807 -3.023994,0.671705 -3.833675,0.671705 h -0.500253 z"
     id="path4062"
     inkscape:connector-curvature="0" />
  <path
     style="color:#000000;display:inline;overflow:visible;visibility:visible;opacity:1;fill:#ffffff;fill-opacity:1;fill-rule:nonzero;stroke:none;stroke-width:2.64940619;marker:none;enable-background:accumulate"
     d="m 14.76141,46.771696 c -1.838754,-0.287019 -4.09325,-1.13188 -5.7298027,-2.147213 -0.8913178,-0.552984 -2.4118908,-1.74595 -2.3254026,-1.824397 0.030594,-0.02775 0.4001616,-0.0951 0.8212419,-0.14963 5.3160454,-0.688557 9.9889694,-1.764818 15.2499164,-3.512338 1.799236,-0.597651 5.598973,-1.985646 6.325548,-2.310641 0.16768,-0.075 0.329041,-0.11547 0.358579,-0.08991 0.09535,0.08248 -2.091785,3.797065 -2.855913,4.850383 -1.444581,1.991289 -2.913969,3.525692 -4.079154,4.259641 -1.097576,0.69136 -3.078998,1.07261 -5.507676,1.059749 -0.790445,-0.0042 -1.806246,-0.06523 -2.257337,-0.135634 v 0 z"
     id="path4064"
     inkscape:connector-curvature="0" />
  <path
     style="color:#000000;display:inline;overflow:visible;visibility:visible;opacity:1;fill:#f9f9f9;fill-opacity:1;fill-rule:nonzero;stroke:none;stroke-width:2.64940619;marker:none;enable-background:accumulate"
     d="M 9.627568,37.765027 C 8.2738313,37.635887 7.8624838,37.513727 6.8934819,36.953084 3.4213786,34.944198 1.2976234,31.7845 0.847449,27.957865 0.72878128,26.949146 0.79964825,25.287299 0.96510365,25.19885 c 0.0507599,-0.02714 0.35756725,0.165234 0.68179075,0.427491 0.8902923,0.720139 2.7803495,2.05504 4.3877404,3.098953 3.6299788,2.357475 7.8911082,4.566235 12.9345622,6.704642 1.185669,0.502719 2.125735,0.915171 2.089037,0.916558 -0.0367,0.0014 -0.660329,0.143891 -1.385847,0.316675 -3.615358,0.861006 -7.780326,1.317878 -10.044819,1.101858 z"
     id="path4066"
     inkscape:connector-curvature="0" />
</svg>
