<?xml version="1.0" encoding="UTF-8" standalone="no"?>
<!DOCTYPE svg PUBLIC "-//W3C//DTD SVG 20010904//EN"
"http://www.w3.org/TR/2001/REC-SVG-20010904/DTD/svg10.dtd">
<!-- Created with Sodipodi ("http://www.sodipodi.com/") -->
<svg
   id="svg956"
   sodipodi:version="0.32pre"
   width="48pt"
   height="48pt"
   sodipodi:docbase="/home/cschalle/gnome-themes-extras/Amaranth/icons/scalable/stock"
   sodipodi:docname="/home/cschalle/gnome-themes-extras/Amaranth/icons/scalable/stock/gnome-logo.svg"
   xmlns="http://www.w3.org/2000/svg"
   xmlns:sodipodi="http://sodipodi.sourceforge.net/DTD/sodipodi-0.dtd"
   xmlns:xlink="http://www.w3.org/1999/xlink">
  <defs
     id="defs958">
    <linearGradient
       id="linearGradient1034">
      <stop
         style="stop-color:#000;stop-opacity:1;"
         offset="0"
         id="stop1035" />
      <stop
         style="stop-color:#fff;stop-opacity:1;"
         offset="1"
         id="stop1036" />
    </linearGradient>
    <linearGradient
       xlink:href="#linearGradient1034"
       id="linearGradient1037"
       y2="0.16021536"
       x2="0.05447711"
       y1="0.68268728"
       x1="1.01658726"
       spreadMethod="pad"
       gradientTransform="matrix(1.000003,-3.810121e-6,-4.285005e-8,0.999997,-1.033762e-8,-1.736323e-7)"
       gradientUnits="objectBoundingBox" />
    <linearGradient
       xlink:href="#linearGradient1034"
       id="linearGradient1038" />
  </defs>
  <sodipodi:namedview
     id="base" />
  <g
     id="g221"
     transform="matrix(0.914571,0,0,0.91457,-0.657105,-1.23369)">
    <g
       id="g176"
       style="font-size:12;stroke:#000000;"
       transform="translate(-12.02599,-16.08069)">
      <linearGradient
         id="XMLID_3_"
         gradientUnits="userSpaceOnUse"
         x1="23.5732"
         y1="28.4121"
         x2="67.9663"
         y2="72.8052">
        <stop
           offset="0"
           style="stop-color:#BABABA"
           id="stop178" />
        <stop
           offset="1"
           style="stop-color:#26992F"
           id="stop179" />
        <midPointStop
           offset="0"
           style="stop-color:#BABABA"
           id="midPointStop180" />
        <midPointStop
           offset="0.5"
           style="stop-color:#BABABA"
           id="midPointStop181" />
        <midPointStop
           offset="1"
           style="stop-color:#26992F"
           id="midPointStop182" />
      </linearGradient>
      <path
         knockout="Off"
         fill="url(#XMLID_3_)"
         stroke="none"
         d="M77.159,50.608c0-17.336-14.054-31.39-31.39-31.39      s-31.39,14.054-31.39,31.39s14.054,31.39,31.39,31.39S77.159,67.944,77.159,50.608z"
         id="path183" />
      <path
         knockout="Off"
         fill="none"
         d="M77.159,50.608c0-17.336-14.054-31.39-31.39-31.39s-31.39,14.054-31.39,31.39      s14.054,31.39,31.39,31.39S77.159,67.944,77.159,50.608z"
         id="path184" />
    </g>
    <path
       knockout="Off"
       opacity="0.3"
       fill="#FFFFFF"
       stroke="none"
       d="M63.334,65.667c33.666-0.334,49.583,38.396,55.723,12.014    c1.053-4.521,1.61-9.242,1.61-14.097c0-33.183-26.042-60.083-58.167-60.083c-25.325,0-46.87,16.717-54.855,40.052    C7.645,43.553,29.667,66.001,63.334,65.667z"
       id="path224"
       style="font-size:12;opacity:0.3;fill:#ffffff;stroke:none;stroke-opacity:1;"
       transform="matrix(0.528191,0.000000,0.000000,0.520251,0.812973,1.405884)" />
    <g
       id="g170"
       style="font-size:12;stroke:#000000;"
       transform="matrix(0.549663,0.000000,0.000000,0.529099,-0.976302,0.711392)">
      <linearGradient
         id="XMLID_2_"
         gradientUnits="userSpaceOnUse"
         x1="14.7119"
         y1="64.5083"
         x2="33.4395"
         y2="60.7053"
         gradientTransform="matrix(0.7624 0.6471 -0.873 1.0287 61.2997 -19.9834)">
        <stop
           offset="0"
           style="stop-color:#FFFFFF"
           id="stop172" />
        <stop
           offset="1"
           style="stop-color:#000000"
           id="stop173" />
        <midPointStop
           offset="0"
           style="stop-color:#FFFFFF"
           id="midPointStop174" />
        <midPointStop
           offset="0.5"
           style="stop-color:#FFFFFF"
           id="midPointStop175" />
        <midPointStop
           offset="1"
           style="stop-color:#000000"
           id="midPointStop176" />
      </linearGradient>
      <path
         knockout="Off"
         fill="url(#XMLID_2_)"
         stroke="none"
         d="M32.434,66.309c-2.17,2.558-7.257,1.805-11.362-1.68      s-5.675-8.381-3.505-10.938s7.256-1.804,11.362,1.681S34.604,63.752,32.434,66.309z"
         id="path177" />
      <path
         knockout="Off"
         fill="none"
         d="M32.434,66.309c-2.17,2.558-7.257,1.805-11.362-1.68s-5.675-8.381-3.505-10.938      s7.256-1.804,11.362,1.681S34.604,63.752,32.434,66.309z"
         id="path178" />
    </g>
    <g
       id="g192"
       style="font-size:12;stroke:#000000;"
       transform="matrix(0.549663,0.000000,0.000000,0.529099,-0.976302,0.711392)">
      <linearGradient
         id="XMLID_4_"
         gradientUnits="userSpaceOnUse"
         x1="34.439"
         y1="37.104"
         x2="50.6694"
         y2="26.359"
         gradientTransform="matrix(0.5224 0.8527 -0.8527 0.5224 46.0772 -25.1128)">
        <stop
           offset="0"
           style="stop-color:#FFFFFF"
           id="stop194" />
        <stop
           offset="1"
           style="stop-color:#000000"
           id="stop195" />
        <midPointStop
           offset="0"
           style="stop-color:#FFFFFF"
           id="midPointStop196" />
        <midPointStop
           offset="0.5"
           style="stop-color:#FFFFFF"
           id="midPointStop197" />
        <midPointStop
           offset="1"
           style="stop-color:#000000"
           id="midPointStop198" />
      </linearGradient>
      <path
         knockout="Off"
         fill="url(#XMLID_4_)"
         stroke="none"
         d="M46.735,36.703c-3.65,2.236-9.064,0.04-12.094-4.904      c-3.029-4.945-2.527-10.766,1.123-13.002c3.65-2.236,9.064-0.04,12.094,4.904C50.888,28.646,50.385,34.467,46.735,36.703z"
         id="path199" />
      <path
         knockout="Off"
         fill="none"
         d="M46.735,36.703c-3.65,2.236-9.064,0.04-12.094-4.904      c-3.029-4.945-2.527-10.766,1.123-13.002c3.65-2.236,9.064-0.04,12.094,4.904C50.888,28.646,50.385,34.467,46.735,36.703z"
         id="path200" />
    </g>
    <g
       id="g203"
       style="font-size:12;stroke:#000000;"
       transform="matrix(0.547200,0.000000,0.000000,0.547200,-0.935446,0.554882)">
      <linearGradient
         id="XMLID_5_"
         gradientUnits="userSpaceOnUse"
         x1="52.3438"
         y1="15.5039"
         x2="71.6745"
         y2="26.6978"
         gradientTransform="matrix(0.9961 -0.0884 0.0884 0.9961 -2.1327 6.4629)">
        <stop
           offset="0"
           style="stop-color:#FFFFFF"
           id="stop205" />
        <stop
           offset="1"
           style="stop-color:#000000"
           id="stop206" />
        <midPointStop
           offset="0"
           style="stop-color:#FFFFFF"
           id="midPointStop207" />
        <midPointStop
           offset="0.5"
           style="stop-color:#FFFFFF"
           id="midPointStop208" />
        <midPointStop
           offset="1"
           style="stop-color:#000000"
           id="midPointStop209" />
      </linearGradient>
      <path
         knockout="Off"
         fill="url(#XMLID_5_)"
         stroke="none"
         d="M51.539,22.884c0.696,7.839,5.72,13.798,11.222,13.31      c5.5-0.489,9.396-7.239,8.7-15.079S65.74,7.317,60.239,7.806C54.738,8.294,50.843,15.045,51.539,22.884z"
         id="path210" />
      <path
         knockout="Off"
         fill="none"
         d="M51.539,22.884c0.696,7.839,5.72,13.798,11.222,13.31c5.5-0.489,9.396-7.239,8.7-15.079      S65.74,7.317,60.239,7.806C54.738,8.294,50.843,15.045,51.539,22.884z"
         id="path211" />
    </g>
    <g
       id="g214"
       style="font-size:12;stroke:#000000;"
       transform="matrix(0.549663,0.000000,0.000000,0.529099,-0.976302,0.711392)">
      <linearGradient
         id="XMLID_6_"
         gradientUnits="userSpaceOnUse"
         x1="34.8213"
         y1="63.2559"
         x2="97.2618"
         y2="92.3724">
        <stop
           offset="0"
           style="stop-color:#FFFFFF"
           id="stop216" />
        <stop
           offset="1"
           style="stop-color:#000000"
           id="stop217" />
        <midPointStop
           offset="0"
           style="stop-color:#FFFFFF"
           id="midPointStop218" />
        <midPointStop
           offset="0.5"
           style="stop-color:#FFFFFF"
           id="midPointStop219" />
        <midPointStop
           offset="1"
           style="stop-color:#000000"
           id="midPointStop220" />
      </linearGradient>
      <path
         knockout="Off"
         fill="url(#XMLID_6_)"
         stroke="none"
         d="M77.75,52.25c0.396,11.493-11,15-15,17.5s-4.25,7-4.25,10      s5.509,16.246,13,10c1.11-0.926,2.326-1.609,3.5-11.75s23.5-13.75,25,0s-8.25,29.25-25,35.5s-27.75-3.5-37.25-32      s13.25-42.25,25-42.25S77.5,45,77.75,52.25z"
         id="path221" />
      <path
         knockout="Off"
         fill="none"
         d="M77.75,52.25c0.396,11.493-11,15-15,17.5s-4.25,7-4.25,10s5.509,16.246,13,10      c1.11-0.926,2.326-1.609,3.5-11.75s23.5-13.75,25,0s-8.25,29.25-25,35.5s-27.75-3.5-37.25-32s13.25-42.25,25-42.25      S77.5,45,77.75,52.25z"
         id="path222" />
    </g>
    <g
       id="g181"
       style="font-size:12;stroke:#000000;fill:url(#linearGradient1037);"
       transform="matrix(0.585656,5.636508e-2,-5.135125e-2,0.494384,0.308826,0.490393)">
      <linearGradient
         id="linearGradient1026"
         gradientUnits="userSpaceOnUse"
         x1="15.5239"
         y1="47.6221"
         x2="36.2659"
         y2="42.5133"
         gradientTransform="matrix(0.5915 0.6176 -0.9744 0.9332 57.5307 -15.8603)"
         style="fill:url(#linearGradient1037);">
        <stop
           offset="0"
           style="stop-color:#FFFFFF;fill:url(#linearGradient1037);"
           id="stop183" />
        <stop
           offset="1"
           style="stop-color:#000000;fill:url(#linearGradient1037);"
           id="stop184" />
        <midPointStop
           offset="0"
           style="stop-color:#FFFFFF;fill:url(#linearGradient1037);"
           id="midPointStop185" />
        <midPointStop
           offset="0.5"
           style="stop-color:#FFFFFF;fill:url(#linearGradient1037);"
           id="midPointStop186" />
        <midPointStop
           offset="1"
           style="stop-color:#000000;fill:url(#linearGradient1037);"
           id="midPointStop187" />
      </linearGradient>
      <path
         knockout="Off"
         fill="url(#XMLID_3_)"
         stroke="none"
         d="M35.441,48.982c-2.152,2.062-6.811,0.691-10.404-3.06      c-3.594-3.752-4.762-8.465-2.61-10.527c2.153-2.062,6.812-0.691,10.404,3.061C36.425,42.208,37.593,46.92,35.441,48.982z"
         id="path188"
         style="fill:url(#linearGradient1037);" />
      <path
         knockout="Off"
         fill="none"
         d="M35.441,48.982c-2.152,2.062-6.811,0.691-10.404-3.06      c-3.594-3.752-4.762-8.465-2.61-10.527c2.153-2.062,6.812-0.691,10.404,3.061C36.425,42.208,37.593,46.92,35.441,48.982z"
         id="path189"
         style="fill:url(#linearGradient1037);" />
    </g>
    <path
       knockout="Off"
       display="none"
       opacity="0.3"
       fill="#FFFFFF"
       stroke="none"
       d="M28.775,61.992    c-5.275-0.492-9.577-5.984-8.459-7.301c2.17-2.557,7.256-1.804,11.362,1.681s5.675,8.38,3.505,10.937    C35.184,67.309,34.051,62.484,28.775,61.992z M35.581,39.456c-3.592-3.752-8.251-5.123-10.404-3.061    c-2.152,2.062-0.984,6.774,2.61,10.527c3.593,3.751,8.251,5.122,10.404,3.06S39.175,43.208,35.581,39.456z M50.608,24.701    c-3.029-4.944-8.444-7.141-12.094-4.904c-3.65,2.236-4.152,8.057-1.123,13.002c3.029,4.944,8.444,7.141,12.094,4.904    C53.135,35.467,53.638,29.646,50.608,24.701z M54.289,23.884c0.696,7.839,5.72,13.798,11.222,13.31    c5.5-0.489,9.396-7.239,8.7-15.079S68.49,8.317,62.989,8.806C57.488,9.294,53.593,16.045,54.289,23.884z M61.25,80.75    c0-3,0.25-7.5,4.25-10s15.396-6.007,15-17.5c-0.25-7.25-3.25-13-15-13c-8.617,0-23.552,7.26-26.862,22.47    C37.945,65.901,43.75,78.5,49.5,74.75S61.25,80.75,61.25,80.75z M103.5,84.75c2-20.5-27-20-26.5,1.25c0.023,0.985,9-7,13.75-2.75    S103.5,84.75,103.5,84.75z"
       id="path223"
       style="font-size:12;opacity:0.3;fill:#ffffff;"
       transform="matrix(0.549663,0.000000,0.000000,0.529099,-0.915652,0.890359)" />
    <path
       knockout="Off"
       opacity="0.3"
       fill="#FFFFFF"
       stroke="none"
       d="M67.929,9.256c0.691,1.805-8.678,7.071-20.927,11.763    c-12.25,4.691-22.74,7.031-23.431,5.226s8.678-7.071,20.927-11.763C56.748,9.79,67.237,7.451,67.929,9.256z"
       id="path225"
       style="font-size:12;opacity:0.3;fill:#ffffff;"
       transform="matrix(0.549663,0.000000,0.000000,0.529099,-0.976302,0.711392)" />
  </g>
</svg>
