<?xml version="1.0" encoding="UTF-8" standalone="no"?>
<!DOCTYPE svg PUBLIC "-//W3C//DTD SVG 20010904//EN"
"http://www.w3.org/TR/2001/REC-SVG-20010904/DTD/svg10.dtd">
<!-- Created with Sodipodi ("http://www.sodipodi.com/") -->
<svg
   id="svg173"
   sodipodi:version="0.32pre"
   width="48pt"
   height="48pt"
   sodipodi:docbase="/home/cschalle/gnome-themes-extras/Amaranth/icons/scalable/stock"
   sodipodi:docname="/home/cschalle/gnome-themes-extras/Amaranth/icons/scalable/stock/stock_stop.svg"
   xmlns="http://www.w3.org/2000/svg"
   xmlns:sodipodi="http://sodipodi.sourceforge.net/DTD/sodipodi-0.dtd"
   xmlns:xlink="http://www.w3.org/1999/xlink">
  <defs
     id="defs175" />
  <sodipodi:namedview
     id="base" />
  <g
     id="Layer_1"
     layer="yes"
     dimmedPercent="50"
     rgbTrio="#4F008000FFFF"
     stroke="#000000"
     transform="matrix(4.01375,0,0,3.98756,0.653237,1.03594)">
    <linearGradient
       id="XMLID_1_"
       gradientUnits="userSpaceOnUse"
       x1="2.3364"
       y1="2.3359"
       x2="12.4127"
       y2="12.4122">
      <stop
         offset="0"
         style="stop-color:#FFFFFF"
         id="stop157" />
      <stop
         offset="1"
         style="stop-color:#F8190D"
         id="stop158" />
      <midPointStop
         offset="0"
         style="stop-color:#FFFFFF"
         id="midPointStop159" />
      <midPointStop
         offset="0.5"
         style="stop-color:#FFFFFF"
         id="midPointStop160" />
      <midPointStop
         offset="1"
         style="stop-color:#F8190D"
         id="midPointStop161" />
    </linearGradient>
    <path
       knockout="Off"
       fill="url(#XMLID_1_)"
       stroke-width="0.5"
       stroke-linejoin="round"
       d="M14.5,7.374    c0-3.935-3.19-7.125-7.126-7.125c-3.935,0-7.125,3.19-7.125,7.125s3.19,7.125,7.125,7.125C11.309,14.499,14.5,11.309,14.5,7.374z"
       id="path162" />
    <linearGradient
       id="XMLID_2_"
       gradientUnits="userSpaceOnUse"
       x1="7.4111"
       y1="13.3115"
       x2="7.4111"
       y2="1.5073"
       gradientTransform="matrix(-0.7071 0.7071 -0.7071 -0.7071 17.8544 7.3719)">
      <stop
         offset="0"
         style="stop-color:#FFFFFF"
         id="stop164" />
      <stop
         offset="1"
         style="stop-color:#F98F6E"
         id="stop165" />
      <midPointStop
         offset="0"
         style="stop-color:#FFFFFF"
         id="midPointStop166" />
      <midPointStop
         offset="0.5"
         style="stop-color:#FFFFFF"
         id="midPointStop167" />
      <midPointStop
         offset="1"
         style="stop-color:#F98F6E"
         id="midPointStop168" />
    </linearGradient>
    <path
       knockout="Off"
       fill="url(#XMLID_2_)"
       stroke-width="0.25"
       stroke-linejoin="round"
       d="M8.208,7.42l3.779-3.779    l-0.831-0.832L7.398,6.568l-3.78-3.782L2.787,3.617l3.757,3.805L2.81,11.156l0.832,0.83l3.712-3.712l3.779,3.69l0.831-0.831    L8.208,7.42z"
       id="path169" />
    <path
       knockout="Off"
       opacity="0.3"
       fill="#FAFAFA"
       stroke="none"
       d="M7.995,7.915c5.333,2.167,6.364-2.345,6.045-3.154    c-1.042-2.642-3.618-4.512-6.631-4.512c-3.936,0-7.125,3.19-7.125,7.125c0,1.538,0.396,3.031,1.314,4.125    C1.703,11.623,2.662,5.748,7.995,7.915z"
       id="path170" />
  </g>
</svg>
