<?xml version="1.0" encoding="UTF-8" standalone="no"?>
<!DOCTYPE svg PUBLIC "-//W3C//DTD SVG 20010904//EN"
"http://www.w3.org/TR/2001/REC-SVG-20010904/DTD/svg10.dtd">
<!-- Created with Sodipodi ("http://www.sodipodi.com/") -->
<svg
   i:viewOrigin="250 456"
   i:rulerOrigin="-242 -332"
   i:pageBounds="242 460 370 332"
   width="48pt"
   height="48pt"
   viewBox="0 0 117 134"
   overflow="visible"
   enable-background="new 0 0 117 134"
   xml:space="preserve"
   id="svg153"
   sodipodi:version="0.32pre"
   sodipodi:docname="/home/cschalle/gnome-themes-extras/Amaranth/icons/scalable/stock/stock_print-preview.svg"
   sodipodi:docbase="/home/cschalle/gnome-themes-extras/Amaranth/icons/scalable/stock/"
   xmlns="http://www.w3.org/2000/svg"
   xmlns:sodipodi="http://sodipodi.sourceforge.net/DTD/sodipodi-0.dtd"
   xmlns:ns="http://ns.adobe.com/Variables/1.0/"
   xmlns:i="http://ns.adobe.com/AdobeIllustrator/10.0/"
   xmlns:xml="http://www.w3.org/XML/1998/namespace"
   xmlns:a="http://ns.adobe.com/AdobeSVGViewerExtensions/3.0/"
   xmlns:xlink="http://www.w3.org/1999/xlink">
  <defs
     id="defs248">
    <linearGradient
       id="XMLID_7_"
       gradientUnits="userSpaceOnUse"
       x1="8.7817"
       y1="62.0322"
       x2="18.2193"
       y2="71.4698">
      <stop
         offset="0"
         style="stop-color:#BFBFBF"
         id="stop238" />
      <stop
         offset="1"
         style="stop-color:#7F7F7F"
         id="stop239" />
      <a:midPointStop
         offset="0"
         style="stop-color:#BFBFBF"
         id="midPointStop240" />
      <a:midPointStop
         offset="0.5"
         style="stop-color:#BFBFBF"
         id="midPointStop241" />
      <a:midPointStop
         offset="1"
         style="stop-color:#7F7F7F"
         id="midPointStop242" />
    </linearGradient>
    <linearGradient
       id="XMLID_6_"
       gradientUnits="userSpaceOnUse"
       x1="96.1299"
       y1="59.6294"
       x2="100.3718"
       y2="63.8713">
      <stop
         offset="0"
         style="stop-color:#E0F29A"
         id="stop227" />
      <stop
         offset="1"
         style="stop-color:#42A729"
         id="stop228" />
      <a:midPointStop
         offset="0"
         style="stop-color:#E0F29A"
         id="midPointStop229" />
      <a:midPointStop
         offset="0.5"
         style="stop-color:#E0F29A"
         id="midPointStop230" />
      <a:midPointStop
         offset="1"
         style="stop-color:#42A729"
         id="midPointStop231" />
    </linearGradient>
    <linearGradient
       id="XMLID_5_"
       gradientUnits="userSpaceOnUse"
       x1="96.1289"
       y1="52.6284"
       x2="100.3722"
       y2="56.8717">
      <stop
         offset="0"
         style="stop-color:#E0F29A"
         id="stop216" />
      <stop
         offset="1"
         style="stop-color:#42A729"
         id="stop217" />
      <a:midPointStop
         offset="0"
         style="stop-color:#E0F29A"
         id="midPointStop218" />
      <a:midPointStop
         offset="0.5"
         style="stop-color:#E0F29A"
         id="midPointStop219" />
      <a:midPointStop
         offset="1"
         style="stop-color:#42A729"
         id="midPointStop220" />
    </linearGradient>
  </defs>
  <sodipodi:namedview
     id="base" />
  <metadata
     id="metadata154">
    <sfw>
      <slices />
      <sliceSourceBounds
         x="250"
         y="322"
         width="117"
         height="134"
         bottomLeftOrigin="true" />
    </sfw>
    <ns:variableSets>
      <ns:variableSet
         varSetName="binding1"
         locked="none">
        <ns:variables />
        <ns:sampleDataSets />
      </ns:variableSet>
    </ns:variableSets>
  </metadata>
  <g
     id="g223"
     transform="matrix(1.09218,0,0,1.04718,-0.691331,-0.294895)">
    <g
       id="g160"
       style="font-size:12;stroke:#000000;">
      <linearGradient
         id="XMLID_1_"
         gradientUnits="userSpaceOnUse"
         x1="29.7505"
         y1="11.0005"
         x2="80.5006"
         y2="61.7506">
        <stop
           offset="0"
           style="stop-color:#FFFFFF"
           id="stop162" />
        <stop
           offset="1"
           style="stop-color:#646464"
           id="stop163" />
        <a:midPointStop
           offset="0"
           style="stop-color:#FFFFFF"
           id="midPointStop164" />
        <a:midPointStop
           offset="0.5"
           style="stop-color:#FFFFFF"
           id="midPointStop165" />
        <a:midPointStop
           offset="1"
           style="stop-color:#646464"
           id="midPointStop166" />
      </linearGradient>
      <path
         i:knockout="Off"
         fill="url(#XMLID_1_)"
         stroke="none"
         d="M80.5,61.75H29.75V11H80.5V61.75z"
         id="path167" />
      <path
         i:knockout="Off"
         fill="none"
         d="M80.5,56.75c0,2.75-2.25,5-5,5H34.75c-2.75,0-5-2.25-5-5V16c0-2.75,2.25-5,5-5H75.5       c2.75,0,5,2.25,5,5V56.75z"
         id="path168" />
    </g>
    <g
       id="g171"
       style="font-size:12;stroke:#000000;">
      <path
         i:knockout="Off"
         fill="#FFFFFF"
         stroke="none"
         d="M75.75,60.25h-41.5v-54h41.5V60.25z"
         id="path172" />
      <path
         i:knockout="Off"
         fill="none"
         d="M75.75,60.25h-41.5v-54h41.5V60.25z"
         id="path173" />
    </g>
    <g
       id="g178"
       style="font-size:12;stroke:#000000;">
      <linearGradient
         id="XMLID_2_"
         gradientUnits="userSpaceOnUse"
         x1="24.812"
         y1="36.062"
         x2="87.9379"
         y2="99.1879">
        <stop
           offset="0"
           style="stop-color:#FFFFFF"
           id="stop180" />
        <stop
           offset="1"
           style="stop-color:#646464"
           id="stop181" />
        <a:midPointStop
           offset="0"
           style="stop-color:#FFFFFF"
           id="midPointStop182" />
        <a:midPointStop
           offset="0.5"
           style="stop-color:#FFFFFF"
           id="midPointStop183" />
        <a:midPointStop
           offset="1"
           style="stop-color:#646464"
           id="midPointStop184" />
      </linearGradient>
      <path
         i:knockout="Off"
         fill="url(#XMLID_2_)"
         stroke="none"
         d="M105.25,77.75c0,5.5-4.5,10-10,10H17.5c-5.5,0-10-4.5-10-10       V57.5c0-5.5,4.5-10,10-10h77.75c5.5,0,10,4.5,10,10V77.75z"
         id="path185" />
      <path
         i:knockout="Off"
         fill="none"
         d="M105.25,77.75c0,5.5-4.5,10-10,10H17.5c-5.5,0-10-4.5-10-10V57.5c0-5.5,4.5-10,10-10       h77.75c5.5,0,10,4.5,10,10V77.75z"
         id="path186" />
    </g>
    <g
       id="g189"
       style="font-size:12;stroke:#000000;">
      <linearGradient
         id="XMLID_3_"
         gradientUnits="userSpaceOnUse"
         x1="39.2505"
         y1="66"
         x2="71.5005"
         y2="98.25">
        <stop
           offset="0"
           style="stop-color:#636363"
           id="stop191" />
        <stop
           offset="1"
           style="stop-color:#141414"
           id="stop192" />
        <a:midPointStop
           offset="0"
           style="stop-color:#636363"
           id="midPointStop193" />
        <a:midPointStop
           offset="0.5"
           style="stop-color:#636363"
           id="midPointStop194" />
        <a:midPointStop
           offset="1"
           style="stop-color:#141414"
           id="midPointStop195" />
      </linearGradient>
      <path
         i:knockout="Off"
         fill="url(#XMLID_3_)"
         stroke="none"
         d="M85.5,84.25H25.25V80H85.5V84.25z"
         id="path196" />
      <path
         i:knockout="Off"
         fill="none"
         d="M85.5,84.25H25.25V80H85.5V84.25z"
         id="path197" />
    </g>
    <g
       id="g200"
       style="font-size:12;stroke:#000000;">
      <path
         i:knockout="Off"
         fill="#FFFFFF"
         stroke="none"
         d="M79.665,112.484c-14.025,3.558-28.293,7.902-42.741,13.066      c-2.901-13.71-3.623-27.934-2.039-42.106c13.301-1.124,26.205-1.557,38.656-1.343C73.865,92.702,75.977,102.978,79.665,112.484z      "
         id="path201" />
      <path
         i:knockout="Off"
         fill="none"
         d="M79.665,112.484c-14.025,3.558-28.293,7.902-42.741,13.066      c-2.901-13.71-3.623-27.934-2.039-42.106c13.301-1.124,26.205-1.557,38.656-1.343C73.865,92.702,75.977,102.978,79.665,112.484z      "
         id="path202" />
    </g>
    <g
       id="g205"
       style="font-size:12;stroke:#000000;">
      <linearGradient
         id="XMLID_4_"
         gradientUnits="userSpaceOnUse"
         x1="34.5586"
         y1="33.3716"
         x2="77.9"
         y2="76.7129">
        <stop
           offset="0"
           style="stop-color:#FFFFFF"
           id="stop207" />
        <stop
           offset="1"
           style="stop-color:#7EABD1"
           id="stop208" />
        <a:midPointStop
           offset="0"
           style="stop-color:#FFFFFF"
           id="midPointStop209" />
        <a:midPointStop
           offset="0.5"
           style="stop-color:#FFFFFF"
           id="midPointStop210" />
        <a:midPointStop
           offset="1"
           style="stop-color:#7EABD1"
           id="midPointStop211" />
      </linearGradient>
      <path
         i:knockout="Off"
         fill="url(#XMLID_4_)"
         stroke="none"
         d="M93.833,59.542c0,1.65-1.35,3-3,3H21.625c-1.65,0-3-1.35-3-3v-9      c0-1.65,1.35-3,3-3h69.208c1.65,0,3,1.35,3,3V59.542z"
         id="path212" />
      <path
         i:knockout="Off"
         opacity="0.5"
         fill="none"
         d="M93.833,59.542c0,1.65-1.35,3-3,3H21.625c-1.65,0-3-1.35-3-3v-9      c0-1.65,1.35-3,3-3h69.208c1.65,0,3,1.35,3,3V59.542z"
         id="path213" />
    </g>
    <path
       i:knockout="Off"
       fill="url(#XMLID_5_)"
       stroke="none"
       d="M101.25,54.75c0-1.657-1.343-3-3-3s-3,1.343-3,3s1.343,3,3,3     S101.25,56.407,101.25,54.75z"
       id="path221"
       style="font-size:12;fill:url(#XMLID_5_);" />
    <path
       i:knockout="Off"
       fill="none"
       stroke-width="0.5"
       d="M101.25,54.75c0-1.657-1.343-3-3-3s-3,1.343-3,3s1.343,3,3,3      S101.25,56.407,101.25,54.75z"
       id="path224"
       style="font-size:12;fill:none;stroke:#000000;stroke-width:0.5;" />
    <path
       i:knockout="Off"
       fill="url(#XMLID_6_)"
       stroke="none"
       d="M101.25,61.75c0-1.656-1.343-3-3-3s-3,1.344-3,3s1.343,3,3,3     S101.25,63.406,101.25,61.75z"
       id="path232"
       style="font-size:12;fill:url(#XMLID_6_);" />
    <path
       i:knockout="Off"
       fill="none"
       stroke-width="0.5"
       d="M101.25,61.75c0-1.656-1.343-3-3-3s-3,1.344-3,3s1.343,3,3,3      S101.25,63.406,101.25,61.75z"
       id="path235"
       style="font-size:12;fill:none;stroke:#000000;stroke-width:0.5;" />
    <path
       i:knockout="Off"
       fill="url(#XMLID_7_)"
       stroke="none"
       d="M14.917,62.313c0-2.75-0.638-5-1.417-5s-1.417,2.25-1.417,5v8.875     c0,2.75,0.638,5,1.417,5s1.417-2.25,1.417-5V62.313z"
       id="path243"
       style="font-size:12;fill:url(#XMLID_7_);" />
    <path
       i:knockout="Off"
       fill="none"
       stroke-width="0.5"
       d="M14.917,62.313c0-2.75-0.638-5-1.417-5s-1.417,2.25-1.417,5v8.875      c0,2.75,0.638,5,1.417,5s1.417-2.25,1.417-5V62.313z"
       id="path246"
       style="font-size:12;fill:none;stroke:#000000;stroke-width:0.5;" />
  </g>
</svg>
