<?xml version="1.0" encoding="UTF-8" standalone="no"?>
<!DOCTYPE svg PUBLIC "-//W3C//DTD SVG 20010904//EN"
"http://www.w3.org/TR/2001/REC-SVG-20010904/DTD/svg10.dtd">
<!-- Created with Sodipodi ("http://www.sodipodi.com/") -->
<svg
   id="svg176"
   sodipodi:version="0.32pre"
   width="48pt"
   height="48pt"
   sodipodi:docbase="/home/cschalle/gnome-themes-extras/Amaranth/icons/scalable/stock"
   sodipodi:docname="/home/cschalle/gnome-themes-extras/Amaranth/icons/scalable/stock/stock_help.svg"
   xmlns="http://www.w3.org/2000/svg"
   xmlns:sodipodi="http://sodipodi.sourceforge.net/DTD/sodipodi-0.dtd"
   xmlns:xlink="http://www.w3.org/1999/xlink">
  <defs
     id="defs178" />
  <sodipodi:namedview
     id="base" />
  <g
     id="Layer_1"
     layer="yes"
     dimmedPercent="50"
     rgbTrio="#4F008000FFFF"
     stroke="#000000"
     transform="matrix(3.90383,0,0,3.90403,1.31215,2.6689)">
    <linearGradient
       id="XMLID_1_"
       gradientUnits="userSpaceOnUse"
       x1="2.3364"
       y1="2.3359"
       x2="12.4127"
       y2="12.4122">
      <stop
         offset="0"
         style="stop-color:#FFFFFF"
         id="stop157" />
      <stop
         offset="1"
         style="stop-color:#893327"
         id="stop158" />
      <midPointStop
         offset="0"
         style="stop-color:#FFFFFF"
         id="midPointStop159" />
      <midPointStop
         offset="0.5"
         style="stop-color:#FFFFFF"
         id="midPointStop160" />
      <midPointStop
         offset="1"
         style="stop-color:#893327"
         id="midPointStop161" />
    </linearGradient>
    <path
       knockout="Off"
       fill="url(#XMLID_1_)"
       stroke-width="0.5"
       stroke-linejoin="round"
       d="M14.5,7.374    c0-3.935-3.19-7.125-7.126-7.125c-3.935,0-7.125,3.19-7.125,7.125s3.19,7.125,7.125,7.125C11.309,14.499,14.5,11.309,14.5,7.374z"
       id="path162" />
    <g
       knockout="Off"
       id="g163">
      <linearGradient
         id="XMLID_2_"
         gradientUnits="userSpaceOnUse"
         x1="3.9536"
         y1="7.5244"
         x2="11.3911"
         y2="7.5244">
        <stop
           offset="0"
           style="stop-color:#FFFFFF"
           id="stop165" />
        <stop
           offset="1"
           style="stop-color:#893327"
           id="stop166" />
        <midPointStop
           offset="0"
           style="stop-color:#FFFFFF"
           id="midPointStop167" />
        <midPointStop
           offset="0.5"
           style="stop-color:#FFFFFF"
           id="midPointStop168" />
        <midPointStop
           offset="1"
           style="stop-color:#893327"
           id="midPointStop169" />
      </linearGradient>
      <path
         knockout="Off"
         fill="url(#XMLID_2_)"
         stroke="none"
         d="M11.391,4.948c0,1.027-0.354,1.91-1.063,2.65     c-0.708,0.74-1.573,1.11-2.593,1.11v1.58c0,0.201-0.072,0.371-0.214,0.511s-0.316,0.21-0.52,0.21s-0.378-0.07-0.521-0.21     s-0.214-0.31-0.214-0.511V7.228h1.438c0.652,0,1.185-0.217,1.598-0.651c0.414-0.435,0.62-0.979,0.62-1.634     c0-0.628-0.223-1.159-0.667-1.594C8.811,2.914,8.276,2.696,7.652,2.696c-0.65,0-1.185,0.215-1.603,0.644     C5.631,3.77,5.422,4.313,5.422,4.97c0,0.188-0.071,0.356-0.211,0.503S4.899,5.695,4.698,5.695s-0.376-0.073-0.523-0.22     S3.954,5.154,3.954,4.954c0-1.028,0.363-1.906,1.089-2.634C5.77,1.592,6.646,1.228,7.672,1.228s1.902,0.364,2.629,1.09     S11.391,3.921,11.391,4.948z M7.735,13.057c0,0.201-0.073,0.379-0.218,0.533S7.199,13.821,7,13.821     c-0.199,0-0.371-0.066-0.516-0.201c-0.146-0.134-0.218-0.302-0.218-0.503s0.069-0.379,0.208-0.533     C6.613,12.43,6.789,12.353,7,12.353c0.198,0,0.371,0.067,0.516,0.201C7.662,12.688,7.735,12.855,7.735,13.057z"
         id="path170" />
      <g
         knockout="Off"
         opacity="0.5"
         id="g171">
        <path
           knockout="Off"
           fill="none"
           stroke-width="0.5"
           d="M11.391,4.948c0,1.027-0.354,1.91-1.063,2.65      c-0.708,0.74-1.573,1.11-2.593,1.11v1.58c0,0.201-0.072,0.371-0.214,0.511s-0.316,0.21-0.52,0.21s-0.378-0.07-0.521-0.21      s-0.214-0.31-0.214-0.511V7.228h1.438c0.652,0,1.185-0.217,1.598-0.651c0.414-0.435,0.62-0.979,0.62-1.634      c0-0.628-0.223-1.159-0.667-1.594C8.811,2.914,8.276,2.696,7.652,2.696c-0.65,0-1.185,0.215-1.603,0.644      C5.631,3.77,5.422,4.313,5.422,4.97c0,0.188-0.071,0.356-0.211,0.503S4.899,5.695,4.698,5.695s-0.376-0.073-0.523-0.22      S3.954,5.154,3.954,4.954c0-1.028,0.363-1.906,1.089-2.634C5.77,1.592,6.646,1.228,7.672,1.228s1.902,0.364,2.629,1.09      S11.391,3.921,11.391,4.948z M7.735,13.057c0,0.201-0.073,0.379-0.218,0.533S7.199,13.821,7,13.821      c-0.199,0-0.371-0.066-0.516-0.201c-0.146-0.134-0.218-0.302-0.218-0.503s0.069-0.379,0.208-0.533      C6.613,12.43,6.789,12.353,7,12.353c0.198,0,0.371,0.067,0.516,0.201C7.662,12.688,7.735,12.855,7.735,13.057z"
           id="path172" />
      </g>
    </g>
    <path
       knockout="Off"
       opacity="0.3"
       fill="#FAFAFA"
       stroke="none"
       d="M7.995,7.915c5.333,2.167,6.364-2.345,6.045-3.154    c-1.042-2.642-3.618-4.512-6.631-4.512c-3.936,0-7.125,3.19-7.125,7.125c0,1.538,0.396,3.031,1.314,4.125    C1.703,11.623,2.662,5.748,7.995,7.915z"
       id="path173" />
  </g>
</svg>
