<?xml version="1.0" encoding="UTF-8" standalone="no"?>
<!DOCTYPE svg PUBLIC "-//W3C//DTD SVG 20010904//EN"
"http://www.w3.org/TR/2001/REC-SVG-20010904/DTD/svg10.dtd">
<!-- Created with Sodipodi ("http://www.sodipodi.com/") -->
<svg
   i:viewOrigin="239 463"
   i:rulerOrigin="-242 -332"
   i:pageBounds="242 460 370 332"
   width="48pt"
   height="48pt"
   viewBox="0 0 133 132"
   overflow="visible"
   enable-background="new 0 0 133 132"
   xml:space="preserve"
   id="svg153"
   sodipodi:version="0.32"
   sodipodi:docname="/home/cschalle/gnome-themes-extras/Amaranth/icons/scalable/stock/stock_execute.svg"
   sodipodi:docbase="/home/cschalle/gnome-themes-extras/Amaranth/icons/scalable/stock"
   xmlns="http://www.w3.org/2000/svg"
   xmlns:sodipodi="http://sodipodi.sourceforge.net/DTD/sodipodi-0.dtd"
   xmlns:ns="http://ns.adobe.com/Variables/1.0/"
   xmlns:i="http://ns.adobe.com/AdobeIllustrator/10.0/"
   xmlns:xml="http://www.w3.org/XML/1998/namespace"
   xmlns:a="http://ns.adobe.com/AdobeSVGViewerExtensions/3.0/"
   xmlns:xlink="http://www.w3.org/1999/xlink">
  <defs
     id="defs174" />
  <sodipodi:namedview
     id="base" />
  <metadata
     id="metadata154">
    <sfw>
      <slices />
      <sliceSourceBounds
         x="239"
         y="331"
         width="133"
         height="132"
         bottomLeftOrigin="true" />
    </sfw>
    <ns:variableSets>
      <ns:variableSet
         varSetName="binding1"
         locked="none">
        <ns:variables />
        <ns:sampleDataSets />
      </ns:variableSet>
    </ns:variableSets>
  </metadata>
  <g
     i:knockout="Off"
     id="g158"
     style="font-size:12;stroke:#000000;">
    <g
       i:knockout="Off"
       id="g159">
      <linearGradient
         id="XMLID_1_"
         gradientUnits="userSpaceOnUse"
         x1="17.1084"
         y1="32.2061"
         x2="113.0804"
         y2="99.4064"
         gradientTransform="matrix(0.9261 0.3772 -0.3772 0.9261 29.6777 -20.4613)">
        <stop
           offset="0.0056"
           style="stop-color:#FFFFFF"
           id="stop161" />
        <stop
           offset="0.9831"
           style="stop-color:#1C1C1C"
           id="stop162" />
        <a:midPointStop
           offset="0.0056"
           style="stop-color:#FFFFFF"
           id="midPointStop163" />
        <a:midPointStop
           offset="0.5"
           style="stop-color:#FFFFFF"
           id="midPointStop164" />
        <a:midPointStop
           offset="0.9831"
           style="stop-color:#1C1C1C"
           id="midPointStop165" />
      </linearGradient>
      <path
         i:knockout="Off"
         fill="url(#XMLID_1_)"
         stroke="none"
         d="M106.431,56.727c-0.141-0.82,14.435-8.997,14.244-9.813       c-1.359-4.023-3.473-9.603-3.949-10.625c-0.478-1.025-17.049,3.931-17.462,3.356c-2.52-3.493-5.706-6.965-9.013-9.412       c-0.614-0.455,4.081-16.946,3.444-17.363c-0.696-0.807-10.189-4.673-11.248-4.378c-1.395-0.31-9.064,14.858-10.016,14.711       c-4.433-0.691-8.497-0.862-12.979-0.061C58.581,23.296,50.172,8.49,49.28,8.466c-0.966-0.026-10.484,3.792-11.084,4.239       c-0.829,0.616,4.11,17.688,3.299,18.3c-3.458,2.614-6.394,5.692-8.776,9.091c-0.571,0.816-16.741-4.267-17.389-3.518       c-0.259,0.3-4.309,10.494-4.252,11.469c0.035,0.599,15.011,10.104,14.929,10.696c-0.73,5.229-1.576,7.911-0.307,12.914       c0.232,0.918-17.463,9.652-17.762,10.566c-0.293,0.894,4.276,9.484,5.132,10.811c0.642,0.995,20.595-4.32,20.595-4.32       c2.519,3.491,5.706,6.966,9.013,9.411c0.616,0.454-4.082,16.944-3.445,17.364c0.697,0.806,10.19,4.672,11.248,4.377       c1.396,0.311,9.063-14.859,10.018-14.711c4.432,0.69,8.497,0.862,12.978,0.063c0.873-0.155,9.28,14.649,10.173,14.675       c0.967,0.024,10.484-3.794,11.085-4.238c0.828-0.616-4.11-17.688-3.299-18.3c3.457-2.615,6.394-5.694,8.775-9.092       c0.57-0.815,16.74,4.266,17.388,3.518c0.261-0.301,4.311-10.494,4.253-11.468c-0.035-0.6-15.013-10.104-14.929-10.697       C107.652,64.387,106.431,56.727,106.431,56.727z M37.049,76.946c-6.935-16.465,0.791-35.436,17.256-42.372       c16.465-6.935,35.437,0.791,42.372,17.256l-0.195-0.672c6.936,16.464-0.791,35.436-17.256,42.371       c-14.855,6.258-36.112-2.396-42.372-17.256"
         id="path166" />
    </g>
    <path
       i:knockout="Off"
       fill="none"
       stroke-width="2"
       d="M106.431,56.727c-0.141-0.82,14.435-8.997,14.244-9.813      c-1.359-4.023-3.473-9.603-3.949-10.625c-0.478-1.025-17.049,3.931-17.462,3.356c-2.52-3.493-5.706-6.965-9.013-9.412      c-0.614-0.455,4.081-16.946,3.444-17.363c-0.696-0.807-10.189-4.673-11.248-4.378c-1.395-0.31-9.064,14.858-10.016,14.711      c-4.433-0.691-8.497-0.862-12.979-0.061C58.581,23.296,50.172,8.49,49.28,8.466c-0.966-0.026-10.484,3.792-11.084,4.239      c-0.829,0.616,4.11,17.688,3.299,18.3c-3.458,2.614-6.394,5.692-8.776,9.091c-0.571,0.816-16.741-4.267-17.389-3.518      c-0.259,0.3-4.309,10.494-4.252,11.469c0.035,0.599,15.011,10.104,14.929,10.696c-0.73,5.229-1.576,7.911-0.307,12.914      c0.232,0.918-17.463,9.652-17.762,10.566c-0.293,0.894,4.276,9.484,5.132,10.811c0.642,0.995,20.595-4.32,20.595-4.32      c2.519,3.491,5.706,6.966,9.013,9.411c0.616,0.454-4.082,16.944-3.445,17.364c0.697,0.806,10.19,4.672,11.248,4.377      c1.396,0.311,9.063-14.859,10.018-14.711c4.432,0.69,8.497,0.862,12.978,0.063c0.873-0.155,9.28,14.649,10.173,14.675      c0.967,0.024,10.484-3.794,11.085-4.238c0.828-0.616-4.11-17.688-3.299-18.3c3.457-2.615,6.394-5.694,8.775-9.092      c0.57-0.815,16.74,4.266,17.388,3.518c0.261-0.301,4.311-10.494,4.253-11.468c-0.035-0.6-15.013-10.104-14.929-10.697      C107.652,64.387,106.431,56.727,106.431,56.727z M37.049,76.946c-6.935-16.465,0.791-35.436,17.256-42.372      c16.465-6.935,35.437,0.791,42.372,17.256l-0.195-0.672c6.936,16.464-0.791,35.436-17.256,42.371      c-14.855,6.258-36.112-2.396-42.372-17.256"
       id="path167" />
  </g>
</svg>
