<?xml version="1.0" encoding="UTF-8" standalone="no"?>
<!DOCTYPE svg PUBLIC "-//W3C//DTD SVG 20010904//EN"
"http://www.w3.org/TR/2001/REC-SVG-20010904/DTD/svg10.dtd"
[
 <!ATTLIST svg
  xmlns:xlink CDATA #FIXED "http://www.w3.org/1999/xlink">
]>
<!-- Created with Sodipodi ("http://www.sodipodi.com/") -->
<svg
   id="svg173"
   sodipodi:version="0.32pre"
   xmlns="http://www.w3.org/2000/svg"
   xmlns:sodipodi="http://sodipodi.sourceforge.net/DTD/sodipodi-0.dtd"
   xmlns:xlink="http://www.w3.org/1999/xlink"
   width="48pt"
   height="48pt"
   sodipodi:docbase="/home/cschalle/svg-graphics/Amaranth/2nd SVG"
   sodipodi:docname="/home/cschalle/svg-graphics/Amaranth/2nd SVG/up2.svg">
  <defs
     id="defs175" />
  <sodipodi:namedview
     id="base" />
  <g
     id="Layer_1"
     i:layer="yes"
     i:dimmedPercent="50"
     i:rgbTrio="#4F008000FFFF"
     stroke="#000000"
     transform="matrix(3.88445,0,0,3.93138,1.85238,1.83952)">
    <linearGradient
       id="XMLID_1_"
       gradientUnits="userSpaceOnUse"
       x1="2.3364"
       y1="2.3359"
       x2="12.4127"
       y2="12.4122">
      <stop
         offset="0"
         style="stop-color:#FFFFFF"
         id="stop157" />
      <stop
         offset="1"
         style="stop-color:#1E9841"
         id="stop158" />
      <a:midPointStop
         offset="0"
         style="stop-color:#FFFFFF"
         id="midPointStop159" />
      <a:midPointStop
         offset="0.5"
         style="stop-color:#FFFFFF"
         id="midPointStop160" />
      <a:midPointStop
         offset="1"
         style="stop-color:#1E9841"
         id="midPointStop161" />
    </linearGradient>
    <path
       i:knockout="Off"
       fill="url(#XMLID_1_)"
       stroke-width="0.5"
       stroke-linejoin="round"
       d="M14.5,7.374    c0-3.935-3.19-7.125-7.126-7.125c-3.935,0-7.125,3.19-7.125,7.125s3.19,7.125,7.125,7.125C11.309,14.499,14.5,11.309,14.5,7.374z"
       id="path162" />
    <linearGradient
       id="XMLID_2_"
       gradientUnits="userSpaceOnUse"
       x1="2.6245"
       y1="17.7705"
       x2="-2.8763"
       y2="12.2697"
       gradientTransform="matrix(4.371139e-008 -1 -1 -4.371139e-008 22.4188 7.5597)">
      <stop
         offset="0"
         style="stop-color:#FFFFFF"
         id="stop164" />
      <stop
         offset="1"
         style="stop-color:#4C4C4C"
         id="stop165" />
      <a:midPointStop
         offset="0"
         style="stop-color:#FFFFFF"
         id="midPointStop166" />
      <a:midPointStop
         offset="0.5"
         style="stop-color:#FFFFFF"
         id="midPointStop167" />
      <a:midPointStop
         offset="1"
         style="stop-color:#4C4C4C"
         id="midPointStop168" />
    </linearGradient>
    <path
       i:knockout="Off"
       fill="url(#XMLID_2_)"
       stroke-width="0.5"
       stroke-linejoin="round"
       d="M8.04,7.107h4.212L7.364,2.22    L2.478,7.107l4.354-0.01l-0.003,5.448H8.04L8.04,7.107z"
       id="path169" />
    <path
       i:knockout="Off"
       opacity="0.3"
       fill="#FAFAFA"
       stroke="none"
       d="M7.995,7.915c5.333,2.167,6.364-2.345,6.045-3.154    c-1.042-2.642-3.618-4.512-6.631-4.512c-3.936,0-7.125,3.19-7.125,7.125c0,1.538,0.396,3.031,1.314,4.125    C1.703,11.623,2.662,5.748,7.995,7.915z"
       id="path170" />
  </g>
</svg>
