<?xml version="1.0" encoding="UTF-8" standalone="no"?>
<!DOCTYPE svg PUBLIC "-//W3C//DTD SVG 20010904//EN"
"http://www.w3.org/TR/2001/REC-SVG-20010904/DTD/svg10.dtd">
<!-- Created with Sodipodi ("http://www.sodipodi.com/") -->
<svg
   i:viewOrigin="286 415"
   i:rulerOrigin="-290 -380"
   i:pageBounds="290 412 322 380"
   width="48pt"
   height="48pt"
   viewBox="0 0 43 43"
   overflow="visible"
   enable-background="new 0 0 43 43"
   xml:space="preserve"
   xmlns="http://www.w3.org/2000/svg"
   xmlns:ns="http://ns.adobe.com/Variables/1.0/"
   xmlns:i="http://ns.adobe.com/AdobeIllustrator/10.0/"
   xmlns:xml="http://www.w3.org/XML/1998/namespace"
   xmlns:a="http://ns.adobe.com/AdobeSVGViewerExtensions/3.0/"
   xmlns:xlink="http://www.w3.org/1999/xlink"
   xmlns:sodipodi="http://sodipodi.sourceforge.net/DTD/sodipodi-0.dtd"
   id="svg153"
   sodipodi:version="0.32pre"
   sodipodi:docname="/home/cschalle/gnome-themes-extras/Amaranth/icons/scalable/stock/stock_preferences.svg"
   sodipodi:docbase="/home/cschalle/gnome-themes-extras/Amaranth/icons/scalable/stock">
  <defs
     id="defs211">
    <linearGradient
       id="XMLID_1_"
       gradientUnits="userSpaceOnUse"
       x1="32.3242"
       y1="27.5371"
       x2="13.7988"
       y2="19.902"
       gradientTransform="matrix(-1 0.0028 -0.0028 -1 42.039 41.9148)">
      <stop
         offset="0"
         style="stop-color:#E8E8E8"
         id="stop161" />
      <stop
         offset="1"
         style="stop-color:#4F4F4F"
         id="stop162" />
      <a:midPointStop
         offset="0"
         style="stop-color:#E8E8E8"
         id="midPointStop163" />
      <a:midPointStop
         offset="0.5"
         style="stop-color:#E8E8E8"
         id="midPointStop164" />
      <a:midPointStop
         offset="1"
         style="stop-color:#4F4F4F"
         id="midPointStop165" />
    </linearGradient>
  </defs>
  <sodipodi:namedview
     id="base" />
  <metadata
     id="metadata154">
    <sfw>
      <slices />
      <sliceSourceBounds
         x="285"
         y="372"
         width="44"
         height="45"
         bottomLeftOrigin="true" />
    </sfw>
    <ns:variableSets>
      <ns:variableSet
         varSetName="binding1"
         locked="none">
        <ns:variables />
        <ns:sampleDataSets />
      </ns:variableSet>
    </ns:variableSets>
  </metadata>
  <g
     id="g345"
     transform="matrix(1.26572,0,0,1.28427,-3.55903,-3.33794)">
    <path
       i:knockout="Off"
       fill="url(#XMLID_1_)"
       stroke="none"
       d="M11.52,23.945c-0.78,0.776-2.278,1.148-3.33,0.826       c0,0-0.426-0.13-1.667,1.117c-0.057,0.058-2.704,2.617-2.647,2.673c0,0,0.916,1,1.09,0.956       c1.216-0.307,3.181-2.069,3.999-1.257c0.815,0.813-1.263,2.602-1.26,3.753c0,0.174,1.13,1.034,1.211,1.115       c0.057,0.057,2.376-2.382,2.434-2.439c1.269-1.275,1.093-1.776,1.093-1.776c-0.365-1.038-0.025-2.521,0.754-3.298L26.3,12.575       c0.78-0.776,2.278-1.148,3.331-0.827c0,0,0.426,0.13,1.667-1.118c0.056-0.057,2.703-2.615,2.647-2.671c0,0-0.917-1-1.091-0.957       c-1.216,0.307-3.182,2.068-3.999,1.256c-0.815-0.811,1.263-2.6,1.26-3.752c-0.001-0.172-1.13-1.034-1.211-1.115       c-0.058-0.056-2.377,2.382-2.434,2.438c-1.27,1.277-1.094,1.777-1.094,1.777c0.366,1.038,0.027,2.521-0.753,3.297L11.52,23.945       z"
       id="path166"
       transform="translate(0,1.90735e-06)"
       style="font-size:12;fill:url(#XMLID_1_);" />
    <path
       i:knockout="Off"
       fill="none"
       stroke-width="0.5"
       d="M11.52,23.945c-0.78,0.776-2.278,1.148-3.33,0.826      c0,0-0.426-0.13-1.667,1.117c-0.057,0.058-2.704,2.617-2.647,2.673c0,0,0.916,1,1.09,0.956c1.216-0.307,3.181-2.069,3.999-1.257      c0.815,0.813-1.263,2.602-1.26,3.753c0,0.174,1.13,1.034,1.211,1.115c0.057,0.057,2.376-2.382,2.434-2.439      c1.269-1.275,1.093-1.776,1.093-1.776c-0.365-1.038-0.025-2.521,0.754-3.298L26.3,12.575c0.78-0.776,2.278-1.148,3.331-0.827      c0,0,0.426,0.13,1.667-1.118c0.056-0.057,2.703-2.615,2.647-2.671c0,0-0.917-1-1.091-0.957      c-1.216,0.307-3.182,2.068-3.999,1.256c-0.815-0.811,1.263-2.6,1.26-3.752c-0.001-0.172-1.13-1.034-1.211-1.115      c-0.058-0.056-2.377,2.382-2.434,2.438c-1.27,1.277-1.094,1.777-1.094,1.777c0.366,1.038,0.027,2.521-0.753,3.297L11.52,23.945z      "
       id="path167"
       transform="translate(0,1.90735e-06)"
       style="font-size:12;fill:none;stroke:#000000;stroke-width:0.5;" />
    <g
       i:knockout="Off"
       id="g168"
       style="font-size:12;stroke:#000000;">
      <path
         i:knockout="Off"
         opacity="0.3"
         fill="#FFFFFF"
         stroke="none"
         d="M27.479,10.38c1.847-1.855,6.302-2.391,6.248-2.443      c0,0-0.873-0.956-1.04-0.912c-1.176,0.307-3.085,2.023-3.864,1.249c-0.777-0.774,1.24-2.517,1.249-3.627      c0-0.167-1.079-0.986-1.156-1.063c-0.054-0.053-2.312,2.317-2.367,2.373c-1.234,1.241-1.097,1.642-1.097,1.642      c0.356,1.04,0.019,2.534-0.752,3.32l-3.633,3.708c-0.771,0.786-0.642,0.943,0.284,0.351      C21.351,14.976,25.634,12.236,27.479,10.38z"
         id="path169" />
    </g>
    <g
       id="g172"
       style="font-size:12;stroke:#000000;">
      <g
         id="g173">
        <g
           i:knockout="Off"
           id="g174">
          <linearGradient
             id="XMLID_2_"
             gradientUnits="userSpaceOnUse"
             x1="13.0522"
             y1="2.4761"
             x2="28.7004"
             y2="18.1243"
             gradientTransform="matrix(0.9872 0.1592 -0.1592 0.9872 -6.4497 -1.5188)">
            <stop
               offset="0"
               style="stop-color:#F7F7F7"
               id="stop176" />
            <stop
               offset="1"
               style="stop-color:#757575"
               id="stop177" />
            <a:midPointStop
               offset="0"
               style="stop-color:#F7F7F7"
               id="midPointStop178" />
            <a:midPointStop
               offset="0.5"
               style="stop-color:#F7F7F7"
               id="midPointStop179" />
            <a:midPointStop
               offset="1"
               style="stop-color:#757575"
               id="midPointStop180" />
          </linearGradient>
          <path
             i:knockout="Off"
             fill="url(#XMLID_2_)"
             stroke="none"
             d="M6.771,3.531C7.19,3.956,7.451,4.459,7.35,4.649        C7.248,4.84,7.798,5.636,8.572,6.418l11.246,11.37c0.773,0.782,1.194,1.632,0.935,1.888c-0.259,0.256-1.104-0.173-1.878-0.956        L7.574,7.295C6.8,6.513,6.023,5.967,5.846,6.081S5.182,5.942,4.762,5.518C4.343,5.094,4.451,4.3,5.004,3.753        C5.556,3.207,6.351,3.107,6.771,3.531z"
             id="path181" />
          <path
             i:knockout="Off"
             fill="none"
             stroke-width="0.5"
             d="M6.771,3.531C7.19,3.956,7.451,4.459,7.35,4.649        C7.248,4.84,7.798,5.636,8.572,6.418l11.246,11.37c0.773,0.782,1.194,1.632,0.935,1.888c-0.259,0.256-1.104-0.173-1.878-0.956        L7.574,7.295C6.8,6.513,6.023,5.967,5.846,6.081S5.182,5.942,4.762,5.518C4.343,5.094,4.451,4.3,5.004,3.753        C5.556,3.207,6.351,3.107,6.771,3.531z"
             id="path182" />
        </g>
        <g
           i:knockout="Off"
           id="g183">
          <linearGradient
             id="XMLID_3_"
             gradientUnits="userSpaceOnUse"
             x1="28.0635"
             y1="12.6274"
             x2="45.2046"
             y2="29.7686"
             gradientTransform="matrix(0.9872 0.1592 -0.1592 0.9872 -6.4497 -1.5188)">
            <stop
               offset="0"
               style="stop-color:#CDCAA4"
               id="stop185" />
            <stop
               offset="1"
               style="stop-color:#C1AC1A"
               id="stop186" />
            <a:midPointStop
               offset="0"
               style="stop-color:#CDCAA4"
               id="midPointStop187" />
            <a:midPointStop
               offset="0.5"
               style="stop-color:#CDCAA4"
               id="midPointStop188" />
            <a:midPointStop
               offset="1"
               style="stop-color:#C1AC1A"
               id="midPointStop189" />
          </linearGradient>
          <path
             i:knockout="Off"
             fill="url(#XMLID_3_)"
             stroke="none"
             d="M20.386,16.132c0.262-0.174,2.058,1.282,3.991,3.238        l7.729,7.815c1.934,1.955,3.388,3.785,3.231,4.066s-0.08,0.783,0.171,1.115c0.25,0.332-0.008,1.061-0.572,1.618        c-0.564,0.559-1.283,0.796-1.598,0.527c-0.313-0.27-0.802-0.364-1.085-0.211c-0.283,0.154-2.097-1.32-4.03-3.275l-7.619-7.704        c-1.934-1.955-3.396-3.792-3.248-4.083s0.076-0.812-0.159-1.16c-0.234-0.347-0.015-1.039,0.488-1.537        c0.504-0.498,1.21-0.722,1.57-0.499C19.615,16.267,20.124,16.307,20.386,16.132z"
             id="path190" />
          <path
             i:knockout="Off"
             fill="none"
             stroke-width="0.5"
             d="M20.386,16.132c0.262-0.174,2.058,1.282,3.991,3.238l7.729,7.815        c1.934,1.955,3.388,3.785,3.231,4.066s-0.08,0.783,0.171,1.115c0.25,0.332-0.008,1.061-0.572,1.618        c-0.564,0.559-1.283,0.796-1.598,0.527c-0.313-0.27-0.802-0.364-1.085-0.211c-0.283,0.154-2.097-1.32-4.03-3.275l-7.619-7.704        c-1.934-1.955-3.396-3.792-3.248-4.083s0.076-0.812-0.159-1.16c-0.234-0.347-0.015-1.039,0.488-1.537        c0.504-0.498,1.21-0.722,1.57-0.499C19.615,16.267,20.124,16.307,20.386,16.132z"
             id="path191" />
        </g>
        <g
           i:knockout="Off"
           opacity="0.85"
           id="g192">
          <linearGradient
             id="XMLID_4_"
             gradientUnits="userSpaceOnUse"
             x1="28.1934"
             y1="22.0879"
             x2="44.7637"
             y2="22.0879"
             gradientTransform="matrix(0.9872 0.1592 -0.1592 0.9872 -6.4497 -1.5188)">
            <stop
               offset="0"
               style="stop-color:#CDCAA4"
               id="stop194" />
            <stop
               offset="1"
               style="stop-color:#C1AC1A"
               id="stop195" />
            <a:midPointStop
               offset="0"
               style="stop-color:#CDCAA4"
               id="midPointStop196" />
            <a:midPointStop
               offset="0.5"
               style="stop-color:#CDCAA4"
               id="midPointStop197" />
            <a:midPointStop
               offset="1"
               style="stop-color:#C1AC1A"
               id="midPointStop198" />
          </linearGradient>
          <path
             i:knockout="Off"
             fill="url(#XMLID_4_)"
             stroke="none"
             d="M18.831,18.797c0,0,0.103,0.175,0.229,0.389        s1.811,1.988,3.745,3.943l6.065,6.132c1.934,1.955,3.713,3.684,3.954,3.841c0.241,0.158,0.438,0.287,0.438,0.287"
             id="path199" />
          <path
             i:knockout="Off"
             opacity="0.85"
             fill="none"
             stroke-width="0.5"
             stroke-linecap="round"
             d="M18.831,18.797        c0,0,0.103,0.175,0.229,0.389s1.811,1.988,3.745,3.943l6.065,6.132c1.934,1.955,3.713,3.684,3.954,3.841        c0.241,0.158,0.438,0.287,0.438,0.287"
             id="path200" />
        </g>
        <g
           i:knockout="Off"
           opacity="0.85"
           id="g201">
          <linearGradient
             id="XMLID_5_"
             gradientUnits="userSpaceOnUse"
             x1="29.1455"
             y1="20.6465"
             x2="45.7158"
             y2="20.6465"
             gradientTransform="matrix(0.9872 0.1592 -0.1592 0.9872 -6.4497 -1.5188)">
            <stop
               offset="0"
               style="stop-color:#CDCAA4"
               id="stop203" />
            <stop
               offset="1"
               style="stop-color:#C1AC1A"
               id="stop204" />
            <a:midPointStop
               offset="0"
               style="stop-color:#CDCAA4"
               id="midPointStop205" />
            <a:midPointStop
               offset="0.5"
               style="stop-color:#CDCAA4"
               id="midPointStop206" />
            <a:midPointStop
               offset="1"
               style="stop-color:#C1AC1A"
               id="midPointStop207" />
          </linearGradient>
          <path
             i:knockout="Off"
             fill="url(#XMLID_5_)"
             stroke="none"
             d="M20,17.526c0,0,0.192,0.098,0.427,0.217        c0.235,0.12,2.009,1.817,3.943,3.772l5.996,6.063c1.934,1.956,3.64,3.777,3.79,4.048c0.151,0.271,0.275,0.492,0.275,0.492"
             id="path208" />
          <path
             i:knockout="Off"
             opacity="0.85"
             fill="none"
             stroke-width="0.5"
             stroke-linecap="round"
             d="M20,17.526        c0,0,0.192,0.098,0.427,0.217c0.235,0.12,2.009,1.817,3.943,3.772l5.996,6.063c1.934,1.956,3.64,3.777,3.79,4.048        c0.151,0.271,0.275,0.492,0.275,0.492"
             id="path209" />
        </g>
      </g>
    </g>
  </g>
</svg>
