<?xml version="1.0" encoding="UTF-8" standalone="no"?>
<!DOCTYPE svg PUBLIC "-//W3C//DTD SVG 20010904//EN"
"http://www.w3.org/TR/2001/REC-SVG-20010904/DTD/svg10.dtd"
[
 <!ATTLIST svg
  xmlns:xlink CDATA #FIXED "http://www.w3.org/1999/xlink">
]>
<!-- Created with Sodipodi ("http://www.sodipodi.com/") -->
<svg
   xmlns="http://www.w3.org/2000/svg"
   xmlns:xlink="http://www.w3.org/1999/xlink"
   version="1"
   x="0.00000000"
   y="0.00000000"
   width="60.0000000"
   height="60.0000000"
   viewBox="0 0 89 108.74"
   id="svg548">
  <defs
     id="defs590" />
  <metadata
     id="metadata549">
    <sfw>
      <slices />
      <sliceSourceBounds
         x="268"
         y="332"
         width="89"
         height="108.74"
         bottomLeftOrigin="true" />
    </sfw>
    <ns:variableSets>
      <ns:variableSet
         varSetName="binding1"
         locked="none">
        <ns:variables />
        <ns:sampleDataSets />
      </ns:variableSet>
    </ns:variableSets>
  </metadata>
  <g
     style="font-size:12;stroke:#000000;"
     id="g553">
    <linearGradient
       x1="1.28129995"
       y1="13.1464996"
       x2="81.4688034"
       y2="93.3340988"
       id="XMLID_1_"
       gradientUnits="userSpaceOnUse"
       spreadMethod="pad">
      <stop
         style="stop-color:#ffffff;stop-opacity:1;"
         offset="0.00000000"
         id="stop555" />
      <stop
         style="stop-color:#999776;stop-opacity:1;"
         offset="1.00000000"
         id="stop556" />
      <a:midPointStop
         offset="0"
         style="stop-color:#FFFFFF"
         id="midPointStop557" />
      <a:midPointStop
         offset="0.5"
         style="stop-color:#FFFFFF"
         id="midPointStop558" />
      <a:midPointStop
         offset="1"
         style="stop-color:#999776"
         id="midPointStop559" />
    </linearGradient>
    <path
       d="M 78.75 93.99 C 78.75 96.74 76.5 98.99 73.75 98.99 L 9 98.99 C 6.25 98.99 4 96.74 4 93.99 L 4 12.49 C 4 9.74 6.25 7.49 9 7.49 L 73.75 7.49 C 76.5 7.49 78.75 9.74 78.75 12.49 L 78.75 93.99 z "
       style="fill:url(#XMLID_1_);stroke:none;"
       id="path560" />
    <path
       d="M 78.75 93.99 C 78.75 96.74 76.5 98.99 73.75 98.99 L 9 98.99 C 6.25 98.99 4 96.74 4 93.99 L 4 12.49 C 4 9.74 6.25 7.49 9 7.49 L 73.75 7.49 C 76.5 7.49 78.75 9.74 78.75 12.49 L 78.75 93.99 z "
       style="fill:none;"
       id="path561" />
  </g>
  <g
     style="font-size:12;stroke:#000000;"
     id="g562">
    <linearGradient
       x1="11.6254997"
       y1="10.8656998"
       x2="71.3752975"
       y2="70.6156006"
       id="XMLID_2_"
       gradientUnits="userSpaceOnUse"
       spreadMethod="pad">
      <stop
         style="stop-color:#ffffff;stop-opacity:1;"
         offset="0.00000000"
         id="stop564" />
      <stop
         style="stop-color:#d9d9d9;stop-opacity:1;"
         offset="1.00000000"
         id="stop565" />
      <a:midPointStop
         offset="0"
         style="stop-color:#FFFFFF"
         id="midPointStop566" />
      <a:midPointStop
         offset="0.5"
         style="stop-color:#FFFFFF"
         id="midPointStop567" />
      <a:midPointStop
         offset="1"
         style="stop-color:#D9D9D9"
         id="midPointStop568" />
    </linearGradient>
    <path
       d="M 71.75 70.24 C 71.75 70.79 71.3 71.24 70.75 71.24 L 12.25 71.24 C 11.7 71.24 11.25 70.79 11.25 70.24 L 11.25 11.24 C 11.25 10.69 11.7 10.24 12.25 10.24 L 70.75 10.24 C 71.3 10.24 71.75 10.69 71.75 11.24 L 71.75 70.24 z "
       style="fill:url(#XMLID_2_);stroke:none;"
       id="path569" />
    <path
       d="M 71.75 70.24 C 71.75 70.79 71.3 71.24 70.75 71.24 L 12.25 71.24 C 11.7 71.24 11.25 70.79 11.25 70.24 L 11.25 11.24 C 11.25 10.69 11.7 10.24 12.25 10.24 L 70.75 10.24 C 71.3 10.24 71.75 10.69 71.75 11.24 L 71.75 70.24 z "
       style="opacity:0.5;fill:none;"
       id="path570" />
  </g>
  <g
     style="font-size:12;stroke:#000000;"
     id="g571">
    <linearGradient
       x1="28.2509995"
       y1="-3.51999998"
       x2="54.4995995"
       y2="22.7285995"
       id="XMLID_3_"
       gradientUnits="userSpaceOnUse"
       spreadMethod="pad">
      <stop
         style="stop-color:#e6e6e6;stop-opacity:1;"
         offset="0.00000000"
         id="stop573" />
      <stop
         style="stop-color:#595959;stop-opacity:1;"
         offset="1.00000000"
         id="stop574" />
      <a:midPointStop
         offset="0"
         style="stop-color:#E6E6E6"
         id="midPointStop575" />
      <a:midPointStop
         offset="0.5"
         style="stop-color:#E6E6E6"
         id="midPointStop576" />
      <a:midPointStop
         offset="1"
         style="stop-color:#595959"
         id="midPointStop577" />
    </linearGradient>
    <path
       d="M 62.751 5.913 C 64.4 5.956 65.75 7.34 65.75 8.99 L 65.75 10.24 C 65.75 11.89 64.4 13.24 62.75 13.24 L 20 13.24 C 18.35 13.24 17 11.89 17 10.24 L 17 8.99 C 17 7.34 18.35 5.955 19.999 5.912 L 33.251 5.568 C 34.9 5.525 36.802 4.258 37.476 2.752 C 37.476 2.752 38.489 0.49 41.25 0.49 C 44.012 0.49 45.024 2.752 45.024 2.752 C 45.698 4.258 47.599 5.525 49.249 5.567 L 62.751 5.913 z M 43.5 5.49 C 43.5 4.247 42.492 3.24 41.25 3.24 C 40.008 3.24 39 4.248 39 5.49 C 39 6.732 40.008 7.74 41.25 7.74 C 42.492 7.74 43.5 6.733 43.5 5.49 z "
       style="fill:url(#XMLID_3_);stroke:none;"
       id="path578" />
    <path
       d="M 62.751 5.913 C 64.4 5.956 65.75 7.34 65.75 8.99 L 65.75 10.24 C 65.75 11.89 64.4 13.24 62.75 13.24 L 20 13.24 C 18.35 13.24 17 11.89 17 10.24 L 17 8.99 C 17 7.34 18.35 5.955 19.999 5.912 L 33.251 5.568 C 34.9 5.525 36.802 4.258 37.476 2.752 C 37.476 2.752 38.489 0.49 41.25 0.49 C 44.012 0.49 45.024 2.752 45.024 2.752 C 45.698 4.258 47.599 5.525 49.249 5.567 L 62.751 5.913 z M 43.5 5.49 C 43.5 4.247 42.492 3.24 41.25 3.24 C 40.008 3.24 39 4.248 39 5.49 C 39 6.732 40.008 7.74 41.25 7.74 C 42.492 7.74 43.5 6.733 43.5 5.49 z "
       style="fill:none;"
       id="path579" />
  </g>
  <g
     style="font-size:12;opacity:0.3;stroke:#000000;"
     id="g580">
    <path
       d="M 15.625 14.99 L 67.917 14.99 "
       style="fill:none;stroke:#7f7f7f;stroke-linecap:round;"
       id="path581" />
    <path
       d="M 15.625 18.99 L 67.917 18.99 "
       style="fill:none;stroke:#7f7f7f;stroke-linecap:round;"
       id="path582" />
    <path
       d="M 15.625 22.99 L 67.917 22.99 "
       style="fill:none;stroke:#7f7f7f;stroke-linecap:round;"
       id="path583" />
    <path
       d="M 15.625 26.99 L 67.917 26.99 "
       style="fill:none;stroke:#7f7f7f;stroke-linecap:round;"
       id="path584" />
    <path
       d="M 15.625 30.99 L 67.917 30.99 "
       style="fill:none;stroke:#7f7f7f;stroke-linecap:round;"
       id="path585" />
    <path
       d="M 15.625 34.99 L 67.917 34.99 "
       style="fill:none;stroke:#7f7f7f;stroke-linecap:round;"
       id="path586" />
  </g>
  <g
     style="font-size:12;opacity:0.3;stroke:#000000;"
     id="g587">
    <path
       d="M 78.75 15.74 C 78.75 18.49 78.144 22.907 77.403 25.555 C 77.403 25.555 70.5 50.24 39.5 50.24 C 8.5 50.24 4.638 80.281 4.638 80.281 C 4.287 83.009 4 82.99 4 80.24 L 4 12.49 C 4 9.74 6.25 7.49 9 7.49 L 12 7.49 C 14.75 7.49 18.013 6.927 19.25 6.24 C 19.25 6.24 19.25 6.24 20 5.865 C 20.75 5.49 29 5.99 34.875 5.115 C 39.051 4.493 36.209 0.49 40.667 0.49 C 45.125 0.49 45.375 5.115 46.75 5.115 C 48.125 5.115 61.5 5.115 63 5.865 C 64.5 6.615 64.5 6.615 64.5 6.615 C 64.958 7.096 67.583 7.49 70.333 7.49 L 73.75 7.49 C 76.5 7.49 78.75 9.74 78.75 12.49 L 78.75 15.74 z "
       style="fill:#ffffff;stroke:none;"
       id="path588" />
  </g>
</svg>
