<?xml version="1.0" encoding="UTF-8" standalone="no"?>
<!DOCTYPE svg PUBLIC "-//W3C//DTD SVG 20010904//EN"
"http://www.w3.org/TR/2001/REC-SVG-20010904/DTD/svg10.dtd">
<!-- Created with Sodipodi ("http://www.sodipodi.com/") -->
<svg
   i:viewOrigin="243 458"
   i:rulerOrigin="-242 -332"
   i:pageBounds="242 460 370 332"
   width="48pt"
   height="48pt"
   viewBox="0 0 127 133"
   overflow="visible"
   enable-background="new 0 0 127 133"
   xml:space="preserve"
   id="svg153"
   sodipodi:version="0.32pre"
   sodipodi:docname="/home/cschalle/gnome-themes-extras/Amaranth/icons/scalable/stock/folder_open.svg"
   sodipodi:docbase="/home/cschalle/gnome-themes-extras/Amaranth/icons/scalable/stock/"
   xmlns="http://www.w3.org/2000/svg"
   xmlns:sodipodi="http://sodipodi.sourceforge.net/DTD/sodipodi-0.dtd"
   xmlns:ns="http://ns.adobe.com/Variables/1.0/"
   xmlns:i="http://ns.adobe.com/AdobeIllustrator/10.0/"
   xmlns:xml="http://www.w3.org/XML/1998/namespace"
   xmlns:a="http://ns.adobe.com/AdobeSVGViewerExtensions/3.0/"
   xmlns:xlink="http://www.w3.org/1999/xlink">
  <defs
     id="defs192" />
  <sodipodi:namedview
     id="base" />
  <metadata
     id="metadata154">
    <sfw>
      <slices />
      <sliceSourceBounds
         x="243"
         y="325"
         width="127"
         height="133"
         bottomLeftOrigin="true" />
    </sfw>
    <ns:variableSets>
      <ns:variableSet
         varSetName="binding1"
         locked="none">
        <ns:variables />
        <ns:sampleDataSets />
      </ns:variableSet>
    </ns:variableSets>
  </metadata>
  <g
     id="g190">
    <g
       i:knockout="Off"
       id="g158"
       style="font-size:12;stroke:#000000;">
      <linearGradient
         id="XMLID_1_"
         gradientUnits="userSpaceOnUse"
         x1="44.5928"
         y1="60.0903"
         x2="82.2517"
         y2="97.7493">
        <stop
           offset="0"
           style="stop-color:#F7F7F7"
           id="stop160" />
        <stop
           offset="0.9944"
           style="stop-color:#00637B"
           id="stop161" />
        <a:midPointStop
           offset="0"
           style="stop-color:#F7F7F7"
           id="midPointStop162" />
        <a:midPointStop
           offset="0.5"
           style="stop-color:#F7F7F7"
           id="midPointStop163" />
        <a:midPointStop
           offset="0.9944"
           style="stop-color:#00637B"
           id="midPointStop164" />
      </linearGradient>
      <path
         i:knockout="Off"
         fill="url(#XMLID_1_)"
         stroke="none"
         d="M57,123L10.749,97.305c-0.962-0.534-1.116-1.611-0.342-2.394      l55.521-56.155c0.773-0.782,2.218-1.033,3.21-0.558l47.31,22.687c0.992,0.476,1.167,1.501,0.39,2.279L57,123"
         id="path165" />
      <path
         i:knockout="Off"
         fill="none"
         d="M57,123L10.749,97.305c-0.962-0.534-1.116-1.611-0.342-2.394l55.521-56.155      c0.773-0.782,2.218-1.033,3.21-0.558l47.31,22.687c0.992,0.476,1.167,1.501,0.39,2.279L57,123"
         id="path166" />
    </g>
    <g
       id="Layer_3"
       i:layer="yes"
       i:dimmedPercent="50"
       i:rgbTrio="#4F00FFFF4F00"
       stroke="#000000">
      <path
         i:knockout="Off"
         fill="#FFFFFF"
         d="M98,77.5L32.855,51.248c-1.02-0.411-2.491-0.111-3.269,0.667L3.289,78.211    c-0.778,0.777-0.58,1.751,0.44,2.163l63.416,25.627c1.021,0.412,2.491,0.112,3.269-0.665l27.711-27.711"
         id="path168" />
    </g>
    <g
       id="Layer_1"
       i:layer="yes"
       i:dimmedPercent="50"
       i:rgbTrio="#4F008000FFFF"
       stroke="#000000"
       transform="translate(0,-1.90735e-06)">
      <g
         i:knockout="Off"
         id="g170">
        <linearGradient
           id="XMLID_2_"
           gradientUnits="userSpaceOnUse"
           x1="59.6265"
           y1="44.3745"
           x2="97.6265"
           y2="82.3746">
          <stop
             offset="0"
             style="stop-color:#F7F7F7"
             id="stop172" />
          <stop
             offset="1"
             style="stop-color:#275A66"
             id="stop173" />
          <a:midPointStop
             offset="0"
             style="stop-color:#F7F7F7"
             id="midPointStop174" />
          <a:midPointStop
             offset="0.5"
             style="stop-color:#F7F7F7"
             id="midPointStop175" />
          <a:midPointStop
             offset="1"
             style="stop-color:#275A66"
             id="midPointStop176" />
        </linearGradient>
        <path
           i:knockout="Off"
           opacity="0.85"
           fill="url(#XMLID_2_)"
           stroke="none"
           d="M55.588,121.584     c0.777,0.778,2.048,0.779,2.826,0.002L115.75,64c0.777-0.777,0.75-1.75,1.086-3.664L101.664,5.164     c-0.777-0.778-2.051-0.778-2.828,0L87.039,16.961c-0.777,0.778-1.414,2.314-1.414,3.414v7.875c0,1.1-0.639,2.634-1.418,3.41     L47.293,68.34c-0.78,0.775-1.043,2.41-1.006,3.826L55.588,121.584z"
           id="path177" />
        <path
           i:knockout="Off"
           fill="none"
           d="M55.588,121.584c0.777,0.778,2.048,0.779,2.826,0.002L115.75,64     c0.777-0.777,0.75-1.75,1.086-3.664L101.664,5.164c-0.777-0.778-2.051-0.778-2.828,0L87.039,16.961     c-0.777,0.778-1.414,2.314-1.414,3.414v7.875c0,1.1-0.639,2.634-1.418,3.41L47.293,68.34c-0.78,0.775-1.043,2.41-1.006,3.826     L55.588,121.584z"
           id="path178" />
      </g>
      <g
         i:knockout="Off"
         id="g179">
        <linearGradient
           id="XMLID_3_"
           gradientUnits="userSpaceOnUse"
           x1="84.9482"
           y1="121.3359"
           x2="84.9482"
           y2="46.9146">
          <stop
             offset="0"
             style="stop-color:#F7F7F7"
             id="stop181" />
          <stop
             offset="1"
             style="stop-color:#252525"
             id="stop182" />
          <a:midPointStop
             offset="0"
             style="stop-color:#F7F7F7"
             id="midPointStop183" />
          <a:midPointStop
             offset="0.5"
             style="stop-color:#F7F7F7"
             id="midPointStop184" />
          <a:midPointStop
             offset="1"
             style="stop-color:#252525"
             id="midPointStop185" />
        </linearGradient>
        <path
           i:knockout="Off"
           opacity="0.85"
           fill="url(#XMLID_3_)"
           stroke="none"
           d="M55.088,121.334     c0.777,0.778,2.048,0.779,2.826,0.002l58.422-58.422c0.164-0.664,1.703,0.125,0.539-2.664c0,0-3.762-14.114-4.539-13.336     L52.793,104.09C52.013,104.865,55.088,121.334,55.088,121.334z"
           id="path186" />
        <path
           i:knockout="Off"
           fill="none"
           d="M55.088,121.334c0.777,0.778,2.048,0.779,2.826,0.002l58.422-58.422     c0.164-0.664,1.703,0.125,0.539-2.664c0,0-3.762-14.114-4.539-13.336L52.793,104.09     C52.013,104.865,55.088,121.334,55.088,121.334z"
           id="path187" />
      </g>
      <g
         i:knockout="Off"
         opacity="0.3"
         id="g188">
        <path
           i:knockout="Off"
           opacity="0.85"
           fill="#FFFFFF"
           stroke="none"
           d="M68.644,72.166C98,77.5,114.556,51.765,114.556,51.765     L101.377,5.164c-0.777-0.778-2.051-0.778-2.828,0L86.752,16.961c-0.777,0.778-1.414,2.314-1.414,3.414v7.875     c0,1.1-0.639,2.634-1.418,3.41L47.006,68.34c-0.78,0.775-1.783,3.048-1.006,3.826C46,72.166,39.287,66.832,68.644,72.166z"
           id="path189" />
      </g>
      <path
         i:knockout="Off"
         fill="#FFFFFF"
         d="M68,0.5h8.25"
         id="path190" />
    </g>
  </g>
</svg>
