<?xml version="1.0" encoding="UTF-8" standalone="no"?>
<!-- Created with Sodipodi ("http://www.sodipodi.com/") -->
<svg
   xmlns:ns="http://ns.adobe.com/Variables/1.0/"
   xmlns:i="http://ns.adobe.com/AdobeIllustrator/10.0/"
   xmlns:dc="http://purl.org/dc/elements/1.1/"
   xmlns:cc="http://web.resource.org/cc/"
   xmlns:rdf="http://www.w3.org/1999/02/22-rdf-syntax-ns#"
   xmlns:svg="http://www.w3.org/2000/svg"
   xmlns="http://www.w3.org/2000/svg"
   xmlns:sodipodi="http://inkscape.sourceforge.net/DTD/sodipodi-0.dtd"
   xmlns:inkscape="http://www.inkscape.org/namespaces/inkscape"
   i:viewOrigin="247 459"
   i:rulerOrigin="-242 -332"
   i:pageBounds="242 460 370 332"
   width="48pt"
   height="48pt"
   viewBox="0 0 117 133"
   overflow="visible"
   enable-background="new 0 0 117 133"
   xml:space="preserve"
   id="svg153"
   sodipodi:version="0.32"
   sodipodi:docname="stock_volume-med.svg"
   sodipodi:docbase="/home/joss/deb/gnome/Amaranth"
   inkscape:version="0.42.2">
  <defs
   id="defs178" />
  <sodipodi:namedview
   id="base"
   inkscape:zoom="5.7500000"
   inkscape:cx="30.000000"
   inkscape:cy="30.000000"
   inkscape:window-width="888"
   inkscape:window-height="606"
   inkscape:window-x="217"
   inkscape:window-y="136"
   inkscape:current-layer="svg153" />
  <metadata
   id="metadata154">
    <sfw
   id="sfw2654">
      <slices
   id="slices2656" />
      <sliceSourceBounds
   x="247"
   y="326"
   width="117"
   height="133"
   bottomLeftOrigin="true"
   id="sliceSourceBounds2658" />
    </sfw>
    <ns:variableSets>
      <ns:variableSet
   varSetName="binding1"
   locked="none">
        <ns:variables />
        <ns:sampleDataSets />
      </ns:variableSet>
    </ns:variableSets>
  <rdf:RDF><cc:Work
     rdf:about=""><dc:format>image/svg+xml</dc:format><dc:type
       rdf:resource="http://purl.org/dc/dcmitype/StillImage" /></cc:Work></rdf:RDF></metadata>
  <g
   i:knockout="Off"
   id="g158"
   style="font-size:12;stroke:#000000;">
    <path
   i:knockout="Off"
   fill="none"
   d="M 82.830000,105.30700 C 91.599000,107.79000 96.890000,84.515000 97.284000,63.463000 C 97.191000,35.896000 91.341000,15.871000 82.726000,18.450000 M 76.445000,94.375000 C 82.947000,96.218000 86.872000,78.957000 87.165000,63.343000 C 87.096000,42.898000 82.756000,28.047000 76.368000,29.960000"
   id="path159"
   sodipodi:nodetypes="cccccc" />
    <path
   i:knockout="Off"
   fill="none"
   d="M 83.245000,107.95200 C 90.387000,107.69800 96.807000,83.598000 97.094000,60.625000 C 97.804000,39.202000 90.453000,15.789000 82.311000,23.432000 M 76.753000,96.338000 C 82.049000,96.150000 86.811000,78.277000 87.024000,61.239000 C 87.550000,45.350000 82.098000,27.987000 76.060000,33.656000"
   id="path160"
   sodipodi:nodetypes="cccccc" />
    <path
   i:knockout="Off"
   fill="none"
   d="M 83.340000,102.70800 C 91.109000,104.24100 97.459000,90.189000 97.336000,64.503000 C 97.633000,42.066000 91.262000,18.426000 83.138000,18.777000 M 76.823000,92.448000 C 82.584000,93.585000 87.294000,83.165000 87.203000,64.115000 C 87.423000,47.474000 82.697000,29.943000 76.673000,30.202000"
   id="path161"
   sodipodi:nodetypes="cccccc" />
  </g>
  <g
   i:knockout="On"
   id="g164"
   style="font-size:12;stroke:#000000;">
    <path
   i:knockout="Off"
   fill="none"
   stroke-width="2"
   stroke-linecap="round"
   stroke-linejoin="round"
   d="M60.317,94.384      c0-2.807-12.151-77.086-12.151-77.086s20.838,10.286,23.079,9.64c2.24-0.646,1.132-5.479-0.241-7.078      C69.632,18.262,51.052,4.473,43.427,4.473c-7.628,0,14.098,87.478,8.16,74.989C45.649,66.975,35.498,66.44,32.373,66.44      c-15.434,0-27.944,12.512-27.944,27.943c0,15.434,12.51,27.944,27.944,27.944C47.805,122.328,60.317,109.817,60.317,94.384z"
   id="path165" />
    <linearGradient
   id="XMLID_1_"
   gradientUnits="userSpaceOnUse"
   x1="11.3535"
   y1="36.5464"
   x2="70.5413"
   y2="95.7341">
      <stop
   offset="0"
   style="stop-color:#BFBFBF"
   id="stop167" />
      <stop
   offset="1"
   style="stop-color:#3C3E3F"
   id="stop168" />
      
      
      
    </linearGradient>
    <path
   i:knockout="Off"
   fill="url(#XMLID_1_)"
   stroke="none"
   d="M60.317,94.384c0-2.807-12.151-77.086-12.151-77.086      s20.838,10.286,23.079,9.64c2.24-0.646,1.132-5.479-0.241-7.078C69.632,18.262,51.052,4.473,43.427,4.473      c-7.628,0,14.098,87.478,8.16,74.989C45.649,66.975,35.498,66.44,32.373,66.44c-15.434,0-27.944,12.512-27.944,27.943      c0,15.434,12.51,27.944,27.944,27.944C47.805,122.328,60.317,109.817,60.317,94.384z"
   id="path172" />
  </g>
  <g
   i:knockout="On"
   opacity="0.3"
   id="g173"
   style="font-size:12;opacity:0.3;stroke:#000000;">
    <path
   i:knockout="Off"
   fill="#FFFFFF"
   stroke="none"
   d="M60.317,94.384c0-2.807-0.414-5.517-1.186-8.072     c-1.701-5.647-10.966-69.014-10.966-69.014s20.838,10.286,23.079,9.64c2.24-0.646,1.132-5.479-0.241-7.078     C69.632,18.262,51.052,4.473,43.427,4.473c-7.629,0,14.098,87.478,8.16,74.989C45.649,66.975,35.497,66.44,32.373,66.44     c-7.716,0-14.702,3.128-19.759,8.186c-5.057,5.056-1.011,24.04,17.511,19.758C48.646,90.102,60.317,94.384,60.317,94.384z"
   id="path174" />
  </g>
  <g
   i:knockout="On"
   opacity="0.3"
   id="g175"
   style="font-size:12;opacity:0.3;stroke:#000000;">
    <path
   i:knockout="Off"
   fill="#FFFFFF"
   stroke="none"
   d="M34.267,69.541c-0.835-1.408-7.32,0.894-14.487,5.141     c-7.167,4.245-12.3,8.829-11.467,10.236s7.32-0.894,14.487-5.141C29.966,75.532,35.101,70.948,34.267,69.541z"
   id="path176" />
  </g>
</svg>