<?xml version="1.0" encoding="UTF-8" standalone="no"?>
<!DOCTYPE svg PUBLIC "-//W3C//DTD SVG 20010904//EN"
"http://www.w3.org/TR/2001/REC-SVG-20010904/DTD/svg10.dtd">
<!-- Created with Sodipodi ("http://www.sodipodi.com/") -->
<svg
   width="48pt"
   height="48pt"
   viewBox="0 0 48 48"
   style="overflow:visible;enable-background:new 0 0 48 48"
   xml:space="preserve"
   xmlns="http://www.w3.org/2000/svg"
   xmlns:xap="http://ns.adobe.com/xap/1.0/"
   xmlns:xapGImg="http://ns.adobe.com/xap/1.0/g/img/"
   xmlns:rdf="http://www.w3.org/1999/02/22-rdf-syntax-ns#"
   xmlns:xml="http://www.w3.org/XML/1998/namespace"
   xmlns:xapMM="http://ns.adobe.com/xap/1.0/mm/"
   xmlns:dc="http://purl.org/dc/elements/1.1/"
   xmlns:a="http://ns.adobe.com/AdobeSVGViewerExtensions/3.0/"
   xmlns:x="adobe:ns:meta/"
   xmlns:sodipodi="http://sodipodi.sourceforge.net/DTD/sodipodi-0.dtd"
   xmlns:xlink="http://www.w3.org/1999/xlink"
   id="svg1179"
   sodipodi:version="0.32"
   sodipodi:docname="/home/david/Desktop/temp/filesystems/gnome-fs-server.svg"
   sodipodi:docbase="/home/david/Desktop/temp/filesystems/">
  <defs
     id="defs1368" />
  <sodipodi:namedview
     id="base" />
  <metadata
     id="metadata1180">
    <xpacket>begin='﻿' id='W5M0MpCehiHzreSzNTczkc9d'    </xpacket>
    <x:xmpmeta
       x:xmptk="XMP toolkit 3.0-29, framework 1.6">
      <rdf:RDF>
        <rdf:Description
           rdf:about="uuid:6ae5bb7e-7419-40cd-9849-d9f2f99d1685" />
        <rdf:Description
           rdf:about="uuid:6ae5bb7e-7419-40cd-9849-d9f2f99d1685" />
        <rdf:Description
           rdf:about="uuid:6ae5bb7e-7419-40cd-9849-d9f2f99d1685">
          <xap:CreateDate>
2003-08-08T11:25:20Z</xap:CreateDate>
          <xap:ModifyDate>
2004-03-29T09:08:32Z</xap:ModifyDate>
          <xap:CreatorTool>
Adobe Illustrator 10.0</xap:CreatorTool>
          <xap:MetadataDate>
2004-02-28T14:48:12+01:00</xap:MetadataDate>
          <xap:Thumbnails>
            <rdf:Alt>
              <rdf:li
                 rdf:parseType="Resource">
                <xapGImg:format>
JPEG</xapGImg:format>
                <xapGImg:width>
256</xapGImg:width>
                <xapGImg:height>
256</xapGImg:height>
                <xapGImg:image>
/9j/4AAQSkZJRgABAgEASABIAAD/7QAsUGhvdG9zaG9wIDMuMAA4QklNA+0AAAAAABAASAAAAAEA
AQBIAAAAAQAB/+4ADkFkb2JlAGTAAAAAAf/bAIQABgQEBAUEBgUFBgkGBQYJCwgGBggLDAoKCwoK
DBAMDAwMDAwQDA4PEA8ODBMTFBQTExwbGxscHx8fHx8fHx8fHwEHBwcNDA0YEBAYGhURFRofHx8f
Hx8fHx8fHx8fHx8fHx8fHx8fHx8fHx8fHx8fHx8fHx8fHx8fHx8fHx8fHx8f/8AAEQgBAAEAAwER
AAIRAQMRAf/EAaIAAAAHAQEBAQEAAAAAAAAAAAQFAwIGAQAHCAkKCwEAAgIDAQEBAQEAAAAAAAAA
AQACAwQFBgcICQoLEAACAQMDAgQCBgcDBAIGAnMBAgMRBAAFIRIxQVEGE2EicYEUMpGhBxWxQiPB
UtHhMxZi8CRygvElQzRTkqKyY3PCNUQnk6OzNhdUZHTD0uIIJoMJChgZhJRFRqS0VtNVKBry4/PE
1OT0ZXWFlaW1xdXl9WZ2hpamtsbW5vY3R1dnd4eXp7fH1+f3OEhYaHiImKi4yNjo+Ck5SVlpeYmZ
qbnJ2en5KjpKWmp6ipqqusra6voRAAICAQIDBQUEBQYECAMDbQEAAhEDBCESMUEFURNhIgZxgZEy
obHwFMHR4SNCFVJicvEzJDRDghaSUyWiY7LCB3PSNeJEgxdUkwgJChgZJjZFGidkdFU38qOzwygp
0+PzhJSktMTU5PRldYWVpbXF1eX1RlZmdoaWprbG1ub2R1dnd4eXp7fH1+f3OEhYaHiImKi4yNjo
+DlJWWl5iZmpucnZ6fkqOkpaanqKmqq6ytrq+v/aAAwDAQACEQMRAD8A9U4q7FXYq7FXYq7FXYq7
FXYq7FXYq7FXYq7FXYqsmmhgieaeRYoYwWkkchVVRuSSdgMVeS+a/wA91S5ez8oWkepNESsupXJZ
bXkO0YUq0nzqB4V65OMCVtBWH5/a1DRdX8vJMveaxnp90UgJP/BYTikEWybTfz48gXRC3ktzpUh2
CXkDgV/1ovVX7zkCCEsw0nzV5a1cD9Gapa3hbokMyM/0oDyH0jAqaYq7FXYq7FXYq7FXYq7FXYq7
FXYq7FXYq7FXYq7FXYq7FXYq7FXYq7FXYq7FXYq7FWMedfzF8ueUoB9elM+oSj/RtNgo88h7Hj+y
v+U30VO2ICvF9X1jzr+YmorbXKNHYcuUGi2zH0lA6PcSbcyPE7eFMvjjA3ki3oPlL8sNN0pI59RV
Lq7WhSED9xH8l/aPufuyM8t7BaTu+8j+VL2pm02JWP7UIMJr4/uyuRGSQ6ppjmofk5oc4b6pdz25
P7MgWZB9HwH/AIbJjMUUxPVPyL1IVa2a1ugOlOUEh/Dj/wANjxxPMKly6R+avlwD6nc6rbRJ0RHN
1AoH+QDIgx4YnqqNsfzp/MbT29O8FnqQXZ/XiMEv/JIogP8AscBxLbJ9O/5yIsDRdX0K6tuxe1dL
lfnRvSIGRMCm2Y6B+a/kPXLmK0s9TWO9mIWO1uEeFyx6KC4Csx7ANkaVl2BXYq7FXYq7FXYq7FXY
q7FXYq7FXYq7FXYq7FXYq7FXYq7FXYqpXV1bWlvJc3UyQW8Kl5ZpWCIqjqWZqADFXjvnL87rm9Mm
neS1pHus2uzJ8I8fq8bD4j/lMPo75OGMyRaS+Uvyx1HVLhtT1WSVBcHnPe3BL3U9e451IB8T+OWm
UYcuavW9I0fTNItRbWECwx9WI3Zj4sx3JymUieaUdyyKu5Yq7liruWKu5Yqhr3TtMvl43tpDcr2E
0av/AMSBwgqxnVfy08jzxvK9r9SCglpYZGQAf6rFk/DJCZQ8W89aRpGm3bRaZLLPbhOaSzcQ4YE7
gqF228MtN1ur6P8AIGrXeq+UdNvLti9y0KCWQ9XYKPiPue+Y6WQ4q7FXYq7FXYq7FXYq7FXYq7FX
Yq7FXYq7FXYq7FXYq7FWJed/zM8u+U4/SuHN5q0g/wBH0u3IaZiRUF+vpr7t9AOEC1eNaje+dfzD
1FY9QqbVW5w6RbkrbRDs8zftsPFvo8MuGMDeSLei+Vvy80vSBHPdhbu9ShUU/dRkfyKetPE/cMEs
hOwWmX88qS7nirueKu54q7nirueKu54qhNS1e00+H1Lh9z9iMbsx9hkhElWCazrt7qklJD6duD8E
C9PmfE5fGADF5v5+FJkH/FB/4kcZK9+/Kn/lBdM/4xr/AMRXMUsmXYq7FXYq7FXYq7FXYq7FXYq7
FXYq7FXYq7FXYq7FVC+v7KwtJby9nS2tYV5SzysERQO5J2xV4x5w/OvUdUMmn+TlNtZ7pJrky/Gw
6H6tEw2/1m+4dcshjMkWlnlL8sbq6f69qTSRJOec00pL3U5O5JLVIr4n7st4hHkr1PTtOsNNtltr
KFYYl7L1J8WJ3J9zlRJKorngS7nirueKu54q7nirueKu54qk2seZYbMNDBSW56H+Vfn7+2TjC0MP
uZ7i6maa4cySN1J/UPDLQKQphMKsG/MMUuYx/wAUH/iRyEle+flT/wAoLpn/ABjX/iK5jFky7FXY
q7FXYq7FXYq7FXYq7FXYq7FXYq7FXYq7FWGeePzT8veVSbTfUdbYVi0u3ILgkbGVtxGvz39sIFq8
eu385/mBqYfVXM0SMGh02ElLO3HYvv8AE3u1T4eGXxxgbyRb0Py15H0zSFSaYC6vVpRyPgQj+Rfb
xP4YJTJWmT88grueKu54q7nirueKu54q7niq2SZI0LuwVFFWY7AY0rGdW8ySTcoLIlI+jS9GPy8B
lkYd6pGFrvliFwTFVwTFWA/mQKXkI/5d/wDjZshJL3r8qf8AlBdM/wCMa/8AEVzGKWXYq7FXYq7F
XYq7FXYq7FXYq7FXYq7FXYq7FXnH51ebtZ0PS9O0/SJTa3esTPE96v24oolDP6fg7chRu3z3Eoxs
0rBfJ/5avcW6aleF0tLkl/WJ5zTmvxFnNab5kWI7Bi9JsrOzsbdbe0iWGFeir+s+J9zlRNpRHPFX
c8VdzxV3PFXc8VdzxV3PFUNe6jb2kfOVtz9lB1PywgWrF9Q1S5vn+M8YQfhiHT6fE5YI0hCqmSVe
EwKvCYquCYq87/M4Uv4B/wAu/wDxu2Rkl7z+VP8Ayg2m/wDGNf8AiK5jlLLsCuxV2KuxV2KuxV2K
uxV2KuxV2KuxV2KuxV49/wA5B/70+Vf+M93/AMm0yzF9QQWe/lyAfJOlg7gxtUf89GwZPqKhOJ9I
sZtzHwY/tJ8P4dMiJFKW3Hl6dd4JA4/lb4T/AEyQkhLZ7a6tzSaNk9yNvv6ZIFVDnhV3PFXc8Vdz
xVLtR1uO3rHDSSf8F+eSEVY9LLNPIZJWLue5yaHKmFVRUwKqBMVXhMVXBMVebfmmKalbj/l2/wCN
2yEkvd/yp/5QbTf+Ma/8RXKCll2BXYq7FXYq7FXYq7FXYq7FXYq7FXYq7FXYq8e/5yC/3p8rf8Z7
r/k2mWYvqCCz38uf+UJ0r/jG3/JxsGT6ioZJkEuxVxAIIIqD1GKoK40bT56kx8GP7Ufw/h0/DCJF
UqufLVwtTbyCQfyt8J/pkxNCVXdvc2YLXMZiRern7P8AwXTJA2rHdQ1t5axWxKp0Mnc/LwywRQli
rklVVXAqoq4qqqmKrwmKqgTAq4LirzD82NtVtR/y7f8AG7ZGSXu35U/8oNpv/GNf+IrlBSy7ArsV
dirsVdirsVdirsVdirsVdirsVdirsVePf85B/wC9Hlb/AIzXX/JtMsxfUgs9/Lj/AJQnSv8AjG3/
ACcbBk+oqF58/eWY9VuNLubk2t1bv6bespVCRvUOKrT/AFqY+GatbT6GeGeNZYZFlibdXQhlPyIy
CV+KuxV2KpH5238sXg/4xf8AJ1Mnj5qXl6rmSxVVXAqqq4qqquKqqriq8LgVcBirYGKvLvza21e0
/wCYb/jdshJL3X8qf+UG03/jGv8AxFcpKWXYFdirsVdirsVdirsVdirsVdirsVdirsVdirx3/nIT
+/8AK/8Axmuv+TaZZj+pBZ7+W/8AyhGlf8Y2/wCTjYMn1FQ8s8+6VqUHmrUbua1lS1nm5RTlD6bA
gDZumZOMikFDaPqWoWMgezuJIG7+mxUH5gbH6cSAVZ3pH5h6sgVb2NLpe7/3b/evw/8AC5VLEE2y
yw826RdgAuYHP7MooP8AghUfflZgQm03WVHUMjBlPRgaj8MgqS+cjXy3eD/jH/ydTJ4+aC81VcyE
Kqriqsq4qqquBV4GKrgMVXAYquAwK8q/N3bWbMf8u3/MxsjLml7t+VX/ACg2m/8AGNf+IjKSlluB
XYq7FXYq7FXYq7FXYq7FXYq7FXYq7FXYq8d/5yF/vvK//Ga6/wCTaZZj5oLPPy2P/Oj6T/xjb/k4
2DJ9RUMQ1j8y9c0vzPqNhJHDeWEUxRIZF4sEoNgy/wDGwOWxxAi1tVh1T8u9b3urNtJum6yRCiVP
ugKn5smNSHmqKPkUsnr6TfRXsHYVAPy5KWU/hg8TvWkOdNv7NqXMDx/5RFV/4IbYbBVl3lY0spP+
Mn/GoyufNQ35uNfL12P+Mf8AydXBDmpedouZCFZFxVWVcCrwMVXgYquAwKuAxSuAxV5P+cG2t2Q/
5dv+ZjZE81e7flV/yg2m/wDGNf8AiIyk80stwK7FXYq7FXYq7FXYq7FXYq7FXYq7FXYq7FXjn/OQ
3955Y/4zXX/JtMnj5oLOvy2b/nR9J/4xN/ycbHJ9ShjPmT8uhq2sX1/pepwyXTyFrizciqNTpyQs
R8iuWxyUKIWmM3XlfXtLJ+uWbqi9ZVHOP/glqB9OTEwUIjTbieBxJBI0Tj9pCVP3jEhWX6d5r1NV
CXBW5ToeYo1PmP45WYBLJ9Ju7a4gaSCEQ/F8ailK067ZXIJQvms10G6H/GP/AJOLhhzQWAouXoVk
XFVUDAq8DFVwGBV4GKVwGKrgMVeSfnHtrtiP+Xb/AJmNkDzV7t+VX/KD6b/xjX/iIyo80stwK7FX
Yq7FXYq7FXYq7FXYq7FXYq7FXYq7FXjn/OQ/2/LP/Ga6/wCIJk8fNBZv+Wzf86PpP/GJv+TjYz5q
Hl3mz1ovOepzwu0UonJV0JVhsOhGZMPpCE50bz55mtAqSzC8iH7M4q3/AAYo33k5E4wVtkEWueVd
U/3vsDZznrNHuK+JKAE/SuQ4ZDklGJ5btZV9TTbxZk68GIJHzK/0wcfeqc6Jaz2tvJHMvFudRuDU
UHhkZG1U/M5rodyP9T/k4uMOasHQZehWUYFXgYqvAxVeBgSuAxVeBiq4DAryH85tvMFgP+XUf8nG
yJ5q92/Kr/lB9N/4xr/xEZUeaWW4FdirsVdirsVdirsVdirsVdirsVdirsVdirxz/nIj7Xln/jNd
f8QTJ4+aCzP8t2/50jSf+MTf8nGwz5qmepeX9E1KrXlnHJIf92gcZP8Ag1o344BIhWN3n5cWoJaw
uWTwjmHIf8EtCPuOWDL3rSWSeWdUsz+8hLoP24/iH4bj6clxgqq2kLowZSVYdCNiMSrLtFnnktm9
Vy5VqAnrSgyqQVT8yGujXA/1P+Ti4w5qwxBlyFUDFV4GKrwMCrwMUrwMVXAYFXgYq8e/OjbzFp//
ADCj/k42QPNXu35V/wDKD6b/AMY1/wCIjKzzSy3ArsVdirsVdirsVdirsVdirsVdirsVdirsVeN/
85E9fLX/ABmuv+IJk8fNBZh+XB/50jSf+MTf8nGwz5qyTlkUtFsVWlsVUJ7S1m3kjUt/N0P3jDar
ba2jtlZYySrGu+JNoQnmE10if/Yf8TXJQ5qxBBlqFQYqvAwKvAxSqAYqvAwKvAxVeq1xV45+dgp5
k00eNqP+Tr5A81e6/lX/AMoPp3/GNf8AiIys80stwK7FXYq7FXYq7FXYq7FXYq7FXYq7FXYq7FXj
f/ORX/TNf8Zrr/iEeTx80Flv5cN/zpGlf8Ym/wCTjYZc1ZHyyKWi2KrS2FWi2KtFsVS7XjXSp/8A
Yf8AExko80MUXLUKgxVeMCqgxSvGBV4GKrwMVV40wK8a/PMU8z6YP+XQf8nXyHVXuX5V/wDKD6d/
xjX/AIiMgeaWW4FdirsVdirsVdirsVdirsVdirsVdirsVdirxr/nIv7Plv8A4zXX/EI8nj5oLKvy
5b/nSdK/4xN/ycbDLmrIy2BLRbFWi2KFpbFWi2KpfrZrpk3+x/4mMlHmrGFy1CoMVXjAqoMUrxgV
eMVVUG+BUVEuBXhP5z6vpuo+bbRLG4W4NpAIbgx7qsgkZivLoaA70yHVXvv5VgjyRpwOxEa/8RGR
PNLLcCuxV2KuxV2KuxV2KuxV2KuxV2KuxV2KuxV41/zkZ9jy5/xluv8AiEeThzQUf5I1e6tfLOnR
KqvCIgQp2O5JO49zlpjasog1+0koJQ0Te+4+8f0yJgqOjuIpV5RuHHiprkaVstirRbFWi2KoHWTX
TZv9j/xMZKPNWNjLELxiq9cCVRcVVBgVeMVW3V/ZafayXd7MlvbRDlJK5oAP8+2Aq8c87fmtqWuM
+l6DztdNb4JLjcTTA7U2+wp8Bue/hld2q/8AL/8AKjUNYmSWaMpBsSSOoxuuSX0roekw6TpkNjEa
rENz75BUfirsVdirsVdirsVdirsVdirsVdirsVdirsVeM/8AORv935c/4y3P/EI8nDmgozyfDy8r
6a3jCuW2qam39sbVaImRuSkqw7jY4VRUWo30exb1B4MP4jI0FRcerxNtIhQ+I3GDhVFJcRSCqOG+
R3wUqF1c/wC46X/Y/wDEhhjzVjwyxC8YqvXAlUXFV4wKk3mnzlo/lu19W8fncuKwWiEeo5/41X/K
OAmleMaxrvmTzpqKibkLcN/o9lHX00B2r7n/ACj9GQ57lXqv5c/k0AI73U1oo3Ckfw/z/hkTJL2q
ysbWygWC2jEca9h3+eRVXxV2KuxV2KuxV2KuxV2KuxV2KuxV2KuxV2KuxV4z/wA5H/3Xl3/jLc/8
QjycOaCnXkaHl5Q0pqdYB+s5MlU6Nv7Y2qw2/tjarDb+2G1Uzb+2NqtMBBqNj44bVTvJJxaOjMSh
pUHfuMQqWrkkKgxVeMCqgxSwPzp+aVppZfT9G43epbq832ooj/xuw8Og7+GQMu5WAaJ5a1/zTqhn
mMlzPM1ZJn3/AM/1ZDlz5q+hPIn5WabocCTXSCS5pWh8ff8Az/pkSbS9AChQFUUA2AHTArsVdirs
VdirsVdirsVdirsVdirsVdirsVdirsVdirxn/nJD+48u/wDGW5/4hHk4Kyf8vYeXkrSG8YB+s4Sd
0J+bfG1WG39sbVYbf2w2qw2+NqsNv7Y2qC1SHjYyN4cf+JDJR5qka5NCoMVWXd9aWNs91dyrBbxC
ryOaAYCl5L5v/MrUNZZ9O0XnbWDfC8+4llHSm32VPh1P4ZWSTyVFeQPyp1DWZklnjKQdSSOoyN1y
S+ifLflPS9CtUito19QDeSn6sgqd4q7FXYq7FXYq7FXYq7FXYq7FXYq7FXYq7FXYq7FXYq7FWDfm
35DufNmhQ/UHC6npztNaq/2ZAwo8Z8CaAg+3vkomleGW2tfmJ5QcxK91aRRbGJh60A33+BwyrX5A
5OwUMy0L/nICQcU1vTVlX9q4szxYD/jFISCf9mMBir0LQvzE8la3xS01KOO4agFtc/uJOR/ZAegY
/wCqTgpLJDb4LVJ/NM2oWOiz3VgnOePidl5kLUcmC7V4jemV5shhAyAumnPkMIGQF0xyHzpZxqkp
1GG9iZ1SSFozb3C82C/CvJw9K1PTbMHB2pjmQNwfc4mPtHHKvUDf45Mi12MDSZnHT4CD83XNrHm7
BiyHLUJT5k826T5ftvUu353DD9zaoR6jn+C+5yMpUl5Fq+u675t1GNJ2KxM1LaySvBa+3c/5Rys7
7lXrH5c/k0KR3uqLRRuFI/h/n/DImSXtVlY2tlAsFtGI417Dv88iqvirsVdirsVdirsVdirsVdir
sVdirsVdirsVdirsVdirsVdirsVQ17pun3qcLu3jmX/LUE/QeuKsH8wfkn5R1TlJDGbSdqnknSp+
VD99cIJV5rr/AOQfmOy5SabKLuIdFO7U+gV/4XJcSsbtdY/Mvyc/pwz3VrDHt6L/AL63Ar/I4dFr
8gcOxQzTQv8AnIqdeMXmDSllX9q5sjxan/GKQkE/7MYCEs10XzP+U3mO4iltprWO/qvCC5X6vLyP
QBX4q5/1Scx/y2Pi4uEW0HTYzLi4Rxd9Mn8zwhNCuWHQenT/AJGLmTDm3F4d5t/Mi207nY6TxudQ
+y0vWOI/8bN7dP1ZOU+5Xmrx6nqVy9zOXuruQ1Z3NRX3/pkarcqzr8idBim80pc3/wC+mHQHoNul
Owysm0vqAKFAVRQDYAdMCuxV2KuxV2KuxV2KuxV2KuxV2KuxV2KuxV2KuxV2KuxV2KuxV2KuxV2K
uxV2Koa903T71OF3bxzL/lqCfoPXFWD+YPyU8o6pyeGM2kzVPJOlT8qH764RIhXmfmH/AJx+1+05
SadIt1GOg/ap9Ar/AMLkuIKwM6r5x05b3y1HqF1HEo9K607m5VQrA7JuF3putPDDXcUJt5Y/LrUr
/jLLGY4juWI3phHkrMrvy/Y6TYenCg5gbvkpDZUP+R3/ACko+f8ADKEvonFXYq7FXYq7FXYq7FXY
q7FXYq7FXYq7FXYq7FXYq7FXYq7FXYq7FXYq7FXYq7FXYq7FXYq8L06ytLr86fMEdzEsqcZDRhX9
uLJRV6brFrb20AjgjWNKDZRTtkoIec+Zv7hvpyyXJUj/ACO/5SUfP+GY6X0TirsVdirsVdirsVdi
rsVdirsVdirsVdirsVdirsVdirsVdirsVdirmZVUsxAUCpJ2AAxVBfpvRf8Alvtv+R0f9cVd+m9F
/wCW+2/5HR/1xV36b0X/AJb7b/kdH/XFXfpvRf8Alvtv+R0f9cVd+m9F/wCW+2/5HR/1xVDaj5q8
v2FnLdzX0LJEK8I3R3Y9AFUGpJyjU6iGGBnPkHI0umnnmIQHqLxO11iWLzpqXmezt2l+ulgIGBIV
WZTuy9/gzl5+1MgfTAV5l6iPsxAD15N2Q335iazdrRtLC7U2En9MgPaqY/gj80/6G8H+qfcx/UdT
1C9Qq9myV8FY/wAMkfazIf4I/Nf9DWD/AFT7lP8ALQ2WgeZomvJ/SikYK0kg4hCdhyJ6D3zN0PtD
HLIRmOG+vRw9b7OyxwM8cuMDp1/a94/Tei/9XC2/5HR/1zo3mnfpvRf+W+2/5HR/1xV36b0X/lvt
v+R0f9cVd+m9F/5b7b/kdH/XFXfpvRf+W+2/5HR/1xVUg1PTbiT07e7hmkpXhHIrNQewJxVE4q7F
XYq7FXYq7FXYq7FXYq7FXYq7FXYq7FXYqgtb/wCOLf8A/MNN/wAmzir55/Lv8tLfzXpdzeSzyxGC
f0QI+NCOCt+0D/NhFKyv/lQNl/y13P8AyT/5pw0Fd/yoGy/5a7n/AJJ/8040Fd/yoGy/5a7n/kn/
AM040Fd/yoGy/wCWu5/5J/8ANONBUg83/l5b+ULe3uo5pZWuXaI+rx2AHLbiBnOe0Y/dxA/nfoeq
9lI3lmf6P6XqflLTdOfSYVZSqoiBFU0G61J+ZOcz2J2Zg1InLLZIl3uJ2jnyDIa6kp3+iNK8G/4L
N5/od0XdL/TOB+Zyu/RGleDf8Fj/AKHdF3S/0y/mcryz814ba3e3eNfiWR4w568KVoTnKywRxajJ
jh9MTs9d7PzlIG+5q1/ImyubWG4+t3A9ZFkoOFByAO3w++ep4aMBfcHhs4rJIDvKr/yoGy/5a7n/
AJJ/805ZQanf8qBsv+Wu5/5J/wDNONBXf8qBsv8Alruf+Sf/ADTjQV3/ACoGy/5a7n/kn/zTjQVh
2nWdx5T/ADLaxspm5WriMSPTkVdFYg0oP2siVfS0LF4Y3PVlBPzIxVfirsVdirsVdirsVdirsVdi
rsVdirsVdirsVQWt/wDHFv8A/mGm/wCTZxV4z+TGqNZ6DfIDTldcv+SajJxFoeg/4ik/myfCrv8A
EUn82PCrv8RSfzY8Ku/xFJ/Njwq8+/OHWGuNN09SfszOf+FznvaCHoj73rvZH+9n/VH3s28t3fp6
ZDv1jjP/AAgzkuxc3AJj+k42tx3kPvKa/pD3zd/nHE8F36Q98fzi+C8v/N+4/cWrV+1O3/Ec5uB4
tTkL1PYEaJ9zPNM8wuum2i8ukMY/4QZ6lhj6I+4PB6n+9l/WP3or/EUn82W8LQ7/ABFJ/Njwq7/E
Un82PCrv8RSfzY8KvG9VnNx+alxMerzIf+SaDKpDdL6Stv8AeeL/AFF/VgVUxV2KuxV2KuxV2Kux
V2KuxV2KuxV2KuxV2KoLW/8Aji3/APzDTf8AJs4q+ZPKPmW30qymhlfiZJOYFCduIHb5ZOMqQnv+
PrH/AH7+Df0yfiLTv8fWP+/fwb+mPiLTv8fWP+/fwb+mPiLTv8fWP+/fwb+mPiLTG/O3me31K1tk
ifkY3LHYjqKd80fbZ4oR972PseP3uT+qPvev6M5OmWpB/wB0x/8AEBnnujNGX9ZGoHrPvKO5N45n
cRaadybxx4itPN/zjm4WFhv/ALuf/iGY+gF55vQdhD1S9yjaee7KO1hQy7oiqdm7ADwz1TFk9A9w
fPNUP3sv6x+9V/x9Y/79/Bv6ZZ4jRTv8fWP+/fwb+mPiLTv8fWP+/fwb+mPiLTv8fWP+/fwb+mPi
LSQ6dfJfeeFu0PJZZFIPyUD+GVSNlL6ltv8AeeL/AFF/VgVUxV2KuxV2KuxV2KuxV2KuxV2KuxV2
KuxV2KrJoY5oXhlXlHIpR18VYUIxV5lqX5E6DNePJZsLe3bdYSWPH6d8VQv/ACoLTv8AloH/AA2K
u/5UFp3/AC0D/hsVd/yoLTv+Wgf8Nirv+VBad/y0D/hsVSXzb/zj9cnRZpdFmWXUIP3kduSR6oA3
QE7Bj2r3zD1unOWG3MO99n+0o6TPc/okKPl5sEsfzY8waRbppuoaUXurQCFy5eGT4Pho6FT8Qpvn
D5uwvWSJSjfR7aXZuDMeOGQcJ9xRH/K79Q/6tA/5HN/zRlf8hS/ny+X7WP8AIuP+f9363f8AK79Q
/wCrQP8Akc3/ADRj/IUv58vl+1f5Fx/z/u/Wk2seYdf88XttALT6taQkkBeRALU5MzGlTtsM2nZn
YpgTVm+ZKMuo03Z2OUuLiyHkOp/UO8vVdB/JOz1DTYrmRvQZhQo3Lt3GdmBQp8xnIyJJ5lMf+VBa
d/y0D/hsLF3/ACoLTv8AloH/AA2Ku/5UFp3/AC0D/hsVd/yoLTv+Wgf8NiqvY/kfaWV1HcwXKiSM
1H2sVeoxIUiRDuVUA/QKYquxV2KuxV2KuxV2KuxV2KuxV2KuxV2KuxV2KuxV2KuxV2KuxV2KuxVJ
9V8oeX9Vn+sXlojTn7UqijGnj44qgP8AlXHlP/ll/Ef0xV3/ACrjyn/yy/iP6YqrWvkPyzayiSK1
+IdidvwxVkCIiIEQBVUUVRsABireKuxV2KuxV2KuxV2KuxV2KuxV2KuxV2Kv/9k=</xapGImg:image>
              </rdf:li>
            </rdf:Alt>
          </xap:Thumbnails>
        </rdf:Description>
        <rdf:Description
           rdf:about="uuid:6ae5bb7e-7419-40cd-9849-d9f2f99d1685">
          <xapMM:DocumentID>
uuid:fdde59e2-a31d-42ec-954f-7417a0554dc2</xapMM:DocumentID>
        </rdf:Description>
        <rdf:Description
           rdf:about="uuid:6ae5bb7e-7419-40cd-9849-d9f2f99d1685">
          <dc:format>
image/svg+xml</dc:format>
        </rdf:Description>
      </rdf:RDF>
    </x:xmpmeta>
    <xpacket>end='w'    </xpacket>
  </metadata>
  <g
     id="Layer_1">
    <g
       id="g1182">
      <path
         style="opacity:0.2;"
         d="M36.049,41.004h-0.673h-7.922c-0.166-0.287-0.425-0.514-0.735-0.64v-8.689h-4.875v0.367v8.322      c-0.311,0.126-0.569,0.353-0.735,0.64h-8.594v4.875h8.441c0.167,0.646,0.752,1.125,1.451,1.125h3.75      c0.698,0,1.284-0.479,1.451-1.125h8.441V41.004z"
         id="path1183" />
      <path
         style="opacity:0.2;"
         d="M35.861,40.816h-0.673h-7.922c-0.166-0.287-0.425-0.514-0.735-0.64v-8.689h-4.875v0.367v8.322      c-0.311,0.126-0.569,0.353-0.735,0.64h-8.594v4.875h8.441c0.167,0.646,0.752,1.125,1.451,1.125h3.75      c0.698,0,1.284-0.479,1.451-1.125h8.441V40.816z"
         id="path1184" />
      <path
         style="opacity:0.2;"
         d="M35.674,40.629h-0.673h-7.922c-0.166-0.287-0.425-0.514-0.735-0.64V31.3h-4.875v0.367v8.322      c-0.311,0.126-0.569,0.353-0.735,0.64h-8.594v4.875h8.441c0.167,0.646,0.752,1.125,1.451,1.125h3.75      c0.698,0,1.284-0.479,1.451-1.125h8.441V40.629z"
         id="path1185" />
      <polygon
         style="fill:#616161;"
         points="34.813,40.441 11.952,40.441 11.952,45.316 35.486,45.316 35.486,40.441 "
         id="polygon1186" />
      <linearGradient
         id="XMLID_20_"
         gradientUnits="userSpaceOnUse"
         x1="23.7183"
         y1="41.1143"
         x2="23.7183"
         y2="44.6445">
        <stop
           offset="0"
           style="stop-color:#CECEDB"
           id="stop1188" />
        <stop
           offset="0.191"
           style="stop-color:#FFFFFF"
           id="stop1189" />
        <stop
           offset="0.4831"
           style="stop-color:#CECEDB"
           id="stop1190" />
        <stop
           offset="0.7528"
           style="stop-color:#B3B3C6"
           id="stop1191" />
        <stop
           offset="0.9944"
           style="stop-color:#828282"
           id="stop1192" />
        <a:midPointStop
           offset="0"
           style="stop-color:#CECEDB"
           id="midPointStop1193" />
        <a:midPointStop
           offset="0.5"
           style="stop-color:#CECEDB"
           id="midPointStop1194" />
        <a:midPointStop
           offset="0.191"
           style="stop-color:#FFFFFF"
           id="midPointStop1195" />
        <a:midPointStop
           offset="0.5"
           style="stop-color:#FFFFFF"
           id="midPointStop1196" />
        <a:midPointStop
           offset="0.4831"
           style="stop-color:#CECEDB"
           id="midPointStop1197" />
        <a:midPointStop
           offset="0.5"
           style="stop-color:#CECEDB"
           id="midPointStop1198" />
        <a:midPointStop
           offset="0.7528"
           style="stop-color:#B3B3C6"
           id="midPointStop1199" />
        <a:midPointStop
           offset="0.5"
           style="stop-color:#B3B3C6"
           id="midPointStop1200" />
        <a:midPointStop
           offset="0.9944"
           style="stop-color:#828282"
           id="midPointStop1201" />
      </linearGradient>
      <rect
         x="12.624"
         y="41.114"
         style="fill:url(#XMLID_20_);"
         width="22.189"
         height="3.53"
         id="rect1202" />
      <polygon
         style="fill:#616161;"
         points="21.281,31.479 21.281,43.959 26.156,43.959 26.156,31.112 21.281,31.112 "
         id="polygon1203" />
      <linearGradient
         id="XMLID_21_"
         gradientUnits="userSpaceOnUse"
         x1="291.5684"
         y1="864.8506"
         x2="291.5684"
         y2="868.3818"
         gradientTransform="matrix(0 -1 1 0 -842.8975 329.1035)">
        <stop
           offset="0"
           style="stop-color:#CECEDB"
           id="stop1205" />
        <stop
           offset="0.191"
           style="stop-color:#FFFFFF"
           id="stop1206" />
        <stop
           offset="0.4831"
           style="stop-color:#CECEDB"
           id="stop1207" />
        <stop
           offset="0.7528"
           style="stop-color:#B3B3C6"
           id="stop1208" />
        <stop
           offset="0.9944"
           style="stop-color:#828282"
           id="stop1209" />
        <a:midPointStop
           offset="0"
           style="stop-color:#CECEDB"
           id="midPointStop1210" />
        <a:midPointStop
           offset="0.5"
           style="stop-color:#CECEDB"
           id="midPointStop1211" />
        <a:midPointStop
           offset="0.191"
           style="stop-color:#FFFFFF"
           id="midPointStop1212" />
        <a:midPointStop
           offset="0.5"
           style="stop-color:#FFFFFF"
           id="midPointStop1213" />
        <a:midPointStop
           offset="0.4831"
           style="stop-color:#CECEDB"
           id="midPointStop1214" />
        <a:midPointStop
           offset="0.5"
           style="stop-color:#CECEDB"
           id="midPointStop1215" />
        <a:midPointStop
           offset="0.7528"
           style="stop-color:#B3B3C6"
           id="midPointStop1216" />
        <a:midPointStop
           offset="0.5"
           style="stop-color:#B3B3C6"
           id="midPointStop1217" />
        <a:midPointStop
           offset="0.9944"
           style="stop-color:#828282"
           id="midPointStop1218" />
      </linearGradient>
      <rect
         x="21.953"
         y="31.479"
         style="fill:url(#XMLID_21_);"
         width="3.531"
         height="12.112"
         id="rect1219" />
      <linearGradient
         id="XMLID_22_"
         gradientUnits="userSpaceOnUse"
         x1="23.7192"
         y1="46.4414"
         x2="23.7192"
         y2="39.6914">
        <stop
           offset="0"
           style="stop-color:#CF0000"
           id="stop1221" />
        <stop
           offset="0.9944"
           style="stop-color:#FF6D00"
           id="stop1222" />
        <a:midPointStop
           offset="0"
           style="stop-color:#CF0000"
           id="midPointStop1223" />
        <a:midPointStop
           offset="0.5"
           style="stop-color:#CF0000"
           id="midPointStop1224" />
        <a:midPointStop
           offset="0.9944"
           style="stop-color:#FF6D00"
           id="midPointStop1225" />
      </linearGradient>
      <path
         style="fill:url(#XMLID_22_);"
         d="M27.094,44.941c0,0.829-0.672,1.5-1.5,1.5h-3.75c-0.828,0-1.5-0.671-1.5-1.5v-3.75      c0-0.828,0.672-1.5,1.5-1.5h3.75c0.828,0,1.5,0.672,1.5,1.5V44.941z"
         id="path1226" />
      <linearGradient
         id="XMLID_23_"
         gradientUnits="userSpaceOnUse"
         x1="23.7183"
         y1="37.0664"
         x2="23.7183"
         y2="49.6291">
        <stop
           offset="0"
           style="stop-color:#FFF030"
           id="stop1228" />
        <stop
           offset="0.9944"
           style="stop-color:#FFAE00"
           id="stop1229" />
        <a:midPointStop
           offset="0"
           style="stop-color:#FFF030"
           id="midPointStop1230" />
        <a:midPointStop
           offset="0.5"
           style="stop-color:#FFF030"
           id="midPointStop1231" />
        <a:midPointStop
           offset="0.9944"
           style="stop-color:#FFAE00"
           id="midPointStop1232" />
      </linearGradient>
      <path
         style="fill:url(#XMLID_23_);"
         d="M21.844,40.441c-0.414,0-0.75,0.337-0.75,0.75v3.75c0,0.414,0.336,0.75,0.75,0.75h3.75      c0.414,0,0.75-0.336,0.75-0.75v-3.75c0-0.413-0.336-0.75-0.75-0.75H21.844z"
         id="path1233" />
      <linearGradient
         id="XMLID_24_"
         gradientUnits="userSpaceOnUse"
         x1="23.7183"
         y1="41.0039"
         x2="23.7183"
         y2="43.8163">
        <stop
           offset="0"
           style="stop-color:#FFFFFF"
           id="stop1235" />
        <stop
           offset="0.4971"
           style="stop-color:#FFE3A9"
           id="stop1236" />
        <stop
           offset="0.9944"
           style="stop-color:#FFC957"
           id="stop1237" />
        <a:midPointStop
           offset="0"
           style="stop-color:#FFFFFF"
           id="midPointStop1238" />
        <a:midPointStop
           offset="0.4886"
           style="stop-color:#FFFFFF"
           id="midPointStop1239" />
        <a:midPointStop
           offset="0.9944"
           style="stop-color:#FFC957"
           id="midPointStop1240" />
      </linearGradient>
      <path
         style="fill:url(#XMLID_24_);"
         d="M21.844,41.004c-0.104,0-0.188,0.085-0.188,0.188v3.75c0,0.104,0.084,0.188,0.188,0.188      h3.75c0.104,0,0.188-0.084,0.188-0.188v-3.75c0-0.103-0.084-0.188-0.188-0.188H21.844z"
         id="path1241" />
    </g>
    <path
       style="opacity:0.2;"
       d="M25.247,1.276L12.139,9.865c-0.004,0.004-0.042,0.028-0.042,0.028c0.008-0.005-0.047,0.038-0.047,0.038     c-0.019,0.015-0.019,0.011-0.035,0.029l-0.173,0.202c-0.016,0.019-0.011,0.016-0.023,0.038l-0.001,0.003     c0.002-0.004-0.042,0.076-0.042,0.076c-0.002,0.005-0.018,0.041-0.018,0.041c-0.001,0.004-0.032,0.085-0.032,0.085l-0.013,0.041     c-0.002,0.008-0.021,0.088-0.021,0.088s-0.009,0.05-0.009,0.05l-0.008,0.1c0-0.009-0.002,0.029-0.002,0.029l0,22.793     c0,0.444,0.283,0.837,0.705,0.978l9.763,3.255c0.321,0.106,0.674,0.05,0.944-0.153l13.018-9.764     c0.258-0.193,0.412-0.502,0.412-0.824V4.218c0-0.008-0.002-0.035-0.003-0.046c0-0.01-0.005-0.066-0.005-0.067     c0,0-0.01-0.065-0.01-0.069c-0.001-0.001-0.006-0.037-0.006-0.037c-0.003-0.016-0.004-0.015-0.009-0.031     c0,0-0.022-0.078-0.023-0.078l-0.021-0.058c-0.003-0.007-0.033-0.073-0.033-0.073C36.404,3.757,36.374,3.7,36.374,3.7     c-0.004-0.007-0.043-0.067-0.043-0.067s-0.039-0.054-0.04-0.054l-0.039-0.047c-0.005-0.006-0.012-0.012-0.017-0.018l-0.038-0.04     c-0.004-0.003-0.05-0.043-0.05-0.043C36.134,3.42,36.09,3.385,36.09,3.385c-0.006-0.004-0.059-0.039-0.059-0.039     c-0.009-0.005-0.072-0.042-0.072-0.042c-0.01-0.005-0.065-0.03-0.065-0.03c-0.011-0.004-0.067-0.027-0.067-0.027     c0.001,0-0.075-0.023-0.075-0.023c0.003,0.001-0.052-0.014-0.052-0.014l-9.671-2.079C25.757,1.073,25.479,1.125,25.247,1.276z      M11.726,10.405 M11.692,10.534"
       id="path1242" />
    <path
       style="opacity:0.2;"
       d="M36.138,4.195c0-0.015-0.001-0.031-0.003-0.045c-0.002-0.017-0.004-0.033-0.007-0.049     c-0.002-0.008-0.002-0.016-0.004-0.023c-0.001-0.006-0.004-0.013-0.006-0.019c-0.004-0.016-0.009-0.032-0.014-0.048     C36.1,3.997,36.095,3.983,36.09,3.97c-0.006-0.015-0.013-0.029-0.021-0.043c-0.007-0.013-0.013-0.026-0.021-0.039     c-0.008-0.013-0.017-0.026-0.025-0.039c-0.008-0.012-0.017-0.024-0.025-0.036c-0.01-0.012-0.021-0.024-0.031-0.035     c-0.01-0.011-0.02-0.022-0.03-0.032c-0.011-0.011-0.023-0.021-0.035-0.03s-0.023-0.02-0.035-0.028     c-0.013-0.009-0.025-0.017-0.038-0.025c-0.014-0.008-0.026-0.017-0.041-0.023c-0.003-0.002-0.006-0.004-0.01-0.006     c-0.011-0.005-0.021-0.009-0.032-0.013c-0.015-0.006-0.028-0.013-0.043-0.018c-0.016-0.006-0.032-0.01-0.05-0.015     c-0.01-0.003-0.02-0.007-0.03-0.009l-9.673-2.079c-0.172-0.037-0.35-0.003-0.497,0.092l-13.108,8.588     c-0.003,0.002-0.006,0.005-0.009,0.007c-0.005,0.003-0.01,0.006-0.015,0.009c-0.012,0.008-0.023,0.019-0.035,0.028     c-0.006,0.005-0.014,0.011-0.02,0.016c-0.042,0.039-0.08,0.082-0.111,0.129c-0.005,0.007-0.009,0.016-0.013,0.023     c-0.01,0.017-0.02,0.034-0.028,0.051c-0.004,0.01-0.009,0.02-0.013,0.029c-0.007,0.017-0.014,0.033-0.019,0.05     c-0.003,0.01-0.007,0.021-0.01,0.031c-0.005,0.018-0.008,0.035-0.012,0.053c-0.002,0.01-0.004,0.021-0.006,0.031     c-0.003,0.02-0.004,0.041-0.005,0.061c0,0.008-0.001,0.016-0.001,0.024c0,0.002,0,0.003,0,0.005v22.78     c0,0.282,0.181,0.533,0.448,0.622l9.763,3.254c0.204,0.068,0.428,0.032,0.6-0.097l13.019-9.764     c0.164-0.124,0.262-0.318,0.262-0.524V4.218C36.14,4.21,36.139,4.203,36.138,4.195z"
       id="path1243" />
    <path
       style="opacity:0.2;"
       d="M25.06,1.089L11.951,9.677c-0.004,0.004-0.042,0.028-0.042,0.028c0.008-0.005-0.047,0.038-0.047,0.038     c-0.019,0.015-0.019,0.011-0.035,0.029l-0.173,0.202c-0.016,0.019-0.011,0.016-0.023,0.038l-0.001,0.003     c0.002-0.004-0.042,0.076-0.042,0.076c-0.002,0.005-0.018,0.041-0.018,0.041c-0.001,0.004-0.032,0.085-0.032,0.085l-0.013,0.041     c-0.002,0.008-0.021,0.088-0.021,0.088s-0.009,0.05-0.009,0.05l-0.008,0.1c0-0.009-0.002,0.029-0.002,0.029l0,22.793     c0,0.444,0.283,0.837,0.705,0.978l9.763,3.255c0.321,0.106,0.674,0.05,0.944-0.153l13.018-9.764     c0.258-0.193,0.412-0.502,0.412-0.824V4.03c0-0.008-0.002-0.035-0.003-0.046c0-0.01-0.005-0.066-0.005-0.067     c0,0-0.01-0.065-0.01-0.069c-0.001-0.001-0.006-0.037-0.006-0.037C36.301,3.795,36.3,3.796,36.295,3.78     c0,0-0.022-0.078-0.023-0.078l-0.021-0.058c-0.003-0.007-0.033-0.073-0.033-0.073c-0.001-0.002-0.031-0.059-0.031-0.059     c-0.004-0.007-0.043-0.067-0.043-0.067s-0.039-0.054-0.04-0.054l-0.039-0.047c-0.005-0.006-0.012-0.012-0.017-0.018l-0.038-0.04     c-0.004-0.003-0.05-0.043-0.05-0.043c-0.014-0.011-0.058-0.046-0.058-0.046c-0.006-0.004-0.059-0.039-0.059-0.039     c-0.009-0.005-0.072-0.042-0.072-0.042c-0.01-0.005-0.065-0.03-0.065-0.03c-0.011-0.004-0.067-0.027-0.067-0.027     c0.001,0-0.075-0.023-0.075-0.023c0.003,0.001-0.052-0.014-0.052-0.014l-9.671-2.079C25.569,0.886,25.292,0.937,25.06,1.089z      M11.538,10.217 M11.505,10.347"
       id="path1244" />
    <path
       style="opacity:0.2;"
       d="M35.95,4.007c0-0.015-0.001-0.031-0.003-0.045c-0.002-0.017-0.004-0.033-0.007-0.049     c-0.002-0.008-0.002-0.016-0.004-0.023c-0.001-0.006-0.004-0.013-0.006-0.019c-0.004-0.016-0.009-0.032-0.014-0.048     c-0.005-0.014-0.01-0.027-0.015-0.041c-0.006-0.015-0.013-0.029-0.021-0.043c-0.007-0.013-0.013-0.026-0.021-0.039     c-0.008-0.013-0.017-0.026-0.025-0.039c-0.008-0.012-0.017-0.024-0.025-0.036c-0.01-0.012-0.021-0.024-0.031-0.035     c-0.01-0.011-0.02-0.022-0.03-0.032c-0.011-0.011-0.023-0.021-0.035-0.03s-0.023-0.02-0.035-0.028     c-0.013-0.009-0.025-0.017-0.038-0.025C35.627,3.465,35.614,3.457,35.6,3.45c-0.003-0.002-0.006-0.004-0.01-0.006     c-0.011-0.005-0.021-0.009-0.032-0.013c-0.015-0.006-0.028-0.013-0.043-0.018c-0.016-0.006-0.032-0.01-0.05-0.015     c-0.01-0.003-0.02-0.007-0.03-0.009l-9.673-2.079c-0.172-0.037-0.35-0.003-0.497,0.092L12.157,9.991     c-0.003,0.002-0.006,0.005-0.009,0.007c-0.005,0.003-0.01,0.006-0.015,0.009c-0.012,0.008-0.023,0.019-0.035,0.028     c-0.006,0.005-0.014,0.011-0.02,0.016c-0.042,0.039-0.08,0.082-0.111,0.129c-0.005,0.007-0.009,0.016-0.013,0.023     c-0.01,0.017-0.02,0.034-0.028,0.051c-0.004,0.01-0.009,0.02-0.013,0.029c-0.007,0.017-0.014,0.033-0.019,0.05     c-0.003,0.01-0.007,0.021-0.01,0.031c-0.005,0.018-0.008,0.035-0.012,0.053c-0.002,0.01-0.004,0.021-0.006,0.031     c-0.003,0.02-0.004,0.041-0.005,0.061c0,0.008-0.001,0.016-0.001,0.024c0,0.002,0,0.003,0,0.005v22.78     c0,0.282,0.181,0.533,0.448,0.622l9.763,3.254c0.204,0.068,0.428,0.032,0.6-0.097l13.019-9.764     c0.164-0.124,0.262-0.318,0.262-0.524V4.03C35.952,4.022,35.951,4.015,35.95,4.007z"
       id="path1245" />
    <linearGradient
       id="XMLID_25_"
       gradientUnits="userSpaceOnUse"
       x1="32.2734"
       y1="26.916"
       x2="14.0291"
       y2="8.6717">
      <stop
         offset="0"
         style="stop-color:#585868"
         id="stop1247" />
      <stop
         offset="1"
         style="stop-color:#494949"
         id="stop1248" />
      <a:midPointStop
         offset="0"
         style="stop-color:#585868"
         id="midPointStop1249" />
      <a:midPointStop
         offset="0.5"
         style="stop-color:#585868"
         id="midPointStop1250" />
      <a:midPointStop
         offset="1"
         style="stop-color:#494949"
         id="midPointStop1251" />
    </linearGradient>
    <path
       style="fill:url(#XMLID_25_);"
       d="M24.872,0.774L11.764,9.362c-0.004,0.004-0.042,0.029-0.042,0.029     c0.008-0.005-0.047,0.038-0.047,0.038c-0.019,0.015-0.019,0.011-0.035,0.029L11.467,9.66c-0.016,0.019-0.011,0.016-0.023,0.038     L11.442,9.7c0.002-0.003-0.042,0.076-0.042,0.076c-0.002,0.005-0.018,0.041-0.018,0.041c-0.001,0.004-0.032,0.085-0.032,0.086     l-0.013,0.041c-0.002,0.008-0.021,0.088-0.021,0.088s-0.009,0.05-0.009,0.05L11.3,10.182c0-0.009-0.002,0.029-0.002,0.029     l0,22.794c0,0.444,0.283,0.837,0.705,0.978l9.763,3.255c0.321,0.106,0.674,0.049,0.944-0.153l13.018-9.764     c0.258-0.194,0.412-0.502,0.412-0.824V3.715c0-0.007-0.002-0.035-0.003-0.046c0-0.01-0.005-0.066-0.005-0.067     c0,0-0.01-0.065-0.01-0.069c-0.001-0.001-0.006-0.037-0.006-0.037c-0.003-0.016-0.004-0.016-0.009-0.031     c0,0-0.022-0.078-0.023-0.078L36.063,3.33c-0.003-0.007-0.033-0.073-0.033-0.073c-0.001-0.001-0.031-0.059-0.031-0.059     c-0.004-0.006-0.043-0.067-0.043-0.067s-0.039-0.054-0.04-0.054L35.877,3.03c-0.005-0.006-0.012-0.013-0.017-0.018l-0.038-0.04     c-0.004-0.003-0.05-0.044-0.05-0.044c-0.014-0.011-0.058-0.046-0.058-0.046c-0.006-0.004-0.059-0.039-0.059-0.039     c-0.009-0.006-0.072-0.042-0.072-0.042c-0.01-0.005-0.065-0.03-0.065-0.03c-0.011-0.004-0.067-0.027-0.067-0.027     c0.001,0-0.075-0.022-0.075-0.022c0.003,0.001-0.052-0.014-0.052-0.014l-9.671-2.079C25.382,0.571,25.104,0.622,24.872,0.774z      M11.351,9.903 M11.317,10.032"
       id="path1252" />
    <linearGradient
       id="XMLID_26_"
       gradientUnits="userSpaceOnUse"
       x1="15.1655"
       y1="9.8076"
       x2="33.4075"
       y2="28.0496">
      <stop
         offset="0"
         style="stop-color:#7D7D99"
         id="stop1254" />
      <stop
         offset="1"
         style="stop-color:#494949"
         id="stop1255" />
      <a:midPointStop
         offset="0"
         style="stop-color:#7D7D99"
         id="midPointStop1256" />
      <a:midPointStop
         offset="0.5"
         style="stop-color:#7D7D99"
         id="midPointStop1257" />
      <a:midPointStop
         offset="1"
         style="stop-color:#494949"
         id="midPointStop1258" />
    </linearGradient>
    <path
       style="fill:url(#XMLID_26_);"
       d="M35.763,3.692c0-0.015-0.001-0.03-0.003-0.045c-0.002-0.016-0.004-0.033-0.007-0.048     c-0.002-0.008-0.002-0.016-0.004-0.023c-0.001-0.006-0.004-0.013-0.006-0.019c-0.004-0.016-0.009-0.032-0.014-0.048     c-0.005-0.014-0.01-0.027-0.015-0.041c-0.006-0.015-0.013-0.029-0.021-0.043c-0.007-0.013-0.013-0.026-0.021-0.039     c-0.008-0.013-0.017-0.026-0.025-0.039c-0.008-0.012-0.017-0.024-0.025-0.036c-0.01-0.012-0.021-0.023-0.031-0.035     c-0.01-0.011-0.02-0.021-0.03-0.032c-0.011-0.01-0.023-0.02-0.035-0.03c-0.012-0.009-0.023-0.019-0.035-0.028     c-0.013-0.009-0.025-0.016-0.038-0.024c-0.014-0.008-0.026-0.017-0.041-0.024c-0.003-0.002-0.006-0.004-0.01-0.006     c-0.011-0.005-0.021-0.009-0.032-0.014c-0.015-0.006-0.028-0.012-0.043-0.018c-0.016-0.005-0.032-0.01-0.05-0.015     c-0.01-0.002-0.02-0.006-0.03-0.009l-9.673-2.079c-0.172-0.037-0.35-0.003-0.497,0.093L11.969,9.676     c-0.003,0.002-0.006,0.005-0.009,0.007c-0.005,0.003-0.01,0.006-0.015,0.009c-0.012,0.009-0.023,0.019-0.035,0.028     c-0.006,0.005-0.014,0.01-0.02,0.016c-0.042,0.039-0.08,0.082-0.111,0.129c-0.005,0.008-0.009,0.016-0.013,0.023     c-0.01,0.017-0.02,0.033-0.028,0.051c-0.004,0.009-0.009,0.019-0.013,0.029c-0.007,0.017-0.014,0.033-0.019,0.05     c-0.003,0.01-0.007,0.021-0.01,0.031c-0.005,0.017-0.008,0.035-0.012,0.053c-0.002,0.01-0.004,0.021-0.006,0.031     c-0.003,0.021-0.004,0.041-0.005,0.062c0,0.008-0.001,0.016-0.001,0.024c0,0.001,0,0.003,0,0.004v22.781     c0,0.282,0.181,0.532,0.448,0.622l9.763,3.254c0.204,0.068,0.428,0.031,0.6-0.098l13.019-9.763     c0.164-0.124,0.262-0.318,0.262-0.524V3.715C35.765,3.708,35.764,3.7,35.763,3.692z"
       id="path1259" />
    <radialGradient
       id="XMLID_27_"
       cx="105.2031"
       cy="47.2754"
       r="139.0876"
       fx="105.2031"
       fy="47.2754"
       gradientTransform="matrix(0.1875 0 0 0.1875 19.5 19.5)"
       gradientUnits="userSpaceOnUse">
      <stop
         offset="0"
         style="stop-color:#FFFFFF"
         id="stop1261" />
      <stop
         offset="0.2809"
         style="stop-color:#CECEDB"
         id="stop1262" />
      <stop
         offset="0.6404"
         style="stop-color:#BDBDCF"
         id="stop1263" />
      <stop
         offset="1"
         style="stop-color:#9A9AB1"
         id="stop1264" />
      <a:midPointStop
         offset="0"
         style="stop-color:#FFFFFF"
         id="midPointStop1265" />
      <a:midPointStop
         offset="0.5"
         style="stop-color:#FFFFFF"
         id="midPointStop1266" />
      <a:midPointStop
         offset="0.2809"
         style="stop-color:#CECEDB"
         id="midPointStop1267" />
      <a:midPointStop
         offset="0.5"
         style="stop-color:#CECEDB"
         id="midPointStop1268" />
      <a:midPointStop
         offset="0.6404"
         style="stop-color:#BDBDCF"
         id="midPointStop1269" />
      <a:midPointStop
         offset="0.5"
         style="stop-color:#BDBDCF"
         id="midPointStop1270" />
      <a:midPointStop
         offset="1"
         style="stop-color:#9A9AB1"
         id="midPointStop1271" />
    </radialGradient>
    <polygon
       style="fill:url(#XMLID_27_);"
       points="12.329,10.224 22.091,13.479 35.109,3.715 35.109,26.496 22.091,36.26      12.329,33.005 "
       id="polygon1272" />
    <linearGradient
       id="XMLID_28_"
       gradientUnits="userSpaceOnUse"
       x1="23.7192"
       y1="13.2217"
       x2="23.7192"
       y2="3.3634">
      <stop
         offset="0"
         style="stop-color:#CECEDB"
         id="stop1274" />
      <stop
         offset="1"
         style="stop-color:#EEEEEE"
         id="stop1275" />
      <a:midPointStop
         offset="0"
         style="stop-color:#CECEDB"
         id="midPointStop1276" />
      <a:midPointStop
         offset="0.5"
         style="stop-color:#CECEDB"
         id="midPointStop1277" />
      <a:midPointStop
         offset="1"
         style="stop-color:#EEEEEE"
         id="midPointStop1278" />
    </linearGradient>
    <polygon
       style="fill:url(#XMLID_28_);"
       points="25.437,1.637 12.329,10.224 22.091,13.479 35.109,3.715 "
       id="polygon1279" />
    <linearGradient
       id="XMLID_29_"
       gradientUnits="userSpaceOnUse"
       x1="15.043"
       y1="16.6919"
       x2="22.1714"
       y2="38.2412">
      <stop
         offset="0"
         style="stop-color:#FFFFFF"
         id="stop1281" />
      <stop
         offset="1"
         style="stop-color:#CECEDB"
         id="stop1282" />
      <a:midPointStop
         offset="0"
         style="stop-color:#FFFFFF"
         id="midPointStop1283" />
      <a:midPointStop
         offset="0.5"
         style="stop-color:#FFFFFF"
         id="midPointStop1284" />
      <a:midPointStop
         offset="1"
         style="stop-color:#CECEDB"
         id="midPointStop1285" />
    </linearGradient>
    <polygon
       style="fill:url(#XMLID_29_);"
       points="12.329,33.005 22.091,36.26 22.091,13.479 12.329,10.224 "
       id="polygon1286" />
    <linearGradient
       id="XMLID_30_"
       gradientUnits="userSpaceOnUse"
       x1="16.6357"
       y1="35.1963"
       x2="17.7829"
       y2="28.4773">
      <stop
         offset="0"
         style="stop-color:#FFFFFF"
         id="stop1288" />
      <stop
         offset="1"
         style="stop-color:#BDBDCF"
         id="stop1289" />
      <a:midPointStop
         offset="0"
         style="stop-color:#FFFFFF"
         id="midPointStop1290" />
      <a:midPointStop
         offset="0.5"
         style="stop-color:#FFFFFF"
         id="midPointStop1291" />
      <a:midPointStop
         offset="1"
         style="stop-color:#BDBDCF"
         id="midPointStop1292" />
    </linearGradient>
    <polygon
       style="fill:url(#XMLID_30_);"
       points="12.329,27.4 12.329,33.005 22.091,36.26 22.091,30.504 "
       id="polygon1293" />
    <linearGradient
       id="XMLID_31_"
       gradientUnits="userSpaceOnUse"
       x1="13.8062"
       y1="16.3555"
       x2="20.0928"
       y2="16.3555">
      <stop
         offset="0"
         style="stop-color:#7D7D99"
         id="stop1295" />
      <stop
         offset="1"
         style="stop-color:#CECEDB"
         id="stop1296" />
      <a:midPointStop
         offset="0"
         style="stop-color:#7D7D99"
         id="midPointStop1297" />
      <a:midPointStop
         offset="0.5"
         style="stop-color:#7D7D99"
         id="midPointStop1298" />
      <a:midPointStop
         offset="1"
         style="stop-color:#CECEDB"
         id="midPointStop1299" />
    </linearGradient>
    <polygon
       style="fill:url(#XMLID_31_);"
       points="13.806,16.165 20.093,18.261 20.093,16.546 13.806,14.451 "
       id="polygon1300" />
    <linearGradient
       id="XMLID_32_"
       gradientUnits="userSpaceOnUse"
       x1="13.8062"
       y1="18.7842"
       x2="20.0928"
       y2="18.7842">
      <stop
         offset="0"
         style="stop-color:#7D7D99"
         id="stop1302" />
      <stop
         offset="1"
         style="stop-color:#CECEDB"
         id="stop1303" />
      <a:midPointStop
         offset="0"
         style="stop-color:#7D7D99"
         id="midPointStop1304" />
      <a:midPointStop
         offset="0.5"
         style="stop-color:#7D7D99"
         id="midPointStop1305" />
      <a:midPointStop
         offset="1"
         style="stop-color:#CECEDB"
         id="midPointStop1306" />
    </linearGradient>
    <polygon
       style="fill:url(#XMLID_32_);"
       points="13.806,18.594 20.093,20.689 20.093,18.975 13.806,16.879 "
       id="polygon1307" />
    <linearGradient
       id="XMLID_33_"
       gradientUnits="userSpaceOnUse"
       x1="14.6323"
       y1="18.8965"
       x2="18.6686"
       y2="22.9328">
      <stop
         offset="0"
         style="stop-color:#7D7D99"
         id="stop1309" />
      <stop
         offset="1"
         style="stop-color:#CECEDB"
         id="stop1310" />
      <a:midPointStop
         offset="0"
         style="stop-color:#7D7D99"
         id="midPointStop1311" />
      <a:midPointStop
         offset="0.5"
         style="stop-color:#7D7D99"
         id="midPointStop1312" />
      <a:midPointStop
         offset="1"
         style="stop-color:#CECEDB"
         id="midPointStop1313" />
    </linearGradient>
    <polygon
       style="fill:url(#XMLID_33_);"
       points="13.806,21.023 20.093,23.118 20.093,21.404 13.806,19.308 "
       id="polygon1314" />
    <g
       id="g1315">
      <linearGradient
         id="XMLID_34_"
         gradientUnits="userSpaceOnUse"
         x1="271.3184"
         y1="478.916"
         x2="271.3184"
         y2="477.5929"
         gradientTransform="matrix(0.9659 0.2588 0 1.0353 -242.0508 -531.0422)">
        <stop
           offset="0.0056"
           style="stop-color:#FFFFFF"
           id="stop1317" />
        <stop
           offset="1"
           style="stop-color:#B6B6B6"
           id="stop1318" />
        <a:midPointStop
           offset="0.0056"
           style="stop-color:#FFFFFF"
           id="midPointStop1319" />
        <a:midPointStop
           offset="0.5"
           style="stop-color:#FFFFFF"
           id="midPointStop1320" />
        <a:midPointStop
           offset="1"
           style="stop-color:#B6B6B6"
           id="midPointStop1321" />
      </linearGradient>
      <path
         style="fill:url(#XMLID_34_);"
         d="M19.776,33.411c-0.453-0.121-0.808,0.097-0.808,0.497s0.355,0.809,0.808,0.93l0.48,0.129      c0.454,0.122,0.809-0.097,0.809-0.497c0-0.399-0.355-0.809-0.809-0.93L19.776,33.411z"
         id="path1322" />
      <linearGradient
         id="XMLID_35_"
         gradientUnits="userSpaceOnUse"
         x1="271.3184"
         y1="478.8555"
         x2="271.3184"
         y2="477.7158"
         gradientTransform="matrix(0.9659 0.2588 0 1.0353 -242.0508 -531.0422)">
        <stop
           offset="0.0056"
           style="stop-color:#B6B6B6"
           id="stop1324" />
        <stop
           offset="0.3669"
           style="stop-color:#9D9D9D"
           id="stop1325" />
        <stop
           offset="0.7432"
           style="stop-color:#898989"
           id="stop1326" />
        <stop
           offset="1"
           style="stop-color:#828282"
           id="stop1327" />
        <a:midPointStop
           offset="0.0056"
           style="stop-color:#B6B6B6"
           id="midPointStop1328" />
        <a:midPointStop
           offset="0.3761"
           style="stop-color:#B6B6B6"
           id="midPointStop1329" />
        <a:midPointStop
           offset="1"
           style="stop-color:#828282"
           id="midPointStop1330" />
      </linearGradient>
      <path
         style="fill:url(#XMLID_35_);"
         d="M19.776,33.603c-0.347-0.094-0.63,0.065-0.63,0.354s0.283,0.599,0.63,0.691l0.48,0.129      c0.348,0.093,0.63-0.066,0.63-0.354s-0.282-0.598-0.63-0.69L19.776,33.603z"
         id="path1331" />
      <linearGradient
         id="XMLID_36_"
         gradientUnits="userSpaceOnUse"
         x1="-890.7432"
         y1="529.2617"
         x2="-890.7432"
         y2="528.0791"
         gradientTransform="matrix(-0.9659 -0.2588 0 0.7765 -840.3521 -606.8475)">
        <stop
           offset="0.0056"
           style="stop-color:#99FF66"
           id="stop1333" />
        <stop
           offset="0.2358"
           style="stop-color:#68DE56"
           id="stop1334" />
        <stop
           offset="0.4783"
           style="stop-color:#3BC147"
           id="stop1335" />
        <stop
           offset="0.6954"
           style="stop-color:#1BAB3C"
           id="stop1336" />
        <stop
           offset="0.8767"
           style="stop-color:#079E35"
           id="stop1337" />
        <stop
           offset="1"
           style="stop-color:#009933"
           id="stop1338" />
        <a:midPointStop
           offset="0.0056"
           style="stop-color:#99FF66"
           id="midPointStop1339" />
        <a:midPointStop
           offset="0.3761"
           style="stop-color:#99FF66"
           id="midPointStop1340" />
        <a:midPointStop
           offset="1"
           style="stop-color:#009933"
           id="midPointStop1341" />
      </linearGradient>
      <path
         style="fill:url(#XMLID_36_);"
         d="M20.828,34.406c0,0.254-0.256,0.391-0.571,0.306l-0.48-0.128      c-0.315-0.085-0.57-0.358-0.57-0.612l0,0c0-0.253,0.255-0.39,0.57-0.306l0.48,0.129C20.572,33.88,20.828,34.153,20.828,34.406      L20.828,34.406z"
         id="path1342" />
      <linearGradient
         id="XMLID_37_"
         gradientUnits="userSpaceOnUse"
         x1="271.3066"
         y1="478.5166"
         x2="271.3389"
         y2="477.6465"
         gradientTransform="matrix(0.9659 0.2588 0 1.0353 -242.0508 -531.0422)">
        <stop
           offset="0.0056"
           style="stop-color:#33CC33"
           id="stop1344" />
        <stop
           offset="0.3585"
           style="stop-color:#1BB433"
           id="stop1345" />
        <stop
           offset="0.7397"
           style="stop-color:#07A033"
           id="stop1346" />
        <stop
           offset="1"
           style="stop-color:#009933"
           id="stop1347" />
        <a:midPointStop
           offset="0.0056"
           style="stop-color:#33CC33"
           id="midPointStop1348" />
        <a:midPointStop
           offset="0.3761"
           style="stop-color:#33CC33"
           id="midPointStop1349" />
        <a:midPointStop
           offset="1"
           style="stop-color:#009933"
           id="midPointStop1350" />
      </linearGradient>
      <path
         style="fill:url(#XMLID_37_);"
         d="M19.776,33.794c-0.245-0.065-0.451,0.038-0.451,0.226c0,0.188,0.207,0.402,0.451,0.469      l0.48,0.129c0.245,0.065,0.452-0.038,0.452-0.227s-0.207-0.402-0.452-0.468L19.776,33.794z"
         id="path1351" />
      <linearGradient
         id="XMLID_38_"
         gradientUnits="userSpaceOnUse"
         x1="271.3193"
         y1="477.7773"
         x2="271.3193"
         y2="478.3468"
         gradientTransform="matrix(0.9659 0.2588 0 1.0353 -242.0508 -531.0422)">
        <stop
           offset="0"
           style="stop-color:#FFFFFF"
           id="stop1353" />
        <stop
           offset="0.0907"
           style="stop-color:#E8F7D6"
           id="stop1354" />
        <stop
           offset="0.2274"
           style="stop-color:#C8ED9E"
           id="stop1355" />
        <stop
           offset="0.3649"
           style="stop-color:#ADE46D"
           id="stop1356" />
        <stop
           offset="0.5002"
           style="stop-color:#97DC46"
           id="stop1357" />
        <stop
           offset="0.6328"
           style="stop-color:#85D627"
           id="stop1358" />
        <stop
           offset="0.7621"
           style="stop-color:#79D212"
           id="stop1359" />
        <stop
           offset="0.8863"
           style="stop-color:#72D004"
           id="stop1360" />
        <stop
           offset="1"
           style="stop-color:#6FCF00"
           id="stop1361" />
        <a:midPointStop
           offset="0"
           style="stop-color:#FFFFFF"
           id="midPointStop1362" />
        <a:midPointStop
           offset="0.3107"
           style="stop-color:#FFFFFF"
           id="midPointStop1363" />
        <a:midPointStop
           offset="1"
           style="stop-color:#6FCF00"
           id="midPointStop1364" />
      </linearGradient>
      <path
         style="fill:url(#XMLID_38_);"
         d="M19.758,33.713c-0.202-0.054-0.358,0.037-0.358,0.151s0.156,0.289,0.358,0.343      l0.518,0.139c0.205,0.056,0.358-0.034,0.358-0.15s-0.153-0.288-0.358-0.343L19.758,33.713z"
         id="path1365" />
    </g>
    <polyline
       id="_x3C_Slice_x3E_"
       style="fill:none;"
       points="0,48 0,0 48,0 48,48 " />
  </g>
</svg>
