<?xml version="1.0" encoding="UTF-8" standalone="no"?>
<!DOCTYPE svg PUBLIC "-//W3C//DTD SVG 20010904//EN"
"http://www.w3.org/TR/2001/REC-SVG-20010904/DTD/svg10.dtd">
<!-- Created with Sodipodi ("http://www.sodipodi.com/") -->
<svg
   width="48pt"
   height="48pt"
   viewBox="-0.383 -0.148 126 126"
   overflow="visible"
   enable-background="new -0.383 -0.148 126 126"
   xml:space="preserve"
   xmlns="http://www.w3.org/2000/svg"
   xmlns:xml="http://www.w3.org/XML/1998/namespace"
   xmlns:a="http://ns.adobe.com/AdobeSVGViewerExtensions/3.0/"
   xmlns:sodipodi="http://sodipodi.sourceforge.net/DTD/sodipodi-0.dtd"
   xmlns:xlink="http://www.w3.org/1999/xlink"
   id="svg153"
   sodipodi:version="0.32pre"
   sodipodi:docname="/home/cschalle/gnome-themes-extras/Wasp/icons/scalable/apps/network.svg"
   sodipodi:docbase="/home/cschalle/gnome-themes-extras/Wasp/icons/scalable/apps">
  <defs
     id="defs242">
    <linearGradient
       id="linearGradient774">
      <stop
         offset="0.000000"
         style="stop-color:#b8b8b8;stop-opacity:1;"
         id="stop778" />
      <stop
         offset="0.337100"
         style="stop-color:#e6e6e6;stop-opacity:1;"
         id="stop777" />
      <stop
         offset="0.601100"
         style="stop-color:#a3a3a3;stop-opacity:1;"
         id="stop776" />
      <stop
         offset="0.870800"
         style="stop-color:#d1d1d1;stop-opacity:1;"
         id="stop775" />
    </linearGradient>
    <linearGradient
       id="linearGradient742">
      <stop
         offset="0.000000"
         style="stop-color:#e6e6e6;stop-opacity:1;"
         id="stop744" />
      <stop
         offset="1.000000"
         style="stop-color:#525252;stop-opacity:1;"
         id="stop743" />
    </linearGradient>
    <linearGradient
       id="linearGradient686"
       gradientUnits="userSpaceOnUse"
       x1="115.6465"
       y1="94.3506"
       x2="103.7446"
       y2="110.7256">
      <stop
         offset="0"
         style="stop-color:#FFFFFF"
         id="stop290" />
      <stop
         offset="1"
         style="stop-color:#1A1A1A"
         id="stop291" />
      <a:midPointStop
         offset="0"
         style="stop-color:#FFFFFF"
         id="midPointStop292" />
      <a:midPointStop
         offset="0.5"
         style="stop-color:#FFFFFF"
         id="midPointStop293" />
      <a:midPointStop
         offset="1"
         style="stop-color:#1A1A1A"
         id="midPointStop294" />
    </linearGradient>
    <linearGradient
       id="linearGradient695"
       gradientUnits="userSpaceOnUse"
       x1="95.6875"
       y1="62.2891"
       x2="101.4884"
       y2="53.3668">
      <stop
         offset="0"
         style="stop-color:#E6E6E6"
         id="stop299" />
      <stop
         offset="0.2673"
         style="stop-color:#EAC8C8"
         id="stop300" />
      <stop
         offset="0.8478"
         style="stop-color:#F67A7A"
         id="stop301" />
      <stop
         offset="1"
         style="stop-color:#F96565"
         id="stop302" />
      <a:midPointStop
         offset="0"
         style="stop-color:#E6E6E6"
         id="midPointStop303" />
      <a:midPointStop
         offset="0.5306"
         style="stop-color:#E6E6E6"
         id="midPointStop304" />
      <a:midPointStop
         offset="1"
         style="stop-color:#F96565"
         id="midPointStop305" />
    </linearGradient>
    <linearGradient
       id="linearGradient704"
       gradientUnits="userSpaceOnUse"
       x1="59.2256"
       y1="106.5869"
       x2="69.8702"
       y2="85.7592">
      <stop
         offset="0"
         style="stop-color:#E6E6E6"
         id="stop308" />
      <stop
         offset="0.2673"
         style="stop-color:#EAC8C8"
         id="stop309" />
      <stop
         offset="0.8478"
         style="stop-color:#F67A7A"
         id="stop310" />
      <stop
         offset="1"
         style="stop-color:#F96565"
         id="stop311" />
      <a:midPointStop
         offset="0"
         style="stop-color:#E6E6E6"
         id="midPointStop312" />
      <a:midPointStop
         offset="0.5306"
         style="stop-color:#E6E6E6"
         id="midPointStop313" />
      <a:midPointStop
         offset="1"
         style="stop-color:#F96565"
         id="midPointStop314" />
    </linearGradient>
    <linearGradient
       xlink:href="#linearGradient704"
       id="linearGradient773"
       x1="86.9501"
       y1="98.3939"
       x2="64.7582"
       y2="86.7263"
       gradientUnits="userSpaceOnUse"
       spreadMethod="pad" />
    <linearGradient
       xlink:href="#linearGradient704"
       id="linearGradient779"
       x1="96.0612"
       y1="57.5762"
       x2="98.3434"
       y2="53.2654"
       gradientUnits="userSpaceOnUse"
       spreadMethod="pad" />
  </defs>
  <sodipodi:namedview
     id="base">
    <sodipodi:guide
       orientation="horizontal"
       position="131.52"
       id="guide492" />
    <sodipodi:guide
       orientation="horizontal"
       position="57.92"
       id="guide684" />
  </sodipodi:namedview>
  <g
     id="Layer_2_2_">
    <path
       d="M125.728,23.887v-9.512l-3.167-5.453l-1.119-0.7l0.085-1.775L118.504,0l-1.26,1.087l-11.963,0.216l-3.084,3.704    c0,0,0,1.635,0,2.151c-1.643,0.281-5.79,0.99-5.79,0.99s0,3.021,0,3.505c-1.103,0.409-4.165,1.546-4.165,1.546v4.441l0.812,2.169    l-3.005,0.514c0,0-3.765,1.773-4.081,2.054l-1.01,0.896v3.634c0,0,0.369,1.14,0.592,1.827c-1.458,0.249-8.885,1.518-8.885,1.518    l-2.211,2.658c0,0,0,1.578,0,2.065c-0.328,0.056-2.008,0.343-2.008,0.343l-1.937,2.325v3.317l1.987,6.278l-1.373,0.893    l-10.899,1.863c0,0-1.763,2.117-2.757,3.31c-3.261-1.367-6.864-0.849-8.675,1.326c0,0-0.201,0.241-0.461,0.554    c-3.681-0.982-7.847,0.048-10.071,2.719c0,0-0.956,1.147-1.811,2.174c-11.809-3.693-25.352-0.556-32.273,7.753    c-2.719,3.264-4.163,7.052-4.176,10.953c0,0,0.064-0.064,0.067-0.067C0.007,79.224,0,79.701,0,80.048l0,6.777    c0.12,7.283,4.985,13.812,13.024,17.511c0.507,0.232,1.097,0.411,1.641,0.622c0,1.394,0,2.86,0,2.861    c-0.012,0.223-0.022,0.445-0.022,0.667c0,5.729,3.828,11.007,10.175,13.926c7.92,3.645,17.933,2.677,24.504-1.991    c1.24,0.844,2.542,1.632,3.967,2.288c12.46,5.732,28.286,2.94,36.027-6.356c2.586-3.105,4.023-6.712,4.156-10.431l0.011-0.279    l-0.002-0.151l0.002-7.475c0.003-0.12,0.004-0.24,0.004-0.36c0-3.84-1.414-7.636-4.104-10.938    c-0.005-0.005-0.724-0.842-0.724-0.842c-0.049-0.053-0.791-0.827-0.791-0.827c-0.068-0.067-0.848-0.798-0.848-0.798l-0.086-0.078    c0,0-0.309-0.26-0.552-0.466c0-1.273,0-7.433,0-7.433l-0.058-0.181c-0.125-1.026-0.577-1.965-1.169-2.843c0-0.249,0-0.327,0-0.646    C86.479,71.016,125.728,23.887,125.728,23.887z M31.991,104.737c1.509-1.078,4.743-1.077,6.468,0.216    C36.949,106.031,33.931,106.462,31.991,104.737z"
       id="path155" />
    <linearGradient
       id="XMLID_1_"
       gradientUnits="userSpaceOnUse"
       x1="8.5776"
       y1="86.3999"
       x2="17.8818"
       y2="86.3999">
      <stop
         offset="0"
         style="stop-color:#E6E6E6"
         id="stop157" />
      <stop
         offset="1"
         style="stop-color:#525252"
         id="stop158" />
      <a:midPointStop
         offset="0"
         style="stop-color:#E6E6E6"
         id="midPointStop159" />
      <a:midPointStop
         offset="0.5"
         style="stop-color:#E6E6E6"
         id="midPointStop160" />
      <a:midPointStop
         offset="1"
         style="stop-color:#525252"
         id="midPointStop161" />
    </linearGradient>
    <path
       fill="url(#XMLID_1_)"
       d="M21.242,101.097l-0.135-5.399L6.482,69.905c-2.309,2.772-3.43,5.842-3.475,8.889H3v8.031h0.009    c0.089,5.807,4.083,11.479,11.269,14.785c1.098,0.505,2.232,0.927,3.387,1.284L21.242,101.097z"
       id="path162" />
    <linearGradient
       id="XMLID_2_"
       gradientUnits="userSpaceOnUse"
       x1="48.8188"
       y1="68.7988"
       x2="68.125"
       y2="68.7988">
      <stop
         offset="0"
         style="stop-color:#E6E6E6"
         id="stop164" />
      <stop
         offset="1"
         style="stop-color:#525252"
         id="stop165" />
      <a:midPointStop
         offset="0"
         style="stop-color:#E6E6E6"
         id="midPointStop166" />
      <a:midPointStop
         offset="0.5"
         style="stop-color:#E6E6E6"
         id="midPointStop167" />
      <a:midPointStop
         offset="1"
         style="stop-color:#525252"
         id="midPointStop168" />
    </linearGradient>
    <path
       fill="url(#XMLID_2_)"
       d="M49.296,116.714c1.492,1.24,3.243,2.348,5.246,3.27c11.118,5.115,25.654,2.631,32.467-5.551    c2.24-2.689,3.358-5.659,3.464-8.617h0.009v-0.173c0.001-0.061-0.001-0.121,0-0.182v-7.676h-0.01    c0.024-4.677-2.479-9.288-7.158-12.672c-0.069,0.349-0.013-0.009,0,0c0.012-0.06,0.022-0.136,0.031-0.215    c0.023-0.197,0.036-0.41,0.036-0.41v-8.03h-0.036c-0.101-0.814-0.51-1.603-1.19-2.267v-3.583l0.01,0.901l40.563-48.707v-7.629    L79.725,66.81l0.104,0.047c-1.327,0.812-1.013,2.302-1.013,2.302l0.988,15.33c0,0-29.081,25.784-30.508,24.597V116.714z"
       id="path169" />
    <linearGradient
       id="XMLID_3_"
       gradientUnits="userSpaceOnUse"
       x1="19.9604"
       y1="106.5605"
       x2="37.8711"
       y2="114.4688">
      <stop
         offset="0"
         style="stop-color:#E6E6E6"
         id="stop171" />
      <stop
         offset="1"
         style="stop-color:#525252"
         id="stop172" />
      <a:midPointStop
         offset="0"
         style="stop-color:#E6E6E6"
         id="midPointStop173" />
      <a:midPointStop
         offset="0.5"
         style="stop-color:#E6E6E6"
         id="midPointStop174" />
      <a:midPointStop
         offset="1"
         style="stop-color:#525252"
         id="midPointStop175" />
    </linearGradient>
    <path
       fill="url(#XMLID_3_)"
       d="M49.296,109.085c-18.317,13.074-28.054-8.143-28.054-8.143l-3.577-0.021v6.898    c-0.311,4.621,2.694,9.239,8.406,11.866c7.771,3.576,17.767,2.199,23.226-2.973V109.085z"
       id="path176" />
    <linearGradient
       id="XMLID_4_"
       gradientUnits="userSpaceOnUse"
       x1="42.5381"
       y1="99.665"
       x2="34.1646"
       y2="99.665">
      <stop
         offset="0"
         style="stop-color:#E6E6E6"
         id="stop178" />
      <stop
         offset="1"
         style="stop-color:#525252"
         id="stop179" />
      <a:midPointStop
         offset="0"
         style="stop-color:#E6E6E6"
         id="midPointStop180" />
      <a:midPointStop
         offset="0.5"
         style="stop-color:#E6E6E6"
         id="midPointStop181" />
      <a:midPointStop
         offset="1"
         style="stop-color:#525252"
         id="midPointStop182" />
    </linearGradient>
    <path
       fill="url(#XMLID_4_)"
       d="M39.949,102.946c1.058,0.486,1.929,1.111,2.603,1.82c0.108-0.112,0.22-0.223,0.319-0.343    c2.555-3.068,1.248-7.111-2.922-9.03s-9.621-0.986-12.176,2.081c-1.907,2.29-1.66,5.122,0.32,7.209    C30.76,101.897,35.942,101.103,39.949,102.946z"
       id="path183" />
  </g>
  <g
     id="Layer_1_2_">
    <g
       id="g185">
      <path
         fill="#FFFFFF"
         d="M116.838,4.532l-11.641,1.561v1.811l0.912,3.44l-6.702-0.665v1.811l1.065,2.666l-5.23,0.13v1.811     c0,0,1.111,2.808,1.616,4.37c0.506,1.562-1.708,2.839-1.708,2.839s-3.254,0.557-4.596,0.786     c-0.604,0.104-2.596-0.469-2.596-0.469v1.811c0,0,0.23,0.711,0.966,2.982s-1.96,3.931-1.96,3.931l-9.51,0.648v1.811l1.076,3.328     l-5.021-0.404v1.811c0.354,1.236,1.3,4.446,2.288,7.002c1.25,3.232-3.744,5.284-3.744,5.284l5.73-2.233L116.838,4.532"
         id="path186" />
      <path
         fill="none"
         d="M30.696,106.504c-4.17-1.918-5.478-5.961-2.923-9.029c2.555-3.067,8.006-4,12.176-2.081     c4.169,1.919,5.477,5.962,2.922,9.03C40.316,107.491,34.866,108.424,30.696,106.504z"
         id="path187" />
      <linearGradient
         id="XMLID_5_"
         gradientUnits="userSpaceOnUse"
         x1="8.0576"
         y1="56.1729"
         x2="110.8604"
         y2="60.0566">
        <stop
           offset="0"
           style="stop-color:#E6E6E6"
           id="stop189" />
        <stop
           offset="0.3315"
           style="stop-color:#7A7A7A"
           id="stop190" />
        <stop
           offset="0.5281"
           style="stop-color:#999999"
           id="stop191" />
        <stop
           offset="0.7247"
           style="stop-color:#787878"
           id="stop192" />
        <stop
           offset="0.8989"
           style="stop-color:#A1A1A1"
           id="stop193" />
        <stop
           offset="0.9775"
           style="stop-color:#787878"
           id="stop194" />
        <a:midPointStop
           offset="0"
           style="stop-color:#E6E6E6"
           id="midPointStop195" />
        <a:midPointStop
           offset="0.5"
           style="stop-color:#E6E6E6"
           id="midPointStop196" />
        <a:midPointStop
           offset="0.3315"
           style="stop-color:#7A7A7A"
           id="midPointStop197" />
        <a:midPointStop
           offset="0.5"
           style="stop-color:#7A7A7A"
           id="midPointStop198" />
        <a:midPointStop
           offset="0.5281"
           style="stop-color:#999999"
           id="midPointStop199" />
        <a:midPointStop
           offset="0.5"
           style="stop-color:#999999"
           id="midPointStop200" />
        <a:midPointStop
           offset="0.7247"
           style="stop-color:#787878"
           id="midPointStop201" />
        <a:midPointStop
           offset="0.5"
           style="stop-color:#787878"
           id="midPointStop202" />
        <a:midPointStop
           offset="0.8989"
           style="stop-color:#A1A1A1"
           id="midPointStop203" />
        <a:midPointStop
           offset="0.5"
           style="stop-color:#A1A1A1"
           id="midPointStop204" />
        <a:midPointStop
           offset="0.9775"
           style="stop-color:#787878"
           id="midPointStop205" />
      </linearGradient>
      <path
         fill="url(#XMLID_5_)"
         d="M87.009,106.804c6.769-8.128,3.362-18.82-7.589-23.976l3.086-3.706     c1.704-2.045,0.831-4.739-1.949-6.019l-0.61-0.28l1.805-2.168c0.97-1.164,0.108-2.864-1.923-3.798l-0.104-0.048l43.003-51.636     l-2.386-4.167L79.027,60.615c0,0-3.243,3.737-4.332,3.236c-1.089-0.501,1.898-4.356,1.898-4.356l42.614-51.17l-2.019-4.771     L65.983,65.039l-10.398-4.785l2.741-3.291l-1.795-0.826c-2.031-0.935-4.463-0.75-5.433,0.414l-1.805,2.167l-0.611-0.282     c-2.78-1.278-6.414-0.658-8.117,1.387l-3.121,3.747c-10.894-4.246-24.453-1.636-30.963,6.181     c-6.813,8.181-3.323,18.959,7.795,24.075c1.566,0.722,3.201,1.284,4.871,1.71c-3.553,5.89-0.739,12.997,6.922,16.521     c7.771,3.577,17.766,2.199,23.226-2.973c1.492,1.24,3.243,2.348,5.246,3.27C65.66,117.469,80.196,114.984,87.009,106.804z      M42.872,104.424c-2.555,3.067-8.005,4-12.175,2.08c-4.17-1.918-5.478-5.961-2.923-9.029c2.555-3.067,8.006-4,12.176-2.081     C44.119,97.312,45.426,101.355,42.872,104.424z"
         id="path206" />
      <linearGradient
         id="XMLID_6_"
         gradientUnits="userSpaceOnUse"
         x1="55.585"
         y1="34.2959"
         x2="117.1895"
         y2="34.2959">
        <stop
           offset="0"
           style="stop-color:#B8B8B8"
           id="stop208" />
        <stop
           offset="0.3371"
           style="stop-color:#E6E6E6"
           id="stop209" />
        <stop
           offset="0.6011"
           style="stop-color:#B8B8B8"
           id="stop210" />
        <stop
           offset="0.8708"
           style="stop-color:#D1D1D1"
           id="stop211" />
        <a:midPointStop
           offset="0"
           style="stop-color:#B8B8B8"
           id="midPointStop212" />
        <a:midPointStop
           offset="0.5"
           style="stop-color:#B8B8B8"
           id="midPointStop213" />
        <a:midPointStop
           offset="0.3371"
           style="stop-color:#E6E6E6"
           id="midPointStop214" />
        <a:midPointStop
           offset="0.5"
           style="stop-color:#E6E6E6"
           id="midPointStop215" />
        <a:midPointStop
           offset="0.6011"
           style="stop-color:#B8B8B8"
           id="midPointStop216" />
        <a:midPointStop
           offset="0.5"
           style="stop-color:#B8B8B8"
           id="midPointStop217" />
        <a:midPointStop
           offset="0.8708"
           style="stop-color:#D1D1D1"
           id="midPointStop218" />
      </linearGradient>
      <path
         fill="url(#XMLID_6_)"
         d="M55.585,60.253l2.741-3.291l3.496-4.198l10.232-1.749c0,0,4.994-2.052,3.744-5.284     c-0.988-2.556-1.935-5.767-2.288-7.002l0.533-0.64l4.487-0.767l-1.076-3.328l0.809-0.972l8.701-1.487c0,0,2.695-1.659,1.96-3.931     s-0.966-2.982-0.966-2.982s1.256-1.113,2.596-1.342c1.342-0.229,4.596-0.786,4.596-0.786s2.214-1.277,1.708-2.839     c-0.505-1.562-1.616-4.37-1.616-4.37l5.23-1.941l-1.065-2.666l6.702-1.146l-0.912-3.44l1.647-1.979l9.979-0.089l0.365-0.472     L65.983,65.039L55.585,60.253z"
         id="path219" />
      <linearGradient
         id="XMLID_7_"
         gradientUnits="userSpaceOnUse"
         x1="74.695297"
         y1="36.087898"
         x2="120.341797"
         y2="36.087898"
         xlink:href="#linearGradient774">
        <a:midPointStop
           offset="0"
           style="stop-color:#B8B8B8"
           id="midPointStop225" />
        <a:midPointStop
           offset="0.5"
           style="stop-color:#B8B8B8"
           id="midPointStop226" />
        <a:midPointStop
           offset="0.3371"
           style="stop-color:#E6E6E6"
           id="midPointStop227" />
        <a:midPointStop
           offset="0.5"
           style="stop-color:#E6E6E6"
           id="midPointStop228" />
        <a:midPointStop
           offset="0.6011"
           style="stop-color:#A3A3A3"
           id="midPointStop229" />
        <a:midPointStop
           offset="0.5"
           style="stop-color:#A3A3A3"
           id="midPointStop230" />
        <a:midPointStop
           offset="0.8708"
           style="stop-color:#D1D1D1"
           id="midPointStop231" />
      </linearGradient>
      <path
         fill="url(#XMLID_7_)"
         d="M74.695,63.851c-1.089-0.501,1.898-4.356,1.898-4.356l42.614-51.17l0.135,1.969l0.999,0.712     L79.027,60.615C79.027,60.615,75.784,64.352,74.695,63.851z"
         id="path232" />
    </g>
    <path
       fill="#A1A1A1"
       d="M75.573,78.667L45.464,64.812l-5.628,6.757l30.109,13.854L75.573,78.667z"
       id="path233" />
    <linearGradient
       id="XMLID_8_"
       gradientUnits="userSpaceOnUse"
       x1="75.242203"
       y1="77.581100"
       x2="43.173302"
       y2="68.439003"
       xlink:href="#linearGradient742">
      <a:midPointStop
         offset="0"
         style="stop-color:#E6E6E6"
         id="midPointStop237" />
      <a:midPointStop
         offset="0.5"
         style="stop-color:#E6E6E6"
         id="midPointStop238" />
      <a:midPointStop
         offset="1"
         style="stop-color:#525252"
         id="midPointStop239" />
    </linearGradient>
    <path
       fill="url(#XMLID_8_)"
       d="M45.464,66.699L74.438,80.03l1.136-1.364L45.464,64.812l-5.628,6.757l1.136,0.523L45.464,66.699z"
       id="path240" />
  </g>
  <path
     opacity="0.3"
     fill="url(#XMLID_6_)"
     d="M80.998,118.606l41.659-7.677v-9.459l-37.155,8.128L80.998,118.606z"
     id="path295"
     style="font-size:12;opacity:0.3;fill:url(#XMLID_6_);" />
  <path
     d="M101.609,48.204c0,0-9.16,1.195-9.666,1.262c-0.23,0.479-17.826,36.758-17.826,36.758s-6.187-10.549-6.503-11.088    c-0.605,0.078-11.478,1.5-12.109,1.582c-0.147,0.637-3.234,13.967-3.319,14.334c0.197,0.336,16.659,28.395,16.989,28.959    c0.503-0.07,2.203-0.312,2.203-0.312c0.001,0,8.273-0.938,9.62-1.092c0.237-0.49,29.494-61.199,29.773-61.775    c-0.318-0.365-1.295-1.488-1.295-1.488c0.004,0.008-0.004-0.004-5.877-6.922c0,0-0.205-0.24-0.365-0.43    C102.838,48.044,101.609,48.204,101.609,48.204z"
     id="path296"
     style="font-size:12;" />
  <path
     fill="#890F05"
     d="M71.065,116.696l28.048-58.342l8.096-1.076L79.004,115.8L71.065,116.696z"
     id="path297"
     style="font-size:12;fill:#890f05;" />
  <path
     fill="url(#XMLID_7_)"
     d="M99.141,58.36l-5.195-6.115l8.053-1.051l5.195,6.117L99.141,58.36z"
     id="path306"
     style="font-size:12;fill:url(#linearGradient779);" />
  <path
     fill="url(#XMLID_8_)"
     d="M70.443,100.692L57.537,79.132l9.325-1.068l11.634,21.578L70.443,100.692z"
     id="path315"
     style="font-size:12;fill:url(#linearGradient773);"
     transform="translate(-1.49012e-08,1.90735e-06)" />
  <path
     fill="#DD1407"
     d="M99.141,58.36L70.794,116.81L54.551,90.442l2.981-11.301l12.911,21.57l23.502-48.467L99.141,58.36z"
     id="path316"
     style="font-size:12;fill:#dd1407;" />
</svg>
