<?xml version="1.0" encoding="UTF-8" standalone="no"?>
<!-- Created with Inkscape (http://www.inkscape.org/) -->
<svg
   xmlns:dc="http://purl.org/dc/elements/1.1/"
   xmlns:cc="http://web.resource.org/cc/"
   xmlns:rdf="http://www.w3.org/1999/02/22-rdf-syntax-ns#"
   xmlns:svg="http://www.w3.org/2000/svg"
   xmlns:xlink="http://www.w3.org/1999/xlink"
   xmlns:sodipodi="http://sodipodi.sourceforge.net/DTD/sodipodi-0.dtd"
   xmlns:inkscape="http://www.inkscape.org/namespaces/inkscape"
   version="1.0"
   width="40"
   height="40"
   viewBox="0 0 256 256"
   id="svg1"
   xml:space="preserve"
   sodipodi:version="0.32"
   inkscape:version="0.45.1"
   sodipodi:docname="History clear.svg"
   inkscape:output_extension="org.inkscape.output.svg.inkscape"
   sodipodi:docbase="C:\Documents and Settings\Adam Cuerden\Desktop\Wikistuff"><metadata
   id="metadata2392"><rdf:RDF><cc:Work
       rdf:about=""><dc:format>image/svg+xml</dc:format><dc:type
         rdf:resource="http://purl.org/dc/dcmitype/StillImage" /></cc:Work></rdf:RDF></metadata><sodipodi:namedview
   inkscape:window-height="573"
   inkscape:window-width="744"
   inkscape:pageshadow="2"
   inkscape:pageopacity="0.0"
   guidetolerance="10.0"
   gridtolerance="10.0"
   objecttolerance="10.0"
   borderopacity="1.0"
   bordercolor="#666666"
   pagecolor="#ffffff"
   id="base"
   showgrid="true"
   inkscape:zoom="9.425"
   inkscape:cx="20"
   inkscape:cy="20.731671"
   inkscape:window-x="88"
   inkscape:window-y="116"
   inkscape:current-layer="svg1" />
  <defs
   id="defs419"><linearGradient
     id="POUETID_6_"
     gradientUnits="userSpaceOnUse"
     x1="127.5972"
     y1="36.8535"
     x2="127.5972"
     y2="139.1456"><stop
       offset="0.0056"
       style="stop-color:#FFFFFF"
       id="stop573" /><stop
       offset="1"
       style="stop-color:#FF6666"
       id="stop9005" /></linearGradient><linearGradient
     id="POUETID_5_"
     gradientUnits="userSpaceOnUse"
     x1="32.4849"
     y1="127.5029"
     x2="222.7139"
     y2="127.5029"><stop
       offset="0.0056"
       style="stop-color:#FF6D00"
       id="stop563" /><stop
       offset="0.5"
       style="stop-color:#CF0000"
       id="stop564" /><stop
       offset="1"
       style="stop-color:#FF6666"
       id="stop565" /></linearGradient><linearGradient
     id="POUETID_4_"
     gradientUnits="userSpaceOnUse"
     x1="20.0864"
     y1="127.5"
     x2="235.1136"
     y2="127.5"><stop
       offset="0.0056"
       style="stop-color:#AA0000"
       id="stop556" /><stop
       offset="1"
       style="stop-color:#663333"
       id="stop557" /></linearGradient><linearGradient
     id="linearGradient5024"><stop
       style="stop-color:#ffffff;stop-opacity:1"
       offset="0"
       id="stop5026" /><stop
       style="stop-color:#ffffff;stop-opacity:0"
       offset="1"
       id="stop5028" /></linearGradient><linearGradient
     x1="466.6875"
     y1="664.79169"
     x2="466.6875"
     y2="709.06689"
     id="linearGradient5153"
     xlink:href="#linearGradient5024"
     gradientUnits="userSpaceOnUse"
     gradientTransform="matrix(3.7565752,0,0,3.7565752,-1281.1474,-1839.9864)" /><linearGradient
     id="linearGradient5032"><stop
       style="stop-color:#ce1212;stop-opacity:1"
       offset="0"
       id="stop5034" /><stop
       style="stop-color:#ff1212;stop-opacity:1"
       offset="1"
       id="stop5036" /></linearGradient><linearGradient
     x1="-6.6274176"
     y1="48.000011"
     x2="15.999988"
     y2="-6.6274176"
     id="linearGradient5125"
     xlink:href="#linearGradient5032"
     gradientUnits="userSpaceOnUse" /><filter
     id="filter5068"><feGaussianBlur
       id="feGaussianBlur5070"
       stdDeviation="0.16424528"
       inkscape:collect="always" /></filter></defs>
  
  <g
   id="Layer_1">
    <g
   id="g116">
      <linearGradient
   x1="128.00049"
   y1="244.42773"
   x2="128.00047"
   y2="11.573135"
   id="XMLID_11_"
   gradientUnits="userSpaceOnUse">
        <stop
   id="stop120"
   style="stop-color:#0035ed;stop-opacity:1"
   offset="0.005615" />
        <stop
   id="stop122"
   style="stop-color:#00008d;stop-opacity:1"
   offset="0.54494399" />
        <stop
   id="stop124"
   style="stop-color:#0053bd;stop-opacity:1"
   offset="1" />
        <midPointStop
   id="midPointStop126"
   style="stop-color:#0035ED"
   offset="0.005615" />
        <midPointStop
   id="midPointStop128"
   style="stop-color:#0035ED"
   offset="0.5" />
        <midPointStop
   id="midPointStop130"
   style="stop-color:#00008D"
   offset="0.544944" />
        <midPointStop
   id="midPointStop132"
   style="stop-color:#00008D"
   offset="0.5" />
        <midPointStop
   id="midPointStop134"
   style="stop-color:#0053BD"
   offset="1" />
      </linearGradient>
      <path
   d="M 4.9804688,128 C 4.9804688,195.83203 60.167969,251.02148 128.00195,251.02148 C 195.83301,251.02148 251.01953,195.83203 251.01953,128 C 251.01953,60.166504 195.83301,4.9785156 128.00195,4.9785156 C 60.167969,4.9785156 4.9804688,60.166504 4.9804688,128 z"
   id="path137"
   style="fill:url(#XMLID_11_)" />
      <linearGradient
   x1="127.99951"
   y1="244.40723"
   x2="127.9995"
   y2="11.546326"
   id="XMLID_12_"
   gradientUnits="userSpaceOnUse">
        <stop
   id="stop141"
   style="stop-color:#428aff;stop-opacity:1"
   offset="0.005615" />
        <stop
   id="stop143"
   style="stop-color:#94caff;stop-opacity:1"
   offset="0.57303399" />
        <stop
   id="stop145"
   style="stop-color:#dcf0ff;stop-opacity:1"
   offset="1" />
        <midPointStop
   id="midPointStop147"
   style="stop-color:#428AFF"
   offset="0.005615" />
        <midPointStop
   id="midPointStop149"
   style="stop-color:#428AFF"
   offset="0.5" />
        <midPointStop
   id="midPointStop151"
   style="stop-color:#94CAFF"
   offset="0.573034" />
        <midPointStop
   id="midPointStop153"
   style="stop-color:#94CAFF"
   offset="0.5" />
        <midPointStop
   id="midPointStop155"
   style="stop-color:#DCF0FF"
   offset="1" />
      </linearGradient>
      <path
   d="M 12.379883,128 C 12.379883,191.75391 64.248047,243.62109 128.00195,243.62109 C 191.75391,243.62109 243.61914,191.75391 243.61914,128 C 243.61914,64.246094 191.75391,12.378418 128.00195,12.378418 C 64.248047,12.378418 12.379883,64.246094 12.379883,128 z"
   id="path158"
   style="fill:url(#XMLID_12_)" />
      <linearGradient
   x1="128.00244"
   y1="239.71191"
   x2="128.00243"
   y2="16.285156"
   id="XMLID_13_"
   gradientUnits="userSpaceOnUse">
        <stop
   id="stop162"
   style="stop-color:#ffffff;stop-opacity:1"
   offset="0" />
        <stop
   id="stop164"
   style="stop-color:#006dff;stop-opacity:1"
   offset="0.5" />
        <stop
   id="stop166"
   style="stop-color:#c9e6ff;stop-opacity:1"
   offset="1" />
        <midPointStop
   id="midPointStop168"
   style="stop-color:#FFFFFF"
   offset="0" />
        <midPointStop
   id="midPointStop170"
   style="stop-color:#FFFFFF"
   offset="0.5" />
        <midPointStop
   id="midPointStop172"
   style="stop-color:#006DFF"
   offset="0.5" />
        <midPointStop
   id="midPointStop174"
   style="stop-color:#006DFF"
   offset="0.5" />
        <midPointStop
   id="midPointStop176"
   style="stop-color:#C9E6FF"
   offset="1" />
      </linearGradient>
      <path
   d="M 16.285156,128 C 16.285156,189.60352 66.404297,239.71191 128.00195,239.71191 C 189.60352,239.71191 239.71875,189.60352 239.71875,128 C 239.71875,66.402344 189.60352,16.284668 128.00195,16.284668 C 66.404297,16.284668 16.285156,66.402344 16.285156,128 z"
   id="path179"
   style="fill:url(#XMLID_13_)" />
      <path
   d="M 128.00195,30.241699 C 71.899414,30.241699 26.250977,75.879883 26.250977,131.98926 C 26.250977,188.0918 71.899414,233.72852 128.00195,233.72852 C 184.10645,233.72852 229.75,188.0918 229.75,131.98926 C 229.75,75.879883 184.10645,30.241699 128.00195,30.241699 z"
   id="path181"
   style="opacity:0.8;fill:#ffffff" />
      <path
   d="M 26.250977,128 C 26.250977,184.10645 71.899414,229.73926 128.00195,229.73926 C 184.10645,229.73926 229.75,184.10645 229.75,128 C 229.75,71.896973 184.10645,26.252441 128.00195,26.252441 C 71.899414,26.252441 26.250977,71.896973 26.250977,128 z"
   id="path183"
   style="fill:#00008d" />
      <radialGradient
   cx="59.616211"
   cy="234.03906"
   r="69.963379"
   fx="59.616211"
   fy="234.03906"
   id="XMLID_14_"
   gradientUnits="userSpaceOnUse"
   gradientTransform="matrix(1.4187,0,0,1.4187,43.4252,-204.0338)">
        <stop
   id="stop187"
   style="stop-color:#ffffff;stop-opacity:1"
   offset="0.60112399" />
        <stop
   id="stop189"
   style="stop-color:#eaeaf0;stop-opacity:1"
   offset="0.87640399" />
        <stop
   id="stop191"
   style="stop-color:#e6e6ed;stop-opacity:1"
   offset="0.9141686" />
        <stop
   id="stop193"
   style="stop-color:#dbdbe5;stop-opacity:1"
   offset="0.94998139" />
        <stop
   id="stop195"
   style="stop-color:#c8c8d7;stop-opacity:1"
   offset="0.9849053" />
        <stop
   id="stop197"
   style="stop-color:#bdbdcf;stop-opacity:1"
   offset="1" />
        <midPointStop
   id="midPointStop199"
   style="stop-color:#FFFFFF"
   offset="0.601124" />
        <midPointStop
   id="midPointStop201"
   style="stop-color:#FFFFFF"
   offset="0.5" />
        <midPointStop
   id="midPointStop203"
   style="stop-color:#EAEAF0"
   offset="0.876404" />
        <midPointStop
   id="midPointStop205"
   style="stop-color:#EAEAF0"
   offset="0.717949" />
        <midPointStop
   id="midPointStop207"
   style="stop-color:#BDBDCF"
   offset="1" />
      </radialGradient>
      <path
   d="M 28.743164,128 C 28.743164,182.72852 73.269531,227.25293 128.00195,227.25293 C 182.7334,227.25293 227.26172,182.72852 227.26172,128 C 227.26172,73.270996 182.7334,28.743164 128.00195,28.743164 C 73.269531,28.743164 28.743164,73.270996 28.743164,128 z"
   id="path210"
   style="fill:url(#XMLID_14_)" />
      <path
   d="M 32.070312,124.75635 C 30.96582,124.75635 30.070312,125.65186 30.070312,126.75635 L 30.070312,129.24316 C 30.070312,130.34766 30.96582,131.24316 32.070312,131.24316 L 49.511719,131.24316 C 50.616211,131.24316 51.511719,130.34766 51.511719,129.24316 L 51.511719,126.75635 C 51.511719,125.65186 50.616211,124.75635 49.511719,124.75635 L 32.070312,124.75635 z"
   id="path212"
   style="fill:#616161" />
      <rect
   width="17.441406"
   height="2.4868164"
   x="32.070312"
   y="126.75635"
   id="rect214"
   style="fill:#616161" />
      <path
   d="M 206.49023,124.75635 C 205.38574,124.75635 204.49023,125.65186 204.49023,126.75635 L 204.49023,129.24316 C 204.49023,130.34766 205.38574,131.24316 206.49023,131.24316 L 223.93848,131.24316 C 225.04297,131.24316 225.93848,130.34766 225.93848,129.24316 L 225.93848,126.75635 C 225.93848,125.65186 225.04297,124.75635 223.93848,124.75635 L 206.49023,124.75635 z"
   id="path216"
   style="fill:#616161" />
      <rect
   width="17.448242"
   height="2.4868164"
   x="206.49023"
   y="126.75635"
   id="rect218"
   style="fill:#616161" />
      <path
   d="M 126.75586,204.49023 C 125.65137,204.49023 124.75586,205.38574 124.75586,206.49023 L 124.75586,223.93164 C 124.75586,225.03613 125.65137,225.93164 126.75586,225.93164 L 129.24805,225.93164 C 130.35254,225.93164 131.24805,225.03613 131.24805,223.93164 L 131.24805,206.49023 C 131.24805,205.38574 130.35254,204.49023 129.24805,204.49023 L 126.75586,204.49023 z"
   id="path220"
   style="fill:#616161" />
      <rect
   width="2.4921875"
   height="17.441406"
   x="126.75586"
   y="206.49023"
   id="rect222"
   style="fill:#616161" />
      <path
   d="M 126.75586,30.067871 C 125.65137,30.067871 124.75586,30.963379 124.75586,32.067871 L 124.75586,49.509277 C 124.75586,50.61377 125.65137,51.509277 126.75586,51.509277 L 129.24805,51.509277 C 130.35254,51.509277 131.24805,50.61377 131.24805,49.509277 L 131.24805,32.067871 C 131.24805,30.963379 130.35254,30.067871 129.24805,30.067871 L 126.75586,30.067871 L 126.75586,30.067871 z"
   id="path224"
   style="fill:#616161" />
      <rect
   width="2.4921875"
   height="17.441406"
   x="126.75586"
   y="32.067871"
   id="rect226"
   style="fill:#616161" />
      <path
   d="M 169.80664,197.93555 L 167.65527,199.18555 C 166.70215,199.74023 166.37695,200.96094 166.92871,201.91602 L 173.16016,212.69531 C 173.71191,213.65039 174.93262,213.97754 175.88867,213.42773 L 178.0459,212.1875 C 178.50586,211.92285 178.84277,211.48633 178.98047,210.97266 C 179.11816,210.45996 179.04688,209.91309 178.78027,209.45312 L 172.54297,198.66406 C 172.27734,198.2041 171.83887,197.86914 171.32617,197.73242 C 170.8125,197.5957 170.26562,197.66895 169.80664,197.93555 z"
   id="path228"
   style="fill:#616161" />
      <polygon
   points="177.04883,210.4541 170.81152,199.66504 168.66016,200.91504 174.8916,211.69434 177.04883,210.4541 "
   id="polygon230"
   style="fill:#616161" />
      <path
   d="M 80.115234,42.565918 L 77.956055,43.813477 C 76.999023,44.366211 76.671875,45.589356 77.224609,46.545898 L 83.454102,57.32959 C 84.006836,58.285645 85.229492,58.613281 86.185547,58.061035 L 88.341797,56.816406 C 89.297852,56.26416 89.625977,55.041016 89.073242,54.084473 L 82.847656,43.297852 C 82.582031,42.838379 82.145508,42.503418 81.632813,42.365723 C 81.120117,42.228516 80.574219,42.300781 80.115234,42.565918 z"
   id="path232"
   style="fill:#616161" />
      <rect
   width="12.454769"
   height="2.4936838"
   x="76.921539"
   y="49.0681"
   transform="matrix(0.499934,0.866063,-0.866063,0.499934,85.15588,-46.85146)"
   id="rect234"
   style="fill:#616161" />
      <path
   d="M 84.669922,197.73242 C 84.157227,197.87012 83.719727,198.20508 83.454102,198.66504 L 77.224609,209.4541 C 76.958984,209.91406 76.886719,210.46094 77.025391,210.97363 C 77.163086,211.48633 77.499023,211.92383 77.959961,212.18848 L 80.119141,213.42871 C 81.075195,213.97754 82.295898,213.65039 82.847656,212.69434 L 89.073242,201.91504 C 89.625,200.95996 89.298828,199.73828 88.344727,199.18457 L 86.189453,197.93457 C 85.729492,197.66895 85.182617,197.5957 84.669922,197.73242 z"
   id="path236"
   style="fill:#616161" />
      <polygon
   points="81.115234,211.69434 87.341797,200.91504 85.185547,199.66504 78.956055,210.4541 81.115234,211.69434 "
   id="polygon238"
   style="fill:#616161" />
      <path
   d="M 173.15918,43.297852 L 166.92773,54.088379 C 166.66309,54.547852 166.59082,55.09375 166.72852,55.606445 C 166.86621,56.119141 167.20117,56.555664 167.66113,56.820801 L 169.8125,58.061523 C 170.76855,58.612793 171.99023,58.285645 172.54297,57.330078 L 178.78027,46.542969 C 179.0459,46.083496 179.11816,45.537109 178.98047,45.024414 C 178.84375,44.511719 178.50781,44.074707 178.04785,43.80957 L 175.89063,42.56543 C 174.93457,42.013672 173.71191,42.341309 173.15918,43.297852 z"
   id="path240"
   style="fill:#616161" />
      <polygon
   points="170.81152,56.329102 177.04883,45.541992 174.8916,44.297852 168.66016,55.088379 170.81152,56.329102 "
   id="polygon242"
   style="fill:#616161" />
      <path
   d="M 54.084961,166.9248 L 43.298828,173.1582 C 42.839844,173.42383 42.504883,173.86035 42.368164,174.37305 C 42.230469,174.88672 42.303711,175.43262 42.569336,175.8916 L 43.816406,178.0459 C 44.369141,179.00098 45.591797,179.32813 46.547851,178.77539 L 57.333984,172.54102 C 57.793945,172.27539 58.128906,171.83789 58.265625,171.3252 C 58.402344,170.8125 58.330078,170.2666 58.063476,169.80762 L 56.816406,167.6543 C 56.263672,166.69922 55.041016,166.37207 54.084961,166.9248 z"
   id="path244"
   style="fill:#616161" />
      <rect
   width="12.458254"
   height="2.4883676"
   x="44.08728"
   y="171.60591"
   transform="matrix(-0.865782,0.500421,-0.500421,-0.865782,180.3773,297.3212)"
   id="rect246"
   style="fill:#616161" />
      <path
   d="M 209.45703,77.222656 L 198.66797,83.455078 C 198.20703,83.721192 197.87207,84.159668 197.73535,84.67334 C 197.59863,85.187012 197.67285,85.733887 197.93945,86.193848 L 199.19336,88.34668 C 199.74805,89.29834 200.96777,89.622559 201.92188,89.071777 L 212.70801,82.843262 C 213.16797,82.577637 213.50391,82.140137 213.64063,81.626953 C 213.77734,81.11377 213.7041,80.566895 213.43848,80.10791 L 212.1875,77.951172 C 211.63379,76.99707 210.41211,76.670898 209.45703,77.222656 z"
   id="path248"
   style="fill:#616161" />
      <rect
   width="12.455323"
   height="2.4932835"
   x="199.46179"
   y="81.900574"
   transform="matrix(-0.865986,0.500069,-0.500069,-0.865986,425.3929,52.29269)"
   id="rect250"
   style="fill:#616161" />
      <path
   d="M 199.19336,167.64941 L 197.93945,169.80273 C 197.67187,170.2627 197.59863,170.80957 197.73535,171.32324 C 197.87207,171.83691 198.20703,172.27539 198.66699,172.54102 L 209.45605,178.77539 C 210.41211,179.32812 211.63477,179.00195 212.1875,178.04687 L 213.43848,175.8877 C 213.70508,175.42773 213.77734,174.88184 213.64062,174.36914 C 213.50293,173.85547 213.16797,173.41797 212.70801,173.15234 L 201.92187,166.92383 C 200.96777,166.37305 199.74902,166.69727 199.19336,167.64941 z"
   id="path252"
   style="fill:#616161" />
      <polygon
   points="211.70801,174.88477 200.92188,168.65625 199.66797,170.80957 210.45703,177.04395 211.70801,174.88477 "
   id="polygon254"
   style="fill:#616161" />
      <rect
   width="3.8498869"
   height="122.2031"
   x="103.96373"
   y="94.231461"
   transform="matrix(-0.760473,-0.64937,0.64937,-0.760473,85.54559,342.2205)"
   id="rect256"
   style="opacity:0.2" />
      <linearGradient
   x1="62.462891"
   y1="149.69531"
   x2="154.29785"
   y2="149.69531"
   id="XMLID_15_"
   gradientUnits="userSpaceOnUse"
   gradientTransform="matrix(0.9546,5.32e-2,5.32e-2,0.9377,-6.635652,8.097183)">
        <stop
   id="stop260"
   style="stop-color:#ff6666;stop-opacity:1"
   offset="0" />
        <stop
   id="stop262"
   style="stop-color:#ff0000;stop-opacity:1"
   offset="1" />
        <midPointStop
   id="midPointStop264"
   style="stop-color:#FF6666"
   offset="0" />
        <midPointStop
   id="midPointStop266"
   style="stop-color:#FF6666"
   offset="0.5" />
        <midPointStop
   id="midPointStop268"
   style="stop-color:#FF0000"
   offset="1" />
      </linearGradient>
      <polygon
   points="63.660156,199.46094 66.588867,201.96094 145.91699,109.00537 142.98828,106.50586 63.660156,199.46094 "
   id="polygon271"
   style="fill:url(#XMLID_15_)" />
      <path
   d="M 43.81543,77.953613 L 42.568359,80.110352 C 42.302734,80.569336 42.230469,81.115723 42.368164,81.628418 C 42.504883,82.140625 42.84082,82.578125 43.299805,82.843262 L 54.085938,89.071777 C 55.041992,89.624023 56.265625,89.296387 56.817383,88.340332 L 58.064453,86.182129 C 58.330078,85.722656 58.402344,85.176758 58.265625,84.664551 C 58.12793,84.151856 57.792969,83.714844 57.333008,83.449707 L 46.546875,77.222656 C 45.59082,76.67041 44.368164,76.997559 43.81543,77.953613 z"
   id="path273"
   style="fill:#616161" />
      <rect
   width="12.454591"
   height="2.4913259"
   x="44.089111"
   y="81.900818"
   transform="matrix(0.866037,0.49998,-0.49998,0.866037,48.31216,-14.01864)"
   id="rect275"
   style="fill:#616161" />
      <path
   d="M 189.22363,108.87109 C 189.06641,108.28564 188.49316,107.92871 187.94336,108.07617 L 125.65332,124.76611 C 125.10352,124.91357 124.78516,125.5083 124.94238,126.09619 L 126.79199,133.00195 C 126.9502,133.58984 127.52246,133.94531 128.07324,133.79785 L 190.36328,117.10693 C 190.91309,116.95996 191.23242,116.36475 191.0752,115.77832 L 189.22363,108.87109 z"
   id="path277"
   style="opacity:0.2" />
      <path
   d="M 188.12402,107.771 C 187.9668,107.18555 187.39355,106.8291 186.84277,106.97607 L 124.55371,123.66602 C 124.00391,123.81348 123.68457,124.40869 123.84277,124.99609 L 125.69238,131.90234 C 125.85059,132.49023 126.42285,132.8457 126.97266,132.69824 L 189.26367,116.00684 C 189.81348,115.85986 190.13281,115.26465 189.97559,114.67822 L 188.12402,107.771 z"
   id="path279"
   style="fill:#585868" />
      <linearGradient
   x1="-123.34863"
   y1="-86.028809"
   x2="-116.19824"
   y2="-86.028809"
   id="XMLID_16_"
   gradientUnits="userSpaceOnUse"
   gradientTransform="matrix(0.2588,0.9659,-0.9659,0.2588,104.8109,257.7903)">
        <stop
   id="stop283"
   style="stop-color:#585868;stop-opacity:1"
   offset="0" />
        <stop
   id="stop285"
   style="stop-color:#656575;stop-opacity:1"
   offset="0.0080328" />
        <stop
   id="stop287"
   style="stop-color:#8b8b99;stop-opacity:1"
   offset="0.0341428" />
        <stop
   id="stop289"
   style="stop-color:#a8a8b6;stop-opacity:1"
   offset="0.0602025" />
        <stop
   id="stop291"
   style="stop-color:#bdbdcb;stop-opacity:1"
   offset="0.0858713" />
        <stop
   id="stop293"
   style="stop-color:#cacad7;stop-opacity:1"
   offset="0.1109687" />
        <stop
   id="stop295"
   style="stop-color:#cecedb;stop-opacity:1"
   offset="0.134831" />
        <stop
   id="stop297"
   style="stop-color:#9a9ab1;stop-opacity:1"
   offset="0.46629199" />
        <stop
   id="stop299"
   style="stop-color:#7d7d99;stop-opacity:1"
   offset="0.85393202" />
        <stop
   id="stop301"
   style="stop-color:#585868;stop-opacity:1"
   offset="1" />
        <midPointStop
   id="midPointStop303"
   style="stop-color:#585868"
   offset="0" />
        <midPointStop
   id="midPointStop305"
   style="stop-color:#585868"
   offset="0.30303" />
        <midPointStop
   id="midPointStop307"
   style="stop-color:#CECEDB"
   offset="0.134831" />
        <midPointStop
   id="midPointStop309"
   style="stop-color:#CECEDB"
   offset="0.5" />
        <midPointStop
   id="midPointStop311"
   style="stop-color:#9A9AB1"
   offset="0.466292" />
        <midPointStop
   id="midPointStop313"
   style="stop-color:#9A9AB1"
   offset="0.5" />
        <midPointStop
   id="midPointStop315"
   style="stop-color:#7D7D99"
   offset="0.853932" />
        <midPointStop
   id="midPointStop317"
   style="stop-color:#7D7D99"
   offset="0.5" />
        <midPointStop
   id="midPointStop319"
   style="stop-color:#585868"
   offset="1" />
      </linearGradient>
      <polygon
   points="187.12891,108.03857 188.97852,114.94482 126.68945,131.63477 124.83887,124.72852 187.12891,108.03857 "
   id="polygon322"
   style="fill:url(#XMLID_16_)" />
      <path
   d="M 145.55762,133.42871 C 145.86133,132.90234 145.44531,132.09277 144.62402,131.61914 L 51.853516,78.058105 C 51.033203,77.584473 50.123047,77.627441 49.819336,78.153809 L 46.244141,84.345703 C 45.94043,84.87207 46.358398,85.681641 47.178711,86.155762 L 139.94824,139.71582 C 140.76855,140.18945 141.67871,140.14648 141.98242,139.62012 L 145.55762,133.42871 z"
   id="path324"
   style="opacity:0.2" />
      <path
   d="M 144.45801,132.3291 C 144.76172,131.80273 144.34473,130.99219 143.52441,130.51855 L 50.753906,76.958008 C 49.933594,76.484375 49.023438,76.527344 48.719727,77.053711 L 45.144531,83.245605 C 44.839844,83.771973 45.257813,84.582031 46.079102,85.055664 L 138.84863,138.61621 C 139.66895,139.08984 140.5791,139.04688 140.88281,138.52051 L 144.45801,132.3291 z"
   id="path326"
   style="fill:#585868" />
      <linearGradient
   x1="-218.14404"
   y1="58.22168"
   x2="-210.99219"
   y2="58.22168"
   id="XMLID_17_"
   gradientUnits="userSpaceOnUse"
   gradientTransform="matrix(-0.5,0.866,-0.866,-0.5,37.93764,322.7147)">
        <stop
   id="stop330"
   style="stop-color:#585868;stop-opacity:1"
   offset="0" />
        <stop
   id="stop332"
   style="stop-color:#cecedb;stop-opacity:1"
   offset="0.191011" />
        <stop
   id="stop334"
   style="stop-color:#9a9ab1;stop-opacity:1"
   offset="0.46629199" />
        <stop
   id="stop336"
   style="stop-color:#7d7d99;stop-opacity:1"
   offset="0.85393202" />
        <stop
   id="stop338"
   style="stop-color:#585868;stop-opacity:1"
   offset="1" />
        <midPointStop
   id="midPointStop340"
   style="stop-color:#585868"
   offset="0" />
        <midPointStop
   id="midPointStop342"
   style="stop-color:#585868"
   offset="0.5" />
        <midPointStop
   id="midPointStop344"
   style="stop-color:#CECEDB"
   offset="0.191011" />
        <midPointStop
   id="midPointStop346"
   style="stop-color:#CECEDB"
   offset="0.5" />
        <midPointStop
   id="midPointStop348"
   style="stop-color:#9A9AB1"
   offset="0.466292" />
        <midPointStop
   id="midPointStop350"
   style="stop-color:#9A9AB1"
   offset="0.5" />
        <midPointStop
   id="midPointStop352"
   style="stop-color:#7D7D99"
   offset="0.853932" />
        <midPointStop
   id="midPointStop354"
   style="stop-color:#7D7D99"
   offset="0.5" />
        <midPointStop
   id="midPointStop356"
   style="stop-color:#585868"
   offset="1" />
      </linearGradient>
      <polygon
   points="142.97461,131.47168 139.39844,137.66309 46.628906,84.102539 50.204102,77.911133 142.97461,131.47168 "
   id="polygon359"
   style="fill:url(#XMLID_17_)" />
      <path
   d="M 117.63965,129.10156 C 117.63965,135.41992 122.7793,140.56152 129.09766,140.56152 C 135.41699,140.56152 140.55957,135.41992 140.55957,129.10156 C 140.55957,122.78027 135.41699,117.63818 129.09766,117.63818 C 122.7793,117.63818 117.63965,122.78027 117.63965,129.10156 z"
   id="path361"
   style="opacity:0.2" />
      <linearGradient
   x1="116.54004"
   y1="128"
   x2="139.45898"
   y2="128"
   id="XMLID_18_"
   gradientUnits="userSpaceOnUse">
        <stop
   id="stop365"
   style="stop-color:#9a9ab1;stop-opacity:1"
   offset="0" />
        <stop
   id="stop367"
   style="stop-color:#585868;stop-opacity:1"
   offset="1" />
        <midPointStop
   id="midPointStop369"
   style="stop-color:#9A9AB1"
   offset="0" />
        <midPointStop
   id="midPointStop371"
   style="stop-color:#9A9AB1"
   offset="0.5" />
        <midPointStop
   id="midPointStop373"
   style="stop-color:#585868"
   offset="1" />
      </linearGradient>
      <path
   d="M 116.54004,128.00098 C 116.54004,134.32031 121.67871,139.46191 127.99805,139.46191 C 134.31738,139.46191 139.45898,134.32031 139.45898,128.00098 C 139.45898,121.68066 134.31738,116.53809 127.99805,116.53809 C 121.67871,116.53809 116.54004,121.68066 116.54004,128.00098 z"
   id="path376"
   style="fill:url(#XMLID_18_)" />
      <radialGradient
   cx="126.61963"
   cy="116.17529"
   r="22.186035"
   fx="126.61963"
   fy="116.17529"
   id="XMLID_19_"
   gradientUnits="userSpaceOnUse">
        <stop
   id="stop380"
   style="stop-color:#9a9ab1;stop-opacity:1"
   offset="0" />
        <stop
   id="stop382"
   style="stop-color:#585868;stop-opacity:1"
   offset="0.58988798" />
        <stop
   id="stop384"
   style="stop-color:#ffffff;stop-opacity:1"
   offset="1" />
        <midPointStop
   id="midPointStop386"
   style="stop-color:#9A9AB1"
   offset="0" />
        <midPointStop
   id="midPointStop388"
   style="stop-color:#9A9AB1"
   offset="0.5" />
        <midPointStop
   id="midPointStop390"
   style="stop-color:#585868"
   offset="0.589888" />
        <midPointStop
   id="midPointStop392"
   style="stop-color:#585868"
   offset="0.5" />
        <midPointStop
   id="midPointStop394"
   style="stop-color:#FFFFFF"
   offset="1" />
      </radialGradient>
      <path
   d="M 117.63965,128.00098 C 117.63965,133.71484 122.28711,138.36133 127.99805,138.36133 C 133.71191,138.36133 138.35937,133.71484 138.35937,128.00098 C 138.35937,122.2876 133.71191,117.63818 127.99805,117.63818 C 122.28711,117.63818 117.63965,122.2876 117.63965,128.00098 z"
   id="path397"
   style="fill:url(#XMLID_19_)" />
      <linearGradient
   x1="117.74365"
   y1="123.58594"
   x2="137.875"
   y2="123.58594"
   id="XMLID_20_"
   gradientUnits="userSpaceOnUse">
        <stop
   id="stop401"
   style="stop-color:#ffffff;stop-opacity:1"
   offset="0" />
        <stop
   id="stop403"
   style="stop-color:#585868;stop-opacity:1"
   offset="1" />
        <midPointStop
   id="midPointStop405"
   style="stop-color:#FFFFFF"
   offset="0" />
        <midPointStop
   id="midPointStop407"
   style="stop-color:#FFFFFF"
   offset="0.5" />
        <midPointStop
   id="midPointStop409"
   style="stop-color:#585868"
   offset="1" />
      </linearGradient>
      <path
   d="M 135.7373,125.42822 C 134.65625,122.18555 131.59961,119.83838 127.99805,119.83838 C 123.76953,119.83838 120.28418,123.07373 119.88086,127.20068 C 125.21582,127.58545 130.6123,127.17725 135.7373,125.42822 z"
   id="path412"
   style="fill:url(#XMLID_20_)" />
    </g>
    <polyline
   id="_x3C_Slice_x3E_"
   points="0,256 0,0 256,0 256,256 "
   style="fill:none"
   fill="none" />
  </g>
<g
   transform="matrix(0.7308966,0,0,0.7335491,83.727618,83.471619)"
   style="overflow:visible"
   id="g9007"><rect
     id="rect2801"
     style="fill:none"
     width="256"
     height="256"
     x="0"
     y="0" /><path
     style="opacity:0.2"
     d="M 194.17,32.183 L 194.17,32.183 L 194.17,32.183 M 183.85,36.465 L 136.779,83.528 C 135.621,84.692 134.043,85.344 132.401,85.344 L 132.401,85.344 C 130.755,85.344 129.18,84.692 128.017,83.528 L 80.953,36.462 C 75.266,30.775 66.004,30.772 60.312,36.457 L 35.36,61.409 C 32.602,64.163 31.087,67.828 31.087,71.729 C 31.087,75.63 32.602,79.296 35.36,82.046 C 35.36,82.051 82.422,129.12 82.422,129.12 C 84.844,131.54 84.844,135.466 82.422,137.888 L 35.36,184.951 C 32.606,187.71 31.087,191.375 31.087,195.27 C 31.087,199.172 32.602,202.841 35.36,205.589 L 60.305,230.543 C 63.059,233.3 66.724,234.815 70.629,234.815 C 74.526,234.815 78.196,233.299 80.953,230.543 L 128.016,183.476 C 130.438,181.058 134.359,181.058 136.778,183.476 L 183.845,230.543 C 186.6,233.3 190.271,234.815 194.171,234.815 C 198.071,234.815 201.732,233.299 204.488,230.543 L 229.432,205.598 C 232.191,202.833 233.711,199.172 233.711,195.27 C 233.711,191.367 232.19,187.709 229.434,184.951 C 229.432,184.951 182.373,137.887 182.373,137.887 C 181.162,136.677 180.558,135.088 180.558,133.5 C 180.558,131.918 181.162,130.329 182.373,129.119 L 229.432,82.051 C 232.156,79.339 233.711,75.578 233.711,71.729 C 233.711,67.825 232.19,64.16 229.432,61.406 L 204.488,36.463 C 201.731,33.703 198.073,32.186 194.169,32.184 C 190.271,32.183 186.606,33.702 183.85,36.465 z "
     id="path552" /><path
     style="opacity:0.2"
     d="M 191.77,30.983 L 191.77,30.983 L 191.77,30.983 M 181.45,35.265 L 134.378,82.329 C 133.221,83.493 131.642,84.144 130,84.144 L 130,84.144 C 128.355,84.144 126.78,83.492 125.616,82.329 L 78.552,35.262 C 72.865,29.575 63.604,29.572 57.912,35.257 L 32.96,60.208 C 30.202,62.962 28.687,66.627 28.687,70.528 C 28.687,74.428 30.202,78.095 32.96,80.844 C 32.96,80.849 80.022,127.918 80.022,127.918 C 82.444,130.338 82.444,134.264 80.022,136.685 L 32.96,183.751 C 30.206,186.51 28.687,190.176 28.687,194.07 C 28.687,197.972 30.202,201.642 32.96,204.39 L 57.905,229.343 C 60.659,232.1 64.324,233.616 68.229,233.616 C 72.126,233.616 75.796,232.099 78.552,229.343 L 125.616,182.277 C 128.038,179.858 131.959,179.858 134.378,182.277 L 181.445,229.343 C 184.2,232.1 187.872,233.616 191.771,233.616 C 195.671,233.616 199.333,232.099 202.088,229.343 L 227.032,204.398 C 229.791,201.633 231.312,197.972 231.312,194.07 C 231.312,190.167 229.791,186.509 227.035,183.751 C 227.032,183.751 179.973,136.687 179.973,136.687 C 178.762,135.477 178.158,133.888 178.158,132.3 C 178.158,130.718 178.762,129.129 179.973,127.92 L 227.032,80.851 C 229.756,78.139 231.312,74.379 231.312,70.529 C 231.312,66.625 229.791,62.96 227.032,60.205 L 202.088,35.262 C 199.332,32.502 195.673,30.985 191.769,30.984 C 187.872,30.983 184.206,32.502 181.45,35.265 z "
     id="path553" /><path
     style="opacity:0.2"
     d="M 191.77,28.583 L 191.77,28.583 L 191.77,28.583 M 181.45,32.865 L 134.378,79.928 C 133.221,81.092 131.642,81.744 130,81.744 L 130,81.744 C 128.355,81.744 126.78,81.092 125.616,79.928 L 78.552,32.862 C 72.865,27.175 63.604,27.172 57.912,32.857 L 32.96,57.809 C 30.202,60.563 28.687,64.228 28.687,68.129 C 28.687,72.029 30.202,75.696 32.96,78.445 C 32.96,78.45 80.022,125.519 80.022,125.519 C 82.444,127.939 82.444,131.865 80.022,134.286 L 32.96,181.352 C 30.206,184.11 28.687,187.776 28.687,191.671 C 28.687,195.573 30.202,199.242 32.96,201.99 L 57.905,226.944 C 60.659,229.7 64.324,231.216 68.229,231.216 C 72.126,231.216 75.796,229.699 78.552,226.944 L 125.616,179.877 C 128.038,177.458 131.959,177.458 134.378,179.877 L 181.445,226.944 C 184.2,229.7 187.872,231.216 191.771,231.216 C 195.671,231.216 199.333,229.699 202.088,226.944 L 227.032,201.998 C 229.791,199.234 231.312,195.573 231.312,191.671 C 231.312,187.768 229.791,184.109 227.035,181.352 C 227.032,181.352 179.973,134.287 179.973,134.287 C 178.762,133.078 178.158,131.489 178.158,129.901 C 178.158,128.318 178.762,126.73 179.973,125.52 L 227.032,78.451 C 229.756,75.739 231.312,71.979 231.312,68.129 C 231.312,64.225 229.791,60.56 227.032,57.805 L 202.088,32.862 C 199.332,30.102 195.673,28.585 191.769,28.583 C 187.872,28.583 184.206,30.102 181.45,32.865 z "
     id="path554" /><linearGradient
     id="linearGradient9013"
     gradientUnits="userSpaceOnUse"
     x1="20.086399"
     y1="127.5"
     x2="235.1136"
     y2="127.5"><stop
       offset="0.0056"
       style="stop-color:#AA0000"
       id="stop9015" /><stop
       offset="1"
       style="stop-color:#663333"
       id="stop9017" /></linearGradient><path
     style="fill:url(#POUETID_4_)"
     d="M 189.369,26.183 L 189.369,26.183 L 189.369,26.183 M 179.05,30.465 L 131.979,77.528 C 130.821,78.692 129.243,79.344 127.601,79.344 L 127.601,79.344 C 125.955,79.344 124.381,78.692 123.217,77.528 L 76.152,30.462 C 70.465,24.775 61.204,24.772 55.512,30.457 L 30.56,55.409 C 27.802,58.163 26.287,61.828 26.287,65.729 C 26.287,69.63 27.803,73.296 30.56,76.046 C 30.56,76.051 77.622,123.12 77.622,123.12 C 80.044,125.54 80.044,129.465 77.622,131.887 L 30.56,178.951 C 27.806,181.71 26.287,185.375 26.287,189.27 C 26.287,193.172 27.803,196.841 30.56,199.589 L 55.505,224.543 C 58.259,227.3 61.924,228.815 65.828,228.815 C 69.725,228.815 73.395,227.299 76.152,224.543 L 123.216,177.476 C 125.638,175.058 129.559,175.058 131.978,177.476 L 179.044,224.543 C 181.8,227.3 185.471,228.815 189.371,228.815 C 193.27,228.815 196.932,227.299 199.688,224.543 L 224.632,199.598 C 227.391,196.833 228.911,193.172 228.911,189.27 C 228.911,185.367 227.39,181.709 224.634,178.951 C 224.632,178.951 177.572,131.887 177.572,131.887 C 176.362,130.677 175.758,129.088 175.758,127.5 C 175.758,125.918 176.362,124.329 177.572,123.12 L 224.632,76.051 C 227.356,73.339 228.911,69.578 228.911,65.729 C 228.911,61.825 227.39,58.16 224.632,55.406 L 199.688,30.463 C 196.931,27.703 193.273,26.186 189.368,26.184 C 185.472,26.183 181.807,27.702 179.05,30.465 z "
     id="path561" /><linearGradient
     id="linearGradient9020"
     gradientUnits="userSpaceOnUse"
     x1="32.484901"
     y1="127.5029"
     x2="222.7139"
     y2="127.5029"><stop
       offset="0.0056"
       style="stop-color:#FF6D00"
       id="stop9022" /><stop
       offset="0.5"
       style="stop-color:#CF0000"
       id="stop9024" /><stop
       offset="1"
       style="stop-color:#FF6666"
       id="stop9026" /></linearGradient><path
     style="fill:url(#POUETID_5_)"
     d="M 164.43,127.5 C 174.123,117.791 220.251,71.667 220.251,71.667 C 221.83,70.094 222.714,67.953 222.714,65.729 C 222.714,63.504 221.83,61.368 220.251,59.79 L 195.304,34.847 C 192.032,31.565 186.708,31.565 183.433,34.847 C 183.433,34.847 137.303,80.969 127.6,90.682 C 117.893,80.969 71.768,34.847 71.768,34.847 C 68.486,31.565 63.172,31.572 59.887,34.847 L 34.942,59.789 C 33.3,61.431 32.484,63.581 32.484,65.728 C 32.484,67.881 33.299,70.026 34.942,71.666 C 34.942,71.666 81.067,117.791 90.774,127.499 C 81.067,137.206 34.942,183.331 34.942,183.331 C 33.3,184.976 32.484,187.12 32.484,189.269 C 32.484,191.419 33.299,193.571 34.942,195.209 L 59.887,220.156 C 61.464,221.729 63.601,222.62 65.828,222.62 C 68.059,222.62 70.189,221.729 71.768,220.156 C 71.768,220.156 117.893,174.029 127.6,164.324 C 137.303,174.029 183.433,220.156 183.433,220.156 C 186.708,223.438 192.032,223.438 195.304,220.156 L 220.251,195.209 C 221.897,193.57 222.714,191.419 222.714,189.269 C 222.714,187.12 221.897,184.975 220.251,183.331 C 220.251,183.332 174.123,137.207 164.43,127.5 z "
     id="path571" /><linearGradient
     id="linearGradient9029"
     gradientUnits="userSpaceOnUse"
     x1="127.5972"
     y1="36.8535"
     x2="127.5972"
     y2="139.1456"><stop
       offset="0.0056"
       style="stop-color:#FFFFFF"
       id="stop9031" /><stop
       offset="1"
       style="stop-color:#FF6666"
       id="stop9033" /></linearGradient><path
     style="fill:url(#POUETID_6_)"
     d="M 126.879,133.944 C 136.48,133.944 145.726,132.777 154.417,130.639 C 152.448,128.674 151.277,127.499 151.277,127.499 C 151.277,127.499 211.801,66.974 213.04,65.728 C 211.853,64.541 190.547,43.233 189.369,42.056 C 188.127,43.303 127.605,103.827 127.605,103.827 C 127.605,103.827 67.07,43.295 65.829,42.055 C 64.664,43.217 43.331,64.553 42.155,65.729 C 48.312,71.892 103.926,127.5 103.926,127.5 C 103.926,127.5 102.65,128.781 100.506,130.917 C 108.853,132.883 117.704,133.944 126.879,133.944 z "
     id="path578" /></g></svg>