<?xml version="1.0" encoding="iso-8859-1"?>
<!-- Generator: Adobe Illustrator 9.0, SVG Export Plug-In  -->
<!DOCTYPE svg PUBLIC "-//W3C//DTD SVG 20000303 Stylable//EN"   "http://www.w3.org/TR/2000/03/WD-SVG-20000303/DTD/svg-20000303-stylable.dtd" [
	<!ENTITY st0 "fill:url(#aigrd1);stroke:none;">
	<!ENTITY st1 "fill:#A70F18;stroke-width:5.1333;">
	<!ENTITY st2 "fill:url(#aigrd2);stroke:none;">
	<!ENTITY st3 "fill:none;stroke:none;">
	<!ENTITY st4 "opacity:0.58;fill:#FFFFFF;stroke:none;">
	<!ENTITY st5 "fill-rule:nonzero;clip-rule:nonzero;stroke:#000000;stroke-miterlimit:4;">
	<!ENTITY st6 "stroke:none;">
	<!ENTITY st7 "opacity:0.23;fill:#FFFFFF;stroke:none;">
	<!ENTITY st8 "opacity:0.26;stroke:none;">
]>
<svg  width="48pt" height="48pt" viewBox="0 0 48 48" xml:space="preserve">
	<g id="Layer_x0020_3" style="&st5;">
		<path style="&st1;" d="M43.4,35.9L26.8,7.5c-0.7-1.1-1.9-1.8-3.2-1.8c-1.3,0-2.5,0.7-3.1,1.9L4.7,36c-0.6,1.1-0.6,2.5,0,3.6c0.7,1.1,1.8,1.8,3.1,1.8h32.4c1.3,0,2.5-0.7,3.1-1.8c0.6-1.1,0.6-2.5,0-3.6z"/>
		<linearGradient id="aigrd1" gradientUnits="userSpaceOnUse" x1="40.2373" y1="51.0068" x2="12.1656" y2="19.493">
			<stop  offset="0" style="stop-color:#707070"/>
			<stop  offset="1" style="stop-color:#000000"/>
		</linearGradient>
		<path style="&st0;" d="M43.4,35.9L26.8,7.5c-0.7-1.1-1.9-1.8-3.2-1.8c-1.3,0-2.5,0.7-3.1,1.9L4.7,36c-0.6,1.1-0.6,2.5,0,3.6c0.7,1.1,1.8,1.8,3.1,1.8h32.4c1.3,0,2.5-0.7,3.1-1.8c0.6-1.1,0.6-2.5,0-3.6z"/>
		<linearGradient id="aigrd2" gradientUnits="userSpaceOnUse" x1="14.1167" y1="20.9849" x2="28.7473" y2="42.8781">
			<stop  offset="0" style="stop-color:#F8C20F"/>
			<stop  offset="1" style="stop-color:#E2B016"/>
		</linearGradient>
		<path style="&st2;" d="M23.9,9.1L7.8,37.9h32.9L23.9,9.1z"/>
		<g>
			<path style="&st6;" d="M24.1,34.5c-1.2,0-2-0.9-2-2c0-1.2,0.8-2,2-2c1.2,0,1.9,0.8,2,2c0,1.1-0.8,2-2,2h0z M22.9,29.4l-0.5-10h3.5l-0.5,10h-2.5z"/>
		</g>
		<path style="&st8;" d="M23.9,9.1l16.8,28.8H7.8l30.9-1.2L23.9,9.1z"/>
		<path style="&st4;" d="M23.9,9.1L7.8,37.9H9L23.9,9.1z"/>
		<path style="&st7;" d="M5.3,40.3c-0.7-1.1-0.7-2.5,0-3.6L21.1,8.2c0.6-1.1,1.8-1.8,3.1-1.9c0.7,0,1.4,0.2,2,0.6c-0.7-0.9-1.8-1.4-2.9-1.4c-1.3,0-2.5,0.7-3.1,1.9L4.3,35.8c-0.6,1.1-0.6,2.5,0,3.6c0.3,0.5,0.7,0.9,1.2,1.2c-0.1-0.1-0.2-0.2-0.3-0.4z"/>
	</g>
	<g id="Layer_x0020_2" style="&st5;">
		<path style="&st3;" d="M48,48H0V0h48v48z"/>
	</g>
</svg>
