<?xml version="1.0" encoding="iso-8859-1"?>
<!-- Generator: Adobe Illustrator 10.0, SVG Export Plug-In . SVG Version: 3.0.0 Build 43)  -->
<!DOCTYPE svg PUBLIC "-//W3C//DTD SVG 1.0//EN"    "http://www.w3.org/TR/2001/PR-SVG-20010719/DTD/svg10.dtd" [
	<!ENTITY ns_flows "http://ns.adobe.com/Flows/1.0/">
	<!ENTITY ns_svg "http://www.w3.org/2000/svg">
	<!ENTITY ns_xlink "http://www.w3.org/1999/xlink">
	<!ENTITY ns_extend "http://ns.adobe.com/Extensibility/1.0/">
	<!ENTITY ns_ai "http://ns.adobe.com/AdobeIllustrator/10.0/">
	<!ENTITY ns_graphs "http://ns.adobe.com/Graphs/1.0/">
	<!ENTITY ns_vars "http://ns.adobe.com/Variables/1.0/">
	<!ENTITY ns_imrep "http://ns.adobe.com/ImageReplacement/1.0/">
	<!ENTITY ns_sfw "http://ns.adobe.com/SaveForWeb/1.0/">
	<!ENTITY ns_custom "http://ns.adobe.com/GenericCustomNamespace/1.0/">
	<!ENTITY ns_adobe_xpath "http://ns.adobe.com/XPath/1.0/">
]>
<svg  xmlns:graph="" xmlns:xlink="&ns_xlink;" xmlns:x="&ns_extend;" xmlns:i="&ns_ai;"
	 xmlns="http://www.w3.org/2000/svg" xmlns:a="http://ns.adobe.com/AdobeSVGViewerExtensions/3.0/" width="47.311" height="48.656"
	 viewBox="0 0 47.311 48.656" overflow="visible" enable-background="new 0 0 47.311 48.656" xml:space="preserve">
	<metadata>
		<sfw>
			<slices></slices>
			<sliceSourceBounds  y="395.172" x="272.755" width="47.311" height="48.656" bottomLeftOrigin="true"></sliceSourceBounds>
		</sfw>
	</metadata>
	<g id="Layer_1" stroke="#000000">
		<g id="Layer_1_2_">
			<path stroke="none" d="M11.26,0.371c-1.317,0.565-2.333,1.741-2.79,3.226c0,0-0.246,0.802-0.48,1.569
				C7.914,5.087,7.7,4.869,7.7,4.869C7.687,4.856,5.591,2.74,5.591,2.74L5.533,2.704L5.375,2.599l0.251,0.193
				C5.023,2.185,4.107,1.99,3.168,2.253C2.575,2.393,2.026,2.709,1.542,3.208l0.041-0.04L1.503,3.244
				C0.313,4.425,0.028,6.06,0.825,7.13l-0.18-0.332l0.213,0.493l0.137,0.096l2.04,2.062c0.002,0.001,1.829,1.868,2.773,2.831
				c-0.427,1.39-5.536,18.046-5.536,18.046C0.088,30.927,0,31.545,0,32.159c0,2.359,1.297,4.66,3.393,5.707L23.945,48.12
				c1.319,0.658,2.755,0.717,4.041,0.165c1.316-0.564,2.333-1.74,2.79-3.225c0-0.001,8.198-26.731,8.198-26.731
				c0.186-0.601,0.273-1.219,0.273-1.833c0-2.359-1.297-4.661-3.396-5.707c0,0-6.167-3.077-6.3-3.143
				c-0.146-0.108-0.289-0.197-0.433-0.295c0.206-0.357,0.365-0.739,0.451-1.118c0.059-0.256,0.091-0.528,0.091-0.808
				c0-1.184-0.582-2.503-2.24-3.3c-2.151-1.033-3.452-0.01-3.911,0.476c-0.424,0.451-0.689,1.022-0.841,1.61
				c-1.11-0.554-7.368-3.676-7.368-3.676C13.981-0.122,12.546-0.181,11.26,0.371z M25.449,5.175c0-0.291,0.236-0.526,0.525-0.526
				c0.291,0,0.527,0.236,0.527,0.526s-0.236,0.526-0.527,0.526C25.686,5.701,25.449,5.465,25.449,5.175z"/>
			<path a:adobe-blending-mode="multiply" opacity="0.2" stroke="none" d="M45.616,24.679c-2.267-1.448-17.763-9.921-17.763-9.921
				c-2.204-1.037-5.492-0.222-7.328,1.818L2.824,34.375c-0.207,0.229,0.442,1.409,0.29,1.648c0,0,22.321,12.601,26.236,11.481
				c0,0,10.188-10.428,13.621-13.639C47.66,29.478,48.973,26.823,45.616,24.679z"/>
			
				<linearGradient id="XMLID_1_" gradientUnits="userSpaceOnUse" x1="-125.4668" y1="518.9224" x2="-145.6376" y2="536.3581" gradientTransform="matrix(0.7914 0.3949 0.2694 -0.8779 -10.9313 549.9891)">
				<stop  offset="0.0169" style="stop-color:#BD9A12"/>
				<stop  offset="1" style="stop-color:#926D00"/>
				<a:midPointStop  offset="0.0169" style="stop-color:#BD9A12"/>
				<a:midPointStop  offset="0.5" style="stop-color:#BD9A12"/>
				<a:midPointStop  offset="1" style="stop-color:#926D00"/>
			</linearGradient>
			<path fill="url(#XMLID_1_)" stroke="none" d="M9.74,3.986c0.696-2.271,2.921-3.284,4.968-2.263l20.552,10.254
				c2.047,1.022,3.144,3.691,2.446,5.962l-8.199,26.73c-0.697,2.271-2.922,3.283-4.97,2.262L3.986,36.678
				c-2.047-1.021-3.142-3.691-2.445-5.962L9.74,3.986z"/>
			<path a:adobe-blending-mode="multiply" opacity="0.2" stroke="none" d="M24.538,46.932c2.048,1.021,3.455-0.089,4.151-2.358
				l8.199-26.73c0.697-2.272,0.419-4.843-1.628-5.865c2.047,1.022,3.144,3.69,2.446,5.962l-8.199,26.73
				C28.811,46.941,26.586,47.954,24.538,46.932z"/>
			<path opacity="0.4" stroke="none" d="M13.935,6.637L5.716,34.084L25.943,44.81l8.245-28.009L13.935,6.637z"/>
			<path fill="#FFFF99" stroke="none" d="M13.492,5.752L5.274,33.2l20.052,9.998l8.421-27.281L13.492,5.752z"/>
			<path fill="none" stroke="#FF0805" stroke-width="0.8292" d="M17.37,6.393l-8.546,28.52"/>
			<g>
				<path fill="none" stroke="#08C2FF" stroke-width="0.2764" d="M32.738,19.565L12.484,9.401"/>
				<path fill="none" stroke="#08C2FF" stroke-width="0.2764" d="M32.111,21.623L11.857,11.458"/>
				<path fill="none" stroke="#08C2FF" stroke-width="0.2764" d="M31.484,23.68L11.23,13.516"/>
				<path fill="none" stroke="#08C2FF" stroke-width="0.2764" d="M30.858,25.738L10.604,15.573"/>
				<path fill="none" stroke="#08C2FF" stroke-width="0.2764" d="M30.232,27.795L9.978,17.631"/>
				<path fill="none" stroke="#08C2FF" stroke-width="0.2764" d="M29.605,29.853L9.352,19.688"/>
				<path fill="none" stroke="#08C2FF" stroke-width="0.2764" d="M28.979,31.911L8.725,21.746"/>
				<path fill="none" stroke="#08C2FF" stroke-width="0.2764" d="M28.353,33.967L8.098,23.803"/>
				<path fill="none" stroke="#08C2FF" stroke-width="0.2764" d="M27.726,36.026L7.472,25.861"/>
				<path fill="none" stroke="#08C2FF" stroke-width="0.2764" d="M27.1,38.083L6.845,27.919"/>
				<path fill="none" stroke="#08C2FF" stroke-width="0.2764" d="M26.474,40.141L6.219,29.976"/>
				<path fill="none" stroke="#08C2FF" stroke-width="0.2764" d="M25.847,42.199L5.592,32.034"/>
			</g>
			<path opacity="0.3" stroke="none" d="M28.271,8.375c0,0,2.019,1.467,2.98,2.794c0.675,0.932,0.825,3.896,0.825,3.896
				l-2.679-1.302L28.271,8.375z"/>
			
				<linearGradient id="XMLID_2_" gradientUnits="userSpaceOnUse" x1="-213.2148" y1="397.728" x2="-211.3494" y2="402.3294" gradientTransform="matrix(1 0 0 -1 237.1372 407.335)">
				<stop  offset="0" style="stop-color:#E1E8E8"/>
				<stop  offset="1" style="stop-color:#A2A7A9"/>
				<a:midPointStop  offset="0" style="stop-color:#E1E8E8"/>
				<a:midPointStop  offset="0.5" style="stop-color:#E1E8E8"/>
				<a:midPointStop  offset="1" style="stop-color:#A2A7A9"/>
			</linearGradient>
			<path fill="url(#XMLID_2_)" stroke="none" d="M30.635,11.768c-0.084-0.09-0.203-0.194-0.354-0.309
				c-0.096-0.266-0.512-0.437-0.58-0.882c-0.304-2.001-1.328-2.351-2.854-3.004c1.09,0,2.725-2.943,0-4.251
				c-2.725-1.309-3.379,1.853-2.834,2.834c0,0-2.766-1.841-4.6-0.591c-0.268,0.182-0.561,0.064-0.763,0.168
				c-0.351-0.112-0.619-0.177-0.768-0.177c-1.308,0-1.526,0.763-2.538,1.799l15.788,7.878
				C31.397,13.948,31.942,13.186,30.635,11.768z M25.975,4.194c0.542,0,0.981,0.439,0.981,0.981s-0.439,0.981-0.981,0.981
				c-0.541,0-0.98-0.439-0.98-0.981S25.434,4.194,25.975,4.194z"/>
			
				<linearGradient id="XMLID_3_" gradientUnits="userSpaceOnUse" x1="-482.252" y1="393.1343" x2="-487.2316" y2="388.524" gradientTransform="matrix(-1 0 0 -1 -470.377 407.335)">
				<stop  offset="0" style="stop-color:#D8DAA1"/>
				<stop  offset="1" style="stop-color:#5C5C3A"/>
				<a:midPointStop  offset="0" style="stop-color:#D8DAA1"/>
				<a:midPointStop  offset="0.5" style="stop-color:#D8DAA1"/>
				<a:midPointStop  offset="1" style="stop-color:#5C5C3A"/>
			</linearGradient>
			<path fill="url(#XMLID_3_)" stroke="none" d="M11.48,13.116l4.452,4.643c0.149,0.151-0.432,0.531-0.581,0.38
				c0,0-4.527-4.838-4.39-5C11.1,12.975,11.332,12.965,11.48,13.116z"/>
			<g>
				<path stroke="none" d="M1.992,3.717l0.053-0.05c0.394-0.404,0.846-0.625,1.309-0.73c0.662-0.191,1.295-0.051,1.708,0.325
					c0.027,0.018,1.962,1.946,1.962,1.946c0.002,0.001,7.352,7.507,7.352,7.507l0.071,0.071l1.771,4.843l-0.241,0.939l-5.209-2.251
					L3.383,8.777C3.385,8.778,3.287,8.68,3.276,8.668c-0.053-0.045-0.118-0.1-0.118-0.1c0-0.02-1.831-1.983-1.831-1.983
					C0.815,5.814,1.082,4.62,1.992,3.717z"/>
			</g>
			
				<linearGradient id="XMLID_4_" gradientUnits="userSpaceOnUse" x1="-484.3599" y1="392.4185" x2="-482.8205" y2="390.5489" gradientTransform="matrix(-1 0 0 -1 -470.377 407.335)">
				<stop  offset="0" style="stop-color:#FFFFFA"/>
				<stop  offset="1" style="stop-color:#F49333"/>
				<a:midPointStop  offset="0" style="stop-color:#FFFFFA"/>
				<a:midPointStop  offset="0.5" style="stop-color:#FFFFFA"/>
				<a:midPointStop  offset="1" style="stop-color:#F49333"/>
			</linearGradient>
			<path fill="url(#XMLID_4_)" stroke="none" d="M13.768,12.96l1.708,4.126l-0.303,0.464l-4.212-1.906l0.804-2.107L13.768,12.96z"/>
			<path stroke="none" d="M15.057,15.849l0.586,1.238l-0.429,0.718l-1.042-0.541l0.659-0.675L15.057,15.849z"/>
			<g>
				<path fill="#F49300" stroke="none" d="M3.945,8.482l7.015,7.163l1.367-0.272l1.233-1.131l0.208-1.281L6.752,5.798L6.547,7.079
					L5.313,8.21L3.945,8.482z"/>
			</g>
			<g>
				
					<linearGradient id="XMLID_5_" gradientUnits="userSpaceOnUse" x1="-480.6201" y1="397.3638" x2="-481.1428" y2="397.9238" gradientTransform="matrix(-1 0 0 -1 -470.377 407.335)">
					<stop  offset="0" style="stop-color:#ECEB23"/>
					<stop  offset="1" style="stop-color:#F49333"/>
					<a:midPointStop  offset="0" style="stop-color:#ECEB23"/>
					<a:midPointStop  offset="0.5" style="stop-color:#ECEB23"/>
					<a:midPointStop  offset="1" style="stop-color:#F49333"/>
				</linearGradient>
				<path fill="url(#XMLID_5_)" stroke="none" d="M13.602,14.283l0.166-1.323L6.752,5.798L6.547,7.079L13.602,14.283z"/>
			</g>
			<g>
				
					<linearGradient id="XMLID_6_" gradientUnits="userSpaceOnUse" x1="-479.6074" y1="395.9028" x2="-480.2047" y2="396.5001" gradientTransform="matrix(-1 0 0 -1 -470.377 407.335)">
					<stop  offset="0" style="stop-color:#ECEB23"/>
					<stop  offset="1" style="stop-color:#FFFCF7"/>
					<a:midPointStop  offset="0" style="stop-color:#ECEB23"/>
					<a:midPointStop  offset="0.5" style="stop-color:#ECEB23"/>
					<a:midPointStop  offset="1" style="stop-color:#FFFCF7"/>
				</linearGradient>
				<path fill="url(#XMLID_6_)" stroke="none" d="M12.327,15.373l1.235-1.131L6.547,7.079L5.313,8.21L12.327,15.373z"/>
			</g>
			<path stroke="none" d="M6.555,6.806L5.03,8.202l7.118,7.294l1.482-1.413L6.688,6.941L6.555,6.806z M13.28,14.234
				c-0.202,0.184-0.755,0.691-0.946,0.866c-0.25-0.256-6.472-6.609-6.74-6.882C5.797,8.033,6.35,7.526,6.54,7.352
				C6.791,7.608,13.013,13.961,13.28,14.234z"/>
			<g>
				
					<linearGradient id="XMLID_7_" gradientUnits="userSpaceOnUse" x1="-476.2598" y1="403.27" x2="-474.1164" y2="400.8114" gradientTransform="matrix(-1 0 0 -1 -470.377 407.335)">
					<stop  offset="0.0279" style="stop-color:#FF9999"/>
					<stop  offset="0.1116" style="stop-color:#FF9F9F"/>
					<stop  offset="0.2238" style="stop-color:#FFB0B0"/>
					<stop  offset="0.3523" style="stop-color:#FFCCCC"/>
					<stop  offset="0.4918" style="stop-color:#FFF3F3"/>
					<stop  offset="0.5307" style="stop-color:#FFFFFF"/>
					<stop  offset="0.6016" style="stop-color:#FFE6E6"/>
					<stop  offset="0.7129" style="stop-color:#FFC5C5"/>
					<stop  offset="0.8192" style="stop-color:#FFACAC"/>
					<stop  offset="0.9175" style="stop-color:#FF9E9E"/>
					<stop  offset="1" style="stop-color:#FF9999"/>
					<a:midPointStop  offset="0.0279" style="stop-color:#FF9999"/>
					<a:midPointStop  offset="0.5" style="stop-color:#FF9999"/>
					<a:midPointStop  offset="0.1116" style="stop-color:#FF9F9F"/>
					<a:midPointStop  offset="0.5" style="stop-color:#FF9F9F"/>
					<a:midPointStop  offset="0.2238" style="stop-color:#FFB0B0"/>
					<a:midPointStop  offset="0.5" style="stop-color:#FFB0B0"/>
					<a:midPointStop  offset="0.3523" style="stop-color:#FFCCCC"/>
					<a:midPointStop  offset="0.5" style="stop-color:#FFCCCC"/>
					<a:midPointStop  offset="0.4918" style="stop-color:#FFF3F3"/>
					<a:midPointStop  offset="0.5" style="stop-color:#FFF3F3"/>
					<a:midPointStop  offset="0.5307" style="stop-color:#FFFFFF"/>
					<a:midPointStop  offset="0.5" style="stop-color:#FFFFFF"/>
					<a:midPointStop  offset="0.6016" style="stop-color:#FFE6E6"/>
					<a:midPointStop  offset="0.5" style="stop-color:#FFE6E6"/>
					<a:midPointStop  offset="0.7129" style="stop-color:#FFC5C5"/>
					<a:midPointStop  offset="0.5" style="stop-color:#FFC5C5"/>
					<a:midPointStop  offset="0.8192" style="stop-color:#FFACAC"/>
					<a:midPointStop  offset="0.5" style="stop-color:#FFACAC"/>
					<a:midPointStop  offset="0.9175" style="stop-color:#FF9E9E"/>
					<a:midPointStop  offset="0.5" style="stop-color:#FF9E9E"/>
					<a:midPointStop  offset="1" style="stop-color:#FF9999"/>
				</linearGradient>
				<path fill="url(#XMLID_7_)" stroke="none" d="M2.438,4.185c0.018-0.018,0.037-0.034,0.056-0.051
					c0.346-0.356,0.689-0.532,1.001-0.6c0.469-0.141,0.912-0.085,1.19,0.194C4.688,3.73,4.69,3.733,4.693,3.736
					C4.728,3.757,4.746,3.77,4.746,3.77l2.039,2.061L6.748,6.902L5.345,8.244L3.978,8.516L1.938,6.454c0,0-0.022-0.042-0.049-0.117
					C1.503,5.819,1.73,4.887,2.438,4.185z"/>
			</g>
			<path stroke="none" d="M13.914,12.65c0.106,0.024,0.173,0.129,0.149,0.235l-0.325,1.46l-1.317,1.209l-1.542,0.341
				c-0.106,0.023-0.21-0.043-0.234-0.15c-0.004-0.014-0.005-0.028-0.005-0.042c0-0.09,0.062-0.171,0.153-0.191
				c0,0,1.342-0.297,1.438-0.318c0.07-0.064,1.067-0.979,1.148-1.055c0.025-0.11,0.298-1.339,0.298-1.339
				C13.704,12.693,13.809,12.626,13.914,12.65z"/>
			<path stroke="none" d="M6.732,5.251c0.61,0.614,0.187,1.981-0.585,2.748C5.608,8.535,4.854,8.879,4.228,8.877
				C3.897,8.875,3.623,8.775,3.435,8.586C3.358,8.509,3.359,8.385,3.436,8.308c0.077-0.076,0.201-0.075,0.278,0.001
				c0.143,0.144,0.358,0.174,0.515,0.175c0.52,0.002,1.179-0.306,1.642-0.765c0.688-0.684,1.002-1.788,0.603-2.19
				C6.397,5.453,6.378,5.327,6.455,5.25C6.531,5.173,6.656,5.174,6.732,5.251z"/>
			<g>
				
					<linearGradient id="XMLID_8_" gradientUnits="userSpaceOnUse" x1="-474.8438" y1="402.4204" x2="-472.6503" y2="402.2376" gradientTransform="matrix(-1 0 0 -1 -470.377 407.335)">
					<stop  offset="0" style="stop-color:#FFFFFF"/>
					<stop  offset="0.2071" style="stop-color:#FFEFEF"/>
					<stop  offset="0.6077" style="stop-color:#FFC7C7"/>
					<stop  offset="1" style="stop-color:#FF9999"/>
					<a:midPointStop  offset="0" style="stop-color:#FFFFFF"/>
					<a:midPointStop  offset="0.5" style="stop-color:#FFFFFF"/>
					<a:midPointStop  offset="0.2071" style="stop-color:#FFEFEF"/>
					<a:midPointStop  offset="0.5" style="stop-color:#FFEFEF"/>
					<a:midPointStop  offset="0.6077" style="stop-color:#FFC7C7"/>
					<a:midPointStop  offset="0.5" style="stop-color:#FFC7C7"/>
					<a:midPointStop  offset="1" style="stop-color:#FF9999"/>
				</linearGradient>
				<path fill="url(#XMLID_8_)" stroke="none" d="M4.089,5.841C4.83,5.103,5.061,4.134,4.606,3.678
					C4.151,3.222,3.182,3.451,2.442,4.189C1.701,4.927,1.47,5.895,1.925,6.351C2.38,6.808,3.349,6.579,4.089,5.841z"/>
			</g>
			<path stroke="none" d="M4.944,3.464c0.189,0.192,0.29,0.464,0.289,0.79C5.231,4.853,4.886,5.582,4.352,6.112
				C3.811,6.65,3.063,6.997,2.448,6.996c-0.325-0.001-0.595-0.102-0.782-0.29C1.59,6.629,1.591,6.505,1.667,6.428
				c0.077-0.076,0.202-0.076,0.278,0.001c0.142,0.142,0.353,0.172,0.504,0.173c0.508,0.001,1.161-0.308,1.626-0.77
				C4.531,5.38,4.838,4.745,4.84,4.252c0-0.152-0.001-0.396-0.146-0.542c-0.077-0.077-0.104-0.17-0.027-0.247
				C4.743,3.386,4.867,3.387,4.944,3.464z"/>
			
				<linearGradient id="XMLID_9_" gradientUnits="userSpaceOnUse" x1="-209.1685" y1="392.98" x2="-219.4768" y2="389.6236" gradientTransform="matrix(1 0 0 -1 237.1372 407.335)">
				<stop  offset="0" style="stop-color:#FFFFFF"/>
				<stop  offset="1" style="stop-color:#000000"/>
				<a:midPointStop  offset="0" style="stop-color:#FFFFFF"/>
				<a:midPointStop  offset="0.5" style="stop-color:#FFFFFF"/>
				<a:midPointStop  offset="1" style="stop-color:#000000"/>
			</linearGradient>
			<path a:adobe-blending-mode="multiply" opacity="0.2" fill="url(#XMLID_9_)" stroke="none" d="M15.977,18.567l11.095-2.228
				l-1.559-2.876l-9.295,4.165L15.977,18.567z"/>
			<path fill="#959AA7" stroke="none" d="M21.35,9.196l4.383,2.062l1.116-2.372l-4.383-2.062L21.35,9.196z M22.701,7.476
				c0.372,0.175,3.124,1.47,3.496,1.645c-0.143,0.303-0.557,1.182-0.699,1.483c-0.371-0.174-3.124-1.469-3.496-1.644
				C22.145,8.658,22.559,7.779,22.701,7.476z"/>
			<path opacity="0.3" stroke="none" d="M31.236,15.269l-0.073-0.123l0.119-0.457l0.562,0.231L31.236,15.269z"/>
		</g>
	</g>
</svg>
