<?xml version="1.0" encoding="UTF-8" standalone="no"?>
<!DOCTYPE svg PUBLIC "-//W3C//DTD SVG 20010904//EN"
"http://www.w3.org/TR/2001/REC-SVG-20010904/DTD/svg10.dtd">
<!-- Created with Sodipodi ("http://www.sodipodi.com/") -->
<svg
   width="48pt"
   height="48pt"
   viewBox="0 0 158.373 139.039"
   overflow="visible"
   enable-background="new 0 0 158.373 139.039"
   xml:space="preserve"
   xmlns="http://www.w3.org/2000/svg"
   xmlns:xml="http://www.w3.org/XML/1998/namespace"
   xmlns:sodipodi="http://sodipodi.sourceforge.net/DTD/sodipodi-0.dtd"
   xmlns:xlink="http://www.w3.org/1999/xlink"
   id="svg153"
   sodipodi:version="0.32pre"
   sodipodi:docname="/home/cschalle/gnome-themes-extras/Wasp/icons/scalable/stock/findreplace.svg"
   sodipodi:docbase="/home/cschalle/gnome-themes-extras/Wasp/icons/scalable/stock">
  <defs
     id="defs315" />
  <sodipodi:namedview
     id="base" />
  <g
     id="Layer_1_2_"
     style="font-size:12;stroke:#000000;">
    <path
       stroke="none"
       d="M123.369,63.183c3.147-4.85,1.901-11.425-2.785-14.684c-4.686-3.258-9.479-2.061-14.183,2.882     l26.385-27.482c4.224-4.676,9.499-6.14,14.184-2.881c4.686,3.261,5.931,9.834,2.783,14.684L123.369,63.183z"
       id="path246" />
    <path
       stroke="none"
       d="M131.312,22.474c0.041-0.045-26.342,27.435-26.342,27.435s-0.004,0.004-0.007,0.006l2.867,2.936     l0.006-0.006c5.492-5.771,9.264-4.257,11.624-2.615c3.755,2.612,4.757,7.9,2.233,11.789l3.104,2.632l26.52-27.623l0.107-0.165     c3.762-5.798,2.268-13.684-3.334-17.58C142.827,15.623,136.397,16.844,131.312,22.474z M134.215,25.37     c1.815-2.01,6.496-6.191,11.629-2.621c2.355,1.639,3.627,4.326,3.627,7.063c0,1.594-0.445,3.195-1.344,4.625     c-0.314,0.324-14.552,15.154-21.112,21.987c-0.254-3.768-2.05-7.393-5.308-9.657c-1.615-1.125-3.646-2.023-5.978-2.146     C123.486,36.544,134.215,25.37,134.215,25.37z"
       id="path247" />
    <path
       fill="#CCCCCC"
       stroke="none"
       d="M98.028,59.354l8.176-8.067c3.666-4.367,9.694-6.046,14.38-2.788     c4.685,3.258,5.933,9.834,2.785,14.684l-4.368,5.144"
       id="path248" />
    <path
       stroke="none"
       d="M104.685,49.917l0.13-0.141l-8.176,8.067l2.781,3.021l8.247-8.135l0.062-0.076     c2.789-3.32,7.712-5.221,11.733-2.422c2.354,1.636,3.627,4.326,3.627,7.063c0,1.61-0.447,3.23-1.363,4.667     c-0.25,0.295-4.236,4.988-4.236,4.988l3.027,2.756l4.454-5.245l0.073-0.112c3.763-5.798,2.268-13.683-3.333-17.58     C116.446,43.107,109.287,44.431,104.685,49.917z"
       id="path249" />
    <g
       id="g250">
      <path
         fill="#3D3D3D"
         stroke="none"
         d="M113.989,45.782l5.273,1.349l25.315-26.188c0,0-1.025-0.861-2.262-1.169      c-1.396-0.349-3.019-0.145-3.019-0.145L113.989,45.782z"
         id="path251" />
      <path
         fill="#717171"
         stroke="none"
         d="M142.394,19.857c-0.347-0.086-1.045-0.222-1.371-0.232      c-0.546-0.018-1.008,0.073-1.008,0.073l-24.989,25.788l0.847,0.275l3.263,0.495l24.669-25.517      C143.804,20.739,143.22,20.063,142.394,19.857z"
         id="path252" />
      <path
         fill="#A5A5A5"
         stroke="none"
         d="M142.473,19.94c-0.174-0.043-1.02-0.261-1.183-0.266      c-0.272-0.009-0.558,0.093-0.558,0.093l-24.668,25.422l0.915,0.353l2.027-0.162l24.022-24.846      C143.029,20.534,142.885,20.044,142.473,19.94z"
         id="path253" />
      <path
         fill="#D9D9D9"
         stroke="none"
         d="M117.101,44.893l0.987,0.43l24.462-25.299l-0.991-0.3L117.101,44.893z"
         id="path254" />
    </g>
    <path
       fill="#FFFFFF"
       stroke-width="4"
       d="M29.58,86.577c0,16.298,21.004,28.588,48.859,28.588s48.859-12.29,48.859-28.588     c0-16.301-21.005-28.59-48.859-28.59C50.584,57.986,29.58,70.276,29.58,86.577z"
       id="path255" />
    <path
       a:adobe-blending-mode="multiply"
       opacity="0.2"
       stroke="none"
       d="M78.519,136.937c5.153,1.023,9.763,0.833,15.665,0.833     c27.855,0,48.86-17.1,48.86-33.4c0-9.167-6.769-19.282-17.647-26.377c1.438,4.913,2.369,7.481,2.059,9.725c-0.311,2.248,0,0,0,0     v20.555C126.011,125.853,105.464,137.096,78.519,136.937z"
       id="path256" />
    <g
       id="g257">
      <linearGradient
         id="XMLID_7_"
         gradientUnits="userSpaceOnUse"
         x1="-202.0098"
         y1="414.8174"
         x2="-104.291"
         y2="414.8174"
         gradientTransform="matrix(1 0 0 -1 231.5898 526.627)">
        <stop
           offset="0.0056"
           style="stop-color:#9494BB"
           id="stop259" />
        <stop
           offset="0.1026"
           style="stop-color:#9898BE"
           id="stop260" />
        <stop
           offset="0.2035"
           style="stop-color:#A5A5C6"
           id="stop261" />
        <stop
           offset="0.3064"
           style="stop-color:#BABAD3"
           id="stop262" />
        <stop
           offset="0.4105"
           style="stop-color:#D7D7E5"
           id="stop263" />
        <stop
           offset="0.5147"
           style="stop-color:#FCFCFD"
           id="stop264" />
        <stop
           offset="0.5225"
           style="stop-color:#FFFFFF"
           id="stop265" />
        <stop
           offset="0.5631"
           style="stop-color:#EBEBF2"
           id="stop266" />
        <stop
           offset="0.6398"
           style="stop-color:#CCCCDE"
           id="stop267" />
        <stop
           offset="0.7198"
           style="stop-color:#B3B3CF"
           id="stop268" />
        <stop
           offset="0.8035"
           style="stop-color:#A2A2C4"
           id="stop269" />
        <stop
           offset="0.8933"
           style="stop-color:#9797BD"
           id="stop270" />
        <stop
           offset="1"
           style="stop-color:#9494BB"
           id="stop271" />
      </linearGradient>
      <path
         fill="url(#XMLID_7_)"
         stroke="none"
         d="M29.58,108.453c0,16.298,21.004,28.589,48.859,28.589s48.859-12.291,48.859-28.589      V86.577c0,16.298-21.005,28.588-48.859,28.588c-27.855,0-48.859-12.29-48.859-28.588V108.453z"
         id="path297" />
      <path
         fill="none"
         stroke-width="4"
         d="M29.58,108.453c0,16.298,21.004,28.589,48.859,28.589s48.859-12.291,48.859-28.589V86.577      c0,16.298-21.005,28.588-48.859,28.588c-27.855,0-48.859-12.29-48.859-28.588V108.453z"
         id="path298" />
    </g>
    <g
       id="g299">
      <path
         fill="none"
         stroke-width="4"
         d="M78.439,67.338c-20.527,0-37.167,8.612-37.167,19.238c0,3.24,1.558,6.295,4.297,8.977      c4.718-7.818,18.82-13.496,35.482-13.496c14.26,0,26.637,4.159,32.869,10.258c1.094-1.812,1.685-3.741,1.685-5.741      C115.605,75.95,98.967,67.338,78.439,67.338z"
         id="path300" />
    </g>
    <path
       fill="none"
       stroke-width="4"
       d="M41.273,86.577c0-10.627,16.64-19.238,37.167-19.238c20.526,0,37.167,8.611,37.167,19.238     c0,10.624-16.641,19.236-37.167,19.236C57.912,105.813,41.273,97.201,41.273,86.577z"
       id="path301" />
    <g
       id="g302">
      <g
         opacity="0.39"
         id="g303">
        <path
           fill="#8C8CDF"
           stroke="none"
           d="M78.439,104.167c18.159,0,33.15-6.647,35.473-15.259       c-5.109-6.649-18.174-11.379-33.493-11.379c-18.161,0-33.15,6.647-35.472,15.259C50.057,99.438,63.12,104.167,78.439,104.167z"
           id="path304" />
      </g>
    </g>
    <g
       opacity="0.39"
       id="g305">
      <path
         fill="#8C8CDF"
         stroke="none"
         d="M42.644,86.577c0-9.716,16.025-17.592,35.797-17.592c19.771,0,35.797,7.875,35.797,17.592      c0,9.714-16.026,17.59-35.797,17.59C58.669,104.167,42.644,96.291,42.644,86.577z"
         id="path306" />
    </g>
    <path
       a:adobe-blending-mode="multiply"
       opacity="0.2"
       stroke="none"
       d="M124.003,74.248l34.37-35.788     c0,0-3.595-4.141-6.474-3.376l-32.646,33.291L124.003,74.248z"
       id="path307" />
    <path
       fill="#FFFFFF"
       stroke="none"
       d="M102.998,59.418l1.986,0.616l10.658-10.789c0,0-0.714-0.337-1.384-0.358     c-0.594-0.017-1.156,0.285-1.156,0.285L102.998,59.418z"
       id="path308" />
    <g
       id="g309">
      <path
         a:adobe-blending-mode="lighten"
         opacity="0.5"
         fill="#FFFFFF"
         stroke="none"
         d="M60.033,81.224      c1.987-3.098,5.119-4.567,6.996-3.275c1.877,1.287,1.789,4.846-0.197,7.944c-1.985,3.099-5.118,4.565-6.995,3.278      C57.958,87.881,58.047,84.322,60.033,81.224z"
         id="path310" />
      <path
         a:adobe-blending-mode="lighten"
         opacity="0.7"
         fill="#FFFFFF"
         stroke="none"
         d="M65.231,79.693      c1.505,0.644,1.919,2.896,0.926,5.033c-0.994,2.136-3.019,3.342-4.523,2.698c-1.505-0.645-1.919-2.898-0.926-5.034      C61.702,80.255,63.726,79.047,65.231,79.693z"
         id="path311" />
      <path
         a:adobe-blending-mode="lighten"
         opacity="0.9"
         fill="#FFFFFF"
         stroke="none"
         d="M61.384,83.559      c0-1.171,0.917-2.121,2.048-2.121s2.05,0.95,2.05,2.121c0,1.172-0.918,2.121-2.05,2.121S61.384,84.73,61.384,83.559z"
         id="path312" />
    </g>
    <path
       opacity="0.67"
       fill="#FFFFFF"
       stroke="none"
       d="M91.587,94.21c0,0,10.348-4.058,11.569-9.495     c1.223-5.435,2.381,0.278,2.069,1.346c-1.616,5.518-8.564,12.251-11.954,11.694C89.882,97.201,89.701,95.033,91.587,94.21z"
       id="path313" />
  </g>
  <g
     id="g155"
     style="font-size:12;stroke:#000000;"
     transform="matrix(0.749463,0,0,0.623955,5.19096,2.83652)">
    <linearGradient
       id="XMLID_1_"
       gradientUnits="userSpaceOnUse"
       x1="-155.1045"
       y1="467.3936"
       x2="-190.7108"
       y2="434.4282"
       gradientTransform="matrix(0.5 -0.866 -0.866 -0.5 552.0211 193.8431)">
      <stop
         offset="0"
         style="stop-color:#D8DAA1"
         id="stop157" />
      <stop
         offset="1"
         style="stop-color:#5C5C3A"
         id="stop158" />
    </linearGradient>
    <path
       fill="url(#XMLID_1_)"
       stroke="none"
       d="M59.532,88.846l19.954,42.076c0.629,1.396,7.509-0.739,6.887-2.129     c0,0-21.407-43.193-23.738-42.935C60.295,86.115,58.91,87.455,59.532,88.846z"
       id="path162" />
    <g
       id="g163">
      <path
         stroke="none"
         d="M21.793,0.845l-0.778,0.144c-6.09,0.948-10.731,2.857-14.305,5.234c-5.517,3.25-7.693,7.464-6.372,11.186      c0.018,0.22,7.832,18.201,7.832,18.201c-0.002,0.016,31.4,68.95,31.4,68.95l0.298,0.655l40.072,29.303l8.055-5.463l6.316-33.525      L62.764,26.29c0.012,0.012-0.395-0.901-0.438-1.001c-0.143-0.465-0.307-1.034-0.307-1.034      c-0.188-0.067-8.921-17.561-8.921-17.561C48.522,1.047,35.54-1.442,21.793,0.845z"
         id="path164" />
    </g>
    <g
       id="g165">
      <linearGradient
         id="XMLID_2_"
         gradientUnits="userSpaceOnUse"
         x1="-172.8394"
         y1="466.0723"
         x2="-156.037"
         y2="445.6658"
         gradientTransform="matrix(0.5 -0.866 -0.866 -0.5 552.0211 193.8431)">
        <stop
           offset="0"
           style="stop-color:#FFFFFA"
           id="stop167" />
        <stop
           offset="1"
           style="stop-color:#F49333"
           id="stop168" />
      </linearGradient>
      <path
         fill="url(#XMLID_2_)"
         stroke="none"
         d="M45.331,101.809l30.235,24.122l6.156-0.205l5.059-31.338l-24.748-2.436      L45.331,101.809z"
         id="path172" />
    </g>
    <path
       stroke="none"
       d="M65.971,119.253l8.654,7.676l9.3-0.088l0.588-7.989l-10.161,1.591L65.971,119.253z"
       id="path173" />
    <g
       id="g174">
      <path
         fill="#F49300"
         stroke="none"
         d="M56.809,28.601L86.78,94.388l-10.218,7.143l-17.751,3.416l-13.483-3.139L15.362,36.021      l13.47,3.155l17.76-3.431L56.809,28.601z"
         id="path175" />
    </g>
    <g
       id="g176">
      <linearGradient
         id="XMLID_3_"
         gradientUnits="userSpaceOnUse"
         x1="-151.9116"
         y1="508.6846"
         x2="-161.097"
         y2="518.5255"
         gradientTransform="matrix(0.5 -0.866 -0.866 -0.5 552.0211 193.8431)">
        <stop
           offset="0"
           style="stop-color:#ECEB23"
           id="stop178" />
        <stop
           offset="1"
           style="stop-color:#F49333"
           id="stop179" />
      </linearGradient>
      <path
         fill="url(#XMLID_3_)"
         stroke="none"
         d="M58.984,105.339l-13.651-3.53L15.362,36.021l13.47,3.155L58.984,105.339z"
         id="path183" />
    </g>
    <g
       id="g184">
      <linearGradient
         id="XMLID_4_"
         gradientUnits="userSpaceOnUse"
         x1="-139.2383"
         y1="490.6943"
         x2="-149.3029"
         y2="500.7589"
         gradientTransform="matrix(0.5 -0.866 -0.866 -0.5 552.0211 193.8431)">
        <stop
           offset="0"
           style="stop-color:#ECEB23"
           id="stop186" />
        <stop
           offset="1"
           style="stop-color:#FFFCF7"
           id="stop187" />
      </linearGradient>
      <path
         fill="url(#XMLID_4_)"
         stroke="none"
         d="M76.563,101.53l-17.759,3.434L28.831,39.176l17.76-3.432L76.563,101.53z"
         id="path191" />
    </g>
    <path
       stroke="none"
       d="M26.731,39.537l30.164,65.284l21.847-3.932L48.088,34.051L26.16,38.292L26.731,39.537z M31.503,40.063     c2.735-0.527,10.695-2.065,13.593-2.626c1.143,2.508,27.723,60.853,28.794,63.205c-2.734,0.53-10.694,2.069-13.588,2.627     C59.157,100.763,32.573,42.416,31.503,40.063z"
       id="path192" />
    <g
       id="g193">
      <linearGradient
         id="XMLID_5_"
         gradientUnits="userSpaceOnUse"
         x1="-130.0869"
         y1="559.1436"
         x2="-105.5199"
         y2="530.9622"
         gradientTransform="matrix(0.5 -0.866 -0.866 -0.5 552.0211 193.8431)">
        <stop
           offset="0.0279"
           style="stop-color:#FF9999"
           id="stop195" />
        <stop
           offset="0.1116"
           style="stop-color:#FF9F9F"
           id="stop196" />
        <stop
           offset="0.2238"
           style="stop-color:#FFB0B0"
           id="stop197" />
        <stop
           offset="0.3523"
           style="stop-color:#FFCCCC"
           id="stop198" />
        <stop
           offset="0.4918"
           style="stop-color:#FFF3F3"
           id="stop199" />
        <stop
           offset="0.5307"
           style="stop-color:#FFFFFF"
           id="stop200" />
        <stop
           offset="0.6016"
           style="stop-color:#FFE6E6"
           id="stop201" />
        <stop
           offset="0.7129"
           style="stop-color:#FFC5C5"
           id="stop202" />
        <stop
           offset="0.8192"
           style="stop-color:#FFACAC"
           id="stop203" />
        <stop
           offset="0.9175"
           style="stop-color:#FF9E9E"
           id="stop204" />
        <stop
           offset="1"
           style="stop-color:#FF9999"
           id="stop205" />
      </linearGradient>
      <path
         fill="url(#XMLID_5_)"
         stroke="none"
         d="M23.817,5.074c-0.274,0.046-0.533,0.102-0.807,0.154      c-5.354,0.83-8.964,2.255-11.344,3.861c-3.958,2.289-5.896,5.092-4.748,7.687c0.01,0.026,0.033,0.047,0.043,0.076      c0.01,0.271,0.037,0.427,0.037,0.427l8.511,19.051l10.511,3.429l20.721-3.708l10.217-7.143L48.451,9.856      c0,0-0.285-0.274-0.85-0.691C44.753,5.127,34.516,3.296,23.817,5.074z"
         id="path227" />
    </g>
    <path
       stroke="none"
       d="M41.523,101.615c-0.366,0.705,0.277,1.457,1.426,1.679l15.862,3.056l18.967-3.649l11.847-7.932     c0.816-0.546,0.753-1.393-0.137-1.89c-0.12-0.069-0.249-0.125-0.386-0.175c-0.868-0.305-1.994-0.215-2.697,0.257     c0,0-10.323,6.905-11.063,7.399c-1.007,0.193-15.358,2.959-16.531,3.184c-1.201-0.231-14.557-2.804-14.557-2.804     C43.106,100.518,41.881,100.909,41.523,101.615z"
       id="path228" />
    <path
       stroke="none"
       d="M10.208,34.043c2.52,5.689,18.038,7.846,29.706,5.906c8.155-1.356,15.665-4.629,19.131-8.333     c1.828-1.956,2.382-3.915,1.607-5.666c-0.32-0.715-1.516-1.134-2.683-0.939c-1.165,0.193-1.851,0.927-1.534,1.643     c0.586,1.328-0.315,2.707-1.18,3.632c-2.874,3.073-9.499,5.919-16.486,7.079c-10.409,1.731-22.79-0.179-24.439-3.903     c-0.315-0.713-1.421-1.253-2.584-1.062C10.581,32.593,9.894,33.329,10.208,34.043z"
       id="path229" />
    <g
       id="g230">
      <linearGradient
         id="XMLID_6_"
         gradientUnits="userSpaceOnUse"
         x1="-117.4551"
         y1="546.0234"
         x2="-95.8214"
         y2="544.2206"
         gradientTransform="matrix(0.5 -0.866 -0.866 -0.5 552.0211 193.8431)">
        <stop
           offset="0"
           style="stop-color:#FFFFFF"
           id="stop232" />
        <stop
           offset="0.2071"
           style="stop-color:#FFEFEF"
           id="stop233" />
        <stop
           offset="0.6077"
           style="stop-color:#FFC7C7"
           id="stop234" />
        <stop
           offset="1"
           style="stop-color:#FF9999"
           id="stop235" />
      </linearGradient>
      <path
         fill="url(#XMLID_6_)"
         stroke="none"
         d="M30.579,20.458C19.356,22.312,8.75,20.376,6.882,16.14      c-1.862-4.239,5.723-9.177,16.95-11.031c11.221-1.855,21.83,0.082,23.696,4.318C49.389,13.666,41.804,18.602,30.579,20.458z"
         id="path243" />
    </g>
    <path
       stroke="none"
       d="M2.941,17.406c0.786,1.77,2.854,3.288,5.994,4.391c5.778,2.028,14.721,2.473,22.785,1.134     c8.199-1.363,15.691-4.592,19.09-8.226c1.797-1.919,2.333-3.853,1.563-5.597c-0.318-0.713-1.517-1.135-2.681-0.94     c-1.161,0.194-1.849,0.928-1.534,1.642c0.583,1.317-0.297,2.664-1.134,3.561c-2.809,3.005-9.418,5.808-16.448,6.975     c-6.894,1.147-14.719,0.796-19.466-0.871c-1.473-0.519-3.809-1.354-4.405-2.707c-0.319-0.715-1.063-1.197-2.227-1.006     C3.313,15.954,2.624,16.691,2.941,17.406z"
       id="path244" />
  </g>
</svg>
