<?xml version="1.0" encoding="UTF-8" standalone="no"?>
<!DOCTYPE svg PUBLIC "-//W3C//DTD SVG 20010904//EN"
"http://www.w3.org/TR/2001/REC-SVG-20010904/DTD/svg10.dtd">
<!-- Created with Sodipodi ("http://www.sodipodi.com/") -->
<svg
   id="svg548"
   sodipodi:version="0.32"
   width="200mm"
   height="200mm"
   sodipodi:docbase="/home/scarlet/"
   sodipodi:docname="/home/scarlet/logout.svg"
   xmlns="http://www.w3.org/2000/svg"
   xmlns:sodipodi="http://sodipodi.sourceforge.net/DTD/sodipodi-0.dtd"
   xmlns:xlink="http://www.w3.org/1999/xlink">
  <defs
     id="defs550" />
  <sodipodi:namedview
     id="base"
     showgrid="true"
     snaptogrid="true" />
  <path
     style="fill:#000000;fill-rule:evenodd;stroke:none;stroke-opacity:1;stroke-width:1pt;stroke-linejoin:miter;stroke-linecap:butt;fill-opacity:0.259036;"
     d="M 248.031 673.228 L 531.496 673.228 L 566.929 655.512 L 407.48 531.496 L 70.8661 531.496 L 248.031 673.228 z "
     id="path638"
     sodipodi:nodetypes="cccccc" />
  <g
     id="g649">
    <path
       style="font-size:12;fill:#ffa200;fill-rule:evenodd;stroke:#000000;stroke-width:9.30583;stroke-dasharray:none;stroke-linejoin:round;stroke-opacity:1;"
       d="M 412.747 481.124 L 278.676 360.459 L 245.159 377.697 L 379.229 498.361 L 412.747 481.124 z "
       id="path559"
       sodipodi:nodetypes="ccccc"
       transform="matrix(1.306024,0.000000,0.000000,1.114427,-238.0021,-338.1876)" />
    <path
       style="font-size:12;fill:#ffee00;fill-rule:evenodd;stroke:#000000;stroke-width:9.30583;stroke-dasharray:none;stroke-linejoin:round;stroke-opacity:1;fill-opacity:1;"
       d="M 245.159 377.697 L 245.159 791.403 L 379.229 912.067 L 379.229 498.361 L 245.159 377.697 z "
       id="path557"
       sodipodi:nodetypes="ccccc"
       transform="matrix(1.306024,0.000000,0.000000,1.114427,-238.0021,-343.2039)" />
    <path
       style="font-size:12;fill:#ffa200;fill-rule:evenodd;stroke:#000000;stroke-width:6.58024;stroke-dasharray:none;stroke-linejoin:round;fill-opacity:1;stroke-opacity:1;"
       d="M 269.339 427.497 L 286.098 410.259 L 286.098 823.965 L 269.339 841.202 L 269.339 427.497 z "
       id="path558"
       sodipodi:nodetypes="ccccc"
       transform="matrix(2.612031,0.000000,0.000000,1.114427,-446.2425,-259.2141)" />
  </g>
  <g
     id="g644">
    <path
       style="font-size:12;fill:#ffee00;fill-rule:evenodd;stroke:#000000;stroke-width:9.7;stroke-linejoin:round;"
       d="M 212.598 786.614 L 194.882 768.897 L 194.402 360.104 L 211.161 360.104 L 212.598 786.614 z "
       id="path555"
       sodipodi:nodetypes="ccccc"
       transform="matrix(1.306025,0.000000,0.000000,1.126013,178.4860,-341.9642)" />
    <path
       style="font-size:12;fill:#ffa200;fill-rule:evenodd;stroke:#000000;stroke-width:9.7;stroke-linejoin:round;"
       d="M 212.598 343.7 L 212.598 786.614 L 246.344 786.614 L 246.344 377.165 L 533.183 377.165 L 533.183 786.614 L 566.929 786.614 L 566.929 343.044 L 212.598 343.7 z "
       id="path552"
       transform="matrix(1.297195,0.000000,0.000000,1.126011,-237.3751,-341.9636)"
       sodipodi:nodetypes="ccccccccc" />
    <path
       style="font-size:12;fill:#ffee00;fill-rule:evenodd;stroke:#000000;stroke-width:9.7;stroke-linejoin:round;"
       d="M 212.598 786.614 L 195.852 769.554 L 195.852 327.982 L 212.598 343.044 L 212.598 786.614 z "
       id="path554"
       sodipodi:nodetypes="ccccc"
       transform="matrix(1.235456,0.000000,0.000000,1.126013,-224.2495,-341.9644)" />
    <path
       style="font-size:12;fill:#ffa200;fill-rule:evenodd;stroke:#000000;stroke-width:9.7;stroke-linejoin:round;"
       d="M 194.882 325.984 L 546.818 325.984 L 563.576 343.701 L 211.641 343.701 L 194.882 325.984 z "
       id="path556"
       sodipodi:nodetypes="ccccc"
       transform="matrix(1.306025,0.000000,0.000000,1.084273,-238.0020,-328.3582)" />
  </g>
  <g
     id="g612"
     transform="translate(-5.865097e-4,-70.86612)">
    <path
       style="font-size:12;fill:#ac0000;fill-rule:evenodd;stroke:#000000;stroke-width:9.7;stroke-linejoin:round;stroke-opacity:1;fill-opacity:1;"
       d="M 407.48 733.465 L 460.63 680.315 L 460.63 627.165 L 407.48 680.315 L 407.48 733.465 z "
       id="path564"
       sodipodi:nodetypes="ccccc"
       transform="matrix(1.306025,0.000000,0.000000,1.114427,-101.1768,-227.1940)" />
    <path
       style="font-size:12;fill:#ff0000;fill-rule:evenodd;stroke:#000000;stroke-width:9.7;stroke-linejoin:round;"
       d="M 407.48 680.315 L 566.929 839.764 L 566.929 733.465 L 407.48 574.016 L 407.48 520.866 L 318.898 538.583 L 407.48 733.465 L 407.48 680.315 z "
       id="path560"
       sodipodi:nodetypes="cccccccc"
       transform="matrix(1.306025,0.000000,0.000000,1.114427,-101.1767,-227.1944)" />
    <path
       style="font-size:12;fill:#ac0000;fill-rule:evenodd;stroke:#000000;stroke-width:9.7;stroke-linejoin:round;"
       d="M 566.929 733.465 L 620.079 680.315 L 620.079 786.614 L 566.929 839.764 L 566.929 733.465 z "
       id="path562"
       sodipodi:nodetypes="ccccc"
       transform="matrix(1.306025,0.000000,0.000000,1.114427,-101.1767,-227.1944)" />
    <path
       style="font-size:12;fill:#c60000;fill-rule:evenodd;stroke:#000000;stroke-width:9.7;stroke-linejoin:round;"
       d="M 407.48 574.016 L 566.929 733.465 L 620.079 680.315 L 460.63 520.866 L 407.48 574.016 z "
       id="path563"
       sodipodi:nodetypes="ccccc"
       transform="matrix(1.306025,0.000000,0.000000,1.114427,-101.1767,-227.1944)" />
    <path
       style="font-size:12;fill:#ac0000;fill-rule:evenodd;stroke:#000000;stroke-width:9.7;stroke-linejoin:round;stroke-opacity:1;fill-opacity:1;"
       d="M 407.48 733.465 L 460.63 680.315 L 460.63 627.165 L 407.48 680.315 L 407.48 733.465 z "
       id="path565"
       sodipodi:nodetypes="ccccc"
       transform="matrix(1.306025,0.000000,0.000000,1.114427,-101.1763,-404.8890)" />
    <path
       style="font-size:12;fill:#9d0000;fill-rule:evenodd;stroke:#000000;stroke-width:9.7;stroke-linejoin:round;"
       d="M 318.898 538.583 L 372.047 485.433 L 460.63 467.717 L 407.48 520.866 L 318.898 538.583 z "
       id="path566"
       sodipodi:nodetypes="ccccc"
       transform="matrix(1.306025,0.000000,0.000000,1.114427,-101.1768,-227.1948)" />
  </g>
</svg>
