<?xml version="1.0" encoding="utf-8"?>
<!-- Generator: Adobe Illustrator 9.0, SVG Export Plug-In  -->
<!DOCTYPE svg PUBLIC "-//W3C//DTD SVG 20000303 Stylable//EN"   "http://www.w3.org/TR/2000/03/WD-SVG-20000303/DTD/svg-20000303-stylable.dtd" [
	<!ENTITY st0 "fill:url(#aigrd1);stroke:none;">
	<!ENTITY st1 "opacity:0.35;stroke:none;">
	<!ENTITY st2 "fill:#828282;stroke:none;">
	<!ENTITY st3 "fill:none;stroke:none;">
	<!ENTITY st4 "fill-rule:nonzero;clip-rule:nonzero;stroke:#000000;stroke-miterlimit:4;">
]>
<svg  width="66pt" height="48pt" viewBox="0 0 66 48" xml:space="preserve">
	<g id="Layer_x0020_3" style="&st4;">
		<path style="&st1;" d="M42.4,44.9C38.5,45.6,14,39.3,12,37.2c-2-2.1,8.5-5.5,13.5-6.1c5.1-0.6,29.9,2.7,32.6,5.4c2.7,2.7-11.9,7.7-15.7,8.5z"/>
		<path style="&st2;" d="M39.7,8.6c-1.1,0.3-1.9,0.8-2.7,1.3c-0.6,0.4-1.2,0.7-1.6,0.7c-0.3,0-1.8-0.3-2.7-0.5C29,9.2,23.8,8,20.8,9.2c-1.3,0.5-2.7,2-4.2,4.7c-0.2-0.1-0.5-0.1-0.5-0.1c-3.3-0.8-5.9-1.5-7.7-1.8c-3.4-0.7-4.7-0.8-5.7,0.3c-0.4,0.4-0.8,1-0.8,2
			c0,0.6,0,2.3,4,9.8c1.7,3.3,4.2,7.5,5.5,8.8c0.3,0.3,0.8,0.6,1.5,1c1.5,0.9,4.1,2,8.1,3.4c5.1,1.7,10.7,3.3,15.1,4.1c7.6,1.5,9.8,0.7,10.9-0.3c2.6-2.2,4.7-7.8,5.9-12.1c0.6-2.2,1.9-6.9,1.9-9.7c0-0.7-0.1-1.2-0.2-1.6c-0.9-2.1-2.7-2.5-3.7-2.7
			c-0.1,0-0.3-0.1-0.4-0.1c0-0.1,0-0.2,0-0.3c-0.1-0.9-0.2-2.4-1.5-3.8c-2.2-2.2-7-2.6-9.3-2z"/>
		<linearGradient id="aigrd1" gradientUnits="userSpaceOnUse" x1="27.4839" y1="12.8774" x2="27.4839" y2="41.0449">
			<stop  offset="0" style="stop-color:#FFFFFF"/>
			<stop  offset="1" style="stop-color:#9E9E9E"/>
		</linearGradient>
		<path style="&st0;" d="M51.7,17.9c-0.7-1.7-2.6-1-3.7-2c-1.1-1.1,0-2.6-1.4-4c-1.4-1.4-5.2-1.9-7-1.4c-1.8,0.5-3.1,2.1-4.9,2.1c-1.8,0-10.5-2.9-13.8-1.6c-1.1,0.4-2.5,2.6-3.9,5.3C10,14.5,3.7,13,3.2,13.5c-1,1,6.8,15.3,8.7,17.2c0.4,0.4,1.8,1,3.8,1.8
			c6,2.6,18.9,6.4,25.5,6.7c0,0,0,0,0,0c0.2,0,0.4,0,0.6,0c0,0,0,0,0,0c1.4,0,2.4-0.1,2.9-0.6c3.8-3.2,7.6-19.1,6.9-20.8z"/>
		<path style="&st3;" d="M1.8,45h56.6V6.6H1.8V45z"/>
	</g>
	<g id="bbox" style="&st4;">
		<path style="&st3;" d="M66,48H0V0h66v48z"/>
	</g>
</svg>
