<?xml version="1.0" encoding="iso-8859-1"?>
<!-- Generator: Adobe Illustrator 9.0, SVG Export Plug-In  -->
<!DOCTYPE svg PUBLIC "-//W3C//DTD SVG 20000303 Stylable//EN"   "http://www.w3.org/TR/2000/03/WD-SVG-20000303/DTD/svg-20000303-stylable.dtd" [
	<!ENTITY st0 "fill-rule:evenodd;clip-rule:evenodd;fill:url(#aigrd7);stroke:none;">
	<!ENTITY st1 "fill:url(#aigrd1);stroke:none;">
	<!ENTITY st2 "fill:#535445;stroke:none;">
	<!ENTITY st3 "fill:#848484;stroke:none;">
	<!ENTITY st4 "fill:#CAD071;stroke:none;">
	<!ENTITY st5 "fill-rule:evenodd;clip-rule:evenodd;fill:url(#aigrd4);stroke-width:2.3588;">
	<!ENTITY st6 "fill:url(#aigrd3);stroke:none;">
	<!ENTITY st7 "fill-rule:evenodd;clip-rule:evenodd;fill:url(#aigrd6);stroke:none;">
	<!ENTITY st8 "fill:#545454;stroke:none;">
	<!ENTITY st9 "fill:#A3A76A;stroke:none;">
	<!ENTITY st10 "fill:#FFFFFF;stroke:none;">
	<!ENTITY st11 "fill:url(#aigrd2);stroke:none;">
	<!ENTITY st12 "opacity:0.25;stroke:none;">
	<!ENTITY st13 "fill-rule:evenodd;clip-rule:evenodd;fill:url(#aigrd5);stroke:none;">
	<!ENTITY st14 "fill:none;stroke:none;">
	<!ENTITY st15 "fill:#F0F970;stroke:none;">
	<!ENTITY st16 "fill-rule:nonzero;clip-rule:nonzero;stroke:#000000;stroke-miterlimit:4;">
	<!ENTITY st17 "stroke:none;">
	<!ENTITY st18 "fill:#2A2A26;stroke:none;">
	<!ENTITY st19 "fill:#7B7D5B;stroke:none;">
]>
<svg  width="48pt" height="48pt" viewBox="0 0 48 48" xml:space="preserve">
	<g id="Layer_x0020_3" style="&st16;">
		<path style="&st14;" d="M48,48H0V0h48v48z"/>
	</g>
	<g id="Layer_x0020_4" style="&st16;">
		<path style="&st12;" d="M45.2,27.8c1.4,0.3,2.6,2.4,0.7,3.7L25.9,43.5l-7.6-22.7l26.9,7.1z"/>
		<path style="&st17;" d="M18.4,18.4c0,0,0,0-0.1,0c-0.1,0-14.2,8.2-14.2,8.2l0,0c-1,0.6-1.8,1.5-1.9,2.9c0,0.2,0,0.4,0,0.5l0,0L2.5,34c0.1,1.4,0.9,1.9,1.4,2.1c0,0,0,0,0,0c0,0,19.4,7.4,19.4,7.4c1.2,0.5,2.7,0.2,3.6-0.6l13.9-10.6c0.9-0.8,0.9-1.6,0.9-1.8l0-0.2
			l0.2-3.1c0-0.4,0.1-1.2-0.1-1.9c-0.3-1-1-1.6-2-1.9l-18.3-5.2c-0.8-0.2-1.6-0.4-3,0.1z"/>
		<linearGradient id="aigrd1" gradientUnits="userSpaceOnUse" x1="5.2617" y1="28.8096" x2="40.4004" y2="28.8096" gradientTransform="matrix(0.997 7.730000e-002 -7.730000e-002 0.997 1.2034 -3.0036)">
			<stop  offset="0" style="stop-color:#CFCFCF"/>
			<stop  offset="1" style="stop-color:#EAEAEA"/>
		</linearGradient>
		<path style="&st1;" d="M21.2,19.7c-0.8-0.2-1.8-0.3-2.2-0.2c-0.4,0.1-13.6,7.7-14.4,8.2c-0.7,0.4-0.9,1.2,0.1,1.6c0.9,0.3,18.1,5.9,18.9,6.1c0.8,0.2,1.9,0.2,2.3-0.1c0.4-0.3,13.2-9.3,13.6-9.6c0.4-0.3-0.3-1-1-1.1c-0.6-0.2-16.5-4.6-17.3-4.8z"/>
		<linearGradient id="aigrd2" gradientUnits="userSpaceOnUse" x1="6.6738" y1="36.7891" x2="24.9926" y2="38.1085" gradientTransform="matrix(0.997 7.730000e-002 -7.730000e-002 0.997 1.2034 -3.0036)">
			<stop  offset="0" style="stop-color:#F8F8F8"/>
			<stop  offset="1" style="stop-color:#B5B5B5"/>
		</linearGradient>
		<path style="&st11;" d="M3.4,30c0-0.6,0.4-1,0.9-0.9c0.5,0.1,18.9,6.2,19.6,6.7c0.7,0.4,1.1,0.7,1,1.2c0,0.5-0.3,3.6-0.3,4.1c0,0.5-0.4,1-1.1,0.8c-2-0.5-19.1-7.3-19.1-7.3c-0.6-0.2-0.7-0.5-0.7-1.2L3.4,30z"/>
		<linearGradient id="aigrd3" gradientUnits="userSpaceOnUse" x1="28.585" y1="40.0371" x2="39.8833" y2="26.736" gradientTransform="matrix(0.997 7.730000e-002 -7.730000e-002 0.997 1.2034 -3.0036)">
			<stop  offset="0" style="stop-color:#9F9F9F"/>
			<stop  offset="1" style="stop-color:#828282"/>
		</linearGradient>
		<path style="&st6;" d="M25.5,41.6c-0.3,0.3-1-0.1-0.9-0.7c0.1-0.7,0.3-3.5,0.3-4.1c0-0.6,0.3-1.1,0.7-1.4c0.4-0.3,13.3-9.3,13.8-9.7c0.5-0.4,0.7,0.3,0.7,0.8c0,0.5-0.2,3.1-0.3,3.5c0,0.4-0.1,0.6-0.5,1c-0.4,0.3-13.5,10.3-13.8,10.6z"/>
		<g style="&st10;">
			<path d="M24.4,35.3c-1.2-0.1-20-6.4-20.2-6.5c-0.2-0.1,0-0.7,0.4-1.1c-1.2,0.8-1.2,2.2-1.2,2.2s0.2-0.6,0.7-0.7c2.3,0.8,18.7,6.5,19.3,6.7c0.7,0.2,0.9,1,0.9,1.7l0.2,3.8l0.4-3.8c0-0.6,0.3-1.8,1-2.2c0.4-0.2,8.8-6.3,11.9-8.5c-3.2,2.3-12.1,8.6-13.5,8.5z"/>
			<path d="M37.9,26.8c0.7-0.5,1.1-0.8,1.1-0.8s-0.4,0.3-1.1,0.8z"/>
		</g>
		<path style="&st3;" d="M25.3,41.7c-0.4,0.4-0.7,0.4-1.6,0.2c0.6-0.2,0.9-0.6,0.9-0.6s0.2,0.4,0.7,0.4z"/>
		<g>
			<g>
				<path style="&st17;" d="M7.9,31.7L7.9,33l-3.3-1.3l0-1.2l3.4,1.2z"/>
				<path style="&st18;" d="M7.9,31.6l-0.1,1.2l-3-1.2l0-1.1l3,1.1z"/>
				<path style="&st2;" d="M7.8,31.6l-0.1,1.1l-2.6-1l0-1l2.7,0.9z"/>
				<path style="&st19;" d="M7.7,31.6l0,0.9l-2.3-0.9l0-0.8l2.3,0.8z"/>
				<path style="&st9;" d="M7.6,31.6l0,0.8l-2-0.8l0-0.7l2,0.7z"/>
				<path style="&st4;" d="M7.6,31.6l0,0.6l-1.6-0.6l0-0.6l1.7,0.6z"/>
				<path style="&st15;" d="M7.5,31.5l0,0.5l-1.3-0.5l0-0.5l1.3,0.4z"/>
			</g>
		</g>
		<path style="&st8;" d="M38.7,24.5c0.8,0.3,1.1,0.8,0.7,1.2c0.4-0.3,0.7,0.7,0.7,0.7c0.1-0.6,0-1.5-1.4-1.9z"/>
	</g>
	<g id="Layer_x0020_7" style="&st16;">
		<path style="&st12;" d="M35.8,25.5c0,2.9-5.5,5.3-12.2,5.3c-6.8,0-12.2-2.4-12.2-5.3s5.5-5.3,12.2-5.3c6.8,0,12.2,2.4,12.2,5.3z"/>
	</g>
	<g id="Layer_x0020_5" style="&st16;">
		<radialGradient id="aigrd4" cx="18.8071" cy="12.9688" r="16.0131" fx="18.8071" fy="12.9688" gradientUnits="userSpaceOnUse">
			<stop  offset="0" style="stop-color:#2286B7"/>
			<stop  offset="1" style="stop-color:#190F50"/>
		</radialGradient>
		<path style="&st5;" d="M10.2,17.8c0,6.2,5,11.2,11.2,11.2c6.2,0,11.2-5,11.2-11.2c0-6.2-5-11.2-11.2-11.2c-6.2,0-11.2,5-11.2,11.2z"/>
		<radialGradient id="aigrd5" cx="17.793" cy="12.9556" r="16.8684" fx="17.793" fy="12.9556" gradientUnits="userSpaceOnUse">
			<stop  offset="0" style="stop-color:#99BBA8"/>
			<stop  offset="4.483276e-002" style="stop-color:#94B8A9"/>
			<stop  offset="9.596599e-002" style="stop-color:#87B0A9"/>
			<stop  offset="0.1502" style="stop-color:#72A1A9"/>
			<stop  offset="0.2065" style="stop-color:#538FA8"/>
			<stop  offset="0.264" style="stop-color:#2E79A7"/>
			<stop  offset="0.2865" style="stop-color:#1D70A5"/>
			<stop  offset="0.8539" style="stop-color:#190F50"/>
			<stop  offset="1" style="stop-color:#585287"/>
		</radialGradient>
		<path style="&st13;" d="M10.2,17.8c0,6.2,5,11.2,11.2,11.2c6.2,0,11.2-5,11.2-11.2c0-6.2-5-11.2-11.2-11.2c-6.2,0-11.2,5-11.2,11.2z"/>
		<radialGradient id="aigrd6" cx="17.3599" cy="12.8657" r="13.8798" fx="17.3599" fy="12.8657" gradientUnits="userSpaceOnUse">
			<stop  offset="0" style="stop-color:#D5D690"/>
			<stop  offset="0.2202" style="stop-color:#CFD08C"/>
			<stop  offset="0.4404" style="stop-color:#BFBF80"/>
			<stop  offset="0.6607" style="stop-color:#A4A46D"/>
			<stop  offset="0.8799" style="stop-color:#828257"/>
			<stop  offset="0.927" style="stop-color:#7A7A52"/>
			<stop  offset="1" style="stop-color:#9C9C68"/>
		</radialGradient>
		<path style="&st7;" d="M19.9,11.1l2.7,2.3l1.3-2.2l1.8,2L22.6,15l-0.4,2.8l0.6,1.1h-0.6l-0.8-1.1h-2.5l-1,1.7l2.5,1.5l3.6,2.1l-3,2.5V28l-2.3-5.2l0.9-1.6L17,19.4v-2.2l-1.2-4.6l-1.5-0.8l0.2-1.6l2-1.4v1.8l3.5,0.5z"/>
		<radialGradient id="aigrd7" cx="18.8052" cy="13.7969" r="12.0078" fx="18.8052" fy="13.7969" gradientUnits="userSpaceOnUse">
			<stop  offset="0" style="stop-color:#D5D690"/>
			<stop  offset="0.2202" style="stop-color:#CFD08C"/>
			<stop  offset="0.4404" style="stop-color:#BFBF80"/>
			<stop  offset="0.6607" style="stop-color:#A4A46D"/>
			<stop  offset="0.8799" style="stop-color:#828257"/>
			<stop  offset="0.927" style="stop-color:#7A7A52"/>
			<stop  offset="1" style="stop-color:#9C9C68"/>
		</radialGradient>
		<path style="&st0;" d="M27.8,9.8v1.4l0.8,1.4v2.2l1.2,0.7l0.2-1.4l-0.7-1.3h1.1l-2.6-3z"/>
	</g>
	<g id="Layer_x0020_6" style="&st16;">
	</g>
</svg>
