<?xml version="1.0" encoding="UTF-8" standalone="no"?>
<svg
   xmlns:xapMM="http://ns.adobe.com/xap/1.0/mm/"
   xmlns:xap="http://ns.adobe.com/xap/1.0/"
   xmlns:pdf="http://ns.adobe.com/pdf/1.3/"
   xmlns:x="adobe:ns:meta/"
   xmlns:dc="http://purl.org/dc/elements/1.1/"
   xmlns:cc="http://creativecommons.org/ns#"
   xmlns:rdf="http://www.w3.org/1999/02/22-rdf-syntax-ns#"
   xmlns:svg="http://www.w3.org/2000/svg"
   xmlns="http://www.w3.org/2000/svg"
   xmlns:xlink="http://www.w3.org/1999/xlink"
   xmlns:sodipodi="http://sodipodi.sourceforge.net/DTD/sodipodi-0.dtd"
   xmlns:inkscape="http://www.inkscape.org/namespaces/inkscape"
   viewBox="0 0 48 48"
   height="128"
   width="128"
   style="overflow:visible"
   id="svg548"
   version="1.1"
   sodipodi:docname="folder-development.svg"
   inkscape:version="0.92.3 (2405546, 2018-03-11)"
   inkscape:export-filename="/home/wachin/Dropbox/UbuntuManuales/icons/nuvola/source/folderl-remote/folder-remote.png"
   inkscape:export-xdpi="96"
   inkscape:export-ydpi="96">
  <sodipodi:namedview
     pagecolor="#ffffff"
     bordercolor="#666666"
     borderopacity="1"
     objecttolerance="10"
     gridtolerance="10"
     guidetolerance="10"
     inkscape:pageopacity="0"
     inkscape:pageshadow="2"
     inkscape:window-width="1280"
     inkscape:window-height="720"
     id="namedview110"
     showgrid="false"
     inkscape:zoom="2.6074563"
     inkscape:cx="61.883559"
     inkscape:cy="71.041307"
     inkscape:window-x="-4"
     inkscape:window-y="-2"
     inkscape:window-maximized="1"
     inkscape:current-layer="svg548"
     inkscape:snap-global="false" />
  <defs
     id="defs664">
    <radialGradient
       gradientUnits="userSpaceOnUse"
       gradientTransform="matrix(0.3749,0,0,0.375,14.9959,14.624986)"
       fy="47.091801"
       fx="49.904301"
       r="30.083599"
       cy="47.091801"
       cx="49.904301"
       id="XMLID_15_">
      <stop
         id="stop555"
         style="stop-color:#85CAFF"
         offset="0" />
      <stop
         id="stop556"
         style="stop-color:#003DA9"
         offset="1" />
    </radialGradient>
    <linearGradient
       y2="40.926601"
       x2="33.705101"
       y1="29.922899"
       x1="33.705101"
       gradientUnits="userSpaceOnUse"
       id="XMLID_16_">
      <stop
         id="stop562"
         style="stop-color:#3399FF"
         offset="0" />
      <stop
         id="stop563"
         style="stop-color:#3399FF"
         offset="1" />
    </linearGradient>
    <linearGradient
       y2="29.5782"
       x2="36.869"
       y1="24.5171"
       x1="43.6172"
       gradientUnits="userSpaceOnUse"
       id="XMLID_17_">
      <stop
         id="stop569"
         style="stop-color:#3399FF"
         offset="0" />
      <stop
         id="stop570"
         style="stop-color:#000000"
         offset="1" />
    </linearGradient>
    <linearGradient
       gradientTransform="matrix(0.38749492,0,0,0.38749492,-0.79864641,-1.9553698)"
       y2="15.0197"
       x2="52.5445"
       y1="95.0156"
       x1="107.209"
       gradientUnits="userSpaceOnUse"
       id="XMLID_18_">
      <stop
         id="stop578"
         style="stop-color:#888888"
         offset="0" />
      <stop
         id="stop579"
         style="stop-color:#555555"
         offset="1" />
    </linearGradient>
    <linearGradient
       gradientTransform="matrix(0.38749492,0,0,0.38749492,-0.79864641,-1.9553698)"
       y2="53.8789"
       x2="122.3945"
       y1="53.8789"
       x1="35.8013"
       gradientUnits="userSpaceOnUse"
       id="XMLID_29_">
      <stop
         id="stop586"
         style="stop-color:#ffffff"
         offset="0" />
      <stop
         id="stop587"
         style="stop-color:#cecedb"
         offset="1" />
    </linearGradient>
    <linearGradient
       gradientTransform="matrix(0.38749492,0,0,0.38749492,-0.79864641,-1.9553698)"
       y2="80.001999"
       x2="79.097702"
       y1="32.003899"
       x1="79.097702"
       gradientUnits="userSpaceOnUse"
       id="XMLID_19_">
      <stop
         id="stop594"
         style="stop-color:#ffffff"
         offset="0" />
      <stop
         id="stop595"
         style="stop-color:#bdbdcf"
         offset="1" />
    </linearGradient>
    <linearGradient
       gradientTransform="matrix(0.38747346,0,0,0.38747346,-0.79803919,-1.9561422)"
       y2="119.9015"
       x2="56.5815"
       y1="26.3452"
       x1="56.5815"
       gradientUnits="userSpaceOnUse"
       id="XMLID_20_">
      <stop
         id="stop232"
         style="stop-color:#0066cc"
         offset="0" />
      <stop
         id="stop234"
         style="stop-color:#003399"
         offset="1" />
    </linearGradient>
    <radialGradient
       gradientUnits="userSpaceOnUse"
       gradientTransform="matrix(0.3714,-0.0512,0.0511,0.3715,13.2666,16.712286)"
       fy="18.062"
       fx="38.167999"
       r="90.268204"
       cy="18.062"
       cx="38.167999"
       id="XMLID_21_">
      <stop
         id="stop602"
         style="stop-color:#99CCFF"
         offset="0" />
      <stop
         id="stop603"
         style="stop-color:#3399FF"
         offset="0.5" />
      <stop
         id="stop604"
         style="stop-color:#3366FF"
         offset="1" />
    </radialGradient>
    <linearGradient
       gradientTransform="matrix(0.38386996,-0.05285138,0.05285138,0.38386996,-4.5555243,2.4590016)"
       y2="37.7549"
       x2="23.8281"
       y1="45.498"
       x1="23.8281"
       gradientUnits="userSpaceOnUse"
       id="XMLID_22_">
      <stop
         id="stop612"
         style="stop-color:#0872ff"
         offset="0" />
      <stop
         id="stop613"
         style="stop-color:#3b92ff"
         offset="0.271" />
      <stop
         id="stop614"
         style="stop-color:#64abff"
         offset="0.495" />
      <stop
         id="stop615"
         style="stop-color:#81bdff"
         offset="0.698" />
      <stop
         id="stop616"
         style="stop-color:#93c8ff"
         offset="0.8731" />
      <stop
         id="stop617"
         style="stop-color:#99ccff"
         offset="1" />
    </linearGradient>
    <linearGradient
       gradientTransform="matrix(0.9907,-0.1364,0.1364,0.9907,-4.6134,5.5667)"
       y2="34.062"
       x2="29.0541"
       y1="13.7358"
       x1="13.4614"
       gradientUnits="userSpaceOnUse"
       id="XMLID_23_">
      <stop
         id="stop623"
         style="stop-color:#FFFFFF"
         offset="0" />
      <stop
         id="stop624"
         style="stop-color:#66B3FF"
         offset="1" />
    </linearGradient>
    <linearGradient
       gradientTransform="matrix(0.35205106,0.16185096,-0.16185096,0.35205106,10.725319,-12.849318)"
       y2="107.4253"
       x2="101.7489"
       y1="59.0239"
       x1="31.8359"
       gradientUnits="userSpaceOnUse"
       id="XMLID_25_">
      <stop
         id="stop639"
         style="stop-color:#ffffff"
         offset="0" />
      <stop
         id="stop640"
         style="stop-color:#3399ff"
         offset="1" />
    </linearGradient>
    <linearGradient
       gradientTransform="translate(0,-0.37501362)"
       y2="26.7041"
       x2="40.5078"
       y1="26.7041"
       x1="12.4033"
       gradientUnits="userSpaceOnUse"
       id="XMLID_27_">
      <stop
         id="stop647"
         style="stop-color:#888888"
         offset="0" />
      <stop
         id="stop648"
         style="stop-color:#555555"
         offset="1" />
    </linearGradient>
    <linearGradient
       y2="36.6497"
       x2="36.1435"
       y1="40.6279"
       x1="41.5449"
       gradientUnits="userSpaceOnUse"
       id="XMLID_28_">
      <stop
         id="stop376"
         style="stop-color:#dcf0ff"
         offset="0" />
      <stop
         id="stop378"
         style="stop-color:#57adff"
         offset="0.6742" />
      <stop
         id="stop380"
         style="stop-color:#428aff"
         offset="1" />
    </linearGradient>
    <linearGradient
       gradientTransform="translate(-51,-76)"
       y2="175.6378"
       x2="126"
       y1="116.3"
       x1="126"
       gradientUnits="userSpaceOnUse"
       id="XMLID_12_">
      <stop
         id="stop3323"
         style="stop-color:#FFFFFF"
         offset="0" />
      <stop
         id="stop3324"
         style="stop-color:#FEFEFD"
         offset="0.2918" />
      <stop
         id="stop3325"
         style="stop-color:#FBF9F5"
         offset="0.4294" />
      <stop
         id="stop3326"
         style="stop-color:#F6F1E8"
         offset="0.5347" />
      <stop
         id="stop3327"
         style="stop-color:#EFE6D6"
         offset="0.6236" />
      <stop
         id="stop3328"
         style="stop-color:#E5D8BE"
         offset="0.7022" />
      <stop
         id="stop3329"
         style="stop-color:#D9C6A1"
         offset="0.7734" />
      <stop
         id="stop3330"
         style="stop-color:#CBB17E"
         offset="0.8392" />
      <stop
         id="stop3331"
         style="stop-color:#BB9955"
         offset="0.9007" />
      <stop
         id="stop3333"
         style="stop-color:#996600"
         offset="1" />
    </linearGradient>
    <linearGradient
       gradientTransform="matrix(0,1,1,0,182.1133,-309.1123)"
       y2="-107.1133"
       x2="424.5777"
       y1="-107.1133"
       x1="318.38379"
       gradientUnits="userSpaceOnUse"
       id="XMLID_13_">
      <stop
         id="stop3339"
         style="stop-color:#FFFFFF"
         offset="0" />
      <stop
         id="stop3340"
         style="stop-color:#FFFEFD"
         offset="0.3651" />
      <stop
         id="stop3341"
         style="stop-color:#FEFBF5"
         offset="0.5373" />
      <stop
         id="stop3342"
         style="stop-color:#FCF7E8"
         offset="0.669" />
      <stop
         id="stop3343"
         style="stop-color:#FAF0D6"
         offset="0.7802" />
      <stop
         id="stop3346"
         style="stop-color:#F1D894"
         offset="1" />
    </linearGradient>
    <linearGradient
       gradientTransform="matrix(0,1,1,0,182.1133,-309.1123)"
       y2="-91.3797"
       x2="355.11069"
       y1="-70.630402"
       x1="334.3613"
       gradientUnits="userSpaceOnUse"
       id="XMLID_14_">
      <stop
         id="stop3357"
         style="stop-color:#000000"
         offset="0" />
      <stop
         id="stop3358"
         style="stop-color:#FFFFFF"
         offset="1" />
    </linearGradient>
    <clipPath
       clipPathUnits="userSpaceOnUse"
       id="clipPath3588">
      <path
         inkscape:connector-curvature="0"
         style="fill:url(#linearGradient3592);fill-opacity:1;stroke:none;stroke-width:4;stroke-linecap:round;stroke-linejoin:round;stroke-miterlimit:4;stroke-opacity:1"
         d="M 33.6875,23.03125 C 31.691577,23.052949 29.800974,23.086795 28,23.125 V 80 l 4,-4 4,4 V 23.03125 c -0.759566,0.0053 -1.581338,-0.0079 -2.3125,0 z"
         id="path3590"
         sodipodi:nodetypes="ccccccc" />
    </clipPath>
    <linearGradient
       id="c"
       y2="397.34"
       gradientUnits="userSpaceOnUse"
       x2="12.991"
       gradientTransform="matrix(2.573,0,0,-2.573,207.924,1307.73)"
       y1="397.34"
       x1="-117">
      <stop
         stop-color="#0053BD"
         offset="0"
         id="stop19" />
      <stop
         stop-color="#0032A4"
         offset="1"
         id="stop21" />
    </linearGradient>
    <radialGradient
       id="d"
       gradientUnits="userSpaceOnUse"
       cy="439.63"
       cx="-57.021999"
       gradientTransform="matrix(2.573,0,0,-2.573,207.924,1307.73)"
       r="98">
      <stop
         stop-color="#FFF"
         offset="0"
         id="stop24" />
      <stop
         stop-color="#57ADFF"
         offset="0.6"
         id="stop26" />
      <stop
         stop-color="#C9E6FF"
         offset="1"
         id="stop28" />
    </radialGradient>
    <linearGradient
       id="e"
       y2="183.37"
       gradientUnits="userSpaceOnUse"
       x2="127.66"
       gradientTransform="matrix(2.573,0,0,2.573,-251.365,-39.26)"
       y1="63.215"
       x1="127.66">
      <stop
         stop-color="#006a00"
         offset="0"
         id="stop31" />
      <stop
         stop-color="#004000"
         offset="0.2"
         id="stop33" />
      <stop
         stop-color="#00d000"
         offset="1"
         id="stop35" />
    </linearGradient>
    <linearGradient
       id="f"
       y2="361.42001"
       gradientUnits="userSpaceOnUse"
       x2="-52.250999"
       gradientTransform="matrix(2.573,0,0,-2.573,207.924,1307.73)"
       y1="457.03"
       x1="-52.250999">
      <stop
         stop-color="#FFF"
         offset="0"
         id="stop38" />
      <stop
         stop-color="#94CAFF"
         offset="1"
         id="stop40" />
    </linearGradient>
    <linearGradient
       id="g"
       y2="158.07001"
       xlink:href="#a"
       gradientUnits="userSpaceOnUse"
       x2="141.27"
       gradientTransform="matrix(2.573,0,0,2.573,-251.365,-39.26)"
       y1="70.428001"
       x1="141.27" />
    <linearGradient
       id="a"
       y2="158.07001"
       gradientUnits="userSpaceOnUse"
       y1="70.428001"
       gradientTransform="matrix(1.68,0,0,1.68,-86.7,-86.7)"
       x2="141.27"
       x1="141.27">
      <stop
         stop-color="#FFF"
         offset="0"
         id="stop12" />
      <stop
         stop-color="#00a100"
         offset="0.5"
         id="stop14" />
      <stop
         stop-color="#000"
         offset="1"
         id="stop16" />
    </linearGradient>
    <linearGradient
       id="h"
       y2="130.03"
       xlink:href="#a"
       gradientUnits="userSpaceOnUse"
       x2="100.51"
       gradientTransform="matrix(2.573,0,0,2.573,-251.365,-39.26)"
       y1="70.032997"
       x1="100.51" />
    <linearGradient
       id="i"
       y2="85.32"
       xlink:href="#b"
       gradientUnits="userSpaceOnUse"
       x2="120.48"
       gradientTransform="matrix(2.573,0,0,2.573,-251.365,-39.26)"
       y1="68.116997"
       x1="120.48" />
    <linearGradient
       id="b"
       y2="158.07001"
       gradientUnits="userSpaceOnUse"
       x2="141.27"
       gradientTransform="matrix(1.68,0,0,1.68,-86.7,-86.7)"
       y1="70.428001"
       x1="141.27">
      <stop
         stop-color="#FFF"
         offset="0"
         id="stop7" />
      <stop
         stop-color="#00a200"
         offset="1"
         id="stop9" />
    </linearGradient>
    <linearGradient
       id="j"
       y2="79.161003"
       xlink:href="#b"
       gradientUnits="userSpaceOnUse"
       x2="124.57"
       y1="73.444"
       x1="124.57" />
    <linearGradient
       id="k"
       y2="73.864998"
       xlink:href="#b"
       gradientUnits="userSpaceOnUse"
       x2="132.78"
       y1="67.755997"
       x1="132.78" />
    <linearGradient
       x1="-0.1577"
       y1="-19.3423"
       x2="65.0933"
       y2="45.908699"
       id="XMLID_1_"
       gradientUnits="userSpaceOnUse"
       spreadMethod="pad">
      <stop
         style="stop-color:#000000"
         offset="0"
         id="stop553" />
      <stop
         style="stop-color:#616161"
         offset="1"
         id="stop554" />
    </linearGradient>
    <linearGradient
       x1="28.318399"
       y1="9.1415997"
       x2="60.861401"
       y2="41.684601"
       id="XMLID_2_"
       gradientUnits="userSpaceOnUse"
       spreadMethod="pad">
      <stop
         style="stop-color:#000000"
         offset="0"
         id="stop560" />
      <stop
         style="stop-color:#616161"
         offset="1"
         id="stop561" />
    </linearGradient>
    <linearGradient
       x1="95.908203"
       y1="22.086399"
       x2="96.787498"
       y2="14.1722"
       id="XMLID_4_"
       gradientUnits="userSpaceOnUse"
       gradientTransform="matrix(0.9785,-0.2064,0.2064,0.9785,-16.6535,15)"
       spreadMethod="pad">
      <stop
         style="stop-color:#919697"
         offset="0"
         id="stop577" />
      <stop
         style="stop-color:#8c9192"
         offset="0.1441"
         id="stop578-3" />
      <stop
         style="stop-color:#7f8384"
         offset="0.31"
         id="stop579-6" />
      <stop
         style="stop-color:#696c6d"
         offset="0.4867"
         id="stop580" />
      <stop
         style="stop-color:#4a4c4d"
         offset="0.67089999"
         id="stop581" />
      <stop
         style="stop-color:#222424"
         offset="0.859"
         id="stop582" />
      <stop
         style="stop-color:#000000"
         offset="1"
         id="stop583" />
    </linearGradient>
    <linearGradient
       x1="129.3555"
       y1="24.320299"
       x2="13.1277"
       y2="26.443399"
       id="XMLID_6_"
       gradientUnits="userSpaceOnUse"
       gradientTransform="matrix(0.9785,-0.2064,0.2064,0.9785,-16.6535,15)"
       spreadMethod="pad">
      <stop
         style="stop-color:#ffffff"
         offset="0"
         id="stop596" />
      <stop
         style="stop-color:#000000"
         offset="1"
         id="stop597" />
    </linearGradient>
    <linearGradient
       x1="15.8457"
       y1="37.566399"
       x2="63.027802"
       y2="37.566399"
       id="XMLID_7_"
       gradientUnits="userSpaceOnUse"
       gradientTransform="matrix(0.9785,-0.2064,0.2064,0.9785,-16.6535,15)"
       spreadMethod="pad">
      <stop
         style="stop-color:#ffffff"
         offset="0"
         id="stop603-7" />
      <stop
         style="stop-color:#cccccc"
         offset="0.25839999"
         id="stop604-5" />
      <stop
         style="stop-color:#616161"
         offset="1"
         id="stop605" />
    </linearGradient>
    <linearGradient
       x1="43.688499"
       y1="38.276402"
       x2="62.5327"
       y2="38.276402"
       id="XMLID_8_"
       gradientUnits="userSpaceOnUse"
       gradientTransform="matrix(0.9785,-0.2064,0.2064,0.9785,-16.6535,15)"
       spreadMethod="pad">
      <stop
         style="stop-color:#b2b2b2"
         offset="0"
         id="stop613-3" />
      <stop
         style="stop-color:#616161"
         offset="1"
         id="stop614-5" />
    </linearGradient>
    <linearGradient
       x1="18.331499"
       y1="44.888699"
       x2="63.027802"
       y2="44.888699"
       id="XMLID_9_"
       gradientUnits="userSpaceOnUse"
       gradientTransform="matrix(0.9785,-0.2064,0.2064,0.9785,-16.6535,15)"
       spreadMethod="pad">
      <stop
         style="stop-color:#8a9396"
         offset="0"
         id="stop620" />
      <stop
         style="stop-color:#616161"
         offset="1"
         id="stop621" />
    </linearGradient>
    <linearGradient
       spreadMethod="pad"
       gradientTransform="matrix(0.9785,-0.2064,0.2064,0.9785,-16.6535,15)"
       gradientUnits="userSpaceOnUse"
       id="XMLID_10_"
       y2="37.8955"
       x2="58.932499"
       y1="37.8955"
       x1="29.915501">
      <stop
         id="stop628"
         offset="0"
         style="stop-color:#b2b2b2" />
      <stop
         id="stop629"
         offset="1"
         style="stop-color:#616161" />
    </linearGradient>
    <linearGradient
       x1="74.902298"
       y1="86.377899"
       x2="88.311501"
       y2="78.537804"
       id="XMLID_11_"
       gradientUnits="userSpaceOnUse"
       gradientTransform="matrix(0.9785,-0.2064,0.2064,0.9785,-16.6535,15)"
       spreadMethod="pad">
      <stop
         style="stop-color:#c46701"
         offset="0"
         id="stop637" />
      <stop
         style="stop-color:#ff9200"
         offset="1"
         id="stop638" />
    </linearGradient>
    <linearGradient
       x1="37.692402"
       y1="35.555698"
       x2="32.710499"
       y2="24.4193"
       id="XMLID_12_-6"
       gradientUnits="userSpaceOnUse"
       gradientTransform="matrix(0.9785,-0.2064,0.2064,0.9785,-16.6535,15)"
       spreadMethod="pad">
      <stop
         style="stop-color:#cccccc"
         offset="0"
         id="stop647-2" />
      <stop
         style="stop-color:#616161"
         offset="1"
         id="stop648-9" />
    </linearGradient>
    <linearGradient
       x1="20.580601"
       y1="35.917"
       x2="31.4247"
       y2="56.726002"
       id="XMLID_13_-1"
       gradientUnits="userSpaceOnUse"
       gradientTransform="matrix(0.9785,-0.2064,0.2064,0.9785,-16.6535,15)"
       spreadMethod="pad">
      <stop
         style="stop-color:#cecedb"
         offset="0"
         id="stop654" />
      <stop
         style="stop-color:#919697"
         offset="1"
         id="stop655" />
    </linearGradient>
    <linearGradient
       x1="14.2798"
       y1="32.663601"
       x2="29.0812"
       y2="47.465"
       id="XMLID_14_-2"
       gradientUnits="userSpaceOnUse"
       gradientTransform="matrix(0.9785,-0.2064,0.2064,0.9785,-16.6535,15)"
       spreadMethod="pad">
      <stop
         style="stop-color:#ffffff"
         offset="0"
         id="stop662" />
      <stop
         style="stop-color:#cccccc"
         offset="1"
         id="stop663" />
    </linearGradient>
    <linearGradient
       x1="107.2861"
       y1="26.596701"
       x2="39.8955"
       y2="26.5977"
       id="XMLID_15_-7"
       gradientUnits="userSpaceOnUse"
       gradientTransform="matrix(0.9785,-0.2064,0.2064,0.9785,-16.6535,15)"
       spreadMethod="pad">
      <stop
         style="stop-color:#cecedb"
         offset="0"
         id="stop672" />
      <stop
         style="stop-color:#919697"
         offset="1"
         id="stop673" />
    </linearGradient>
    <linearGradient
       x1="71.807602"
       y1="-6.0854001"
       x2="67.411301"
       y2="42.8578"
       id="XMLID_16_-0"
       gradientUnits="userSpaceOnUse"
       gradientTransform="matrix(0.9785,-0.2064,0.2064,0.9785,-16.6535,15)"
       spreadMethod="pad">
      <stop
         style="stop-color:#ffffff"
         offset="0"
         id="stop679" />
      <stop
         style="stop-color:#999999"
         offset="1"
         id="stop680" />
    </linearGradient>
    <linearGradient
       x1="114.1973"
       y1="102.0508"
       x2="107.7023"
       y2="124.034"
       id="XMLID_17_-9"
       gradientUnits="userSpaceOnUse"
       spreadMethod="pad">
      <stop
         style="stop-color:#ff6d00"
         offset="0"
         id="stop692" />
      <stop
         style="stop-color:#824f26"
         offset="1"
         id="stop693" />
    </linearGradient>
    <linearGradient
       x1="93.214798"
       y1="26.728001"
       x2="93.214798"
       y2="20.023701"
       id="XMLID_18_-3"
       gradientUnits="userSpaceOnUse"
       gradientTransform="matrix(0.9785,-0.2064,0.2064,0.9785,-16.6535,15)"
       spreadMethod="pad">
      <stop
         style="stop-color:#ffffff"
         offset="0"
         id="stop699" />
      <stop
         style="stop-color:#b2b2b2"
         offset="1"
         id="stop700" />
    </linearGradient>
    <linearGradient
       x1="96.575203"
       y1="68.505898"
       x2="64.673401"
       y2="88.094704"
       id="XMLID_19_-6"
       gradientUnits="userSpaceOnUse"
       spreadMethod="pad">
      <stop
         style="stop-color:#ffffff"
         offset="0"
         id="stop707" />
      <stop
         style="stop-color:#ff7f00"
         offset="1"
         id="stop708" />
    </linearGradient>
  </defs>
  <metadata
     id="metadata549">
    <xpacket>
begin='﻿' id='W5M0MpCehiHzreSzNTczkc9d'</xpacket>
    <x:xmpmeta
       x:xmptk="XMP toolkit 3.0-29, framework 1.6">
      <metadata>
        <rdf:RDF>
          <rdf:Description
             rdf:about="uuid:1d5424af-bcf6-4c39-808f-267922041dc2">
            <pdf:Producer>
Adobe PDF library 5.00</pdf:Producer>
          </rdf:Description>
          <rdf:Description
             rdf:about="uuid:1d5424af-bcf6-4c39-808f-267922041dc2" />
          <rdf:Description
             rdf:about="uuid:1d5424af-bcf6-4c39-808f-267922041dc2" />
          <rdf:Description
             rdf:about="uuid:1d5424af-bcf6-4c39-808f-267922041dc2">
            <xap:CreateDate>
2003-03-10T02:02:16+02:00</xap:CreateDate>
            <xap:ModifyDate>
2004-03-29T08:59:47Z</xap:ModifyDate>
            <xap:CreatorTool>
Adobe Illustrator 10.0</xap:CreatorTool>
            <xap:MetadataDate>
2004-01-18T18:44:12+01:00</xap:MetadataDate>
          </rdf:Description>
          <rdf:Description
             rdf:about="uuid:1d5424af-bcf6-4c39-808f-267922041dc2">
            <xapMM:DocumentID>
uuid:c0ca0d88-d3d0-4de4-88fb-576c6d69015f</xapMM:DocumentID>
          </rdf:Description>
          <rdf:Description
             rdf:about="uuid:1d5424af-bcf6-4c39-808f-267922041dc2">
            <dc:format>
image/svg+xml</dc:format>
            <dc:title>
              <rdf:Alt>
                <rdf:li
                   xml:lang="x-default">
folder-1.ai</rdf:li>
              </rdf:Alt>
            </dc:title>
          </rdf:Description>
          <cc:Work
             rdf:about="">
            <dc:format>image/svg+xml</dc:format>
            <dc:type
               rdf:resource="http://purl.org/dc/dcmitype/StillImage" />
            <dc:title></dc:title>
          </cc:Work>
        </rdf:RDF>
      </metadata>
    </x:xmpmeta>
    <xpacket>
end='w'</xpacket>
  </metadata>
  <path
     id="path551"
     d="M 47.465,24.408 C 47.3,24.215 47.048,24.117 46.795,24.151 l -6.457,0.861 -1.453,-10.557 c -0.034,-0.247 -0.165,-0.469 -0.363,-0.619 -0.198,-0.15 -0.447,-0.216 -0.693,-0.182 0,0 -22.446,3.091 -24.169,3.328 -0.009,-0.064 -0.029,-0.211 -0.029,-0.211 -0.252,-1.833 -1.874,-3.128 -3.615,-2.889 l -5.581,0.769 c -0.813,0.112 -1.541,0.542 -2.049,1.212 -0.444,0.586 -0.683,1.321 -0.683,2.069 0,0.159 0.011,0.318 0.032,0.477 L 4.886,41.281 25.7145,44.2635 41.737,42.057 c 0.246,-0.034 0.469,-0.164 0.618,-0.362 0.015,-0.019 0.023,-0.039 0.036,-0.059 0.188,-0.089 0.34,-0.249 0.402,-0.457 l 4.818,-16.067 c 0.075,-0.246 0.019,-0.51 -0.146,-0.704 z"
     style="opacity:0.2" />
  <use
     height="100%"
     width="100%"
     transform="translate(-0.249,-0.375)"
     id="use552"
     xlink:href="#path551"
     y="0"
     x="0" />
  <use
     height="100%"
     width="100%"
     transform="translate(-0.624,-0.812)"
     x="0"
     y="0"
     xlink:href="#path551"
     id="use553" />
  <path
     id="path560"
     d="m 45.797,22.963 -24.382,3.252 c -0.393,0.052 -0.676,0.4 -0.648,0.796 l 0.98,13.903 c 0.029,0.409 0.382,0.72 0.792,0.696 l 18.582,-1.088 c 0.314,-0.02 0.584,-0.231 0.675,-0.533 l 4.818,-16.068 c 0.073,-0.244 0.019,-0.508 -0.147,-0.702 -0.166,-0.193 -0.418,-0.289 -0.67,-0.256 z"
     style="fill:url(#XMLID_15_)" />
  <path
     id="path567"
     d="m 21.515,26.959 0.98,13.903 18.582,-1.088 4.819,-16.067 z"
     style="fill:url(#XMLID_16_)" />
  <path
     id="path574"
     d="m 21.116,27.573 0.955,13.544 18.267,-1.07 4.697,-15.663 z"
     style="opacity:0.5;fill:url(#XMLID_17_)" />
  <path
     id="path575"
     d="m 23.793,1.616 c -1.203,-0.363 -2.477,0.32 -2.84,1.523 L 13.205,28.812 c -0.363,1.203 0.32,2.479 1.523,2.842 l 22.586,6.819 c 1.203,0.363 2.478,-0.32 2.841,-1.523 l 7.747,-25.674 c 0.363,-1.203 -0.32,-2.478 -1.522,-2.841 z"
     style="opacity:0.2" />
  <use
     height="100%"
     width="100%"
     transform="translate(-0.375,-0.749)"
     id="use576"
     xlink:href="#path575"
     y="0"
     x="0" />
  <path
     id="path583"
     d="m 23.089,0.491 c -1.203,-0.363 -2.477,0.32 -2.84,1.523 L 12.501,27.687 c -0.363,1.203 0.32,2.479 1.523,2.842 l 22.586,6.819 c 1.203,0.363 2.478,-0.32 2.841,-1.523 l 7.748,-25.674 C 47.561,8.948 46.879,7.673 45.676,7.31 Z"
     style="fill:url(#XMLID_18_)" />
  <path
     id="path584"
     d="m 13.143,27.881 c -0.256,0.852 0.225,1.749 1.075,2.006 l 22.587,6.82 c 0.851,0.256 1.748,-0.225 2.005,-1.076 L 46.557,9.958 c 0.257,-0.851 -0.225,-1.749 -1.074,-2.005 l -22.587,-6.82 c -0.851,-0.257 -1.748,0.225 -2.005,1.075 z"
     style="fill:url(#XMLID_29_)" />
  <path
     id="path591"
     d="m 22.702,1.774 c -0.495,-0.149 -1.02,0.132 -1.17,0.628 L 13.785,28.075 c -0.15,0.495 0.132,1.021 0.627,1.17 l 22.586,6.82 c 0.495,0.148 1.02,-0.132 1.169,-0.628 L 45.916,9.764 c 0.148,-0.496 -0.133,-1.021 -0.628,-1.17 z"
     style="fill:url(#XMLID_19_)" />
  <path
     id="path599"
     d="m 36.829,12.466 c 0,0 -22.446,3.092 -24.168,3.329 -0.009,-0.064 -0.029,-0.211 -0.029,-0.211 -0.252,-1.833 -1.874,-3.129 -3.614,-2.889 l -5.581,0.769 c -0.814,0.111 -1.541,0.541 -2.049,1.211 -0.444,0.586 -0.684,1.32 -0.684,2.069 0,0.159 0.011,0.318 0.033,0.477 l 3.151,22.871 c 0.019,0.135 0.066,0.265 0.14,0.38 1.105,1.717 2.423,3.259 3.917,4.582 0.205,0.182 0.478,0.264 0.749,0.227 l 32.044,-4.414 c 0.246,-0.033 0.469,-0.164 0.619,-0.361 0.15,-0.198 0.216,-0.448 0.182,-0.694 l -3.654,-26.544 c -0.033,-0.247 -0.164,-0.469 -0.361,-0.62 -0.199,-0.15 -0.449,-0.216 -0.695,-0.182 z"
     style="fill:url(#XMLID_20_)" />
  <path
     id="path600"
     d="m 39.385,14.392 c -0.034,-0.247 -0.164,-0.469 -0.362,-0.62 -0.198,-0.15 -0.447,-0.215 -0.693,-0.182 l -20.694,2.85 -3.85,12.759 25.353452,7.655324 2.293725,-7.597524 z"
     style="opacity:0.2" />
  <path
     id="path610"
     d="m 36.957,13.395 -25.097,3.456 -0.157,-1.14 c -0.182,-1.323 -1.328,-2.258 -2.558,-2.088 l -5.581,0.769 c -1.23,0.169 -2.081,1.379 -1.898,2.702 l 3.15,22.871 c 1.045,1.626 2.311,3.114 3.75,4.388 l 32.044,-4.413 z"
     style="fill:url(#XMLID_21_)" />
  <path
     id="path621"
     d="M 3.641,14.949 C 2.72,15.076 2.083,16.004 2.223,17.017 L 2.4320395,18.533019 11.355539,17.304054 11.147,15.787 c -0.14,-1.013 -1.003,-1.734 -1.924,-1.608 z"
     style="fill:url(#XMLID_22_)" />
  <path
     id="path628"
     d="m 2.458,18.713 2.957,21.48 c 0.192,0.256 0.39,0.506 0.593,0.752 0.054,-3.912 1.658,-7.941 4.878,-10.158 4.991,-3.606 11.106,-3.172 16.925,-4.885 4.775,-1.506 8.133,-5.882 8.843,-10.583 -0.098,-0.707 -0.178,-1.29 -0.178,-1.29 z"
     style="opacity:0.8;fill:url(#XMLID_23_)" />
  <path
     id="path629"
     d="m 9.196,13.994 -5.581,0.769 c -0.922,0.127 -1.558,1.055 -1.418,2.068 l 0.103,0.743 c -0.14,-1.013 0.497,-1.941 1.418,-2.068 l 5.581,-0.769 c 0.921,-0.127 1.785,0.594 1.924,1.607 l -0.103,-0.743 c -0.139,-1.013 -1.002,-1.734 -1.924,-1.607 z"
     style="fill:#ffffff" />
  <path
     id="path630"
     d="m 2.316,18.549 2.939,21.357 c 0.218,0.297 0.445,0.586 0.68,0.871 l -2.706,-19.666 c -0.161,-1.167 0.683,-2.248 1.885,-2.413 l 31.121,-4.286 c 0.117,-0.016 0.233,-0.02 0.349,-0.019 l -0.076,-0.553 z"
     style="fill:#ffffff" />
  <path
     id="path637"
     d="M 36.957,13.395 17.402299,16.087794 13.785,28.075 c -0.15,0.495 0.132,1.021 0.627,1.17 l 22.586,6.82 c 0.495,0.148 1.02,-0.132 1.169,-0.628 l 1.251749,-4.153383 z"
     style="opacity:0.3;fill:#ffffff" />
  <path
     id="path644"
     d="m 40.07,29.133986 -1.902,6.303 c -0.149,0.496 -0.674,0.776 -1.169,0.628 l -22.586,-6.82 c -0.495,-0.149 -0.777,-0.675 -0.627,-1.17 l 3.914,-12.974 -0.73,0.101 -3.827,12.68 c -0.256,0.852 0.225,1.749 1.075,2.006 l 22.587,6.82 c 0.851,0.256 1.748,-0.225 2.005,-1.076 l 1.479,-4.902 z"
     style="opacity:0.37;fill:url(#XMLID_25_)" />
  <path
     id="path652"
     d="m 40.289,30.727986 -1.479,4.902 c -0.257,0.852 -1.154,1.332 -2.005,1.076 l -22.587,-6.82 c -0.85,-0.257 -1.332,-1.154 -1.075,-2.006 l 3.826827,-12.678434 -0.730827,0.09943 -3.738,12.386 c -0.363,1.203 0.32,2.479 1.523,2.842 l 22.586,6.819 c 1.203,0.363 2.478,-0.32 2.841,-1.523 l 1.057,-3.503 z"
     style="opacity:0.3;fill:url(#XMLID_27_)" />
  <polygon
     transform="translate(0,-0.375)"
     id="polygon653"
     points="31.627,42.053 41.232,40.73 39.817,30.447 38.722,32.001 "
     style="fill:#003da9" />
  <polygon
     transform="translate(0,-0.375)"
     id="polygon660"
     points="39.334,32.434 33.236,41.074 40.388,40.089 "
     style="fill:url(#XMLID_28_)" />
  <path
     id="path661"
     d="m 39.119,34.162 -0.111,-0.812 -4.736,6.767 c 0,0 0.48,-0.066 0.752,-0.104 1.049,-1.5 4.095,-5.851 4.095,-5.851 z"
     style="fill:#ffffff" />
  <g
     transform="matrix(0.17578125,0,0,0.17578125,3.7242479,19.622598)"
     id="g157">
    <path
       inkscape:connector-curvature="0"
       id="path558"
       style="fill:url(#XMLID_1_)"
       d="m 26.437,23.054 c -0.45,0.512 -0.691,1.177 -0.691,1.893 0,0.076 0.008,0.229 0.008,0.229 0.026,0.422 0.178,0.826 0.393,1.203 -0.025,0.206 -0.138,0.875 -0.808,2.168 l -0.417,0.756 c -0.953,1.646 -2.45,3.657 -4.417,5.939 -1.402,1.16 -4.11,2.806 -5.75,2.496 -0.901,-0.173 -1.843,0.103 -2.515,0.738 L 4.5,45.8 c -0.886,0.836 -1.148,2.148 -0.651,3.263 0.643,1.449 6.548,14.248 15.254,16.214 4.738,1.069 7.895,-3.869 11.236,-9.097 2.652,-4.152 5.946,-9.309 9.137,-9.604 1.583,-0.147 3.453,0.918 5.561,3.166 l 0.795,0.887 4.508,5.089 0.168,-5.017 c 0.171,-5.134 4.865,-7.664 9.834,-10.342 l 1.169,-0.633 0.047,-0.03 c 1.788,-1.117 3.83,-1.318 6.622,-0.653 l 1.938,-3.297 c -1.514,-1.65 -3.464,-4.442 -3.979,-6.881 -0.234,-1.116 -0.162,-2.041 0.222,-2.827 1.098,-2.247 6.795,-7.131 35.903,-3.94 1.316,0.145 2.557,-0.622 3.013,-1.865 0.122,-0.325 0.182,-0.662 0.182,-0.996 0,-0.918 -0.444,-1.812 -1.238,-2.365 0,0 -5.496,-3.81 -5.804,-4.023 L 98.434,12.62 97.359,10.923 C 97.356,10.921 93.85,8.26 93.85,8.26 L 93.396,7.849 92.717,7.404 91.722,7.007 C 85.669,4.166 54.073,-8.41 26.437,23.054 Z" />
    <path
       inkscape:connector-curvature="0"
       id="path565"
       style="fill:url(#XMLID_2_)"
       d="m 60.5,38 c 2.595,-1.622 5.401,-1.557 8.146,-0.902 -0.705,-0.769 -3.699,-4.207 -4.462,-7.819 -0.293,-1.396 -0.254,-2.816 0.381,-4.118 1.948,-3.986 10.107,-8.1 37.918,-5.051 0.398,0.044 0.779,-0.189 0.918,-0.566 0.142,-0.377 0.009,-0.8 -0.323,-1.03 L 97.115,14.381 C 96.989,14.293 96.84,14.24 96.685,14.227 96.512,14.213 79.282,12.867 65.802,16.798 65.539,16.676 65.241,16.489 65.198,16.299 v -0.002 c -0.033,-0.155 0.148,-0.51 0.589,-0.967 2.094,-0.331 15.676,-2.34 29.761,-1.237 0.388,0.031 0.754,-0.2 0.892,-0.564 0.061,-0.161 0.072,-0.333 0.038,-0.494 -0.043,-0.203 -0.156,-0.388 -0.329,-0.519 0,0 -3.092,-2.344 -3.513,-2.665 C 92.568,9.775 92.551,9.666 92.457,9.616 L 91.512,9 c -0.145,-0.11 -0.319,-0.172 -0.5,-0.178 0,0 -0.071,-0.003 -0.14,-0.005 -6.19,-2.905 -36.333,-14.725 -62.933,15.557 -0.155,0.176 -0.207,0.427 -0.19,0.661 0.015,0.234 0.149,0.472 0.326,0.625 L 28.007,25.6 c 0.039,0.048 0.079,0.136 0.107,0.267 0.104,0.497 0.023,1.624 -1,3.601 -0.011,0.021 -0.44,0.801 -0.44,0.801 -1.061,1.833 -2.67,3.995 -4.775,6.425 -0.317,0.268 -4.351,3.608 -7.515,3.011 -0.277,-0.053 -0.563,0.03 -0.768,0.225 l -7.741,7.324 c -0.271,0.256 -0.351,0.655 -0.199,0.995 0.241,0.542 5.98,13.297 13.869,15.078 3.371,0.761 6.033,-3.407 9.116,-8.231 3.031,-4.746 6.467,-10.125 10.632,-10.51 2.259,-0.21 4.616,1.03 7.204,3.789 l 2.013,2.261 C 48.735,43.896 55.098,40.946 60.5,38 m 5.037,-21.136 c -0.023,0.007 -0.051,0.011 -0.074,0.019 0.023,-0.008 0.051,-0.012 0.074,-0.019 z" />
    <path
       inkscape:connector-curvature="0"
       id="path566"
       style="fill:#663333"
       d="m 99.033,123.838 c 1.136,1.288 2.777,2.035 4.75,2.159 3.867,0.244 8.761,-1.889 13.091,-5.706 4.336,-3.822 7.069,-8.406 7.313,-12.263 0.012,-0.183 0.018,-0.364 0.018,-0.543 0,-0.547 -0.055,-1.078 -0.162,-1.583 -0.232,-1.104 -0.708,-2.071 -1.415,-2.867 l -0.36,-0.346 C 118.429,96.968 101.478,78.184 93.729,71.487 93.423,71.022 70.576,36.295 70.576,36.295 l -0.872,-0.994 -0.593,-0.146 c -3.49276,-0.497292 -7.399918,-0.219533 -9.568,1.089 l -1.097,0.594 C 53.24,39.644 46.76,43.136 46.512,50.567 l -0.026,0.796 3.618,4.084 c -0.036,-0.042 0.345,0.333 0.345,0.333 0.203,0.167 21.391,17.801 31.136,40.929 l 0.05,0.113 c 0.41,0.826 10.123,20.316 17.203,26.763 z" />
    <path
       inkscape:connector-curvature="0"
       id="path567-0"
       style="fill:#663333"
       d="m 122.086,106.318 c -0.159,-0.758 -0.479,-1.42 -0.955,-1.957 l -0.378,-0.351 C 117.245,98.619 99.805,79.298 92.202,72.804 92.076,72.609 68.903,37.391 68.903,37.391 68.872,37.344 68.836,37.3 68.799,37.26 68.793,37.255 68.736,37.194 68.646,37.096 65.902,36.442 63.096,36.376 60.5,37.998 55.098,40.944 48.735,43.894 48.51,50.632 l 3.198,3.593 c 0.216,0.178 21.724,17.986 31.717,41.705 5.949834,8.54889 10.024339,19.71511 16.619,25.889 l 0.488,0.693 c 2.646,3.003 9.242,1.366 15.018,-3.725 3.887,-3.427 6.432,-7.597 6.64,-10.889 0.037,-0.559 0,-1.088 -0.104,-1.58 z" />
    <path
       inkscape:connector-curvature="0"
       id="path568"
       style="font-size:medium"
       d="m 120.471,104.943 c -0.118,-0.134 -0.252,-0.25 -0.391,-0.36 C 116.716,99.33 99.14,79.845 91.533,73.384 L 68.168,37.875 c 0,0 -24.464,-25.093 34.409,-18.639 l -5.964,-4.134 c 0,0 -17.375,-1.428 -30.897,2.623 0,0 -2.884,-0.89 -0.378,-3.215 0,0 14.745,-2.512 30.278,-1.295 L 91.86,10.368 90.98,9.699 90.667,9.689 C 84.102,6.567 54.796,-4.871 28.6,24.954 c 0,0 1.329,0.989 -0.705,4.917 l -0.459,0.837 c -0.982,1.695 -2.524,3.857 -4.915,6.61 0,0 -4.557,3.956 -8.301,3.249 l -7.741,7.324 c 0,0 5.711,12.873 13.259,14.576 7.4,1.67 13.294,-29.738 27.4,-14.695 0.281,0.299 0.564,0.611 0.852,0.949 l 0.07,-0.06 4.205,4.886 c 0,0 21.774,17.835 31.971,42.043 0,0 9.864,19.787 16.537,25.867 0,0 0.017,-0.026 0.04,-0.065 0.107,0.192 0.233,0.374 0.381,0.542 2.284,2.592 8.452,0.889 13.775,-3.804 5.324,-4.69 7.789,-10.596 5.502,-13.187 z" />
    <path
       inkscape:connector-curvature="0"
       id="path587"
       d="m 102.304,19.181 c 0,0 -14.524,-14.01 -37.645,-4.865 l -2.89,6.001 1.544,1.471 8.191,-4.311 4.193,-0.885 5.519,0.072 c 0,0 4.008,-0.172 4.377,-0.025 0.366,0.147 5.909,0.326 5.909,0.326 l 3.214,0.333 c 0,0 1.32,0.396 1.688,0.542 0.368,0.147 1.902,0.498 1.902,0.498 l 2.095,0.344 z"
       style="fill:url(#XMLID_4_)" />
    <path
       inkscape:connector-curvature="0"
       id="path601"
       style="fill:url(#XMLID_6_)"
       d="m 59.879,31.237 8.289,6.638 c 0,0 -24.464,-25.093 34.409,-18.639 l -5.964,-4.134 c 0,0 -17.375,-1.428 -30.897,2.623 0,0 -2.884,-0.89 -0.378,-3.215 0,0 14.745,-2.512 30.278,-1.295 L 90.98,9.699 64.128,8.774 52.174,14.59 l -0.842,7.367 4.214,7.198 z" />
    <path
       inkscape:connector-curvature="0"
       id="path611"
       style="fill:url(#XMLID_7_)"
       d="m 28.956,27.023 c -0.311,1.765 -1.75,4.902 -6.435,10.296 0,0 -4.557,3.956 -8.301,3.249 l -7.741,7.324 c 0,0 5.711,12.873 13.259,14.576 7.547,1.703 13.528,-31.009 28.251,-13.747 L 53.67,43.008 C 48.75,34.402 39.821,28.385 28.956,27.023 Z" />
    <path
       inkscape:connector-curvature="0"
       id="path618"
       style="fill:url(#XMLID_8_)"
       d="m 52.899,41.747 c -0.67,-1.051 -1.4,-2.06 -2.19,-3.021 l -8.444,-4.374 -9.933,1.197 c 0,0 4.33,3.238 5.689,8.384 2.847,-0.828 6.105,0.259 9.969,4.788 l 4.111,-4.135 z" />
    <path
       inkscape:connector-curvature="0"
       id="path625"
       style="opacity:0.3;fill:url(#XMLID_9_)"
       d="m 49.738,37.606 c 0.525,0.754 1.028,1.524 1.485,2.324 l -5.679,5.713 C 30.82,28.38 24.839,61.092 17.292,59.388 c -2.523,-0.569 -4.839,-2.389 -6.808,-4.557 2.356,3.344 5.588,6.809 9.255,7.637 7.547,1.703 13.528,-31.009 28.251,-13.747 l 5.681,-5.713 C 52.56,41.065 51.235,39.262 49.738,37.606 Z" />
    <path
       inkscape:connector-curvature="0"
       d="m 50.419,38.371 c 0.001,0.002 0.003,0.004 0.006,0.007 0.733,0.987 1.408,2.019 2.022,3.092 l -5.68,5.712 C 32.042,29.919 26.063,62.632 18.514,60.929 15.724,60.3 13.185,58.142 11.093,55.673 c -0.176,-0.235 -0.348,-0.472 -0.517,-0.707 2.349,3.302 5.542,6.685 9.161,7.502 7.547,1.703 13.528,-31.009 28.251,-13.747 l 5.681,-5.713 c -0.94,-1.646 -2.029,-3.195 -3.25,-4.637 M 10.56,54.94 v 0"
       style="fill:url(#XMLID_10_)"
       id="path633" />
    <path
       inkscape:connector-curvature="0"
       id="path634"
       style="opacity:0.2"
       d="m 52.355,15.45 11.953,-5.815 26.854,0.925 3.403,2.58 c 0.35,0.025 0.699,0.048 1.051,0.075 L 90.98,9.699 64.128,8.774 52.174,14.59 l -0.842,7.367 0.233,0.399 z" />
    <path
       inkscape:connector-curvature="0"
       id="path635"
       style="opacity:0.2"
       d="m 66.591,36.612 1.577,1.263 c 0,0 -3.651,-3.749 -4.736,-7.975 0.425,2.566 1.925,5.038 3.159,6.712 z" />
    <path
       inkscape:connector-curvature="0"
       id="path642"
       style="fill:url(#XMLID_11_)"
       d="m 47.902,48.478 4.363,5.07 c 0,0 21.774,17.835 31.971,42.043 0,0 9.864,19.787 16.537,25.867 0,0 8.75,-15.324 19.785,-15.557 C 122.279,105.54 100.29,80.823 91.534,73.383 L 68.168,37.875 64.452,34.466 61.616,34.503 46.978,45.34 l 0.938,1.6 z" />
    <path
       inkscape:connector-curvature="0"
       d="M 100.411,119.738 C 93.736,113.654 83.873,93.87 83.873,93.87 73.676,69.662 51.903,51.827 51.903,51.827 l -3.991,-4.637 -0.01,1.287 4.363,5.07 c 0,0 21.774,17.835 31.971,42.043 0,0 9.864,19.787 16.537,25.867 0,0 8.75,-15.324 19.785,-15.557 0.26,-0.053 -0.029,-0.672 -0.726,-1.696 -10.861,0.555 -19.421,15.534 -19.421,15.534 z"
       style="fill:#8f5102"
       id="path644-6" />
    <path
       inkscape:connector-curvature="0"
       id="path645"
       style="opacity:0.2"
       d="M 91.533,73.384 68.168,37.875 65.586,35.507 89.631,72.887 c 8.758,7.439 30.746,32.155 29.025,32.518 -9.433,0.198 -17.19,11.417 -19.247,14.673 0.466,0.512 0.923,0.978 1.363,1.381 0,0 8.75,-15.324 19.785,-15.557 1.721,-0.362 -20.267,-25.079 -29.024,-32.518 z" />
    <path
       inkscape:connector-curvature="0"
       id="path652-2"
       style="fill:url(#XMLID_12_-6)"
       d="m 13.823,42.448 c 3.893,0.676 8.676,-3.327 8.676,-3.327 4.927,-5.445 6.452,-8.6 6.793,-10.372 9.554,1.072 17.626,5.497 22.95,12.017 -5.119,-7.397 -13.395,-12.503 -23.286,-13.743 -0.311,1.765 -1.75,4.902 -6.435,10.296 0,0 -4.557,3.956 -8.301,3.249 l -7.741,7.324 c 0,0 0.145,0.322 0.414,0.87 z" />
    <path
       inkscape:connector-curvature="0"
       id="path659"
       style="fill:url(#XMLID_13_-1)"
       d="M 26.99,56.065 C 19.423,49.455 15.793,44.261 14.064,40.714 l -7.585,7.177 c 0,0 5.711,12.873 13.259,14.576 2.464,0.557 4.762,-2.557 7.252,-6.402 z" />
    <path
       inkscape:connector-curvature="0"
       id="path660"
       style="opacity:0.5;fill:#616161"
       d="m 14.064,40.715 -1.089,1.031 c 1.972,3.449 5.568,8.104 12.113,13.822 -2.311,3.569 -4.457,6.504 -6.726,6.46 0.452,0.185 0.911,0.333 1.376,0.439 2.464,0.556 4.762,-2.558 7.251,-6.402 C 19.423,49.456 15.793,44.261 14.064,40.715 Z" />
    <path
       inkscape:connector-curvature="0"
       id="path667"
       style="fill:url(#XMLID_14_-2)"
       d="m 7.579,47.607 c 1.933,3.888 6.54,11.346 11.504,12.466 1.229,0.278 3.242,-2.426 4.58,-4.414 -4.988,-4.501 -8.672,-8.795 -11.042,-12.822 -1.685,1.595 -3.954,3.74 -5.042,4.77 z" />
    <path
       inkscape:connector-curvature="0"
       id="path668"
       style="opacity:0.3;fill:#616161"
       d="M 64.539,32.758 C 58.18,25.68 46.866,8.247 93.27,11.435 L 91.058,9.759 C 91.008,9.738 90.953,9.717 90.902,9.696 L 64.128,8.774 52.174,14.59 l -0.842,7.367 4.214,7.198 4.333,2.082 6.549,5.245 0.321,-0.278 c -0.691,-0.896 -1.52,-2.092 -2.21,-3.446 z" />
    <path
       inkscape:connector-curvature="0"
       id="path669"
       style="fill:#616161"
       d="m 49.168,49.949 16.546,-14.327 -1.262,-1.157 -2.836,0.037 -14.638,10.838 0.938,1.6 -0.013,1.538 z" />
    <path
       inkscape:connector-curvature="0"
       id="path670"
       style="opacity:0.5;fill:#616161"
       d="m 49.668,50.449 16.546,-14.327 -1.262,-1.157 -2.836,0.037 -14.638,10.838 0.938,1.6 -0.013,1.538 z" />
    <path
       inkscape:connector-curvature="0"
       id="path677"
       style="fill:url(#XMLID_15_-7)"
       d="m 47.138,47.772 c 0.281,0.299 0.564,0.611 0.852,0.949 L 64.452,34.466 c 0,0 -32.72,-28.744 27.57,-24.087 0,0 -33.713,-19.248 -63.423,14.575 0,0 1.515,1.128 -1.165,5.754 2.217,2.637 4.69,5.325 5.713,5.867 1.743,0.922 10.245,4.421 13.991,11.197 z" />
    <path
       inkscape:connector-curvature="0"
       id="path684"
       style="fill:url(#XMLID_16_-0)"
       d="m 30.692,25.298 h 0.001 c 0.226,1.076 0.024,2.751 -1.161,5.146 2.494,2.895 4.028,4.354 4.438,4.577 l 0.763,0.376 c 2.719,1.318 9.735,4.764 13.475,10.81 2.077,-1.8 11.425,-9.894 13.632,-11.805 -2.32,-2.33 -6.686,-7.263 -7.759,-12.354 -0.393,-1.862 -0.344,-3.746 0.408,-5.529 2.438,-5.782 11.198,-8.551 26.643,-8.4 C 69.477,5.157 49.469,4.55 30.692,25.298 Z" />
    <path
       inkscape:connector-curvature="0"
       id="path685"
       style="opacity:0.3;fill:#ffffff"
       d="m 120.558,105.901 c 1.569,-0.33 -16.569,-20.902 -26.419,-30.168 5.631,7.103 16.71,21.821 20.21,31.84 1.949,-0.987 4.032,-1.624 6.209,-1.672 z" />
    <path
       inkscape:connector-curvature="0"
       id="path686"
       style="opacity:0.2;fill:#993300"
       d="m 78.978,84.869 c 0,0 -0.025,0.085 -0.06,0.203 1.96,3.335 3.772,6.852 5.317,10.519 0,0 9.864,19.787 16.537,25.867 0,0 0.534,-0.932 1.498,-2.336 C 91.759,109.25 79.127,85.571 78.978,84.869 Z" />
    <path
       inkscape:connector-curvature="0"
       id="path687"
       style="opacity:0.5;fill:#ffffff"
       d="m 102.229,83.874 c 5.521,6.515 13.2,16.171 15.813,22.343 0.822,-0.184 1.662,-0.296 2.516,-0.315 1.194,-0.251 -9.033,-12.233 -18.329,-22.028 z" />
    <path
       inkscape:connector-curvature="0"
       id="path688"
       style="opacity:0.3;fill:#ffffff"
       d="m 65.818,38.446 c 0,0 21.317,30.773 22.972,36.49 0,0 9.887,6.703 13.488,11.759 5.426,7.616 10.887,18.597 10.887,18.597 l -3.781,1.245 c 0,0 -2.654,-14.716 -20.367,-30.525 l -1.426,-0.373 c 0,0 -19.372,-34.329 -22.497,-36.366 z" />
    <path
       inkscape:connector-curvature="0"
       id="path690"
       style="opacity:0.2;fill:#993300"
       d="m 101.633,115.586 c 0,0 -17.52,-20.567 -21.688,-28.975 -1.135,-2.287 -1.646,-2.99 -1.792,-2.813 2.253,3.709 4.339,7.654 6.082,11.792 0,0 0.97,1.945 2.506,4.802 5.311,8.031 12.435,18.209 14.756,18.815 0.238,0.063 0.448,0.102 0.631,0.124 0.276,-0.406 0.591,-0.857 0.945,-1.343 -0.393,-1.077 -1.44,-2.402 -1.44,-2.402 z" />
    <path
       inkscape:connector-curvature="0"
       id="path697"
       style="fill:url(#XMLID_17_-9)"
       d="m 106.695,108.744 c -5.323,4.691 -7.786,10.598 -5.502,13.19 2.284,2.592 8.452,0.889 13.775,-3.804 5.324,-4.69 7.789,-10.597 5.502,-13.188 -2.282,-2.592 -8.452,-0.888 -13.775,3.802 z" />
    <path
       inkscape:connector-curvature="0"
       id="path704"
       style="fill:url(#XMLID_18_-3)"
       d="m 94.622,17.02 c 0,0 -19.096,-1.064 -27.275,2.757 -5.975,2.792 -4.967,4.59 -3.897,5.805 1.585,-4.862 9.499,-8.875 33.551,-6.884 z" />
    <path
       inkscape:connector-curvature="0"
       id="path712"
       style="fill:url(#XMLID_19_-6)"
       d="M 65.818,38.446 89.5,75 118,102.5 c 0,0 -13,3.25 -18.25,13 0,0 -21.75,-35.75 -25,-42.25 C 71.5,66.75 53.25,50.5 53.25,50.5 Z" />
  </g>
</svg>
