<?xml version="1.0" encoding="UTF-8" standalone="no"?>
<svg
   xmlns:dc="http://purl.org/dc/elements/1.1/"
   xmlns:cc="http://creativecommons.org/ns#"
   xmlns:rdf="http://www.w3.org/1999/02/22-rdf-syntax-ns#"
   xmlns:svg="http://www.w3.org/2000/svg"
   xmlns="http://www.w3.org/2000/svg"
   id="svg548"
   viewBox="0 0 128 128"
   height="60"
   width="60"
   y="0"
   x="0"
   version="1">
  <metadata
     id="metadata140">
    <rdf:RDF>
      <cc:Work
         rdf:about="">
        <dc:format>image/svg+xml</dc:format>
        <dc:type
           rdf:resource="http://purl.org/dc/dcmitype/StillImage" />
        <dc:title></dc:title>
      </cc:Work>
    </rdf:RDF>
  </metadata>
  <defs
     id="defs763">
    <linearGradient
       x1="-0.1577"
       y1="-19.3423004"
       x2="65.0932999"
       y2="45.9086990"
       id="XMLID_1_"
       gradientUnits="userSpaceOnUse"
       spreadMethod="pad">
      <stop
         style="stop-color:#000000"
         offset="0"
         id="stop553" />
      <stop
         style="stop-color:#616161"
         offset="1"
         id="stop554" />
    </linearGradient>
    <linearGradient
       x1="28.3183994"
       y1="9.14159966"
       x2="60.8614006"
       y2="41.6846008"
       id="XMLID_2_"
       gradientUnits="userSpaceOnUse"
       spreadMethod="pad">
      <stop
         style="stop-color:#000000"
         offset="0"
         id="stop560" />
      <stop
         style="stop-color:#616161"
         offset="1"
         id="stop561" />
    </linearGradient>
    <linearGradient
       x1="115.529297"
       y1="22.0459"
       x2="75.6348038"
       y2="22.0464993"
       id="XMLID_3_"
       gradientUnits="userSpaceOnUse"
       gradientTransform="matrix(0.9785,-0.2064,0.2064,0.9785,-16.6535,15)"
       spreadMethod="pad">
      <stop
         style="stop-color:#828282"
         offset="0"
         id="stop570" />
      <stop
         style="stop-color:#616161"
         offset="1"
         id="stop571" />
    </linearGradient>
    <linearGradient
       x1="95.9082031"
       y1="22.0863991"
       x2="96.7874985"
       y2="14.1722"
       id="XMLID_4_"
       gradientUnits="userSpaceOnUse"
       gradientTransform="matrix(0.9785,-0.2064,0.2064,0.9785,-16.6535,15)"
       spreadMethod="pad">
      <stop
         style="stop-color:#919697"
         offset="0"
         id="stop577" />
      <stop
         style="stop-color:#8c9192"
         offset="0.1441"
         id="stop578" />
      <stop
         style="stop-color:#7f8384"
         offset="0.31"
         id="stop579" />
      <stop
         style="stop-color:#696c6d"
         offset="0.4867"
         id="stop580" />
      <stop
         style="stop-color:#4a4c4d"
         offset="0.67089999"
         id="stop581" />
      <stop
         style="stop-color:#222424"
         offset="0.859"
         id="stop582" />
      <stop
         style="stop-color:#000000"
         offset="1"
         id="stop583" />
    </linearGradient>
    <linearGradient
       x1="86.1865005"
       y1="25.2343998"
       x2="20.8314991"
       y2="25.2334"
       id="XMLID_5_"
       gradientUnits="userSpaceOnUse"
       gradientTransform="matrix(0.9785,-0.2064,0.2064,0.9785,-16.6535,15)"
       spreadMethod="pad">
      <stop
         style="stop-color:#ffffff"
         offset="0"
         id="stop589" />
      <stop
         style="stop-color:#000000"
         offset="1"
         id="stop590" />
    </linearGradient>
    <linearGradient
       x1="129.355499"
       y1="24.3202991"
       x2="13.1276999"
       y2="26.4433994"
       id="XMLID_6_"
       gradientUnits="userSpaceOnUse"
       gradientTransform="matrix(0.9785,-0.2064,0.2064,0.9785,-16.6535,15)"
       spreadMethod="pad">
      <stop
         style="stop-color:#ffffff"
         offset="0"
         id="stop596" />
      <stop
         style="stop-color:#000000"
         offset="1"
         id="stop597" />
    </linearGradient>
    <linearGradient
       x1="15.8457"
       y1="37.5663986"
       x2="63.0278015"
       y2="37.5663986"
       id="XMLID_7_"
       gradientUnits="userSpaceOnUse"
       gradientTransform="matrix(0.9785,-0.2064,0.2064,0.9785,-16.6535,15)"
       spreadMethod="pad">
      <stop
         style="stop-color:#ffffff"
         offset="0"
         id="stop603" />
      <stop
         style="stop-color:#cccccc"
         offset="0.25839999"
         id="stop604" />
      <stop
         style="stop-color:#616161"
         offset="1"
         id="stop605" />
    </linearGradient>
    <linearGradient
       x1="43.6884995"
       y1="38.2764015"
       x2="62.5326996"
       y2="38.2764015"
       id="XMLID_8_"
       gradientUnits="userSpaceOnUse"
       gradientTransform="matrix(0.9785,-0.2064,0.2064,0.9785,-16.6535,15)"
       spreadMethod="pad">
      <stop
         style="stop-color:#b2b2b2"
         offset="0"
         id="stop613" />
      <stop
         style="stop-color:#616161"
         offset="1"
         id="stop614" />
    </linearGradient>
    <linearGradient
       x1="18.3314991"
       y1="44.8886986"
       x2="63.0278015"
       y2="44.8886986"
       id="XMLID_9_"
       gradientUnits="userSpaceOnUse"
       gradientTransform="matrix(0.9785,-0.2064,0.2064,0.9785,-16.6535,15)"
       spreadMethod="pad">
      <stop
         style="stop-color:#8a9396"
         offset="0"
         id="stop620" />
      <stop
         style="stop-color:#616161"
         offset="1"
         id="stop621" />
    </linearGradient>
    <linearGradient
       x1="74.9022980"
       y1="86.3778992"
       x2="88.3115005"
       y2="78.5378036"
       id="XMLID_11_"
       gradientUnits="userSpaceOnUse"
       gradientTransform="matrix(0.9785,-0.2064,0.2064,0.9785,-16.6535,15)"
       spreadMethod="pad">
      <stop
         style="stop-color:#c46701"
         offset="0"
         id="stop637" />
      <stop
         style="stop-color:#ff9200"
         offset="1"
         id="stop638" />
    </linearGradient>
    <linearGradient
       x1="37.6924019"
       y1="35.5556984"
       x2="32.7104988"
       y2="24.4193"
       id="XMLID_12_"
       gradientUnits="userSpaceOnUse"
       gradientTransform="matrix(0.9785,-0.2064,0.2064,0.9785,-16.6535,15)"
       spreadMethod="pad">
      <stop
         style="stop-color:#cccccc"
         offset="0"
         id="stop647" />
      <stop
         style="stop-color:#616161"
         offset="1"
         id="stop648" />
    </linearGradient>
    <linearGradient
       x1="20.5806007"
       y1="35.9169998"
       x2="31.4246998"
       y2="56.7260017"
       id="XMLID_13_"
       gradientUnits="userSpaceOnUse"
       gradientTransform="matrix(0.9785,-0.2064,0.2064,0.9785,-16.6535,15)"
       spreadMethod="pad">
      <stop
         style="stop-color:#cecedb"
         offset="0"
         id="stop654" />
      <stop
         style="stop-color:#919697"
         offset="1"
         id="stop655" />
    </linearGradient>
    <linearGradient
       x1="14.2798004"
       y1="32.6636009"
       x2="29.0811996"
       y2="47.465"
       id="XMLID_14_"
       gradientUnits="userSpaceOnUse"
       gradientTransform="matrix(0.9785,-0.2064,0.2064,0.9785,-16.6535,15)"
       spreadMethod="pad">
      <stop
         style="stop-color:#ffffff"
         offset="0"
         id="stop662" />
      <stop
         style="stop-color:#cccccc"
         offset="1"
         id="stop663" />
    </linearGradient>
    <linearGradient
       x1="107.286102"
       y1="26.5967007"
       x2="39.8955"
       y2="26.5977"
       id="XMLID_15_"
       gradientUnits="userSpaceOnUse"
       gradientTransform="matrix(0.9785,-0.2064,0.2064,0.9785,-16.6535,15)"
       spreadMethod="pad">
      <stop
         style="stop-color:#cecedb"
         offset="0"
         id="stop672" />
      <stop
         style="stop-color:#919697"
         offset="1"
         id="stop673" />
    </linearGradient>
    <linearGradient
       x1="71.8076019"
       y1="-6.08540010"
       x2="67.4113007"
       y2="42.8577995"
       id="XMLID_16_"
       gradientUnits="userSpaceOnUse"
       gradientTransform="matrix(0.9785,-0.2064,0.2064,0.9785,-16.6535,15)"
       spreadMethod="pad">
      <stop
         style="stop-color:#ffffff"
         offset="0"
         id="stop679" />
      <stop
         style="stop-color:#999999"
         offset="1"
         id="stop680" />
    </linearGradient>
    <linearGradient
       x1="114.197304"
       y1="102.050797"
       x2="107.7023"
       y2="124.033997"
       id="XMLID_17_"
       gradientUnits="userSpaceOnUse"
       spreadMethod="pad">
      <stop
         style="stop-color:#ff6d00"
         offset="0"
         id="stop692" />
      <stop
         style="stop-color:#824f26"
         offset="1"
         id="stop693" />
    </linearGradient>
    <linearGradient
       x1="93.2147980"
       y1="26.728"
       x2="93.2147980"
       y2="20.0237007"
       id="XMLID_18_"
       gradientUnits="userSpaceOnUse"
       gradientTransform="matrix(0.9785,-0.2064,0.2064,0.9785,-16.6535,15)"
       spreadMethod="pad">
      <stop
         style="stop-color:#ffffff"
         offset="0"
         id="stop699" />
      <stop
         style="stop-color:#b2b2b2"
         offset="1"
         id="stop700" />
    </linearGradient>
    <linearGradient
       x1="96.5752029"
       y1="68.5058975"
       x2="64.6734009"
       y2="88.0947037"
       id="XMLID_19_"
       gradientUnits="userSpaceOnUse"
       spreadMethod="pad">
      <stop
         style="stop-color:#ffffff"
         offset="0"
         id="stop707" />
      <stop
         style="stop-color:#ff7f00"
         offset="1"
         id="stop708" />
    </linearGradient>
    <linearGradient
       x1="90.8993988"
       y1="34.4346008"
       x2="97.6498032"
       y2="41.1850014"
       id="XMLID_20_"
       gradientUnits="userSpaceOnUse"
       spreadMethod="pad">
      <stop
         style="stop-color:#494949"
         offset="0"
         id="stop716" />
      <stop
         style="stop-color:#000000"
         offset="1"
         id="stop717" />
    </linearGradient>
    <linearGradient
       x1="92.5313034"
       y1="36.0663986"
       x2="96.1987"
       y2="39.7332993"
       id="XMLID_21_"
       gradientUnits="userSpaceOnUse"
       spreadMethod="pad">
      <stop
         style="stop-color:#ffffff"
         offset="0"
         id="stop723" />
      <stop
         style="stop-color:#cacad8"
         offset="0.404"
         id="stop724" />
      <stop
         style="stop-color:#b1b1c5"
         offset="0.6348"
         id="stop725" />
      <stop
         style="stop-color:#999ab3"
         offset="0.84939998"
         id="stop726" />
      <stop
         style="stop-color:#8d8faa"
         offset="1"
         id="stop727" />
    </linearGradient>
    <linearGradient
       x1="5.06689978"
       y1="90.75"
       x2="77.5644989"
       y2="90.75"
       id="XMLID_22_"
       gradientUnits="userSpaceOnUse"
       spreadMethod="pad">
      <stop
         style="stop-color:#7c0000"
         offset="0"
         id="stop735" />
      <stop
         style="stop-color:#663333"
         offset="1"
         id="stop736" />
    </linearGradient>
    <linearGradient
       x1="7.71780014"
       y1="90.9326019"
       x2="74.5468979"
       y2="90.9326019"
       id="XMLID_23_"
       gradientUnits="userSpaceOnUse"
       spreadMethod="pad">
      <stop
         style="stop-color:#f8310e"
         offset="0"
         id="stop742" />
      <stop
         style="stop-color:#a50100"
         offset="1"
         id="stop743" />
    </linearGradient>
    <linearGradient
       x1="31.9873009"
       y1="86.6083984"
       x2="43.5708008"
       y2="98.1913986"
       id="XMLID_24_"
       gradientUnits="userSpaceOnUse"
       gradientTransform="matrix(1.0041,-0.0041,-0.0041,1.0041,0.4338,-0.4339)"
       spreadMethod="pad">
      <stop
         style="stop-color:#ffffff"
         offset="0"
         id="stop749" />
      <stop
         style="stop-color:#ff0000"
         offset="1"
         id="stop750" />
    </linearGradient>
    <linearGradient
       x1="106.818398"
       y1="25.2479992"
       x2="119.9017"
       y2="12.1646996"
       id="XMLID_25_"
       gradientUnits="userSpaceOnUse"
       spreadMethod="pad">
      <stop
         style="stop-color:#ffffff"
         offset="0"
         id="stop756" />
      <stop
         style="stop-color:#b1b1c5"
         offset="1"
         id="stop757" />
    </linearGradient>
    <linearGradient
       spreadMethod="pad"
       gradientTransform="matrix(0.9785,-0.2064,0.2064,0.9785,-16.6535,15)"
       gradientUnits="userSpaceOnUse"
       id="XMLID_10_"
       y2="37.8955"
       x2="58.932499"
       y1="37.8955"
       x1="29.9155">
      <stop
         id="stop628"
         offset="0"
         style="stop-color:#b2b2b2" />
      <stop
         id="stop629"
         offset="1"
         style="stop-color:#616161" />
    </linearGradient>
  </defs>
  <path
     d="m 26.437,23.054 c -0.45,0.512 -0.691,1.177 -0.691,1.893 0,0.076 0.008,0.229 0.008,0.229 0.026,0.422 0.178,0.826 0.393,1.203 -0.025,0.206 -0.138,0.875 -0.808,2.168 l -0.417,0.756 c -0.953,1.646 -2.45,3.657 -4.417,5.939 -1.402,1.16 -4.11,2.806 -5.75,2.496 -0.901,-0.173 -1.843,0.103 -2.515,0.738 L 4.5,45.8 c -0.886,0.836 -1.148,2.148 -0.651,3.263 0.643,1.449 6.548,14.248 15.254,16.214 4.738,1.069 7.895,-3.869 11.236,-9.097 2.652,-4.152 5.946,-9.309 9.137,-9.604 1.583,-0.147 3.453,0.918 5.561,3.166 l 0.795,0.887 4.508,5.089 0.168,-5.017 c 0.171,-5.134 4.865,-7.664 9.834,-10.342 l 1.169,-0.633 0.047,-0.03 c 1.788,-1.117 3.83,-1.318 6.622,-0.653 l 1.938,-3.297 c -1.514,-1.65 -3.464,-4.442 -3.979,-6.881 -0.234,-1.116 -0.162,-2.041 0.222,-2.827 1.098,-2.247 6.795,-7.131 35.903,-3.94 1.316,0.145 2.557,-0.622 3.013,-1.865 0.122,-0.325 0.182,-0.662 0.182,-0.996 0,-0.918 -0.444,-1.812 -1.238,-2.365 0,0 -5.496,-3.81 -5.804,-4.023 L 98.434,12.62 97.359,10.923 C 97.356,10.921 93.85,8.26 93.85,8.26 L 93.396,7.849 92.717,7.404 91.722,7.007 C 85.669,4.166 54.073,-8.41 26.437,23.054 Z"
     style="fill:url(#XMLID_1_)"
     id="path558" />
  <path
     d="m 60.5,38 c 2.595,-1.622 5.401,-1.557 8.146,-0.902 -0.705,-0.769 -3.699,-4.207 -4.462,-7.819 -0.293,-1.396 -0.254,-2.816 0.381,-4.118 1.948,-3.986 10.107,-8.1 37.918,-5.051 0.398,0.044 0.779,-0.189 0.918,-0.566 0.142,-0.377 0.009,-0.8 -0.323,-1.03 L 97.115,14.381 C 96.989,14.293 96.84,14.24 96.685,14.227 96.512,14.213 79.282,12.867 65.802,16.798 65.539,16.676 65.241,16.489 65.198,16.299 v -0.002 c -0.033,-0.155 0.148,-0.51 0.589,-0.967 2.094,-0.331 15.676,-2.34 29.761,-1.237 0.388,0.031 0.754,-0.2 0.892,-0.564 0.061,-0.161 0.072,-0.333 0.038,-0.494 -0.043,-0.203 -0.156,-0.388 -0.329,-0.519 0,0 -3.092,-2.344 -3.513,-2.665 C 92.568,9.775 92.551,9.666 92.457,9.616 L 91.512,9 c -0.145,-0.11 -0.319,-0.172 -0.5,-0.178 0,0 -0.071,-0.003 -0.14,-0.005 -6.19,-2.905 -36.333,-14.725 -62.933,15.557 -0.155,0.176 -0.207,0.427 -0.19,0.661 0.015,0.234 0.149,0.472 0.326,0.625 L 28.007,25.6 c 0.039,0.048 0.079,0.136 0.107,0.267 0.104,0.497 0.023,1.624 -1,3.601 -0.011,0.021 -0.44,0.801 -0.44,0.801 -1.061,1.833 -2.67,3.995 -4.775,6.425 -0.317,0.268 -4.351,3.608 -7.515,3.011 -0.277,-0.053 -0.563,0.03 -0.768,0.225 l -7.741,7.324 c -0.271,0.256 -0.351,0.655 -0.199,0.995 0.241,0.542 5.98,13.297 13.869,15.078 3.371,0.761 6.033,-3.407 9.116,-8.231 3.031,-4.746 6.467,-10.125 10.632,-10.51 2.259,-0.21 4.616,1.03 7.204,3.789 l 2.013,2.261 C 48.735,43.896 55.098,40.946 60.5,38 m 5.037,-21.136 c -0.023,0.007 -0.051,0.011 -0.074,0.019 0.023,-0.008 0.051,-0.012 0.074,-0.019 z"
     style="fill:url(#XMLID_2_)"
     id="path565" />
  <path
     d="m 99.033,123.838 c 1.136,1.288 2.777,2.035 4.75,2.159 3.867,0.244 8.761,-1.889 13.091,-5.706 4.336,-3.822 7.069,-8.406 7.313,-12.263 0.012,-0.183 0.018,-0.364 0.018,-0.543 0,-0.547 -0.055,-1.078 -0.162,-1.583 -0.232,-1.104 -0.708,-2.071 -1.415,-2.867 l -0.36,-0.346 C 118.429,96.968 101.478,78.184 93.729,71.487 93.423,71.022 70.576,36.295 70.576,36.295 l -0.872,-0.994 -0.593,-0.146 c -3.49276,-0.497292 -7.399918,-0.219533 -9.568,1.089 l -1.097,0.594 C 53.24,39.644 46.76,43.136 46.512,50.567 l -0.026,0.796 3.618,4.084 c -0.036,-0.042 0.345,0.333 0.345,0.333 0.203,0.167 21.391,17.801 31.136,40.929 l 0.05,0.113 c 0.41,0.826 10.123,20.316 17.203,26.763 z"
     style="fill:#663333"
     id="path566" />
  <path
     d="m 122.086,106.318 c -0.159,-0.758 -0.479,-1.42 -0.955,-1.957 l -0.378,-0.351 C 117.245,98.619 99.805,79.298 92.202,72.804 92.076,72.609 68.903,37.391 68.903,37.391 68.872,37.344 68.836,37.3 68.799,37.26 68.793,37.255 68.736,37.194 68.646,37.096 65.902,36.442 63.096,36.376 60.5,37.998 55.098,40.944 48.735,43.894 48.51,50.632 l 3.198,3.593 c 0.216,0.178 21.724,17.986 31.717,41.705 5.949834,8.54889 10.024339,19.71511 16.619,25.889 l 0.488,0.693 c 2.646,3.003 9.242,1.366 15.018,-3.725 3.887,-3.427 6.432,-7.597 6.64,-10.889 0.037,-0.559 0,-1.088 -0.104,-1.58 z"
     style="fill:#663333"
     id="path567" />
  <path
     d="m 120.471,104.943 c -0.118,-0.134 -0.252,-0.25 -0.391,-0.36 C 116.716,99.33 99.14,79.845 91.533,73.384 L 68.168,37.875 c 0,0 -24.464,-25.093 34.409,-18.639 l -5.964,-4.134 c 0,0 -17.375,-1.428 -30.897,2.623 0,0 -2.884,-0.89 -0.378,-3.215 0,0 14.745,-2.512 30.278,-1.295 L 91.86,10.368 90.98,9.699 90.667,9.689 C 84.102,6.567 54.796,-4.871 28.6,24.954 c 0,0 1.329,0.989 -0.705,4.917 l -0.459,0.837 c -0.982,1.695 -2.524,3.857 -4.915,6.61 0,0 -4.557,3.956 -8.301,3.249 l -7.741,7.324 c 0,0 5.711,12.873 13.259,14.576 7.4,1.67 13.294,-29.738 27.4,-14.695 0.281,0.299 0.564,0.611 0.852,0.949 l 0.07,-0.06 4.205,4.886 c 0,0 21.774,17.835 31.971,42.043 0,0 9.864,19.787 16.537,25.867 0,0 0.017,-0.026 0.04,-0.065 0.107,0.192 0.233,0.374 0.381,0.542 2.284,2.592 8.452,0.889 13.775,-3.804 5.324,-4.69 7.789,-10.596 5.502,-13.187 z"
     style="font-size:medium"
     id="path568" />
  <path
     style="fill:url(#XMLID_4_)"
     d="m 102.304,19.181 c 0,0 -14.524,-14.01 -37.645,-4.865 l -2.89,6.001 1.544,1.471 8.191,-4.311 4.193,-0.885 5.519,0.072 c 0,0 4.008,-0.172 4.377,-0.025 0.366,0.147 5.909,0.326 5.909,0.326 l 3.214,0.333 c 0,0 1.32,0.396 1.688,0.542 0.368,0.147 1.902,0.498 1.902,0.498 l 2.095,0.344 z"
     id="path587" />
  <path
     d="m 59.879,31.237 8.289,6.638 c 0,0 -24.464,-25.093 34.409,-18.639 l -5.964,-4.134 c 0,0 -17.375,-1.428 -30.897,2.623 0,0 -2.884,-0.89 -0.378,-3.215 0,0 14.745,-2.512 30.278,-1.295 L 90.98,9.699 64.128,8.774 52.174,14.59 l -0.842,7.367 4.214,7.198 z"
     style="fill:url(#XMLID_6_)"
     id="path601" />
  <path
     d="m 28.956,27.023 c -0.311,1.765 -1.75,4.902 -6.435,10.296 0,0 -4.557,3.956 -8.301,3.249 l -7.741,7.324 c 0,0 5.711,12.873 13.259,14.576 7.547,1.703 13.528,-31.009 28.251,-13.747 L 53.67,43.008 C 48.75,34.402 39.821,28.385 28.956,27.023 Z"
     style="fill:url(#XMLID_7_)"
     id="path611" />
  <path
     d="m 52.899,41.747 c -0.67,-1.051 -1.4,-2.06 -2.19,-3.021 l -8.444,-4.374 -9.933,1.197 c 0,0 4.33,3.238 5.689,8.384 2.847,-0.828 6.105,0.259 9.969,4.788 l 4.111,-4.135 z"
     style="fill:url(#XMLID_8_)"
     id="path618" />
  <path
     d="m 49.738,37.606 c 0.525,0.754 1.028,1.524 1.485,2.324 l -5.679,5.713 C 30.82,28.38 24.839,61.092 17.292,59.388 c -2.523,-0.569 -4.839,-2.389 -6.808,-4.557 2.356,3.344 5.588,6.809 9.255,7.637 7.547,1.703 13.528,-31.009 28.251,-13.747 l 5.681,-5.713 C 52.56,41.065 51.235,39.262 49.738,37.606 Z"
     style="opacity:0.3;fill:url(#XMLID_9_)"
     id="path625" />
  <path
     id="path633"
     style="fill:url(#XMLID_10_)"
     d="m 50.419,38.371 c 0.001,0.002 0.003,0.004 0.006,0.007 0.733,0.987 1.408,2.019 2.022,3.092 l -5.68,5.712 C 32.042,29.919 26.063,62.632 18.514,60.929 15.724,60.3 13.185,58.142 11.093,55.673 c -0.176,-0.235 -0.348,-0.472 -0.517,-0.707 2.349,3.302 5.542,6.685 9.161,7.502 7.547,1.703 13.528,-31.009 28.251,-13.747 l 5.681,-5.713 c -0.94,-1.646 -2.029,-3.195 -3.25,-4.637 M 10.56,54.94 v 0" />
  <path
     d="m 52.355,15.45 11.953,-5.815 26.854,0.925 3.403,2.58 c 0.35,0.025 0.699,0.048 1.051,0.075 L 90.98,9.699 64.128,8.774 52.174,14.59 l -0.842,7.367 0.233,0.399 z"
     style="opacity:0.2"
     id="path634" />
  <path
     d="m 66.591,36.612 1.577,1.263 c 0,0 -3.651,-3.749 -4.736,-7.975 0.425,2.566 1.925,5.038 3.159,6.712 z"
     style="opacity:0.2"
     id="path635" />
  <path
     d="m 47.902,48.478 4.363,5.07 c 0,0 21.774,17.835 31.971,42.043 0,0 9.864,19.787 16.537,25.867 0,0 8.75,-15.324 19.785,-15.557 C 122.279,105.54 100.29,80.823 91.534,73.383 L 68.168,37.875 64.452,34.466 61.616,34.503 46.978,45.34 l 0.938,1.6 z"
     style="fill:url(#XMLID_11_)"
     id="path642" />
  <path
     id="path644"
     style="fill:#8f5102"
     d="M 100.411,119.738 C 93.736,113.654 83.873,93.87 83.873,93.87 73.676,69.662 51.903,51.827 51.903,51.827 l -3.991,-4.637 -0.01,1.287 4.363,5.07 c 0,0 21.774,17.835 31.971,42.043 0,0 9.864,19.787 16.537,25.867 0,0 8.75,-15.324 19.785,-15.557 0.26,-0.053 -0.029,-0.672 -0.726,-1.696 -10.861,0.555 -19.421,15.534 -19.421,15.534 z" />
  <path
     d="M 91.533,73.384 68.168,37.875 65.586,35.507 89.631,72.887 c 8.758,7.439 30.746,32.155 29.025,32.518 -9.433,0.198 -17.19,11.417 -19.247,14.673 0.466,0.512 0.923,0.978 1.363,1.381 0,0 8.75,-15.324 19.785,-15.557 1.721,-0.362 -20.267,-25.079 -29.024,-32.518 z"
     style="opacity:0.2"
     id="path645" />
  <path
     d="m 13.823,42.448 c 3.893,0.676 8.676,-3.327 8.676,-3.327 4.927,-5.445 6.452,-8.6 6.793,-10.372 9.554,1.072 17.626,5.497 22.95,12.017 -5.119,-7.397 -13.395,-12.503 -23.286,-13.743 -0.311,1.765 -1.75,4.902 -6.435,10.296 0,0 -4.557,3.956 -8.301,3.249 l -7.741,7.324 c 0,0 0.145,0.322 0.414,0.87 z"
     style="fill:url(#XMLID_12_)"
     id="path652" />
  <path
     d="M 26.99,56.065 C 19.423,49.455 15.793,44.261 14.064,40.714 l -7.585,7.177 c 0,0 5.711,12.873 13.259,14.576 2.464,0.557 4.762,-2.557 7.252,-6.402 z"
     style="fill:url(#XMLID_13_)"
     id="path659" />
  <path
     d="m 14.064,40.715 -1.089,1.031 c 1.972,3.449 5.568,8.104 12.113,13.822 -2.311,3.569 -4.457,6.504 -6.726,6.46 0.452,0.185 0.911,0.333 1.376,0.439 2.464,0.556 4.762,-2.558 7.251,-6.402 C 19.423,49.456 15.793,44.261 14.064,40.715 Z"
     style="opacity:0.5;fill:#616161"
     id="path660" />
  <path
     d="m 7.579,47.607 c 1.933,3.888 6.54,11.346 11.504,12.466 1.229,0.278 3.242,-2.426 4.58,-4.414 -4.988,-4.501 -8.672,-8.795 -11.042,-12.822 -1.685,1.595 -3.954,3.74 -5.042,4.77 z"
     style="fill:url(#XMLID_14_)"
     id="path667" />
  <path
     d="M 64.539,32.758 C 58.18,25.68 46.866,8.247 93.27,11.435 L 91.058,9.759 C 91.008,9.738 90.953,9.717 90.902,9.696 L 64.128,8.774 52.174,14.59 l -0.842,7.367 4.214,7.198 4.333,2.082 6.549,5.245 0.321,-0.278 c -0.691,-0.896 -1.52,-2.092 -2.21,-3.446 z"
     style="opacity:0.3;fill:#616161"
     id="path668" />
  <path
     d="m 49.168,49.949 16.546,-14.327 -1.262,-1.157 -2.836,0.037 -14.638,10.838 0.938,1.6 -0.013,1.538 z"
     style="fill:#616161"
     id="path669" />
  <path
     d="m 49.668,50.449 16.546,-14.327 -1.262,-1.157 -2.836,0.037 -14.638,10.838 0.938,1.6 -0.013,1.538 z"
     style="opacity:0.5;fill:#616161"
     id="path670" />
  <path
     d="m 47.138,47.772 c 0.281,0.299 0.564,0.611 0.852,0.949 L 64.452,34.466 c 0,0 -32.72,-28.744 27.57,-24.087 0,0 -33.713,-19.248 -63.423,14.575 0,0 1.515,1.128 -1.165,5.754 2.217,2.637 4.69,5.325 5.713,5.867 1.743,0.922 10.245,4.421 13.991,11.197 z"
     style="fill:url(#XMLID_15_)"
     id="path677" />
  <path
     d="m 30.692,25.298 h 0.001 c 0.226,1.076 0.024,2.751 -1.161,5.146 2.494,2.895 4.028,4.354 4.438,4.577 l 0.763,0.376 c 2.719,1.318 9.735,4.764 13.475,10.81 2.077,-1.8 11.425,-9.894 13.632,-11.805 -2.32,-2.33 -6.686,-7.263 -7.759,-12.354 -0.393,-1.862 -0.344,-3.746 0.408,-5.529 2.438,-5.782 11.198,-8.551 26.643,-8.4 C 69.477,5.157 49.469,4.55 30.692,25.298 Z"
     style="fill:url(#XMLID_16_)"
     id="path684" />
  <path
     d="m 120.558,105.901 c 1.569,-0.33 -16.569,-20.902 -26.419,-30.168 5.631,7.103 16.71,21.821 20.21,31.84 1.949,-0.987 4.032,-1.624 6.209,-1.672 z"
     style="opacity:0.3;fill:#ffffff"
     id="path685" />
  <path
     d="m 78.978,84.869 c 0,0 -0.025,0.085 -0.06,0.203 1.96,3.335 3.772,6.852 5.317,10.519 0,0 9.864,19.787 16.537,25.867 0,0 0.534,-0.932 1.498,-2.336 C 91.759,109.25 79.127,85.571 78.978,84.869 Z"
     style="opacity:0.2;fill:#993300"
     id="path686" />
  <path
     d="m 102.229,83.874 c 5.521,6.515 13.2,16.171 15.813,22.343 0.822,-0.184 1.662,-0.296 2.516,-0.315 1.194,-0.251 -9.033,-12.233 -18.329,-22.028 z"
     style="opacity:0.5;fill:#ffffff"
     id="path687" />
  <path
     d="m 65.818,38.446 c 0,0 21.317,30.773 22.972,36.49 0,0 9.887,6.703 13.488,11.759 5.426,7.616 10.887,18.597 10.887,18.597 l -3.781,1.245 c 0,0 -2.654,-14.716 -20.367,-30.525 l -1.426,-0.373 c 0,0 -19.372,-34.329 -22.497,-36.366 z"
     style="opacity:0.3;fill:#ffffff"
     id="path688" />
  <path
     d="m 101.633,115.586 c 0,0 -17.52,-20.567 -21.688,-28.975 -1.135,-2.287 -1.646,-2.99 -1.792,-2.813 2.253,3.709 4.339,7.654 6.082,11.792 0,0 0.97,1.945 2.506,4.802 5.311,8.031 12.435,18.209 14.756,18.815 0.238,0.063 0.448,0.102 0.631,0.124 0.276,-0.406 0.591,-0.857 0.945,-1.343 -0.393,-1.077 -1.44,-2.402 -1.44,-2.402 z"
     style="opacity:0.2;fill:#993300"
     id="path690" />
  <path
     d="m 106.695,108.744 c -5.323,4.691 -7.786,10.598 -5.502,13.19 2.284,2.592 8.452,0.889 13.775,-3.804 5.324,-4.69 7.789,-10.597 5.502,-13.188 -2.282,-2.592 -8.452,-0.888 -13.775,3.802 z"
     style="fill:url(#XMLID_17_)"
     id="path697" />
  <path
     d="m 94.622,17.02 c 0,0 -19.096,-1.064 -27.275,2.757 -5.975,2.792 -4.967,4.59 -3.897,5.805 1.585,-4.862 9.499,-8.875 33.551,-6.884 z"
     style="fill:url(#XMLID_18_)"
     id="path704" />
  <path
     d="M 65.818,38.446 89.5,75 118,102.5 c 0,0 -13,3.25 -18.25,13 0,0 -21.75,-35.75 -25,-42.25 C 71.5,66.75 53.25,50.5 53.25,50.5 Z"
     style="fill:url(#XMLID_19_)"
     id="path712" />
</svg>
