<?xml version="1.0" encoding="UTF-8" standalone="no"?>
<!DOCTYPE svg PUBLIC "-//W3C//DTD SVG 20010904//EN"
"http://www.w3.org/TR/2001/REC-SVG-20010904/DTD/svg10.dtd">
<!-- Created with Sodipodi ("http://www.sodipodi.com/") -->
<svg
   width="48pt"
   height="48pt"
   viewBox="0 0 128 128"
   style="overflow:visible;enable-background:new 0 0 128 128"
   xml:space="preserve"
   xmlns="http://www.w3.org/2000/svg"
   xmlns:xml="http://www.w3.org/XML/1998/namespace"
   xmlns:a="http://ns.adobe.com/AdobeSVGViewerExtensions/3.0/"
   xmlns:sodipodi="http://sodipodi.sourceforge.net/DTD/sodipodi-0.dtd"
   xmlns:xlink="http://www.w3.org/1999/xlink"
   id="svg548"
   sodipodi:version="0.32"
   sodipodi:docname="/home/cschalle/gnome-themes-extras/Nuvola/icons/scalable/apps/accessories.svg"
   sodipodi:docbase="/home/cschalle/gnome-themes-extras/Nuvola/icons/scalable/apps">
  <defs
     id="defs646" />
  <sodipodi:namedview
     id="base" />
  <g
     id="Layer_1"
     style="stroke:#000000;">
    <g
       id="g550">
      <path
         style="opacity:0.2;stroke:none;"
         d="M105.904,4.705c-0.333-0.677-1.022-1.104-1.778-1.104H14.382c-1.098-0.001-1.985,0.886-1.983,1.983V122.85     c-0.002,0.85,0.54,1.605,1.344,1.879c0.807,0.273,1.694,0.004,2.213-0.674L105.701,6.789     C106.16,6.19,106.239,5.384,105.904,4.705z M67.989,23.435c-2.572,3.361-30.1,39.326-35.759,46.721c0-8.953,0-43.45,0-46.722     C35.465,23.434,61.771,23.435,67.989,23.435z"
         id="path551" />
      <linearGradient
         id="XMLID_1_"
         gradientUnits="userSpaceOnUse"
         x1="34.2944"
         y1="66.7061"
         x2="155.4229"
         y2="66.7061"
         gradientTransform="matrix(0 1 -1 0 124.8301 -33.2041)">
        <stop
           offset="0"
           style="stop-color:#0053BD"
           id="stop553" />
        <stop
           offset="1"
           style="stop-color:#0032A4"
           id="stop554" />
        <a:midPointStop
           offset="0"
           style="stop-color:#0053BD"
           id="midPointStop555" />
        <a:midPointStop
           offset="0.5"
           style="stop-color:#0053BD"
           id="midPointStop556" />
        <a:midPointStop
           offset="1"
           style="stop-color:#0032A4"
           id="midPointStop557" />
      </linearGradient>
      <path
         style="fill:url(#XMLID_1_);stroke:none;"
         d="M104.877,2.194c-0.333-0.676-1.022-1.104-1.778-1.104H13.354c-1.098-0.001-1.985,0.886-1.983,1.983V120.34     c-0.002,0.85,0.54,1.605,1.344,1.879c0.807,0.271,1.694,0.004,2.213-0.674L104.673,4.279     C105.133,3.68,105.211,2.874,104.877,2.194z M66.961,20.925c-2.572,3.361-30.099,39.327-35.759,46.72c0-8.952,0-43.448,0-46.721     C34.437,20.924,60.743,20.925,66.961,20.925z"
         id="path558" />
      <linearGradient
         id="XMLID_2_"
         gradientUnits="userSpaceOnUse"
         x1="36.2778"
         y1="66.6035"
         x2="153.5439"
         y2="66.6035"
         gradientTransform="matrix(0 1 -1 0 124.8301 -33.2041)">
        <stop
           offset="0"
           style="stop-color:#B0D9FF"
           id="stop560" />
        <stop
           offset="1"
           style="stop-color:#E6EDFF"
           id="stop561" />
        <a:midPointStop
           offset="0"
           style="stop-color:#B0D9FF"
           id="midPointStop562" />
        <a:midPointStop
           offset="0.5"
           style="stop-color:#B0D9FF"
           id="midPointStop563" />
        <a:midPointStop
           offset="1"
           style="stop-color:#E6EDFF"
           id="midPointStop564" />
      </linearGradient>
      <path
         style="fill:url(#XMLID_2_);stroke:none;"
         d="M103.099,3.075L13.353,3.074V120.34L103.099,3.075z M70.974,18.942     C56.762,37.515,47.307,49.868,29.22,73.502c0-26.179-0.002-41.793,0-54.561C41.373,18.94,51.784,18.942,70.974,18.942z"
         id="path565" />
      <path
         style="opacity:0.5;fill:#FFFFFF;stroke:none;"
         d="M103.099,3.075L13.353,3.074V120.34L103.099,3.075z M99.085,5.059     c-4.432,5.788-77.371,101.092-83.751,109.426c0.001-10.381,0.002-105.787,0.002-109.428C18.956,5.059,91.923,5.057,99.085,5.059z      M74.991,16.958l-45.772-0.001l-1.983,0.001v62.398L74.991,16.958z M70.974,18.942C56.762,37.515,47.307,49.868,29.22,73.502     c0-26.179-0.002-41.793,0-54.561C41.373,18.94,51.784,18.942,70.974,18.942z"
         id="path566" />
      <path
         style="fill:#94CAFF;stroke:none;"
         d="M13.353,120.34L103.099,3.075l-3.967-0.001L13.353,115.158V120.34z"
         id="path567" />
      <path
         style="opacity:0.2;fill:#FFFFFF;stroke:none;"
         d="M103.099,3.075l-3.967-0.001l-1.518,1.984c0.611,0,1.135-0.001,1.471,0.001     c-4.432,5.788-77.371,101.092-83.751,109.426c0-0.469,0.001-1.117,0.002-1.92l-1.983,2.594v5.182L103.099,3.075z"
         id="path568" />
    </g>
    <g
       id="g569">
      <path
         style="opacity:0.2;stroke:none;"
         d="M116.627,90.393c-0.126-2.568-1.467-11.307-13.418-15.904c-2.704-1.039-5.196-1.061-7.41-0.066     c-4.209,1.898-6.063,6.787-7.177,9.762c-1.734-1.268-4.737-3.658-7.792-6.219l-0.346-0.289l-1.311-0.303     c0.162,2.271,0.557,4.533,1.124,6.764c-0.929-1.844-1.615-3.693-1.434-5.676l-1.23-0.285     C72.586,63.933,62.311,41.04,48.417,41.04h-1.109l13.227,33.177l-33.278-7.701l-1.21-0.281l0.311,1.205     c3.295,12.682,25.779,19.051,40.192,21.867l1.301,3.264l0.134,0.119c0.229,0.199,0.46,0.402,0.688,0.607     c-0.512,0.055-1.023,0.092-1.535,0.15l0.101,0.09c2.954,2.598,5.808,5.236,7.332,6.758c-2.771,1.549-7.33,4.127-8.568,8.574     c-0.199,0.719-0.298,1.461-0.297,2.205c-0.001,1.666,0.498,3.385,1.482,5.107c5.311,9.287,12.783,12.641,21.614,9.693     c2.223-0.74,5.842-3.84,6.921-8.412c0.72-3.043,0.522-7.719-4.487-12.727l-9.527-9.529l-0.424-0.418     c-0.648-0.629-1.315-1.279-1.312-1.695c0.002-0.068,0.031-0.307,0.296-0.73c-3.84,0.197-7.582,0.516-11.33,0.908     c3.351-0.68,6.701-1.16,10.052-0.879c0.266-0.701,0.902-1.516,1.901-2.436l0.338-0.307l-0.117-0.439     c-0.015-0.057-0.04-0.15-0.074-0.271c0.211-0.168,0.416-0.307,0.615-0.4c0.128,0.357,0.255,0.711,0.391,1.063     c0.145-0.08,0.239-0.104,0.276-0.111c0.412-0.066,1.157,0.496,1.881,1.041c0.234,0.178,0.386,0.287,0.514,0.373     c-0.005-0.002-0.036-0.012-0.036-0.012l10.854,7.973c5.683,4.172,10.418,3.422,13.393,2.055c4.485-2.055,7.43-6.707,7.683-10.033     l0.016-0.252l0.006-0.094v-0.092L116.627,90.393z M80.045,108.629c3.084,0,5.599,2.053,5.599,4.58c0,2.523-2.513,4.58-5.599,4.58     c-3.089,0.002-5.601-2.057-5.601-4.58C74.444,110.682,76.956,108.629,80.045,108.629z M106.8,87.508     c0.204,2.879-1.405,5.316-3.74,5.674c-1.035,0.158-2.117-0.131-3.047-0.814c-1.224-0.896-2.07-2.365-2.327-4.025     c-0.069-0.457-0.089-0.939-0.057-1.436l0.006-0.123l-0.008-0.127c-0.204-2.877,1.401-5.316,3.739-5.674     c2.495-0.383,4.908,1.791,5.376,4.84c0.067,0.459,0.088,0.941,0.056,1.436l-0.006,0.123L106.8,87.508z"
         id="path570" />
      <path
         style="fill:#333333;stroke:none;"
         d="M102.267,71.994c-2.798-1.074-5.387-1.094-7.692-0.055c-4.17,1.877-6.063,6.488-7.2,9.508     c-1.804-1.348-4.629-3.607-7.383-5.914l-0.411-0.346l-1.883-0.436l0.035,0.498c0.279,3.92,1.252,8.072,2.892,12.338l0.17,0.344     l0.512-0.227c0.255-0.041,1.094,0.596,1.597,0.975l0.533,0.383l-0.048-0.023l10.851,7.975c5.827,4.279,10.7,3.502,13.765,2.096     c4.61-2.117,7.636-6.92,7.9-10.35l0.014-0.258l0.007-0.109v-0.111l-0.002-0.055C115.792,85.6,114.428,76.676,102.267,71.994      M99.157,89.924c-1.146-0.842-1.942-2.223-2.181-3.787c-0.065-0.432-0.084-0.885-0.057-1.354l0.013-0.15L96.92,84.48     c-0.188-2.682,1.283-4.955,3.426-5.283c2.299-0.352,4.518,1.682,4.957,4.533c0.063,0.432,0.083,0.889,0.054,1.355l-0.01,0.146     l0.01,0.152c0.191,2.686-1.281,4.957-3.426,5.283C100.992,90.813,100.008,90.547,99.157,89.924z"
         id="path571" />
      <path
         style="fill:#330000;stroke:none;"
         d="M79.409,75.527l-1.309-0.303c0.295,4.154,1.349,8.281,2.867,12.23c0.146-0.082,0.24-0.105,0.278-0.111     c0.411-0.068,1.155,0.494,1.879,1.039c0.235,0.178,0.386,0.289,0.515,0.371c-0.004-0.002-0.036-0.01-0.036-0.01l10.855,7.971     c5.682,4.174,10.418,3.422,13.391,2.057c4.486-2.057,7.43-6.709,7.684-10.033l0.015-0.254l0.007-0.094v-0.09l-0.002-0.057     c-0.126-2.566-1.467-11.307-13.419-15.904c-2.702-1.039-5.195-1.061-7.408-0.064c-4.211,1.896-6.065,6.785-7.177,9.76     c-1.735-1.27-4.738-3.66-7.794-6.219L79.409,75.527 M96.561,84.633l-0.008-0.125c-0.203-2.877,1.401-5.318,3.739-5.674     c2.494-0.383,4.907,1.789,5.376,4.842c0.066,0.457,0.088,0.939,0.056,1.434l-0.006,0.123l0.008,0.127     c0.204,2.877-1.405,5.318-3.741,5.674c-1.034,0.158-2.117-0.129-3.046-0.814c-1.224-0.896-2.071-2.367-2.328-4.025     c-0.068-0.459-0.088-0.939-0.056-1.436L96.561,84.633z"
         id="path572" />
      <path
         style="fill:#333333;stroke:none;"
         d="M79.506,90.408l0.372-0.598l-0.704,0.035c-4.399,0.227-8.701,0.584-13.152,1.086l-0.828,0.096l0.729,0.639     c2.679,2.357,5.342,4.809,6.964,6.398c-2.814,1.582-7.088,4.154-8.312,8.561c-0.209,0.748-0.314,1.523-0.315,2.301     c0.001,1.73,0.518,3.51,1.534,5.291c5.405,9.457,13.029,12.867,22.05,9.861c2.306-0.768,6.052-3.969,7.165-8.682     c0.187-0.803,0.314-1.713,0.314-2.709c0-2.902-1.084-6.543-4.899-10.363l-9.532-9.529l-0.426-0.418     c-0.42-0.408-1.196-1.164-1.196-1.424C79.269,90.951,79.279,90.773,79.506,90.408 M78.971,115.271     c-2.886,0-5.232-1.889-5.233-4.211c0-2.32,2.348-4.209,5.233-4.209c2.881,0,5.229,1.889,5.229,4.209     C84.2,113.383,81.854,115.271,78.971,115.271z"
         id="path573" />
      <path
         style="fill:#330000;stroke:none;"
         d="M66.063,91.299l0.1,0.088c2.955,2.6,5.809,5.238,7.333,6.76c-2.771,1.549-7.331,4.125-8.568,8.574     c-0.2,0.719-0.298,1.461-0.297,2.205c-0.001,1.666,0.498,3.383,1.482,5.107c5.31,9.289,12.783,12.639,21.615,9.693     c2.221-0.74,5.841-3.84,6.92-8.412c0.72-3.043,0.521-7.719-4.486-12.729l-9.529-9.527l-0.424-0.418     c-0.647-0.629-1.314-1.279-1.311-1.695c0.002-0.068,0.031-0.307,0.295-0.73C74.74,90.443,70.415,90.807,66.063,91.299      M78.971,106.48c3.085,0,5.598,2.053,5.598,4.58c0,2.523-2.511,4.58-5.598,4.58c-3.089,0-5.6-2.057-5.6-4.58     C73.371,108.533,75.882,106.48,78.971,106.48z"
         id="path574" />
      <path
         style="fill:#333333;stroke:none;"
         d="M25.054,63.728l1.21,0.28l51.922,12.017l-0.031,0.318c-0.233,2.574,1.063,4.928,2.435,7.418l1.501,2.832     l-0.648-0.004l-0.323,0.004c-0.495,0.084-1.334,0.557-2.527,2.34l-0.378,0.561l-0.675-0.07     c-1.947-0.209-47.746-5.307-52.614-24.043l-0.464-1.79L25.054,63.728z"
         id="path575" />
      <path
         style="fill:#444444;stroke:none;"
         d="M26.182,64.367l51.607,11.944c-0.318,3.488,2.044,6.561,3.688,9.912c-0.137-0.016-0.278-0.016-0.418,0.006     c-0.824,0.141-1.759,0.982-2.774,2.498l-0.253,0.379l-0.451-0.049c-1.938-0.207-47.496-5.285-52.297-23.766l-0.312-1.204     L26.182,64.367z"
         id="path576" />
      <path
         style="fill:#CC0000;stroke:none;"
         d="M77.789,76.311c-0.318,3.488,2.044,6.561,3.688,9.912c0.744,0.07,1.487,0.627,2.326,1.26l0.469,0.352     l10.854,7.971c5.242,3.85,9.557,3.18,12.253,1.943c4.054-1.861,6.806-6.16,7.028-9.076l0.016-0.242l0.006-0.094l-0.002-0.035     c-0.119-2.396-1.381-10.555-12.698-14.906c-2.409-0.928-4.608-0.959-6.539-0.088c-3.816,1.717-5.566,6.404-6.614,9.207     c-0.169,0.455-0.352,0.938-0.495,1.264c-1.37-0.842-5.438-4.072-9.048-7.096l-0.138-0.115L77.789,76.311 M95.43,84.637     l-0.004-0.049c-0.245-3.469,1.771-6.424,4.693-6.871c3.112-0.475,6.102,2.121,6.662,5.787c0.082,0.535,0.107,1.1,0.069,1.676     l-0.002,0.051l0.005,0.047c0.244,3.473-1.775,6.426-4.696,6.873c-1.334,0.203-2.714-0.158-3.889-1.02     c-1.462-1.076-2.474-2.813-2.771-4.77c-0.084-0.533-0.107-1.096-0.071-1.676L95.43,84.637z"
         id="path577" />
      <path
         style="fill:#FFCCCC;stroke:none;"
         d="M78.795,77.465c-0.483,2.709,1.12,5.318,2.306,8.002c1.309-0.125,2.432,0.889,3.617,1.76     c2.713,1.992,0,0,10.854,7.973c10.146,7.449,17.734-2.051,18.086-6.586c0.006-0.09,0.01-0.184,0.017-0.277     c-0.219-4.441-3.005-10.697-12.217-14.238C91.221,70.158,89.35,84.895,88.29,84.713C87.334,84.551,80.206,78.643,78.795,77.465      M94.674,84.641c-0.271-3.801,2.009-7.158,5.332-7.668c3.527-0.539,6.896,2.336,7.521,6.416c0.094,0.627,0.113,1.238,0.077,1.838     c0.267,3.801-2.01,7.158-5.334,7.666c-3.525,0.541-6.893-2.33-7.519-6.416C94.658,85.852,94.639,85.238,94.674,84.641z"
         id="path578" />
      <path
         style="fill:#EEEEEE;stroke:none;"
         d="M78.548,77.26c0,0,0.09,0.074,0.247,0.205c-0.483,2.709,1.12,5.318,2.306,8.002     c-1.001,0.098-2.111,0.854-3.441,2.844c0,0-46.922-5.021-51.647-23.211L78.548,77.26z"
         id="path579" />
      <linearGradient
         id="XMLID_3_"
         gradientUnits="userSpaceOnUse"
         x1="45.6138"
         y1="81.916"
         x2="47.8854"
         y2="93.6872"
         gradientTransform="matrix(-1 0 0 1 99.7148 -9.4111)">
        <stop
           offset="0"
           style="stop-color:#FFFFFF"
           id="stop581" />
        <stop
           offset="1"
           style="stop-color:#000000"
           id="stop582" />
        <a:midPointStop
           offset="0"
           style="stop-color:#FFFFFF"
           id="midPointStop583" />
        <a:midPointStop
           offset="0.5"
           style="stop-color:#FFFFFF"
           id="midPointStop584" />
        <a:midPointStop
           offset="1"
           style="stop-color:#000000"
           id="midPointStop585" />
      </linearGradient>
      <path
         style="fill:url(#XMLID_3_);stroke:none;"
         d="M78.548,78.389c0,0,0.006,0.004,0.01,0.006c0.479,2.441,1.193,4.838,1.901,7.223     c-0.833,0.314-1.747,1.117-2.8,2.693c0,0-44.802-4.795-51.253-21.99L78.548,78.389z"
         id="path586" />
      <linearGradient
         id="XMLID_4_"
         gradientUnits="userSpaceOnUse"
         x1="46.2817"
         y1="73.7646"
         x2="46.2817"
         y2="101.6131"
         gradientTransform="matrix(-1 0 0 1 99.7148 -9.4111)">
        <stop
           offset="0"
           style="stop-color:#FFFFFF"
           id="stop588" />
        <stop
           offset="1"
           style="stop-color:#616161"
           id="stop589" />
        <a:midPointStop
           offset="0"
           style="stop-color:#FFFFFF"
           id="midPointStop590" />
        <a:midPointStop
           offset="0.5"
           style="stop-color:#FFFFFF"
           id="midPointStop591" />
        <a:midPointStop
           offset="1"
           style="stop-color:#616161"
           id="midPointStop592" />
      </linearGradient>
      <path
         style="opacity:0.7;fill:url(#XMLID_4_);stroke:none;"
         d="M78.548,78.389c0,0,0.006,0.004,0.01,0.006c0.479,2.441,1.193,4.838,1.901,7.223     c-0.833,0.314-1.747,1.117-2.8,2.693c0,0-44.802-4.795-51.253-21.99L78.548,78.389z"
         id="path593" />
      <linearGradient
         id="XMLID_5_"
         gradientUnits="userSpaceOnUse"
         x1="-13.9141"
         y1="95.6641"
         x2="21.1572"
         y2="95.6641"
         gradientTransform="matrix(-1 0 0 1 99.7148 -9.4111)">
        <stop
           offset="0"
           style="stop-color:#FF9999"
           id="stop595" />
        <stop
           offset="0.7977"
           style="stop-color:#FF3333"
           id="stop596" />
        <stop
           offset="1"
           style="stop-color:#CC3333"
           id="stop597" />
        <a:midPointStop
           offset="0"
           style="stop-color:#FF9999"
           id="midPointStop598" />
        <a:midPointStop
           offset="0.5"
           style="stop-color:#FF9999"
           id="midPointStop599" />
        <a:midPointStop
           offset="0.7977"
           style="stop-color:#FF3333"
           id="midPointStop600" />
        <a:midPointStop
           offset="0.5"
           style="stop-color:#FF3333"
           id="midPointStop601" />
        <a:midPointStop
           offset="1"
           style="stop-color:#CC3333"
           id="midPointStop602" />
      </linearGradient>
      <path
         style="fill:url(#XMLID_5_);stroke:none;"
         d="M88.29,85.842c-1.048-0.178-9.542-7.287-9.732-7.447c0.479,2.441,1.193,4.838,1.901,7.223     c1.597-0.605,2.887,0.6,4.259,1.609c2.713,1.992,0,0,10.854,7.973c9.95,7.311,17.446-1.695,18.057-6.318     c-0.426-4.391-3.355-10.264-12.171-13.656C91.221,71.289,89.35,86.023,88.29,85.842 M94.674,84.641     c-0.271-3.801,2.009-7.158,5.332-7.668c3.527-0.539,6.896,2.336,7.521,6.416c0.094,0.627,0.113,1.238,0.077,1.838     c0.002,0.031,0,0.061,0.002,0.094c0.006,0.133,0.01,0.266,0.013,0.4c0.002,0.186-0.003,0.371-0.013,0.555     c-0.002,0.027-0.002,0.055-0.002,0.08c0.269,3.803-2.01,7.158-5.334,7.668c-3.525,0.537-6.893-2.334-7.519-6.418     c-0.094-0.623-0.113-1.236-0.078-1.836c-0.002-0.031,0-0.063-0.002-0.092c-0.006-0.133-0.01-0.268-0.012-0.402     c-0.002-0.188,0.004-0.373,0.012-0.559C94.672,84.693,94.672,84.668,94.674,84.641z"
         id="path603" />
      <path
         style="opacity:0.2;stroke:none;"
         d="M57.637,71.646l17.203,3.98c2.036,5.451,3.414,10.025,4.051,12.27c-0.199,0.252-0.4,0.525-0.606,0.83     l-0.253,0.379l-0.451-0.049c-0.664-0.068-6.421-0.711-13.903-2.262L57.637,71.646z"
         id="path604" />
      <path
         style="fill:#333333;stroke:none;"
         d="M46.233,38.522h1.11C67.356,38.521,79.87,84.99,80.392,86.967l0.176,0.656l-0.499,0.459     c-0.955,0.873-1.564,1.646-1.811,2.293l-0.098,0.26l-0.278-0.023c-3.571-0.303-7.154,0.297-10.186,0.922l-0.181,0.033     l-1.05-0.928L45.688,38.521L46.233,38.522z"
         id="path605" />
      <path
         style="fill:#666666;stroke:none;"
         d="M67.621,91.17c-0.235-0.213-0.475-0.422-0.712-0.629l-0.134-0.119L46.233,38.891h1.109     c19.738,0,32.174,46.205,32.695,48.172l0.117,0.439l-0.338,0.307c-0.998,0.918-1.636,1.734-1.9,2.436     C74.483,89.957,71.055,90.465,67.621,91.17z"
         id="path606" />
      <path
         style="fill:#CC0000;stroke:none;"
         d="M67.621,91.17c3.344,2.967,6.749,6.141,7.68,7.234c-0.301,0.193-0.755,0.449-1.184,0.688     c-2.609,1.457-6.98,3.898-8.102,7.932c-0.172,0.623-0.258,1.26-0.259,1.904c0,1.465,0.445,2.992,1.337,4.545     c5.078,8.887,11.899,11.977,20.276,9.182c1.918-0.635,5.21-3.494,6.178-7.604c0.652-2.758,0.456-7.023-4.185-11.664l-9.521-9.523     l-0.421-0.412c-0.893-0.869-1.666-1.619-1.65-2.523c0.002-0.213,0.052-0.441,0.146-0.684     C74.483,89.957,71.055,90.465,67.621,91.17 M78.971,105.352c3.71,0,6.727,2.561,6.727,5.709c0,3.15-3.017,5.711-6.727,5.711     c-3.711,0-6.731-2.561-6.731-5.711C72.239,107.912,75.26,105.352,78.971,105.352z"
         id="path607" />
      <path
         style="fill:#FFCCCC;stroke:none;"
         d="M68.31,90.773c2.193,1.955,7.668,6.889,7.94,7.705c0.34,1.02-13.943,5.098-8.503,14.623     c5.44,9.52,12.244,11.223,19.384,8.842c3.227-1.074,10.601-9.125,1.7-18.025c-9.522-9.521-7.142-7.141-9.522-9.521     c-1.233-1.236-2.659-2.352-2.201-4.098C74.174,90.482,71.24,90.652,68.31,90.773 M78.971,104.6c4.13,0,7.48,2.891,7.48,6.461     s-3.351,6.463-7.48,6.463c-4.134,0-7.483-2.893-7.483-6.463S74.837,104.6,78.971,104.6z"
         id="path608" />
      <path
         style="fill:#FFFFFF;stroke:none;"
         d="M67.408,89.975L47.342,39.644c19.384,0.001,31.969,47.61,31.969,47.61     c-1.331,1.219-1.986,2.203-2.204,3.045c-2.934,0.184-5.867,0.354-8.798,0.475C67.755,90.281,67.408,89.975,67.408,89.975z"
         id="path609" />
      <linearGradient
         id="XMLID_6_"
         gradientUnits="userSpaceOnUse"
         x1="34.2139"
         y1="73.2949"
         x2="42.2299"
         y2="76.8345"
         gradientTransform="matrix(-1 0 0 1 99.7148 -9.4111)">
        <stop
           offset="0"
           style="stop-color:#DDDDDD"
           id="stop611" />
        <stop
           offset="1"
           style="stop-color:#BBBBBB"
           id="stop612" />
        <a:midPointStop
           offset="0"
           style="stop-color:#DDDDDD"
           id="midPointStop613" />
        <a:midPointStop
           offset="0.5"
           style="stop-color:#DDDDDD"
           id="midPointStop614" />
        <a:midPointStop
           offset="1"
           style="stop-color:#BBBBBB"
           id="midPointStop615" />
      </linearGradient>
      <path
         style="fill:url(#XMLID_6_);stroke:none;"
         d="M67.408,89.975L47.354,39.673c18.948,1.224,31.202,47.581,31.202,47.581     c-1.917,1.76-2.438,3.035-2.259,4.086c-2.246,0.035-4.521,0.156-6.746,0.551C68.317,90.775,67.408,89.975,67.408,89.975z"
         id="path616" />
      <linearGradient
         id="XMLID_7_"
         gradientUnits="userSpaceOnUse"
         x1="37.4316"
         y1="74.7158"
         x2="42.2413"
         y2="76.8396"
         gradientTransform="matrix(-1 0 0 1 99.7148 -9.4111)">
        <stop
           offset="0"
           style="stop-color:#FFFFFF"
           id="stop618" />
        <stop
           offset="1"
           style="stop-color:#000000"
           id="stop619" />
        <a:midPointStop
           offset="0"
           style="stop-color:#FFFFFF"
           id="midPointStop620" />
        <a:midPointStop
           offset="0.5"
           style="stop-color:#FFFFFF"
           id="midPointStop621" />
        <a:midPointStop
           offset="1"
           style="stop-color:#000000"
           id="midPointStop622" />
      </linearGradient>
      <path
         style="opacity:0.2;fill:url(#XMLID_7_);stroke:none;"
         d="M48.545,39.817l20.312,49.691c0,0,0.913,0.793,2.151,1.895c1.733-0.338,3.502-0.506,5.261-0.596     c-0.01,0.186-0.002,0.363,0.028,0.533c-2.246,0.035-4.521,0.156-6.746,0.551c-1.234-1.115-2.144-1.916-2.144-1.916L47.354,39.673     C47.754,39.699,48.152,39.752,48.545,39.817z"
         id="path623" />
      <linearGradient
         id="XMLID_8_"
         gradientUnits="userSpaceOnUse"
         x1="39.9238"
         y1="68.457"
         x2="34.0131"
         y2="62.5463"
         gradientTransform="matrix(-1 0 0 1 99.7148 -9.4111)">
        <stop
           offset="0"
           style="stop-color:#DDDDDD"
           id="stop625" />
        <stop
           offset="1"
           style="stop-color:#FFFFFF"
           id="stop626" />
        <a:midPointStop
           offset="0"
           style="stop-color:#DDDDDD"
           id="midPointStop627" />
        <a:midPointStop
           offset="0.5"
           style="stop-color:#DDDDDD"
           id="midPointStop628" />
        <a:midPointStop
           offset="1"
           style="stop-color:#FFFFFF"
           id="midPointStop629" />
      </linearGradient>
      <path
         style="fill:url(#XMLID_8_);stroke:none;"
         d="M60.034,54.065c-2.432-2.864-5.301-4.876-8.439-6.31l-2.735-7.142     c11.51,0.775,20.403,19.91,25.279,33.447C67.088,69.887,64.885,60.575,60.034,54.065z"
         id="path630" />
      <linearGradient
         id="XMLID_9_"
         gradientUnits="userSpaceOnUse"
         x1="12.5264"
         y1="110.9141"
         x2="38.4968"
         y2="126.1576"
         gradientTransform="matrix(-1 0 0 1 99.7148 -9.4111)">
        <stop
           offset="0"
           style="stop-color:#FF9999"
           id="stop632" />
        <stop
           offset="0.7584"
           style="stop-color:#FF3333"
           id="stop633" />
        <stop
           offset="1"
           style="stop-color:#CC3333"
           id="stop634" />
        <a:midPointStop
           offset="0"
           style="stop-color:#FF9999"
           id="midPointStop635" />
        <a:midPointStop
           offset="0.5"
           style="stop-color:#FF9999"
           id="midPointStop636" />
        <a:midPointStop
           offset="0.7584"
           style="stop-color:#FF3333"
           id="midPointStop637" />
        <a:midPointStop
           offset="0.5"
           style="stop-color:#FF3333"
           id="midPointStop638" />
        <a:midPointStop
           offset="1"
           style="stop-color:#CC3333"
           id="midPointStop639" />
      </linearGradient>
      <path
         style="fill:url(#XMLID_9_);stroke:none;"
         d="M69.552,91.891c2.543,2.287,6.467,5.9,6.698,6.588c0.34,1.02-13.943,5.098-8.503,14.623     c3.917,6.852,8.535,9.65,13.479,9.799c1.689-0.039,3.409-0.379,5.151-0.957c3.227-1.074,10.603-9.125,1.701-18.025     c-9.521-9.521-7.143-7.141-9.521-9.521c-0.972-0.971-2.062-1.869-2.26-3.057C74.052,91.375,71.776,91.496,69.552,91.891      M78.218,104.6c0.125,0,0.25,0.01,0.376,0.018c0.125-0.008,0.249-0.018,0.377-0.018c4.13,0,7.48,2.891,7.48,6.461     s-3.351,6.463-7.48,6.463c-0.129,0-0.252-0.012-0.377-0.02c-0.126,0.008-0.25,0.02-0.376,0.02c-4.134,0-7.483-2.893-7.483-6.463     C70.734,107.492,74.084,104.6,78.218,104.6z"
         id="path640" />
      <path
         style="fill:#777777;stroke:none;"
         d="M73.903,81.607c0,1.803-1.463,3.266-3.265,3.266c-1.806,0-3.267-1.463-3.268-3.266     c0.001-1.807,1.461-3.268,3.268-3.268C72.44,78.34,73.903,79.803,73.903,81.607z"
         id="path641" />
      <path
         style="fill:#CC0000;stroke:none;"
         d="M77.637,91.891h-9.974v-1.318h9.974V91.891z"
         id="path642" />
      <path
         style="fill:#CC0000;stroke:none;"
         d="M81.377,86.314l-0.782,0.203l-2.714-10.375l0.783-0.205L81.377,86.314z"
         id="path643" />
    </g>
    <path
       style="fill:none;stroke:none;"
       d="M128,128H0V0h128V128z"
       id="path644" />
  </g>
</svg>
