<?xml version="1.0" encoding="UTF-8" standalone="no"?>
<!-- Created with Inkscape (http://www.inkscape.org/) -->
<svg
   xmlns:a="http://ns.adobe.com/AdobeSVGViewerExtensions/3.0/"
   xmlns:svg="http://www.w3.org/2000/svg"
   xmlns="http://www.w3.org/2000/svg"
   version="1.0"
   width="48pt"
   height="48pt"
   viewBox="0 0 256 256"
   id="svg2"
   xml:space="preserve"><defs
   id="defs271" />
	
		<g
   id="Layer_1">
			<g
   id="g7">
				<g
   id="g9">
					<g
   id="g11">
						<g
   id="g13">
							<path
   d="M 202.96484,11 C 151.24023,-16.366211 99.515137,45.04834 47.790527,15.805176 C 45.995606,14.79248 44.540527,15.299805 44.540527,17.09668 C 44.540527,53.655762 44.540527,90.215332 44.540527,126.77441 C 44.540527,128.56738 45.995606,130.9707 47.790527,131.98242 C 100.05615,161.53223 152.32227,98.516602 204.58789,128.06592 C 206.38281,129.07812 207.83789,128.57129 207.83789,126.77441 C 207.83789,90.215332 207.83789,53.655762 207.83789,17.09668 C 207.83789,15.303711 206.38281,12.900879 204.58789,11.888184 C 204.04688,11.58252 203.50586,11.286621 202.96484,11 z "
   style="fill:#663333"
   id="path15" />
							
								<linearGradient
   x1="46.159668"
   y1="71.922852"
   x2="206.20273"
   y2="71.922852"
   id="XMLID_17_"
   gradientUnits="userSpaceOnUse">
								<stop
   style="stop-color:#cf0000;stop-opacity:1"
   offset="0"
   id="stop18" />
								<stop
   style="stop-color:#7c0000;stop-opacity:1"
   offset="0.15730301"
   id="stop20" />
								<stop
   style="stop-color:#cf0000;stop-opacity:1"
   offset="0.31460699"
   id="stop22" />
								<stop
   style="stop-color:#b80000;stop-opacity:1"
   offset="0.64999998"
   id="stop24" />
								<stop
   style="stop-color:#cf0000;stop-opacity:1"
   offset="0.83707899"
   id="stop26" />
								<stop
   style="stop-color:#ff0000;stop-opacity:1"
   offset="1"
   id="stop28" />
								<a:midPointStop
   style="stop-color:#CF0000"
   offset="0" />
								<a:midPointStop
   style="stop-color:#CF0000"
   offset="0.5" />
								<a:midPointStop
   style="stop-color:#7C0000"
   offset="0.157303" />
								<a:midPointStop
   style="stop-color:#7C0000"
   offset="0.5" />
								<a:midPointStop
   style="stop-color:#CF0000"
   offset="0.314607" />
								<a:midPointStop
   style="stop-color:#CF0000"
   offset="0.5" />
								<a:midPointStop
   style="stop-color:#B80000"
   offset="0.65" />
								<a:midPointStop
   style="stop-color:#B80000"
   offset="0.5" />
								<a:midPointStop
   style="stop-color:#CF0000"
   offset="0.837079" />
								<a:midPointStop
   style="stop-color:#CF0000"
   offset="0.5" />
								<a:midPointStop
   style="stop-color:#FF0000"
   offset="1" />
							</linearGradient>
							<path
   d="M 202.96484,14.25 C 202.96484,15.432617 193.46582,7.7402344 179.16602,7.1987305 C 164.86719,5.6987305 145.76953,11.348633 126.57129,17.039062 C 107.37305,22.71582 88.076172,28.451172 73.379395,26.964355 C 58.682617,26.42041 48.586426,18.654785 47.790527,19.055176 C 47.790527,22.165527 47.790527,125.62158 47.790527,128.73291 C 48.578125,128.22119 58.575195,136.05664 73.176758,136.63965 C 87.777832,138.16992 106.98389,132.44922 126.18945,126.74756 C 145.39551,121.05176 164.60156,115.35742 179.20215,116.90039 C 193.80371,117.49512 203.80078,125.32715 204.58789,124.81592 C 204.58789,121.70459 204.58789,18.248535 204.58789,15.138184 C 203.77539,14.677246 202.96484,14.25 202.96484,14.25 z "
   style="fill:url(#XMLID_17_)"
   id="path30" />
							
								<linearGradient
   x1="49.415527"
   y1="71.935547"
   x2="202.96484"
   y2="71.935547"
   id="XMLID_18_"
   gradientUnits="userSpaceOnUse">
								<stop
   style="stop-color:#ffff66;stop-opacity:1"
   offset="0"
   id="stop33" />
								<stop
   style="stop-color:#ffbc50;stop-opacity:1"
   offset="0.15730301"
   id="stop35" />
								<stop
   style="stop-color:#ffc957;stop-opacity:1"
   offset="0.31460699"
   id="stop37" />
								<stop
   style="stop-color:#ffffde;stop-opacity:1"
   offset="0.64999998"
   id="stop39" />
								<stop
   style="stop-color:#ffc957;stop-opacity:1"
   offset="0.83707899"
   id="stop41" />
								<stop
   style="stop-color:#ffff66;stop-opacity:1"
   offset="1"
   id="stop43" />
								<a:midPointStop
   style="stop-color:#FFFF66"
   offset="0" />
								<a:midPointStop
   style="stop-color:#FFFF66"
   offset="0.5" />
								<a:midPointStop
   style="stop-color:#FFBC50"
   offset="0.157303" />
								<a:midPointStop
   style="stop-color:#FFBC50"
   offset="0.5" />
								<a:midPointStop
   style="stop-color:#FFC957"
   offset="0.314607" />
								<a:midPointStop
   style="stop-color:#FFC957"
   offset="0.5" />
								<a:midPointStop
   style="stop-color:#FFFFDE"
   offset="0.65" />
								<a:midPointStop
   style="stop-color:#FFFFDE"
   offset="0.5" />
								<a:midPointStop
   style="stop-color:#FFC957"
   offset="0.837079" />
								<a:midPointStop
   style="stop-color:#FFC957"
   offset="0.5" />
								<a:midPointStop
   style="stop-color:#FFFF66"
   offset="1" />
							</linearGradient>
							<path
   d="M 202.96484,122.30273 C 151.78125,95.223145 100.59863,155.07422 49.415527,127.99707 C 49.415527,92.520996 49.415527,57.044922 49.415527,21.569336 C 100.59863,48.646973 151.78223,-11.20459 202.96484,15.875 C 202.96484,51.351074 202.96484,86.827148 202.96484,122.30273 z "
   style="fill:url(#XMLID_18_)"
   id="path45" />
							
								<linearGradient
   x1="49.415527"
   y1="32.34082"
   x2="202.96484"
   y2="32.34082"
   id="XMLID_19_"
   gradientUnits="userSpaceOnUse">
								<stop
   style="stop-color:#ff6666;stop-opacity:1"
   offset="0"
   id="stop48" />
								<stop
   style="stop-color:#cf0000;stop-opacity:1"
   offset="0.15730301"
   id="stop50" />
								<stop
   style="stop-color:#ff0000;stop-opacity:1"
   offset="0.31460699"
   id="stop52" />
								<stop
   style="stop-color:#ff9999;stop-opacity:1"
   offset="0.64999998"
   id="stop54" />
								<stop
   style="stop-color:#ff6666;stop-opacity:1"
   offset="0.83707899"
   id="stop56" />
								<stop
   style="stop-color:#ff9999;stop-opacity:1"
   offset="1"
   id="stop58" />
								<a:midPointStop
   style="stop-color:#FF6666"
   offset="0" />
								<a:midPointStop
   style="stop-color:#FF6666"
   offset="0.5" />
								<a:midPointStop
   style="stop-color:#CF0000"
   offset="0.157303" />
								<a:midPointStop
   style="stop-color:#CF0000"
   offset="0.5" />
								<a:midPointStop
   style="stop-color:#FF0000"
   offset="0.314607" />
								<a:midPointStop
   style="stop-color:#FF0000"
   offset="0.5" />
								<a:midPointStop
   style="stop-color:#FF9999"
   offset="0.65" />
								<a:midPointStop
   style="stop-color:#FF9999"
   offset="0.5" />
								<a:midPointStop
   style="stop-color:#FF6666"
   offset="0.837079" />
								<a:midPointStop
   style="stop-color:#FF6666"
   offset="0.5" />
								<a:midPointStop
   style="stop-color:#FF9999"
   offset="1" />
							</linearGradient>
							<path
   d="M 49.415527,48.807617 C 100.59863,75.885254 151.78223,16.033691 202.96484,43.113281 C 202.96484,34.03418 202.96484,24.95459 202.96484,15.875 C 151.78125,-11.20459 100.59863,48.646973 49.415527,21.569336 C 49.415527,30.648438 49.415527,39.728027 49.415527,48.807617 z "
   style="fill:url(#XMLID_19_)"
   id="path60" />
							
								<linearGradient
   x1="49.415527"
   y1="111.5293"
   x2="202.96484"
   y2="111.5293"
   id="XMLID_20_"
   gradientUnits="userSpaceOnUse">
								<stop
   style="stop-color:#ff6666;stop-opacity:1"
   offset="0"
   id="stop63" />
								<stop
   style="stop-color:#cf0000;stop-opacity:1"
   offset="0.15730301"
   id="stop65" />
								<stop
   style="stop-color:#ff0000;stop-opacity:1"
   offset="0.31460699"
   id="stop67" />
								<stop
   style="stop-color:#ff9999;stop-opacity:1"
   offset="0.64999998"
   id="stop69" />
								<stop
   style="stop-color:#ff6666;stop-opacity:1"
   offset="0.83707899"
   id="stop71" />
								<stop
   style="stop-color:#ff9999;stop-opacity:1"
   offset="1"
   id="stop73" />
								<a:midPointStop
   style="stop-color:#FF6666"
   offset="0" />
								<a:midPointStop
   style="stop-color:#FF6666"
   offset="0.5" />
								<a:midPointStop
   style="stop-color:#CF0000"
   offset="0.157303" />
								<a:midPointStop
   style="stop-color:#CF0000"
   offset="0.5" />
								<a:midPointStop
   style="stop-color:#FF0000"
   offset="0.314607" />
								<a:midPointStop
   style="stop-color:#FF0000"
   offset="0.5" />
								<a:midPointStop
   style="stop-color:#FF9999"
   offset="0.65" />
								<a:midPointStop
   style="stop-color:#FF9999"
   offset="0.5" />
								<a:midPointStop
   style="stop-color:#FF6666"
   offset="0.837079" />
								<a:midPointStop
   style="stop-color:#FF6666"
   offset="0.5" />
								<a:midPointStop
   style="stop-color:#FF9999"
   offset="1" />
							</linearGradient>
							<path
   d="M 49.415527,100.75684 C 49.415527,109.83691 49.415527,118.91699 49.415527,127.99707 C 100.59863,155.07422 151.78223,95.223144 202.96484,122.30273 C 202.96484,113.22266 202.96484,104.14258 202.96484,95.0625 C 151.78125,67.98291 100.59863,127.83447 49.415527,100.75684 z "
   style="fill:url(#XMLID_20_)"
   id="path75" />
						</g>
					</g>
					<g
   id="g77">
						<g
   id="g79">
							<path
   d="M 240.94727,81.037598 C 189.22266,53.671387 137.49805,115.08496 85.772949,85.842285 C 83.978027,84.82959 82.522949,85.336914 82.522949,87.133789 C 82.522949,123.69287 82.522949,160.25195 82.522949,196.81152 C 82.522949,198.60449 83.978027,201.00586 85.772949,202.01758 C 138.03906,231.56641 190.30469,168.55273 242.57031,198.10156 C 244.36523,199.11328 245.82031,198.6084 245.82031,196.81152 C 245.82031,160.25195 245.82031,123.69287 245.82031,87.133789 C 245.82031,85.34082 244.36523,82.9375 242.57031,81.925293 C 242.0293,81.619629 241.48828,81.32373 240.94727,81.037598 z "
   style="fill:#616161"
   id="path81" />
							
								<linearGradient
   x1="89.159668"
   y1="141.95996"
   x2="269.1944"
   y2="141.95996"
   id="XMLID_21_"
   gradientUnits="userSpaceOnUse">
								<stop
   style="stop-color:#7c0000;stop-opacity:1"
   offset="0"
   id="stop84" />
								<stop
   style="stop-color:#820000;stop-opacity:1"
   offset="0.0424665"
   id="stop86" />
								<stop
   style="stop-color:#940000;stop-opacity:1"
   offset="0.1003014"
   id="stop88" />
								<stop
   style="stop-color:#b00000;stop-opacity:1"
   offset="0.1666673"
   id="stop90" />
								<stop
   style="stop-color:#cf0000;stop-opacity:1"
   offset="0.224719"
   id="stop92" />
								<stop
   style="stop-color:#d10909;stop-opacity:1"
   offset="0.2267506"
   id="stop94" />
								<stop
   style="stop-color:#d93737;stop-opacity:1"
   offset="0.23784339"
   id="stop96" />
								<stop
   style="stop-color:#e16262;stop-opacity:1"
   offset="0.2503449"
   id="stop98" />
								<stop
   style="stop-color:#e98888;stop-opacity:1"
   offset="0.26378101"
   id="stop100" />
								<stop
   style="stop-color:#efa8a8;stop-opacity:1"
   offset="0.2784059"
   id="stop102" />
								<stop
   style="stop-color:#f4c4c4;stop-opacity:1"
   offset="0.29456851"
   id="stop104" />
								<stop
   style="stop-color:#f8dada;stop-opacity:1"
   offset="0.3128109"
   id="stop106" />
								<stop
   style="stop-color:#fbebeb;stop-opacity:1"
   offset="0.33412179"
   id="stop108" />
								<stop
   style="stop-color:#fdf6f6;stop-opacity:1"
   offset="0.3604615"
   id="stop110" />
								<stop
   style="stop-color:#fffdfd;stop-opacity:1"
   offset="0.3974185"
   id="stop112" />
								<stop
   style="stop-color:#ffffff;stop-opacity:1"
   offset="0.5"
   id="stop114" />
								<stop
   style="stop-color:#fbfefc;stop-opacity:1"
   offset="0.51205993"
   id="stop116" />
								<stop
   style="stop-color:#f1f9f3;stop-opacity:1"
   offset="0.52283782"
   id="stop118" />
								<stop
   style="stop-color:#def2e5;stop-opacity:1"
   offset="0.53312951"
   id="stop120" />
								<stop
   style="stop-color:#c5e8d0;stop-opacity:1"
   offset="0.54312652"
   id="stop122" />
								<stop
   style="stop-color:#a3dab6;stop-opacity:1"
   offset="0.55291021"
   id="stop124" />
								<stop
   style="stop-color:#7bca95;stop-opacity:1"
   offset="0.56252933"
   id="stop126" />
								<stop
   style="stop-color:#4ab76f;stop-opacity:1"
   offset="0.57202321"
   id="stop128" />
								<stop
   style="stop-color:#14a143;stop-opacity:1"
   offset="0.58118182"
   id="stop130" />
								<stop
   style="stop-color:#009933;stop-opacity:1"
   offset="0.58427"
   id="stop132" />
								<stop
   style="stop-color:#006a00;stop-opacity:1"
   offset="1"
   id="stop134" />
								<a:midPointStop
   style="stop-color:#7C0000"
   offset="0" />
								<a:midPointStop
   style="stop-color:#7C0000"
   offset="0.641026" />
								<a:midPointStop
   style="stop-color:#CF0000"
   offset="0.224719" />
								<a:midPointStop
   style="stop-color:#CF0000"
   offset="0.13" />
								<a:midPointStop
   style="stop-color:#FFFFFF"
   offset="0.5" />
								<a:midPointStop
   style="stop-color:#FFFFFF"
   offset="0.7297301" />
								<a:midPointStop
   style="stop-color:#009933"
   offset="0.58427" />
								<a:midPointStop
   style="stop-color:#009933"
   offset="0.5" />
								<a:midPointStop
   style="stop-color:#006A00"
   offset="1" />
							</linearGradient>
							<path
   d="M 240.94727,84.287598 C 240.94727,85.469727 231.44824,77.777832 217.14844,77.23584 C 202.84961,75.73584 183.75195,81.385742 164.55371,87.076172 C 145.35547,92.75293 126.05859,98.487793 111.36182,97.001465 C 96.665039,96.457031 86.568848,88.691406 85.772949,89.092285 C 85.772949,92.202637 85.772949,195.6582 85.772949,198.76953 C 86.560547,198.25879 96.557129,206.09277 111.15869,206.67676 C 125.75977,208.20703 144.96582,202.48633 164.17188,196.78516 C 183.37793,191.08887 202.58301,185.39453 217.18457,186.9375 C 231.78613,187.53223 241.78223,195.36426 242.57031,194.85352 C 242.57031,191.74219 242.57031,88.285645 242.57031,85.175293 C 241.75781,84.714355 240.94727,84.287109 240.94727,84.287598 z "
   style="fill:url(#XMLID_21_)"
   id="path136" />
							
								<linearGradient
   x1="87.396973"
   y1="141.97266"
   x2="240.94727"
   y2="141.97266"
   id="XMLID_22_"
   gradientUnits="userSpaceOnUse">
								<stop
   style="stop-color:#e9e9ef;stop-opacity:1"
   offset="0"
   id="stop139" />
								<stop
   style="stop-color:#b1b1c5;stop-opacity:1"
   offset="0.15730301"
   id="stop141" />
								<stop
   style="stop-color:#cecedb;stop-opacity:1"
   offset="0.31460699"
   id="stop143" />
								<stop
   style="stop-color:#ffffff;stop-opacity:1"
   offset="0.64999998"
   id="stop145" />
								<stop
   style="stop-color:#cecedb;stop-opacity:1"
   offset="0.83707899"
   id="stop147" />
								<stop
   style="stop-color:#ffff66;stop-opacity:1"
   offset="1"
   id="stop149" />
								<a:midPointStop
   style="stop-color:#E9E9EF"
   offset="0" />
								<a:midPointStop
   style="stop-color:#E9E9EF"
   offset="0.5" />
								<a:midPointStop
   style="stop-color:#B1B1C5"
   offset="0.157303" />
								<a:midPointStop
   style="stop-color:#B1B1C5"
   offset="0.5" />
								<a:midPointStop
   style="stop-color:#CECEDB"
   offset="0.314607" />
								<a:midPointStop
   style="stop-color:#CECEDB"
   offset="0.5" />
								<a:midPointStop
   style="stop-color:#FFFFFF"
   offset="0.65" />
								<a:midPointStop
   style="stop-color:#FFFFFF"
   offset="0.5" />
								<a:midPointStop
   style="stop-color:#CECEDB"
   offset="0.837079" />
								<a:midPointStop
   style="stop-color:#CECEDB"
   offset="0.5" />
								<a:midPointStop
   style="stop-color:#FFFF66"
   offset="1" />
							</linearGradient>
							<path
   d="M 240.94727,192.33984 C 189.76367,165.26074 138.58008,225.1123 87.396973,198.0332 C 87.396973,162.55762 87.396973,127.08154 87.396973,91.605469 C 138.58008,118.68408 189.76367,58.833008 240.94727,85.912598 C 240.94727,121.38818 240.94727,156.86426 240.94727,192.33984 z "
   style="fill:url(#XMLID_22_)"
   id="path151" />
							
								<linearGradient
   x1="87.396973"
   y1="148.42578"
   x2="138.53125"
   y2="148.42578"
   id="XMLID_23_"
   gradientUnits="userSpaceOnUse">
								<stop
   style="stop-color:#ff6666;stop-opacity:1"
   offset="0"
   id="stop154" />
								<stop
   style="stop-color:#cf0000;stop-opacity:1"
   offset="0.46629199"
   id="stop156" />
								<stop
   style="stop-color:#ff0000;stop-opacity:1"
   offset="1"
   id="stop158" />
								<a:midPointStop
   style="stop-color:#FF6666"
   offset="0" />
								<a:midPointStop
   style="stop-color:#FF6666"
   offset="0.5" />
								<a:midPointStop
   style="stop-color:#CF0000"
   offset="0.466292" />
								<a:midPointStop
   style="stop-color:#CF0000"
   offset="0.5" />
								<a:midPointStop
   style="stop-color:#FF0000"
   offset="1" />
							</linearGradient>
							<path
   d="M 138.53125,96.158203 C 121.48633,100.00049 104.44189,100.62305 87.396973,91.605469 C 87.396973,127.08154 87.396973,162.55762 87.396973,198.0332 C 104.44189,207.05078 121.48633,206.42773 138.53125,202.58594 C 138.53125,167.10938 138.53125,131.63379 138.53125,96.158203 z "
   style="fill:url(#XMLID_23_)"
   id="path160" />
							
								<linearGradient
   x1="189.81445"
   y1="135.51855"
   x2="240.94727"
   y2="135.51855"
   id="XMLID_24_"
   gradientUnits="userSpaceOnUse">
								<stop
   style="stop-color:#6fcf00;stop-opacity:1"
   offset="0"
   id="stop163" />
								<stop
   style="stop-color:#2ca900;stop-opacity:1"
   offset="0.55618012"
   id="stop165" />
								<stop
   style="stop-color:#33cc33;stop-opacity:1"
   offset="1"
   id="stop167" />
								<a:midPointStop
   style="stop-color:#6FCF00"
   offset="0" />
								<a:midPointStop
   style="stop-color:#6FCF00"
   offset="0.5" />
								<a:midPointStop
   style="stop-color:#2CA900"
   offset="0.5561801" />
								<a:midPointStop
   style="stop-color:#2CA900"
   offset="0.5" />
								<a:midPointStop
   style="stop-color:#33CC33"
   offset="1" />
							</linearGradient>
							<path
   d="M 189.81445,187.78711 C 206.8584,183.94434 223.90332,183.32227 240.94727,192.33984 C 240.94727,156.86426 240.94727,121.38818 240.94727,85.912598 C 223.90332,76.894531 206.8584,77.51709 189.81445,81.358887 C 189.81445,116.83496 189.81445,152.31055 189.81445,187.78711 z "
   style="fill:url(#XMLID_24_)"
   id="path169" />
						</g>
					</g>
				</g>
				<g
   id="g171">
					
						<linearGradient
   x1="127.63379"
   y1="233.91211"
   x2="10.45777"
   y2="116.73609"
   id="XMLID_25_"
   gradientUnits="userSpaceOnUse">
						<stop
   style="stop-color:#585868;stop-opacity:1"
   offset="0"
   id="stop174" />
						<stop
   style="stop-color:#333366;stop-opacity:1"
   offset="1"
   id="stop176" />
						<a:midPointStop
   style="stop-color:#585868"
   offset="0" />
						<a:midPointStop
   style="stop-color:#585868"
   offset="0.5" />
						<a:midPointStop
   style="stop-color:#333366"
   offset="1" />
					</linearGradient>
					<path
   d="M 23.962891,108.49512 C 16.362793,108.49512 10.180176,115.3916 10.180176,123.86816 L 10.180176,226.7793 C 10.180176,235.25684 16.362793,242.15332 23.962891,242.15332 L 114.12939,242.15332 C 121.729,242.15332 127.91064,235.25684 127.91064,226.7793 L 127.91064,123.86816 C 127.91064,115.3916 121.729,108.49512 114.12939,108.49512 L 23.962891,108.49512 z "
   style="fill:url(#XMLID_25_)"
   id="path178" />
					
						<linearGradient
   x1="69.045898"
   y1="238.2793"
   x2="69.045891"
   y2="112.36963"
   id="XMLID_26_"
   gradientUnits="userSpaceOnUse">
						<stop
   style="stop-color:#666699;stop-opacity:1"
   offset="0"
   id="stop181" />
						<stop
   style="stop-color:#bdbdcf;stop-opacity:1"
   offset="0.32584301"
   id="stop183" />
						<stop
   style="stop-color:#ffffff;stop-opacity:1"
   offset="1"
   id="stop185" />
						<a:midPointStop
   style="stop-color:#666699"
   offset="0" />
						<a:midPointStop
   style="stop-color:#666699"
   offset="0.5" />
						<a:midPointStop
   style="stop-color:#BDBDCF"
   offset="0.325843" />
						<a:midPointStop
   style="stop-color:#BDBDCF"
   offset="0.5" />
						<a:midPointStop
   style="stop-color:#FFFFFF"
   offset="1" />
					</linearGradient>
					<path
   d="M 124.0376,226.7793 C 124.0376,233.13086 119.6001,238.2793 114.12939,238.2793 L 23.962891,238.2793 C 18.492188,238.2793 14.054199,233.13086 14.054199,226.7793 L 14.054199,123.86816 C 14.054199,117.51758 18.492188,112.36914 23.962891,112.36914 L 114.12939,112.36914 C 119.6001,112.36914 124.0376,117.51758 124.0376,123.86816 L 124.0376,226.7793 L 124.0376,226.7793 z "
   style="fill:url(#XMLID_26_)"
   id="path187" />
					
						<linearGradient
   x1="69.045898"
   y1="210.15039"
   x2="69.045891"
   y2="112.36963"
   id="XMLID_27_"
   gradientUnits="userSpaceOnUse">
						<stop
   style="stop-color:#ffffff;stop-opacity:1"
   offset="0"
   id="stop190" />
						<stop
   style="stop-color:#e9e9ef;stop-opacity:1"
   offset="0.162921"
   id="stop192" />
						<stop
   style="stop-color:#cecedb;stop-opacity:1"
   offset="0.73033702"
   id="stop194" />
						<stop
   style="stop-color:#b1b1c5;stop-opacity:1"
   offset="1"
   id="stop196" />
						<a:midPointStop
   style="stop-color:#FFFFFF"
   offset="0" />
						<a:midPointStop
   style="stop-color:#FFFFFF"
   offset="0.5" />
						<a:midPointStop
   style="stop-color:#E9E9EF"
   offset="0.162921" />
						<a:midPointStop
   style="stop-color:#E9E9EF"
   offset="0.5" />
						<a:midPointStop
   style="stop-color:#CECEDB"
   offset="0.730337" />
						<a:midPointStop
   style="stop-color:#CECEDB"
   offset="0.5" />
						<a:midPointStop
   style="stop-color:#B1B1C5"
   offset="1" />
					</linearGradient>
					<path
   d="M 118.60596,201.2207 C 118.60596,206.15234 114.60791,210.15039 109.67627,210.15039 L 28.416016,210.15039 C 23.484375,210.15039 19.48584,206.15234 19.48584,201.2207 L 19.48584,121.2998 C 19.48584,116.36719 23.484375,112.36914 28.416016,112.36914 L 109.67627,112.36914 C 114.60791,112.36914 118.60596,116.36719 118.60596,121.2998 L 118.60596,201.2207 L 118.60596,201.2207 z "
   style="fill:url(#XMLID_27_)"
   id="path198" />
					
						<linearGradient
   x1="69.045898"
   y1="210.15039"
   x2="69.045891"
   y2="112.36963"
   id="XMLID_28_"
   gradientUnits="userSpaceOnUse">
						<stop
   style="stop-color:#ffffff;stop-opacity:1"
   offset="0"
   id="stop201" />
						<stop
   style="stop-color:#fafafb;stop-opacity:1"
   offset="0.15989269"
   id="stop203" />
						<stop
   style="stop-color:#ededf1;stop-opacity:1"
   offset="0.33909991"
   id="stop205" />
						<stop
   style="stop-color:#d6d6df;stop-opacity:1"
   offset="0.52763522"
   id="stop207" />
						<stop
   style="stop-color:#b7b7c7;stop-opacity:1"
   offset="0.72270828"
   id="stop209" />
						<stop
   style="stop-color:#8f8fa7;stop-opacity:1"
   offset="0.92086339"
   id="stop211" />
						<stop
   style="stop-color:#7d7d99;stop-opacity:1"
   offset="1"
   id="stop213" />
						<a:midPointStop
   style="stop-color:#FFFFFF"
   offset="0" />
						<a:midPointStop
   style="stop-color:#FFFFFF"
   offset="0.6836159" />
						<a:midPointStop
   style="stop-color:#7D7D99"
   offset="1" />
					</linearGradient>
					<path
   d="M 109.67627,112.36914 L 108.00635,112.36914 C 112.73486,112.36914 116.5708,116.20312 116.5708,120.93164 L 116.5708,197.56934 C 116.5708,202.29785 105.70752,206.13281 100.97705,206.13281 L 36.978516,206.13281 C 32.248535,206.13281 21.521973,202.29785 21.521973,197.56934 L 21.521973,120.93164 C 21.521973,116.20312 25.356934,112.36914 30.086426,112.36914 L 28.416016,112.36914 C 23.484375,112.36914 19.48584,116.36719 19.48584,121.2998 L 19.48584,201.2207 C 19.48584,206.15234 23.484375,210.15039 28.416016,210.15039 L 109.67627,210.15039 C 114.60791,210.15039 118.60596,206.15234 118.60596,201.2207 L 118.60596,121.2998 C 118.60596,116.36719 114.60791,112.36914 109.67627,112.36914 z "
   style="fill:url(#XMLID_28_)"
   id="path215" />
					
						<linearGradient
   x1="22.611328"
   y1="209.4707"
   x2="22.611326"
   y2="234.47461"
   id="XMLID_29_"
   gradientUnits="userSpaceOnUse">
						<stop
   style="stop-color:#ffffff;stop-opacity:1"
   offset="0"
   id="stop218" />
						<stop
   style="stop-color:#fafafb;stop-opacity:1"
   offset="0.1836116"
   id="stop220" />
						<stop
   style="stop-color:#ededf1;stop-opacity:1"
   offset="0.3894237"
   id="stop222" />
						<stop
   style="stop-color:#d6d6e0;stop-opacity:1"
   offset="0.60593331"
   id="stop224" />
						<stop
   style="stop-color:#b7b7c8;stop-opacity:1"
   offset="0.82835269"
   id="stop226" />
						<stop
   style="stop-color:#9a9ab1;stop-opacity:1"
   offset="1"
   id="stop228" />
						<a:midPointStop
   style="stop-color:#FFFFFF"
   offset="0" />
						<a:midPointStop
   style="stop-color:#FFFFFF"
   offset="0.6836159" />
						<a:midPointStop
   style="stop-color:#9A9AB1"
   offset="1" />
					</linearGradient>
					<path
   d="M 20.080566,209.4707 C 20.080566,209.4707 22.164551,213.33984 25.736816,213.33984 L 19.48584,234.47461 L 20.080566,209.4707 z "
   style="fill:url(#XMLID_29_)"
   id="path230" />
					
						<linearGradient
   x1="608.85449"
   y1="209.4707"
   x2="608.85449"
   y2="234.47461"
   id="XMLID_30_"
   gradientUnits="userSpaceOnUse"
   gradientTransform="matrix(-1.000000,0.000000,0.000000,1.000000,724.3340,0.000000)">
						<stop
   style="stop-color:#ffffff;stop-opacity:1"
   offset="0"
   id="stop233" />
						<stop
   style="stop-color:#fafafb;stop-opacity:1"
   offset="0.1836116"
   id="stop235" />
						<stop
   style="stop-color:#ededf1;stop-opacity:1"
   offset="0.3894237"
   id="stop237" />
						<stop
   style="stop-color:#d6d6e0;stop-opacity:1"
   offset="0.60593331"
   id="stop239" />
						<stop
   style="stop-color:#b7b7c8;stop-opacity:1"
   offset="0.82835269"
   id="stop241" />
						<stop
   style="stop-color:#9a9ab1;stop-opacity:1"
   offset="1"
   id="stop243" />
						<a:midPointStop
   style="stop-color:#FFFFFF"
   offset="0" />
						<a:midPointStop
   style="stop-color:#FFFFFF"
   offset="0.6836159" />
						<a:midPointStop
   style="stop-color:#9A9AB1"
   offset="1" />
					</linearGradient>
					<path
   d="M 118.01221,209.4707 C 118.01221,209.4707 115.92822,213.33984 112.354,213.33984 L 118.60596,234.47461 L 118.01221,209.4707 z "
   style="fill:url(#XMLID_30_)"
   id="path245" />
					
						<linearGradient
   x1="69.04541"
   y1="241.92383"
   x2="69.04541"
   y2="209.52298"
   id="XMLID_31_"
   gradientUnits="userSpaceOnUse">
						<stop
   style="stop-color:#b1b1c5;stop-opacity:1"
   offset="0"
   id="stop248" />
						<stop
   style="stop-color:#a3a3ba;stop-opacity:1"
   offset="0.16451059"
   id="stop250" />
						<stop
   style="stop-color:#7e7e9e;stop-opacity:1"
   offset="0.4760384"
   id="stop252" />
						<stop
   style="stop-color:#424272;stop-opacity:1"
   offset="0.89851779"
   id="stop254" />
						<stop
   style="stop-color:#333366;stop-opacity:1"
   offset="1"
   id="stop256" />
						<a:midPointStop
   style="stop-color:#B1B1C5"
   offset="0" />
						<a:midPointStop
   style="stop-color:#B1B1C5"
   offset="0.564972" />
						<a:midPointStop
   style="stop-color:#333366"
   offset="1" />
					</linearGradient>
					<path
   d="M 100.95361,214.7373 L 37.135742,214.7373 C 33.489258,214.7373 27.347168,226.9668 22.495117,238.13965 C 22.976074,238.22266 23.463379,238.2793 23.962891,238.2793 L 114.12939,238.2793 C 114.62939,238.2793 115.11572,238.22266 115.59619,238.13965 C 110.74463,226.9668 104.60205,214.7373 100.95361,214.7373 z "
   style="opacity:0.2;fill:url(#XMLID_31_)"
   id="path258" />
					<g
   id="g260">
						
							<linearGradient
   x1="28.782227"
   y1="138.01074"
   x2="62.393066"
   y2="138.01074"
   id="XMLID_32_"
   gradientUnits="userSpaceOnUse">
							<stop
   style="stop-color:#7d7d99;stop-opacity:1"
   offset="0"
   id="stop263" />
							<stop
   style="stop-color:#585868;stop-opacity:1"
   offset="1"
   id="stop265" />
							<a:midPointStop
   style="stop-color:#7D7D99"
   offset="0" />
							<a:midPointStop
   style="stop-color:#7D7D99"
   offset="0.5" />
							<a:midPointStop
   style="stop-color:#585868"
   offset="1" />
						</linearGradient>
						<path
   d="M 28.782227,155.12109 L 35.280762,120.90039 L 43.861817,120.90039 L 48.379883,133.94922 C 49.750977,138.31543 50.664551,141.86914 51.477051,145.62695 L 51.629395,145.62695 C 51.781739,142.12305 52.289551,138.36621 53.203125,133.33984 L 55.539063,120.90039 L 62.393067,120.90039 L 55.894531,155.12109 L 48.32959,155.12109 L 43.557129,141.46289 C 42.033692,136.79297 41.119629,133.69531 40.205567,129.53223 L 40.053223,129.53223 C 39.697754,132.88281 38.885742,137.70605 37.870117,143.13867 L 35.585449,155.12109 L 28.782227,155.12109 L 28.782227,155.12109 z "
   style="fill:url(#XMLID_32_)"
   id="path267" />
					</g>
				</g>
			</g>
			<polyline
   id="_x3C_Slice_x3E_"
   points="0,256 0,0 256,0 256,256 "
   style="fill:none" />
		</g>
	</svg>