<?xml version="1.0" encoding="UTF-8" standalone="no"?>
<!DOCTYPE svg PUBLIC "-//W3C//DTD SVG 20010904//EN"
"http://www.w3.org/TR/2001/REC-SVG-20010904/DTD/svg10.dtd">
<!-- Created with Sodipodi ("http://www.sodipodi.com/") -->
<svg
   width="48pt"
   height="48pt"
   viewBox="0 0 42.125 48.74"
   overflow="visible"
   enable-background="new 0 0 42.125 48.74"
   xml:space="preserve"
   xmlns="http://www.w3.org/2000/svg"
   xmlns:xml="http://www.w3.org/XML/1998/namespace"
   xmlns:sodipodi="http://sodipodi.sourceforge.net/DTD/sodipodi-0.dtd"
   xmlns:xlink="http://www.w3.org/1999/xlink"
   id="svg153"
   sodipodi:version="0.32pre"
   sodipodi:docname="/home/cschalle/gnome-themes-extras/Wasp/icons/scalable/filesystems/gnome-fs-trash-empty.svg"
   sodipodi:docbase="/home/cschalle/gnome-themes-extras/Wasp/icons/scalable/filesystems">
  <defs
     id="defs190" />
  <sodipodi:namedview
     id="base" />
  <metadata
     id="metadata154">
    <sfw>
      <slices />
      <sliceSourceBounds
         y="395.107"
         x="275.44"
         width="42.125"
         height="48.74"
         bottomLeftOrigin="true" />
    </sfw>
  </metadata>
  <g
     id="Layer_1"
     stroke="#000000">
    <g
       id="Layer_1_2_">
      <path
         opacity="0.2"
         stroke="none"
         d="M21.278,48.729c0,0,6.062,0.148,8.575-0.591s12.271-9.167,12.271-9.167v-2.809     c0,0-4.274-1.517-6.653-2.069c-0.874-0.203-1.626,0.147-1.626,0.147l-1.627,5.175L21.278,48.729z"
         id="path157" />
      <path
         stroke="none"
         d="M13.191,1.854L1.529,12.915c-0.931,0.867-1.448,1.94-1.49,3.094C0.038,16.009,0,16.015,0,16.015     s-0.067,1.738,0.292,3.092c0.389,1.466,1.453,2.795,1.51,2.853c0.189,0.605,6.263,19.953,6.263,19.953l0.034,0.072     c0.304,0.651,0.858,1.181,1.604,1.528c0.002,0.001,9.295,4.315,9.356,4.343c1.292,0.682,2.943,1.054,3.931,0.595     c0.707-0.389,9.201-8.459,9.201-8.459c0.347-0.325,0.615-0.691,0.797-1.085l0.046-0.1c0,0,4.928-19.365,5.1-20.037     c0.37-0.313,1.494-4.178,1.678-4.95c0.42-1.762-0.42-4.112-0.42-4.112c-0.412-0.994-2.185-2-3.272-2.517     C36.104,7.186,21.59,0.546,21.59,0.546C18.996-0.686,15.301-0.114,13.191,1.854z"
         id="path158" />
      <path
         fill="#66CC99"
         stroke="none"
         d="M31.898,38.405c-0.114,0.246-0.29,0.488-0.529,0.713l-7.404,6.945     c-2.04,1.715-2.425,1.754-4.396,0.708l-9.36-4.345c-0.502-0.235-0.847-0.568-1.024-0.948L1.55,17.081     c0.196,0.796,0.811,1.51,1.816,1.978l15.156,7.036c2.169,1.01,5.375,0.493,7.119-1.144l11.988-11.247     c0.627-0.589,0.983-1.246,1.083-1.892L31.898,38.405z"
         id="path159" />
      <path
         fill="#336666"
         stroke="none"
         d="M31.898,38.405c-0.114,0.246-0.29,0.488-0.529,0.713l-7.813,7.341l1.502-21.021     l12.57-11.734c0.627-0.589,0.983-1.246,1.083-1.892L31.898,38.405z"
         id="path160" />
      <linearGradient
         id="XMLID_1_"
         gradientUnits="userSpaceOnUse"
         x1="-224.2808"
         y1="371.0073"
         x2="-219.8849"
         y2="371.0073"
         gradientTransform="matrix(1 0 0 -1 243.8506 407.21)">
        <stop
           offset="0.0279"
           style="stop-color:#66CC99"
           id="stop162" />
        <stop
           offset="0.2458"
           style="stop-color:#CCFFCC"
           id="stop163" />
        <stop
           offset="0.4246"
           style="stop-color:#66CC99"
           id="stop164" />
        <stop
           offset="1"
           style="stop-color:#336666"
           id="stop165" />
      </linearGradient>
      <path
         fill="url(#XMLID_1_)"
         stroke="none"
         d="M23.965,46.063c-2.04,1.715-2.425,1.754-4.396,0.708l-1.047-20.676     c2.169,1.009,5.375,0.492,7.119-1.144L23.965,46.063z"
         id="path173" />
      <path
         opacity="0.45"
         fill="#336666"
         stroke="none"
         d="M25.057,33.301c-2.041,1.715-3.81,1.472-5.782,0.426L5.758,27.011     c-0.503-0.234-1.467-1.72-1.644-2.099L1.55,17.081c0.196,0.796,0.811,1.51,1.816,1.978l15.156,7.036     c2.169,1.01,5.375,0.493,7.119-1.144L25.057,33.301z"
         id="path174" />
      <path
         stroke="none"
         d="M38.716,11.185c-0.012-0.111-0.039-0.219-0.066-0.327c-0.051-0.217-0.096-0.339-0.096-0.339     c0,0.004-0.002,0.01-0.003,0.015c-0.267-0.657-0.821-1.241-1.67-1.645L21.088,1.636c-2.152-1.022-5.337-0.529-7.078,1.095     L2.355,13.786c-0.741,0.69-1.093,1.493-1.119,2.278c-0.012-0.039-0.029-0.083-0.038-0.119c0,0,0.011,0.194,0.037,0.501     c0.001,0.017,0.001,0.034,0.003,0.05c0.07,0.844,0.24,2.5,0.578,3.777c0.376,1.418,1.096,1.938,1.096,1.938     c0.165,0.266,0.66,0.655,1.352,0.825l15.24,7.207c2.103,1.275,4.129,1.051,6.531-0.826L37.07,18.982     c0.284-0.146,0.887-1.817,1.426-3.829C38.939,13.5,38.834,11.895,38.716,11.185z"
         id="path175" />
      <g
         id="g176">
        <path
           opacity="0.2"
           fill="#FFFFFF"
           stroke="none"
           d="M0.888,14.845c-0.441,0.529-0.545,4.75,1.364,5.73      c0.774,0.397,14.451,7.389,15.646,8.005c2.82,1.456,4.375,2.021,7.641-0.363c3.27-2.384,11.62-9.793,12.28-11.28      c1.125-2.534,2.01-4.14,0.909-6.641C38.42,9.595,35.09,7.204,36.66,10.54c0.865,1.839-9.746,10.829-11.801,12.5      c-1.413,1.149-2.743,1.54-5.833,0.569c-3.091-0.972-15.942-6.442-16.136-6.903C2.676,16.198,1.241,14.137,0.888,14.845z"
           id="path177" />
        <path
           opacity="0.275"
           fill="#FFFFFF"
           stroke="none"
           d="M18.183,28.138c-1.131-0.503-14.575-7.45-15.758-8.14      c-0.518-0.302-1.157-1.059-1.364-1.666c-0.176-0.519-0.176-0.813-0.085-1.033c-0.082-0.876,0.085-1.665,0.351-1.795      c0.379-0.468,1.543,1.223,1.963,1.642c1.157,1.157,13.332,6.251,15.784,6.998c2.48,0.749,4.138,0.57,5.729-0.549      c0.096-0.067,0.2-0.142,0.308-0.227c2.356-1.868,11.855-10.101,11.506-12.181c-0.258-1.532-0.025-1.705,0.541-1.501      c0.583-0.082,1.243,0.744,1.352,1.052c0.688,1.949-0.024,3.491-1.316,5.822c-1.13,2.039-8.57,8.881-11.67,11.078      c-0.223,0.158-0.436,0.302-0.642,0.427C21.854,29.895,20.426,29.134,18.183,28.138z"
           id="path178" />
        <path
           opacity="0.35"
           fill="#FFFFFF"
           stroke="none"
           d="M18.467,27.695c-1.073-0.383-14.284-7.276-15.871-8.273      c-0.409-0.257-1.274-1.099-1.426-1.524c-0.214-0.595-0.123-0.708,0.109-0.688c-0.035-0.565,0.166-1.037,0.485-1.046      c0.403-0.228,1.393,1.026,1.923,1.425c2.283,1.716,13.616,6.575,15.433,7.091c1.87,0.53,3.867,0.577,5.624-0.528      c0.121-0.076,0.247-0.158,0.373-0.254c2.171-1.653,10.637-9.618,11.453-12.063c-0.176-1.182,0.244-1.485,0.641-1.416      c0.507-0.467,1.005,0.469,1.078,0.76c0.339,1.359-0.344,2.84-1.726,5.003c-1.643,2.574-8.128,8.866-11.059,10.877      c-0.209,0.143-0.408,0.272-0.6,0.381C21.658,29.265,20.326,28.357,18.467,27.695z"
           id="path179" />
        <path
           opacity="0.425"
           fill="#FFFFFF"
           stroke="none"
           d="M18.752,27.251c-1.021-0.249-14.01-7.075-15.983-8.407      c-0.303-0.205-1.396-1.137-1.488-1.382c-0.254-0.671-0.069-0.604,0.304-0.344c0.012-0.253,0.246-0.41,0.619-0.295      c0.428,0.012,1.242,0.812,1.883,1.206c3.48,2.141,13.902,6.896,15.081,7.185c1.26,0.309,3.602,0.593,5.52-0.509      c0.146-0.084,0.293-0.175,0.438-0.28c1.976-1.452,9.758-9.166,11.399-11.945c0.152-0.892,0.514-1.264,0.741-1.33      c0.43-0.852,0.833,0.187,0.803,0.468c0.253,0.691-0.691,2.167-2.132,4.185c-2.199,3.078-7.687,8.85-10.448,10.676      c-0.194,0.129-0.381,0.242-0.558,0.335C21.458,28.624,20.213,27.608,18.752,27.251z"
           id="path180" />
        <path
           opacity="0.5"
           fill="#FFFFFF"
           stroke="none"
           d="M1.889,17.028c0.513,0.501,16.618,8.631,17.325,8.72      c0.706,0.089,3.796,0.707,5.916-0.795c2.12-1.501,11.834-11.834,12.188-13.07c0.354-1.237,0.617-0.088,0.529,0.177      c-0.088,0.265-9.185,12.363-12.893,14.13c-3.709,1.766-4.857,0.707-5.917,0.619c-0.974-0.082-13.782-6.813-16.096-8.542      c-0.201-0.151-1.522-1.174-1.55-1.24C1.067,16.293,1.374,16.527,1.889,17.028z"
           id="path181" />
      </g>
      <linearGradient
         id="XMLID_2_"
         gradientUnits="userSpaceOnUse"
         x1="-207.4775"
         y1="394.479"
         x2="-238.5177"
         y2="394.479"
         gradientTransform="matrix(1 0 0 -1 243.8506 407.21)">
        <stop
           offset="0.4358"
           style="stop-color:#737373"
           id="stop183" />
        <stop
           offset="0.6201"
           style="stop-color:#000000"
           id="stop184" />
      </linearGradient>
      <path
         fill="url(#XMLID_2_)"
         stroke="none"
         d="M25.311,22.85c-1.556,1.455-4.587,1.875-6.459,0.856L4.4,17.044     c-1.87-1.021-2.125-3.042-0.567-4.496l10.43-9.892c1.559-1.454,4.899-1.936,6.825-1.021L35.67,8.393     c1.925,0.916,1.924,2.939,0.369,4.393L25.311,22.85z"
         id="path188" />
    </g>
  </g>
</svg>
