<?xml version="1.0" encoding="UTF-8" standalone="no"?>
<!DOCTYPE svg PUBLIC "-//W3C//DTD SVG 20010904//EN"
"http://www.w3.org/TR/2001/REC-SVG-20010904/DTD/svg10.dtd">
<!-- Created with Sodipodi ("http://www.sodipodi.com/") -->
<svg
   width="48pt"
   height="48pt"
   viewBox="0 0 49.008 50.516"
   overflow="visible"
   enable-background="new 0 0 49.008 50.516"
   xml:space="preserve"
   xmlns="http://www.w3.org/2000/svg"
   xmlns:xml="http://www.w3.org/XML/1998/namespace"
   xmlns:sodipodi="http://sodipodi.sourceforge.net/DTD/sodipodi-0.dtd"
   xmlns:xlink="http://www.w3.org/1999/xlink"
   id="svg153"
   sodipodi:version="0.32pre"
   sodipodi:docname="/home/cschalle/gnome-themes-extras/Wasp/icons/scalable/filesystems/gnome-fs-trash-full.svg"
   sodipodi:docbase="/home/cschalle/gnome-themes-extras/Wasp/icons/scalable/filesystems">
  <defs
     id="defs265" />
  <sodipodi:namedview
     id="base" />
  <metadata
     id="metadata154">
    <sfw>
      <slices />
      <sliceSourceBounds
         y="394.242"
         x="271.996"
         width="49.008"
         height="50.516"
         bottomLeftOrigin="true" />
    </sfw>
  </metadata>
  <g
     id="Layer_1"
     stroke="#000000">
    <g
       id="Layer_1_2_">
      <path
         opacity="0.2"
         stroke="none"
         d="M28.162,50.505c0,0,6.062,0.147,8.575-0.592c2.513-0.739,12.271-9.166,12.271-9.166v-2.809     c0,0-4.273-1.518-6.652-2.07c-0.874-0.203-1.626,0.148-1.626,0.148l-1.627,5.174L28.162,50.505z"
         id="path157" />
      <path
         stroke="none"
         d="M20.076,3.628L8.412,14.69c-0.931,0.867-1.448,1.94-1.489,3.093c-0.002,0-0.04,0.007-0.04,0.007     s-0.066,1.737,0.292,3.092c0.389,1.466,1.453,2.795,1.51,2.853c0.189,0.605,6.263,19.953,6.263,19.953l0.033,0.073     c0.304,0.651,0.859,1.18,1.604,1.527c0.002,0.001,9.296,4.315,9.356,4.344c1.292,0.681,2.942,1.053,3.932,0.594     c0.706-0.389,9.2-8.459,9.2-8.459c0.348-0.326,0.615-0.69,0.797-1.084l0.046-0.1c0,0,4.928-19.366,5.1-20.038     c0.37-0.313,1.494-4.178,1.678-4.95c0.42-1.762-0.419-4.111-0.419-4.111c-0.413-0.994-2.186-2-3.273-2.518     C42.986,8.96,28.472,2.32,28.472,2.32C25.879,1.089,22.185,1.661,20.076,3.628z"
         id="path158" />
      <path
         fill="#66CC99"
         stroke="none"
         d="M38.782,40.18c-0.114,0.246-0.29,0.488-0.529,0.713l-7.404,6.945     c-2.041,1.715-2.425,1.754-4.396,0.708L17.094,44.2c-0.502-0.234-0.847-0.567-1.024-0.947L8.433,18.856     c0.196,0.796,0.811,1.51,1.816,1.978l15.156,7.036c2.17,1.01,5.375,0.492,7.119-1.145l11.988-11.247     c0.627-0.589,0.983-1.246,1.083-1.893L38.782,40.18z"
         id="path159" />
      <path
         fill="#336666"
         stroke="none"
         d="M38.782,40.18c-0.114,0.246-0.29,0.488-0.529,0.713l-7.813,7.341l1.502-21.021     l12.57-11.734c0.627-0.589,0.983-1.246,1.083-1.893L38.782,40.18z"
         id="path160" />
      <linearGradient
         id="XMLID_1_"
         gradientUnits="userSpaceOnUse"
         x1="-208.7876"
         y1="368.8945"
         x2="-204.3915"
         y2="368.8945"
         gradientTransform="matrix(1 0 0 -1 235.2402 406.8711)">
        <stop
           offset="0.0279"
           style="stop-color:#66CC99"
           id="stop162" />
        <stop
           offset="0.2458"
           style="stop-color:#CCFFCC"
           id="stop163" />
        <stop
           offset="0.4246"
           style="stop-color:#66CC99"
           id="stop164" />
        <stop
           offset="1"
           style="stop-color:#336666"
           id="stop165" />
      </linearGradient>
      <path
         fill="url(#XMLID_1_)"
         stroke="none"
         d="M30.849,47.839c-2.041,1.714-2.425,1.753-4.396,0.707L25.405,27.87     c2.17,1.01,5.375,0.492,7.119-1.145L30.849,47.839z"
         id="path173" />
      <path
         opacity="0.45"
         fill="#336666"
         stroke="none"
         d="M31.94,35.076c-2.041,1.715-3.811,1.472-5.782,0.425l-13.517-6.715     c-0.502-0.234-1.467-1.72-1.644-2.099l-2.563-7.831c0.196,0.796,0.811,1.51,1.816,1.978l15.156,7.036     c2.169,1.01,5.374,0.492,7.118-1.145L31.94,35.076z"
         id="path174" />
      <path
         stroke="none"
         d="M45.599,12.959c-0.012-0.111-0.038-0.219-0.066-0.327c-0.05-0.217-0.095-0.339-0.095-0.339     c0,0.004-0.002,0.009-0.003,0.014c-0.268-0.656-0.822-1.24-1.671-1.644L27.972,3.411c-2.152-1.022-5.337-0.529-7.078,1.095     L9.238,15.56c-0.741,0.69-1.093,1.493-1.119,2.278c-0.011-0.039-0.029-0.083-0.038-0.119c0,0,0.011,0.194,0.037,0.501     c0.001,0.017,0.001,0.034,0.004,0.05c0.07,0.844,0.239,2.5,0.577,3.777c0.376,1.418,1.096,1.938,1.096,1.938     c0.165,0.267,0.66,0.655,1.352,0.825l15.239,7.207c2.104,1.275,4.13,1.051,6.532-0.826l11.035-10.434     c0.285-0.146,0.888-1.817,1.426-3.829C45.823,15.275,45.718,13.669,45.599,12.959z"
         id="path175" />
      <g
         id="g176">
        <path
           opacity="0.2"
           fill="#FFFFFF"
           stroke="none"
           d="M7.771,16.62c-0.441,0.529-0.545,4.75,1.364,5.731      c0.775,0.397,14.451,7.389,15.646,8.005c2.82,1.456,4.374,2.021,7.642-0.364c3.269-2.383,11.619-9.792,12.28-11.279      c1.125-2.534,2.01-4.14,0.909-6.641c-0.309-0.702-3.639-3.092-2.068,0.243c0.865,1.839-9.746,10.829-11.802,12.5      c-1.412,1.148-2.742,1.54-5.833,0.569C22.818,24.411,9.967,18.94,9.773,18.48C9.56,17.974,8.125,15.912,7.771,16.62z"
           id="path177" />
        <path
           opacity="0.275"
           fill="#FFFFFF"
           stroke="none"
           d="M25.066,29.913c-1.132-0.504-14.575-7.45-15.758-8.14      c-0.518-0.302-1.158-1.059-1.364-1.666c-0.177-0.519-0.177-0.812-0.085-1.033c-0.082-0.876,0.085-1.665,0.351-1.795      c0.378-0.468,1.542,1.223,1.962,1.642c1.157,1.157,13.332,6.251,15.784,6.997c2.48,0.748,4.139,0.573,5.729-0.549      c0.096-0.067,0.2-0.142,0.309-0.227c2.355-1.868,11.854-10.101,11.505-12.181c-0.258-1.532-0.024-1.705,0.542-1.501      c0.583-0.081,1.242,0.744,1.352,1.052c0.686,1.95-0.025,3.491-1.317,5.822c-1.13,2.04-8.57,8.88-11.669,11.079      c-0.224,0.157-0.438,0.301-0.643,0.426C28.739,31.674,27.31,30.909,25.066,29.913z"
           id="path178" />
        <path
           opacity="0.35"
           fill="#FFFFFF"
           stroke="none"
           d="M25.351,29.47c-1.073-0.383-14.283-7.276-15.871-8.273      c-0.409-0.257-1.273-1.099-1.426-1.524c-0.214-0.595-0.123-0.708,0.109-0.688c-0.035-0.565,0.166-1.037,0.485-1.046      c0.403-0.228,1.393,1.026,1.922,1.425c2.283,1.716,13.617,6.575,15.432,7.091c1.871,0.53,3.869,0.58,5.625-0.528      c0.121-0.076,0.247-0.158,0.373-0.254c2.171-1.654,10.636-9.619,11.452-12.063c-0.175-1.182,0.244-1.485,0.642-1.416      c0.506-0.467,1.005,0.47,1.077,0.76c0.339,1.359-0.343,2.84-1.725,5.004c-1.644,2.574-8.128,8.865-11.059,10.877      c-0.209,0.144-0.408,0.272-0.6,0.381C28.544,31.042,27.21,30.132,25.351,29.47z"
           id="path179" />
        <path
           opacity="0.425"
           fill="#FFFFFF"
           stroke="none"
           d="M25.636,29.026c-1.022-0.249-14.01-7.075-15.984-8.407      c-0.304-0.205-1.396-1.137-1.488-1.382c-0.254-0.671-0.07-0.604,0.303-0.344c0.012-0.253,0.246-0.41,0.619-0.295      c0.428,0.011,1.242,0.812,1.883,1.206c3.48,2.141,13.903,6.896,15.081,7.184c1.261,0.31,3.602,0.594,5.52-0.508      c0.146-0.084,0.293-0.176,0.437-0.28c1.975-1.455,9.759-9.166,11.401-11.944c0.151-0.893,0.513-1.264,0.74-1.33      c0.43-0.852,0.833,0.187,0.804,0.468c0.253,0.691-0.691,2.167-2.133,4.185c-2.199,3.079-7.688,8.85-10.447,10.675      c-0.195,0.13-0.381,0.243-0.559,0.336C28.341,30.398,27.097,29.382,25.636,29.026z"
           id="path180" />
        <path
           opacity="0.5"
           fill="#FFFFFF"
           stroke="none"
           d="M8.772,18.803c0.513,0.502,16.619,8.632,17.325,8.721      c0.707,0.089,3.797,0.706,5.916-0.795c2.121-1.501,11.834-11.834,12.188-13.07c0.354-1.237,0.617-0.088,0.529,0.176      c-0.088,0.265-9.185,12.364-12.894,14.129c-3.709,1.768-4.857,0.707-5.917,0.619c-0.974-0.081-13.781-6.813-16.096-8.541      c-0.201-0.15-1.522-1.174-1.55-1.239C7.951,18.068,8.258,18.302,8.772,18.803z"
           id="path181" />
      </g>
      <linearGradient
         id="XMLID_2_"
         gradientUnits="userSpaceOnUse"
         x1="-191.9839"
         y1="392.3652"
         x2="-223.0241"
         y2="392.3652"
         gradientTransform="matrix(1 0 0 -1 235.2402 406.8711)">
        <stop
           offset="0.4358"
           style="stop-color:#737373"
           id="stop183" />
        <stop
           offset="0.6201"
           style="stop-color:#000000"
           id="stop184" />
      </linearGradient>
      <path
         fill="url(#XMLID_2_)"
         stroke="none"
         d="M32.194,24.625c-1.556,1.454-4.587,1.875-6.46,0.856l-14.451-6.662     c-1.87-1.021-2.125-3.043-0.567-4.496l10.43-9.892c1.559-1.454,4.899-1.936,6.825-1.021l14.581,6.756     c1.926,0.916,1.925,2.939,0.369,4.393L32.194,24.625z"
         id="path188" />
      <linearGradient
         id="XMLID_3_"
         gradientUnits="userSpaceOnUse"
         x1="-210.2876"
         y1="387.4717"
         x2="-201.4976"
         y2="384.0788"
         gradientTransform="matrix(1 0 0 -1 235.2402 406.8711)">
        <stop
           offset="0"
           style="stop-color:#FFFFCD"
           id="stop190" />
        <stop
           offset="1"
           style="stop-color:#FFFF0C"
           id="stop191" />
      </linearGradient>
      <path
         fill="url(#XMLID_3_)"
         stroke="none"
         d="M24.398,14.549l-4.5,7.432l6.909,3.978c0,0,2.871-0.012,4.501-0.733     c1.629-0.721,2.825-2.407,2.825-2.407l-4.709-7.536L24.398,14.549z"
         id="path195" />
      <path
         stroke="none"
         d="M35.704,0c0,0,0.079,2.894-3.631,5.208c-3.395,2.116-5.171,8.755-5.367,9.499l-0.163-0.876l7.018,10.091     c0.534-1.485,10.436-7.967,12.102-8.801l1.526-0.764c0,0-1.879-3.254-5.086-3.326c0.205-1.396,0.674-4.55,0.674-4.55     s-2.215-0.727-4.039-0.923c-0.168-0.138-0.65-0.332-1.194-3.219C37.469,1.951,36.889-0.111,35.704,0z"
         id="path196" />
      <linearGradient
         id="XMLID_4_"
         gradientUnits="userSpaceOnUse"
         x1="-201.7363"
         y1="394.877"
         x2="-191.0389"
         y2="390.7478"
         gradientTransform="matrix(1 0 0 -1 235.2402 406.8711)">
        <stop
           offset="0"
           style="stop-color:#FFFFCD"
           id="stop198" />
        <stop
           offset="1"
           style="stop-color:#FFFF0C"
           id="stop199" />
      </linearGradient>
      <path
         fill="url(#XMLID_4_)"
         stroke="none"
         d="M27.496,15.123c0,0,1.877-7.13,5.067-9.195c3.189-2.064,3.563-3.754,3.563-4.691     c0-0.938,0.566,5.066,2.442,5.255c1.876,0.188,3.001,0.562,3.001,0.562l-0.751,5.068c0,0,2.813-0.189,4.692,1.875     c-1.877,0.938-12.044,7.516-12.322,9.646L27.496,15.123z"
         id="path203" />
      <path
         stroke="none"
         d="M4.074,10.82L0,13.595l1.167,1.14c4.25,3.859,9.078,8.724,9.462,9.852l1.209,1.896     c1.275-1.457,3.978-3.664,6.387-3.589c1.105,0.034,4.918,0.868,4.918,0.868c0.13-0.157,2.032-4.317-3.239-10.805     c-1.241-1.752-1.576-5.315-7.302-6.031C10.002,6.601,6.989,8.746,4.074,10.82z"
         id="path204" />
      <linearGradient
         id="XMLID_5_"
         gradientUnits="userSpaceOnUse"
         x1="-227.668"
         y1="396.5625"
         x2="-218.9856"
         y2="388.4585"
         gradientTransform="matrix(1 0 0 -1 235.2402 406.8711)">
        <stop
           offset="0"
           style="stop-color:#FFFFCD"
           id="stop206" />
        <stop
           offset="1"
           style="stop-color:#FFFF0C"
           id="stop207" />
      </linearGradient>
      <path
         fill="url(#XMLID_5_)"
         stroke="none"
         d="M21.049,12.56c-0.938-1.313-5.564-4.381-8.565-4.757     C9.482,7.428,4.978,11.556,1.599,13.62c0,0,10.133,9.196,10.321,11.072c2.627-3.001,9.426-3.541,10.176-1.664     C22.096,23.028,25.929,18.566,21.049,12.56z"
         id="path211" />
      <linearGradient
         id="XMLID_6_"
         gradientUnits="userSpaceOnUse"
         x1="-202.75"
         y1="384.7617"
         x2="-201.0172"
         y2="396.3165"
         gradientTransform="matrix(1 0 0 -1 235.2402 406.8711)">
        <stop
           offset="0"
           style="stop-color:#FFFFFF"
           id="stop213" />
        <stop
           offset="1"
           style="stop-color:#000000"
           id="stop214" />
      </linearGradient>
      <path
         a:adobe-blending-mode="multiply"
         opacity="0.44"
         fill="url(#XMLID_6_)"
         stroke="none"
         d="M27.683,17.75     c0.564-4.317,3.004-6.757,4.505-7.882s2.778-2.92,2.778-2.92s1.28,2.059,1.373,4.653c0.084,2.341,2.697,3.429,2.604,3.897     c-0.189,0.938-2.816,2.252-4.13,3.754c-1.313,1.5-2.064,3.753-1.877,5.253L27.683,17.75z"
         id="path218" />
      <linearGradient
         id="XMLID_7_"
         gradientUnits="userSpaceOnUse"
         x1="-223.9199"
         y1="395.1426"
         x2="-221.6959"
         y2="391.4357"
         gradientTransform="matrix(1 0 0 -1 235.2402 406.8711)">
        <stop
           offset="0"
           style="stop-color:#FFFFFF"
           id="stop220" />
        <stop
           offset="1"
           style="stop-color:#000000"
           id="stop221" />
      </linearGradient>
      <path
         a:adobe-blending-mode="multiply"
         opacity="0.39"
         fill="url(#XMLID_7_)"
         stroke="none"
         d="M15.109,17.938     c-0.938-0.188-3.565-0.376-4.691-0.376s-4.316-1.877-3.941-3.564c0.345-1.556,5.441-4.504,7.13-4.692     c1.69-0.188,3.941,1.688,3.941,1.688v9.009L15.109,17.938z"
         id="path225" />
      <path
         stroke="none"
         d="M14.998,10.21l-0.007,8.75l7.525,5.135l7.512-5.222v-8.757l-7.526-5.124L14.998,10.21z"
         id="path226" />
      <path
         a:adobe-blending-mode="multiply"
         opacity="0.3"
         stroke="none"
         d="M25.341,25.226c0,0,1.291,1.314,3.559,1.047     c2.373-0.28,5.728-2.143,5.728-2.143s-1.458-3.2-2.064-6.379c-0.75-3.941-0.209-9.481-0.209-9.481s-1.07,0.709-1.988,0.418     c-2.476-0.783-7.328-2.826-7.328-2.826l6.491,4.606l0.209,8.06l-6.821,5.167L25.341,25.226z"
         id="path227" />
      <g
         id="g228">
        <linearGradient
           id="XMLID_8_"
           gradientUnits="userSpaceOnUse"
           x1="-214.7539"
           y1="393.4033"
           x2="-213.6449"
           y2="394.956"
           gradientTransform="matrix(1 0 0 -1 235.2402 406.8711)">
          <stop
             offset="0"
             style="stop-color:#FFE5E5"
             id="stop230" />
          <stop
             offset="0.2769"
             style="stop-color:#FFD3D3"
             id="stop231" />
          <stop
             offset="0.8312"
             style="stop-color:#FFA4A4"
             id="stop232" />
          <stop
             offset="1"
             style="stop-color:#FF9494"
             id="stop233" />
        </linearGradient>
        <path
           fill="url(#XMLID_8_)"
           stroke="none"
           d="M22.51,15.16l-6.574-4.475l6.574-4.571l6.572,4.475L22.51,15.16z"
           id="path241" />
      </g>
      <g
         id="g242">
        <linearGradient
           id="XMLID_9_"
           gradientUnits="userSpaceOnUse"
           x1="-209.1875"
           y1="389.8115"
           x2="-211.5718"
           y2="392.4126"
           gradientTransform="matrix(1 0 0 -1 235.2402 406.8711)">
          <stop
             offset="0"
             style="stop-color:#AE0001"
             id="stop244" />
          <stop
             offset="0.7868"
             style="stop-color:#9C0001"
             id="stop245" />
          <stop
             offset="1"
             style="stop-color:#960001"
             id="stop246" />
        </linearGradient>
        <path
           fill="url(#XMLID_9_)"
           stroke="none"
           d="M22.51,22.971l6.572-4.571v-7.81l-6.572,4.57V22.971z"
           id="path252" />
      </g>
      <g
         id="g253">
        <path
           fill="#C66364"
           stroke="none"
           d="M22.51,22.971l-6.574-4.486v-7.809l6.574,4.484V22.971z"
           id="path254" />
      </g>
      <linearGradient
         id="XMLID_10_"
         gradientUnits="userSpaceOnUse"
         x1="-223.8105"
         y1="390.7822"
         x2="-218.9433"
         y2="386.2392"
         gradientTransform="matrix(1 0 0 -1 235.2402 406.8711)">
        <stop
           offset="0"
           style="stop-color:#FFFFCD"
           id="stop256" />
        <stop
           offset="1"
           style="stop-color:#FFFF0C"
           id="stop257" />
      </linearGradient>
      <path
         fill="url(#XMLID_10_)"
         stroke="none"
         d="M20.631,22.086c-1.313-1.126-2.898-5.244-6.604-4.733     c-3.968,0.546-5.119-0.291-5.119-0.291S17.595,22.295,20.631,22.086z"
         id="path261" />
      <path
         a:adobe-blending-mode="multiply"
         opacity="0.3"
         stroke="none"
         d="M22.352,23.643c0,0,2.14,0.773,2.872,1.296     c0.733,0.523,4.409,1.019,3.781-0.132c-0.628-1.151-2.513-2.512-0.628-2.512c1.884,0,3.663,1.989,3.663,1.989     s0.523-0.942-0.628-2.198s-0.837-4.187-0.837-4.187l-0.942-1.465l-0.104,2.407L22.352,23.643z"
         id="path262" />
      <path
         a:adobe-blending-mode="multiply"
         opacity="0.3"
         stroke="none"
         d="M30.027,18.872l-4.248,5.326l1.027,1.761l-4.825-2.039     l1.204-1.019L30.027,18.872z"
         id="path263" />
    </g>
  </g>
</svg>
