<?xml version="1.0" encoding="UTF-8" standalone="no"?>
<!DOCTYPE svg PUBLIC "-//W3C//DTD SVG 20010904//EN"
"http://www.w3.org/TR/2001/REC-SVG-20010904/DTD/svg10.dtd">
<!-- Created with Sodipodi ("http://www.sodipodi.com/") -->
<svg
   width="48pt"
   height="48pt"
   viewBox="0 0 51.2 51.2"
   overflow="visible"
   enable-background="new 0 0 51.2 51.2"
   xml:space="preserve"
   xmlns="http://www.w3.org/2000/svg"
   xmlns:xml="http://www.w3.org/XML/1998/namespace"
   xmlns:sodipodi="http://sodipodi.sourceforge.net/DTD/sodipodi-0.dtd"
   xmlns:xlink="http://www.w3.org/1999/xlink"
   id="svg153"
   sodipodi:version="0.32pre"
   sodipodi:docname="/home/cschalle/gnome-themes-extras/Wasp/icons/scalable/filesystems/gnome-fs-network.svg"
   sodipodi:docbase="/home/cschalle/gnome-themes-extras/Wasp/icons/scalable/filesystems">
  <defs
     id="defs325" />
  <sodipodi:namedview
     id="base" />
  <metadata
     id="metadata154">
    <sfw>
      <slices />
      <sliceSourceBounds
         y="393.899"
         x="270.9"
         width="51.2"
         height="51.2"
         bottomLeftOrigin="true" />
    </sfw>
  </metadata>
  <g
     id="Layer_1"
     stroke="#000000">
    <g
       id="Layer_1_2_">
      <path
         fill="none"
         stroke="none"
         d="M51.2,51.2H0V0h51.2V51.2z"
         id="path157" />
      <path
         stroke="none"
         d="M3.533,32.093v10.1l19.823,8.601l17.489-15.641V25.051l-19.823-8.598L3.533,32.093z"
         id="path158" />
      <path
         opacity="0.2"
         stroke="none"
         d="M40.457,35.024L23.219,50.956h8.04l17.617-15.757v-3.831L40.762,27.9L40.457,35.024z"
         id="path159" />
      <linearGradient
         id="XMLID_1_"
         gradientUnits="userSpaceOnUse"
         x1="-209.3682"
         y1="368.1084"
         x2="-210.6723"
         y2="381.1496"
         gradientTransform="matrix(1 0 0 -1 232.5 406.6992)">
        <stop
           offset="0"
           style="stop-color:#F2F2F2"
           id="stop161" />
        <stop
           offset="0.3121"
           style="stop-color:#EEEEEE"
           id="stop162" />
        <stop
           offset="0.6646"
           style="stop-color:#E0E0E0"
           id="stop163" />
        <stop
           offset="1"
           style="stop-color:#CCCCCC"
           id="stop164" />
      </linearGradient>
      <path
         fill="url(#XMLID_1_)"
         stroke="none"
         d="M23.155,40.62L4.595,32.567l16.628-14.871l18.56,8.05L23.155,40.62z"
         id="path172" />
      <linearGradient
         id="XMLID_2_"
         gradientUnits="userSpaceOnUse"
         x1="-212.8228"
         y1="355.2158"
         x2="-218.6136"
         y2="365.6208"
         gradientTransform="matrix(1 0 0 -1 232.5 406.6992)">
        <stop
           offset="0"
           style="stop-color:#E6E6E6"
           id="stop174" />
        <stop
           offset="0.621"
           style="stop-color:#C7C7C7"
           id="stop175" />
        <stop
           offset="1"
           style="stop-color:#B3B3B3"
           id="stop176" />
      </linearGradient>
      <path
         fill="url(#XMLID_2_)"
         stroke="none"
         d="M23.155,49.548L4.595,41.496v-8.929l18.561,8.053V49.548z"
         id="path182" />
      <path
         fill="#33CC33"
         stroke="none"
         d="M9.555,41.705l-3.213-1.395v-1.792l3.213,1.394V41.705z"
         id="path183" />
      <path
         fill="#FF0000"
         stroke="none"
         d="M13.259,43.352l-3.213-1.395v-1.792l3.213,1.394V43.352z"
         id="path184" />
      <path
         opacity="0.5"
         stroke="none"
         d="M9.555,40.437l-3.213-1.394v-0.969l3.213,1.394V40.437z"
         id="path185" />
      <path
         opacity="0.5"
         stroke="none"
         d="M13.259,42.083l-3.213-1.394v-0.97l3.213,1.394V42.083z"
         id="path186" />
      <linearGradient
         id="XMLID_3_"
         gradientUnits="userSpaceOnUse"
         x1="-199.0757"
         y1="367.5205"
         x2="-203.8508"
         y2="371.261"
         gradientTransform="matrix(1 0 0 -1 232.5 406.6992)">
        <stop
           offset="0"
           style="stop-color:#999999"
           id="stop188" />
        <stop
           offset="0.6839"
           style="stop-color:#7B7B7B"
           id="stop189" />
        <stop
           offset="1"
           style="stop-color:#6B6B6B"
           id="stop190" />
      </linearGradient>
      <path
         fill="url(#XMLID_3_)"
         stroke="none"
         d="M39.782,34.677L23.155,49.548V40.62l16.627-14.873V34.677z"
         id="path196" />
      <path
         opacity="0.6"
         fill="#FFFFFF"
         stroke="none"
         d="M39.794,26.423l-0.012-0.675l-0.539-0.233L23.158,39.905L5.047,32.193     l-0.452,0.374l0.003,0.686l18.026,7.803v8.275l0.531,0.218l0.53-0.396v-8.32L39.794,26.423z"
         id="path197" />
      <path
         opacity="0.2"
         stroke="none"
         d="M13.582,29.45c0-2.133,5.368-3.863,11.991-3.863c5.792,0,10.624,1.323,11.746,3.082     l-4.263,3.8c-2.052,0.528-4.653,0.844-7.483,0.844C18.95,33.313,13.582,31.583,13.582,29.45z"
         id="path198" />
      <path
         stroke="none"
         d="M6.613,16.524c0,8.815,7.172,15.986,15.987,15.986s15.986-7.171,15.986-15.986     c0-8.815-7.171-15.987-15.986-15.987S6.613,7.708,6.613,16.524z"
         id="path199" />
      <radialGradient
         id="XMLID_4_"
         cx="-215.5161"
         cy="394.1465"
         r="16.5455"
         fx="-215.5161"
         fy="394.1465"
         gradientTransform="matrix(1 0 0 -1 232.5 406.6992)"
         gradientUnits="userSpaceOnUse">
        <stop
           offset="0"
           style="stop-color:#FFFFFF"
           id="stop201" />
        <stop
           offset="1"
           style="stop-color:#33CDCD"
           id="stop202" />
      </radialGradient>
      <path
         fill="url(#XMLID_4_)"
         stroke="none"
         d="M7.67,16.524c0-8.245,6.685-14.929,14.93-14.929     c8.245,0,14.928,6.684,14.928,14.929S30.845,31.453,22.6,31.453C14.355,31.453,7.67,24.769,7.67,16.524z"
         id="path206" />
      <g
         id="g207">
        <g
           id="g208">
          <radialGradient
             id="XMLID_5_"
             cx="-217.2969"
             cy="395.4434"
             r="25.5487"
             fx="-217.2969"
             fy="395.4434"
             gradientTransform="matrix(1 0 0 -1 232.5 406.6992)"
             gradientUnits="userSpaceOnUse">
            <stop
               offset="0"
               style="stop-color:#33CC33"
               id="stop210" />
            <stop
               offset="0.5754"
               style="stop-color:#009900"
               id="stop211" />
            <stop
               offset="1"
               style="stop-color:#005E07"
               id="stop212" />
          </radialGradient>
          <path
             fill="url(#XMLID_5_)"
             stroke="none"
             d="M27.303,30.54c0.183-0.776,0.594-2.42-0.138-2.557       c-0.73-0.137-2.1-0.229-2.511-0.686c-0.411-0.457-0.821-0.457-1.095-0.64c-0.274-0.182-0.685-0.775-0.274-1.324       c0.411-0.548,0.32-1.095-0.228-1.415c-0.548-0.32-0.867,0.091-1.324,0.137c-0.457,0.045-1.553-0.685-2.375-0.685       s-1.598,0-1.735-0.457c-0.502,0.319-3.515-0.229-3.378-1.142c-0.32-0.319-1.506-1.643-1.826-2.1       c0.046,0.365,0.32,1.141,0.594,1.37c-0.776-0.548-1.416-1.506-1.461-2.238c-0.365-0.319-1.278-2.008-1.141-2.51       s0.274-2.283,0.548-2.329c0.274-0.045,0.046-0.274-0.091-0.548c-0.137-0.273-0.229-0.73-0.229-0.958s0.229-0.822,0-0.867       c-0.228-0.045-0.73-0.366-0.411-0.366s0.594,0.184,0.594-0.137c0-0.319-0.183-1.187-0.32-1.324       c-0.137-0.137-0.092-0.092-0.365,0.091c-0.274,0.182-0.548,0.229-0.594,0.091C9.497,9.813,9.588,9.858,9.816,9.539       c0.229-0.32,0.776-1.233,0.959-1.553c0.183-0.319,0.137,0.092,0.731-0.593c0.593-0.685,0.913-1.325,0.913-0.685       c0,0.639,0.137,0.914,0.502,0.914c0.365,0,0.411-0.138,0.457,0.137c0.045,0.274,0.091,0.593,0.457,0.457       c0.365-0.137,0.685,0.045,0.867-0.137c0.183-0.183-0.137-0.366,0.091-0.411c0.229-0.045,0.32,0.366,0.411,0.045       c0.091-0.319-0.045-0.821,0.274-0.502c0.319,0.32,0.411,0.366,0.639,0.229c0.229-0.137,0.959-0.183,0.32,0.228       c-0.64,0.411-0.686,0.366-0.776,0.776c-0.092,0.411-0.137,0.273-0.365,0.731c-0.228,0.457-0.685,0.913-0.091,1.232       c0.593,0.319,1.37,0.411,1.37,0.411s0.639-0.502,0.548,0.045c-0.092,0.548-0.137,0.868,0.183,0.776       c0.319-0.091,0.867-0.046,0.501-0.457c-0.365-0.411-0.319-0.137-0.182-0.731c0.137-0.593,0.046-0.547-0.137-0.821       c-0.182-0.274-0.639-1.142-0.182-1.188c0.456-0.045,0.821-0.182,0.958,0.046c0.137,0.228,0.593,0.639,0.776,0.411       c0.183-0.229-0.046-0.867,0.639-0.411c0.685,0.457-0.045,0.685,0.685,0.685s1.415-0.046,1.415,0.136       c0,0.183-0.502,1.05-0.867,1.188c-0.365,0.137-0.502-0.183-0.64,0.229c-0.137,0.411-0.593,1.278-0.319,0.958       c0.274-0.319,0.73-1.004,0.776-0.593c0.045,0.411,0,0.73,0.457,0.685c0.456-0.045,1.141-0.457,0.548,0.137       c-0.593,0.593-0.64,1.004-0.593,0.593c0.045-0.411,0.045-0.639-0.32-0.091c-0.365,0.548-0.456,0.958-0.274,0.958       c0.183,0,0.183,0.137-0.045,0.274c-0.229,0.137-0.365,0.776-0.502,1.141s-0.411,0.776-0.137,0.822       c0.274,0.045,0.183,0.73,0.183,0.73s-1.233,1.37-0.776,1.781c0.457,0.41,1.004,1.049,0.776,1.187       c-0.229,0.137-0.776-0.73-0.913-0.867c-0.137-0.137-1.507-0.32-1.598-0.092s0.228,0.411,0,0.457s-1.05,0.229-1.37,0.411       c-0.32,0.182-0.411,0.775-0.365,1.004c0.045,0.228,0.274,2.191,1.324,1.963c1.05-0.228,1.142-0.319,0.958-0.776l0.822-0.319       c0,0-0.183,1.324,0.229,1.369c0.411,0.046,1.004-0.091,1.141-0.091c0.137,0,0.457,1.187,0.73,1.278       c0.274,0.091,1.05,0,1.507-0.319c0.457-0.32,0.686,0.411,0.73,0.045c0.045-0.365,0.547-1.142,1.004-1.324       c0,0.319,0,0.639,0.274,0.547c0.274-0.091,0.092-0.685,0.092-0.685s1.825,0.091,1.825-0.457c0,0,1.005-0.274,1.233,0.045       c0.137-0.319,0.365-0.045,0.73,0.046c0.365,0.091,0.594-0.229,1.096-0.457c0.502-0.228,1.598-0.045,1.734,0.319       c0.138,0.366,0.411,0.73,0.594,0.092l1.05-0.274c0,0,0.594-0.593,1.005-0.64c0.411-0.046,0.822-0.319,0.867-0.045       c0.046,0.273-0.137,1.37-0.41,1.598c-0.274,0.229-0.138,0.412-0.046,0.64c0.092,0.229-0.137,1.461-0.32,1.689       c-0.182,0.229,0,0.274-0.365,0.593c-0.364,0.32-0.547,0.776-0.685,1.05c-0.137,0.274-0.364,1.05-0.729,1.371       c-0.366,0.319-0.594,0.684-0.594,0.684C31.091,28.576,29.768,30.174,27.303,30.54z"
             id="path218" />
        </g>
        <g
           id="g219">
          <radialGradient
             id="XMLID_6_"
             cx="-216.9648"
             cy="395.6533"
             r="24.9854"
             fx="-216.9648"
             fy="395.6533"
             gradientTransform="matrix(1 0 0 -1 232.5 406.6992)"
             gradientUnits="userSpaceOnUse">
            <stop
               offset="0"
               style="stop-color:#33CC33"
               id="stop221" />
            <stop
               offset="0.5754"
               style="stop-color:#009900"
               id="stop222" />
            <stop
               offset="1"
               style="stop-color:#005E07"
               id="stop223" />
          </radialGradient>
          <path
             fill="url(#XMLID_6_)"
             stroke="none"
             d="M19.906,20.268c0.274-0.137,0.32-0.183,0.594-0.183       c0.273,0,1.141,0.046,1.415,0.046s0.366,0.273,0.092,0.319s-0.73-0.137-1.05-0.137S20.089,20.496,19.906,20.268z"
             id="path229" />
        </g>
        <g
           id="g230">
          <radialGradient
             id="XMLID_7_"
             cx="-217.2949"
             cy="395.3076"
             r="25.1133"
             fx="-217.2949"
             fy="395.3076"
             gradientTransform="matrix(1 0 0 -1 232.5 406.6992)"
             gradientUnits="userSpaceOnUse">
            <stop
               offset="0"
               style="stop-color:#33CC33"
               id="stop232" />
            <stop
               offset="0.5754"
               style="stop-color:#009900"
               id="stop233" />
            <stop
               offset="1"
               style="stop-color:#005E07"
               id="stop234" />
          </radialGradient>
          <path
             fill="url(#XMLID_7_)"
             stroke="none"
             d="M23.011,20.13c0.137-0.228,0.73-0.365,1.004-0.228       c0.274,0.137-0.594,0.639-0.822,0.593C22.965,20.449,23.011,20.13,23.011,20.13z"
             id="path240" />
        </g>
        <g
           id="g241">
          <radialGradient
             id="XMLID_8_"
             cx="-216.2993"
             cy="395.7285"
             r="21.8628"
             fx="-216.2993"
             fy="395.7285"
             gradientTransform="matrix(1 0 0 -1 232.5 406.6992)"
             gradientUnits="userSpaceOnUse">
            <stop
               offset="0"
               style="stop-color:#33CC33"
               id="stop243" />
            <stop
               offset="0.5754"
               style="stop-color:#009900"
               id="stop244" />
            <stop
               offset="1"
               style="stop-color:#005E07"
               id="stop245" />
          </radialGradient>
          <path
             fill="url(#XMLID_8_)"
             stroke="none"
             d="M22.007,9.996c0,0,0.137,0.411,0.045,0.593c-0.091,0.183,0.412-0.091,0.776-0.091       s0.137-0.137,0.045-0.411S22.281,9.996,22.007,9.996z"
             id="path251" />
        </g>
        <g
           id="g252">
          <radialGradient
             id="XMLID_9_"
             cx="-217.231"
             cy="396.0986"
             r="24.7792"
             fx="-217.231"
             fy="396.0986"
             gradientTransform="matrix(1 0 0 -1 232.5 406.6992)"
             gradientUnits="userSpaceOnUse">
            <stop
               offset="0"
               style="stop-color:#33CC33"
               id="stop254" />
            <stop
               offset="0.5754"
               style="stop-color:#009900"
               id="stop255" />
            <stop
               offset="1"
               style="stop-color:#005E07"
               id="stop256" />
          </radialGradient>
          <path
             fill="url(#XMLID_9_)"
             stroke="none"
             d="M17.213,5.11c0.273-0.091,0.319-0.319,0.913,0c0.593,0.32,0.639,0,1.142,0.502       s1.37,1.37,2.466,0.958c-0.229-0.547-0.593-0.684-0.548-1.187s0.137-1.233,0.137-1.233l-0.457,0.183l-0.046-0.365       c0,0-1.598-0.32-1.917-0.274c-0.32,0.045-0.32-0.183-0.547-0.183c-0.229,0-0.274,0.365-0.458,0.365       c-0.182,0-0.775-0.273-0.684,0.092s0.228,0.457,0.045,0.685C17.076,4.882,17.213,5.11,17.213,5.11z"
             id="path262" />
        </g>
        <g
           id="g263">
          <path
             fill="#009900"
             stroke="none"
             d="M16.208,6.479c0.183-0.273,0.365-0.456,0.411-0.273c0.046,0.182,0.091,0.365,0.594,0.228       c0.502-0.137,0.639-0.045,0.822,0.092c0.183,0.137,0.639,0.183,0.639,0.411c0,0.229-0.183,0.365-0.366,0.183       c-0.182-0.183-0.456-0.457-0.456-0.229c0,0.229,0.137,0.685,0.593,0.64c0.457-0.046,0.593,0.228,0.228,0.228       s-0.274,0.137-0.502,0.183c-0.229,0.045-0.457-0.274-0.685-0.183c0,0,0.091-0.639-0.183-0.685       c-0.274-0.045-0.365,0.092-0.365,0.092s0.046-0.229-0.182-0.319c-0.229-0.092-0.32,0.137-0.594,0.137       C15.889,6.982,15.66,6.206,16.208,6.479z"
             id="path264" />
        </g>
        <g
           id="g265">
          <path
             fill="#009900"
             stroke="none"
             d="M13.515,4.608c0,0,0.045,0.274,0.183,0.228c0.137-0.045,0.685-0.456,1.05-0.73       c0.366-0.274,0.685-0.548,0.639-0.686C15.341,3.284,13.925,4.197,13.515,4.608z"
             id="path266" />
        </g>
        <g
           id="g267">
          <radialGradient
             id="XMLID_10_"
             cx="-217.2954"
             cy="395.6543"
             r="25.6138"
             fx="-217.2954"
             fy="395.6543"
             gradientTransform="matrix(1 0 0 -1 232.5 406.6992)"
             gradientUnits="userSpaceOnUse">
            <stop
               offset="0"
               style="stop-color:#33CC33"
               id="stop269" />
            <stop
               offset="0.5754"
               style="stop-color:#009900"
               id="stop270" />
            <stop
               offset="1"
               style="stop-color:#005E07"
               id="stop271" />
          </radialGradient>
          <path
             fill="url(#XMLID_10_)"
             stroke="none"
             d="M12.967,5.064c0.221-0.073-0.137,0.366-0.411,0.685       c-0.273,0.319-0.456,0.319-0.73,0.639s-0.73,0.685-0.913,0.868c-0.183,0.183-0.548,0.457-0.548,0.457       S12.556,5.202,12.967,5.064z"
             id="path277" />
        </g>
        <g
           id="g278">
          <path
             fill="#009900"
             stroke="none"
             d="M21.824,1.777c-0.045,0.274-0.273,0.412,0.092,0.412c0.366,0,1.826,0.045,2.191,0.411       c0.366,0.365,1.643,0.183,1.963-0.092c0.319-0.273-0.137-0.365-0.594-0.319c-0.457,0.045-0.867,0.045-1.142-0.092       c-0.273-0.137-0.594-0.228-0.594-0.411C23.148,1.641,22.098,1.641,21.824,1.777z"
             id="path279" />
        </g>
        <g
           id="g280">
          <radialGradient
             id="XMLID_11_"
             cx="-216.4722"
             cy="395.6533"
             r="24.0151"
             fx="-216.4722"
             fy="395.6533"
             gradientTransform="matrix(1 0 0 -1 232.5 406.6992)"
             gradientUnits="userSpaceOnUse">
            <stop
               offset="0"
               style="stop-color:#33CC33"
               id="stop282" />
            <stop
               offset="0.5754"
               style="stop-color:#009900"
               id="stop283" />
            <stop
               offset="1"
               style="stop-color:#005E07"
               id="stop284" />
          </radialGradient>
          <path
             fill="url(#XMLID_11_)"
             stroke="none"
             d="M26.48,2.051c0,0,0.73,0.548,0.548,0.594s-0.64,0.045-0.64,0.045       s0.457,0.046,0.686,0.228c0.228,0.183,0.137,0.502,0.64,0.639c0.501,0.137,0.639,0.776,0.867,0.959       c0.228,0.182,0.045-0.229,0.41-0.137c0.365,0.091,1.324,0.685,1.05,0.775c-0.274,0.091-0.365,0.457,0.137,0.731       c0.503,0.273,1.05,0.501,1.188,0.822c0.229-0.366,0.32-0.959-0.091-1.188s-0.959-0.457-1.051-0.822       c-0.091-0.365-0.137-0.685-0.091-0.959C29.22,2.964,26.8,2.097,26.48,2.051z"
             id="path290" />
        </g>
        <g
           id="g291">
          <g
             id="g292">
            <radialGradient
               id="XMLID_12_"
               cx="-217.2935"
               cy="395.6543"
               r="25.6087"
               fx="-217.2935"
               fy="395.6543"
               gradientTransform="matrix(1 0 0 -1 232.5 406.6992)"
               gradientUnits="userSpaceOnUse">
              <stop
                 offset="0"
                 style="stop-color:#33CC33"
                 id="stop294" />
              <stop
                 offset="0.5754"
                 style="stop-color:#009900"
                 id="stop295" />
              <stop
                 offset="1"
                 style="stop-color:#005E07"
                 id="stop296" />
            </radialGradient>
            <path
               fill="url(#XMLID_12_)"
               stroke="none"
               d="M31.868,4.836c0.091,0.366,0.365,1.644,0.091,1.827        c-0.273,0.182,0,0.274,0.183,0.457c0.184,0.182,0.229,0.091,0.503,0.502c0.273,0.411,0.502,0.73,0.502,1.278        c0,0.547,0.365,1.05,0.548,1.37c0.183,0.319,1.324,1.187,1.324,1.644c0,0.456-0.046,0.912,0.456,1.004        c0.503,0.091,0.73,0.137,0.867,0.365c0.138,0.228,0.549,0.228,0.776,0.274C36.844,11.593,35.657,7.85,31.868,4.836z"
               id="path302" />
          </g>
        </g>
        <g
           id="g303">
          <g
             id="g304">
            <path
               fill="#009900"
               stroke="none"
               d="M22.691,4.106v0.182l0.593,0.092V3.923l-0.775-0.136L22.691,4.106z"
               id="path305" />
          </g>
        </g>
        <g
           id="g306">
          <g
             id="g307">
            <path
               fill="#009900"
               stroke="none"
               d="M25.75,3.512c-0.228,0-0.045,0.228,0.228,0.274c0.274,0.045,0.502,0,0.868,0.045        s0.64,0.091,0.729,0.274c0.092,0.182,0.321,0.183,0.321,0c0-0.184,0.045-0.412-0.366-0.457        c-0.41-0.046-0.867-0.092-1.096-0.137C26.207,3.467,25.75,3.512,25.75,3.512z"
               id="path308" />
          </g>
        </g>
        <g
           id="g309">
          <g
             id="g310">
            <path
               fill="#009900"
               stroke="none"
               d="M26.618,4.243h0.547v0.456L26.618,4.243z"
               id="path311" />
          </g>
        </g>
        <g
           id="g312">
          <g
             id="g313">
            <path
               fill="#009900"
               stroke="none"
               d="M14.61,7.301c0,0-0.137,0.366-0.32,0.366c-0.182,0-0.502-0.411-0.182-0.547        C14.428,6.982,14.61,7.301,14.61,7.301z"
               id="path314" />
          </g>
        </g>
        <g
           id="g315">
          <g
             id="g316">
            <path
               fill="#009900"
               stroke="none"
               d="M13.925,6.799c-0.228,0.183-0.365,0.366-0.502,0.32        c-0.137-0.046,0.184-0.411,0.366-0.502C13.971,6.525,13.925,6.799,13.925,6.799z"
               id="path317" />
          </g>
        </g>
        <g
           id="g318">
          <g
             id="g319">
            <path
               fill="#009900"
               stroke="none"
               d="M14.245,6.251l0.274-0.092l0.365,0.411h0.319l-0.091,0.503H14.93L14.245,6.251z"
               id="path320" />
          </g>
        </g>
        <g
           id="g321">
          <g
             id="g322">
            <path
               fill="#009900"
               stroke="none"
               d="M15.752,5.339c0.228-0.046,0.502-0.046,0.639-0.64c0.137-0.593,0.366-0.365,0.274,0.046        c-0.092,0.411-0.457,0.457-0.274,0.685s0.091,0.136-0.183,0.091C15.935,5.476,15.752,5.566,15.752,5.339z"
               id="path323" />
          </g>
        </g>
      </g>
    </g>
  </g>
</svg>
