<?xml version="1.0" encoding="UTF-8" standalone="no"?>
<!DOCTYPE svg PUBLIC "-//W3C//DTD SVG 20010904//EN"
"http://www.w3.org/TR/2001/REC-SVG-20010904/DTD/svg10.dtd">
<!-- Created with Sodipodi ("http://www.sodipodi.com/") -->
<svg
   width="48pt"
   height="48pt"
   viewBox="0 0 45.58 48.854"
   overflow="visible"
   enable-background="new 0 0 45.58 48.854"
   xml:space="preserve"
   xmlns="http://www.w3.org/2000/svg"
   xmlns:xml="http://www.w3.org/XML/1998/namespace"
   xmlns:sodipodi="http://sodipodi.sourceforge.net/DTD/sodipodi-0.dtd"
   xmlns:xlink="http://www.w3.org/1999/xlink"
   id="svg153"
   sodipodi:version="0.32pre"
   sodipodi:docname="/home/cschalle/gnome-themes-extras/Wasp/icons/scalable/filesystems/gnome-fs-loading-icon.svg"
   sodipodi:docbase="/home/cschalle/gnome-themes-extras/Wasp/icons/scalable/filesystems">
  <defs
     id="defs203" />
  <sodipodi:namedview
     id="base" />
  <metadata
     id="metadata154">
    <sfw>
      <slices />
      <sliceSourceBounds
         y="394.949"
         x="273.71"
         width="45.58"
         height="48.854"
         bottomLeftOrigin="true" />
    </sfw>
  </metadata>
  <g
     id="Layer_1"
     stroke="#000000">
    <g
       id="Layer_1_2_">
      <path
         opacity="0.2"
         stroke="none"
         d="M29.458,48.468l7.138-0.64l8.984-9.906l-9.1-4.722v6.681L29.458,48.468z"
         id="path157" />
      <path
         stroke="none"
         d="M17.428,0c-1.137,0.196-2.556,0.737-3.794,1.447l-0.083,0.048L5.076,7.894     c-3.537,3.068-4.7,7.791-5.066,11.223L0,19.198v15.821l26.369,13.835l3.089-0.386l7.628-8.992V15.178l-0.011-0.037L36.581,12.5     C34.36,3.875,26.127-1.5,17.428,0z"
         id="path158" />
      <path
         stroke="none"
         d="M26.653,47.286l2.028-0.255l6.882-8.113V15.319c-0.095-0.809-0.246-1.625-0.456-2.44     C32.914,4.353,25.041,0.231,17.687,1.5c-1.088,0.188-2.371,0.736-3.296,1.268L5.993,9.109c-2.715,2.358-4.049,6.223-4.471,10.17     v14.82L26.653,47.286z"
         id="path159" />
      <path
         fill="#2F9899"
         stroke="none"
         d="M26.653,47.286l2.028-0.255l6.882-8.113V15.319c-0.095-0.809-0.246-1.625-0.456-2.44     C32.914,4.353,25.041,0.231,17.687,1.5c-1.088,0.188-2.371,0.736-3.296,1.268L5.993,9.109c-2.715,2.358-4.049,6.223-4.471,10.17     v14.82L26.653,47.286z"
         id="path160" />
      <g
         id="g161">
        <path
           fill="#9B97C8"
           stroke="none"
           d="M4.518,25.473c-1.871-6.595,1.241-13.252,6.946-14.87      c5.706-1.619,11.847,2.414,13.719,9.009c1.87,6.595-1.239,13.253-6.947,14.873C12.531,36.102,6.389,32.068,4.518,25.473z"
           id="path162" />
        <path
           fill="#A7A4CE"
           stroke="none"
           d="M4.944,24.986c-1.718-6.063,1.009-12.223,6.255-13.71      c5.244-1.488,10.892,2.22,12.61,8.282c1.72,6.063-1.139,12.184-6.386,13.672C12.18,34.716,6.664,31.048,4.944,24.986z"
           id="path163" />
        <path
           fill="#B2B2D5"
           stroke="none"
           d="M5.332,25.373c-1.653-5.924,0.829-11.988,5.876-13.441      c5.047-1.455,10.48,2.168,12.134,8.092c1.654,5.924-1.095,11.904-6.144,13.359C12.151,34.833,6.988,31.296,5.332,25.373z"
           id="path164" />
        <path
           fill="#C2BEDC"
           stroke="none"
           d="M5.755,25.148c-1.563-5.51,0.632-11.196,5.398-12.548      c4.767-1.354,9.899,2.017,11.462,7.526c1.562,5.511-1.035,11.074-5.802,12.426C12.044,33.904,7.318,30.659,5.755,25.148z"
           id="path165" />
        <path
           fill="#CFCBE3"
           stroke="none"
           d="M6.146,25.271c-1.489-5.253,0.44-10.724,4.985-12.011      c4.544-1.291,9.437,1.922,10.926,7.174c1.49,5.253-0.986,10.556-5.531,11.845C11.981,33.567,7.637,30.524,6.146,25.271z"
           id="path166" />
      </g>
      <path
         fill="#FFFFFF"
         stroke="none"
         d="M7.514,26.844c-0.489-0.785-0.88-1.661-1.15-2.611c-1.35-4.766,0.898-9.575,5.022-10.745     c1.291-0.367,2.615-0.332,3.864,0.036C9.432,15.727,8.148,18.129,7.514,26.844z"
         id="path167" />
      <g
         id="g168">
        <linearGradient
           id="XMLID_1_"
           gradientUnits="userSpaceOnUse"
           x1="-228.5586"
           y1="399.1763"
           x2="-214.5906"
           y2="385.2083"
           gradientTransform="matrix(1 0 0 -1 239.5249 406.7295)">
          <stop
             offset="0.0503"
             style="stop-color:#65C1C7"
             id="stop170" />
          <stop
             offset="0.2011"
             style="stop-color:#97D6BC"
             id="stop171" />
          <stop
             offset="0.3073"
             style="stop-color:#FFFFFF"
             id="stop172" />
          <stop
             offset="0.4637"
             style="stop-color:#97D6BC"
             id="stop173" />
          <stop
             offset="0.6704"
             style="stop-color:#65C1C7"
             id="stop174" />
          <stop
             offset="1"
             style="stop-color:#146666"
             id="stop175" />
        </linearGradient>
        <path
           fill="url(#XMLID_1_)"
           stroke="none"
           d="M28.682,47.031l0.289-25.88c-0.095-0.809-0.246-1.624-0.456-2.44      C26.32,10.185,18.448,6.063,11.094,7.331c-1.521,0.38-3.375,0.872-5.087,1.775c0,0,8.367-6.324,8.36-6.331      c0.118-0.104,1.243-0.801,3.319-1.276c7.417-1.252,15.227,2.854,17.421,11.38c0.209,0.815,0.361,1.631,0.456,2.44v23.598"
           id="path187" />
      </g>
      <linearGradient
         id="XMLID_2_"
         gradientUnits="userSpaceOnUse"
         x1="-221.3838"
         y1="392.2319"
         x2="-214.3702"
         y2="384.2161"
         gradientTransform="matrix(1 0 0 -1 239.5249 406.7295)">
        <stop
           offset="0"
           style="stop-color:#FFFFFF"
           id="stop189" />
        <stop
           offset="1"
           style="stop-color:#000000"
           id="stop190" />
      </linearGradient>
      <path
         a:adobe-blending-mode="screen"
         opacity="0.65"
         fill="url(#XMLID_2_)"
         stroke="none"
         d="M11.17,6.536     C9.479,6.959,7.744,7.772,6.084,9.075l-1.203,1.189c3.297-1.902,4.981-2.355,6.535-2.744c6.967-1.742,14.865,3.669,16.9,11.578     l0.855-0.221C27.003,10.447,18.658,4.664,11.17,6.536z"
         id="path194" />
      <path
         stroke="none"
         d="M13.808,15.853l-0.326,8.187l10.384,3.854l0.142-0.342c0,0-8.266-3.809-8.977-4.112     c-0.019-0.758-0.469-7.605-0.469-7.605L13.808,15.853z"
         id="path195" />
      <path
         stroke="none"
         d="M13.435,12.091l0.051,2.045l1.316-0.033l-0.05-2.045L13.435,12.091z"
         id="path196" />
      <path
         stroke="none"
         d="M5.932,20.042l1.775,0.507l0.362-1.41l-1.977-0.152L5.932,20.042z"
         id="path197" />
      <path
         stroke="none"
         d="M24.695,24.112l-1.805-0.387l-0.267,1.431l1.982,0.02L24.695,24.112z"
         id="path198" />
      <path
         stroke="none"
         d="M13.425,30.203v2.109h1.318v-2.109H13.425z"
         id="path199" />
      <path
         fill="#FFFFFF"
         stroke="none"
         d="M18.292,18.307c0.359-0.759,1.062-1.18,1.568-0.94c0.507,0.241,0.625,1.05,0.264,1.809     c-0.359,0.759-1.062,1.18-1.568,0.939C18.049,19.876,17.932,19.066,18.292,18.307z"
         id="path200" />
      <path
         stroke="none"
         d="M11.325,10.116c-2.613,0.741-4.829,2.54-6.239,5.065c-1.693,3.032-2.077,6.834-1.058,10.43     c1.944,6.853,8.379,11.053,14.346,9.362c2.614-0.742,4.83-2.54,6.239-5.065c1.691-3.032,2.078-6.836,1.057-10.433     c-1.021-3.598-3.345-6.632-6.377-8.324C16.767,9.742,13.937,9.375,11.325,10.116 M5.006,25.333     c-0.948-3.339-0.595-6.859,0.967-9.658c1.277-2.29,3.276-3.917,5.629-4.584c2.352-0.667,4.907-0.332,7.194,0.945     c2.801,1.562,4.949,4.374,5.896,7.714c0.948,3.342,0.596,6.863-0.968,9.662c-1.276,2.288-3.276,3.917-5.628,4.583     C12.669,35.535,6.797,31.65,5.006,25.333z"
         id="path201" />
    </g>
  </g>
</svg>
