<?xml version="1.0" encoding="UTF-8" standalone="no"?>
<!DOCTYPE svg PUBLIC "-//W3C//DTD SVG 20010904//EN"
"http://www.w3.org/TR/2001/REC-SVG-20010904/DTD/svg10.dtd">
<!-- Created with Sodipodi ("http://www.sodipodi.com/") -->
<svg
   width="48pt"
   height="52pt"
   viewBox="0 0 70.059 75.93"
   overflow="visible"
   enable-background="new 0 0 70.059 75.93"
   xml:space="preserve"
   xmlns="http://www.w3.org/2000/svg"
   xmlns:xml="http://www.w3.org/XML/1998/namespace"
   xmlns:sodipodi="http://sodipodi.sourceforge.net/DTD/sodipodi-0.dtd"
   xmlns:xlink="http://www.w3.org/1999/xlink"
   id="svg153"
   sodipodi:version="0.32pre"
   sodipodi:docname="/home/cschalle/gnome-themes-extras/Wasp/icons/scalable/filesystems/gnome-fs-home.svg"
   sodipodi:docbase="/home/cschalle/gnome-themes-extras/Wasp/icons/scalable/filesystems">
  <defs
     id="defs254" />
  <sodipodi:namedview
     id="base" />
  <g
     id="Layer_1"
     stroke="#000000">
    <g
       id="Layer_1_1_">
      <g
         id="Layer_1_2_">
        <path
           a:adobe-blending-mode="multiply"
           opacity="0.2"
           stroke="none"
           d="M56.993,57.368l13.065-12.512l-8.159-5.358      L56.993,57.368z"
           id="path157" />
        <path
           stroke="none"
           d="M33.903,2.27c0,0-0.148,0.794-0.287,1.531c-2.26-0.968-8.588-3.683-8.588-3.683s0.388,7.354,0.549,10.397      c-2.506-1.076-9.253-3.966-9.253-3.966l9.531,36.05l30.897,14.833l2.164-1.912l7.951-40.603l-0.859-5.979L54.025,5.261      c0,0-1.914,1.319-2.735,1.886C49.719,6.484,34.33,0,34.33,0L33.903,2.27z"
           id="path158" />
        <g
           id="g159">
          <path
             stroke="none"
             d="M65.016,14.865l-0.635-4.426L54.319,7.354l-2.826,1.948L35.692,2.644l-0.716,3.813l-7.969-3.416       l0.55,10.397l-8.479-3.635l8.308,31.425l28.698,13.922l-0.482-3.355l1.993,0.97L65.016,14.865z"
             id="path160" />
        </g>
        <g
           id="g161">
          <linearGradient
             id="XMLID_1_"
             gradientUnits="userSpaceOnUse"
             x1="-479.0396"
             y1="65.5801"
             x2="-442.9199"
             y2="65.5801"
             gradientTransform="matrix(1 0 0 1 507.9355 -37.876)">
            <stop
               offset="0"
               style="stop-color:#FFFFFF"
               id="stop163" />
            <stop
               offset="1"
               style="stop-color:#F1C779"
               id="stop164" />
          </linearGradient>
          <path
             fill="url(#XMLID_1_)"
             stroke="none"
             d="M57.595,52.765L28.896,38.842l6.796-36.198l15.801,6.658l2.826-1.949       l10.062,3.085l0.635,4.426L57.595,52.765z"
             id="path168" />
        </g>
        <g
           id="g169">
          <linearGradient
             id="XMLID_2_"
             gradientUnits="userSpaceOnUse"
             x1="-461.4507"
             y1="66.6104"
             x2="-459.5103"
             y2="56.9087"
             gradientTransform="matrix(1 0 0 1 507.9355 -37.876)">
            <stop
               offset="0"
               style="stop-color:#A68B54"
               id="stop171" />
            <stop
               offset="1"
               style="stop-color:#F1C779"
               id="stop172" />
          </linearGradient>
          <path
             fill="url(#XMLID_2_)"
             stroke="none"
             d="M63.926,20.431l-6.331,32.333L28.896,38.842l5.354-28.517L63.926,20.431z"
             id="path176" />
        </g>
        <g
           id="g177">
          <linearGradient
             id="XMLID_3_"
             gradientUnits="userSpaceOnUse"
             x1="-463.5083"
             y1="50.8926"
             x2="-466.0241"
             y2="68.5027"
             gradientTransform="matrix(1 0 0 1 507.9355 -37.876)">
            <stop
               offset="0"
               style="stop-color:#FFFFFF"
               id="stop179" />
            <stop
               offset="0.648"
               style="stop-color:#EAEB49"
               id="stop180" />
            <stop
               offset="0.807"
               style="stop-color:#E8E847"
               id="stop181" />
            <stop
               offset="0.9255"
               style="stop-color:#E0DE42"
               id="stop182" />
            <stop
               offset="1"
               style="stop-color:#D7D43D"
               id="stop183" />
          </linearGradient>
          <path
             fill="url(#XMLID_3_)"
             stroke="none"
             d="M57.595,52.765L28.896,38.842L27.007,3.041l32.475,13.923L57.595,52.765z"
             id="path193" />
        </g>
        <path
           fill="#808080"
           stroke="none"
           d="M34.966,6.446c0,0,23.12,10.068,23.887,10.404c-0.045,0.858-1.688,33.63-1.779,35.464      c-0.492-0.264-0.995-0.529-0.995-0.529l-0.549,1.143l2.055,0.74l2.526-37.651L35.212,5.204L34.966,6.446z"
           id="path194" />
        <g
           id="g195">
          <linearGradient
             id="XMLID_4_"
             gradientUnits="userSpaceOnUse"
             x1="-487.8223"
             y1="53.3799"
             x2="-464.4821"
             y2="73.8471"
             gradientTransform="matrix(1 0 0 1 507.9355 -37.876)">
            <stop
               offset="0"
               style="stop-color:#FFFFFF"
               id="stop197" />
            <stop
               offset="1"
               style="stop-color:#F1C779"
               id="stop198" />
          </linearGradient>
          <path
             fill="url(#XMLID_4_)"
             stroke="none"
             d="M56.083,55.15L27.386,41.229L19.078,9.804l32.475,13.922L56.083,55.15z"
             id="path202" />
        </g>
        <path
           fill="#808080"
           stroke="none"
           d="M19.296,10.587c0,0,31.079,13.325,31.708,13.595c0.102,0.703,4.438,30.687,4.438,30.687      l1.311,0.579l-4.65-32.18L18.857,9.006L19.296,10.587z"
           id="path203" />
      </g>
    </g>
    <g
       id="Layer_1_3_">
      <g
         id="Layer_1_4_">
        <path
           stroke="none"
           d="M15.012,34.713L0.089,45.518L0,50.765c0,0,2.34-1.704,2.665-1.94c0,3.372,0,15.146,0,15.146L26.768,75.93      l15.599-13.036c0,0,0-8.051,0-9.012c0.62-0.519,3.023-2.526,3.023-2.526v-3.657l-14.777-22.71L15.012,34.713z"
           id="path206" />
        <linearGradient
           id="XMLID_5_"
           gradientUnits="userSpaceOnUse"
           x1="-492.7891"
           y1="103.7637"
           x2="-488.9127"
           y2="99.1121"
           gradientTransform="matrix(1 0 0 1 504.6563 -38.2051)">
          <stop
             offset="0"
             style="stop-color:#BFBFBF"
             id="stop208" />
          <stop
             offset="1"
             style="stop-color:#555555"
             id="stop209" />
        </linearGradient>
        <path
           fill="url(#XMLID_5_)"
           stroke="none"
           d="M12.065,67.338V52.615l6.301,3.127v14.722L12.065,67.338z"
           id="path213" />
        <linearGradient
           id="XMLID_6_"
           gradientUnits="userSpaceOnUse"
           x1="-465.4229"
           y1="102.5059"
           x2="-534.9462"
           y2="47.408"
           gradientTransform="matrix(1 0 0 1 504.6563 -38.2051)">
          <stop
             offset="0"
             style="stop-color:#BFBFBF"
             id="stop215" />
          <stop
             offset="1"
             style="stop-color:#898989"
             id="stop216" />
        </linearGradient>
        <path
           fill="url(#XMLID_6_)"
           stroke="none"
           d="M41.203,45.604l-14.599,12.2v16.747L41.203,62.35V45.604z"
           id="path220" />
        <path
           fill="#BFBFBF"
           stroke="none"
           d="M13.592,53.302l-1.525-0.608v14.646l1.525-1.263V53.302z"
           id="path221" />
        <path
           opacity="0.2"
           stroke="none"
           d="M42.366,62.894L26.768,75.93h9.476l14.239-12.015l-0.171-3.158l-7.921-0.951L42.366,62.894      z"
           id="path222" />
        <linearGradient
           id="XMLID_7_"
           gradientUnits="userSpaceOnUse"
           x1="-475.8579"
           y1="96.1943"
           x2="-525.9337"
           y2="85.2921"
           gradientTransform="matrix(1 0 0 1 504.6563 -38.2051)">
          <stop
             offset="0"
             style="stop-color:#FFFFFF"
             id="stop224" />
          <stop
             offset="1"
             style="stop-color:#E6E6E6"
             id="stop225" />
        </linearGradient>
        <path
           fill="url(#XMLID_7_)"
           stroke="none"
           d="M15.216,37.992L3.828,46.503v16.746l8.237,4.089V52.615l6.301,3.127v14.722      l8.237,4.088V57.804L15.216,37.992z"
           id="path229" />
        <linearGradient
           id="XMLID_8_"
           gradientUnits="userSpaceOnUse"
           x1="-481.1162"
           y1="102.5732"
           x2="-498.4821"
           y2="76.9368"
           gradientTransform="matrix(1 0 0 1 504.6563 -38.2051)">
          <stop
             offset="0"
             style="stop-color:#F75625"
             id="stop231" />
          <stop
             offset="1"
             style="stop-color:#FB0F0C"
             id="stop232" />
        </linearGradient>
        <path
           fill="url(#XMLID_8_)"
           stroke="none"
           d="M29.626,60.069L15.661,35.678L1.242,46.118l-0.04,2.333l14.006-10.194      l14.418,24.75V60.069z"
           id="path236" />
        <path
           fill="#FB0F0C"
           stroke="none"
           d="M44.227,48.045L30.259,26.578l-14.599,9.1l13.966,24.565L44.227,48.045z"
           id="path237" />
        <linearGradient
           id="XMLID_9_"
           gradientUnits="userSpaceOnUse"
           x1="-460.5752"
           y1="87.6318"
           x2="-474.7608"
           y2="99.7314"
           gradientTransform="matrix(1 0 0 1 504.6563 -38.2051)">
          <stop
             offset="0"
             style="stop-color:#F75625"
             id="stop239" />
          <stop
             offset="1"
             style="stop-color:#FB0F0C"
             id="stop240" />
        </linearGradient>
        <path
           fill="url(#XMLID_9_)"
           stroke="none"
           d="M44.227,48.045L29.626,60.244v2.77l14.601-12.201V48.045z"
           id="path244" />
        <path
           opacity="0.2"
           stroke="none"
           d="M44.227,48.045L29.626,60.244v2.77l14.601-12.201V48.045z"
           id="path245" />
        <path
           opacity="0.2"
           stroke="none"
           d="M15.208,38.257L3.828,46.57l-0.027,1.701l12.152-8.726L15.208,38.257z"
           id="path246" />
        <path
           fill="#EAC510"
           stroke="none"
           d="M35.247,36.103l-3.556,3.169v8.443l3.556-3.169V36.103z"
           id="path247" />
        <path
           fill="#F7E219"
           stroke="none"
           d="M27.156,37.064v2.677l4.535,7.975v-8.443L27.156,37.064z"
           id="path248" />
        <path
           fill="#F8F98B"
           stroke="none"
           d="M30.711,33.896l-3.557,3.168l4.536,2.207l3.556-3.169L30.711,33.896z"
           id="path249" />
        <path
           fill="#9F0F09"
           stroke="none"
           d="M35.247,44.546l0.532-8.682l-5.067-1.968l4.535,2.206V44.546z"
           id="path250" />
        <path
           opacity="0.2"
           stroke="none"
           d="M30.889,34.869l-2.27,2.021l2.895,1.408l2.27-2.022L30.889,34.869z"
           id="path251" />
        <path
           opacity="0.5"
           stroke="none"
           d="M30.889,34.869l-2.27,2.021l2.895,1.408l-0.597-1.041L30.889,34.869z"
           id="path252" />
      </g>
    </g>
  </g>
</svg>
