<?xml version="1.0" encoding="UTF-8" standalone="no"?>
<!DOCTYPE svg PUBLIC "-//W3C//DTD SVG 20010904//EN"
"http://www.w3.org/TR/2001/REC-SVG-20010904/DTD/svg10.dtd">
<!-- Created with Sodipodi ("http://www.sodipodi.com/") -->
<svg
   width="48pt"
   height="48pt"
   viewBox="0 0 126.518 124.833"
   overflow="visible"
   enable-background="new 0 0 126.518 124.833"
   xml:space="preserve"
   xmlns="http://www.w3.org/2000/svg"
   xmlns:xml="http://www.w3.org/XML/1998/namespace"
   xmlns:sodipodi="http://sodipodi.sourceforge.net/DTD/sodipodi-0.dtd"
   xmlns:xlink="http://www.w3.org/1999/xlink"
   id="svg153"
   sodipodi:version="0.32pre"
   sodipodi:docname="/home/cschalle/gnome-themes-extras/Wasp/icons/scalable/mimetypes/gnome-mime-audio-x-aiff.svg"
   sodipodi:docbase="/home/cschalle/gnome-themes-extras/Wasp/icons/scalable/mimetypes">
  <defs
     id="defs660" />
  <sodipodi:namedview
     id="base" />
  <metadata
     id="metadata154">
    <sfw>
      <slices />
      <sliceSourceBounds
         y="357.084"
         x="233.241"
         width="126.518"
         height="124.833"
         bottomLeftOrigin="true" />
    </sfw>
  </metadata>
  <g
     id="Layer_1"
     stroke="#000000">
    <g
       id="Layer_1_2_">
      <path
         a:adobe-blending-mode="multiply"
         opacity="0.2"
         stroke="none"
         d="M16.269,75.665c0-22.244,24.681-40.274,55.124-40.274     c30.444,0,55.125,18.031,55.125,40.274c0,22.242-24.68,40.274-55.125,40.274C40.948,115.939,16.269,97.907,16.269,75.665z      M71.393,84.892c6.976,0,12.629-4.132,12.629-9.228c0-5.097-5.653-9.228-12.629-9.228c-6.975,0-12.63,4.131-12.63,9.228     C58.763,80.76,64.418,84.892,71.393,84.892z"
         id="path157" />
      <path
         stroke="none"
         d="M4.298,79.323c0,21.129,25.177,38.319,56.123,38.319c30.945,0,56.124-17.19,56.124-38.319     c0-21.13-25.178-38.32-56.124-38.32S4.298,58.193,4.298,79.323z M10.466,79.323c0-17.777,22.409-32.237,49.955-32.237     c27.545,0,49.956,14.46,49.956,32.237c0,17.775-22.411,32.237-49.956,32.237C32.875,111.561,10.466,97.099,10.466,79.323z"
         id="path158" />
      <path
         fill="#D9D9D9"
         stroke="none"
         d="M7.999,79.323c0-19.526,23.47-35.355,52.422-35.355c28.951,0,52.42,15.828,52.42,35.355     c0,19.525-23.469,35.354-52.42,35.354C31.469,114.676,7.999,98.848,7.999,79.323z M60.421,87.312     c6.157,0,11.148-3.577,11.148-7.989c0-4.414-4.991-7.99-11.148-7.99c-6.158,0-11.149,3.576-11.149,7.99     C49.271,83.735,54.263,87.312,60.421,87.312z"
         id="path159" />
      <linearGradient
         id="XMLID_1_"
         gradientUnits="userSpaceOnUse"
         x1="-213.082"
         y1="425.8403"
         x2="-127.7487"
         y2="376.573"
         gradientTransform="matrix(1 0 0 -1 233.2412 481.917)">
        <stop
           offset="0"
           style="stop-color:#E6E6FA"
           id="stop161" />
        <stop
           offset="0.4246"
           style="stop-color:#FFFFFF"
           id="stop162" />
        <stop
           offset="0.4972"
           style="stop-color:#ADADD2"
           id="stop163" />
        <stop
           offset="0.8492"
           style="stop-color:#EBEBFF"
           id="stop164" />
      </linearGradient>
      <path
         fill="url(#XMLID_1_)"
         stroke="none"
         d="M7.999,79.323c0-19.526,23.47-35.355,52.422-35.355     c28.951,0,52.42,15.828,52.42,35.355c0,19.525-23.469,35.354-52.42,35.354C31.469,114.676,7.999,98.848,7.999,79.323z      M60.421,87.312c6.157,0,11.148-3.577,11.148-7.989c0-4.414-4.991-7.99-11.148-7.99c-6.158,0-11.149,3.576-11.149,7.99     C49.271,83.735,54.263,87.312,60.421,87.312z"
         id="path172" />
      <linearGradient
         id="XMLID_2_"
         gradientUnits="userSpaceOnUse"
         x1="-181.4702"
         y1="398.8882"
         x2="-152.2564"
         y2="411.4084"
         gradientTransform="matrix(1 0 0 -1 233.2412 481.917)">
        <stop
           offset="0"
           style="stop-color:#FFFFFF"
           id="stop174" />
        <stop
           offset="1"
           style="stop-color:#CCCCF5"
           id="stop175" />
      </linearGradient>
      <path
         fill="url(#XMLID_2_)"
         stroke="none"
         d="M38.365,79.323c0-8.217,9.873-14.875,22.056-14.875     c12.18,0,22.056,6.658,22.056,14.875c0,8.215-9.876,14.873-22.056,14.873C48.238,94.196,38.365,87.538,38.365,79.323z      M60.421,87.399c6.396,0,11.581-3.686,11.581-8.229c0-4.547-5.187-8.229-11.581-8.229c-6.396,0-11.582,3.685-11.582,8.229     S54.023,87.399,60.421,87.399z"
         id="path179" />
      <path
         fill="none"
         stroke-width="2"
         d="M49.296,79.323c0-4.461,4.979-8.076,11.125-8.076c6.144,0,11.124,3.615,11.124,8.076     s-4.98,8.076-11.124,8.076C54.275,87.399,49.296,83.784,49.296,79.323z"
         id="path180" />
      <linearGradient
         id="XMLID_3_"
         gradientUnits="userSpaceOnUse"
         x1="-142.2383"
         y1="405.4175"
         x2="-210.0571"
         y2="399.1573"
         gradientTransform="matrix(1 0 0 -1 233.2412 481.917)">
        <stop
           offset="0"
           style="stop-color:#FFFFFF"
           id="stop182" />
        <stop
           offset="1"
           style="stop-color:#6A77B8"
           id="stop183" />
      </linearGradient>
      <path
         fill="url(#XMLID_3_)"
         stroke="none"
         d="M37.355,79.323c0,8.75,10.348,15.87,23.064,15.87s23.064-7.12,23.064-15.87     S73.137,63.452,60.42,63.452S37.355,70.573,37.355,79.323z M39.441,79.323c0-7.601,9.411-13.783,20.979-13.783     c11.567,0,20.979,6.184,20.979,13.783s-9.411,13.783-20.979,13.783C48.853,93.106,39.441,86.922,39.441,79.323z"
         id="path187" />
      <path
         stroke="none"
         d="M43.806,3.819L26.952,0v55.329h4.349V7.605l12.505,2.835V3.819z"
         id="path188" />
      <g
         id="g189">
        <path
           fill="#D90F0F"
           stroke="none"
           d="M1.546,54.36c0-6.25,6.353-11.316,14.189-11.316c7.838,0,14.19,5.066,14.19,11.316      s-6.353,11.314-14.19,11.314C7.898,65.674,1.546,60.61,1.546,54.36z"
           id="path190" />
        <path
           fill="#DA1414"
           stroke="none"
           d="M15.55,43.188c7.628,0,13.813,4.932,13.813,11.016c0,6.083-6.185,11.013-13.813,11.013      c-7.629,0-13.813-4.93-13.813-11.013C1.736,48.119,7.921,43.188,15.55,43.188z"
           id="path191" />
        <path
           fill="#DB1818"
           stroke="none"
           d="M15.363,43.33c7.422,0,13.438,4.798,13.438,10.715S22.785,64.76,15.363,64.76      c-7.42,0-13.437-4.797-13.437-10.715S7.942,43.33,15.363,43.33z"
           id="path192" />
        <path
           fill="#DC1D1D"
           stroke="none"
           d="M15.178,43.474c7.213,0,13.06,4.663,13.06,10.415c0,5.751-5.847,10.414-13.06,10.414      c-7.212,0-13.06-4.663-13.06-10.414C2.118,48.136,7.965,43.474,15.178,43.474z"
           id="path193" />
        <path
           fill="#DD2121"
           stroke="none"
           d="M14.992,43.617c7.005,0,12.684,4.528,12.684,10.114s-5.679,10.113-12.684,10.113      c-7.006,0-12.684-4.527-12.684-10.113S7.986,43.617,14.992,43.617z"
           id="path194" />
        <path
           fill="#DE2626"
           stroke="none"
           d="M14.807,43.76c6.796,0,12.306,4.394,12.306,9.814c0,5.42-5.51,9.813-12.306,9.813      C8.01,63.387,2.5,58.994,2.5,53.574C2.5,48.154,8.009,43.76,14.807,43.76z"
           id="path195" />
        <path
           fill="#DF2A2A"
           stroke="none"
           d="M14.62,43.902c6.588,0,11.93,4.26,11.93,9.514c0,5.253-5.341,9.513-11.93,9.513      c-6.59,0-11.931-4.259-11.931-9.513S8.03,43.902,14.62,43.902z"
           id="path196" />
        <path
           fill="#E02F2F"
           stroke="none"
           d="M14.434,44.045c6.381,0,11.553,4.125,11.553,9.213c0,5.088-5.172,9.213-11.553,9.213      S2.881,58.347,2.881,53.258C2.881,48.17,8.053,44.045,14.434,44.045z"
           id="path197" />
        <path
           fill="#E03334"
           stroke="none"
           d="M14.248,44.189c6.173,0,11.176,3.99,11.176,8.913s-5.003,8.913-11.176,8.913      c-6.172,0-11.177-3.99-11.177-8.913S8.076,44.189,14.248,44.189z"
           id="path198" />
        <path
           fill="#E13838"
           stroke="none"
           d="M14.062,44.332c5.964,0,10.8,3.856,10.8,8.613c0,4.756-4.835,8.612-10.8,8.612      s-10.8-3.855-10.8-8.612C3.263,48.188,8.098,44.332,14.062,44.332z"
           id="path199" />
        <path
           fill="#E23C3D"
           stroke="none"
           d="M13.876,44.475c5.757,0,10.423,3.722,10.423,8.312s-4.667,8.312-10.423,8.312      S3.453,57.377,3.453,52.787S8.12,44.475,13.876,44.475z"
           id="path200" />
        <path
           fill="#E34141"
           stroke="none"
           d="M13.689,44.618c5.548,0,10.046,3.587,10.046,8.012c0,4.424-4.498,8.011-10.046,8.011      S3.644,57.054,3.644,52.629C3.644,48.205,8.142,44.618,13.689,44.618z"
           id="path201" />
        <path
           fill="#E44646"
           stroke="none"
           d="M13.504,44.761c5.341,0,9.67,3.453,9.67,7.711c0,4.258-4.329,7.711-9.67,7.711      c-5.34,0-9.669-3.452-9.669-7.711C3.835,48.213,8.164,44.761,13.504,44.761z"
           id="path202" />
        <path
           fill="#E54A4B"
           stroke="none"
           d="M13.318,44.904c5.133,0,9.293,3.318,9.293,7.411c0,4.093-4.16,7.411-9.293,7.411      s-9.293-3.318-9.293-7.411C4.025,48.222,8.186,44.904,13.318,44.904z"
           id="path203" />
        <path
           fill="#E64F4F"
           stroke="none"
           d="M13.133,45.047c4.924,0,8.916,3.184,8.916,7.111c0,3.926-3.992,7.11-8.916,7.11      c-4.925,0-8.917-3.184-8.917-7.11C4.216,48.23,8.208,45.047,13.133,45.047z"
           id="path204" />
        <path
           fill="#E75354"
           stroke="none"
           d="M12.945,45.19c4.717,0,8.54,3.049,8.54,6.81s-3.822,6.81-8.54,6.81      c-4.717,0-8.54-3.049-8.54-6.81C4.407,48.239,8.229,45.19,12.945,45.19z"
           id="path205" />
        <path
           fill="#E85858"
           stroke="none"
           d="M12.761,45.333c4.508,0,8.163,2.915,8.163,6.51c0,3.595-3.655,6.509-8.163,6.509      s-8.163-2.914-8.163-6.509C4.598,48.248,8.252,45.333,12.761,45.333z"
           id="path206" />
        <path
           fill="#E95C5D"
           stroke="none"
           d="M12.575,45.476c4.3,0,7.785,2.78,7.785,6.209s-3.485,6.208-7.785,6.208      c-4.301,0-7.786-2.78-7.786-6.208C4.789,48.256,8.273,45.476,12.575,45.476z"
           id="path207" />
        <path
           fill="#EA6161"
           stroke="none"
           d="M12.389,45.619c4.092,0,7.41,2.646,7.41,5.909c0,3.264-3.317,5.909-7.41,5.909      s-7.41-2.645-7.41-5.909C4.979,48.265,8.296,45.619,12.389,45.619z"
           id="path208" />
        <path
           fill="#EB6566"
           stroke="none"
           d="M12.203,45.762c3.884,0,7.032,2.511,7.032,5.608c0,3.097-3.148,5.608-7.032,5.608      c-3.885,0-7.033-2.51-7.033-5.607C5.17,48.273,8.317,45.762,12.203,45.762z"
           id="path209" />
        <path
           fill="#EC6A6B"
           stroke="none"
           d="M12.017,45.905c3.676,0,6.656,2.376,6.656,5.308c0,2.932-2.98,5.308-6.656,5.308      S5.36,54.145,5.36,51.213C5.36,48.281,8.341,45.905,12.017,45.905z"
           id="path210" />
        <path
           fill="#ED6F6F"
           stroke="none"
           d="M11.831,46.048c3.468,0,6.279,2.242,6.279,5.008c0,2.765-2.812,5.007-6.279,5.007      c-3.469,0-6.279-2.242-6.279-5.007C5.551,48.29,8.361,46.048,11.831,46.048z"
           id="path211" />
        <path
           fill="#EE7374"
           stroke="none"
           d="M11.645,46.191c3.26,0,5.903,2.108,5.903,4.708s-2.644,4.707-5.903,4.707      s-5.902-2.107-5.902-4.707S8.385,46.191,11.645,46.191z"
           id="path212" />
        <path
           fill="#EF7878"
           stroke="none"
           d="M11.459,46.334c3.052,0,5.525,1.973,5.525,4.407c0,2.434-2.474,4.407-5.525,4.407      s-5.526-1.973-5.526-4.407C5.933,48.307,8.407,46.334,11.459,46.334z"
           id="path213" />
        <path
           fill="#EF7C7D"
           stroke="none"
           d="M11.272,46.478c2.845,0,5.149,1.838,5.149,4.106s-2.306,4.106-5.149,4.106      s-5.148-1.838-5.148-4.106S8.429,46.478,11.272,46.478z"
           id="path214" />
        <path
           fill="#F08182"
           stroke="none"
           d="M11.087,46.62c2.636,0,4.772,1.704,4.772,3.806c0,2.102-2.137,3.806-4.772,3.806      s-4.773-1.704-4.773-3.806C6.313,48.324,8.451,46.62,11.087,46.62z"
           id="path215" />
        <path
           fill="#F18586"
           stroke="none"
           d="M10.9,46.763c2.429,0,4.396,1.57,4.396,3.506s-1.968,3.505-4.396,3.505      c-2.428,0-4.396-1.569-4.396-3.505S8.473,46.763,10.9,46.763z"
           id="path216" />
        <path
           fill="#F28A8B"
           stroke="none"
           d="M10.715,46.906c2.22,0,4.02,1.435,4.02,3.206c0,1.77-1.799,3.205-4.02,3.205      c-2.22,0-4.02-1.435-4.02-3.205C6.695,48.341,8.495,46.906,10.715,46.906z"
           id="path217" />
        <path
           fill="#F38E8F"
           stroke="none"
           d="M10.528,47.049c2.013,0,3.644,1.301,3.644,2.905s-1.631,2.904-3.644,2.904      c-2.012,0-3.643-1.3-3.643-2.904S8.517,47.049,10.528,47.049z"
           id="path218" />
        <path
           fill="#F49394"
           stroke="none"
           d="M10.343,47.192c1.804,0,3.266,1.166,3.266,2.604S12.146,52.4,10.343,52.4      s-3.266-1.166-3.266-2.604S8.54,47.192,10.343,47.192z"
           id="path219" />
        <path
           fill="#F59798"
           stroke="none"
           d="M10.157,47.335c1.596,0,2.889,1.031,2.889,2.304c0,1.272-1.293,2.304-2.889,2.304      c-1.597,0-2.891-1.031-2.891-2.304C7.268,48.367,8.562,47.335,10.157,47.335z"
           id="path220" />
        <path
           fill="#F69C9D"
           stroke="none"
           d="M7.458,49.482c0-1.107,1.125-2.004,2.513-2.004s2.513,0.897,2.513,2.004      c0,1.106-1.125,2.003-2.513,2.003S7.458,50.589,7.458,49.482z"
           id="path221" />
      </g>
      <path
         stroke="none"
         d="M0,54.25c0,7.051,7.094,12.788,15.813,12.788c8.72,0,15.813-5.737,15.813-12.788     c0-7.053-7.096-12.788-15.813-12.788C7.094,41.462,0,47.197,0,54.25 M2.229,54.25c0-6.059,6.095-10.984,13.584-10.984     c7.49,0,13.584,4.926,13.584,10.984s-6.094,10.984-13.584,10.984C8.323,65.234,2.229,60.308,2.229,54.25z"
         id="path222" />
      <path
         stroke="none"
         d="M66.699,19.368l-20.332-4.809v50.449h4.349V23.946l15.983,3.78V19.368z"
         id="path223" />
      <g
         id="g224">
        <g
           id="g225">
          <path
             fill="#F58B8C"
             stroke="none"
             d="M9.458,51.111c0-1.253,0.785-2.27,1.752-2.27s1.753,1.017,1.753,2.27       c0,1.251-0.786,2.268-1.753,2.268S9.458,52.362,9.458,51.111z"
             id="path226" />
        </g>
        <g
           id="g227">
          <path
             fill="#F58C8D"
             stroke="none"
             d="M11.21,48.855c0.952,0,1.726,1.01,1.726,2.256c0,1.244-0.772,2.254-1.726,2.254       s-1.727-1.01-1.727-2.254C9.483,49.865,10.257,48.855,11.21,48.855z"
             id="path228" />
        </g>
        <g
           id="g229">
          <path
             fill="#F68D8E"
             stroke="none"
             d="M11.21,48.868c0.938,0,1.699,1.004,1.699,2.243c0,1.237-0.763,2.241-1.699,2.241       c-0.938,0-1.698-1.004-1.698-2.241C9.512,49.872,10.271,48.868,11.21,48.868z"
             id="path230" />
        </g>
        <g
           id="g231">
          <path
             fill="#F68F90"
             stroke="none"
             d="M11.21,48.88c0.923,0,1.673,0.999,1.673,2.231c0,1.23-0.75,2.229-1.673,2.229       s-1.672-0.999-1.672-2.229C9.538,49.879,10.287,48.88,11.21,48.88z"
             id="path232" />
        </g>
        <g
           id="g233">
          <path
             fill="#F69091"
             stroke="none"
             d="M11.21,48.893c0.908,0,1.646,0.992,1.646,2.219c0,1.224-0.736,2.217-1.646,2.217       s-1.646-0.993-1.646-2.217C9.563,49.885,10.302,48.893,11.21,48.893z"
             id="path234" />
        </g>
        <g
           id="g235">
          <path
             fill="#F79191"
             stroke="none"
             d="M11.21,48.905c0.893,0,1.619,0.985,1.619,2.206c0,1.217-0.728,2.204-1.619,2.204       c-0.895,0-1.619-0.987-1.619-2.204C9.591,49.891,10.315,48.905,11.21,48.905z"
             id="path236" />
        </g>
        <g
           id="g237">
          <path
             fill="#F79293"
             stroke="none"
             d="M11.21,48.917c0.878,0,1.593,0.981,1.593,2.194c0,1.211-0.715,2.192-1.593,2.192       c-0.88,0-1.592-0.98-1.592-2.192C9.618,49.898,10.33,48.917,11.21,48.917z"
             id="path238" />
        </g>
        <g
           id="g239">
          <path
             fill="#F79394"
             stroke="none"
             d="M11.21,48.929c0.864,0,1.565,0.977,1.565,2.183c0,1.203-0.701,2.181-1.565,2.181       s-1.566-0.978-1.566-2.181C9.644,49.905,10.346,48.929,11.21,48.929z"
             id="path240" />
        </g>
        <g
           id="g241">
          <path
             fill="#F79495"
             stroke="none"
             d="M11.21,48.941c0.849,0,1.539,0.972,1.539,2.17c0,1.196-0.69,2.168-1.539,2.168       c-0.851,0-1.539-0.972-1.539-2.168C9.671,49.913,10.359,48.941,11.21,48.941z"
             id="path242" />
        </g>
        <g
           id="g243">
          <path
             fill="#F79696"
             stroke="none"
             d="M11.21,48.953c0.834,0,1.513,0.966,1.513,2.158c0,1.19-0.679,2.155-1.513,2.155       c-0.835,0-1.514-0.965-1.514-2.155C9.696,49.919,10.375,48.953,11.21,48.953z"
             id="path244" />
        </g>
        <g
           id="g245">
          <path
             fill="#F79798"
             stroke="none"
             d="M11.21,48.967c0.818,0,1.485,0.959,1.485,2.145c0,1.183-0.667,2.143-1.485,2.143       c-0.82,0-1.485-0.96-1.485-2.143C9.725,49.926,10.39,48.967,11.21,48.967z"
             id="path246" />
        </g>
        <g
           id="g247">
          <path
             fill="#F79899"
             stroke="none"
             d="M11.21,48.978c0.805,0,1.46,0.956,1.46,2.134c0,1.176-0.655,2.132-1.46,2.132       c-0.807,0-1.459-0.956-1.459-2.132C9.751,49.934,10.403,48.978,11.21,48.978z"
             id="path248" />
        </g>
        <g
           id="g249">
          <path
             fill="#F7999A"
             stroke="none"
             d="M11.21,48.99c0.79,0,1.433,0.949,1.433,2.121c0,1.17-0.643,2.118-1.433,2.118       c-0.791,0-1.434-0.948-1.434-2.118C9.776,49.939,10.419,48.99,11.21,48.99z"
             id="path250" />
        </g>
        <g
           id="g251">
          <path
             fill="#F79A9B"
             stroke="none"
             d="M11.21,49.002c0.774,0,1.406,0.944,1.406,2.109c0,1.163-0.632,2.107-1.406,2.107       c-0.776,0-1.406-0.944-1.406-2.107C9.804,49.946,10.434,49.002,11.21,49.002z"
             id="path252" />
        </g>
        <g
           id="g253">
          <path
             fill="#F69C9D"
             stroke="none"
             d="M11.21,49.016c0.761,0,1.38,0.938,1.38,2.096c0,1.155-0.619,2.094-1.38,2.094       c-0.762,0-1.38-0.938-1.38-2.094C9.83,49.954,10.448,49.016,11.21,49.016z"
             id="path254" />
        </g>
        <g
           id="g255">
          <path
             fill="#F69D9E"
             stroke="none"
             d="M11.21,49.026c0.746,0,1.353,0.934,1.353,2.085c0,1.149-0.605,2.081-1.353,2.081       s-1.354-0.932-1.354-2.081C9.856,49.96,10.463,49.026,11.21,49.026z"
             id="path256" />
        </g>
        <g
           id="g257">
          <path
             fill="#F69E9F"
             stroke="none"
             d="M11.21,49.039c0.73,0,1.326,0.927,1.326,2.072c0,1.143-0.596,2.068-1.326,2.068       c-0.732,0-1.327-0.926-1.327-2.068C9.883,49.966,10.478,49.039,11.21,49.039z"
             id="path258" />
        </g>
        <g
           id="g259">
          <path
             fill="#F69FA0"
             stroke="none"
             d="M11.21,49.051c0.717,0,1.3,0.922,1.3,2.061c0,1.135-0.583,2.058-1.3,2.058       c-0.718,0-1.3-0.923-1.3-2.058C9.91,49.973,10.492,49.051,11.21,49.051z"
             id="path260" />
        </g>
        <g
           id="g261">
          <path
             fill="#F6A1A1"
             stroke="none"
             d="M11.21,49.063c0.702,0,1.271,0.917,1.271,2.048c0,1.129-0.569,2.044-1.271,2.044       c-0.703,0-1.273-0.915-1.273-2.044C9.937,49.98,10.507,49.063,11.21,49.063z"
             id="path262" />
        </g>
        <g
           id="g263">
          <path
             fill="#F6A3A3"
             stroke="none"
             d="M11.21,49.076c0.688,0,1.246,0.909,1.246,2.035c0,1.122-0.56,2.032-1.246,2.032       c-0.688,0-1.246-0.91-1.246-2.032C9.964,49.985,10.521,49.076,11.21,49.076z"
             id="path264" />
        </g>
        <g
           id="g265">
          <path
             fill="#F6A4A5"
             stroke="none"
             d="M11.21,49.089c0.673,0,1.22,0.906,1.22,2.021c0,1.116-0.547,2.021-1.22,2.021       s-1.222-0.904-1.222-2.021C9.988,49.995,10.537,49.089,11.21,49.089z"
             id="path266" />
        </g>
        <g
           id="g267">
          <path
             fill="#F6A5A6"
             stroke="none"
             d="M11.21,49.1c0.657,0,1.192,0.901,1.192,2.011c0,1.11-0.535,2.009-1.192,2.009       c-0.659,0-1.192-0.899-1.192-2.009C10.018,50.001,10.551,49.1,11.21,49.1z"
             id="path268" />
        </g>
        <g
           id="g269">
          <path
             fill="#F6A6A6"
             stroke="none"
             d="M11.21,49.112c0.644,0,1.167,0.896,1.167,1.998s-0.523,1.996-1.167,1.996       c-0.646,0-1.167-0.894-1.167-1.996S10.564,49.112,11.21,49.112z"
             id="path270" />
        </g>
        <g
           id="g271">
          <path
             fill="#F5A7A7"
             stroke="none"
             d="M11.21,49.127c0.629,0,1.14,0.888,1.14,1.983c0,1.095-0.511,1.983-1.14,1.983       c-0.63,0-1.142-0.888-1.142-1.983C10.068,50.015,10.58,49.127,11.21,49.127z"
             id="path272" />
        </g>
        <g
           id="g273">
          <path
             fill="#F4A7A8"
             stroke="none"
             d="M11.21,49.139c0.614,0,1.114,0.883,1.114,1.972c0,1.089-0.5,1.972-1.114,1.972       s-1.113-0.883-1.113-1.972C10.097,50.022,10.596,49.139,11.21,49.139z"
             id="path274" />
        </g>
        <g
           id="g275">
          <path
             fill="#F4A9A9"
             stroke="none"
             d="M11.21,49.15c0.599,0,1.086,0.878,1.086,1.96s-0.487,1.959-1.086,1.959       c-0.601,0-1.087-0.877-1.087-1.959S10.609,49.15,11.21,49.15z"
             id="path276" />
        </g>
        <g
           id="g277">
          <path
             fill="#F4AAAB"
             stroke="none"
             d="M11.21,49.161c0.585,0,1.061,0.874,1.061,1.949c0,1.075-0.476,1.947-1.061,1.947       c-0.586,0-1.062-0.872-1.062-1.947C10.148,50.035,10.624,49.161,11.21,49.161z"
             id="path278" />
        </g>
        <g
           id="g279">
          <path
             fill="#F4ABAC"
             stroke="none"
             d="M11.21,49.176c0.569,0,1.033,0.866,1.033,1.935c0,1.069-0.464,1.933-1.033,1.933       c-0.571,0-1.033-0.863-1.033-1.933C10.177,50.042,10.639,49.176,11.21,49.176z"
             id="path280" />
        </g>
        <g
           id="g281">
          <path
             fill="#F3ABAC"
             stroke="none"
             d="M11.21,49.188c0.555,0,1.007,0.86,1.007,1.923c0,1.062-0.452,1.921-1.007,1.921       c-0.557,0-1.007-0.859-1.007-1.921C10.203,50.048,10.653,49.188,11.21,49.188z"
             id="path282" />
        </g>
        <g
           id="g283">
          <path
             fill="#F3ACAD"
             stroke="none"
             d="M11.21,49.2c0.54,0,0.979,0.855,0.979,1.91c0,1.055-0.439,1.91-0.979,1.91       c-0.542,0-0.98-0.855-0.98-1.91C10.229,50.055,10.668,49.2,11.21,49.2z"
             id="path284" />
        </g>
        <g
           id="g285">
          <path
             fill="#F4AFAF"
             stroke="none"
             d="M11.21,49.212c0.524,0,0.954,0.848,0.954,1.898c0,1.049-0.43,1.898-0.954,1.898       c-0.527,0-0.954-0.85-0.954-1.898C10.256,50.06,10.683,49.212,11.21,49.212z"
             id="path286" />
        </g>
        <g
           id="g287">
          <path
             fill="#F4B0B1"
             stroke="none"
             d="M11.21,49.225c0.511,0,0.927,0.845,0.927,1.886s-0.416,1.886-0.927,1.886       c-0.512,0-0.928-0.845-0.928-1.886S10.698,49.225,11.21,49.225z"
             id="path288" />
        </g>
        <g
           id="g289">
          <path
             fill="#F4B1B2"
             stroke="none"
             d="M11.21,49.237c0.496,0,0.899,0.839,0.899,1.873c0,1.034-0.403,1.873-0.899,1.873       c-0.497,0-0.9-0.839-0.9-1.873C10.31,50.076,10.713,49.237,11.21,49.237z"
             id="path290" />
        </g>
        <g
           id="g291">
          <path
             fill="#F4B2B2"
             stroke="none"
             d="M11.21,49.249c0.48,0,0.874,0.833,0.874,1.861c0,1.028-0.394,1.859-0.874,1.859       c-0.482,0-0.874-0.831-0.874-1.859C10.336,50.082,10.728,49.249,11.21,49.249z"
             id="path292" />
        </g>
        <g
           id="g293">
          <path
             fill="#F4B3B4"
             stroke="none"
             d="M11.21,49.261c0.467,0,0.847,0.829,0.847,1.85s-0.38,1.849-0.847,1.849       c-0.469,0-0.849-0.828-0.849-1.849S10.741,49.261,11.21,49.261z"
             id="path294" />
        </g>
        <g
           id="g295">
          <path
             fill="#F4B4B5"
             stroke="none"
             d="M11.21,49.273c0.453,0,0.819,0.823,0.819,1.837c0,1.014-0.366,1.837-0.819,1.837       s-0.821-0.823-0.821-1.837C10.389,50.096,10.757,49.273,11.21,49.273z"
             id="path296" />
        </g>
        <g
           id="g297">
          <path
             fill="#F5B6B7"
             stroke="none"
             d="M11.21,49.285c0.438,0,0.794,0.817,0.794,1.825c0,1.008-0.356,1.825-0.794,1.825       c-0.438,0-0.794-0.817-0.794-1.825C10.416,50.102,10.771,49.285,11.21,49.285z"
             id="path298" />
        </g>
        <g
           id="g299">
          <path
             fill="#F5B7B8"
             stroke="none"
             d="M11.21,49.299c0.423,0,0.768,0.811,0.768,1.812s-0.345,1.812-0.768,1.812       c-0.425,0-0.769-0.811-0.769-1.812S10.785,49.299,11.21,49.299z"
             id="path300" />
        </g>
        <g
           id="g301">
          <path
             fill="#F5B8B9"
             stroke="none"
             d="M11.21,49.31c0.408,0,0.741,0.807,0.741,1.801c0,0.993-0.333,1.799-0.741,1.799       c-0.41,0-0.741-0.806-0.741-1.799C10.469,50.116,10.8,49.31,11.21,49.31z"
             id="path302" />
        </g>
        <g
           id="g303">
          <path
             fill="#F6B9BA"
             stroke="none"
             d="M11.21,49.323c0.394,0,0.714,0.8,0.714,1.787c0,0.987-0.32,1.787-0.714,1.787       c-0.396,0-0.714-0.8-0.714-1.787C10.496,50.123,10.814,49.323,11.21,49.323z"
             id="path304" />
        </g>
        <g
           id="g305">
          <path
             fill="#F6BABB"
             stroke="none"
             d="M11.21,49.334c0.379,0,0.688,0.795,0.688,1.776c0,0.98-0.309,1.776-0.688,1.776       c-0.38,0-0.688-0.796-0.688-1.776C10.521,50.129,10.83,49.334,11.21,49.334z"
             id="path306" />
        </g>
        <g
           id="g307">
          <path
             fill="#F7BCBD"
             stroke="none"
             d="M11.21,49.347c0.363,0,0.661,0.791,0.661,1.764c0,0.973-0.298,1.762-0.661,1.762       c-0.365,0-0.661-0.789-0.661-1.762C10.549,50.138,10.845,49.347,11.21,49.347z"
             id="path308" />
        </g>
        <g
           id="g309">
          <path
             fill="#F7BDBE"
             stroke="none"
             d="M11.21,49.358c0.35,0,0.634,0.783,0.634,1.752c0,0.967-0.284,1.75-0.634,1.75       c-0.352,0-0.635-0.783-0.635-1.75C10.575,50.142,10.858,49.358,11.21,49.358z"
             id="path310" />
        </g>
        <g
           id="g311">
          <path
             fill="#F7BEBF"
             stroke="none"
             d="M11.21,49.373c0.335,0,0.607,0.777,0.607,1.737s-0.272,1.737-0.607,1.737       c-0.336,0-0.607-0.777-0.607-1.737S10.874,49.373,11.21,49.373z"
             id="path312" />
        </g>
        <g
           id="g313">
          <path
             fill="#F8C0C0"
             stroke="none"
             d="M11.21,49.385c0.319,0,0.58,0.772,0.58,1.726c0,0.954-0.261,1.727-0.58,1.727       c-0.321,0-0.581-0.773-0.581-1.727C10.629,50.157,10.889,49.385,11.21,49.385z"
             id="path314" />
        </g>
        <g
           id="g315">
          <path
             fill="#F8C1C1"
             stroke="none"
             d="M11.21,49.396c0.305,0,0.555,0.769,0.555,1.715c0,0.946-0.25,1.713-0.555,1.713       c-0.308,0-0.556-0.767-0.556-1.713C10.654,50.165,10.902,49.396,11.21,49.396z"
             id="path316" />
        </g>
        <g
           id="g317">
          <path
             fill="#F9C3C3"
             stroke="none"
             d="M11.21,49.409c0.29,0,0.526,0.762,0.526,1.701s-0.236,1.7-0.526,1.7       c-0.292,0-0.528-0.761-0.528-1.7S10.918,49.409,11.21,49.409z"
             id="path318" />
        </g>
        <g
           id="g319">
          <path
             fill="#F9C4C4"
             stroke="none"
             d="M11.21,49.421c0.275,0,0.501,0.757,0.501,1.689s-0.226,1.688-0.501,1.688       c-0.277,0-0.502-0.756-0.502-1.688S10.933,49.421,11.21,49.421z"
             id="path320" />
        </g>
        <g
           id="g321">
          <path
             fill="#F9C5C5"
             stroke="none"
             d="M11.21,49.435c0.262,0,0.475,0.75,0.475,1.676c0,0.926-0.213,1.676-0.475,1.676       s-0.476-0.75-0.476-1.676C10.734,50.185,10.948,49.435,11.21,49.435z"
             id="path322" />
        </g>
        <g
           id="g323">
          <path
             fill="#F9C6C6"
             stroke="none"
             d="M11.21,49.445c0.246,0,0.447,0.745,0.447,1.665c0,0.919-0.201,1.664-0.447,1.664       c-0.248,0-0.448-0.745-0.448-1.664C10.762,50.19,10.962,49.445,11.21,49.445z"
             id="path324" />
        </g>
        <g
           id="g325">
          <path
             fill="#F9C7C7"
             stroke="none"
             d="M11.21,49.459c0.23,0,0.421,0.738,0.421,1.651c0,0.912-0.189,1.651-0.421,1.651       c-0.232,0-0.422-0.739-0.422-1.651C10.788,50.197,10.978,49.459,11.21,49.459z"
             id="path326" />
        </g>
        <g
           id="g327">
          <path
             fill="#F9C8C8"
             stroke="none"
             d="M11.21,49.471c0.217,0,0.395,0.733,0.395,1.64c0,0.907-0.178,1.639-0.395,1.639       c-0.219,0-0.396-0.732-0.396-1.639C10.814,50.204,10.991,49.471,11.21,49.471z"
             id="path328" />
        </g>
        <g
           id="g329">
          <path
             fill="#F8C9CA"
             stroke="none"
             d="M11.21,49.483c0.203,0,0.368,0.729,0.368,1.627s-0.165,1.627-0.368,1.627       s-0.368-0.729-0.368-1.627S11.007,49.483,11.21,49.483z"
             id="path330" />
        </g>
        <g
           id="g331">
          <path
             fill="#F8CACB"
             stroke="none"
             d="M11.21,49.495c0.188,0,0.341,0.724,0.341,1.615s-0.153,1.615-0.341,1.615       c-0.188,0-0.342-0.724-0.342-1.615S11.021,49.495,11.21,49.495z"
             id="path332" />
        </g>
        <g
           id="g333">
          <path
             fill="#F8CCCC"
             stroke="none"
             d="M11.21,49.507c0.173,0,0.314,0.716,0.314,1.604c0,0.885-0.143,1.602-0.314,1.602       c-0.175,0-0.315-0.717-0.315-1.602C10.895,50.223,11.035,49.507,11.21,49.507z"
             id="path334" />
        </g>
        <g
           id="g335">
          <path
             fill="#F8CDCD"
             stroke="none"
             d="M11.21,49.52c0.159,0,0.288,0.713,0.288,1.591c0,0.878-0.129,1.589-0.288,1.589       s-0.288-0.711-0.288-1.589C10.922,50.233,11.051,49.52,11.21,49.52z"
             id="path336" />
        </g>
        <g
           id="g337">
          <path
             fill="#F7CECE"
             stroke="none"
             d="M11.21,49.532c0.145,0,0.262,0.707,0.262,1.578c0,0.871-0.117,1.577-0.262,1.577       c-0.146,0-0.262-0.706-0.262-1.577C10.948,50.239,11.064,49.532,11.21,49.532z"
             id="path338" />
        </g>
        <g
           id="g339">
          <path
             fill="#F7D0D0"
             stroke="none"
             d="M11.21,49.544c0.129,0,0.234,0.701,0.234,1.566c0,0.865-0.105,1.566-0.234,1.566       c-0.131,0-0.235-0.701-0.235-1.566C10.975,50.245,11.079,49.544,11.21,49.544z"
             id="path340" />
        </g>
        <g
           id="g341">
          <path
             fill="#F6D0D1"
             stroke="none"
             d="M11.21,49.557c0.114,0,0.208,0.695,0.208,1.554c0,0.859-0.094,1.553-0.208,1.553       c-0.116,0-0.208-0.694-0.208-1.553C11.002,50.252,11.094,49.557,11.21,49.557z"
             id="path342" />
        </g>
        <g
           id="g343">
          <path
             fill="#F6D2D2"
             stroke="none"
             d="M11.21,49.567c0.101,0,0.183,0.692,0.183,1.543s-0.082,1.54-0.183,1.54       c-0.102,0-0.184-0.689-0.184-1.54S11.108,49.567,11.21,49.567z"
             id="path344" />
        </g>
        <g
           id="g345">
          <path
             fill="#F6D3D4"
             stroke="none"
             d="M11.21,49.581c0.085,0,0.155,0.685,0.155,1.529c0,0.844-0.07,1.527-0.155,1.527       c-0.086,0-0.156-0.683-0.156-1.527C11.054,50.266,11.124,49.581,11.21,49.581z"
             id="path346" />
        </g>
        <g
           id="g347">
          <path
             fill="#F6D4D4"
             stroke="none"
             d="M11.21,49.593c0.069,0,0.128,0.679,0.128,1.518c0,0.838-0.059,1.516-0.128,1.516       c-0.071,0-0.13-0.678-0.13-1.516C11.08,50.271,11.139,49.593,11.21,49.593z"
             id="path348" />
        </g>
        <g
           id="g349">
          <path
             fill="#F5D6D6"
             stroke="none"
             d="M11.21,49.605c0.056,0,0.102,0.674,0.102,1.505c0,0.83-0.046,1.503-0.102,1.503       c-0.058,0-0.104-0.673-0.104-1.503C11.106,50.279,11.152,49.605,11.21,49.605z"
             id="path350" />
        </g>
        <g
           id="g351">
          <path
             fill="#F5D7D7"
             stroke="none"
             d="M11.21,49.617c0.041,0,0.075,0.669,0.075,1.493c0,0.824-0.034,1.492-0.075,1.492       c-0.042,0-0.076-0.668-0.076-1.492C11.134,50.286,11.168,49.617,11.21,49.617z"
             id="path352" />
        </g>
        <g
           id="g353">
          <path
             fill="#F5D8D9"
             stroke="none"
             d="M11.21,49.63c0.025,0,0.048,0.663,0.048,1.48s-0.021,1.479-0.048,1.479       c-0.027,0-0.049-0.661-0.049-1.479S11.183,49.63,11.21,49.63z"
             id="path354" />
        </g>
        <g
           id="g355">
          <path
             fill="#F5D9D9"
             stroke="none"
             d="M11.21,49.643c0.012,0,0.021,0.658,0.021,1.468c0,0.811-0.01,1.466-0.021,1.466       c-0.014,0-0.022-0.655-0.022-1.466C11.188,50.301,11.196,49.643,11.21,49.643z"
             id="path356" />
        </g>
        <g
           id="g357">
          <path
             fill="#F5DADA"
             stroke="none"
             d="M11.21,49.655c-0.003,0-0.005,0.651-0.005,1.455c0,0.803,0.002,1.454,0.005,1.454       c0.002,0,0.005-0.651,0.005-1.454C11.215,50.307,11.212,49.655,11.21,49.655z"
             id="path358" />
        </g>
        <g
           id="g359">
          <path
             fill="#F5DBDB"
             stroke="none"
             d="M11.21,49.667c-0.019,0-0.031,0.646-0.031,1.443c0,0.797,0.014,1.441,0.031,1.441       c0.017,0,0.031-0.645,0.031-1.441C11.241,50.314,11.227,49.667,11.21,49.667z"
             id="path360" />
        </g>
        <g
           id="g361">
          <path
             fill="#F5DCDD"
             stroke="none"
             d="M11.21,49.679c-0.032,0-0.059,0.642-0.059,1.432s0.025,1.429,0.059,1.429       c0.031,0,0.058-0.639,0.058-1.429S11.241,49.679,11.21,49.679z"
             id="path362" />
        </g>
        <g
           id="g363">
          <path
             fill="#F5DDDE"
             stroke="none"
             d="M11.21,49.692c-0.048,0-0.084,0.635-0.084,1.418c0,0.783,0.036,1.417,0.084,1.417       c0.046,0,0.083-0.634,0.083-1.417C11.293,50.327,11.256,49.692,11.21,49.692z"
             id="path364" />
        </g>
        <g
           id="g365">
          <path
             fill="#F5DEDF"
             stroke="none"
             d="M11.21,49.705c-0.063,0-0.111,0.629-0.111,1.405s0.05,1.405,0.111,1.405       c0.061,0,0.109-0.629,0.109-1.405S11.271,49.705,11.21,49.705z"
             id="path366" />
        </g>
        <g
           id="g367">
          <path
             fill="#F5DFE0"
             stroke="none"
             d="M11.21,49.717c-0.076,0-0.139,0.624-0.139,1.394s0.063,1.393,0.139,1.393       s0.137-0.623,0.137-1.393S11.286,49.717,11.21,49.717z"
             id="path368" />
        </g>
        <g
           id="g369">
          <path
             fill="#F5E0E1"
             stroke="none"
             d="M11.21,49.729c-0.091,0-0.165,0.618-0.165,1.381c0,0.764,0.074,1.381,0.165,1.381       c0.09,0,0.164-0.617,0.164-1.381C11.374,50.348,11.3,49.729,11.21,49.729z"
             id="path370" />
        </g>
        <g
           id="g371">
          <path
             fill="#F5E3E3"
             stroke="none"
             d="M11.21,49.741c-0.106,0-0.19,0.612-0.19,1.369c0,0.756,0.084,1.368,0.19,1.368       c0.104,0,0.189-0.612,0.189-1.368C11.399,50.354,11.314,49.741,11.21,49.741z"
             id="path372" />
        </g>
        <g
           id="g373">
          <path
             fill="#F5E4E4"
             stroke="none"
             d="M11.21,49.753c-0.121,0-0.217,0.608-0.217,1.357s0.096,1.356,0.217,1.356       c0.12,0,0.217-0.607,0.217-1.356S11.33,49.753,11.21,49.753z"
             id="path374" />
        </g>
        <g
           id="g375">
          <path
             fill="#F5E6E5"
             stroke="none"
             d="M11.21,49.767c-0.135,0-0.244,0.599-0.244,1.344c0,0.743,0.109,1.344,0.244,1.344       c0.134,0,0.243-0.601,0.243-1.344C11.453,50.365,11.344,49.767,11.21,49.767z"
             id="path376" />
        </g>
        <g
           id="g377">
          <path
             fill="#F5E7E6"
             stroke="none"
             d="M11.21,49.778c-0.149,0-0.271,0.597-0.271,1.332c0,0.735,0.121,1.332,0.271,1.332       c0.147,0,0.271-0.597,0.271-1.332C11.48,50.375,11.357,49.778,11.21,49.778z"
             id="path378" />
        </g>
        <g
           id="g379">
          <path
             fill="#F5E8E7"
             stroke="none"
             d="M11.21,49.791c-0.165,0-0.298,0.589-0.298,1.319c0,0.729,0.133,1.318,0.298,1.318       c0.163,0,0.297-0.59,0.297-1.318C11.507,50.38,11.373,49.791,11.21,49.791z"
             id="path380" />
        </g>
        <g
           id="g381">
          <path
             fill="#F5E9E8"
             stroke="none"
             d="M11.21,49.804c-0.18,0-0.323,0.584-0.323,1.307c0,0.722,0.146,1.307,0.323,1.307       s0.323-0.585,0.323-1.307C11.533,50.388,11.389,49.804,11.21,49.804z"
             id="path382" />
        </g>
        <g
           id="g383">
          <path
             fill="#F5EBEA"
             stroke="none"
             d="M11.21,49.815c-0.193,0-0.352,0.58-0.352,1.295c0,0.715,0.157,1.295,0.352,1.295       c0.191,0,0.35-0.58,0.35-1.295C11.56,50.395,11.401,49.815,11.21,49.815z"
             id="path384" />
        </g>
        <g
           id="g385">
          <path
             fill="#F6ECEB"
             stroke="none"
             d="M11.21,49.827c-0.208,0-0.377,0.575-0.377,1.283s0.169,1.283,0.377,1.283       c0.207,0,0.376-0.575,0.376-1.283S11.417,49.827,11.21,49.827z"
             id="path386" />
        </g>
        <g
           id="g387">
          <path
             fill="#F6EDEC"
             stroke="none"
             d="M11.21,49.84c-0.225,0-0.404,0.568-0.404,1.271c0,0.703,0.181,1.271,0.404,1.271       c0.222,0,0.402-0.568,0.402-1.271C11.612,50.408,11.432,49.84,11.21,49.84z"
             id="path388" />
        </g>
        <g
           id="g389">
          <path
             fill="#F6EEED"
             stroke="none"
             d="M11.21,49.852c-0.238,0-0.431,0.563-0.431,1.259c0,0.696,0.191,1.258,0.431,1.258       c0.235,0,0.43-0.562,0.43-1.258C11.64,50.415,11.445,49.852,11.21,49.852z"
             id="path390" />
        </g>
        <g
           id="g391">
          <path
             fill="#F7EFEE"
             stroke="none"
             d="M11.21,49.865c-0.253,0-0.457,0.557-0.457,1.245s0.204,1.245,0.457,1.245       c0.251,0,0.457-0.558,0.457-1.245C11.667,50.422,11.461,49.865,11.21,49.865z"
             id="path392" />
        </g>
        <g
           id="g393">
          <path
             fill="#F8F2F0"
             stroke="none"
             d="M11.21,49.876c-0.268,0-0.483,0.553-0.483,1.234c0,0.681,0.217,1.234,0.483,1.234       c0.266,0,0.482-0.553,0.482-1.234C11.692,50.429,11.477,49.876,11.21,49.876z"
             id="path394" />
        </g>
        <g
           id="g395">
          <path
             fill="#F8F3F1"
             stroke="none"
             d="M11.21,49.889c-0.282,0-0.51,0.546-0.51,1.222c0,0.675,0.228,1.22,0.51,1.22       c0.28,0,0.51-0.545,0.51-1.22C11.72,50.435,11.49,49.889,11.21,49.889z"
             id="path396" />
        </g>
        <g
           id="g397">
          <path
             fill="#F8F4F2"
             stroke="none"
             d="M11.21,49.901c-0.297,0-0.537,0.54-0.537,1.209c0,0.667,0.24,1.207,0.537,1.207       c0.295,0,0.536-0.54,0.536-1.207C11.746,50.441,11.505,49.901,11.21,49.901z"
             id="path398" />
        </g>
        <g
           id="g399">
          <path
             fill="#F9F5F3"
             stroke="none"
             d="M11.21,49.913c-0.313,0-0.563,0.536-0.563,1.197c0,0.659,0.252,1.196,0.563,1.196       c0.311,0,0.562-0.537,0.562-1.196C11.771,50.449,11.521,49.913,11.21,49.913z"
             id="path400" />
        </g>
        <g
           id="g401">
          <path
             fill="#F9F6F4"
             stroke="none"
             d="M11.21,49.926c-0.326,0-0.59,0.529-0.59,1.185c0,0.654,0.264,1.183,0.59,1.183       c0.325,0,0.59-0.528,0.59-1.183C11.8,50.455,11.535,49.926,11.21,49.926z"
             id="path402" />
        </g>
        <g
           id="g403">
          <path
             fill="#FAF7F6"
             stroke="none"
             d="M11.21,49.938c-0.342,0-0.617,0.525-0.617,1.173s0.275,1.171,0.617,1.171       c0.34,0,0.616-0.523,0.616-1.171S11.55,49.938,11.21,49.938z"
             id="path404" />
        </g>
        <g
           id="g405">
          <path
             fill="#FAF8F6"
             stroke="none"
             d="M11.21,49.95c-0.355,0-0.645,0.52-0.645,1.16s0.288,1.158,0.645,1.158       c0.354,0,0.643-0.518,0.643-1.158S11.563,49.95,11.21,49.95z"
             id="path406" />
        </g>
        <g
           id="g407">
          <path
             fill="#FBFAF8"
             stroke="none"
             d="M11.21,49.962c-0.37,0-0.671,0.515-0.671,1.148c0,0.633,0.301,1.146,0.671,1.146       c0.369,0,0.67-0.513,0.67-1.146C11.88,50.477,11.579,49.962,11.21,49.962z"
             id="path408" />
        </g>
        <g
           id="g409">
          <path
             fill="#FBFBF9"
             stroke="none"
             d="M11.21,49.975c-0.385,0-0.697,0.509-0.697,1.136c0,0.627,0.313,1.134,0.697,1.134       c0.384,0,0.695-0.507,0.695-1.134S11.594,49.975,11.21,49.975z"
             id="path410" />
        </g>
        <g
           id="g411">
          <path
             fill="#FCFBFA"
             stroke="none"
             d="M11.21,49.987c-0.4,0-0.725,0.503-0.725,1.123c0,0.62,0.323,1.122,0.725,1.122       c0.397,0,0.724-0.502,0.724-1.122C11.934,50.49,11.607,49.987,11.21,49.987z"
             id="path412" />
        </g>
        <g
           id="g413">
          <path
             fill="#FCFCFB"
             stroke="none"
             d="M11.21,49.999c-0.415,0-0.749,0.497-0.749,1.111c0,0.613,0.334,1.109,0.749,1.109       c0.413,0,0.749-0.496,0.749-1.109C11.959,50.496,11.623,49.999,11.21,49.999z"
             id="path414" />
        </g>
        <g
           id="g415">
          <path
             fill="#FEFEFD"
             stroke="none"
             d="M11.21,50.011c-0.431,0-0.776,0.492-0.776,1.1c0,0.606,0.347,1.097,0.776,1.097       c0.428,0,0.774-0.49,0.774-1.097C11.984,50.503,11.638,50.011,11.21,50.011z"
             id="path416" />
        </g>
        <g
           id="g417">
          <path
             fill="#FEFEFD"
             stroke="none"
             d="M11.21,50.025c-0.443,0-0.805,0.484-0.805,1.085s0.36,1.085,0.805,1.085       c0.441,0,0.803-0.484,0.803-1.085S11.651,50.025,11.21,50.025z"
             id="path418" />
        </g>
        <g
           id="g419">
          <path
             fill="#FFFFFF"
             stroke="none"
             d="M10.38,51.11c0-0.594,0.371-1.073,0.83-1.073c0.457,0,0.829,0.479,0.829,1.073       c0,0.593-0.372,1.072-0.829,1.072C10.751,52.183,10.38,51.703,10.38,51.11z"
             id="path420" />
        </g>
      </g>
      <g
         id="g421">
        <path
           fill="#D90F0F"
           stroke="none"
           d="M21.125,64.778c0-6.25,6.353-11.316,14.189-11.316s14.19,5.066,14.19,11.316      s-6.354,11.316-14.19,11.316S21.125,71.027,21.125,64.778z"
           id="path422" />
        <path
           fill="#DA1414"
           stroke="none"
           d="M35.129,53.605c7.628,0,13.813,4.932,13.813,11.017c0,6.084-6.185,11.014-13.813,11.014      c-7.629,0-13.813-4.93-13.813-11.014C21.314,58.537,27.5,53.605,35.129,53.605z"
           id="path423" />
        <path
           fill="#DB1818"
           stroke="none"
           d="M34.941,53.748c7.421,0,13.438,4.798,13.438,10.715c0,5.918-6.017,10.715-13.438,10.715      c-7.42,0-13.437-4.797-13.437-10.715C21.506,58.545,27.521,53.748,34.941,53.748z"
           id="path424" />
        <path
           fill="#DC1D1D"
           stroke="none"
           d="M34.756,53.891c7.213,0,13.06,4.663,13.06,10.415c0,5.751-5.847,10.413-13.06,10.413      c-7.212,0-13.061-4.662-13.061-10.413C21.696,58.554,27.544,53.891,34.756,53.891z"
           id="path425" />
        <path
           fill="#DD2121"
           stroke="none"
           d="M34.569,54.034c7.006,0,12.685,4.528,12.685,10.114s-5.679,10.114-12.685,10.114      c-7.005,0-12.683-4.527-12.683-10.113S27.564,54.034,34.569,54.034z"
           id="path426" />
        <path
           fill="#DE2626"
           stroke="none"
           d="M34.385,54.177c6.796,0,12.306,4.394,12.306,9.814c0,5.422-5.51,9.813-12.306,9.813      c-6.797,0-12.307-4.394-12.307-9.813C22.079,58.571,27.588,54.177,34.385,54.177z"
           id="path427" />
        <path
           fill="#DF2A2A"
           stroke="none"
           d="M34.199,54.32c6.588,0,11.93,4.26,11.93,9.515c0,5.254-5.341,9.513-11.93,9.513      c-6.59,0-11.931-4.259-11.931-9.513C22.269,58.58,27.609,54.32,34.199,54.32z"
           id="path428" />
        <path
           fill="#E02F2F"
           stroke="none"
           d="M34.013,54.463c6.381,0,11.553,4.125,11.553,9.213c0,5.088-5.172,9.213-11.553,9.213      S22.46,68.764,22.46,63.676C22.46,58.588,27.632,54.463,34.013,54.463z"
           id="path429" />
        <path
           fill="#E03334"
           stroke="none"
           d="M33.827,54.606c6.173,0,11.176,3.99,11.176,8.913S40,72.432,33.827,72.432      s-11.177-3.99-11.177-8.913S27.653,54.606,33.827,54.606z"
           id="path430" />
        <path
           fill="#E13838"
           stroke="none"
           d="M33.641,54.75c5.964,0,10.8,3.856,10.8,8.613s-4.835,8.612-10.8,8.612      s-10.8-3.855-10.8-8.612S27.677,54.75,33.641,54.75z"
           id="path431" />
        <path
           fill="#E23C3D"
           stroke="none"
           d="M33.455,54.892c5.757,0,10.423,3.722,10.423,8.312c0,4.592-4.667,8.313-10.423,8.313      s-10.423-3.721-10.423-8.313C23.032,58.614,27.699,54.892,33.455,54.892z"
           id="path432" />
        <path
           fill="#E34141"
           stroke="none"
           d="M33.269,55.035c5.548,0,10.046,3.587,10.046,8.012c0,4.424-4.498,8.012-10.046,8.012      s-10.046-3.588-10.046-8.012C23.222,58.622,27.72,55.035,33.269,55.035z"
           id="path433" />
        <path
           fill="#E44646"
           stroke="none"
           d="M33.083,55.178c5.341,0,9.67,3.453,9.67,7.711c0,4.258-4.329,7.711-9.67,7.711      c-5.34,0-9.669-3.452-9.669-7.711C23.414,58.63,27.742,55.178,33.083,55.178z"
           id="path434" />
        <path
           fill="#E54A4B"
           stroke="none"
           d="M32.896,55.321c5.132,0,9.293,3.318,9.293,7.411s-4.161,7.41-9.293,7.41      c-5.133,0-9.293-3.317-9.293-7.41S27.765,55.321,32.896,55.321z"
           id="path435" />
        <path
           fill="#E64F4F"
           stroke="none"
           d="M32.711,55.464c4.924,0,8.916,3.184,8.916,7.111s-3.992,7.11-8.916,7.11      c-4.925,0-8.917-3.185-8.917-7.11C23.795,58.648,27.787,55.464,32.711,55.464z"
           id="path436" />
        <path
           fill="#E75354"
           stroke="none"
           d="M32.524,55.607c4.717,0,8.54,3.049,8.54,6.81c0,3.761-3.822,6.81-8.54,6.81      c-4.717,0-8.54-3.049-8.54-6.81C23.984,58.656,27.809,55.607,32.524,55.607z"
           id="path437" />
        <path
           fill="#E85858"
           stroke="none"
           d="M32.339,55.75c4.508,0,8.163,2.915,8.163,6.51c0,3.595-3.655,6.509-8.163,6.509      s-8.163-2.914-8.163-6.509C24.176,58.665,27.831,55.75,32.339,55.75z"
           id="path438" />
        <path
           fill="#E95C5D"
           stroke="none"
           d="M32.152,55.894c4.301,0,7.786,2.78,7.786,6.209c0,3.429-3.485,6.208-7.786,6.208      c-4.3,0-7.785-2.779-7.785-6.208C24.367,58.673,27.853,55.894,32.152,55.894z"
           id="path439" />
        <path
           fill="#EA6161"
           stroke="none"
           d="M31.967,56.037c4.092,0,7.41,2.646,7.41,5.909c0,3.264-3.317,5.908-7.41,5.908      s-7.41-2.645-7.41-5.908C24.558,58.682,27.875,56.037,31.967,56.037z"
           id="path440" />
        <path
           fill="#EB6566"
           stroke="none"
           d="M31.78,56.18c3.885,0,7.033,2.511,7.033,5.608s-3.148,5.608-7.033,5.608      c-3.884,0-7.032-2.511-7.032-5.608C24.749,58.69,27.896,56.18,31.78,56.18z"
           id="path441" />
        <path
           fill="#EC6A6B"
           stroke="none"
           d="M31.595,56.323c3.676,0,6.656,2.376,6.656,5.308c0,2.932-2.98,5.308-6.656,5.308      s-6.656-2.376-6.656-5.308C24.938,58.699,27.919,56.323,31.595,56.323z"
           id="path442" />
        <path
           fill="#ED6F6F"
           stroke="none"
           d="M31.409,56.466c3.468,0,6.279,2.242,6.279,5.008c0,2.765-2.812,5.007-6.279,5.007      c-3.469,0-6.279-2.242-6.279-5.007C25.13,58.708,27.94,56.466,31.409,56.466z"
           id="path443" />
        <path
           fill="#EE7374"
           stroke="none"
           d="M31.224,56.608c3.26,0,5.903,2.108,5.903,4.708c0,2.601-2.644,4.708-5.903,4.708      s-5.903-2.107-5.903-4.708C25.32,58.716,27.963,56.608,31.224,56.608z"
           id="path444" />
        <path
           fill="#EF7878"
           stroke="none"
           d="M31.038,56.752c3.052,0,5.525,1.973,5.525,4.407c0,2.433-2.474,4.407-5.525,4.407      c-3.053,0-5.526-1.974-5.526-4.407C25.511,58.725,27.984,56.752,31.038,56.752z"
           id="path445" />
        <path
           fill="#EF7C7D"
           stroke="none"
           d="M30.852,56.895c2.844,0,5.149,1.838,5.149,4.106s-2.307,4.106-5.149,4.106      c-2.844,0-5.148-1.838-5.148-4.106C25.702,58.733,28.007,56.895,30.852,56.895z"
           id="path446" />
        <path
           fill="#F08182"
           stroke="none"
           d="M30.666,57.038c2.636,0,4.772,1.704,4.772,3.806c0,2.102-2.137,3.806-4.772,3.806      c-2.637,0-4.773-1.704-4.773-3.806C25.893,58.742,28.029,57.038,30.666,57.038z"
           id="path447" />
        <path
           fill="#F18586"
           stroke="none"
           d="M30.479,57.181c2.429,0,4.396,1.57,4.396,3.506s-1.968,3.505-4.396,3.505      c-2.428,0-4.396-1.569-4.396-3.505S28.052,57.181,30.479,57.181z"
           id="path448" />
        <path
           fill="#F28A8B"
           stroke="none"
           d="M30.293,57.324c2.22,0,4.02,1.435,4.02,3.206c0,1.77-1.799,3.205-4.02,3.205      c-2.22,0-4.02-1.435-4.02-3.205C26.273,58.759,28.074,57.324,30.293,57.324z"
           id="path449" />
        <path
           fill="#F38E8F"
           stroke="none"
           d="M30.107,57.467c2.013,0,3.644,1.301,3.644,2.905s-1.631,2.904-3.644,2.904      c-2.012,0-3.643-1.3-3.643-2.904S28.096,57.467,30.107,57.467z"
           id="path450" />
        <path
           fill="#F49394"
           stroke="none"
           d="M29.922,57.61c1.804,0,3.266,1.166,3.266,2.604s-1.462,2.604-3.266,2.604      s-3.267-1.166-3.267-2.604S28.118,57.61,29.922,57.61z"
           id="path451" />
        <path
           fill="#F59798"
           stroke="none"
           d="M29.735,57.753c1.597,0,2.89,1.031,2.89,2.304c0,1.272-1.293,2.304-2.89,2.304      c-1.596,0-2.89-1.031-2.89-2.304S28.14,57.753,29.735,57.753z"
           id="path452" />
        <path
           fill="#F69C9D"
           stroke="none"
           d="M27.037,59.9c0-1.107,1.125-2.004,2.513-2.004s2.513,0.897,2.513,2.004      c0,1.106-1.125,2.003-2.513,2.003S27.037,61.006,27.037,59.9z"
           id="path453" />
      </g>
      <g
         id="g454">
        <g
           id="g455">
          <path
             fill="#F58B8C"
             stroke="none"
             d="M29.037,61.529c0-1.253,0.784-2.27,1.752-2.27c0.967,0,1.753,1.017,1.753,2.27       c0,1.251-0.786,2.269-1.753,2.269C29.821,63.797,29.037,62.78,29.037,61.529z"
             id="path456" />
        </g>
        <g
           id="g457">
          <path
             fill="#F58C8D"
             stroke="none"
             d="M30.789,59.273c0.952,0,1.726,1.01,1.726,2.256c0,1.244-0.772,2.255-1.726,2.255       s-1.727-1.011-1.727-2.255C29.063,60.283,29.835,59.273,30.789,59.273z"
             id="path458" />
        </g>
        <g
           id="g459">
          <path
             fill="#F68D8E"
             stroke="none"
             d="M30.789,59.286c0.938,0,1.698,1.004,1.698,2.243c0,1.237-0.762,2.241-1.698,2.241       c-0.938,0-1.698-1.004-1.698-2.241C29.09,60.29,29.85,59.286,30.789,59.286z"
             id="path460" />
        </g>
        <g
           id="g461">
          <path
             fill="#F68F90"
             stroke="none"
             d="M30.789,59.297c0.923,0,1.673,0.999,1.673,2.231c0,1.23-0.75,2.229-1.673,2.229       s-1.672-0.999-1.672-2.229C29.117,60.296,29.866,59.297,30.789,59.297z"
             id="path462" />
        </g>
        <g
           id="g463">
          <path
             fill="#F69091"
             stroke="none"
             d="M30.789,59.31c0.907,0,1.646,0.992,1.646,2.219c0,1.224-0.736,2.218-1.646,2.218       s-1.646-0.994-1.646-2.218C29.143,60.302,29.88,59.31,30.789,59.31z"
             id="path464" />
        </g>
        <g
           id="g465">
          <path
             fill="#F79191"
             stroke="none"
             d="M30.789,59.323c0.893,0,1.619,0.985,1.619,2.206c0,1.217-0.728,2.204-1.619,2.204       c-0.895,0-1.619-0.987-1.619-2.204C29.169,60.308,29.895,59.323,30.789,59.323z"
             id="path466" />
        </g>
        <g
           id="g467">
          <path
             fill="#F79293"
             stroke="none"
             d="M30.789,59.334c0.878,0,1.593,0.981,1.593,2.194c0,1.211-0.715,2.192-1.593,2.192       c-0.88,0-1.593-0.981-1.593-2.192C29.196,60.316,29.909,59.334,30.789,59.334z"
             id="path468" />
        </g>
        <g
           id="g469">
          <path
             fill="#F79394"
             stroke="none"
             d="M30.789,59.346c0.863,0,1.565,0.977,1.565,2.183c0,1.203-0.702,2.181-1.565,2.181       c-0.864,0-1.566-0.978-1.566-2.181C29.222,60.323,29.924,59.346,30.789,59.346z"
             id="path470" />
        </g>
        <g
           id="g471">
          <path
             fill="#F79495"
             stroke="none"
             d="M30.789,59.359c0.849,0,1.539,0.972,1.539,2.17c0,1.196-0.69,2.169-1.539,2.169       c-0.851,0-1.539-0.973-1.539-2.169C29.25,60.331,29.938,59.359,30.789,59.359z"
             id="path472" />
        </g>
        <g
           id="g473">
          <path
             fill="#F79696"
             stroke="none"
             d="M30.789,59.371c0.834,0,1.513,0.966,1.513,2.158c0,1.19-0.679,2.155-1.513,2.155       c-0.835,0-1.514-0.965-1.514-2.155C29.275,60.336,29.954,59.371,30.789,59.371z"
             id="path474" />
        </g>
        <g
           id="g475">
          <path
             fill="#F79798"
             stroke="none"
             d="M30.789,59.384c0.818,0,1.485,0.959,1.485,2.145c0,1.183-0.667,2.144-1.485,2.144       c-0.82,0-1.485-0.96-1.485-2.144C29.303,60.343,29.968,59.384,30.789,59.384z"
             id="path476" />
        </g>
        <g
           id="g477">
          <path
             fill="#F79899"
             stroke="none"
             d="M30.789,59.395c0.805,0,1.46,0.956,1.46,2.134c0,1.176-0.655,2.132-1.46,2.132       c-0.807,0-1.459-0.956-1.459-2.132C29.33,60.351,29.982,59.395,30.789,59.395z"
             id="path478" />
        </g>
        <g
           id="g479">
          <path
             fill="#F7999A"
             stroke="none"
             d="M30.789,59.408c0.79,0,1.433,0.949,1.433,2.121c0,1.17-0.643,2.118-1.433,2.118       c-0.791,0-1.434-0.948-1.434-2.118C29.355,60.357,29.998,59.408,30.789,59.408z"
             id="path480" />
        </g>
        <g
           id="g481">
          <path
             fill="#F79A9B"
             stroke="none"
             d="M30.789,59.419c0.774,0,1.405,0.944,1.405,2.109c0,1.163-0.631,2.107-1.405,2.107       c-0.776,0-1.406-0.944-1.406-2.107C29.382,60.364,30.012,59.419,30.789,59.419z"
             id="path482" />
        </g>
        <g
           id="g483">
          <path
             fill="#F69C9D"
             stroke="none"
             d="M30.789,59.433c0.761,0,1.38,0.938,1.38,2.096c0,1.155-0.619,2.095-1.38,2.095       c-0.763,0-1.38-0.938-1.38-2.095C29.409,60.372,30.026,59.433,30.789,59.433z"
             id="path484" />
        </g>
        <g
           id="g485">
          <path
             fill="#F69D9E"
             stroke="none"
             d="M30.789,59.444c0.746,0,1.353,0.934,1.353,2.085c0,1.149-0.605,2.081-1.353,2.081       s-1.354-0.932-1.354-2.081C29.436,60.377,30.042,59.444,30.789,59.444z"
             id="path486" />
        </g>
        <g
           id="g487">
          <path
             fill="#F69E9F"
             stroke="none"
             d="M30.789,59.457c0.73,0,1.326,0.927,1.326,2.072c0,1.143-0.596,2.068-1.326,2.068       c-0.732,0-1.327-0.926-1.327-2.068C29.461,60.383,30.056,59.457,30.789,59.457z"
             id="path488" />
        </g>
        <g
           id="g489">
          <path
             fill="#F69FA0"
             stroke="none"
             d="M30.789,59.468c0.717,0,1.3,0.922,1.3,2.061c0,1.135-0.583,2.058-1.3,2.058       c-0.719,0-1.301-0.922-1.301-2.058C29.488,60.39,30.07,59.468,30.789,59.468z"
             id="path490" />
        </g>
        <g
           id="g491">
          <path
             fill="#F6A1A1"
             stroke="none"
             d="M30.789,59.481c0.702,0,1.271,0.917,1.271,2.048c0,1.129-0.569,2.044-1.271,2.044       c-0.703,0-1.273-0.915-1.273-2.044C29.515,60.398,30.085,59.481,30.789,59.481z"
             id="path492" />
        </g>
        <g
           id="g493">
          <path
             fill="#F6A3A3"
             stroke="none"
             d="M30.789,59.494c0.688,0,1.246,0.909,1.246,2.035c0,1.122-0.56,2.032-1.246,2.032       c-0.688,0-1.246-0.91-1.246-2.032C29.542,60.403,30.1,59.494,30.789,59.494z"
             id="path494" />
        </g>
        <g
           id="g495">
          <path
             fill="#F6A4A5"
             stroke="none"
             d="M30.789,59.506c0.673,0,1.22,0.906,1.22,2.021c0,1.116-0.547,2.021-1.22,2.021       s-1.222-0.903-1.222-2.021C29.567,60.413,30.116,59.506,30.789,59.506z"
             id="path496" />
        </g>
        <g
           id="g497">
          <path
             fill="#F6A5A6"
             stroke="none"
             d="M30.789,59.517c0.656,0,1.192,0.901,1.192,2.011c0,1.11-0.536,2.01-1.192,2.01       c-0.659,0-1.192-0.899-1.192-2.01C29.597,60.418,30.129,59.517,30.789,59.517z"
             id="path498" />
        </g>
        <g
           id="g499">
          <path
             fill="#F6A6A6"
             stroke="none"
             d="M30.789,59.53c0.644,0,1.167,0.896,1.167,1.998s-0.523,1.996-1.167,1.996       c-0.646,0-1.167-0.894-1.167-1.996S30.144,59.53,30.789,59.53z"
             id="path500" />
        </g>
        <g
           id="g501">
          <path
             fill="#F5A7A7"
             stroke="none"
             d="M30.789,59.544c0.629,0,1.14,0.888,1.14,1.983c0,1.095-0.511,1.983-1.14,1.983       c-0.63,0-1.142-0.888-1.142-1.983C29.647,60.432,30.159,59.544,30.789,59.544z"
             id="path502" />
        </g>
        <g
           id="g503">
          <path
             fill="#F4A7A8"
             stroke="none"
             d="M30.789,59.556c0.613,0,1.113,0.883,1.113,1.972c0,1.089-0.5,1.973-1.113,1.973       c-0.614,0-1.113-0.883-1.113-1.973C29.676,60.439,30.174,59.556,30.789,59.556z"
             id="path504" />
        </g>
        <g
           id="g505">
          <path
             fill="#F4A9A9"
             stroke="none"
             d="M30.789,59.568c0.599,0,1.086,0.878,1.086,1.96s-0.487,1.959-1.086,1.959       c-0.601,0-1.087-0.877-1.087-1.959S30.188,59.568,30.789,59.568z"
             id="path506" />
        </g>
        <g
           id="g507">
          <path
             fill="#F4AAAB"
             stroke="none"
             d="M30.789,59.579c0.585,0,1.061,0.874,1.061,1.949c0,1.075-0.476,1.947-1.061,1.947       c-0.586,0-1.062-0.872-1.062-1.947C29.728,60.453,30.203,59.579,30.789,59.579z"
             id="path508" />
        </g>
        <g
           id="g509">
          <path
             fill="#F4ABAC"
             stroke="none"
             d="M30.789,59.593c0.569,0,1.032,0.866,1.032,1.935c0,1.069-0.463,1.934-1.032,1.934       c-0.571,0-1.033-0.863-1.033-1.934C29.755,60.459,30.217,59.593,30.789,59.593z"
             id="path510" />
        </g>
        <g
           id="g511">
          <path
             fill="#F3ABAC"
             stroke="none"
             d="M30.789,59.605c0.555,0,1.007,0.86,1.007,1.923c0,1.062-0.452,1.922-1.007,1.922       c-0.557,0-1.007-0.86-1.007-1.922C29.782,60.465,30.232,59.605,30.789,59.605z"
             id="path512" />
        </g>
        <g
           id="g513">
          <path
             fill="#F3ACAD"
             stroke="none"
             d="M30.789,59.618c0.54,0,0.979,0.855,0.979,1.91c0,1.055-0.439,1.91-0.979,1.91       c-0.542,0-0.98-0.855-0.98-1.91C29.809,60.473,30.247,59.618,30.789,59.618z"
             id="path514" />
        </g>
        <g
           id="g515">
          <path
             fill="#F4AFAF"
             stroke="none"
             d="M30.789,59.629c0.524,0,0.954,0.848,0.954,1.898c0,1.049-0.43,1.897-0.954,1.897       c-0.527,0-0.954-0.849-0.954-1.897C29.834,60.477,30.261,59.629,30.789,59.629z"
             id="path516" />
        </g>
        <g
           id="g517">
          <path
             fill="#F4B0B1"
             stroke="none"
             d="M30.789,59.642c0.511,0,0.927,0.845,0.927,1.886s-0.416,1.887-0.927,1.887       c-0.513,0-0.929-0.846-0.929-1.887S30.276,59.642,30.789,59.642z"
             id="path518" />
        </g>
        <g
           id="g519">
          <path
             fill="#F4B1B2"
             stroke="none"
             d="M30.789,59.655c0.496,0,0.899,0.839,0.899,1.873c0,1.034-0.403,1.873-0.899,1.873       c-0.497,0-0.9-0.839-0.9-1.873C29.889,60.494,30.292,59.655,30.789,59.655z"
             id="path520" />
        </g>
        <g
           id="g521">
          <path
             fill="#F4B2B2"
             stroke="none"
             d="M30.789,59.667c0.48,0,0.874,0.833,0.874,1.861c0,1.028-0.394,1.859-0.874,1.859       c-0.482,0-0.874-0.831-0.874-1.859C29.915,60.5,30.306,59.667,30.789,59.667z"
             id="path522" />
        </g>
        <g
           id="g523">
          <path
             fill="#F4B3B4"
             stroke="none"
             d="M30.789,59.678c0.467,0,0.847,0.829,0.847,1.85s-0.38,1.85-0.847,1.85       c-0.47,0-0.849-0.829-0.849-1.85S30.319,59.678,30.789,59.678z"
             id="path524" />
        </g>
        <g
           id="g525">
          <path
             fill="#F4B4B5"
             stroke="none"
             d="M30.789,59.691c0.453,0,0.819,0.823,0.819,1.837c0,1.014-0.366,1.838-0.819,1.838       s-0.821-0.824-0.821-1.838C29.968,60.514,30.335,59.691,30.789,59.691z"
             id="path526" />
        </g>
        <g
           id="g527">
          <path
             fill="#F5B6B7"
             stroke="none"
             d="M30.789,59.703c0.438,0,0.794,0.817,0.794,1.825c0,1.008-0.356,1.825-0.794,1.825       c-0.438,0-0.794-0.817-0.794-1.825C29.995,60.52,30.35,59.703,30.789,59.703z"
             id="path528" />
        </g>
        <g
           id="g529">
          <path
             fill="#F5B7B8"
             stroke="none"
             d="M30.789,59.716c0.423,0,0.768,0.811,0.768,1.812s-0.345,1.813-0.768,1.813       c-0.426,0-0.769-0.812-0.769-1.813S30.363,59.716,30.789,59.716z"
             id="path530" />
        </g>
        <g
           id="g531">
          <path
             fill="#F5B8B9"
             stroke="none"
             d="M30.789,59.727c0.407,0,0.74,0.807,0.74,1.801c0,0.993-0.333,1.799-0.74,1.799       c-0.41,0-0.741-0.806-0.741-1.799C30.047,60.534,30.378,59.727,30.789,59.727z"
             id="path532" />
        </g>
        <g
           id="g533">
          <path
             fill="#F6B9BA"
             stroke="none"
             d="M30.789,59.741c0.394,0,0.714,0.8,0.714,1.787c0,0.987-0.32,1.787-0.714,1.787       c-0.396,0-0.714-0.8-0.714-1.787C30.075,60.541,30.394,59.741,30.789,59.741z"
             id="path534" />
        </g>
        <g
           id="g535">
          <path
             fill="#F6BABB"
             stroke="none"
             d="M30.789,59.751c0.379,0,0.688,0.795,0.688,1.776c0,0.98-0.309,1.776-0.688,1.776       c-0.38,0-0.688-0.796-0.688-1.776C30.101,60.546,30.409,59.751,30.789,59.751z"
             id="path536" />
        </g>
        <g
           id="g537">
          <path
             fill="#F7BCBD"
             stroke="none"
             d="M30.789,59.764c0.362,0,0.661,0.791,0.661,1.764c0,0.973-0.299,1.762-0.661,1.762       c-0.365,0-0.661-0.789-0.661-1.762C30.128,60.555,30.423,59.764,30.789,59.764z"
             id="path538" />
        </g>
        <g
           id="g539">
          <path
             fill="#F7BDBE"
             stroke="none"
             d="M30.789,59.776c0.35,0,0.634,0.783,0.634,1.752c0,0.967-0.284,1.75-0.634,1.75       c-0.352,0-0.636-0.783-0.636-1.75C30.153,60.559,30.438,59.776,30.789,59.776z"
             id="path540" />
        </g>
        <g
           id="g541">
          <path
             fill="#F7BEBF"
             stroke="none"
             d="M30.789,59.791c0.335,0,0.607,0.777,0.607,1.737s-0.272,1.737-0.607,1.737       c-0.336,0-0.607-0.777-0.607-1.737S30.453,59.791,30.789,59.791z"
             id="path542" />
        </g>
        <g
           id="g543">
          <path
             fill="#F8C0C0"
             stroke="none"
             d="M30.789,59.802c0.319,0,0.58,0.772,0.58,1.726c0,0.954-0.261,1.727-0.58,1.727       c-0.321,0-0.581-0.772-0.581-1.727C30.208,60.574,30.467,59.802,30.789,59.802z"
             id="path544" />
        </g>
        <g
           id="g545">
          <path
             fill="#F8C1C1"
             stroke="none"
             d="M30.789,59.813c0.305,0,0.555,0.769,0.555,1.715c0,0.946-0.25,1.713-0.555,1.713       c-0.308,0-0.556-0.767-0.556-1.713C30.233,60.582,30.481,59.813,30.789,59.813z"
             id="path546" />
        </g>
        <g
           id="g547">
          <path
             fill="#F9C3C3"
             stroke="none"
             d="M30.789,59.827c0.29,0,0.526,0.762,0.526,1.701s-0.236,1.7-0.526,1.7       c-0.292,0-0.528-0.761-0.528-1.7S30.497,59.827,30.789,59.827z"
             id="path548" />
        </g>
        <g
           id="g549">
          <path
             fill="#F9C4C4"
             stroke="none"
             d="M30.789,59.838c0.275,0,0.501,0.757,0.501,1.689s-0.226,1.688-0.501,1.688       c-0.277,0-0.502-0.756-0.502-1.688S30.511,59.838,30.789,59.838z"
             id="path550" />
        </g>
        <g
           id="g551">
          <path
             fill="#F9C5C5"
             stroke="none"
             d="M30.789,59.852c0.262,0,0.475,0.75,0.475,1.676c0,0.926-0.213,1.676-0.475,1.676       c-0.263,0-0.476-0.75-0.476-1.676C30.313,60.602,30.526,59.852,30.789,59.852z"
             id="path552" />
        </g>
        <g
           id="g553">
          <path
             fill="#F9C6C6"
             stroke="none"
             d="M30.789,59.863c0.246,0,0.446,0.745,0.446,1.665c0,0.919-0.2,1.664-0.446,1.664       c-0.248,0-0.448-0.745-0.448-1.664C30.34,60.608,30.541,59.863,30.789,59.863z"
             id="path554" />
        </g>
        <g
           id="g555">
          <path
             fill="#F9C7C7"
             stroke="none"
             d="M30.789,59.876c0.23,0,0.421,0.738,0.421,1.651c0,0.912-0.189,1.651-0.421,1.651       c-0.232,0-0.422-0.739-0.422-1.651C30.367,60.615,30.556,59.876,30.789,59.876z"
             id="path556" />
        </g>
        <g
           id="g557">
          <path
             fill="#F9C8C8"
             stroke="none"
             d="M30.789,59.888c0.217,0,0.395,0.733,0.395,1.64c0,0.907-0.178,1.639-0.395,1.639       c-0.22,0-0.396-0.731-0.396-1.639C30.394,60.621,30.569,59.888,30.789,59.888z"
             id="path558" />
        </g>
        <g
           id="g559">
          <path
             fill="#F8C9CA"
             stroke="none"
             d="M30.789,59.901c0.203,0,0.368,0.729,0.368,1.627s-0.165,1.627-0.368,1.627       s-0.368-0.729-0.368-1.627S30.585,59.901,30.789,59.901z"
             id="path560" />
        </g>
        <g
           id="g561">
          <path
             fill="#F8CACB"
             stroke="none"
             d="M30.789,59.913c0.188,0,0.341,0.724,0.341,1.615c0,0.891-0.153,1.615-0.341,1.615       c-0.188,0-0.343-0.724-0.343-1.615C30.446,60.637,30.6,59.913,30.789,59.913z"
             id="path562" />
        </g>
        <g
           id="g563">
          <path
             fill="#F8CCCC"
             stroke="none"
             d="M30.789,59.924c0.173,0,0.314,0.716,0.314,1.604c0,0.885-0.143,1.602-0.314,1.602       c-0.176,0-0.315-0.716-0.315-1.602C30.473,60.64,30.613,59.924,30.789,59.924z"
             id="path564" />
        </g>
        <g
           id="g565">
          <path
             fill="#F8CDCD"
             stroke="none"
             d="M30.789,59.937c0.159,0,0.288,0.713,0.288,1.591c0,0.878-0.129,1.59-0.288,1.59       s-0.289-0.711-0.289-1.59C30.5,60.65,30.629,59.937,30.789,59.937z"
             id="path566" />
        </g>
        <g
           id="g567">
          <path
             fill="#F7CECE"
             stroke="none"
             d="M30.789,59.95c0.145,0,0.262,0.707,0.262,1.578c0,0.871-0.117,1.577-0.262,1.577       c-0.146,0-0.263-0.706-0.263-1.577C30.526,60.657,30.644,59.95,30.789,59.95z"
             id="path568" />
        </g>
        <g
           id="g569">
          <path
             fill="#F7D0D0"
             stroke="none"
             d="M30.789,59.961c0.129,0,0.234,0.701,0.234,1.566c0,0.865-0.105,1.565-0.234,1.565       c-0.131,0-0.235-0.7-0.235-1.565C30.554,60.662,30.658,59.961,30.789,59.961z"
             id="path570" />
        </g>
        <g
           id="g571">
          <path
             fill="#F6D0D1"
             stroke="none"
             d="M30.789,59.974c0.113,0,0.208,0.695,0.208,1.554c0,0.859-0.095,1.553-0.208,1.553       c-0.116,0-0.208-0.693-0.208-1.553C30.581,60.669,30.672,59.974,30.789,59.974z"
             id="path572" />
        </g>
        <g
           id="g573">
          <path
             fill="#F6D2D2"
             stroke="none"
             d="M30.789,59.985c0.101,0,0.183,0.692,0.183,1.543s-0.082,1.54-0.183,1.54       c-0.102,0-0.184-0.689-0.184-1.54S30.688,59.985,30.789,59.985z"
             id="path574" />
        </g>
        <g
           id="g575">
          <path
             fill="#F6D3D4"
             stroke="none"
             d="M30.789,59.999c0.085,0,0.154,0.685,0.154,1.529c0,0.844-0.069,1.527-0.154,1.527       c-0.086,0-0.156-0.683-0.156-1.527C30.633,60.684,30.703,59.999,30.789,59.999z"
             id="path576" />
        </g>
        <g
           id="g577">
          <path
             fill="#F6D4D4"
             stroke="none"
             d="M30.789,60.01c0.069,0,0.128,0.679,0.128,1.518c0,0.838-0.059,1.516-0.128,1.516       c-0.071,0-0.13-0.677-0.13-1.516C30.659,60.689,30.717,60.01,30.789,60.01z"
             id="path578" />
        </g>
        <g
           id="g579">
          <path
             fill="#F5D6D6"
             stroke="none"
             d="M30.789,60.023c0.056,0,0.102,0.674,0.102,1.505c0,0.83-0.046,1.504-0.102,1.504       c-0.058,0-0.104-0.674-0.104-1.504C30.686,60.697,30.731,60.023,30.789,60.023z"
             id="path580" />
        </g>
        <g
           id="g581">
          <path
             fill="#F5D7D7"
             stroke="none"
             d="M30.789,60.035c0.041,0,0.074,0.669,0.074,1.493c0,0.824-0.033,1.492-0.074,1.492       c-0.042,0-0.076-0.668-0.076-1.492C30.713,60.704,30.747,60.035,30.789,60.035z"
             id="path582" />
        </g>
        <g
           id="g583">
          <path
             fill="#F5D8D9"
             stroke="none"
             d="M30.789,60.047c0.025,0,0.048,0.663,0.048,1.48s-0.021,1.479-0.048,1.479       c-0.027,0-0.049-0.661-0.049-1.479C30.74,60.709,30.761,60.047,30.789,60.047z"
             id="path584" />
        </g>
        <g
           id="g585">
          <path
             fill="#F5D9D9"
             stroke="none"
             d="M30.789,60.06c0.012,0,0.021,0.658,0.021,1.468c0,0.811-0.01,1.467-0.021,1.467       c-0.014,0-0.022-0.656-0.022-1.467C30.766,60.718,30.775,60.06,30.789,60.06z"
             id="path586" />
        </g>
        <g
           id="g587">
          <path
             fill="#F5DADA"
             stroke="none"
             d="M30.789,60.073c-0.003,0-0.005,0.651-0.005,1.455c0,0.803,0.002,1.454,0.005,1.454       c0.002,0,0.005-0.651,0.005-1.454C30.793,60.724,30.791,60.073,30.789,60.073z"
             id="path588" />
        </g>
        <g
           id="g589">
          <path
             fill="#F5DBDB"
             stroke="none"
             d="M30.789,60.084c-0.019,0-0.031,0.646-0.031,1.443c0,0.797,0.014,1.44,0.031,1.44       c0.017,0,0.03-0.644,0.03-1.44C30.819,60.731,30.805,60.084,30.789,60.084z"
             id="path590" />
        </g>
        <g
           id="g591">
          <path
             fill="#F5DCDD"
             stroke="none"
             d="M30.789,60.096c-0.032,0-0.059,0.642-0.059,1.432s0.025,1.43,0.059,1.43       c0.03,0,0.058-0.64,0.058-1.43S30.819,60.096,30.789,60.096z"
             id="path592" />
        </g>
        <g
           id="g593">
          <path
             fill="#F5DDDE"
             stroke="none"
             d="M30.789,60.11c-0.048,0-0.084,0.635-0.084,1.418c0,0.783,0.036,1.417,0.084,1.417       c0.046,0,0.083-0.634,0.083-1.417C30.872,60.745,30.834,60.11,30.789,60.11z"
             id="path594" />
        </g>
        <g
           id="g595">
          <path
             fill="#F5DEDF"
             stroke="none"
             d="M30.789,60.123c-0.063,0-0.111,0.629-0.111,1.405c0,0.776,0.05,1.405,0.111,1.405       c0.061,0,0.109-0.629,0.109-1.405C30.898,60.752,30.85,60.123,30.789,60.123z"
             id="path596" />
        </g>
        <g
           id="g597">
          <path
             fill="#F5DFE0"
             stroke="none"
             d="M30.789,60.134c-0.076,0-0.139,0.624-0.139,1.394s0.063,1.393,0.139,1.393       s0.137-0.623,0.137-1.393S30.865,60.134,30.789,60.134z"
             id="path598" />
        </g>
        <g
           id="g599">
          <path
             fill="#F5E0E1"
             stroke="none"
             d="M30.789,60.147c-0.091,0-0.165,0.618-0.165,1.381c0,0.764,0.074,1.381,0.165,1.381       c0.09,0,0.164-0.617,0.164-1.381C30.953,60.765,30.878,60.147,30.789,60.147z"
             id="path600" />
        </g>
        <g
           id="g601">
          <path
             fill="#F5E3E3"
             stroke="none"
             d="M30.789,60.159c-0.106,0-0.19,0.612-0.19,1.369c0,0.756,0.084,1.368,0.19,1.368       c0.104,0,0.189-0.612,0.189-1.368C30.979,60.771,30.894,60.159,30.789,60.159z"
             id="path602" />
        </g>
        <g
           id="g603">
          <path
             fill="#F5E4E4"
             stroke="none"
             d="M30.789,60.17c-0.121,0-0.218,0.608-0.218,1.357s0.097,1.356,0.218,1.356       c0.12,0,0.217-0.607,0.217-1.356S30.909,60.17,30.789,60.17z"
             id="path604" />
        </g>
        <g
           id="g605">
          <path
             fill="#F5E6E5"
             stroke="none"
             d="M30.789,60.184c-0.136,0-0.244,0.599-0.244,1.344c0,0.743,0.108,1.344,0.244,1.344       c0.134,0,0.243-0.601,0.243-1.344C31.032,60.783,30.922,60.184,30.789,60.184z"
             id="path606" />
        </g>
        <g
           id="g607">
          <path
             fill="#F5E7E6"
             stroke="none"
             d="M30.789,60.196c-0.149,0-0.271,0.597-0.271,1.332c0,0.735,0.121,1.332,0.271,1.332       c0.147,0,0.271-0.597,0.271-1.332C31.06,60.793,30.937,60.196,30.789,60.196z"
             id="path608" />
        </g>
        <g
           id="g609">
          <path
             fill="#F5E8E7"
             stroke="none"
             d="M30.789,60.208c-0.165,0-0.298,0.589-0.298,1.319c0,0.729,0.133,1.318,0.298,1.318       c0.163,0,0.297-0.59,0.297-1.318C31.085,60.797,30.952,60.208,30.789,60.208z"
             id="path610" />
        </g>
        <g
           id="g611">
          <path
             fill="#F5E9E8"
             stroke="none"
             d="M30.789,60.221c-0.18,0-0.323,0.584-0.323,1.307c0,0.722,0.145,1.307,0.323,1.307       c0.178,0,0.322-0.585,0.322-1.307C31.111,60.805,30.967,60.221,30.789,60.221z"
             id="path612" />
        </g>
        <g
           id="g613">
          <path
             fill="#F5EBEA"
             stroke="none"
             d="M30.789,60.233c-0.193,0-0.352,0.58-0.352,1.295c0,0.715,0.157,1.295,0.352,1.295       c0.191,0,0.35-0.58,0.35-1.295C31.139,60.813,30.98,60.233,30.789,60.233z"
             id="path614" />
        </g>
        <g
           id="g615">
          <path
             fill="#F6ECEB"
             stroke="none"
             d="M30.789,60.245c-0.208,0-0.377,0.575-0.377,1.283s0.169,1.283,0.377,1.283       c0.207,0,0.376-0.575,0.376-1.283S30.996,60.245,30.789,60.245z"
             id="path616" />
        </g>
        <g
           id="g617">
          <path
             fill="#F6EDEC"
             stroke="none"
             d="M30.789,60.257c-0.225,0-0.404,0.568-0.404,1.271c0,0.703,0.181,1.271,0.404,1.271       c0.222,0,0.402-0.568,0.402-1.271C31.191,60.825,31.01,60.257,30.789,60.257z"
             id="path618" />
        </g>
        <g
           id="g619">
          <path
             fill="#F6EEED"
             stroke="none"
             d="M30.789,60.269c-0.238,0-0.431,0.563-0.431,1.259c0,0.696,0.191,1.258,0.431,1.258       c0.235,0,0.43-0.562,0.43-1.258C31.219,60.832,31.024,60.269,30.789,60.269z"
             id="path620" />
        </g>
        <g
           id="g621">
          <path
             fill="#F7EFEE"
             stroke="none"
             d="M30.789,60.283c-0.253,0-0.457,0.557-0.457,1.245s0.204,1.245,0.457,1.245       c0.251,0,0.457-0.558,0.457-1.245C31.246,60.839,31.04,60.283,30.789,60.283z"
             id="path622" />
        </g>
        <g
           id="g623">
          <path
             fill="#F8F2F0"
             stroke="none"
             d="M30.789,60.293c-0.268,0-0.483,0.553-0.483,1.234c0,0.681,0.217,1.234,0.483,1.234       c0.266,0,0.482-0.553,0.482-1.234C31.271,60.846,31.055,60.293,30.789,60.293z"
             id="path624" />
        </g>
        <g
           id="g625">
          <path
             fill="#F8F3F1"
             stroke="none"
             d="M30.789,60.306c-0.282,0-0.511,0.546-0.511,1.222c0,0.675,0.229,1.22,0.511,1.22       c0.279,0,0.51-0.545,0.51-1.22C31.298,60.852,31.068,60.306,30.789,60.306z"
             id="path626" />
        </g>
        <g
           id="g627">
          <path
             fill="#F8F4F2"
             stroke="none"
             d="M30.789,60.319c-0.297,0-0.537,0.54-0.537,1.209c0,0.667,0.24,1.207,0.537,1.207       c0.295,0,0.536-0.54,0.536-1.207C31.325,60.859,31.083,60.319,30.789,60.319z"
             id="path628" />
        </g>
        <g
           id="g629">
          <path
             fill="#F9F5F3"
             stroke="none"
             d="M30.789,60.331c-0.313,0-0.563,0.536-0.563,1.197c0,0.659,0.252,1.196,0.563,1.196       c0.311,0,0.562-0.537,0.562-1.196C31.351,60.867,31.099,60.331,30.789,60.331z"
             id="path630" />
        </g>
        <g
           id="g631">
          <path
             fill="#F9F6F4"
             stroke="none"
             d="M30.789,60.343c-0.326,0-0.59,0.529-0.59,1.185c0,0.654,0.264,1.183,0.59,1.183       c0.324,0,0.59-0.528,0.59-1.183C31.378,60.873,31.113,60.343,30.789,60.343z"
             id="path632" />
        </g>
        <g
           id="g633">
          <path
             fill="#FAF7F6"
             stroke="none"
             d="M30.789,60.355c-0.343,0-0.617,0.525-0.617,1.173s0.274,1.171,0.617,1.171       c0.34,0,0.615-0.523,0.615-1.171S31.128,60.355,30.789,60.355z"
             id="path634" />
        </g>
        <g
           id="g635">
          <path
             fill="#FAF8F6"
             stroke="none"
             d="M30.789,60.368c-0.355,0-0.645,0.52-0.645,1.16c0,0.64,0.288,1.158,0.645,1.158       c0.354,0,0.643-0.518,0.643-1.158C31.432,60.888,31.143,60.368,30.789,60.368z"
             id="path636" />
        </g>
        <g
           id="g637">
          <path
             fill="#FBFAF8"
             stroke="none"
             d="M30.789,60.379c-0.37,0-0.671,0.515-0.671,1.148c0,0.633,0.301,1.146,0.671,1.146       c0.369,0,0.67-0.513,0.67-1.146C31.459,60.894,31.158,60.379,30.789,60.379z"
             id="path638" />
        </g>
        <g
           id="g639">
          <path
             fill="#FBFBF9"
             stroke="none"
             d="M30.789,60.392c-0.386,0-0.697,0.509-0.697,1.136c0,0.627,0.312,1.134,0.697,1.134       c0.384,0,0.695-0.507,0.695-1.134C31.484,60.901,31.172,60.392,30.789,60.392z"
             id="path640" />
        </g>
        <g
           id="g641">
          <path
             fill="#FCFBFA"
             stroke="none"
             d="M30.789,60.405c-0.4,0-0.725,0.503-0.725,1.123c0,0.62,0.323,1.122,0.725,1.122       c0.397,0,0.724-0.502,0.724-1.122C31.513,60.908,31.187,60.405,30.789,60.405z"
             id="path642" />
        </g>
        <g
           id="g643">
          <path
             fill="#FCFCFB"
             stroke="none"
             d="M30.789,60.417c-0.415,0-0.749,0.497-0.749,1.111c0,0.613,0.334,1.109,0.749,1.109       c0.413,0,0.749-0.496,0.749-1.109C31.538,60.914,31.202,60.417,30.789,60.417z"
             id="path644" />
        </g>
        <g
           id="g645">
          <path
             fill="#FEFEFD"
             stroke="none"
             d="M30.789,60.428c-0.431,0-0.776,0.492-0.776,1.1c0,0.606,0.347,1.097,0.776,1.097       c0.428,0,0.774-0.49,0.774-1.097C31.563,60.92,31.216,60.428,30.789,60.428z"
             id="path646" />
        </g>
        <g
           id="g647">
          <path
             fill="#FEFEFD"
             stroke="none"
             d="M30.789,60.443c-0.443,0-0.805,0.484-0.805,1.085s0.36,1.085,0.805,1.085       c0.441,0,0.803-0.484,0.803-1.085S31.23,60.443,30.789,60.443z"
             id="path648" />
        </g>
        <g
           id="g649">
          <path
             fill="#FFFFFF"
             stroke="none"
             d="M29.958,61.528c0-0.594,0.371-1.073,0.83-1.073c0.457,0,0.829,0.479,0.829,1.073       c0,0.593-0.372,1.072-0.829,1.072C30.33,62.6,29.958,62.121,29.958,61.528z"
             id="path650" />
        </g>
      </g>
      <path
         stroke="none"
         d="M19.542,65.092c0,7.053,7.095,12.791,15.813,12.791c8.721,0,15.813-5.738,15.813-12.791     c0-7.05-7.094-12.785-15.813-12.785C26.637,52.307,19.542,58.042,19.542,65.092 M21.771,65.092     c0-6.056,6.094-10.982,13.583-10.982c7.49,0,13.584,4.927,13.584,10.982c0,6.06-6.094,10.986-13.584,10.986     C27.865,76.079,21.771,71.151,21.771,65.092z"
         id="path651" />
      <path
         fill="#FFFFFF"
         stroke="none"
         d="M121.427,123.833H60.492V98.946h60.936L121.427,123.833z"
         id="path652" />
      <path
         stroke="none"
         d="M59.492,97.946v26.887h62.936V97.946H59.492z M120.427,99.946c0,1.766,0,21.121,0,22.887     c-1.902,0-57.033,0-58.936,0c0-1.766,0-21.121,0-22.887C63.395,99.946,118.524,99.946,120.427,99.946z"
         id="path653" />
      <g
         id="g654">
        <path
           stroke="none"
           d="M65.628,118.159l3.789-12.723c0.145-0.467,0.449-0.7,0.914-0.7c0.448,0,0.731,0.199,0.85,0.597      l3.754,12.914c0.029,0.098,0.045,0.189,0.045,0.277c0,0.26-0.09,0.479-0.268,0.659c-0.176,0.181-0.379,0.271-0.607,0.271      c-0.487,0-0.799-0.226-0.932-0.678l-0.756-2.541h-4.263l-0.821,2.721c-0.023,0.119-0.115,0.231-0.279,0.338      c-0.162,0.106-0.342,0.16-0.535,0.16c-0.272,0-0.5-0.093-0.68-0.275c-0.178-0.186-0.266-0.41-0.266-0.676      C65.574,118.392,65.591,118.277,65.628,118.159z M70.324,109.045l-1.597,5.315h3.135L70.324,109.045z"
           id="path655" />
        <path
           stroke="none"
           d="M80.205,104.736h7.565c0.246,0,0.463,0.093,0.652,0.276c0.188,0.184,0.283,0.4,0.283,0.65      c0,0.258-0.095,0.479-0.279,0.666c-0.188,0.188-0.408,0.281-0.66,0.281h-2.842v10.969h2.842c0.26,0,0.482,0.092,0.664,0.273      c0.185,0.184,0.275,0.402,0.275,0.664c0,0.261-0.095,0.48-0.279,0.664s-0.404,0.273-0.656,0.273h-7.565      c-0.261,0-0.482-0.092-0.664-0.273c-0.183-0.182-0.271-0.403-0.271-0.664c0-0.262,0.09-0.48,0.271-0.664      c0.18-0.184,0.397-0.273,0.655-0.273h2.854V106.61h-2.854c-0.258,0-0.477-0.092-0.655-0.275c-0.183-0.184-0.271-0.4-0.271-0.65      c0-0.264,0.09-0.488,0.271-0.672C79.722,104.829,79.944,104.736,80.205,104.736z"
           id="path656" />
        <path
           stroke="none"
           d="M92.964,118.524v-13.788h8.445c0.241,0,0.459,0.093,0.646,0.276c0.189,0.184,0.283,0.4,0.283,0.65      c0,0.258-0.092,0.479-0.277,0.666c-0.184,0.188-0.399,0.281-0.651,0.281h-6.57v2.938h4.725c0.261,0,0.479,0.092,0.66,0.273      s0.271,0.403,0.271,0.664c0,0.262-0.091,0.48-0.271,0.664s-0.399,0.273-0.66,0.273h-4.725v7.104      c0,0.258-0.092,0.477-0.273,0.657c-0.181,0.181-0.403,0.271-0.664,0.271c-0.26,0-0.481-0.09-0.664-0.271      C93.056,119.002,92.964,118.784,92.964,118.524z"
           id="path657" />
        <path
           stroke="none"
           d="M106.66,118.524v-13.788h8.444c0.244,0,0.459,0.093,0.648,0.276c0.188,0.184,0.281,0.4,0.281,0.65      c0,0.258-0.093,0.479-0.275,0.666c-0.186,0.188-0.402,0.281-0.652,0.281h-6.571v2.938h4.725c0.26,0,0.479,0.092,0.66,0.273      c0.181,0.182,0.271,0.403,0.271,0.664c0,0.262-0.09,0.48-0.271,0.664c-0.182,0.184-0.4,0.273-0.66,0.273h-4.725v7.104      c0,0.258-0.091,0.477-0.273,0.657c-0.182,0.181-0.402,0.271-0.664,0.271c-0.26,0-0.479-0.09-0.664-0.271      C106.751,119.002,106.66,118.784,106.66,118.524z"
           id="path658" />
      </g>
    </g>
  </g>
</svg>
