<?xml version="1.0" encoding="UTF-8" standalone="no"?>
<!DOCTYPE svg PUBLIC "-//W3C//DTD SVG 20010904//EN"
"http://www.w3.org/TR/2001/REC-SVG-20010904/DTD/svg10.dtd">
<!-- Created with Sodipodi ("http://www.sodipodi.com/") -->
<svg
   width="58pt"
   height="48pt"
   viewBox="0 0 66.133 48.371"
   overflow="visible"
   enable-background="new 0 0 66.133 48.371"
   xml:space="preserve"
   id="svg153"
   sodipodi:version="0.32pre"
   sodipodi:docname="/home/cschalle/gnome-themes-extras/Wasp/icons/scalable/mimetypes/gnome-mime-text-x-java.svg"
   sodipodi:docbase="/home/cschalle/gnome-themes-extras/Wasp/icons/scalable/mimetypes"
   xmlns="http://www.w3.org/2000/svg"
   xmlns:sodipodi="http://sodipodi.sourceforge.net/DTD/sodipodi-0.dtd"
   xmlns:xml="http://www.w3.org/XML/1998/namespace"
   xmlns:xlink="http://www.w3.org/1999/xlink">
  <defs
     id="defs200">
    <linearGradient
       id="linearGradient463"
       gradientUnits="userSpaceOnUse"
       x1="131.2803"
       y1="242.2021"
       x2="131.2803"
       y2="225.9855">
      <stop
         offset="0"
         style="stop-color:#CCCCCC"
         id="stop157" />
      <stop
         offset="1"
         style="stop-color:#000000"
         id="stop158" />
    </linearGradient>
    <linearGradient
       id="linearGradient471"
       gradientUnits="userSpaceOnUse"
       x1="101.2012"
       y1="49.4717"
       x2="130.5948"
       y2="153.5337">
      <stop
         offset="0"
         style="stop-color:#D4D4D4"
         id="stop165" />
      <stop
         offset="1"
         style="stop-color:#F0F0F0"
         id="stop166" />
    </linearGradient>
    <radialGradient
       id="radialGradient481"
       cx="122.9863"
       cy="61.2827"
       r="7.46"
       fx="122.9863"
       fy="61.2827"
       gradientTransform="matrix(0.8964 0.0346 -0.3107 1.1036 32.3881 -10.5311)"
       gradientUnits="userSpaceOnUse">
      <stop
         offset="0.8595"
         style="stop-color:#C2C2C2"
         id="stop175" />
      <stop
         offset="1"
         style="stop-color:#000000"
         id="stop176" />
    </radialGradient>
    <radialGradient
       id="radialGradient488"
       cx="183.2773"
       cy="65.5967"
       r="8.1347"
       fx="183.2773"
       fy="65.5967"
       gradientTransform="matrix(0.8964 0.0346 -0.3107 1.1036 32.3881 -10.5311)"
       gradientUnits="userSpaceOnUse">
      <stop
         offset="0.8595"
         style="stop-color:#C2C2C2"
         id="stop182" />
      <stop
         offset="1"
         style="stop-color:#000000"
         id="stop183" />
    </radialGradient>
    <linearGradient
       id="XMLID_5_"
       gradientUnits="userSpaceOnUse"
       x1="152.5527"
       y1="173.499"
       x2="152.5527"
       y2="144.4999">
      <stop
         offset="0"
         style="stop-color:#D4CCB6"
         id="stop206" />
      <stop
         offset="1"
         style="stop-color:#AC9F83"
         id="stop207" />
    </linearGradient>
    <linearGradient
       id="XMLID_6_"
       gradientUnits="userSpaceOnUse"
       x1="71.9131"
       y1="127.8374"
       x2="129.6043"
       y2="185.5283">
      <stop
         offset="0"
         style="stop-color:#FFFFFF"
         id="stop215" />
      <stop
         offset="0.2978"
         style="stop-color:#E6DFCC"
         id="stop216" />
      <stop
         offset="0.7022"
         style="stop-color:#AC9F83"
         id="stop217" />
      <stop
         offset="1"
         style="stop-color:#7F7358"
         id="stop218" />
    </linearGradient>
    <linearGradient
       id="XMLID_7_"
       gradientUnits="userSpaceOnUse"
       x1="80.394"
       y1="121.2993"
       x2="110.6405"
       y2="151.5458">
      <stop
         offset="0"
         style="stop-color:#7F7358"
         id="stop230" />
      <stop
         offset="1"
         style="stop-color:#E6DFCC"
         id="stop231" />
    </linearGradient>
    <linearGradient
       id="XMLID_8_"
       gradientUnits="userSpaceOnUse"
       x1="53.9961"
       y1="143.0898"
       x2="144.5684"
       y2="143.0898">
      <stop
         offset="0"
         style="stop-color:#753700"
         id="stop237" />
      <stop
         offset="1"
         style="stop-color:#EB6300"
         id="stop238" />
    </linearGradient>
    <linearGradient
       id="XMLID_9_"
       gradientUnits="userSpaceOnUse"
       x1="84.7056"
       y1="125.6108"
       x2="121.9702"
       y2="162.8755">
      <stop
         offset="0"
         style="stop-color:#FFFFFF"
         id="stop244" />
      <stop
         offset="1"
         style="stop-color:#AC9F83"
         id="stop245" />
    </linearGradient>
    <linearGradient
       id="XMLID_10_"
       gradientUnits="userSpaceOnUse"
       x1="105.5347"
       y1="121.3462"
       x2="105.5347"
       y2="69.0586">
      <stop
         offset="0.1966"
         style="stop-color:#CCCCCC"
         id="stop251" />
      <stop
         offset="1"
         style="stop-color:#FFFFFF"
         id="stop252" />
    </linearGradient>
  </defs>
  <sodipodi:namedview
     id="base" />
  <metadata
     id="metadata154">
    <sfw>
      <slices />
      <sliceSourceBounds
         y="395.314"
         x="263.433"
         width="66.133"
         height="48.371"
         bottomLeftOrigin="true" />
    </sfw>
  </metadata>
  <g
     id="Layer_1"
     stroke="#000000"
     transform="translate(0,1.90735e-06)">
    <g
       id="Layer_1_2_">
      <g
         id="g157">
        <linearGradient
           id="XMLID_1_"
           gradientUnits="userSpaceOnUse"
           x1="-375.4331"
           y1="104.5449"
           x2="-356.3073"
           y2="73.1708"
           gradientTransform="matrix(0.4828 0.721 0.7677 -0.514 140.0518 339.5116)">
          <stop
             offset="0"
             style="stop-color:#FDFEED"
             id="stop159" />
          <stop
             offset="1"
             style="stop-color:#FFF24B"
             id="stop160" />
        </linearGradient>
        <path
           fill="url(#XMLID_1_)"
           stroke="none"
           d="M22.404,44.751L5.074,24.075l29.248-13.037l25.701,21.264L22.404,44.751z"
           id="path164" />
      </g>
      <path
         stroke="none"
         d="M1.69,23.299l20.231,23.972l41.486-14.191L34.804,8.516L1.69,23.299z"
         id="path165" />
      <g
         id="g166">
        <linearGradient
           id="XMLID_2_"
           gradientUnits="userSpaceOnUse"
           x1="-375.4331"
           y1="104.5449"
           x2="-356.3073"
           y2="73.1708"
           gradientTransform="matrix(0.4828 0.721 0.7677 -0.514 140.0518 339.5116)">
          <stop
             offset="0.0056"
             style="stop-color:#D9D8FF"
             id="stop168" />
          <stop
             offset="0.514"
             style="stop-color:#FDFEED"
             id="stop169" />
          <stop
             offset="1"
             style="stop-color:#9A99CD"
             id="stop170" />
        </linearGradient>
        <path
           fill="url(#XMLID_2_)"
           stroke="none"
           d="M22.404,44.751L5.074,24.075l29.248-13.037l25.701,21.264L22.404,44.751z"
           id="path176" />
      </g>
      <g
         id="g177">
        <linearGradient
           id="XMLID_3_"
           gradientUnits="userSpaceOnUse"
           x1="-313.0947"
           y1="225.8115"
           x2="-292.3098"
           y2="191.7158"
           gradientTransform="matrix(0.702 0.51 0.543 -0.7475 130.3028 333.4989)">
          <stop
             offset="0"
             style="stop-color:#FDFEED"
             id="stop179" />
          <stop
             offset="1"
             style="stop-color:#FFF24B"
             id="stop180" />
        </linearGradient>
        <path
           fill="url(#XMLID_3_)"
           stroke="none"
           d="M38.013,42.094L3.422,23.729L24.475,2.548l34.592,18.365L38.013,42.094z"
           id="path184" />
      </g>
      <path
         stroke="none"
         d="M0,24.278l38.356,20.365l24.133-24.28L24.134,0L0,24.278z"
         id="path185" />
      <g
         id="g186">
        <linearGradient
           id="XMLID_4_"
           gradientUnits="userSpaceOnUse"
           x1="-200.6094"
           y1="423.3213"
           x2="-202.1694"
           y2="387.4401"
           gradientTransform="matrix(1 0 0 -1 232.9102 421.3594)">
          <stop
             offset="0.0056"
             style="stop-color:#D9D8FF"
             id="stop188" />
          <stop
             offset="0.514"
             style="stop-color:#FDFEED"
             id="stop189" />
          <stop
             offset="1"
             style="stop-color:#9A99CD"
             id="stop190" />
        </linearGradient>
        <path
           fill="url(#XMLID_4_)"
           stroke="none"
           d="M38.013,42.094L3.422,23.729L24.475,2.548l34.592,18.365L38.013,42.094z"
           id="path196" />
      </g>
      <path
         a:adobe-blending-mode="multiply"
         opacity="0.2"
         stroke="none"
         d="M1.954,24.939l27.714,18.106l-7.746,4.225l11.636-1.03     l6.32,2.131l6.807-7.987l19.448-6.391l-6.32-6.923l5.349-3.727l-5.523-1.63l-4.688,5.358l5.349,3.728l-17.018,6.922l-5.269,4.373     L1.954,24.939z"
         id="path197" />
      <path
         a:adobe-blending-mode="multiply"
         opacity="0.2"
         stroke="none"
         d="M56.563,28.922l-5.359,5.533l-5.755,2.439l9.373-10.063     L56.563,28.922z"
         id="path198" />
    </g>
  </g>
  <path
     i:knockout="Off"
     style="font-size:12;fill:none;"
     d="M19.313,192.584L82.112,54.909c1.711-5.177,17.033-14.334,23.798-13.129l117.878,9.91    c-1.382-0.833-3.015-1.461-4.851-1.788L103.789,38.497c-6.766-1.205-22.087,7.953-23.797,13.129l-62.8,137.676    c-0.975,2.951-0.057,5.901,2.164,8.116C18.818,195.892,18.765,194.24,19.313,192.584z"
     id="path171" />
  <path
     i:knockout="Off"
     style="font-size:12;opacity:0.5;fill:url(#XMLID_10_);"
     d="M89.748,140.955c0,0,17.973-5.918,13.37-13.809s-19.288-9.794-22.795-16.878    S98.515,83.09,98.515,83.09S96.323,68.404,83.83,64.897c-12.493-3.507,40.989,3.726,40.989,3.726s14.246,14.905-0.439,24.33    c-14.685,9.425-32.439,4.822-28.056,14.027c4.384,9.206,19.727,15.344,15.563,21.7s-14.028,12.493-19.069,13.151    C87.775,142.489,89.748,140.955,89.748,140.955z"
     id="path256"
     transform="matrix(0.354154,0,0,0.412891,15.4317,-24.9181)" />
  <g
     id="g804"
     transform="matrix(0.207433,-0.491531,0.659288,0.177903,-45.7431,40.5709)">
    <g
       i:knockout="Off"
       id="g190"
       style="font-size:12;stroke:#000000;"
       transform="matrix(0.354154,0,0,0.412891,29.3963,37.5382)">
      <path
         i:knockout="Off"
         style="fill:#999999;stroke:none;"
         d="M101.391,98.652c-5.506-0.844-8.096-4.949-6.722-9.445c1.54-5.042,7.126-8.464,13.3-7.52     c5.674,0.869,8.263,4.973,6.848,9.606c-1.539,5.042-7.084,8.329-13.258,7.384L101.391,98.652z"
         id="path191" />
      <path
         i:knockout="Off"
         style="fill:#999999;stroke:none;"
         d="M136.601,104.042c-5.507-0.844-8.096-4.948-6.723-9.444     c1.54-5.042,7.126-8.465,13.301-7.52c5.674,0.868,8.264,4.973,6.848,9.605c-1.54,5.041-7.085,8.329-13.259,7.383L136.601,104.042     z"
         id="path192" />
      <path
         i:knockout="Off"
         style="fill:#999999;stroke:none;"
         d="M171.811,109.43c-5.508-0.843-8.095-4.947-6.723-9.443     c1.54-5.042,7.127-8.465,13.302-7.52c5.673,0.868,8.262,4.972,6.848,9.605c-1.539,5.042-7.086,8.329-13.261,7.384L171.811,109.43     z"
         id="path193" />
    </g>
    <g
       i:knockout="Off"
       id="g194"
       style="font-size:12;stroke:#000000;"
       transform="matrix(0.354154,0,0,0.412891,29.3963,37.5382)">
      <path
         i:knockout="Off"
         style="fill:#999999;stroke:none;"
         d="M91.667,119.782c-5.506-0.845-8.095-4.949-6.722-9.445c1.54-5.041,7.126-8.464,13.3-7.52     c5.674,0.869,8.263,4.973,6.848,9.607c-1.54,5.041-7.084,8.327-13.259,7.383L91.667,119.782z"
         id="path195" />
      <path
         i:knockout="Off"
         style="fill:#999999;stroke:none;"
         d="M126.877,125.171c-5.507-0.844-8.096-4.948-6.723-9.444     c1.54-5.041,7.126-8.465,13.301-7.52c5.674,0.869,8.264,4.973,6.848,9.605c-1.539,5.041-7.084,8.329-13.258,7.384     L126.877,125.171z"
         id="path503" />
      <path
         i:knockout="Off"
         style="fill:#999999;stroke:none;"
         d="M162.087,130.56c-5.508-0.843-8.095-4.946-6.722-9.442     c1.539-5.042,7.126-8.466,13.301-7.521c5.673,0.868,8.262,4.973,6.848,9.605c-1.539,5.041-7.086,8.329-13.261,7.384     L162.087,130.56z"
         id="path504" />
    </g>
    <g
       i:knockout="Off"
       id="g172"
       style="font-size:12;stroke:#000000;"
       transform="matrix(0.354154,0,0,0.412891,130.109,38.2862)" />
    <g
       i:knockout="Off"
       id="g198"
       style="font-size:12;stroke:#000000;"
       transform="matrix(0.354154,0,0,0.412891,28.5502,39.0342)">
      <path
         i:knockout="Off"
         style="fill:#999999;stroke:none;"
         d="M81.943,140.911c-5.506-0.844-8.095-4.949-6.722-9.444     c1.54-5.042,7.126-8.465,13.3-7.521c5.674,0.869,8.263,4.974,6.848,9.606c-1.54,5.041-7.084,8.328-13.259,7.384L81.943,140.911z"
         id="path199" />
      <path
         i:knockout="Off"
         style="fill:#999999;stroke:none;"
         d="M117.153,146.3c-5.507-0.844-8.096-4.947-6.723-9.443c1.54-5.041,7.126-8.466,13.3-7.52     c5.674,0.868,8.264,4.973,6.849,9.604c-1.54,5.041-7.085,8.329-13.259,7.384L117.153,146.3z"
         id="path200" />
      <path
         i:knockout="Off"
         style="fill:#999999;stroke:none;"
         d="M152.363,151.689c-5.508-0.843-8.095-4.947-6.722-9.443     c1.539-5.042,7.126-8.465,13.301-7.52c5.673,0.868,8.262,4.972,6.848,9.605c-1.539,5.041-7.086,8.329-13.261,7.384     L152.363,151.689z"
         id="path201" />
    </g>
  </g>
  <g
     id="g818"
     transform="matrix(0.497224,0,0,0.605327,-31.4238,-26.7644)">
    <path
       i:knockout="Off"
       style="font-size:12;opacity:0.36;fill:#999999;"
       d="M161.775,143.153c-2.849-10.804-28.313-16.443-53.494-16.443    c-26.718,0-53.766,6.347-53.766,18.478c0,0.574,0.091,1.159,0.224,1.746c-0.002,0.131-0.005,0.337-0.005,0.337    c0,25.233,12.854,47.887,32.747,57.711l0.443,0.22l0.489,0.077c5.681,0.893,11.554,1.347,17.458,1.347    c8.86,0,17.505-1.005,25.694-2.985l0.464-0.113l0.413-0.24c8.112-4.752,14.854-11.632,19.849-19.898    c2.841,0.991,5.964,1.538,9.263,1.538c13.557,0,24.176-9.176,24.176-20.888C185.729,152.389,175.226,143.253,161.775,143.153z     M158.318,170.342c1.388-4.117,2.403-8.432,3.022-12.88c0.072-0.001,0.14-0.008,0.213-0.008c8.2,0,12.497,4.893,12.497,6.584    s-4.297,6.583-12.497,6.583C160.394,170.621,159.32,170.515,158.318,170.342z"
       id="path202"
       transform="matrix(0.354154,0,0,0.412891,130.109,38.2862)" />
    <path
       i:knockout="Off"
       style="font-size:12;"
       d="M128.377,159.038c0,11.712,10.619,20.888,24.177,20.888    c13.557,0,24.176-9.176,24.176-20.888c0-11.714-10.619-20.89-24.176-20.89C138.996,138.148,128.377,147.324,128.377,159.038z     M140.056,159.038c0-1.691,4.297-6.584,12.498-6.584c8.2,0,12.497,4.893,12.497,6.584s-4.297,6.583-12.497,6.583    C144.353,165.621,140.056,160.729,140.056,159.038z"
       id="path203"
       transform="matrix(0.354154,0,0,0.412891,130.109,38.2862)" />
    <path
       i:knockout="Off"
       style="font-size:12;"
       d="M45.516,140.188c0,0.574,0.091,1.159,0.224,1.746c-0.002,0.131-0.005,0.337-0.005,0.337    c0,25.233,12.854,47.887,32.747,57.711l0.443,0.22l0.489,0.077c5.681,0.893,11.554,1.347,17.458,1.347    c8.86,0,17.505-1.005,25.694-2.985l0.464-0.113l0.413-0.24c18.262-10.697,29.606-32.161,29.606-56.016l-0.016-1.475l-0.074,0.529    l0.09-1.138c0-12.131-27.048-18.478-53.767-18.478C72.563,121.71,45.516,128.057,45.516,140.188z"
       id="path204"
       transform="matrix(0.354154,0,0,0.412891,130.109,38.2862)" />
    <path
       i:knockout="Off"
       style="font-size:12;fill:url(#XMLID_5_);"
       d="M152.554,142.122c-11.561,0-20.933,7.574-20.933,16.916s9.372,16.914,20.933,16.914    s20.932-7.572,20.932-16.914S164.114,142.122,152.554,142.122z M152.554,169.595c-9.01,0-15.742-5.574-15.742-10.557    c0-4.984,6.732-10.558,15.742-10.558s15.741,5.573,15.741,10.558C168.295,164.021,161.563,169.595,152.554,169.595z"
       id="path211"
       transform="matrix(0.354154,0,0,0.412891,130.109,38.2862)" />
    <path
       i:knockout="Off"
       style="font-size:12;fill:#ac9f83;"
       d="M153.167,169.595c-7.198,0-14.313-5.306-14.313-10.289    c0-4.873,6.879-10.575,13.836-10.813c-1.098-0.248-2.252-0.385-3.453-0.385c-5.264,0-9.649,2.588-12.035,5.877    c-0.492,1.597-0.759,3.293-0.759,5.054c0,2.29,0.452,4.475,1.268,6.466c2.472,2.973,6.616,5.227,11.526,5.227    c2.326,0,4.479-0.509,6.366-1.356C154.819,169.517,154.006,169.595,153.167,169.595z"
       id="path212"
       transform="matrix(0.354154,0,0,0.412891,130.109,38.2862)" />
    <path
       i:knockout="Off"
       style="font-size:12;fill:#ffffff;"
       d="M155.077,142.249c9.191,2.419,15.813,9.189,15.813,17.17    c0,6.611-4.545,12.395-11.331,15.559c8.114-2.328,13.926-8.585,13.926-15.939C173.485,150.387,165.446,143.257,155.077,142.249z"
       id="path213"
       transform="matrix(0.354154,0,0,0.412891,130.109,38.2862)" />
    <path
       i:knockout="Off"
       style="font-size:12;fill:url(#XMLID_6_);"
       d="M149.748,140.861c-1.171,8.1-23.313,14.561-50.466,14.561    c-26.298,0-47.894-6.061-50.292-13.801c-0.002,0.217-0.01,0.432-0.01,0.649c0,24.671,12.766,45.827,30.939,54.803    c5.421,0.853,11.101,1.308,16.953,1.308c8.798,0,17.208-1.026,24.932-2.895c16.596-9.722,28.002-29.897,28.002-53.216    c0-0.472-0.006-0.94-0.016-1.409C149.775,140.861,149.762,140.861,149.748,140.861z"
       id="path226"
       transform="matrix(0.354154,0,0,0.412891,130.109,38.2862)" />
    <path
       i:knockout="Off"
       style="font-size:12;opacity:0.5;fill:#ffffff;"
       d="M76.815,155.202l-16-4.165c0,0-5.042,28.055,14.466,41.864    c19.508,13.809-9.206-18.631-0.658-34.632C83.172,142.27,76.815,155.202,76.815,155.202z"
       id="path227"
       transform="matrix(0.354154,0,0,0.412891,130.109,38.2862)" />
    <path
       i:knockout="Off"
       style="font-size:12;fill:#ffffff;"
       d="M51.609,143.677c0,8.907,21.197,16.128,47.344,16.128s47.345-7.221,47.345-16.128    s-21.197-16.128-47.345-16.128S51.609,134.77,51.609,143.677z"
       id="path228"
       transform="matrix(0.354154,0,0,0.412891,130.109,38.2862)" />
    <path
       i:knockout="Off"
       style="font-size:12;fill:url(#XMLID_7_);"
       d="M53.996,140.188c1.143,2.861,16.315,10.044,45.286,10.044s44.144-7.183,45.287-10.044    c-1.143-2.861-16.316-10.043-45.287-10.043C70.313,130.145,55.139,137.326,53.996,140.188z"
       id="path235"
       transform="matrix(0.354154,0,0,0.412891,130.109,38.2862)" />
    <path
       i:knockout="Off"
       style="font-size:12;fill:url(#XMLID_8_);"
       d="M53.996,143.089c1.143,1.665,16.315,5.844,45.286,5.844s44.144-4.179,45.287-5.844    c-1.143-1.664-16.316-5.843-45.287-5.843C70.313,137.246,55.139,141.425,53.996,143.089z"
       id="path242"
       transform="matrix(0.354154,0,0,0.412891,130.109,38.2862)" />
    <path
       i:knockout="Off"
       style="font-size:12;fill:url(#XMLID_9_);"
       d="M99.282,124.954c-27.902,0-50.522,6.82-50.522,15.233s22.62,15.234,50.522,15.234    c27.904,0,50.523-6.821,50.523-15.234S127.186,124.954,99.282,124.954z M99.282,150.231c-28.97,0-44.143-7.183-45.286-10.044    c1.143-2.861,16.316-10.043,45.286-10.043c28.97,0,44.144,7.182,45.287,10.043C143.426,143.049,128.252,150.231,99.282,150.231z"
       id="path249"
       transform="matrix(0.354154,0,0,0.412891,130.109,38.2862)" />
  </g>
</svg>
