<?xml version="1.0" encoding="UTF-8" standalone="no"?>
<!DOCTYPE svg PUBLIC "-//W3C//DTD SVG 20010904//EN"
"http://www.w3.org/TR/2001/REC-SVG-20010904/DTD/svg10.dtd">
<!-- Created with Sodipodi ("http://www.sodipodi.com/") -->
<svg
   width="48pt"
   height="48pt"
   viewBox="0 0 50.872 37.208"
   overflow="visible"
   enable-background="new 0 0 50.872 37.208"
   xml:space="preserve"
   xmlns="http://www.w3.org/2000/svg"
   xmlns:xml="http://www.w3.org/XML/1998/namespace"
   xmlns:sodipodi="http://sodipodi.sourceforge.net/DTD/sodipodi-0.dtd"
   xmlns:xlink="http://www.w3.org/1999/xlink"
   id="svg153"
   sodipodi:version="0.32pre"
   sodipodi:docname="/home/cschalle/gnome-themes-extras/Wasp/icons/scalable/mimetypes/gnome-mime-application-text.svg"
   sodipodi:docbase="/home/cschalle/gnome-themes-extras/Wasp/icons/scalable/mimetypes">
  <defs
     id="defs239" />
  <sodipodi:namedview
     id="base" />
  <metadata
     id="metadata154">
    <sfw>
      <slices />
      <sliceSourceBounds
         y="400.896"
         x="271.064"
         width="50.872"
         height="37.208"
         bottomLeftOrigin="true" />
    </sfw>
  </metadata>
  <g
     id="Layer_1"
     stroke="#000000">
    <g
       id="Layer_1_2_">
      <g
         id="g157">
        <linearGradient
           id="XMLID_1_"
           gradientUnits="userSpaceOnUse"
           x1="-381.8579"
           y1="96.3008"
           x2="-367.1459"
           y2="72.1671"
           gradientTransform="matrix(0.4828 0.721 0.7677 -0.514 140.4693 336.4249)">
          <stop
             offset="0"
             style="stop-color:#FDFEED"
             id="stop159" />
          <stop
             offset="1"
             style="stop-color:#FFF24B"
             id="stop160" />
        </linearGradient>
        <path
           fill="url(#XMLID_1_)"
           stroke="none"
           d="M17.234,34.423L3.903,18.52L26.401,8.49l19.77,16.356L17.234,34.423z"
           id="path164" />
      </g>
      <path
         stroke="none"
         d="M1.3,17.922l15.563,18.44l31.912-10.917L26.772,6.551L1.3,17.922z"
         id="path165" />
      <g
         id="g166">
        <path
           fill="url(#XMLID_1_)"
           stroke="none"
           d="M17.234,34.423L3.903,18.52L26.401,8.49l19.77,16.356L17.234,34.423z"
           id="path167" />
      </g>
      <g
         id="g168">
        <linearGradient
           id="XMLID_3_"
           gradientUnits="userSpaceOnUse"
           x1="-317.7207"
           y1="216.2363"
           x2="-301.7319"
           y2="190.0082"
           gradientTransform="matrix(0.702 0.51 0.543 -0.7475 131.1027 327.5406)">
          <stop
             offset="0"
             style="stop-color:#FDFEED"
             id="stop170" />
          <stop
             offset="1"
             style="stop-color:#FFF24B"
             id="stop171" />
        </linearGradient>
        <path
           fill="url(#XMLID_3_)"
           stroke="none"
           d="M29.241,32.38L2.632,18.253L18.826,1.959l26.609,14.127L29.241,32.38z"
           id="path175" />
      </g>
      <path
         stroke="none"
         d="M0,18.675L29.504,34.34l18.564-18.676L18.564,0L0,18.675z"
         id="path176" />
      <g
         id="g177">
        <path
           fill="url(#XMLID_3_)"
           stroke="none"
           d="M29.241,32.38L2.632,18.253L18.826,1.959l26.609,14.127L29.241,32.38z"
           id="path178" />
      </g>
      <g
         id="g179">
        <linearGradient
           id="XMLID_5_"
           gradientUnits="userSpaceOnUse"
           x1="-203.6997"
           y1="404.5127"
           x2="-212.9624"
           y2="395.25"
           gradientTransform="matrix(1 0 0 -1 232.9102 410.1973)">
          <stop
             offset="0"
             style="stop-color:#D8DAA1"
             id="stop181" />
          <stop
             offset="1"
             style="stop-color:#5C5C3A"
             id="stop182" />
        </linearGradient>
        <path
           fill="url(#XMLID_5_)"
           stroke="none"
           d="M16.848,17.124c-0.522,0.529,0.7,1.154,1.221,0.625l7.647-7.755      c0.26-0.265,0.275-0.71,0.035-0.995C25.51,8.714,16.848,17.124,16.848,17.124z"
           id="path186" />
        <linearGradient
           id="XMLID_6_"
           gradientUnits="userSpaceOnUse"
           x1="-204.6802"
           y1="398.3066"
           x2="-213.4228"
           y2="390.2125"
           gradientTransform="matrix(1 0 0 -1 232.9102 410.1973)">
          <stop
             offset="0"
             style="stop-color:#D8DAA1"
             id="stop188" />
          <stop
             offset="1"
             style="stop-color:#5C5C3A"
             id="stop189" />
        </linearGradient>
        <path
           fill="url(#XMLID_6_)"
           stroke="none"
           d="M19.973,18.708c-0.26,0.264,0.83,0.908,1.09,0.646l6.804-6.919      c0.26-0.265,0.276-0.71,0.035-0.995S19.973,18.708,19.973,18.708z"
           id="path193" />
        <linearGradient
           id="XMLID_7_"
           gradientUnits="userSpaceOnUse"
           x1="-202.7705"
           y1="396.1289"
           x2="-211.4843"
           y2="388.0614"
           gradientTransform="matrix(1 0 0 -1 232.9102 410.1973)">
          <stop
             offset="0"
             style="stop-color:#D8DAA1"
             id="stop195" />
          <stop
             offset="1"
             style="stop-color:#5C5C3A"
             id="stop196" />
        </linearGradient>
        <path
           fill="url(#XMLID_7_)"
           stroke="none"
           d="M30.831,12.169l-7.79,8.124c-0.26,0.265,0.756,0.929,1.016,0.665      c0,0,7.925-8.465,7.683-8.75C31.498,11.923,31.091,11.906,30.831,12.169z"
           id="path200" />
        <linearGradient
           id="XMLID_8_"
           gradientUnits="userSpaceOnUse"
           x1="-198.3159"
           y1="394.7373"
           x2="-206.1881"
           y2="388.8718"
           gradientTransform="matrix(1 0 0 -1 232.9102 410.1973)">
          <stop
             offset="0"
             style="stop-color:#D8DAA1"
             id="stop202" />
          <stop
             offset="1"
             style="stop-color:#5C5C3A"
             id="stop203" />
        </linearGradient>
        <path
           fill="url(#XMLID_8_)"
           stroke="none"
           d="M26.178,21.529c-0.26,0.264,0.943,0.93,1.204,0.665l6.038-6.25      c0.261-0.264,0.276-0.709,0.035-0.995S26.178,21.529,26.178,21.529z"
           id="path207" />
        <linearGradient
           id="XMLID_9_"
           gradientUnits="userSpaceOnUse"
           x1="-211.5151"
           y1="401.1367"
           x2="-219.3878"
           y2="395.2708"
           gradientTransform="matrix(1 0 0 -1 232.9102 410.1973)">
          <stop
             offset="0"
             style="stop-color:#D8DAA1"
             id="stop209" />
          <stop
             offset="1"
             style="stop-color:#5C5C3A"
             id="stop210" />
        </linearGradient>
        <path
           fill="url(#XMLID_9_)"
           stroke="none"
           d="M12.978,15.129c-0.26,0.264,0.943,0.929,1.205,0.665l6.038-6.25      c0.261-0.264,0.276-0.709,0.035-0.995C20.014,8.265,12.978,15.129,12.978,15.129z"
           id="path214" />
        <g
           id="g215">
          <linearGradient
             id="XMLID_10_"
             gradientUnits="userSpaceOnUse"
             x1="-195.3398"
             y1="393.873"
             x2="-199.6283"
             y2="390.2992"
             gradientTransform="matrix(1 0 0 -1 232.9102 410.1973)">
            <stop
               offset="0"
               style="stop-color:#D8DAA1"
               id="stop217" />
            <stop
               offset="1"
               style="stop-color:#5C5C3A"
               id="stop218" />
          </linearGradient>
          <path
             fill="url(#XMLID_10_)"
             stroke="none"
             d="M36.819,15.379l-7.875,8.084c-0.26,0.265,0.84,0.968,1.101,0.704       c0,0,7.924-8.465,7.683-8.749C37.486,15.133,37.079,15.115,36.819,15.379z"
             id="path222" />
        </g>
      </g>
      <path
         a:adobe-blending-mode="multiply"
         opacity="0.3"
         stroke="none"
         d="M46.384,23.69l-13.09,5.325c0,0-3.785,3.154-3.813,3.163     l18.296-7.032L46.384,23.69z"
         id="path223" />
      <path
         a:adobe-blending-mode="multiply"
         opacity="0.2"
         stroke="none"
         d="M46.864,21.758l0.262-1.714l2.998-2.089l-4.018-1.733     l-3.837,4.601l5.071,4.292l-13.955,4.891l-3.782,2.804c0.027-0.009-2.739-0.391-2.739-0.391     c-2.347,0.13-10.001,3.943-10.001,3.943l8.951-0.793l4.861,1.64l5.236-6.145l14.961-4.915L46.864,21.758z"
         id="path224" />
      <path
         a:adobe-blending-mode="multiply"
         opacity="0.2"
         stroke="none"
         d="M1.503,19.185l21.079,13.771     c2.163-0.001,4.327-0.029,6.49-0.656L1.503,19.185z"
         id="path225" />
      <path
         a:adobe-blending-mode="multiply"
         opacity="0.2"
         stroke="none"
         d="M45.435,24.114l-3.455-0.15l-2.593,2.54L34.96,28.38     l7.211-7.74L45.435,24.114z"
         id="path226" />
      <g
         id="g227">
        <path
           stroke="none"
           d="M7.064,20.89l-1.763-0.997v-5.596l1.763,0.996V20.89z"
           id="path228" />
        <path
           stroke="none"
           d="M3.538,19.739l-1.763-0.997v-1.225l1.763-0.615V19.739z"
           id="path229" />
        <path
           stroke="none"
           d="M10.382,17.078v5.596l-1.763-0.997v-5.595L10.382,17.078z"
           id="path230" />
        <path
           stroke="none"
           d="M13.7,18.863v5.595l-1.763-0.996v-5.596L13.7,18.863z"
           id="path231" />
        <path
           stroke="none"
           d="M17.018,20.648v5.595l-1.763-0.996v-5.596L17.018,20.648z"
           id="path232" />
        <path
           stroke="none"
           d="M20.336,22.433v5.596l-1.764-0.996v-5.596L20.336,22.433z"
           id="path233" />
        <path
           stroke="none"
           d="M23.653,24.218v5.596l-1.763-0.996v-5.597L23.653,24.218z"
           id="path234" />
        <path
           stroke="none"
           d="M26.972,26.003v5.596l-1.763-0.997v-5.596L26.972,26.003z"
           id="path235" />
        <path
           stroke="none"
           d="M30.289,33.384l-1.763-0.997v-5.596l1.763,0.997V33.384z"
           id="path236" />
        <path
           stroke="none"
           d="M31.899,30.931v-2.146l1.762,0.996L31.899,30.931z"
           id="path237" />
      </g>
    </g>
  </g>
</svg>
