<?xml version="1.0" encoding="UTF-8" standalone="no"?>
<!DOCTYPE svg PUBLIC "-//W3C//DTD SVG 20010904//EN"
"http://www.w3.org/TR/2001/REC-SVG-20010904/DTD/svg10.dtd">
<!-- Created with Sodipodi ("http://www.sodipodi.com/") -->
<svg
   width="48pt"
   height="48pt"
   viewBox="0 0 49.342 49.295"
   overflow="visible"
   enable-background="new 0 0 49.342 49.295"
   xml:space="preserve"
   xmlns="http://www.w3.org/2000/svg"
   xmlns:xml="http://www.w3.org/XML/1998/namespace"
   xmlns:sodipodi="http://sodipodi.sourceforge.net/DTD/sodipodi-0.dtd"
   xmlns:xlink="http://www.w3.org/1999/xlink"
   id="svg153"
   sodipodi:version="0.32pre"
   sodipodi:docname="/home/cschalle/gnome-themes-extras/Wasp/icons/scalable/mimetypes/gnome-mime-audio-x-wav.svg"
   sodipodi:docbase="/home/cschalle/gnome-themes-extras/Wasp/icons/scalable/mimetypes">
  <defs
     id="defs658" />
  <sodipodi:namedview
     id="base" />
  <metadata
     id="metadata154">
    <sfw>
      <slices />
      <sliceSourceBounds
         y="394.853"
         x="271.829"
         width="49.342"
         height="49.295"
         bottomLeftOrigin="true" />
    </sfw>
  </metadata>
  <g
     id="Layer_1"
     stroke="#000000">
    <g
       id="Layer_1_2_">
      <path
         a:adobe-blending-mode="multiply"
         opacity="0.2"
         stroke="none"
         d="M6.345,29.51c0-8.675,9.625-15.708,21.498-15.708     c11.873,0,21.499,7.032,21.499,15.708c0,8.674-9.625,15.707-21.499,15.707C15.97,45.217,6.345,38.184,6.345,29.51z      M27.843,33.108c2.721,0,4.926-1.611,4.926-3.599c0-1.988-2.205-3.6-4.926-3.6c-2.72,0-4.925,1.611-4.925,3.6     C22.917,31.497,25.123,33.108,27.843,33.108z"
         id="path157" />
      <path
         stroke="none"
         d="M1.676,30.936c0,8.241,9.819,14.945,21.888,14.945s21.888-6.704,21.888-14.945     c0-8.24-9.819-14.944-21.888-14.944S1.676,22.695,1.676,30.936z M4.082,30.936c0-6.933,8.74-12.572,19.482-12.572     s19.483,5.639,19.483,12.572s-8.74,12.573-19.483,12.573S4.082,37.869,4.082,30.936z"
         id="path158" />
      <path
         fill="#D9D9D9"
         stroke="none"
         d="M3.12,30.936c0-7.615,9.153-13.788,20.444-13.788c11.291,0,20.444,6.173,20.444,13.788     c0,7.615-9.153,13.788-20.444,13.788C12.272,44.724,3.12,38.551,3.12,30.936z M23.564,34.052c2.401,0,4.348-1.395,4.348-3.116     c0-1.721-1.947-3.115-4.348-3.115c-2.402,0-4.348,1.395-4.348,3.115C19.216,32.657,21.162,34.052,23.564,34.052z"
         id="path159" />
      <linearGradient
         id="XMLID_1_"
         gradientUnits="userSpaceOnUse"
         x1="-225.3794"
         y1="384.5098"
         x2="-192.0994"
         y2="365.2955"
         gradientTransform="matrix(1 0 0 -1 233.2412 406.3789)">
        <stop
           offset="0"
           style="stop-color:#E6E6FA"
           id="stop161" />
        <stop
           offset="0.4246"
           style="stop-color:#FFFFFF"
           id="stop162" />
        <stop
           offset="0.4972"
           style="stop-color:#ADADD2"
           id="stop163" />
        <stop
           offset="0.8492"
           style="stop-color:#EBEBFF"
           id="stop164" />
      </linearGradient>
      <path
         fill="url(#XMLID_1_)"
         stroke="none"
         d="M3.12,30.936c0-7.615,9.153-13.788,20.444-13.788     c11.291,0,20.444,6.173,20.444,13.788c0,7.615-9.153,13.788-20.444,13.788C12.272,44.724,3.12,38.551,3.12,30.936z      M23.564,34.052c2.401,0,4.348-1.395,4.348-3.116c0-1.721-1.947-3.115-4.348-3.115c-2.402,0-4.348,1.395-4.348,3.115     C19.216,32.657,21.162,34.052,23.564,34.052z"
         id="path172" />
      <linearGradient
         id="XMLID_2_"
         gradientUnits="userSpaceOnUse"
         x1="-213.0366"
         y1="374.0039"
         x2="-201.6882"
         y2="378.8675"
         gradientTransform="matrix(1 0 0 -1 233.2412 406.3789)">
        <stop
           offset="0"
           style="stop-color:#FFFFFF"
           id="stop174" />
        <stop
           offset="1"
           style="stop-color:#CCCCF5"
           id="stop175" />
      </linearGradient>
      <path
         fill="url(#XMLID_2_)"
         stroke="none"
         d="M14.962,30.936c0-3.204,3.85-5.801,8.602-5.801c4.75,0,8.602,2.597,8.602,5.801     s-3.852,5.801-8.602,5.801C18.813,36.736,14.962,34.14,14.962,30.936z M23.564,34.086c2.495,0,4.516-1.438,4.516-3.209     c0-1.773-2.022-3.21-4.516-3.21c-2.495,0-4.517,1.438-4.517,3.21S21.069,34.086,23.564,34.086z"
         id="path179" />
      <path
         fill="none"
         stroke-width="2"
         d="M19.225,30.936c0-1.739,1.942-3.149,4.339-3.149c2.396,0,4.338,1.41,4.338,3.149     c0,1.74-1.942,3.15-4.338,3.15C21.167,34.086,19.225,32.676,19.225,30.936z"
         id="path180" />
      <linearGradient
         id="XMLID_3_"
         gradientUnits="userSpaceOnUse"
         x1="-197.7505"
         y1="376.5439"
         x2="-224.1998"
         y2="374.1025"
         gradientTransform="matrix(1 0 0 -1 233.2412 406.3789)">
        <stop
           offset="0"
           style="stop-color:#FFFFFF"
           id="stop182" />
        <stop
           offset="1"
           style="stop-color:#6A77B8"
           id="stop183" />
      </linearGradient>
      <path
         fill="url(#XMLID_3_)"
         stroke="none"
         d="M14.568,30.936c0,3.413,4.036,6.189,8.995,6.189c4.96,0,8.995-2.776,8.995-6.189     c0-3.412-4.035-6.189-8.995-6.189C18.604,24.746,14.568,27.523,14.568,30.936z M15.382,30.936c0-2.964,3.67-5.375,8.182-5.375     c4.511,0,8.181,2.412,8.181,5.375c0,2.964-3.67,5.376-8.181,5.376C19.052,36.312,15.382,33.899,15.382,30.936z"
         id="path187" />
      <path
         stroke="none"
         d="M17.084,1.49L10.511,0v21.579h1.696V2.966l4.877,1.105V1.49z"
         id="path188" />
      <g
         id="g189">
        <path
           fill="#D90F0F"
           stroke="none"
           d="M0.603,21.201c0-2.438,2.478-4.414,5.534-4.414s5.534,1.976,5.534,4.414      s-2.478,4.413-5.534,4.413S0.603,23.638,0.603,21.201z"
           id="path190" />
        <path
           fill="#DA1414"
           stroke="none"
           d="M6.064,16.843c2.975,0,5.387,1.924,5.387,4.296s-2.412,4.295-5.387,4.295      c-2.976,0-5.388-1.922-5.388-4.295C0.677,18.767,3.089,16.843,6.064,16.843z"
           id="path191" />
        <path
           fill="#DB1818"
           stroke="none"
           d="M5.992,16.899c2.895,0,5.24,1.871,5.24,4.179s-2.346,4.179-5.24,4.179      c-2.894,0-5.24-1.871-5.24-4.179S3.097,16.899,5.992,16.899z"
           id="path192" />
        <path
           fill="#DC1D1D"
           stroke="none"
           d="M5.919,16.955c2.813,0,5.093,1.818,5.093,4.062c0,2.243-2.28,4.062-5.093,4.062      c-2.813,0-5.093-1.819-5.093-4.062C0.826,18.773,3.106,16.955,5.919,16.955z"
           id="path193" />
        <path
           fill="#DD2121"
           stroke="none"
           d="M5.847,17.011c2.732,0,4.947,1.766,4.947,3.944c0,2.179-2.215,3.944-4.947,3.944      c-2.732,0-4.946-1.766-4.946-3.944C0.9,18.777,3.114,17.011,5.847,17.011z"
           id="path194" />
        <path
           fill="#DE2626"
           stroke="none"
           d="M5.774,17.066c2.65,0,4.799,1.714,4.799,3.828s-2.149,3.827-4.799,3.827      c-2.651,0-4.8-1.713-4.8-3.827S3.123,17.066,5.774,17.066z"
           id="path195" />
        <path
           fill="#DF2A2A"
           stroke="none"
           d="M5.702,17.122c2.569,0,4.652,1.661,4.652,3.71c0,2.048-2.083,3.71-4.652,3.71      s-4.653-1.661-4.653-3.71C1.049,18.783,3.132,17.122,5.702,17.122z"
           id="path196" />
        <path
           fill="#E02F2F"
           stroke="none"
           d="M5.629,17.178c2.489,0,4.505,1.609,4.505,3.593c0,1.985-2.017,3.593-4.505,3.593      s-4.505-1.608-4.505-3.593C1.124,18.787,3.14,17.178,5.629,17.178z"
           id="path197" />
        <path
           fill="#E03334"
           stroke="none"
           d="M5.557,17.234c2.407,0,4.358,1.556,4.358,3.476s-1.951,3.476-4.358,3.476      S1.198,22.63,1.198,20.71S3.149,17.234,5.557,17.234z"
           id="path198" />
        <path
           fill="#E13838"
           stroke="none"
           d="M5.484,17.29c2.326,0,4.212,1.504,4.212,3.359s-1.886,3.359-4.212,3.359      s-4.212-1.503-4.212-3.359C1.272,18.793,3.158,17.29,5.484,17.29z"
           id="path199" />
        <path
           fill="#E23C3D"
           stroke="none"
           d="M5.412,17.345c2.245,0,4.065,1.452,4.065,3.242s-1.82,3.242-4.065,3.242      c-2.245,0-4.065-1.452-4.065-3.242S3.167,17.345,5.412,17.345z"
           id="path200" />
        <path
           fill="#E34141"
           stroke="none"
           d="M5.339,17.401c2.164,0,3.917,1.399,3.917,3.125S7.502,23.65,5.339,23.65      c-2.164,0-3.918-1.399-3.918-3.125C1.421,18.8,3.175,17.401,5.339,17.401z"
           id="path201" />
        <path
           fill="#E44646"
           stroke="none"
           d="M5.266,17.457c2.083,0,3.771,1.347,3.771,3.007s-1.688,3.007-3.771,3.007      c-2.083,0-3.771-1.347-3.771-3.007C1.496,18.803,3.184,17.457,5.266,17.457z"
           id="path202" />
        <path
           fill="#E54A4B"
           stroke="none"
           d="M5.194,17.513c2.002,0,3.625,1.294,3.625,2.89c0,1.597-1.623,2.891-3.625,2.891      c-2.001,0-3.624-1.294-3.624-2.891C1.57,18.807,3.192,17.513,5.194,17.513z"
           id="path203" />
        <path
           fill="#E64F4F"
           stroke="none"
           d="M5.122,17.568c1.92,0,3.477,1.242,3.477,2.773c0,1.531-1.557,2.773-3.477,2.773      c-1.921,0-3.478-1.242-3.478-2.773C1.644,18.81,3.201,17.568,5.122,17.568z"
           id="path204" />
        <path
           fill="#E75354"
           stroke="none"
           d="M5.048,17.624c1.84,0,3.331,1.189,3.331,2.656s-1.491,2.656-3.331,2.656      c-1.839,0-3.331-1.189-3.331-2.656C1.719,18.813,3.209,17.624,5.048,17.624z"
           id="path205" />
        <path
           fill="#E85858"
           stroke="none"
           d="M4.977,17.68c1.758,0,3.184,1.137,3.184,2.539c0,1.402-1.426,2.539-3.184,2.539      c-1.758,0-3.184-1.136-3.184-2.539C1.793,18.817,3.218,17.68,4.977,17.68z"
           id="path206" />
        <path
           fill="#E95C5D"
           stroke="none"
           d="M4.904,17.736c1.677,0,3.036,1.084,3.036,2.421s-1.359,2.421-3.036,2.421      c-1.677,0-3.037-1.084-3.037-2.421C1.868,18.82,3.227,17.736,4.904,17.736z"
           id="path207" />
        <path
           fill="#EA6161"
           stroke="none"
           d="M4.832,17.792c1.596,0,2.89,1.032,2.89,2.305c0,1.273-1.293,2.304-2.89,2.304      s-2.89-1.031-2.89-2.304C1.941,18.824,3.235,17.792,4.832,17.792z"
           id="path208" />
        <path
           fill="#EB6566"
           stroke="none"
           d="M4.759,17.848c1.515,0,2.743,0.979,2.743,2.187c0,1.208-1.228,2.187-2.743,2.187      c-1.515,0-2.743-0.979-2.743-2.187S3.244,17.848,4.759,17.848z"
           id="path209" />
        <path
           fill="#EC6A6B"
           stroke="none"
           d="M4.686,17.903c1.434,0,2.596,0.927,2.596,2.07c0,1.144-1.163,2.07-2.596,2.07      c-1.433,0-2.596-0.927-2.596-2.07C2.09,18.83,3.253,17.903,4.686,17.903z"
           id="path210" />
        <path
           fill="#ED6F6F"
           stroke="none"
           d="M4.614,17.959c1.353,0,2.449,0.875,2.449,1.953c0,1.078-1.097,1.953-2.449,1.953      s-2.449-0.875-2.449-1.953C2.165,18.833,3.261,17.959,4.614,17.959z"
           id="path211" />
        <path
           fill="#EE7374"
           stroke="none"
           d="M4.541,18.015c1.271,0,2.302,0.822,2.302,1.836c0,1.014-1.031,1.836-2.302,1.836      c-1.271,0-2.302-0.822-2.302-1.836C2.239,18.837,3.27,18.015,4.541,18.015z"
           id="path212" />
        <path
           fill="#EF7878"
           stroke="none"
           d="M4.469,18.07c1.19,0,2.155,0.77,2.155,1.719s-0.964,1.719-2.155,1.719      c-1.19,0-2.155-0.77-2.155-1.719S3.279,18.07,4.469,18.07z"
           id="path213" />
        <path
           fill="#EF7C7D"
           stroke="none"
           d="M4.396,18.126c1.109,0,2.008,0.717,2.008,1.602c0,0.884-0.899,1.601-2.008,1.601      s-2.008-0.717-2.008-1.601C2.388,18.843,3.287,18.126,4.396,18.126z"
           id="path214" />
        <path
           fill="#F08182"
           stroke="none"
           d="M4.324,18.182c1.028,0,1.861,0.665,1.861,1.484c0,0.82-0.833,1.484-1.861,1.484      s-1.862-0.665-1.862-1.484C2.462,18.847,3.296,18.182,4.324,18.182z"
           id="path215" />
        <path
           fill="#F18586"
           stroke="none"
           d="M4.251,18.238c0.947,0,1.715,0.612,1.715,1.367c0,0.755-0.768,1.367-1.715,1.367      c-0.947,0-1.714-0.612-1.714-1.367C2.537,18.85,3.304,18.238,4.251,18.238z"
           id="path216" />
        <path
           fill="#F28A8B"
           stroke="none"
           d="M4.179,18.293c0.866,0,1.567,0.56,1.567,1.25c0,0.69-0.702,1.25-1.567,1.25      s-1.568-0.56-1.568-1.25C2.611,18.853,3.313,18.293,4.179,18.293z"
           id="path217" />
        <path
           fill="#F38E8F"
           stroke="none"
           d="M4.106,18.349c0.785,0,1.421,0.508,1.421,1.133s-0.636,1.132-1.421,1.132      s-1.421-0.507-1.421-1.132S3.321,18.349,4.106,18.349z"
           id="path218" />
        <path
           fill="#F49394"
           stroke="none"
           d="M4.034,18.405c0.703,0,1.273,0.455,1.273,1.016c0,0.561-0.57,1.016-1.273,1.016      c-0.704,0-1.274-0.455-1.274-1.016C2.76,18.86,3.331,18.405,4.034,18.405z"
           id="path219" />
        <path
           fill="#F59798"
           stroke="none"
           d="M3.961,18.461c0.623,0,1.127,0.402,1.127,0.898c0,0.496-0.504,0.898-1.127,0.898      s-1.127-0.402-1.127-0.898C2.834,18.863,3.339,18.461,3.961,18.461z"
           id="path220" />
        <path
           fill="#F69C9D"
           stroke="none"
           d="M2.908,19.298c0-0.432,0.439-0.782,0.98-0.782c0.542,0,0.98,0.35,0.98,0.782      c0,0.431-0.438,0.781-0.98,0.781C3.347,20.079,2.908,19.73,2.908,19.298z"
           id="path221" />
      </g>
      <path
         stroke="none"
         d="M0,21.158c0,2.75,2.767,4.987,6.167,4.987c3.401,0,6.167-2.237,6.167-4.987     c0-2.75-2.768-4.987-6.167-4.987S0,18.407,0,21.158 M0.869,21.158c0-2.363,2.377-4.284,5.297-4.284     c2.921,0,5.298,1.921,5.298,4.284s-2.376,4.284-5.298,4.284C3.246,25.441,0.869,23.521,0.869,21.158z"
         id="path222" />
      <path
         stroke="none"
         d="M26.013,7.554l-7.93-1.875v19.675h1.696V9.339l6.234,1.475V7.554z"
         id="path223" />
      <g
         id="g224">
        <g
           id="g225">
          <path
             fill="#F58B8C"
             stroke="none"
             d="M3.688,19.934c0-0.489,0.306-0.886,0.683-0.886s0.684,0.397,0.684,0.886       c0,0.488-0.307,0.884-0.684,0.884S3.688,20.421,3.688,19.934z"
             id="path226" />
        </g>
        <g
           id="g227">
          <path
             fill="#F58C8D"
             stroke="none"
             d="M4.372,19.054c0.372,0,0.673,0.394,0.673,0.88c0,0.485-0.301,0.879-0.673,0.879       s-0.673-0.394-0.673-0.879C3.698,19.448,4,19.054,4.372,19.054z"
             id="path228" />
        </g>
        <g
           id="g229">
          <path
             fill="#F68D8E"
             stroke="none"
             d="M4.372,19.059c0.366,0,0.663,0.392,0.663,0.875c0,0.482-0.297,0.874-0.663,0.874       c-0.366,0-0.662-0.392-0.662-0.874C3.709,19.45,4.005,19.059,4.372,19.059z"
             id="path230" />
        </g>
        <g
           id="g231">
          <path
             fill="#F68F90"
             stroke="none"
             d="M4.372,19.063c0.36,0,0.652,0.39,0.652,0.87c0,0.479-0.292,0.869-0.652,0.869       s-0.652-0.39-0.652-0.869C3.72,19.453,4.012,19.063,4.372,19.063z"
             id="path232" />
        </g>
        <g
           id="g233">
          <path
             fill="#F69091"
             stroke="none"
             d="M4.372,19.068c0.354,0,0.642,0.387,0.642,0.865c0,0.478-0.288,0.865-0.642,0.865       s-0.642-0.387-0.642-0.865C3.729,19.455,4.018,19.068,4.372,19.068z"
             id="path234" />
        </g>
        <g
           id="g235">
          <path
             fill="#F79191"
             stroke="none"
             d="M4.372,19.073c0.348,0,0.631,0.384,0.631,0.86c0,0.475-0.284,0.859-0.631,0.859       c-0.349,0-0.631-0.385-0.631-0.859C3.74,19.458,4.023,19.073,4.372,19.073z"
             id="path236" />
        </g>
        <g
           id="g237">
          <path
             fill="#F79293"
             stroke="none"
             d="M4.372,19.078c0.342,0,0.621,0.383,0.621,0.856c0,0.472-0.279,0.854-0.621,0.854       c-0.343,0-0.621-0.382-0.621-0.854C3.751,19.46,4.028,19.078,4.372,19.078z"
             id="path238" />
        </g>
        <g
           id="g239">
          <path
             fill="#F79394"
             stroke="none"
             d="M4.372,19.083c0.337,0,0.611,0.381,0.611,0.851c0,0.469-0.273,0.851-0.611,0.851       c-0.337,0-0.611-0.381-0.611-0.851C3.761,19.463,4.035,19.083,4.372,19.083z"
             id="path240" />
        </g>
        <g
           id="g241">
          <path
             fill="#F79495"
             stroke="none"
             d="M4.372,19.087c0.331,0,0.6,0.379,0.6,0.847c0,0.466-0.269,0.845-0.6,0.845       c-0.332,0-0.6-0.379-0.6-0.845C3.771,19.466,4.04,19.087,4.372,19.087z"
             id="path242" />
        </g>
        <g
           id="g243">
          <path
             fill="#F79696"
             stroke="none"
             d="M4.372,19.092c0.325,0,0.59,0.377,0.59,0.842c0,0.464-0.265,0.84-0.59,0.84       c-0.326,0-0.59-0.376-0.59-0.84C3.781,19.469,4.046,19.092,4.372,19.092z"
             id="path244" />
        </g>
        <g
           id="g245">
          <path
             fill="#F79798"
             stroke="none"
             d="M4.372,19.097c0.319,0,0.58,0.374,0.58,0.836c0,0.461-0.26,0.836-0.58,0.836       c-0.32,0-0.579-0.375-0.579-0.836C3.792,19.471,4.052,19.097,4.372,19.097z"
             id="path246" />
        </g>
        <g
           id="g247">
          <path
             fill="#F79899"
             stroke="none"
             d="M4.372,19.102c0.314,0,0.569,0.373,0.569,0.832s-0.255,0.832-0.569,0.832       c-0.314,0-0.569-0.373-0.569-0.832S4.057,19.102,4.372,19.102z"
             id="path248" />
        </g>
        <g
           id="g249">
          <path
             fill="#F7999A"
             stroke="none"
             d="M4.372,19.106c0.308,0,0.559,0.37,0.559,0.827c0,0.456-0.25,0.826-0.559,0.826       c-0.309,0-0.559-0.37-0.559-0.826C3.813,19.477,4.063,19.106,4.372,19.106z"
             id="path250" />
        </g>
        <g
           id="g251">
          <path
             fill="#F79A9B"
             stroke="none"
             d="M4.372,19.111c0.302,0,0.548,0.368,0.548,0.823c0,0.454-0.246,0.821-0.548,0.821       c-0.303,0-0.548-0.368-0.548-0.821C3.823,19.479,4.069,19.111,4.372,19.111z"
             id="path252" />
        </g>
        <g
           id="g253">
          <path
             fill="#F69C9D"
             stroke="none"
             d="M4.372,19.116c0.297,0,0.538,0.366,0.538,0.817c0,0.451-0.241,0.817-0.538,0.817       s-0.538-0.366-0.538-0.817S4.075,19.116,4.372,19.116z"
             id="path254" />
        </g>
        <g
           id="g255">
          <path
             fill="#F69D9E"
             stroke="none"
             d="M4.372,19.12c0.291,0,0.528,0.364,0.528,0.813c0,0.448-0.236,0.812-0.528,0.812       c-0.291,0-0.528-0.364-0.528-0.812C3.844,19.484,4.081,19.12,4.372,19.12z"
             id="path256" />
        </g>
        <g
           id="g257">
          <path
             fill="#F69E9F"
             stroke="none"
             d="M4.372,19.125c0.285,0,0.517,0.361,0.517,0.808c0,0.446-0.232,0.807-0.517,0.807       c-0.286,0-0.518-0.361-0.518-0.807C3.854,19.487,4.086,19.125,4.372,19.125z"
             id="path258" />
        </g>
        <g
           id="g259">
          <path
             fill="#F69FA0"
             stroke="none"
             d="M4.372,19.13c0.28,0,0.507,0.36,0.507,0.804c0,0.443-0.227,0.803-0.507,0.803       s-0.507-0.36-0.507-0.803C3.865,19.49,4.092,19.13,4.372,19.13z"
             id="path260" />
        </g>
        <g
           id="g261">
          <path
             fill="#F6A1A1"
             stroke="none"
             d="M4.372,19.135c0.274,0,0.496,0.357,0.496,0.799c0,0.44-0.222,0.797-0.496,0.797       s-0.497-0.357-0.497-0.797C3.875,19.492,4.098,19.135,4.372,19.135z"
             id="path262" />
        </g>
        <g
           id="g263">
          <path
             fill="#F6A3A3"
             stroke="none"
             d="M4.372,19.14c0.268,0,0.486,0.354,0.486,0.794c0,0.438-0.218,0.792-0.486,0.792       c-0.269,0-0.486-0.355-0.486-0.792C3.886,19.494,4.103,19.14,4.372,19.14z"
             id="path264" />
        </g>
        <g
           id="g265">
          <path
             fill="#F6A4A5"
             stroke="none"
             d="M4.372,19.145c0.263,0,0.476,0.353,0.476,0.788s-0.213,0.788-0.476,0.788       c-0.262,0-0.477-0.353-0.477-0.788C3.895,19.498,4.109,19.145,4.372,19.145z"
             id="path266" />
        </g>
        <g
           id="g267">
          <path
             fill="#F6A5A6"
             stroke="none"
             d="M4.372,19.149c0.256,0,0.465,0.351,0.465,0.784c0,0.433-0.209,0.783-0.465,0.783       c-0.257,0-0.465-0.351-0.465-0.783C3.907,19.5,4.115,19.149,4.372,19.149z"
             id="path268" />
        </g>
        <g
           id="g269">
          <path
             fill="#F6A6A6"
             stroke="none"
             d="M4.372,19.154c0.251,0,0.455,0.35,0.455,0.779s-0.204,0.778-0.455,0.778       c-0.251,0-0.455-0.349-0.455-0.778S4.12,19.154,4.372,19.154z"
             id="path270" />
        </g>
        <g
           id="g271">
          <path
             fill="#F5A7A7"
             stroke="none"
             d="M4.372,19.16c0.246,0,0.444,0.346,0.444,0.773s-0.199,0.773-0.444,0.773       s-0.445-0.346-0.445-0.773S4.126,19.16,4.372,19.16z"
             id="path272" />
        </g>
        <g
           id="g273">
          <path
             fill="#F4A7A8"
             stroke="none"
             d="M4.372,19.165c0.24,0,0.435,0.344,0.435,0.769s-0.195,0.769-0.435,0.769       c-0.239,0-0.434-0.344-0.434-0.769S4.132,19.165,4.372,19.165z"
             id="path274" />
        </g>
        <g
           id="g275">
          <path
             fill="#F4A9A9"
             stroke="none"
             d="M4.372,19.168c0.233,0,0.424,0.343,0.424,0.765s-0.19,0.764-0.424,0.764       c-0.234,0-0.424-0.342-0.424-0.764S4.138,19.168,4.372,19.168z"
             id="path276" />
        </g>
        <g
           id="g277">
          <path
             fill="#F4AAAB"
             stroke="none"
             d="M4.372,19.173c0.228,0,0.414,0.341,0.414,0.76S4.6,20.692,4.372,20.692       c-0.229,0-0.414-0.34-0.414-0.759S4.143,19.173,4.372,19.173z"
             id="path278" />
        </g>
        <g
           id="g279">
          <path
             fill="#F4ABAC"
             stroke="none"
             d="M4.372,19.179c0.222,0,0.403,0.338,0.403,0.755s-0.181,0.754-0.403,0.754       c-0.223,0-0.403-0.337-0.403-0.754S4.149,19.179,4.372,19.179z"
             id="path280" />
        </g>
        <g
           id="g281">
          <path
             fill="#F3ABAC"
             stroke="none"
             d="M4.372,19.184c0.216,0,0.393,0.335,0.393,0.75c0,0.414-0.176,0.749-0.393,0.749       c-0.217,0-0.393-0.335-0.393-0.749C3.979,19.519,4.155,19.184,4.372,19.184z"
             id="path282" />
        </g>
        <g
           id="g283">
          <path
             fill="#F3ACAD"
             stroke="none"
             d="M4.372,19.188c0.211,0,0.382,0.333,0.382,0.745s-0.171,0.745-0.382,0.745       c-0.211,0-0.382-0.333-0.382-0.745S4.16,19.188,4.372,19.188z"
             id="path284" />
        </g>
        <g
           id="g285">
          <path
             fill="#F4AFAF"
             stroke="none"
             d="M4.372,19.193c0.205,0,0.372,0.331,0.372,0.74c0,0.409-0.167,0.74-0.372,0.74       C4.166,20.673,4,20.342,4,19.933C4,19.523,4.166,19.193,4.372,19.193z"
             id="path286" />
        </g>
        <g
           id="g287">
          <path
             fill="#F4B0B1"
             stroke="none"
             d="M4.372,19.198c0.199,0,0.361,0.33,0.361,0.736c0,0.406-0.162,0.735-0.361,0.735       c-0.2,0-0.362-0.33-0.362-0.735C4.01,19.527,4.172,19.198,4.372,19.198z"
             id="path288" />
        </g>
        <g
           id="g289">
          <path
             fill="#F4B1B2"
             stroke="none"
             d="M4.372,19.203c0.193,0,0.351,0.327,0.351,0.73s-0.158,0.73-0.351,0.73       c-0.194,0-0.351-0.327-0.351-0.73S4.178,19.203,4.372,19.203z"
             id="path290" />
        </g>
        <g
           id="g291">
          <path
             fill="#F4B2B2"
             stroke="none"
             d="M4.372,19.208c0.188,0,0.341,0.325,0.341,0.726s-0.153,0.725-0.341,0.725       c-0.188,0-0.341-0.324-0.341-0.725S4.184,19.208,4.372,19.208z"
             id="path292" />
        </g>
        <g
           id="g293">
          <path
             fill="#F4B3B4"
             stroke="none"
             d="M4.372,19.212c0.182,0,0.33,0.323,0.33,0.722c0,0.398-0.148,0.721-0.33,0.721       c-0.183,0-0.331-0.323-0.331-0.721C4.041,19.535,4.189,19.212,4.372,19.212z"
             id="path294" />
        </g>
        <g
           id="g295">
          <path
             fill="#F4B4B5"
             stroke="none"
             d="M4.372,19.217c0.177,0,0.32,0.321,0.32,0.716s-0.143,0.716-0.32,0.716       s-0.32-0.321-0.32-0.716S4.195,19.217,4.372,19.217z"
             id="path296" />
        </g>
        <g
           id="g297">
          <path
             fill="#F5B6B7"
             stroke="none"
             d="M4.372,19.221c0.171,0,0.31,0.319,0.31,0.712s-0.139,0.712-0.31,0.712       s-0.31-0.319-0.31-0.712S4.2,19.221,4.372,19.221z"
             id="path298" />
        </g>
        <g
           id="g299">
          <path
             fill="#F5B7B8"
             stroke="none"
             d="M4.372,19.227c0.165,0,0.299,0.316,0.299,0.707c0,0.39-0.134,0.707-0.299,0.707       c-0.166,0-0.3-0.316-0.3-0.707C4.072,19.543,4.206,19.227,4.372,19.227z"
             id="path300" />
        </g>
        <g
           id="g301">
          <path
             fill="#F5B8B9"
             stroke="none"
             d="M4.372,19.231c0.159,0,0.289,0.315,0.289,0.703c0,0.387-0.13,0.702-0.289,0.702       c-0.16,0-0.289-0.314-0.289-0.702C4.083,19.545,4.212,19.231,4.372,19.231z"
             id="path302" />
        </g>
        <g
           id="g303">
          <path
             fill="#F6B9BA"
             stroke="none"
             d="M4.372,19.236c0.154,0,0.278,0.312,0.278,0.697S4.525,20.63,4.372,20.63       c-0.154,0-0.278-0.312-0.278-0.697S4.217,19.236,4.372,19.236z"
             id="path304" />
        </g>
        <g
           id="g305">
          <path
             fill="#F6BABB"
             stroke="none"
             d="M4.372,19.24c0.148,0,0.268,0.31,0.268,0.693c0,0.382-0.12,0.692-0.268,0.692       s-0.269-0.31-0.269-0.692C4.103,19.55,4.224,19.24,4.372,19.24z"
             id="path306" />
        </g>
        <g
           id="g307">
          <path
             fill="#F7BCBD"
             stroke="none"
             d="M4.372,19.246c0.142,0,0.258,0.309,0.258,0.688s-0.116,0.687-0.258,0.687       c-0.143,0-0.258-0.308-0.258-0.687S4.229,19.246,4.372,19.246z"
             id="path308" />
        </g>
        <g
           id="g309">
          <path
             fill="#F7BDBE"
             stroke="none"
             d="M4.372,19.25c0.136,0,0.247,0.306,0.247,0.684c0,0.377-0.111,0.683-0.247,0.683       c-0.137,0-0.248-0.306-0.248-0.683C4.124,19.556,4.234,19.25,4.372,19.25z"
             id="path310" />
        </g>
        <g
           id="g311">
          <path
             fill="#F7BEBF"
             stroke="none"
             d="M4.372,19.256c0.131,0,0.237,0.303,0.237,0.677S4.502,20.61,4.372,20.61       s-0.237-0.303-0.237-0.677S4.241,19.256,4.372,19.256z"
             id="path312" />
        </g>
        <g
           id="g313">
          <path
             fill="#F8C0C0"
             stroke="none"
             d="M4.372,19.26c0.125,0,0.227,0.301,0.227,0.673s-0.102,0.673-0.227,0.673       c-0.125,0-0.227-0.301-0.227-0.673S4.247,19.26,4.372,19.26z"
             id="path314" />
        </g>
        <g
           id="g315">
          <path
             fill="#F8C1C1"
             stroke="none"
             d="M4.372,19.265c0.119,0,0.216,0.3,0.216,0.669c0,0.369-0.097,0.668-0.216,0.668       c-0.12,0-0.217-0.299-0.217-0.668C4.155,19.564,4.252,19.265,4.372,19.265z"
             id="path316" />
        </g>
        <g
           id="g317">
          <path
             fill="#F9C3C3"
             stroke="none"
             d="M4.372,19.27c0.113,0,0.206,0.297,0.206,0.664s-0.092,0.663-0.206,0.663       c-0.114,0-0.206-0.297-0.206-0.663S4.258,19.27,4.372,19.27z"
             id="path318" />
        </g>
        <g
           id="g319">
          <path
             fill="#F9C4C4"
             stroke="none"
             d="M4.372,19.274c0.107,0,0.195,0.295,0.195,0.659c0,0.363-0.088,0.658-0.195,0.658       c-0.108,0-0.196-0.295-0.196-0.658C4.176,19.569,4.264,19.274,4.372,19.274z"
             id="path320" />
        </g>
        <g
           id="g321">
          <path
             fill="#F9C5C5"
             stroke="none"
             d="M4.372,19.28c0.102,0,0.185,0.292,0.185,0.654c0,0.361-0.083,0.653-0.185,0.653       s-0.186-0.292-0.186-0.653C4.186,19.572,4.27,19.28,4.372,19.28z"
             id="path322" />
        </g>
        <g
           id="g323">
          <path
             fill="#F9C6C6"
             stroke="none"
             d="M4.372,19.284c0.096,0,0.174,0.291,0.174,0.649c0,0.358-0.078,0.649-0.174,0.649       c-0.097,0-0.175-0.291-0.175-0.649C4.197,19.574,4.275,19.284,4.372,19.284z"
             id="path324" />
        </g>
        <g
           id="g325">
          <path
             fill="#F9C7C7"
             stroke="none"
             d="M4.372,19.289c0.09,0,0.164,0.288,0.164,0.644c0,0.355-0.074,0.644-0.164,0.644       s-0.165-0.288-0.165-0.644C4.207,19.577,4.281,19.289,4.372,19.289z"
             id="path326" />
        </g>
        <g
           id="g327">
          <path
             fill="#F9C8C8"
             stroke="none"
             d="M4.372,19.294c0.084,0,0.154,0.286,0.154,0.64c0,0.354-0.069,0.639-0.154,0.639       c-0.085,0-0.154-0.286-0.154-0.639C4.217,19.58,4.286,19.294,4.372,19.294z"
             id="path328" />
        </g>
        <g
           id="g329">
          <path
             fill="#F8C9CA"
             stroke="none"
             d="M4.372,19.298c0.079,0,0.144,0.285,0.144,0.635s-0.064,0.634-0.144,0.634       s-0.144-0.284-0.144-0.634S4.292,19.298,4.372,19.298z"
             id="path330" />
        </g>
        <g
           id="g331">
          <path
             fill="#F8CACB"
             stroke="none"
             d="M4.372,19.303c0.073,0,0.133,0.282,0.133,0.63s-0.06,0.63-0.133,0.63       s-0.133-0.282-0.133-0.63S4.298,19.303,4.372,19.303z"
             id="path332" />
        </g>
        <g
           id="g333">
          <path
             fill="#F8CCCC"
             stroke="none"
             d="M4.372,19.308c0.067,0,0.123,0.28,0.123,0.626c0,0.345-0.056,0.625-0.123,0.625       c-0.068,0-0.123-0.279-0.123-0.625C4.249,19.587,4.304,19.308,4.372,19.308z"
             id="path334" />
        </g>
        <g
           id="g335">
          <path
             fill="#F8CDCD"
             stroke="none"
             d="M4.372,19.313c0.062,0,0.112,0.278,0.112,0.621c0,0.342-0.05,0.62-0.112,0.62       s-0.112-0.277-0.112-0.62C4.259,19.591,4.31,19.313,4.372,19.313z"
             id="path336" />
        </g>
        <g
           id="g337">
          <path
             fill="#F7CECE"
             stroke="none"
             d="M4.372,19.318c0.057,0,0.102,0.275,0.102,0.615s-0.045,0.615-0.102,0.615       S4.27,20.273,4.27,19.933S4.315,19.318,4.372,19.318z"
             id="path338" />
        </g>
        <g
           id="g339">
          <path
             fill="#F7D0D0"
             stroke="none"
             d="M4.372,19.322c0.05,0,0.091,0.273,0.091,0.611s-0.041,0.611-0.091,0.611       c-0.051,0-0.092-0.273-0.092-0.611S4.321,19.322,4.372,19.322z"
             id="path340" />
        </g>
        <g
           id="g341">
          <path
             fill="#F6D0D1"
             stroke="none"
             d="M4.372,19.328c0.044,0,0.081,0.271,0.081,0.606s-0.037,0.605-0.081,0.605       c-0.045,0-0.081-0.271-0.081-0.605S4.326,19.328,4.372,19.328z"
             id="path342" />
        </g>
        <g
           id="g343">
          <path
             fill="#F6D2D2"
             stroke="none"
             d="M4.372,19.331c0.04,0,0.071,0.27,0.071,0.602s-0.032,0.601-0.071,0.601       S4.3,20.265,4.3,19.933S4.332,19.331,4.372,19.331z"
             id="path344" />
        </g>
        <g
           id="g345">
          <path
             fill="#F6D3D4"
             stroke="none"
             d="M4.372,19.337c0.033,0,0.061,0.267,0.061,0.596s-0.027,0.596-0.061,0.596       s-0.061-0.267-0.061-0.596S4.338,19.337,4.372,19.337z"
             id="path346" />
        </g>
        <g
           id="g347">
          <path
             fill="#F6D4D4"
             stroke="none"
             d="M4.372,19.341c0.027,0,0.05,0.265,0.05,0.592c0,0.327-0.022,0.591-0.05,0.591       c-0.028,0-0.051-0.265-0.051-0.591C4.321,19.606,4.344,19.341,4.372,19.341z"
             id="path348" />
        </g>
        <g
           id="g349">
          <path
             fill="#F5D6D6"
             stroke="none"
             d="M4.372,19.346c0.022,0,0.04,0.263,0.04,0.587c0,0.324-0.018,0.586-0.04,0.586       c-0.022,0-0.04-0.262-0.04-0.586C4.332,19.609,4.349,19.346,4.372,19.346z"
             id="path350" />
        </g>
        <g
           id="g351">
          <path
             fill="#F5D7D7"
             stroke="none"
             d="M4.372,19.351c0.016,0,0.029,0.261,0.029,0.582s-0.013,0.582-0.029,0.582       s-0.03-0.261-0.03-0.582S4.355,19.351,4.372,19.351z"
             id="path352" />
        </g>
        <g
           id="g353">
          <path
             fill="#F5D8D9"
             stroke="none"
             d="M4.372,19.356c0.01,0,0.019,0.258,0.019,0.577c0,0.318-0.008,0.577-0.019,0.577       c-0.011,0-0.019-0.258-0.019-0.577S4.361,19.356,4.372,19.356z"
             id="path354" />
        </g>
        <g
           id="g355">
          <path
             fill="#F5D9D9"
             stroke="none"
             d="M4.372,19.361c0.005,0,0.008,0.257,0.008,0.573s-0.004,0.572-0.008,0.572       c-0.005,0-0.009-0.256-0.009-0.572S4.366,19.361,4.372,19.361z"
             id="path356" />
        </g>
        <g
           id="g357">
          <path
             fill="#F5DADA"
             stroke="none"
             d="M4.372,19.366c-0.001,0-0.002,0.254-0.002,0.567c0,0.313,0.001,0.567,0.002,0.567       s0.002-0.254,0.002-0.567S4.373,19.366,4.372,19.366z"
             id="path358" />
        </g>
        <g
           id="g359">
          <path
             fill="#F5DBDB"
             stroke="none"
             d="M4.372,19.37c-0.007,0-0.012,0.252-0.012,0.563s0.005,0.562,0.012,0.562       c0.006,0,0.012-0.251,0.012-0.562S4.378,19.37,4.372,19.37z"
             id="path360" />
        </g>
        <g
           id="g361">
          <path
             fill="#F5DCDD"
             stroke="none"
             d="M4.372,19.375c-0.013,0-0.023,0.25-0.023,0.559s0.01,0.557,0.023,0.557       c0.012,0,0.022-0.249,0.022-0.557S4.384,19.375,4.372,19.375z"
             id="path362" />
        </g>
        <g
           id="g363">
          <path
             fill="#F5DDDE"
             stroke="none"
             d="M4.372,19.38c-0.019,0-0.033,0.248-0.033,0.553s0.014,0.553,0.033,0.553       c0.018,0,0.033-0.248,0.033-0.553S4.39,19.38,4.372,19.38z"
             id="path364" />
        </g>
        <g
           id="g365">
          <path
             fill="#F5DEDF"
             stroke="none"
             d="M4.372,19.385c-0.024,0-0.043,0.245-0.043,0.548s0.02,0.548,0.043,0.548       s0.043-0.245,0.043-0.548S4.396,19.385,4.372,19.385z"
             id="path366" />
        </g>
        <g
           id="g367">
          <path
             fill="#F5DFE0"
             stroke="none"
             d="M4.372,19.39c-0.03,0-0.054,0.244-0.054,0.544s0.024,0.543,0.054,0.543       s0.053-0.243,0.053-0.543S4.401,19.39,4.372,19.39z"
             id="path368" />
        </g>
        <g
           id="g369">
          <path
             fill="#F5E0E1"
             stroke="none"
             d="M4.372,19.395c-0.035,0-0.064,0.241-0.064,0.539c0,0.298,0.029,0.539,0.064,0.539       s0.064-0.241,0.064-0.539C4.436,19.636,4.407,19.395,4.372,19.395z"
             id="path370" />
        </g>
        <g
           id="g371">
          <path
             fill="#F5E3E3"
             stroke="none"
             d="M4.372,19.399c-0.042,0-0.074,0.238-0.074,0.534c0,0.295,0.033,0.534,0.074,0.534       c0.041,0,0.074-0.239,0.074-0.534S4.413,19.399,4.372,19.399z"
             id="path372" />
        </g>
        <g
           id="g373">
          <path
             fill="#F5E4E4"
             stroke="none"
             d="M4.372,19.404c-0.047,0-0.084,0.237-0.084,0.529s0.037,0.529,0.084,0.529       c0.047,0,0.084-0.237,0.084-0.529S4.418,19.404,4.372,19.404z"
             id="path374" />
        </g>
        <g
           id="g375">
          <path
             fill="#F5E6E5"
             stroke="none"
             d="M4.372,19.409c-0.052,0-0.095,0.234-0.095,0.524c0,0.29,0.043,0.524,0.095,0.524       s0.095-0.234,0.095-0.524C4.466,19.643,4.424,19.409,4.372,19.409z"
             id="path376" />
        </g>
        <g
           id="g377">
          <path
             fill="#F5E7E6"
             stroke="none"
             d="M4.372,19.414c-0.058,0-0.106,0.233-0.106,0.52s0.047,0.52,0.106,0.52       c0.058,0,0.105-0.233,0.105-0.52S4.429,19.414,4.372,19.414z"
             id="path378" />
        </g>
        <g
           id="g379">
          <path
             fill="#F5E8E7"
             stroke="none"
             d="M4.372,19.418c-0.064,0-0.116,0.23-0.116,0.515c0,0.284,0.052,0.514,0.116,0.514       c0.063,0,0.116-0.23,0.116-0.514C4.487,19.648,4.435,19.418,4.372,19.418z"
             id="path380" />
        </g>
        <g
           id="g381">
          <path
             fill="#F5E9E8"
             stroke="none"
             d="M4.372,19.424c-0.07,0-0.126,0.228-0.126,0.51c0,0.281,0.057,0.51,0.126,0.51       s0.126-0.229,0.126-0.51C4.498,19.651,4.441,19.424,4.372,19.424z"
             id="path382" />
        </g>
        <g
           id="g383">
          <path
             fill="#F5EBEA"
             stroke="none"
             d="M4.372,19.428c-0.075,0-0.137,0.226-0.137,0.505s0.062,0.505,0.137,0.505       c0.075,0,0.136-0.226,0.136-0.505S4.446,19.428,4.372,19.428z"
             id="path384" />
        </g>
        <g
           id="g385">
          <path
             fill="#F6ECEB"
             stroke="none"
             d="M4.372,19.433c-0.081,0-0.147,0.224-0.147,0.5c0,0.276,0.066,0.5,0.147,0.5       s0.147-0.225,0.147-0.5C4.519,19.657,4.453,19.433,4.372,19.433z"
             id="path386" />
        </g>
        <g
           id="g387">
          <path
             fill="#F6EDEC"
             stroke="none"
             d="M4.372,19.438c-0.087,0-0.158,0.222-0.158,0.496c0,0.274,0.071,0.496,0.158,0.496       c0.086,0,0.157-0.222,0.157-0.496C4.529,19.659,4.458,19.438,4.372,19.438z"
             id="path388" />
        </g>
        <g
           id="g389">
          <path
             fill="#F6EEED"
             stroke="none"
             d="M4.372,19.442c-0.093,0-0.168,0.22-0.168,0.491s0.075,0.491,0.168,0.491       c0.092,0,0.167-0.219,0.167-0.491S4.463,19.442,4.372,19.442z"
             id="path390" />
        </g>
        <g
           id="g391">
          <path
             fill="#F7EFEE"
             stroke="none"
             d="M4.372,19.448c-0.099,0-0.178,0.217-0.178,0.485c0,0.268,0.08,0.485,0.178,0.485       c0.098,0,0.178-0.217,0.178-0.485C4.55,19.665,4.47,19.448,4.372,19.448z"
             id="path392" />
        </g>
        <g
           id="g393">
          <path
             fill="#F8F2F0"
             stroke="none"
             d="M4.372,19.452c-0.104,0-0.188,0.216-0.188,0.481s0.084,0.481,0.188,0.481       c0.104,0,0.188-0.215,0.188-0.481S4.476,19.452,4.372,19.452z"
             id="path394" />
        </g>
        <g
           id="g395">
          <path
             fill="#F8F3F1"
             stroke="none"
             d="M4.372,19.457c-0.11,0-0.199,0.213-0.199,0.477c0,0.263,0.089,0.476,0.199,0.476       c0.109,0,0.199-0.212,0.199-0.476C4.57,19.67,4.481,19.457,4.372,19.457z"
             id="path396" />
        </g>
        <g
           id="g397">
          <path
             fill="#F8F4F2"
             stroke="none"
             d="M4.372,19.461c-0.116,0-0.209,0.211-0.209,0.472c0,0.26,0.094,0.471,0.209,0.471       c0.115,0,0.209-0.21,0.209-0.471C4.581,19.672,4.487,19.461,4.372,19.461z"
             id="path398" />
        </g>
        <g
           id="g399">
          <path
             fill="#F9F5F3"
             stroke="none"
             d="M4.372,19.466c-0.122,0-0.22,0.209-0.22,0.467c0,0.257,0.098,0.466,0.22,0.466       c0.121,0,0.219-0.209,0.219-0.466C4.591,19.675,4.493,19.466,4.372,19.466z"
             id="path400" />
        </g>
        <g
           id="g401">
          <path
             fill="#F9F6F4"
             stroke="none"
             d="M4.372,19.471c-0.127,0-0.23,0.207-0.23,0.462c0,0.255,0.103,0.461,0.23,0.461       s0.23-0.206,0.23-0.461C4.602,19.678,4.499,19.471,4.372,19.471z"
             id="path402" />
        </g>
        <g
           id="g403">
          <path
             fill="#FAF7F6"
             stroke="none"
             d="M4.372,19.476c-0.133,0-0.241,0.205-0.241,0.458c0,0.252,0.107,0.457,0.241,0.457       c0.133,0,0.24-0.204,0.24-0.457C4.612,19.681,4.504,19.476,4.372,19.476z"
             id="path404" />
        </g>
        <g
           id="g405">
          <path
             fill="#FAF8F6"
             stroke="none"
             d="M4.372,19.481c-0.139,0-0.251,0.203-0.251,0.452s0.113,0.452,0.251,0.452       c0.138,0,0.25-0.202,0.25-0.452S4.51,19.481,4.372,19.481z"
             id="path406" />
        </g>
        <g
           id="g407">
          <path
             fill="#FBFAF8"
             stroke="none"
             d="M4.372,19.485c-0.144,0-0.262,0.201-0.262,0.448s0.118,0.447,0.262,0.447       s0.261-0.2,0.261-0.447S4.516,19.485,4.372,19.485z"
             id="path408" />
        </g>
        <g
           id="g409">
          <path
             fill="#FBFBF9"
             stroke="none"
             d="M4.372,19.49c-0.15,0-0.272,0.199-0.272,0.443s0.122,0.442,0.272,0.442       s0.271-0.198,0.271-0.442C4.643,19.689,4.521,19.49,4.372,19.49z"
             id="path410" />
        </g>
        <g
           id="g411">
          <path
             fill="#FCFBFA"
             stroke="none"
             d="M4.372,19.495c-0.156,0-0.283,0.196-0.283,0.438s0.126,0.438,0.283,0.438       c0.155,0,0.282-0.196,0.282-0.438S4.527,19.495,4.372,19.495z"
             id="path412" />
        </g>
        <g
           id="g413">
          <path
             fill="#FCFCFB"
             stroke="none"
             d="M4.372,19.5c-0.162,0-0.292,0.194-0.292,0.433s0.13,0.432,0.292,0.432       c0.161,0,0.292-0.193,0.292-0.432S4.533,19.5,4.372,19.5z"
             id="path414" />
        </g>
        <g
           id="g415">
          <path
             fill="#FEFEFD"
             stroke="none"
             d="M4.372,19.504c-0.168,0-0.303,0.192-0.303,0.429c0,0.236,0.135,0.428,0.303,0.428       c0.167,0,0.302-0.191,0.302-0.428C4.674,19.696,4.539,19.504,4.372,19.504z"
             id="path416" />
        </g>
        <g
           id="g417">
          <path
             fill="#FEFEFD"
             stroke="none"
             d="M4.372,19.51c-0.173,0-0.314,0.189-0.314,0.423s0.141,0.423,0.314,0.423       c0.172,0,0.313-0.188,0.313-0.423S4.544,19.51,4.372,19.51z"
             id="path418" />
        </g>
        <g
           id="g419">
          <path
             fill="#FFFFFF"
             stroke="none"
             d="M4.048,19.933c0-0.231,0.145-0.418,0.324-0.418c0.178,0,0.323,0.187,0.323,0.418       s-0.145,0.418-0.323,0.418C4.193,20.352,4.048,20.165,4.048,19.933z"
             id="path420" />
        </g>
      </g>
      <g
         id="g421">
        <path
           fill="#D90F0F"
           stroke="none"
           d="M8.239,25.264c0-2.438,2.477-4.414,5.534-4.414c3.056,0,5.534,1.976,5.534,4.414      s-2.478,4.413-5.534,4.413C10.716,29.677,8.239,27.7,8.239,25.264z"
           id="path422" />
        <path
           fill="#DA1414"
           stroke="none"
           d="M13.7,20.906c2.975,0,5.387,1.923,5.387,4.296c0,2.373-2.412,4.296-5.387,4.296      c-2.976,0-5.387-1.923-5.387-4.296C8.313,22.83,10.725,20.906,13.7,20.906z"
           id="path423" />
        <path
           fill="#DB1818"
           stroke="none"
           d="M13.627,20.962c2.894,0,5.241,1.871,5.241,4.179s-2.347,4.178-5.241,4.178      c-2.894,0-5.24-1.87-5.24-4.178C8.387,22.833,10.733,20.962,13.627,20.962z"
           id="path424" />
        <path
           fill="#DC1D1D"
           stroke="none"
           d="M13.555,21.018c2.813,0,5.093,1.819,5.093,4.062c0,2.243-2.28,4.061-5.093,4.061      s-5.094-1.818-5.094-4.061C8.461,22.836,10.742,21.018,13.555,21.018z"
           id="path425" />
        <path
           fill="#DD2121"
           stroke="none"
           d="M13.482,21.074c2.732,0,4.947,1.766,4.947,3.944c0,2.178-2.214,3.945-4.947,3.945      c-2.732,0-4.946-1.767-4.946-3.945S10.75,21.074,13.482,21.074z"
           id="path426" />
        <path
           fill="#DE2626"
           stroke="none"
           d="M13.41,21.129c2.65,0,4.799,1.714,4.799,3.828c0,2.115-2.149,3.828-4.799,3.828      S8.61,27.07,8.61,24.957C8.611,22.843,10.759,21.129,13.41,21.129z"
           id="path427" />
        <path
           fill="#DF2A2A"
           stroke="none"
           d="M13.337,21.185c2.569,0,4.653,1.661,4.653,3.71c0,2.049-2.083,3.71-4.653,3.71      s-4.653-1.661-4.653-3.71C8.685,22.846,10.768,21.185,13.337,21.185z"
           id="path428" />
        <path
           fill="#E02F2F"
           stroke="none"
           d="M13.265,21.241c2.489,0,4.506,1.609,4.506,3.593s-2.017,3.593-4.506,3.593      c-2.488,0-4.505-1.608-4.505-3.593S10.776,21.241,13.265,21.241z"
           id="path429" />
        <path
           fill="#E03334"
           stroke="none"
           d="M13.192,21.296c2.407,0,4.358,1.556,4.358,3.476s-1.951,3.477-4.358,3.477      s-4.359-1.557-4.359-3.477S10.785,21.296,13.192,21.296z"
           id="path430" />
        <path
           fill="#E13838"
           stroke="none"
           d="M13.12,21.353c2.326,0,4.212,1.504,4.212,3.359s-1.886,3.359-4.212,3.359      s-4.212-1.504-4.212-3.359S10.794,21.353,13.12,21.353z"
           id="path431" />
        <path
           fill="#E23C3D"
           stroke="none"
           d="M13.047,21.408c2.245,0,4.065,1.452,4.065,3.241c0,1.791-1.82,3.242-4.065,3.242      s-4.065-1.451-4.065-3.242C8.982,22.86,10.803,21.408,13.047,21.408z"
           id="path432" />
        <path
           fill="#E34141"
           stroke="none"
           d="M12.975,21.464c2.164,0,3.918,1.399,3.918,3.125c0,1.725-1.754,3.124-3.918,3.124      s-3.918-1.399-3.918-3.124C9.056,22.863,10.811,21.464,12.975,21.464z"
           id="path433" />
        <path
           fill="#E44646"
           stroke="none"
           d="M12.902,21.52c2.083,0,3.771,1.347,3.771,3.007s-1.688,3.007-3.771,3.007      s-3.771-1.347-3.771-3.007C9.131,22.866,10.819,21.52,12.902,21.52z"
           id="path434" />
        <path
           fill="#E54A4B"
           stroke="none"
           d="M12.83,21.575c2.001,0,3.624,1.294,3.624,2.891c0,1.596-1.623,2.89-3.624,2.89      c-2.002,0-3.625-1.294-3.625-2.89C9.205,22.87,10.828,21.575,12.83,21.575z"
           id="path435" />
        <path
           fill="#E64F4F"
           stroke="none"
           d="M12.757,21.631c1.92,0,3.478,1.242,3.478,2.773c0,1.532-1.557,2.773-3.478,2.773      s-3.478-1.242-3.478-2.773C9.28,22.873,10.837,21.631,12.757,21.631z"
           id="path436" />
        <path
           fill="#E75354"
           stroke="none"
           d="M12.684,21.687c1.84,0,3.331,1.189,3.331,2.656s-1.491,2.656-3.331,2.656      c-1.839,0-3.331-1.189-3.331-2.656S10.845,21.687,12.684,21.687z"
           id="path437" />
        <path
           fill="#E85858"
           stroke="none"
           d="M12.612,21.743c1.758,0,3.184,1.137,3.184,2.539c0,1.402-1.425,2.539-3.184,2.539      c-1.758,0-3.184-1.137-3.184-2.539C9.428,22.879,10.854,21.743,12.612,21.743z"
           id="path438" />
        <path
           fill="#E95C5D"
           stroke="none"
           d="M12.539,21.799c1.677,0,3.037,1.084,3.037,2.421s-1.359,2.421-3.037,2.421      c-1.677,0-3.036-1.084-3.036-2.421S10.862,21.799,12.539,21.799z"
           id="path439" />
        <path
           fill="#EA6161"
           stroke="none"
           d="M12.467,21.854c1.596,0,2.89,1.032,2.89,2.305s-1.294,2.304-2.89,2.304      s-2.89-1.031-2.89-2.304C9.577,22.886,10.871,21.854,12.467,21.854z"
           id="path440" />
        <path
           fill="#EB6566"
           stroke="none"
           d="M12.394,21.911c1.515,0,2.743,0.979,2.743,2.187s-1.228,2.187-2.743,2.187      c-1.515,0-2.743-0.979-2.743-2.187C9.652,22.889,10.879,21.911,12.394,21.911z"
           id="path441" />
        <path
           fill="#EC6A6B"
           stroke="none"
           d="M12.322,21.966c1.434,0,2.596,0.927,2.596,2.07c0,1.144-1.162,2.07-2.596,2.07      s-2.596-0.927-2.596-2.07C9.726,22.893,10.888,21.966,12.322,21.966z"
           id="path442" />
        <path
           fill="#ED6F6F"
           stroke="none"
           d="M12.25,22.022c1.353,0,2.449,0.875,2.449,1.953c0,1.078-1.096,1.953-2.449,1.953      c-1.353,0-2.449-0.875-2.449-1.953C9.8,22.896,10.896,22.022,12.25,22.022z"
           id="path443" />
        <path
           fill="#EE7374"
           stroke="none"
           d="M12.177,22.077c1.271,0,2.302,0.822,2.302,1.836s-1.031,1.835-2.302,1.835      c-1.271,0-2.303-0.821-2.303-1.835S10.905,22.077,12.177,22.077z"
           id="path444" />
        <path
           fill="#EF7878"
           stroke="none"
           d="M12.104,22.133c1.19,0,2.155,0.77,2.155,1.719s-0.965,1.719-2.155,1.719      s-2.155-0.77-2.155-1.719S10.914,22.133,12.104,22.133z"
           id="path445" />
        <path
           fill="#EF7C7D"
           stroke="none"
           d="M12.032,22.189c1.109,0,2.008,0.716,2.008,1.601s-0.899,1.601-2.008,1.601      s-2.008-0.716-2.008-1.601C10.023,22.906,10.922,22.189,12.032,22.189z"
           id="path446" />
        <path
           fill="#F08182"
           stroke="none"
           d="M11.959,22.245c1.028,0,1.861,0.665,1.861,1.484c0,0.82-0.833,1.485-1.861,1.485      c-1.028,0-1.861-0.665-1.861-1.485C10.098,22.91,10.931,22.245,11.959,22.245z"
           id="path447" />
        <path
           fill="#F18586"
           stroke="none"
           d="M11.886,22.301c0.947,0,1.715,0.612,1.715,1.367c0,0.755-0.768,1.367-1.715,1.367      c-0.947,0-1.714-0.612-1.714-1.367C10.172,22.913,10.94,22.301,11.886,22.301z"
           id="path448" />
        <path
           fill="#F28A8B"
           stroke="none"
           d="M11.814,22.356c0.866,0,1.568,0.56,1.568,1.25c0,0.69-0.702,1.25-1.568,1.25      c-0.866,0-1.567-0.56-1.567-1.25C10.247,22.916,10.949,22.356,11.814,22.356z"
           id="path449" />
        <path
           fill="#F38E8F"
           stroke="none"
           d="M11.742,22.412c0.785,0,1.421,0.508,1.421,1.133s-0.636,1.132-1.421,1.132      c-0.785,0-1.42-0.507-1.42-1.132S10.957,22.412,11.742,22.412z"
           id="path450" />
        <path
           fill="#F49394"
           stroke="none"
           d="M11.669,22.468c0.703,0,1.273,0.455,1.273,1.016c0,0.561-0.57,1.016-1.273,1.016      c-0.704,0-1.274-0.455-1.274-1.016C10.396,22.923,10.966,22.468,11.669,22.468z"
           id="path451" />
        <path
           fill="#F59798"
           stroke="none"
           d="M11.597,22.524c0.623,0,1.127,0.402,1.127,0.898c0,0.496-0.504,0.898-1.127,0.898      s-1.127-0.402-1.127-0.898S10.974,22.524,11.597,22.524z"
           id="path452" />
        <path
           fill="#F69C9D"
           stroke="none"
           d="M10.544,23.361c0-0.432,0.438-0.782,0.98-0.782c0.541,0,0.98,0.35,0.98,0.782      c0,0.431-0.439,0.781-0.98,0.781C10.983,24.142,10.544,23.792,10.544,23.361z"
           id="path453" />
      </g>
      <g
         id="g454">
        <g
           id="g455">
          <path
             fill="#F58B8C"
             stroke="none"
             d="M11.324,23.997c0-0.489,0.306-0.885,0.683-0.885s0.684,0.396,0.684,0.885       c0,0.488-0.307,0.885-0.684,0.885S11.324,24.484,11.324,23.997z"
             id="path456" />
        </g>
        <g
           id="g457">
          <path
             fill="#F58C8D"
             stroke="none"
             d="M12.007,23.117c0.372,0,0.673,0.394,0.673,0.88c0,0.485-0.301,0.879-0.673,0.879       c-0.372,0-0.673-0.395-0.673-0.879C11.334,23.511,11.635,23.117,12.007,23.117z"
             id="path458" />
        </g>
        <g
           id="g459">
          <path
             fill="#F68D8E"
             stroke="none"
             d="M12.007,23.122c0.366,0,0.663,0.392,0.663,0.875c0,0.482-0.297,0.874-0.663,0.874       c-0.366,0-0.662-0.392-0.662-0.874C11.345,23.513,11.641,23.122,12.007,23.122z"
             id="path460" />
        </g>
        <g
           id="g461">
          <path
             fill="#F68F90"
             stroke="none"
             d="M12.007,23.126c0.36,0,0.653,0.39,0.653,0.87c0,0.479-0.292,0.869-0.653,0.869       c-0.36,0-0.652-0.39-0.652-0.869C11.355,23.516,11.647,23.126,12.007,23.126z"
             id="path462" />
        </g>
        <g
           id="g463">
          <path
             fill="#F69091"
             stroke="none"
             d="M12.007,23.131c0.354,0,0.642,0.387,0.642,0.866c0,0.477-0.287,0.865-0.642,0.865       c-0.354,0-0.642-0.388-0.642-0.865C11.365,23.518,11.653,23.131,12.007,23.131z"
             id="path464" />
        </g>
        <g
           id="g465">
          <path
             fill="#F79191"
             stroke="none"
             d="M12.007,23.136c0.348,0,0.632,0.384,0.632,0.86c0,0.475-0.284,0.859-0.632,0.859       c-0.349,0-0.631-0.385-0.631-0.859C11.375,23.521,11.659,23.136,12.007,23.136z"
             id="path466" />
        </g>
        <g
           id="g467">
          <path
             fill="#F79293"
             stroke="none"
             d="M12.007,23.141c0.343,0,0.622,0.382,0.622,0.855c0,0.472-0.279,0.855-0.622,0.855       s-0.621-0.383-0.621-0.855C11.386,23.523,11.665,23.141,12.007,23.141z"
             id="path468" />
        </g>
        <g
           id="g469">
          <path
             fill="#F79394"
             stroke="none"
             d="M12.007,23.145c0.337,0,0.611,0.381,0.611,0.852c0,0.469-0.274,0.85-0.611,0.85       s-0.611-0.381-0.611-0.85C11.396,23.526,11.67,23.145,12.007,23.145z"
             id="path470" />
        </g>
        <g
           id="g471">
          <path
             fill="#F79495"
             stroke="none"
             d="M12.007,23.15c0.331,0,0.601,0.379,0.601,0.847c0,0.466-0.27,0.846-0.601,0.846       c-0.332,0-0.6-0.379-0.6-0.846C11.407,23.529,11.676,23.15,12.007,23.15z"
             id="path472" />
        </g>
        <g
           id="g473">
          <path
             fill="#F79696"
             stroke="none"
             d="M12.007,23.155c0.326,0,0.59,0.377,0.59,0.842c0,0.464-0.265,0.84-0.59,0.84       c-0.325,0-0.59-0.376-0.59-0.84C11.417,23.531,11.682,23.155,12.007,23.155z"
             id="path474" />
        </g>
        <g
           id="g475">
          <path
             fill="#F79798"
             stroke="none"
             d="M12.007,23.16c0.319,0,0.58,0.374,0.58,0.837c0,0.461-0.26,0.836-0.58,0.836       c-0.32,0-0.579-0.375-0.579-0.836C11.428,23.534,11.687,23.16,12.007,23.16z"
             id="path476" />
        </g>
        <g
           id="g477">
          <path
             fill="#F79899"
             stroke="none"
             d="M12.007,23.164c0.314,0,0.57,0.373,0.57,0.833c0,0.458-0.256,0.831-0.57,0.831       c-0.314,0-0.569-0.373-0.569-0.831C11.438,23.537,11.693,23.164,12.007,23.164z"
             id="path478" />
        </g>
        <g
           id="g479">
          <path
             fill="#F7999A"
             stroke="none"
             d="M12.007,23.169c0.308,0,0.559,0.37,0.559,0.827c0,0.456-0.251,0.826-0.559,0.826       s-0.559-0.37-0.559-0.826C11.448,23.54,11.699,23.169,12.007,23.169z"
             id="path480" />
        </g>
        <g
           id="g481">
          <path
             fill="#F79A9B"
             stroke="none"
             d="M12.007,23.173c0.302,0,0.548,0.368,0.548,0.823c0,0.454-0.246,0.822-0.548,0.822       c-0.303,0-0.548-0.368-0.548-0.822C11.458,23.542,11.705,23.173,12.007,23.173z"
             id="path482" />
        </g>
        <g
           id="g483">
          <path
             fill="#F69C9D"
             stroke="none"
             d="M12.007,23.179c0.297,0,0.539,0.366,0.539,0.817c0,0.45-0.242,0.817-0.539,0.817       c-0.297,0-0.538-0.366-0.538-0.817C11.469,23.545,11.71,23.179,12.007,23.179z"
             id="path484" />
        </g>
        <g
           id="g485">
          <path
             fill="#F69D9E"
             stroke="none"
             d="M12.007,23.183c0.291,0,0.528,0.364,0.528,0.813c0,0.448-0.236,0.812-0.528,0.812       c-0.291,0-0.528-0.364-0.528-0.812C11.479,23.547,11.716,23.183,12.007,23.183z"
             id="path486" />
        </g>
        <g
           id="g487">
          <path
             fill="#F69E9F"
             stroke="none"
             d="M12.007,23.188c0.285,0,0.518,0.361,0.518,0.808c0,0.446-0.232,0.807-0.518,0.807       c-0.286,0-0.518-0.361-0.518-0.807C11.49,23.549,11.722,23.188,12.007,23.188z"
             id="path488" />
        </g>
        <g
           id="g489">
          <path
             fill="#F69FA0"
             stroke="none"
             d="M12.007,23.192c0.28,0,0.507,0.36,0.507,0.804c0,0.442-0.228,0.802-0.507,0.802       c-0.28,0-0.507-0.36-0.507-0.802C11.5,23.552,11.727,23.192,12.007,23.192z"
             id="path490" />
        </g>
        <g
           id="g491">
          <path
             fill="#F6A1A1"
             stroke="none"
             d="M12.007,23.198c0.274,0,0.496,0.357,0.496,0.799c0,0.44-0.222,0.797-0.496,0.797       s-0.497-0.356-0.497-0.797C11.511,23.555,11.733,23.198,12.007,23.198z"
             id="path492" />
        </g>
        <g
           id="g493">
          <path
             fill="#F6A3A3"
             stroke="none"
             d="M12.007,23.203c0.269,0,0.486,0.354,0.486,0.794c0,0.438-0.218,0.792-0.486,0.792       s-0.486-0.355-0.486-0.792C11.521,23.557,11.739,23.203,12.007,23.203z"
             id="path494" />
        </g>
        <g
           id="g495">
          <path
             fill="#F6A4A5"
             stroke="none"
             d="M12.007,23.208c0.263,0,0.476,0.354,0.476,0.788c0,0.436-0.213,0.788-0.476,0.788       c-0.262,0-0.476-0.353-0.476-0.788C11.531,23.561,11.745,23.208,12.007,23.208z"
             id="path496" />
        </g>
        <g
           id="g497">
          <path
             fill="#F6A5A6"
             stroke="none"
             d="M12.007,23.212c0.256,0,0.465,0.351,0.465,0.784s-0.209,0.784-0.465,0.784       c-0.257,0-0.465-0.351-0.465-0.784S11.75,23.212,12.007,23.212z"
             id="path498" />
        </g>
        <g
           id="g499">
          <path
             fill="#F6A6A6"
             stroke="none"
             d="M12.007,23.217c0.251,0,0.456,0.35,0.456,0.779s-0.205,0.778-0.456,0.778       c-0.251,0-0.455-0.349-0.455-0.778S11.756,23.217,12.007,23.217z"
             id="path500" />
        </g>
        <g
           id="g501">
          <path
             fill="#F5A7A7"
             stroke="none"
             d="M12.007,23.222c0.246,0,0.445,0.347,0.445,0.773c0,0.427-0.199,0.773-0.445,0.773       s-0.445-0.346-0.445-0.773C11.563,23.569,11.762,23.222,12.007,23.222z"
             id="path502" />
        </g>
        <g
           id="g503">
          <path
             fill="#F4A7A8"
             stroke="none"
             d="M12.007,23.227c0.239,0,0.435,0.344,0.435,0.769s-0.195,0.769-0.435,0.769       s-0.434-0.344-0.434-0.769S11.768,23.227,12.007,23.227z"
             id="path504" />
        </g>
        <g
           id="g505">
          <path
             fill="#F4A9A9"
             stroke="none"
             d="M12.007,23.231c0.234,0,0.424,0.343,0.424,0.765s-0.19,0.764-0.424,0.764       s-0.424-0.342-0.424-0.764S11.773,23.231,12.007,23.231z"
             id="path506" />
        </g>
        <g
           id="g507">
          <path
             fill="#F4AAAB"
             stroke="none"
             d="M12.007,23.236c0.229,0,0.414,0.341,0.414,0.76s-0.186,0.759-0.414,0.759       s-0.414-0.34-0.414-0.759S11.779,23.236,12.007,23.236z"
             id="path508" />
        </g>
        <g
           id="g509">
          <path
             fill="#F4ABAC"
             stroke="none"
             d="M12.007,23.241c0.222,0,0.403,0.338,0.403,0.755s-0.181,0.754-0.403,0.754       c-0.223,0-0.403-0.336-0.403-0.754C11.604,23.579,11.784,23.241,12.007,23.241z"
             id="path510" />
        </g>
        <g
           id="g511">
          <path
             fill="#F3ABAC"
             stroke="none"
             d="M12.007,23.246c0.216,0,0.393,0.335,0.393,0.75c0,0.414-0.177,0.75-0.393,0.75       c-0.217,0-0.393-0.335-0.393-0.75C11.615,23.582,11.791,23.246,12.007,23.246z"
             id="path512" />
        </g>
        <g
           id="g513">
          <path
             fill="#F3ACAD"
             stroke="none"
             d="M12.007,23.251c0.211,0,0.382,0.333,0.382,0.745s-0.171,0.745-0.382,0.745       s-0.382-0.333-0.382-0.745S11.796,23.251,12.007,23.251z"
             id="path514" />
        </g>
        <g
           id="g515">
          <path
             fill="#F4AFAF"
             stroke="none"
             d="M12.007,23.255c0.205,0,0.372,0.331,0.372,0.74s-0.167,0.74-0.372,0.74       c-0.206,0-0.372-0.332-0.372-0.74C11.635,23.586,11.801,23.255,12.007,23.255z"
             id="path516" />
        </g>
        <g
           id="g517">
          <path
             fill="#F4B0B1"
             stroke="none"
             d="M12.007,23.261c0.199,0,0.362,0.329,0.362,0.735c0,0.406-0.163,0.736-0.362,0.736       c-0.2,0-0.362-0.33-0.362-0.736C11.646,23.59,11.808,23.261,12.007,23.261z"
             id="path518" />
        </g>
        <g
           id="g519">
          <path
             fill="#F4B1B2"
             stroke="none"
             d="M12.007,23.266c0.194,0,0.351,0.327,0.351,0.73s-0.157,0.73-0.351,0.73       s-0.351-0.327-0.351-0.73S11.813,23.266,12.007,23.266z"
             id="path520" />
        </g>
        <g
           id="g521">
          <path
             fill="#F4B2B2"
             stroke="none"
             d="M12.007,23.271c0.188,0,0.341,0.325,0.341,0.726s-0.154,0.725-0.341,0.725       c-0.188,0-0.341-0.324-0.341-0.725S11.819,23.271,12.007,23.271z"
             id="path522" />
        </g>
        <g
           id="g523">
          <path
             fill="#F4B3B4"
             stroke="none"
             d="M12.007,23.274c0.182,0,0.331,0.323,0.331,0.722c0,0.398-0.148,0.721-0.331,0.721       c-0.183,0-0.331-0.323-0.331-0.721C11.677,23.598,11.824,23.274,12.007,23.274z"
             id="path524" />
        </g>
        <g
           id="g525">
          <path
             fill="#F4B4B5"
             stroke="none"
             d="M12.007,23.28c0.177,0,0.32,0.321,0.32,0.716s-0.143,0.717-0.32,0.717       c-0.176,0-0.32-0.321-0.32-0.717S11.831,23.28,12.007,23.28z"
             id="path526" />
        </g>
        <g
           id="g527">
          <path
             fill="#F5B6B7"
             stroke="none"
             d="M12.007,23.284c0.171,0,0.31,0.319,0.31,0.712s-0.139,0.712-0.31,0.712       s-0.31-0.319-0.31-0.712S11.836,23.284,12.007,23.284z"
             id="path528" />
        </g>
        <g
           id="g529">
          <path
             fill="#F5B7B8"
             stroke="none"
             d="M12.007,23.29c0.165,0,0.3,0.316,0.3,0.707c0,0.39-0.135,0.707-0.3,0.707       c-0.166,0-0.299-0.317-0.299-0.707C11.708,23.605,11.841,23.29,12.007,23.29z"
             id="path530" />
        </g>
        <g
           id="g531">
          <path
             fill="#F5B8B9"
             stroke="none"
             d="M12.007,23.294c0.159,0,0.289,0.314,0.289,0.702c0,0.387-0.13,0.702-0.289,0.702       c-0.16,0-0.289-0.314-0.289-0.702C11.718,23.608,11.847,23.294,12.007,23.294z"
             id="path532" />
        </g>
        <g
           id="g533">
          <path
             fill="#F6B9BA"
             stroke="none"
             d="M12.007,23.299c0.154,0,0.279,0.312,0.279,0.697s-0.125,0.697-0.279,0.697       s-0.278-0.312-0.278-0.697S11.854,23.299,12.007,23.299z"
             id="path534" />
        </g>
        <g
           id="g535">
          <path
             fill="#F6BABB"
             stroke="none"
             d="M12.007,23.303c0.148,0,0.269,0.31,0.269,0.692s-0.121,0.693-0.269,0.693       s-0.268-0.311-0.268-0.693S11.859,23.303,12.007,23.303z"
             id="path536" />
        </g>
        <g
           id="g537">
          <path
             fill="#F7BCBD"
             stroke="none"
             d="M12.007,23.308c0.142,0,0.258,0.309,0.258,0.688s-0.116,0.687-0.258,0.687       c-0.142,0-0.258-0.308-0.258-0.687S11.865,23.308,12.007,23.308z"
             id="path538" />
        </g>
        <g
           id="g539">
          <path
             fill="#F7BDBE"
             stroke="none"
             d="M12.007,23.313c0.137,0,0.248,0.305,0.248,0.683c0,0.377-0.111,0.683-0.248,0.683       s-0.248-0.306-0.248-0.683C11.76,23.618,11.871,23.313,12.007,23.313z"
             id="path540" />
        </g>
        <g
           id="g541">
          <path
             fill="#F7BEBF"
             stroke="none"
             d="M12.007,23.319c0.131,0,0.237,0.303,0.237,0.677s-0.106,0.677-0.237,0.677       s-0.237-0.303-0.237-0.677S11.876,23.319,12.007,23.319z"
             id="path542" />
        </g>
        <g
           id="g543">
          <path
             fill="#F8C0C0"
             stroke="none"
             d="M12.007,23.323c0.125,0,0.227,0.301,0.227,0.673s-0.102,0.673-0.227,0.673       c-0.125,0-0.227-0.301-0.227-0.673S11.882,23.323,12.007,23.323z"
             id="path544" />
        </g>
        <g
           id="g545">
          <path
             fill="#F8C1C1"
             stroke="none"
             d="M12.007,23.327c0.119,0,0.216,0.3,0.216,0.669s-0.097,0.668-0.216,0.668       c-0.12,0-0.216-0.299-0.216-0.668S11.888,23.327,12.007,23.327z"
             id="path546" />
        </g>
        <g
           id="g547">
          <path
             fill="#F9C3C3"
             stroke="none"
             d="M12.007,23.333c0.113,0,0.206,0.297,0.206,0.664s-0.092,0.663-0.206,0.663       c-0.114,0-0.206-0.297-0.206-0.663S11.894,23.333,12.007,23.333z"
             id="path548" />
        </g>
        <g
           id="g549">
          <path
             fill="#F9C4C4"
             stroke="none"
             d="M12.007,23.337c0.107,0,0.196,0.295,0.196,0.659c0,0.364-0.088,0.659-0.196,0.659       c-0.108,0-0.195-0.295-0.195-0.659C11.812,23.632,11.899,23.337,12.007,23.337z"
             id="path550" />
        </g>
        <g
           id="g551">
          <path
             fill="#F9C5C5"
             stroke="none"
             d="M12.007,23.342c0.102,0,0.186,0.292,0.186,0.654s-0.083,0.653-0.186,0.653       s-0.185-0.292-0.185-0.653S11.905,23.342,12.007,23.342z"
             id="path552" />
        </g>
        <g
           id="g553">
          <path
             fill="#F9C6C6"
             stroke="none"
             d="M12.007,23.347c0.096,0,0.174,0.291,0.174,0.649c0,0.358-0.078,0.649-0.174,0.649       c-0.097,0-0.175-0.291-0.175-0.649C11.833,23.637,11.911,23.347,12.007,23.347z"
             id="path554" />
        </g>
        <g
           id="g555">
          <path
             fill="#F9C7C7"
             stroke="none"
             d="M12.007,23.352c0.09,0,0.165,0.288,0.165,0.644s-0.074,0.644-0.165,0.644       s-0.165-0.288-0.165-0.644C11.843,23.64,11.917,23.352,12.007,23.352z"
             id="path556" />
        </g>
        <g
           id="g557">
          <path
             fill="#F9C8C8"
             stroke="none"
             d="M12.007,23.356c0.085,0,0.154,0.286,0.154,0.64s-0.069,0.639-0.154,0.639       c-0.085,0-0.154-0.286-0.154-0.639S11.922,23.356,12.007,23.356z"
             id="path558" />
        </g>
        <g
           id="g559">
          <path
             fill="#F8C9CA"
             stroke="none"
             d="M12.007,23.361c0.08,0,0.144,0.285,0.144,0.635s-0.064,0.634-0.144,0.634       c-0.079,0-0.144-0.284-0.144-0.634S11.928,23.361,12.007,23.361z"
             id="path560" />
        </g>
        <g
           id="g561">
          <path
             fill="#F8CACB"
             stroke="none"
             d="M12.007,23.366c0.073,0,0.133,0.282,0.133,0.63s-0.06,0.63-0.133,0.63       s-0.133-0.282-0.133-0.63S11.934,23.366,12.007,23.366z"
             id="path562" />
        </g>
        <g
           id="g563">
          <path
             fill="#F8CCCC"
             stroke="none"
             d="M12.007,23.371c0.067,0,0.123,0.279,0.123,0.625c0,0.345-0.056,0.625-0.123,0.625       c-0.068,0-0.123-0.279-0.123-0.625C11.884,23.65,11.939,23.371,12.007,23.371z"
             id="path564" />
        </g>
        <g
           id="g565">
          <path
             fill="#F8CDCD"
             stroke="none"
             d="M12.007,23.375c0.063,0,0.113,0.278,0.113,0.621s-0.05,0.62-0.113,0.62       c-0.062,0-0.112-0.278-0.112-0.62S11.945,23.375,12.007,23.375z"
             id="path566" />
        </g>
        <g
           id="g567">
          <path
             fill="#F7CECE"
             stroke="none"
             d="M12.007,23.381c0.057,0,0.102,0.275,0.102,0.615s-0.045,0.615-0.102,0.615       s-0.102-0.275-0.102-0.615S11.951,23.381,12.007,23.381z"
             id="path568" />
        </g>
        <g
           id="g569">
          <path
             fill="#F7D0D0"
             stroke="none"
             d="M12.007,23.385c0.05,0,0.092,0.273,0.092,0.611s-0.042,0.61-0.092,0.61       c-0.051,0-0.092-0.273-0.092-0.61S11.957,23.385,12.007,23.385z"
             id="path570" />
        </g>
        <g
           id="g571">
          <path
             fill="#F6D0D1"
             stroke="none"
             d="M12.007,23.39c0.044,0,0.082,0.271,0.082,0.606s-0.037,0.605-0.082,0.605       c-0.045,0-0.081-0.271-0.081-0.605S11.962,23.39,12.007,23.39z"
             id="path572" />
        </g>
        <g
           id="g573">
          <path
             fill="#F6D2D2"
             stroke="none"
             d="M12.007,23.394c0.04,0,0.071,0.27,0.071,0.602s-0.032,0.601-0.071,0.601       s-0.071-0.269-0.071-0.601S11.968,23.394,12.007,23.394z"
             id="path574" />
        </g>
        <g
           id="g575">
          <path
             fill="#F6D3D4"
             stroke="none"
             d="M12.007,23.4c0.033,0,0.061,0.267,0.061,0.596s-0.027,0.596-0.061,0.596       s-0.061-0.267-0.061-0.596S11.974,23.4,12.007,23.4z"
             id="path576" />
        </g>
        <g
           id="g577">
          <path
             fill="#F6D4D4"
             stroke="none"
             d="M12.007,23.404c0.027,0,0.05,0.265,0.05,0.592c0,0.327-0.023,0.591-0.05,0.591       c-0.028,0-0.05-0.264-0.05-0.591C11.957,23.669,11.979,23.404,12.007,23.404z"
             id="path578" />
        </g>
        <g
           id="g579">
          <path
             fill="#F5D6D6"
             stroke="none"
             d="M12.007,23.409c0.022,0,0.04,0.263,0.04,0.587c0,0.324-0.018,0.586-0.04,0.586       c-0.022,0-0.04-0.263-0.04-0.586C11.967,23.672,11.985,23.409,12.007,23.409z"
             id="path580" />
        </g>
        <g
           id="g581">
          <path
             fill="#F5D7D7"
             stroke="none"
             d="M12.007,23.414c0.016,0,0.029,0.261,0.029,0.582s-0.013,0.582-0.029,0.582       s-0.029-0.261-0.029-0.582S11.991,23.414,12.007,23.414z"
             id="path582" />
        </g>
        <g
           id="g583">
          <path
             fill="#F5D8D9"
             stroke="none"
             d="M12.007,23.418c0.01,0,0.019,0.259,0.019,0.577c0,0.319-0.009,0.577-0.019,0.577       s-0.019-0.258-0.019-0.577C11.988,23.677,11.997,23.418,12.007,23.418z"
             id="path584" />
        </g>
        <g
           id="g585">
          <path
             fill="#F5D9D9"
             stroke="none"
             d="M12.007,23.424c0.005,0,0.008,0.256,0.008,0.572c0,0.316-0.004,0.572-0.008,0.572       c-0.005,0-0.009-0.255-0.009-0.572C11.999,23.68,12.002,23.424,12.007,23.424z"
             id="path586" />
        </g>
        <g
           id="g587">
          <path
             fill="#F5DADA"
             stroke="none"
             d="M12.007,23.429c-0.001,0-0.001,0.254-0.001,0.567c0,0.313,0,0.567,0.001,0.567       s0.002-0.254,0.002-0.567C12.009,23.683,12.008,23.429,12.007,23.429z"
             id="path588" />
        </g>
        <g
           id="g589">
          <path
             fill="#F5DBDB"
             stroke="none"
             d="M12.007,23.433c-0.007,0-0.012,0.252-0.012,0.563c0,0.311,0.005,0.562,0.012,0.562       s0.012-0.251,0.012-0.562S12.014,23.433,12.007,23.433z"
             id="path590" />
        </g>
        <g
           id="g591">
          <path
             fill="#F5DCDD"
             stroke="none"
             d="M12.007,23.438c-0.012,0-0.022,0.25-0.022,0.559s0.01,0.558,0.022,0.558       c0.012,0,0.022-0.25,0.022-0.558S12.02,23.438,12.007,23.438z"
             id="path592" />
        </g>
        <g
           id="g593">
          <path
             fill="#F5DDDE"
             stroke="none"
             d="M12.007,23.443c-0.019,0-0.033,0.248-0.033,0.553s0.014,0.553,0.033,0.553       c0.018,0,0.033-0.248,0.033-0.553S12.025,23.443,12.007,23.443z"
             id="path594" />
        </g>
        <g
           id="g595">
          <path
             fill="#F5DEDF"
             stroke="none"
             d="M12.007,23.448c-0.024,0-0.043,0.245-0.043,0.548s0.019,0.548,0.043,0.548       s0.043-0.245,0.043-0.548S12.031,23.448,12.007,23.448z"
             id="path596" />
        </g>
        <g
           id="g597">
          <path
             fill="#F5DFE0"
             stroke="none"
             d="M12.007,23.452c-0.029,0-0.054,0.244-0.054,0.544s0.024,0.543,0.054,0.543       c0.03,0,0.054-0.243,0.054-0.543S12.037,23.452,12.007,23.452z"
             id="path598" />
        </g>
        <g
           id="g599">
          <path
             fill="#F5E0E1"
             stroke="none"
             d="M12.007,23.458c-0.035,0-0.064,0.241-0.064,0.539c0,0.298,0.029,0.539,0.064,0.539       s0.064-0.241,0.064-0.539C12.071,23.699,12.042,23.458,12.007,23.458z"
             id="path600" />
        </g>
        <g
           id="g601">
          <path
             fill="#F5E3E3"
             stroke="none"
             d="M12.007,23.462c-0.042,0-0.074,0.238-0.074,0.534c0,0.295,0.033,0.534,0.074,0.534       c0.041,0,0.074-0.239,0.074-0.534C12.082,23.701,12.048,23.462,12.007,23.462z"
             id="path602" />
        </g>
        <g
           id="g603">
          <path
             fill="#F5E4E4"
             stroke="none"
             d="M12.007,23.466c-0.047,0-0.085,0.237-0.085,0.529s0.038,0.529,0.085,0.529       s0.085-0.237,0.085-0.529S12.054,23.466,12.007,23.466z"
             id="path604" />
        </g>
        <g
           id="g605">
          <path
             fill="#F5E6E5"
             stroke="none"
             d="M12.007,23.472c-0.053,0-0.095,0.233-0.095,0.524c0,0.29,0.042,0.524,0.095,0.524       c0.052,0,0.095-0.235,0.095-0.524C12.103,23.706,12.06,23.472,12.007,23.472z"
             id="path606" />
        </g>
        <g
           id="g607">
          <path
             fill="#F5E7E6"
             stroke="none"
             d="M12.007,23.477c-0.058,0-0.105,0.233-0.105,0.52s0.047,0.52,0.105,0.52       c0.058,0,0.105-0.233,0.105-0.52S12.065,23.477,12.007,23.477z"
             id="path608" />
        </g>
        <g
           id="g609">
          <path
             fill="#F5E8E7"
             stroke="none"
             d="M12.007,23.481c-0.064,0-0.116,0.229-0.116,0.514c0,0.284,0.052,0.514,0.116,0.514       s0.116-0.23,0.116-0.514C12.123,23.711,12.071,23.481,12.007,23.481z"
             id="path610" />
        </g>
        <g
           id="g611">
          <path
             fill="#F5E9E8"
             stroke="none"
             d="M12.007,23.486c-0.07,0-0.126,0.228-0.126,0.51s0.057,0.51,0.126,0.51       s0.126-0.228,0.126-0.51S12.077,23.486,12.007,23.486z"
             id="path612" />
        </g>
        <g
           id="g613">
          <path
             fill="#F5EBEA"
             stroke="none"
             d="M12.007,23.491c-0.075,0-0.137,0.226-0.137,0.505s0.061,0.505,0.137,0.505       c0.075,0,0.137-0.227,0.137-0.505S12.082,23.491,12.007,23.491z"
             id="path614" />
        </g>
        <g
           id="g615">
          <path
             fill="#F6ECEB"
             stroke="none"
             d="M12.007,23.496c-0.081,0-0.147,0.224-0.147,0.5c0,0.276,0.066,0.5,0.147,0.5       s0.147-0.225,0.147-0.5C12.154,23.72,12.088,23.496,12.007,23.496z"
             id="path616" />
        </g>
        <g
           id="g617">
          <path
             fill="#F6EDEC"
             stroke="none"
             d="M12.007,23.5c-0.087,0-0.157,0.222-0.157,0.496s0.07,0.496,0.157,0.496       c0.086,0,0.157-0.222,0.157-0.496S12.094,23.5,12.007,23.5z"
             id="path618" />
        </g>
        <g
           id="g619">
          <path
             fill="#F6EEED"
             stroke="none"
             d="M12.007,23.505c-0.093,0-0.168,0.22-0.168,0.491s0.075,0.491,0.168,0.491       c0.092,0,0.168-0.219,0.168-0.491S12.099,23.505,12.007,23.505z"
             id="path620" />
        </g>
        <g
           id="g621">
          <path
             fill="#F7EFEE"
             stroke="none"
             d="M12.007,23.511c-0.099,0-0.178,0.217-0.178,0.485c0,0.268,0.08,0.485,0.178,0.485       c0.098,0,0.178-0.217,0.178-0.485C12.186,23.728,12.105,23.511,12.007,23.511z"
             id="path622" />
        </g>
        <g
           id="g623">
          <path
             fill="#F8F2F0"
             stroke="none"
             d="M12.007,23.515c-0.104,0-0.188,0.215-0.188,0.481s0.084,0.481,0.188,0.481       s0.188-0.216,0.188-0.481S12.111,23.515,12.007,23.515z"
             id="path624" />
        </g>
        <g
           id="g625">
          <path
             fill="#F8F3F1"
             stroke="none"
             d="M12.007,23.52c-0.11,0-0.199,0.213-0.199,0.477c0,0.263,0.089,0.476,0.199,0.476       c0.109,0,0.199-0.212,0.199-0.476C12.206,23.732,12.117,23.52,12.007,23.52z"
             id="path626" />
        </g>
        <g
           id="g627">
          <path
             fill="#F8F4F2"
             stroke="none"
             d="M12.007,23.524c-0.116,0-0.209,0.211-0.209,0.472c0,0.26,0.094,0.471,0.209,0.471       c0.115,0,0.209-0.21,0.209-0.471C12.217,23.735,12.122,23.524,12.007,23.524z"
             id="path628" />
        </g>
        <g
           id="g629">
          <path
             fill="#F9F5F3"
             stroke="none"
             d="M12.007,23.529c-0.122,0-0.22,0.209-0.22,0.467c0,0.257,0.099,0.466,0.22,0.466       s0.219-0.209,0.219-0.466C12.227,23.738,12.128,23.529,12.007,23.529z"
             id="path630" />
        </g>
        <g
           id="g631">
          <path
             fill="#F9F6F4"
             stroke="none"
             d="M12.007,23.534c-0.127,0-0.23,0.207-0.23,0.462c0,0.255,0.103,0.461,0.23,0.461       c0.126,0,0.23-0.206,0.23-0.461C12.237,23.741,12.134,23.534,12.007,23.534z"
             id="path632" />
        </g>
        <g
           id="g633">
          <path
             fill="#FAF7F6"
             stroke="none"
             d="M12.007,23.539c-0.133,0-0.241,0.205-0.241,0.458c0,0.252,0.107,0.457,0.241,0.457       c0.133,0,0.24-0.204,0.24-0.457C12.248,23.743,12.14,23.539,12.007,23.539z"
             id="path634" />
        </g>
        <g
           id="g635">
          <path
             fill="#FAF8F6"
             stroke="none"
             d="M12.007,23.544c-0.138,0-0.251,0.203-0.251,0.452s0.112,0.452,0.251,0.452       c0.138,0,0.251-0.202,0.251-0.452S12.146,23.544,12.007,23.544z"
             id="path636" />
        </g>
        <g
           id="g637">
          <path
             fill="#FBFAF8"
             stroke="none"
             d="M12.007,23.548c-0.144,0-0.261,0.201-0.261,0.448c0,0.247,0.117,0.447,0.261,0.447       s0.262-0.2,0.262-0.447C12.269,23.749,12.151,23.548,12.007,23.548z"
             id="path638" />
        </g>
        <g
           id="g639">
          <path
             fill="#FBFBF9"
             stroke="none"
             d="M12.007,23.553c-0.15,0-0.271,0.198-0.271,0.443s0.121,0.442,0.271,0.442       c0.15,0,0.271-0.198,0.271-0.442S12.157,23.553,12.007,23.553z"
             id="path640" />
        </g>
        <g
           id="g641">
          <path
             fill="#FCFBFA"
             stroke="none"
             d="M12.007,23.558c-0.156,0-0.282,0.196-0.282,0.438s0.126,0.438,0.282,0.438       c0.155,0,0.282-0.196,0.282-0.438S12.163,23.558,12.007,23.558z"
             id="path642" />
        </g>
        <g
           id="g643">
          <path
             fill="#FCFCFB"
             stroke="none"
             d="M12.007,23.563c-0.162,0-0.292,0.194-0.292,0.433s0.13,0.433,0.292,0.433       c0.161,0,0.292-0.193,0.292-0.433S12.168,23.563,12.007,23.563z"
             id="path644" />
        </g>
        <g
           id="g645">
          <path
             fill="#FEFEFD"
             stroke="none"
             d="M12.007,23.567c-0.168,0-0.303,0.192-0.303,0.429c0,0.236,0.135,0.428,0.303,0.428       c0.167,0,0.302-0.191,0.302-0.428C12.31,23.759,12.174,23.567,12.007,23.567z"
             id="path646" />
        </g>
        <g
           id="g647">
          <path
             fill="#FEFEFD"
             stroke="none"
             d="M12.007,23.573c-0.173,0-0.313,0.189-0.313,0.423s0.141,0.423,0.313,0.423       c0.172,0,0.313-0.188,0.313-0.423S12.18,23.573,12.007,23.573z"
             id="path648" />
        </g>
        <g
           id="g649">
          <path
             fill="#FFFFFF"
             stroke="none"
             d="M11.684,23.996c0-0.231,0.145-0.418,0.324-0.418c0.178,0,0.323,0.187,0.323,0.418       s-0.145,0.418-0.323,0.418C11.829,24.414,11.684,24.228,11.684,23.996z"
             id="path650" />
        </g>
      </g>
      <path
         stroke="none"
         d="M7.621,25.386c0,2.751,2.767,4.989,6.167,4.989c3.401,0,6.167-2.238,6.167-4.989     c0-2.749-2.766-4.986-6.167-4.986C10.388,20.4,7.621,22.637,7.621,25.386 M8.491,25.386c0-2.361,2.376-4.283,5.297-4.283     c2.921,0,5.298,1.921,5.298,4.283c0,2.363-2.376,4.285-5.298,4.285C10.867,29.671,8.491,27.749,8.491,25.386z"
         id="path651" />
      <path
         fill="#FFFFFF"
         stroke-width="2"
         d="M47.23,48.295H28.89v-9.706H47.23V48.295z"
         id="path652" />
      <g
         id="g653">
        <path
           stroke="none"
           d="M33.037,43.098v2.405l0.211,0.354h0.3l0.22-0.362v-4.276c0-0.101,0.036-0.188,0.109-0.261      s0.16-0.11,0.261-0.11c0.098,0,0.182,0.037,0.253,0.108c0.072,0.072,0.107,0.157,0.107,0.255v4.406      c0,0.055-0.029,0.131-0.09,0.229l-0.337,0.558c-0.068,0.123-0.173,0.186-0.314,0.186h-0.682c-0.215,0-0.354-0.099-0.414-0.296      c-0.066,0.197-0.2,0.296-0.399,0.296h-0.644c-0.186,0-0.318-0.067-0.399-0.203l-0.313-0.522      c-0.059-0.096-0.088-0.178-0.088-0.246v-4.397c0-0.101,0.038-0.188,0.111-0.262c0.074-0.073,0.162-0.11,0.264-0.11      c0.096,0,0.179,0.037,0.25,0.11s0.106,0.16,0.106,0.261v4.293l0.213,0.346h0.313l0.229-0.361v-2.397      c0-0.101,0.036-0.186,0.106-0.256c0.071-0.069,0.157-0.105,0.259-0.105c0.103,0,0.188,0.035,0.26,0.105      S33.037,42.997,33.037,43.098z"
           id="path654" />
        <path
           stroke="none"
           d="M36.194,46.082l1.477-4.962c0.057-0.182,0.176-0.273,0.357-0.273c0.175,0,0.285,0.078,0.331,0.233      l1.464,5.036c0.012,0.038,0.018,0.074,0.018,0.108c0,0.102-0.035,0.187-0.104,0.257c-0.068,0.07-0.147,0.105-0.236,0.105      c-0.19,0-0.312-0.088-0.363-0.265l-0.295-0.99H37.18l-0.321,1.061c-0.009,0.047-0.045,0.091-0.108,0.132      c-0.063,0.042-0.133,0.063-0.209,0.063c-0.106,0-0.195-0.036-0.265-0.107c-0.069-0.072-0.104-0.16-0.104-0.264      C36.172,46.173,36.18,46.128,36.194,46.082z M38.024,42.528l-0.622,2.072h1.223L38.024,42.528z"
           id="path655" />
        <path
           stroke="none"
           d="M45.193,41.219v1.334l-1.48,3.763c-0.074,0.182-0.192,0.271-0.354,0.271c-0.17,0-0.29-0.09-0.362-0.271      l-1.471-3.763v-1.334c0-0.104,0.036-0.191,0.106-0.264c0.071-0.071,0.158-0.108,0.26-0.108c0.103,0,0.188,0.037,0.26,0.108      c0.071,0.072,0.106,0.16,0.106,0.264v1.183l1.102,2.816l1.105-2.807v-1.192c0-0.104,0.034-0.191,0.105-0.264      c0.07-0.071,0.156-0.108,0.259-0.108c0.102,0,0.188,0.037,0.258,0.108C45.158,41.027,45.193,41.115,45.193,41.219z"
           id="path656" />
      </g>
    </g>
  </g>
</svg>
