<?xml version="1.0" encoding="UTF-8" standalone="no"?>
<!DOCTYPE svg PUBLIC "-//W3C//DTD SVG 20010904//EN"
"http://www.w3.org/TR/2001/REC-SVG-20010904/DTD/svg10.dtd">
<!-- Created with Sodipodi ("http://www.sodipodi.com/") -->
<svg
   width="48pt"
   height="48pt"
   viewBox="0 0 47.009 48.626"
   overflow="visible"
   enable-background="new 0 0 47.009 48.626"
   xml:space="preserve"
   id="svg153"
   sodipodi:version="0.32pre"
   sodipodi:docname="/home/cschalle/gnome-themes-extras/Wasp/icons/scalable/mimetypes/gnome-mime-application-x-rpm.svg"
   sodipodi:docbase="/home/cschalle/gnome-themes-extras/Wasp/icons/scalable/mimetypes/"
   xmlns="http://www.w3.org/2000/svg"
   xmlns:sodipodi="http://sodipodi.sourceforge.net/DTD/sodipodi-0.dtd"
   xmlns:xml="http://www.w3.org/XML/1998/namespace"
   xmlns:xlink="http://www.w3.org/1999/xlink">
  <defs
     id="defs245" />
  <sodipodi:namedview
     id="base" />
  <metadata
     id="metadata154">
    <sfw>
      <slices />
      <sliceSourceBounds
         y="395.187"
         x="272.996"
         width="47.009"
         height="48.626"
         bottomLeftOrigin="true" />
    </sfw>
  </metadata>
  <g
     id="Layer_1"
     stroke="#000000">
    <g
       id="Layer_1_2_">
      <path
         a:adobe-blending-mode="multiply"
         opacity="0.2"
         stroke="none"
         d="M38.674,31.679L20.833,48.626h8.125l18.051-17.025     l-0.029-3.767l-8.328-2.758L38.674,31.679z"
         id="path157" />
      <path
         stroke="none"
         d="M9.762,7.496L8.203,7.212l-8.189,9.438L0,37.54l20.833,11.086l17.844-16.781V11.03l-10.101-5.3     l0.284-0.966L17.745,0L9.762,7.496z"
         id="path158" />
      <g
         id="g159">
        <linearGradient
           id="XMLID_1_"
           gradientUnits="userSpaceOnUse"
           x1="-217.2852"
           y1="380.3623"
           x2="-235.2596"
           y2="370.5402"
           gradientTransform="matrix(1 0 0 -1 237.7393 407.3438)">
          <stop
             offset="0"
             style="stop-color:#FACF9D"
             id="stop161" />
          <stop
             offset="1"
             style="stop-color:#CD9363"
             id="stop162" />
        </linearGradient>
        <path
           fill="url(#XMLID_1_)"
           stroke="none"
           d="M20.742,47.165L1.2,36.817V17.162l19.542,10.347V47.165z"
           id="path166" />
      </g>
      <g
         id="g167">
        <path
           fill="#9A6633"
           stroke="none"
           d="M37.477,31.326L20.743,47.037V27.381l16.737-15.578L37.477,31.326z"
           id="path168" />
      </g>
      <g
         id="g169">
        <path
           fill="#B0763B"
           stroke="none"
           d="M31.288,37.436l-4.355,4.09V24.674l0.932-2.109l3.425-3.188L31.288,37.436z"
           id="path170" />
      </g>
      <g
         id="g171">
        <linearGradient
           id="XMLID_2_"
           gradientUnits="userSpaceOnUse"
           x1="-220.8945"
           y1="407.7344"
           x2="-217.5252"
           y2="387.6612"
           gradientTransform="matrix(1 0 0 -1 237.7393 407.3438)">
          <stop
             offset="0"
             style="stop-color:#FFCD99"
             id="stop173" />
          <stop
             offset="1"
             style="stop-color:#EBA76E"
             id="stop174" />
        </linearGradient>
        <path
           fill="url(#XMLID_2_)"
           stroke="none"
           d="M37.477,11.797L20.742,27.509L1.208,17.173L17.941,1.461L37.477,11.797z"
           id="path178" />
      </g>
      <g
         id="g179">
        <linearGradient
           id="XMLID_3_"
           gradientUnits="userSpaceOnUse"
           x1="-228.1768"
           y1="400.0586"
           x2="-226.2879"
           y2="388.8059"
           gradientTransform="matrix(1 0 0 -1 237.7393 407.3438)">
          <stop
             offset="0"
             style="stop-color:#FFDCAC"
             id="stop181" />
          <stop
             offset="1"
             style="stop-color:#E19A68"
             id="stop182" />
        </linearGradient>
        <path
           fill="url(#XMLID_3_)"
           stroke="none"
           d="M20.748,14.596l-8.844,8.303L1.254,17.11l7.65-8.573L20.748,14.596z"
           id="path186" />
      </g>
      <g
         id="g187">
        <linearGradient
           id="XMLID_4_"
           gradientUnits="userSpaceOnUse"
           x1="-225.3755"
           y1="389.9941"
           x2="-206.6564"
           y2="381.5053"
           gradientTransform="matrix(1 0 0 -1 237.7393 407.3438)">
          <stop
             offset="0"
             style="stop-color:#FFCD99"
             id="stop189" />
          <stop
             offset="1"
             style="stop-color:#EBA76E"
             id="stop190" />
        </linearGradient>
        <path
           fill="url(#XMLID_4_)"
           stroke="none"
           d="M29.315,19.367l-8.604,8.079l-8.629-4.552l8.604-8.079L29.315,19.367z"
           id="path194" />
      </g>
      <g
         id="g195">
        <linearGradient
           id="XMLID_5_"
           gradientUnits="userSpaceOnUse"
           x1="-220.0127"
           y1="406.8066"
           x2="-218.4564"
           y2="397.5347"
           gradientTransform="matrix(1 0 0 -1 237.7393 407.3438)">
          <stop
             offset="0"
             style="stop-color:#FFCD99"
             id="stop197" />
          <stop
             offset="1"
             style="stop-color:#EBA76E"
             id="stop198" />
        </linearGradient>
        <path
           fill="url(#XMLID_5_)"
           stroke="none"
           d="M27.533,5.535l-8.481,7.969l-8.906-4.694l7.857-7.378L27.533,5.535z"
           id="path202" />
      </g>
      <g
         id="g203">
        <linearGradient
           id="XMLID_6_"
           gradientUnits="userSpaceOnUse"
           x1="-215.2563"
           y1="400.9297"
           x2="-214.4516"
           y2="396.1355"
           gradientTransform="matrix(1 0 0 -1 237.7393 407.3438)">
          <stop
             offset="0"
             style="stop-color:#EBA76E"
             id="stop205" />
          <stop
             offset="1"
             style="stop-color:#CD9363"
             id="stop206" />
        </linearGradient>
        <path
           fill="url(#XMLID_6_)"
           stroke="none"
           d="M27.288,6.425l-8.131,7.367l-0.255-0.091l7.959-7.536L27.288,6.425z"
           id="path210" />
      </g>
      <g
         opacity="0.25"
         id="g211">
        <path
           stroke="none"
           d="M27.891,6.709l-8.896,7.308l-0.255-0.136l8.123-7.715L27.891,6.709z"
           id="path212" />
      </g>
      <g
         id="g213">
        <path
           fill="#9A6633"
           stroke="none"
           d="M37.493,11.836l-8.178,7.651L28.81,19.18l8.486-7.498L37.493,11.836z"
           id="path214" />
      </g>
      <g
         opacity="0.3"
         id="g215">
        <path
           stroke="none"
           d="M20.55,14.813l-8.513,8.077l-0.35-0.19l8.908-7.836L20.55,14.813z"
           id="path216" />
      </g>
      <g
         opacity="0.35"
         id="g217">
        <path
           stroke="none"
           d="M29.341,19.479l-0.283,0.282l-8.502-4.907L9.903,9.095l0.257-0.328L29.341,19.479z"
           id="path218" />
      </g>
      <g
         opacity="0.36"
         id="g219">
        <linearGradient
           id="XMLID_7_"
           gradientUnits="userSpaceOnUse"
           x1="-226.0029"
           y1="382.0859"
           x2="-216.9883"
           y2="382.0859"
           gradientTransform="matrix(1 0 0 -1 237.7393 407.3438)">
          <stop
             offset="0"
             style="stop-color:#404040"
             id="stop221" />
          <stop
             offset="1"
             style="stop-color:#000000"
             id="stop222" />
        </linearGradient>
        <path
           fill="url(#XMLID_7_)"
           stroke="none"
           d="M20.721,27.509l0.03,0.258l-8.439-3.887l-0.575-1.132L20.721,27.509z"
           id="path226" />
      </g>
      <g
         opacity="0.2"
         id="g227">
        <linearGradient
           id="XMLID_8_"
           gradientUnits="userSpaceOnUse"
           x1="-222.7788"
           y1="396.7891"
           x2="-223.3594"
           y2="395.8214"
           gradientTransform="matrix(1 0 0 -1 237.7393 407.3438)">
          <stop
             offset="0"
             style="stop-color:#FFFFFF"
             id="stop229" />
          <stop
             offset="1"
             style="stop-color:#000000"
             id="stop230" />
        </linearGradient>
        <path
           fill="url(#XMLID_8_)"
           stroke="none"
           d="M18.907,13.759l0.017-0.093l-8.774-4.878l0.457-0.374L18.907,13.759z"
           id="path234" />
      </g>
      <g
         id="g235">
        <path
           fill="#CD8D53"
           stroke="none"
           d="M27.83,25.499l0.035-2.934l-0.933,2.109L27.83,25.499z"
           id="path236" />
      </g>
      <g
         opacity="0.5"
         id="g237">
        <g
           id="g238">
          <path
             stroke="none"
             d="M11.346,41.489l-9.618-5.177V26.136l9.618,5.178V41.489z M10.711,31.745l-4.133-2.238v8.523l4.133,2.237       V31.745z M2.334,27.21v8.523l3.693,1.999v-8.523L2.334,27.21z"
             id="path239" />
        </g>
      </g>
      <g
         opacity="0.5"
         id="g240">
        <path
           stroke="none"
           d="M10.169,34.855l-1.54-3.263l-1.54,1.595l1.02,0.554v4.144l1.014,0.549V34.29L10.169,34.855z"
           id="path241" />
      </g>
      <g
         opacity="0.5"
         id="g242">
        <path
           stroke="none"
           d="M5.054,36.341c0-0.271-0.688-0.792-0.712-0.913s-0.008-1.415-0.006-1.567s-0.067-0.485,0.202-0.615      c0.701-0.339,0.716-1.448,0.74-3.359l-2.327-1.26c0.024,1.938,0.04,3.063,0.74,4.16c0.269,0.422,0.2,0.681,0.203,0.834      c0.002,0.155,0.017,1.466-0.006,1.561c-0.024,0.096-0.712-0.128-0.712,0.144L5.054,36.341z"
           id="path243" />
      </g>
    </g>
  </g>
  <g
     id="g324"
     transform="matrix(0.0293751,-0.00221604,0.00262143,0.030799,-2.121,28.6931)"
     style="overflow:visible;enable-background:new 0 0 204.756 242.184;">
    <path
       style="font-size:12;fill:#000000;stroke:#000000;fill-opacity:1;"
       d="M 393.913 557.698 C 388.9 559.012 380.183 567.223 386.813 571.951 C 390.38 574.495 396.071 573.984 400.163 575.247 C 410.045 578.294 417.922 584.602 428.919 581.153 C 435.822 578.988 447.809 564.432 436.254 559.68 C 430.991 557.516 425.478 564.869 420.167 565.317 C 410.539 566.133 403.995 555.057 393.913 557.698 z M 74.8355 518.801 C 18.5227 375.708 72.4271 212.811 202.98 131.554 C 333.533 50.2965 503.492 73.8591 607.016 187.568 C 710.538 301.277 721.642 468.312 624.808 595.071 C 612.185 589.334 585.747 592.363 567.062 591.908 C 557.046 591.834 544.959 589.884 542.218 593.109 C 536.311 599.654 543.344 602.526 535.633 609.67 C 529.843 614.917 520.764 615.607 506.785 624.38 C 487.762 636.174 462.65 669.277 451.493 658.581 C 445.517 652.671 459.165 640.553 471.322 625.842 C 483.522 611.286 497.415 593.707 501.141 581.927 C 505.739 567.051 504.736 557.54 506.856 551.074 C 511.708 534.986 516.057 519.764 507.998 518.626 C 502.442 517.858 495.222 521.663 486.025 521.024 C 476.446 520.341 470.806 518.622 457.999 518.842 C 447.923 519.017 437.554 520.924 428.417 520.702 C 411.52 520.032 407.336 516.795 393.856 516.786 C 379.642 516.776 350.319 525.372 327.343 515.184 C 308.871 506.942 296.476 478.439 279.453 470.856 C 271.588 467.382 266.473 474.47 258.193 471.805 C 247.785 468.409 244.557 449.426 223.256 436.56 C 209.253 428.159 194.996 435.602 191.096 439.877 C 177.718 454.684 188.956 476.242 201.988 493.581 C 211.928 507 222.421 507.281 223.478 516.342 C 224.22 522.791 214.344 529.251 206.463 527.104 C 185.93 521.401 175.488 497.365 161.367 492.325 C 155.774 490.293 146.992 492.167 140.28 492.004 C 126.639 491.915 99.4074 492.136 83.7866 491.883 C 86.5383 511.327 83.8549 514.714 74.8355 518.801 z "
       id="path325" />
    <path
       style="font-size:12;fill:#c1211f;stroke:#000000;fill-opacity:1;fill-rule:evenodd;"
       d="M 582.7 163.136 L 582.7 163.136 z M 227.629 271.907 C 200.418 271.907 166.26 267.743 141.361 281.064 C 131.392 286.399 119.775 295.358 117.022 306.914 C 113.104 323.361 123.315 336.822 133.753 348.173 C 153.379 369.516 174.313 388.838 197.623 406.147 C 278.164 465.952 377.02 496.201 476.428 500.573 C 523.779 502.655 584.923 483.392 615.875 445.692 C 631.775 426.327 642.883 390.269 629.544 366.926 C 618.299 347.251 577.28 326.476 555.194 323.168 C 551.118 335.674 545.756 347.575 533.94 354.424 C 531.402 338.196 540.898 319.147 540.142 301.913 C 538.76 270.397 520.711 238.209 509.185 209.395 C 503.238 194.527 498.302 178.308 486.412 166.999 C 454.26 136.418 415.181 152.768 377.659 155.521 C 349.542 157.584 321.931 144.266 293.892 148.682 C 250.042 155.587 242.659 214.053 237.119 250.653 C 233.13 277.011 258.569 288.951 278.889 296.672 C 300.98 305.065 323.783 311.73 346.402 318.517 C 358.341 322.099 372.772 325.429 380.917 335.689 C 386.434 342.64 385.065 351.312 387.076 359.425 C 388.528 365.285 400.776 374.569 398.53 380.137 C 396.68 384.723 386.433 383.343 382.66 382.966 C 367.393 381.441 352.05 375.246 337.651 370.247 C 309.521 360.481 282.166 347.686 256.384 332.815 C 245.66 326.628 232.05 319.927 226.615 308.165 C 221.161 296.36 224.904 283.82 227.629 271.907 M 410.165 168.137 L 410.165 169.387 C 416.464 170.891 439.052 171.478 437.77 181.904 C 437.176 186.728 430.489 190.704 427.669 194.392 C 437.474 197.29 476.632 195.691 465.349 176.908 C 455.816 161.038 425.199 164.516 410.165 168.137 z M 276.67 205.747 C 272.074 208.1 271.503 214.905 271.406 219.397 C 271.119 232.928 280.152 242.914 292.642 247.675 C 299.519 250.297 305.12 244.457 311.395 242.355 C 326.58 237.269 352.107 241.628 364.851 231.716 C 374.446 224.253 357.205 221.122 352.654 220.117 C 335.03 216.224 316.892 223.917 300.143 218.012 C 293.651 215.722 283.769 202.112 276.67 205.747 z "
       id="path173" />
  </g>
</svg>
