<?xml version="1.0" encoding="UTF-8" standalone="no"?>
<!DOCTYPE svg PUBLIC "-//W3C//DTD SVG 20010904//EN"
"http://www.w3.org/TR/2001/REC-SVG-20010904/DTD/svg10.dtd">
<!-- Created with Sodipodi ("http://www.sodipodi.com/") -->
<svg
   width="48pt"
   height="48pt"
   viewBox="0 0 49.342 49.423"
   overflow="visible"
   enable-background="new 0 0 49.342 49.423"
   xml:space="preserve"
   xmlns="http://www.w3.org/2000/svg"
   xmlns:xml="http://www.w3.org/XML/1998/namespace"
   xmlns:sodipodi="http://sodipodi.sourceforge.net/DTD/sodipodi-0.dtd"
   xmlns:xlink="http://www.w3.org/1999/xlink"
   id="svg153"
   sodipodi:version="0.32pre"
   sodipodi:docname="/home/cschalle/gnome-themes-extras/Wasp/icons/scalable/mimetypes/gnome-mime-audio-x-mp3.svg"
   sodipodi:docbase="/home/cschalle/gnome-themes-extras/Wasp/icons/scalable/mimetypes">
  <defs
     id="defs658" />
  <sodipodi:namedview
     id="base" />
  <metadata
     id="metadata154">
    <sfw>
      <slices />
      <sliceSourceBounds
         y="394.788"
         x="271.829"
         width="49.342"
         height="49.423"
         bottomLeftOrigin="true" />
    </sfw>
  </metadata>
  <g
     id="Layer_1"
     stroke="#000000">
    <g
       id="Layer_1_2_">
      <path
         a:adobe-blending-mode="multiply"
         opacity="0.2"
         stroke="none"
         d="M6.345,29.509c0-8.675,9.625-15.707,21.498-15.707     c11.873,0,21.499,7.032,21.499,15.707c0,8.675-9.625,15.707-21.499,15.707C15.97,45.216,6.345,38.184,6.345,29.509z      M27.843,33.108c2.721,0,4.926-1.611,4.926-3.599c0-1.988-2.205-3.599-4.926-3.599c-2.72,0-4.925,1.61-4.925,3.599     C22.917,31.497,25.123,33.108,27.843,33.108z"
         id="path157" />
      <path
         stroke="none"
         d="M1.676,30.936c0,8.24,9.819,14.944,21.888,14.944s21.888-6.704,21.888-14.944     c0-8.241-9.819-14.945-21.888-14.945S1.676,22.695,1.676,30.936z M4.082,30.936c0-6.933,8.74-12.573,19.482-12.573     s19.483,5.64,19.483,12.573c0,6.933-8.74,12.572-19.483,12.572C12.821,43.509,4.082,37.869,4.082,30.936z"
         id="path158" />
      <path
         fill="#D9D9D9"
         stroke="none"
         d="M3.12,30.936c0-7.615,9.153-13.789,20.444-13.789c11.291,0,20.444,6.173,20.444,13.789     c0,7.615-9.153,13.787-20.444,13.787C12.272,44.724,3.12,38.551,3.12,30.936z M23.564,34.051c2.401,0,4.348-1.395,4.348-3.115     c0-1.722-1.947-3.116-4.348-3.116c-2.402,0-4.348,1.395-4.348,3.116C19.216,32.657,21.162,34.051,23.564,34.051z"
         id="path159" />
      <linearGradient
         id="XMLID_1_"
         gradientUnits="userSpaceOnUse"
         x1="-225.3789"
         y1="384.4722"
         x2="-192.099"
         y2="365.258"
         gradientTransform="matrix(1 0 0 -1 233.2412 406.3408)">
        <stop
           offset="0"
           style="stop-color:#E6E6FA"
           id="stop161" />
        <stop
           offset="0.4246"
           style="stop-color:#FFFFFF"
           id="stop162" />
        <stop
           offset="0.4972"
           style="stop-color:#ADADD2"
           id="stop163" />
        <stop
           offset="0.8492"
           style="stop-color:#EBEBFF"
           id="stop164" />
      </linearGradient>
      <path
         fill="url(#XMLID_1_)"
         stroke="none"
         d="M3.12,30.936c0-7.615,9.153-13.789,20.444-13.789     c11.291,0,20.444,6.173,20.444,13.789c0,7.615-9.153,13.787-20.444,13.787C12.272,44.724,3.12,38.551,3.12,30.936z      M23.564,34.051c2.401,0,4.348-1.395,4.348-3.115c0-1.722-1.947-3.116-4.348-3.116c-2.402,0-4.348,1.395-4.348,3.116     C19.216,32.657,21.162,34.051,23.564,34.051z"
         id="path172" />
      <linearGradient
         id="XMLID_2_"
         gradientUnits="userSpaceOnUse"
         x1="-213.0376"
         y1="373.9653"
         x2="-201.6875"
         y2="378.8297"
         gradientTransform="matrix(1 0 0 -1 233.2412 406.3408)">
        <stop
           offset="0"
           style="stop-color:#FFFFFF"
           id="stop174" />
        <stop
           offset="1"
           style="stop-color:#CCCCF5"
           id="stop175" />
      </linearGradient>
      <path
         fill="url(#XMLID_2_)"
         stroke="none"
         d="M14.962,30.936c0-3.204,3.85-5.801,8.602-5.801c4.75,0,8.602,2.597,8.602,5.801     c0,3.203-3.852,5.801-8.602,5.801C18.813,36.737,14.962,34.139,14.962,30.936z M23.564,34.085c2.495,0,4.516-1.438,4.516-3.209     c0-1.773-2.022-3.21-4.516-3.21c-2.495,0-4.517,1.438-4.517,3.21S21.069,34.085,23.564,34.085z"
         id="path179" />
      <path
         fill="none"
         stroke-width="2"
         d="M19.225,30.936c0-1.74,1.942-3.15,4.339-3.15c2.396,0,4.338,1.41,4.338,3.15     c0,1.739-1.942,3.149-4.338,3.149C21.167,34.085,19.225,32.675,19.225,30.936z"
         id="path180" />
      <linearGradient
         id="XMLID_3_"
         gradientUnits="userSpaceOnUse"
         x1="-197.751"
         y1="376.5073"
         x2="-224.2003"
         y2="374.0659"
         gradientTransform="matrix(1 0 0 -1 233.2412 406.3408)">
        <stop
           offset="0"
           style="stop-color:#FFFFFF"
           id="stop182" />
        <stop
           offset="1"
           style="stop-color:#6A77B8"
           id="stop183" />
      </linearGradient>
      <path
         fill="url(#XMLID_3_)"
         stroke="none"
         d="M14.568,30.936c0,3.412,4.036,6.188,8.995,6.188c4.96,0,8.995-2.776,8.995-6.188     c0-3.413-4.035-6.19-8.995-6.19C18.604,24.746,14.568,27.523,14.568,30.936z M15.382,30.936c0-2.965,3.67-5.376,8.182-5.376     c4.511,0,8.181,2.412,8.181,5.376s-3.67,5.375-8.181,5.375C19.052,36.311,15.382,33.9,15.382,30.936z"
         id="path187" />
      <path
         fill="#FFFFFF"
         stroke-width="2"
         d="M45.981,48.423H26.845V38.296h19.137V48.423z"
         id="path188" />
      <g
         id="g189">
        <path
           stroke="none"
           d="M30.408,43.007v-0.194l-0.788-1.119v4.569c0,0.105-0.037,0.194-0.111,0.269      c-0.074,0.073-0.164,0.11-0.27,0.11c-0.106,0-0.196-0.038-0.271-0.113c-0.074-0.074-0.111-0.163-0.111-0.266v-5.61h0.982      l0.941,1.358l0.958-1.358h0.959v5.61c0,0.105-0.038,0.194-0.114,0.269c-0.077,0.073-0.167,0.11-0.271,0.11      c-0.103,0-0.19-0.038-0.266-0.113c-0.074-0.074-0.111-0.163-0.111-0.266v-4.551l-0.763,1.082v0.213      c0,0.103-0.038,0.19-0.114,0.267c-0.076,0.075-0.165,0.112-0.268,0.112c-0.106,0-0.197-0.037-0.271-0.112      C30.446,43.198,30.408,43.11,30.408,43.007z"
           id="path190" />
        <path
           stroke="none"
           d="M34.442,46.263v-5.61h2.69c0.31,0,0.576,0.112,0.801,0.338c0.224,0.225,0.337,0.494,0.337,0.807v1.419      c0,0.313-0.112,0.58-0.335,0.803s-0.491,0.334-0.805,0.334h-1.926v1.91c0,0.105-0.036,0.194-0.109,0.269      c-0.073,0.073-0.162,0.109-0.267,0.109c-0.108,0-0.199-0.036-0.274-0.109C34.48,46.458,34.442,46.369,34.442,46.263z       M35.205,43.59h1.923c0.103,0,0.191-0.037,0.267-0.11s0.113-0.163,0.113-0.269v-1.418c0-0.105-0.038-0.194-0.113-0.268      s-0.164-0.111-0.267-0.111h-1.923V43.59z"
           id="path191" />
        <path
           stroke="none"
           d="M43.83,41.412v1.425c0,0.331-0.104,0.6-0.315,0.805c0.211,0.234,0.315,0.489,0.315,0.766v1.478      c0,0.208-0.074,0.386-0.225,0.534s-0.33,0.223-0.54,0.223h-2.672c-0.105,0-0.194-0.036-0.268-0.11      c-0.074-0.074-0.11-0.165-0.11-0.271s0.037-0.195,0.11-0.27c0.073-0.075,0.162-0.112,0.268-0.112h2.661v-1.471      c0-0.104-0.036-0.194-0.11-0.271c-0.073-0.076-0.162-0.114-0.268-0.114h-1.521c-0.105,0-0.194-0.036-0.268-0.108      c-0.074-0.073-0.11-0.164-0.11-0.273c0-0.105,0.037-0.195,0.109-0.27c0.073-0.074,0.163-0.111,0.267-0.111h1.524      c0.102,0,0.189-0.037,0.264-0.111c0.075-0.072,0.112-0.162,0.112-0.268v-1.466h-2.688c-0.104,0-0.193-0.036-0.267-0.11      s-0.109-0.164-0.109-0.271c0-0.105,0.037-0.196,0.11-0.271c0.073-0.073,0.163-0.11,0.269-0.11h2.704      c0.21,0,0.389,0.074,0.536,0.224C43.756,41.027,43.83,41.204,43.83,41.412z"
           id="path192" />
      </g>
      <path
         stroke="none"
         d="M17.084,1.489L10.511,0v21.578h1.696V2.966l4.877,1.105V1.489z"
         id="path193" />
      <g
         id="g194">
        <path
           fill="#D90F0F"
           stroke="none"
           d="M0.603,21.2c0-2.438,2.478-4.413,5.534-4.413s5.534,1.976,5.534,4.413      s-2.478,4.413-5.534,4.413S0.603,23.638,0.603,21.2z"
           id="path195" />
        <path
           fill="#DA1414"
           stroke="none"
           d="M6.064,16.843c2.975,0,5.387,1.923,5.387,4.296c0,2.372-2.412,4.295-5.387,4.295      c-2.976,0-5.388-1.923-5.388-4.295C0.677,18.767,3.089,16.843,6.064,16.843z"
           id="path196" />
        <path
           fill="#DB1818"
           stroke="none"
           d="M5.992,16.899c2.895,0,5.24,1.871,5.24,4.179s-2.346,4.179-5.24,4.179      c-2.894,0-5.24-1.871-5.24-4.179C0.751,18.77,3.097,16.899,5.992,16.899z"
           id="path197" />
        <path
           fill="#DC1D1D"
           stroke="none"
           d="M5.919,16.955c2.813,0,5.093,1.818,5.093,4.062s-2.28,4.062-5.093,4.062      c-2.813,0-5.093-1.818-5.093-4.062C0.826,18.773,3.106,16.955,5.919,16.955z"
           id="path198" />
        <path
           fill="#DD2121"
           stroke="none"
           d="M5.847,17.011c2.732,0,4.947,1.766,4.947,3.944c0,2.178-2.215,3.944-4.947,3.944      c-2.732,0-4.946-1.766-4.946-3.944C0.9,18.776,3.114,17.011,5.847,17.011z"
           id="path199" />
        <path
           fill="#DE2626"
           stroke="none"
           d="M5.774,17.066c2.65,0,4.799,1.713,4.799,3.828c0,2.114-2.149,3.827-4.799,3.827      c-2.651,0-4.8-1.713-4.8-3.827C0.975,18.78,3.123,17.066,5.774,17.066z"
           id="path200" />
        <path
           fill="#DF2A2A"
           stroke="none"
           d="M5.702,17.122c2.569,0,4.652,1.662,4.652,3.71s-2.083,3.71-4.652,3.71      s-4.653-1.661-4.653-3.71C1.049,18.783,3.132,17.122,5.702,17.122z"
           id="path201" />
        <path
           fill="#E02F2F"
           stroke="none"
           d="M5.629,17.177c2.489,0,4.505,1.609,4.505,3.593s-2.017,3.593-4.505,3.593      s-4.505-1.608-4.505-3.593C1.124,18.786,3.14,17.177,5.629,17.177z"
           id="path202" />
        <path
           fill="#E03334"
           stroke="none"
           d="M5.557,17.234c2.407,0,4.358,1.556,4.358,3.476s-1.951,3.476-4.358,3.476      S1.198,22.63,1.198,20.71S3.149,17.234,5.557,17.234z"
           id="path203" />
        <path
           fill="#E13838"
           stroke="none"
           d="M5.484,17.29c2.326,0,4.212,1.504,4.212,3.359s-1.886,3.359-4.212,3.359      s-4.212-1.503-4.212-3.359C1.272,18.793,3.158,17.29,5.484,17.29z"
           id="path204" />
        <path
           fill="#E23C3D"
           stroke="none"
           d="M5.412,17.345c2.245,0,4.065,1.452,4.065,3.242s-1.82,3.242-4.065,3.242      c-2.245,0-4.065-1.452-4.065-3.242S3.167,17.345,5.412,17.345z"
           id="path205" />
        <path
           fill="#E34141"
           stroke="none"
           d="M5.339,17.401c2.164,0,3.917,1.399,3.917,3.125S7.502,23.65,5.339,23.65      c-2.164,0-3.918-1.399-3.918-3.125S3.175,17.401,5.339,17.401z"
           id="path206" />
        <path
           fill="#E44646"
           stroke="none"
           d="M5.266,17.457c2.083,0,3.771,1.347,3.771,3.007s-1.688,3.007-3.771,3.007      c-2.083,0-3.771-1.346-3.771-3.007C1.496,18.803,3.184,17.457,5.266,17.457z"
           id="path207" />
        <path
           fill="#E54A4B"
           stroke="none"
           d="M5.194,17.512c2.002,0,3.625,1.294,3.625,2.891s-1.623,2.89-3.625,2.89      c-2.001,0-3.624-1.294-3.624-2.89S3.192,17.512,5.194,17.512z"
           id="path208" />
        <path
           fill="#E64F4F"
           stroke="none"
           d="M5.122,17.568c1.92,0,3.477,1.242,3.477,2.773c0,1.531-1.557,2.772-3.477,2.772      c-1.921,0-3.478-1.242-3.478-2.772C1.644,18.81,3.201,17.568,5.122,17.568z"
           id="path209" />
        <path
           fill="#E75354"
           stroke="none"
           d="M5.048,17.624c1.84,0,3.331,1.189,3.331,2.656c0,1.467-1.491,2.656-3.331,2.656      c-1.839,0-3.331-1.189-3.331-2.656C1.719,18.813,3.209,17.624,5.048,17.624z"
           id="path210" />
        <path
           fill="#E85858"
           stroke="none"
           d="M4.977,17.68c1.758,0,3.184,1.137,3.184,2.539s-1.426,2.539-3.184,2.539      c-1.758,0-3.184-1.137-3.184-2.539S3.218,17.68,4.977,17.68z"
           id="path211" />
        <path
           fill="#E95C5D"
           stroke="none"
           d="M4.904,17.736c1.677,0,3.036,1.084,3.036,2.421s-1.359,2.421-3.036,2.421      c-1.677,0-3.037-1.084-3.037-2.421C1.868,18.82,3.227,17.736,4.904,17.736z"
           id="path212" />
        <path
           fill="#EA6161"
           stroke="none"
           d="M4.832,17.792c1.596,0,2.89,1.032,2.89,2.304c0,1.273-1.293,2.305-2.89,2.305      s-2.89-1.032-2.89-2.305C1.941,18.823,3.235,17.792,4.832,17.792z"
           id="path213" />
        <path
           fill="#EB6566"
           stroke="none"
           d="M4.759,17.847c1.515,0,2.743,0.979,2.743,2.187s-1.228,2.187-2.743,2.187      c-1.515,0-2.743-0.979-2.743-2.187C2.016,18.826,3.244,17.847,4.759,17.847z"
           id="path214" />
        <path
           fill="#EC6A6B"
           stroke="none"
           d="M4.686,17.903c1.434,0,2.596,0.927,2.596,2.07s-1.163,2.07-2.596,2.07      c-1.433,0-2.596-0.926-2.596-2.07S3.253,17.903,4.686,17.903z"
           id="path215" />
        <path
           fill="#ED6F6F"
           stroke="none"
           d="M4.614,17.958c1.353,0,2.449,0.875,2.449,1.953s-1.097,1.953-2.449,1.953      s-2.449-0.875-2.449-1.953C2.165,18.833,3.261,17.958,4.614,17.958z"
           id="path216" />
        <path
           fill="#EE7374"
           stroke="none"
           d="M4.541,18.015c1.271,0,2.302,0.822,2.302,1.836s-1.031,1.835-2.302,1.835      c-1.271,0-2.302-0.821-2.302-1.835S3.27,18.015,4.541,18.015z"
           id="path217" />
        <path
           fill="#EF7878"
           stroke="none"
           d="M4.469,18.07c1.19,0,2.155,0.77,2.155,1.719s-0.964,1.719-2.155,1.719      c-1.19,0-2.155-0.77-2.155-1.719S3.279,18.07,4.469,18.07z"
           id="path218" />
        <path
           fill="#EF7C7D"
           stroke="none"
           d="M4.396,18.126c1.109,0,2.008,0.717,2.008,1.601c0,0.885-0.899,1.602-2.008,1.602      s-2.008-0.717-2.008-1.602C2.388,18.843,3.287,18.126,4.396,18.126z"
           id="path219" />
        <path
           fill="#F08182"
           stroke="none"
           d="M4.324,18.182c1.028,0,1.861,0.665,1.861,1.484S5.352,21.15,4.324,21.15      s-1.862-0.665-1.862-1.484S3.296,18.182,4.324,18.182z"
           id="path220" />
        <path
           fill="#F18586"
           stroke="none"
           d="M4.251,18.238c0.947,0,1.715,0.612,1.715,1.367c0,0.755-0.768,1.367-1.715,1.367      c-0.947,0-1.714-0.612-1.714-1.367C2.537,18.85,3.304,18.238,4.251,18.238z"
           id="path221" />
        <path
           fill="#F28A8B"
           stroke="none"
           d="M4.179,18.293c0.866,0,1.567,0.56,1.567,1.25s-0.702,1.25-1.567,1.25      s-1.568-0.56-1.568-1.25S3.313,18.293,4.179,18.293z"
           id="path222" />
        <path
           fill="#F38E8F"
           stroke="none"
           d="M4.106,18.349c0.785,0,1.421,0.507,1.421,1.133s-0.636,1.133-1.421,1.133      s-1.421-0.507-1.421-1.133S3.321,18.349,4.106,18.349z"
           id="path223" />
        <path
           fill="#F49394"
           stroke="none"
           d="M4.034,18.405c0.703,0,1.273,0.455,1.273,1.016c0,0.561-0.57,1.016-1.273,1.016      c-0.704,0-1.274-0.455-1.274-1.016C2.76,18.859,3.331,18.405,4.034,18.405z"
           id="path224" />
        <path
           fill="#F59798"
           stroke="none"
           d="M3.961,18.46c0.623,0,1.127,0.402,1.127,0.899c0,0.496-0.504,0.898-1.127,0.898      s-1.127-0.402-1.127-0.898S3.339,18.46,3.961,18.46z"
           id="path225" />
        <path
           fill="#F69C9D"
           stroke="none"
           d="M2.908,19.298c0-0.432,0.439-0.781,0.98-0.781c0.542,0,0.98,0.35,0.98,0.781      c0,0.431-0.438,0.781-0.98,0.781C3.347,20.079,2.908,19.729,2.908,19.298z"
           id="path226" />
      </g>
      <path
         stroke="none"
         d="M0,21.157c0,2.75,2.767,4.987,6.167,4.987c3.401,0,6.167-2.237,6.167-4.987     c0-2.75-2.768-4.987-6.167-4.987S0,18.407,0,21.157 M0.869,21.157c0-2.363,2.377-4.284,5.297-4.284     c2.921,0,5.298,1.921,5.298,4.284c0,2.363-2.376,4.284-5.298,4.284C3.246,25.441,0.869,23.52,0.869,21.157z"
         id="path227" />
      <path
         stroke="none"
         d="M26.013,7.554l-7.93-1.875v19.675h1.696V9.339l6.234,1.474V7.554z"
         id="path228" />
      <g
         id="g229">
        <g
           id="g230">
          <path
             fill="#F58B8C"
             stroke="none"
             d="M3.688,19.933c0-0.489,0.306-0.885,0.683-0.885s0.684,0.396,0.684,0.885       c0,0.488-0.307,0.885-0.684,0.885S3.688,20.421,3.688,19.933z"
             id="path231" />
        </g>
        <g
           id="g232">
          <path
             fill="#F58C8D"
             stroke="none"
             d="M4.372,19.053c0.372,0,0.673,0.394,0.673,0.88c0,0.485-0.301,0.879-0.673,0.879       s-0.673-0.394-0.673-0.879C3.698,19.447,4,19.053,4.372,19.053z"
             id="path233" />
        </g>
        <g
           id="g234">
          <path
             fill="#F68D8E"
             stroke="none"
             d="M4.372,19.059c0.366,0,0.663,0.392,0.663,0.875c0,0.482-0.297,0.874-0.663,0.874       c-0.366,0-0.662-0.392-0.662-0.874C3.709,19.45,4.005,19.059,4.372,19.059z"
             id="path235" />
        </g>
        <g
           id="g236">
          <path
             fill="#F68F90"
             stroke="none"
             d="M4.372,19.063c0.36,0,0.652,0.39,0.652,0.87c0,0.48-0.292,0.87-0.652,0.87       s-0.652-0.39-0.652-0.87C3.72,19.453,4.012,19.063,4.372,19.063z"
             id="path237" />
        </g>
        <g
           id="g238">
          <path
             fill="#F69091"
             stroke="none"
             d="M4.372,19.068c0.354,0,0.642,0.387,0.642,0.865c0,0.478-0.288,0.865-0.642,0.865       s-0.642-0.387-0.642-0.865C3.729,19.455,4.018,19.068,4.372,19.068z"
             id="path239" />
        </g>
        <g
           id="g240">
          <path
             fill="#F79191"
             stroke="none"
             d="M4.372,19.073c0.348,0,0.631,0.384,0.631,0.86c0,0.475-0.284,0.86-0.631,0.86       c-0.349,0-0.631-0.385-0.631-0.86C3.74,19.458,4.023,19.073,4.372,19.073z"
             id="path241" />
        </g>
        <g
           id="g242">
          <path
             fill="#F79293"
             stroke="none"
             d="M4.372,19.078c0.342,0,0.621,0.382,0.621,0.855c0,0.473-0.279,0.855-0.621,0.855       c-0.343,0-0.621-0.382-0.621-0.855C3.751,19.46,4.028,19.078,4.372,19.078z"
             id="path243" />
        </g>
        <g
           id="g244">
          <path
             fill="#F79394"
             stroke="none"
             d="M4.372,19.083c0.337,0,0.611,0.381,0.611,0.851c0,0.469-0.273,0.851-0.611,0.851       c-0.337,0-0.611-0.381-0.611-0.851C3.761,19.463,4.035,19.083,4.372,19.083z"
             id="path245" />
        </g>
        <g
           id="g246">
          <path
             fill="#F79495"
             stroke="none"
             d="M4.372,19.087c0.331,0,0.6,0.379,0.6,0.846c0,0.467-0.269,0.846-0.6,0.846       c-0.332,0-0.6-0.379-0.6-0.846C3.771,19.466,4.04,19.087,4.372,19.087z"
             id="path247" />
        </g>
        <g
           id="g248">
          <path
             fill="#F79696"
             stroke="none"
             d="M4.372,19.092c0.325,0,0.59,0.376,0.59,0.841c0,0.464-0.265,0.841-0.59,0.841       c-0.326,0-0.59-0.376-0.59-0.841C3.781,19.468,4.046,19.092,4.372,19.092z"
             id="path249" />
        </g>
        <g
           id="g250">
          <path
             fill="#F79798"
             stroke="none"
             d="M4.372,19.097c0.319,0,0.58,0.374,0.58,0.836c0,0.461-0.26,0.836-0.58,0.836       c-0.32,0-0.579-0.375-0.579-0.836C3.792,19.471,4.052,19.097,4.372,19.097z"
             id="path251" />
        </g>
        <g
           id="g252">
          <path
             fill="#F79899"
             stroke="none"
             d="M4.372,19.102c0.314,0,0.569,0.373,0.569,0.832c0,0.458-0.255,0.832-0.569,0.832       c-0.314,0-0.569-0.373-0.569-0.832C3.803,19.474,4.057,19.102,4.372,19.102z"
             id="path253" />
        </g>
        <g
           id="g254">
          <path
             fill="#F7999A"
             stroke="none"
             d="M4.372,19.106c0.308,0,0.559,0.37,0.559,0.827c0,0.457-0.25,0.826-0.559,0.826       c-0.309,0-0.559-0.37-0.559-0.826C3.813,19.476,4.063,19.106,4.372,19.106z"
             id="path255" />
        </g>
        <g
           id="g256">
          <path
             fill="#F79A9B"
             stroke="none"
             d="M4.372,19.111c0.302,0,0.548,0.368,0.548,0.822c0,0.454-0.246,0.822-0.548,0.822       c-0.303,0-0.548-0.368-0.548-0.822C3.823,19.479,4.069,19.111,4.372,19.111z"
             id="path257" />
        </g>
        <g
           id="g258">
          <path
             fill="#F69C9D"
             stroke="none"
             d="M4.372,19.116c0.297,0,0.538,0.366,0.538,0.817c0,0.451-0.241,0.817-0.538,0.817       s-0.538-0.366-0.538-0.817C3.833,19.482,4.075,19.116,4.372,19.116z"
             id="path259" />
        </g>
        <g
           id="g260">
          <path
             fill="#F69D9E"
             stroke="none"
             d="M4.372,19.12c0.291,0,0.528,0.364,0.528,0.813c0,0.448-0.236,0.812-0.528,0.812       c-0.291,0-0.528-0.363-0.528-0.812C3.844,19.484,4.081,19.12,4.372,19.12z"
             id="path261" />
        </g>
        <g
           id="g262">
          <path
             fill="#F69E9F"
             stroke="none"
             d="M4.372,19.125c0.285,0,0.517,0.362,0.517,0.808c0,0.446-0.232,0.807-0.517,0.807       c-0.286,0-0.518-0.361-0.518-0.807C3.854,19.487,4.086,19.125,4.372,19.125z"
             id="path263" />
        </g>
        <g
           id="g264">
          <path
             fill="#F69FA0"
             stroke="none"
             d="M4.372,19.13c0.28,0,0.507,0.359,0.507,0.804c0,0.443-0.227,0.803-0.507,0.803       s-0.507-0.36-0.507-0.803C3.865,19.489,4.092,19.13,4.372,19.13z"
             id="path265" />
        </g>
        <g
           id="g266">
          <path
             fill="#F6A1A1"
             stroke="none"
             d="M4.372,19.134c0.274,0,0.496,0.358,0.496,0.799c0,0.44-0.222,0.797-0.496,0.797       s-0.497-0.357-0.497-0.797C3.875,19.492,4.098,19.134,4.372,19.134z"
             id="path267" />
        </g>
        <g
           id="g268">
          <path
             fill="#F6A3A3"
             stroke="none"
             d="M4.372,19.14c0.268,0,0.486,0.354,0.486,0.793c0,0.438-0.218,0.792-0.486,0.792       c-0.269,0-0.486-0.355-0.486-0.792C3.886,19.494,4.103,19.14,4.372,19.14z"
             id="path269" />
        </g>
        <g
           id="g270">
          <path
             fill="#F6A4A5"
             stroke="none"
             d="M4.372,19.145c0.263,0,0.476,0.354,0.476,0.788c0,0.436-0.213,0.789-0.476,0.789       c-0.262,0-0.477-0.353-0.477-0.789C3.895,19.498,4.109,19.145,4.372,19.145z"
             id="path271" />
        </g>
        <g
           id="g272">
          <path
             fill="#F6A5A6"
             stroke="none"
             d="M4.372,19.149c0.256,0,0.465,0.352,0.465,0.784c0,0.433-0.209,0.784-0.465,0.784       c-0.257,0-0.465-0.351-0.465-0.784C3.907,19.5,4.115,19.149,4.372,19.149z"
             id="path273" />
        </g>
        <g
           id="g274">
          <path
             fill="#F6A6A6"
             stroke="none"
             d="M4.372,19.153c0.251,0,0.455,0.35,0.455,0.779c0,0.43-0.204,0.779-0.455,0.779       c-0.251,0-0.455-0.349-0.455-0.779C3.917,19.503,4.12,19.153,4.372,19.153z"
             id="path275" />
        </g>
        <g
           id="g276">
          <path
             fill="#F5A7A7"
             stroke="none"
             d="M4.372,19.16c0.246,0,0.444,0.346,0.444,0.773c0,0.427-0.199,0.773-0.444,0.773       s-0.445-0.346-0.445-0.773C3.926,19.506,4.126,19.16,4.372,19.16z"
             id="path277" />
        </g>
        <g
           id="g278">
          <path
             fill="#F4A7A8"
             stroke="none"
             d="M4.372,19.164c0.24,0,0.435,0.344,0.435,0.769s-0.195,0.769-0.435,0.769       c-0.239,0-0.434-0.344-0.434-0.769S4.132,19.164,4.372,19.164z"
             id="path279" />
        </g>
        <g
           id="g280">
          <path
             fill="#F4A9A9"
             stroke="none"
             d="M4.372,19.168c0.233,0,0.424,0.342,0.424,0.764c0,0.422-0.19,0.764-0.424,0.764       c-0.234,0-0.424-0.342-0.424-0.764C3.948,19.511,4.138,19.168,4.372,19.168z"
             id="path281" />
        </g>
        <g
           id="g282">
          <path
             fill="#F4AAAB"
             stroke="none"
             d="M4.372,19.173c0.228,0,0.414,0.341,0.414,0.76c0,0.419-0.186,0.76-0.414,0.76       c-0.229,0-0.414-0.34-0.414-0.76C3.958,19.514,4.143,19.173,4.372,19.173z"
             id="path283" />
        </g>
        <g
           id="g284">
          <path
             fill="#F4ABAC"
             stroke="none"
             d="M4.372,19.179c0.222,0,0.403,0.337,0.403,0.754s-0.181,0.754-0.403,0.754       c-0.223,0-0.403-0.336-0.403-0.754C3.969,19.516,4.149,19.179,4.372,19.179z"
             id="path285" />
        </g>
        <g
           id="g286">
          <path
             fill="#F3ABAC"
             stroke="none"
             d="M4.372,19.183c0.216,0,0.393,0.335,0.393,0.75c0,0.414-0.176,0.75-0.393,0.75       c-0.217,0-0.393-0.335-0.393-0.75C3.979,19.519,4.155,19.183,4.372,19.183z"
             id="path287" />
        </g>
        <g
           id="g288">
          <path
             fill="#F3ACAD"
             stroke="none"
             d="M4.372,19.188c0.211,0,0.382,0.333,0.382,0.745c0,0.412-0.171,0.745-0.382,0.745       c-0.211,0-0.382-0.333-0.382-0.745C3.989,19.521,4.16,19.188,4.372,19.188z"
             id="path289" />
        </g>
        <g
           id="g290">
          <path
             fill="#F4AFAF"
             stroke="none"
             d="M4.372,19.192c0.205,0,0.372,0.331,0.372,0.74s-0.167,0.74-0.372,0.74       C4.166,20.673,4,20.342,4,19.933S4.166,19.192,4.372,19.192z"
             id="path291" />
        </g>
        <g
           id="g292">
          <path
             fill="#F4B0B1"
             stroke="none"
             d="M4.372,19.198c0.199,0,0.361,0.33,0.361,0.735c0,0.406-0.162,0.736-0.361,0.736       c-0.2,0-0.362-0.33-0.362-0.736C4.01,19.527,4.172,19.198,4.372,19.198z"
             id="path293" />
        </g>
        <g
           id="g294">
          <path
             fill="#F4B1B2"
             stroke="none"
             d="M4.372,19.202c0.193,0,0.351,0.328,0.351,0.73c0,0.403-0.158,0.73-0.351,0.73       c-0.194,0-0.351-0.327-0.351-0.73C4.021,19.53,4.178,19.202,4.372,19.202z"
             id="path295" />
        </g>
        <g
           id="g296">
          <path
             fill="#F4B2B2"
             stroke="none"
             d="M4.372,19.207c0.188,0,0.341,0.325,0.341,0.726c0,0.401-0.153,0.725-0.341,0.725       c-0.188,0-0.341-0.324-0.341-0.725C4.031,19.532,4.184,19.207,4.372,19.207z"
             id="path297" />
        </g>
        <g
           id="g298">
          <path
             fill="#F4B3B4"
             stroke="none"
             d="M4.372,19.211c0.182,0,0.33,0.324,0.33,0.722c0,0.398-0.148,0.721-0.33,0.721       c-0.183,0-0.331-0.323-0.331-0.721C4.041,19.535,4.189,19.211,4.372,19.211z"
             id="path299" />
        </g>
        <g
           id="g300">
          <path
             fill="#F4B4B5"
             stroke="none"
             d="M4.372,19.216c0.177,0,0.32,0.321,0.32,0.716c0,0.396-0.143,0.717-0.32,0.717       s-0.32-0.321-0.32-0.717C4.051,19.538,4.195,19.216,4.372,19.216z"
             id="path301" />
        </g>
        <g
           id="g302">
          <path
             fill="#F5B6B7"
             stroke="none"
             d="M4.372,19.221c0.171,0,0.31,0.318,0.31,0.711c0,0.394-0.139,0.712-0.31,0.712       s-0.31-0.318-0.31-0.712C4.062,19.54,4.2,19.221,4.372,19.221z"
             id="path303" />
        </g>
        <g
           id="g304">
          <path
             fill="#F5B7B8"
             stroke="none"
             d="M4.372,19.227c0.165,0,0.299,0.316,0.299,0.707c0,0.391-0.134,0.707-0.299,0.707       c-0.166,0-0.3-0.316-0.3-0.707C4.072,19.543,4.206,19.227,4.372,19.227z"
             id="path305" />
        </g>
        <g
           id="g306">
          <path
             fill="#F5B8B9"
             stroke="none"
             d="M4.372,19.231c0.159,0,0.289,0.315,0.289,0.702s-0.13,0.702-0.289,0.702       c-0.16,0-0.289-0.314-0.289-0.702C4.083,19.545,4.212,19.231,4.372,19.231z"
             id="path307" />
        </g>
        <g
           id="g308">
          <path
             fill="#F6B9BA"
             stroke="none"
             d="M4.372,19.236c0.154,0,0.278,0.312,0.278,0.697c0,0.385-0.125,0.697-0.278,0.697       c-0.154,0-0.278-0.312-0.278-0.697C4.093,19.548,4.217,19.236,4.372,19.236z"
             id="path309" />
        </g>
        <g
           id="g310">
          <path
             fill="#F6BABB"
             stroke="none"
             d="M4.372,19.24c0.148,0,0.268,0.31,0.268,0.692s-0.12,0.693-0.268,0.693       s-0.269-0.311-0.269-0.693S4.224,19.24,4.372,19.24z"
             id="path311" />
        </g>
        <g
           id="g312">
          <path
             fill="#F7BCBD"
             stroke="none"
             d="M4.372,19.245c0.142,0,0.258,0.309,0.258,0.688s-0.116,0.688-0.258,0.688       c-0.143,0-0.258-0.308-0.258-0.688S4.229,19.245,4.372,19.245z"
             id="path313" />
        </g>
        <g
           id="g314">
          <path
             fill="#F7BDBE"
             stroke="none"
             d="M4.372,19.25c0.136,0,0.247,0.306,0.247,0.683s-0.111,0.683-0.247,0.683       c-0.137,0-0.248-0.305-0.248-0.683S4.234,19.25,4.372,19.25z"
             id="path315" />
        </g>
        <g
           id="g316">
          <path
             fill="#F7BEBF"
             stroke="none"
             d="M4.372,19.255c0.131,0,0.237,0.303,0.237,0.677c0,0.375-0.106,0.678-0.237,0.678       s-0.237-0.303-0.237-0.678C4.135,19.559,4.241,19.255,4.372,19.255z"
             id="path317" />
        </g>
        <g
           id="g318">
          <path
             fill="#F8C0C0"
             stroke="none"
             d="M4.372,19.26c0.125,0,0.227,0.301,0.227,0.673s-0.102,0.674-0.227,0.674       c-0.125,0-0.227-0.302-0.227-0.674S4.247,19.26,4.372,19.26z"
             id="path319" />
        </g>
        <g
           id="g320">
          <path
             fill="#F8C1C1"
             stroke="none"
             d="M4.372,19.264c0.119,0,0.216,0.3,0.216,0.669c0,0.369-0.097,0.668-0.216,0.668       c-0.12,0-0.217-0.299-0.217-0.668C4.155,19.564,4.252,19.264,4.372,19.264z"
             id="path321" />
        </g>
        <g
           id="g322">
          <path
             fill="#F9C3C3"
             stroke="none"
             d="M4.372,19.27c0.113,0,0.206,0.297,0.206,0.663s-0.092,0.663-0.206,0.663       c-0.114,0-0.206-0.297-0.206-0.663S4.258,19.27,4.372,19.27z"
             id="path323" />
        </g>
        <g
           id="g324">
          <path
             fill="#F9C4C4"
             stroke="none"
             d="M4.372,19.274c0.107,0,0.195,0.295,0.195,0.659c0,0.364-0.088,0.659-0.195,0.659       c-0.108,0-0.196-0.295-0.196-0.659C4.176,19.569,4.264,19.274,4.372,19.274z"
             id="path325" />
        </g>
        <g
           id="g326">
          <path
             fill="#F9C5C5"
             stroke="none"
             d="M4.372,19.28c0.102,0,0.185,0.292,0.185,0.653c0,0.361-0.083,0.654-0.185,0.654       s-0.186-0.292-0.186-0.654C4.186,19.572,4.27,19.28,4.372,19.28z"
             id="path327" />
        </g>
        <g
           id="g328">
          <path
             fill="#F9C6C6"
             stroke="none"
             d="M4.372,19.283c0.096,0,0.174,0.291,0.174,0.649s-0.078,0.649-0.174,0.649       c-0.097,0-0.175-0.291-0.175-0.649S4.275,19.283,4.372,19.283z"
             id="path329" />
        </g>
        <g
           id="g330">
          <path
             fill="#F9C7C7"
             stroke="none"
             d="M4.372,19.289c0.09,0,0.164,0.288,0.164,0.644s-0.074,0.644-0.164,0.644       s-0.165-0.288-0.165-0.644S4.281,19.289,4.372,19.289z"
             id="path331" />
        </g>
        <g
           id="g332">
          <path
             fill="#F9C8C8"
             stroke="none"
             d="M4.372,19.294c0.084,0,0.154,0.286,0.154,0.639c0,0.354-0.069,0.639-0.154,0.639       c-0.085,0-0.154-0.285-0.154-0.639C4.217,19.58,4.286,19.294,4.372,19.294z"
             id="path333" />
        </g>
        <g
           id="g334">
          <path
             fill="#F8C9CA"
             stroke="none"
             d="M4.372,19.298c0.079,0,0.144,0.284,0.144,0.634c0,0.351-0.064,0.635-0.144,0.635       s-0.144-0.284-0.144-0.635C4.228,19.583,4.292,19.298,4.372,19.298z"
             id="path335" />
        </g>
        <g
           id="g336">
          <path
             fill="#F8CACB"
             stroke="none"
             d="M4.372,19.303c0.073,0,0.133,0.282,0.133,0.629c0,0.348-0.06,0.63-0.133,0.63       s-0.133-0.282-0.133-0.63C4.238,19.585,4.298,19.303,4.372,19.303z"
             id="path337" />
        </g>
        <g
           id="g338">
          <path
             fill="#F8CCCC"
             stroke="none"
             d="M4.372,19.308c0.067,0,0.123,0.279,0.123,0.625c0,0.345-0.056,0.625-0.123,0.625       c-0.068,0-0.123-0.28-0.123-0.625C4.249,19.587,4.304,19.308,4.372,19.308z"
             id="path339" />
        </g>
        <g
           id="g340">
          <path
             fill="#F8CDCD"
             stroke="none"
             d="M4.372,19.313c0.062,0,0.112,0.278,0.112,0.62c0,0.343-0.05,0.62-0.112,0.62       s-0.112-0.277-0.112-0.62C4.259,19.591,4.31,19.313,4.372,19.313z"
             id="path341" />
        </g>
        <g
           id="g342">
          <path
             fill="#F7CECE"
             stroke="none"
             d="M4.372,19.317c0.057,0,0.102,0.276,0.102,0.615c0,0.34-0.045,0.615-0.102,0.615       S4.27,20.272,4.27,19.933C4.27,19.593,4.315,19.317,4.372,19.317z"
             id="path343" />
        </g>
        <g
           id="g344">
          <path
             fill="#F7D0D0"
             stroke="none"
             d="M4.372,19.322c0.05,0,0.091,0.273,0.091,0.61c0,0.337-0.041,0.611-0.091,0.611       c-0.051,0-0.092-0.273-0.092-0.611C4.28,19.596,4.321,19.322,4.372,19.322z"
             id="path345" />
        </g>
        <g
           id="g346">
          <path
             fill="#F6D0D1"
             stroke="none"
             d="M4.372,19.327c0.044,0,0.081,0.271,0.081,0.606c0,0.335-0.037,0.606-0.081,0.606       c-0.045,0-0.081-0.271-0.081-0.606C4.291,19.598,4.326,19.327,4.372,19.327z"
             id="path347" />
        </g>
        <g
           id="g348">
          <path
             fill="#F6D2D2"
             stroke="none"
             d="M4.372,19.331c0.04,0,0.071,0.27,0.071,0.602c0,0.332-0.032,0.601-0.071,0.601       S4.3,20.265,4.3,19.933C4.3,19.601,4.332,19.331,4.372,19.331z"
             id="path349" />
        </g>
        <g
           id="g350">
          <path
             fill="#F6D3D4"
             stroke="none"
             d="M4.372,19.336c0.033,0,0.061,0.267,0.061,0.596c0,0.33-0.027,0.596-0.061,0.596       s-0.061-0.266-0.061-0.596C4.311,19.604,4.338,19.336,4.372,19.336z"
             id="path351" />
        </g>
        <g
           id="g352">
          <path
             fill="#F6D4D4"
             stroke="none"
             d="M4.372,19.341c0.027,0,0.05,0.265,0.05,0.592s-0.022,0.591-0.05,0.591       c-0.028,0-0.051-0.264-0.051-0.591C4.321,19.605,4.344,19.341,4.372,19.341z"
             id="path353" />
        </g>
        <g
           id="g354">
          <path
             fill="#F5D6D6"
             stroke="none"
             d="M4.372,19.346c0.022,0,0.04,0.263,0.04,0.587s-0.018,0.586-0.04,0.586       c-0.022,0-0.04-0.263-0.04-0.586S4.349,19.346,4.372,19.346z"
             id="path355" />
        </g>
        <g
           id="g356">
          <path
             fill="#F5D7D7"
             stroke="none"
             d="M4.372,19.351c0.016,0,0.029,0.261,0.029,0.582c0,0.322-0.013,0.582-0.029,0.582       s-0.03-0.26-0.03-0.582C4.342,19.611,4.355,19.351,4.372,19.351z"
             id="path357" />
        </g>
        <g
           id="g358">
          <path
             fill="#F5D8D9"
             stroke="none"
             d="M4.372,19.355c0.01,0,0.019,0.259,0.019,0.577c0,0.319-0.008,0.577-0.019,0.577       c-0.011,0-0.019-0.258-0.019-0.577C4.353,19.614,4.361,19.355,4.372,19.355z"
             id="path359" />
        </g>
        <g
           id="g360">
          <path
             fill="#F5D9D9"
             stroke="none"
             d="M4.372,19.361c0.005,0,0.008,0.256,0.008,0.572c0,0.316-0.004,0.572-0.008,0.572       c-0.005,0-0.009-0.255-0.009-0.572C4.363,19.617,4.366,19.361,4.372,19.361z"
             id="path361" />
        </g>
        <g
           id="g362">
          <path
             fill="#F5DADA"
             stroke="none"
             d="M4.372,19.366c-0.001,0-0.002,0.253-0.002,0.567S4.371,20.5,4.372,20.5       s0.002-0.254,0.002-0.567C4.374,19.62,4.373,19.366,4.372,19.366z"
             id="path363" />
        </g>
        <g
           id="g364">
          <path
             fill="#F5DBDB"
             stroke="none"
             d="M4.372,19.37c-0.007,0-0.012,0.252-0.012,0.563c0,0.311,0.005,0.562,0.012,0.562       c0.006,0,0.012-0.251,0.012-0.562C4.384,19.623,4.378,19.37,4.372,19.37z"
             id="path365" />
        </g>
        <g
           id="g366">
          <path
             fill="#F5DCDD"
             stroke="none"
             d="M4.372,19.375c-0.013,0-0.023,0.25-0.023,0.558s0.01,0.558,0.023,0.558       c0.012,0,0.022-0.25,0.022-0.558S4.384,19.375,4.372,19.375z"
             id="path367" />
        </g>
        <g
           id="g368">
          <path
             fill="#F5DDDE"
             stroke="none"
             d="M4.372,19.38c-0.019,0-0.033,0.248-0.033,0.553c0,0.306,0.014,0.553,0.033,0.553       c0.018,0,0.033-0.247,0.033-0.553C4.404,19.627,4.39,19.38,4.372,19.38z"
             id="path369" />
        </g>
        <g
           id="g370">
          <path
             fill="#F5DEDF"
             stroke="none"
             d="M4.372,19.385c-0.024,0-0.043,0.246-0.043,0.548c0,0.303,0.02,0.548,0.043,0.548       s0.043-0.246,0.043-0.548C4.415,19.63,4.396,19.385,4.372,19.385z"
             id="path371" />
        </g>
        <g
           id="g372">
          <path
             fill="#F5DFE0"
             stroke="none"
             d="M4.372,19.39c-0.03,0-0.054,0.243-0.054,0.543s0.024,0.543,0.054,0.543       s0.053-0.243,0.053-0.543S4.401,19.39,4.372,19.39z"
             id="path373" />
        </g>
        <g
           id="g374">
          <path
             fill="#F5E0E1"
             stroke="none"
             d="M4.372,19.394c-0.035,0-0.064,0.241-0.064,0.539c0,0.298,0.029,0.539,0.064,0.539       s0.064-0.241,0.064-0.539C4.436,19.636,4.407,19.394,4.372,19.394z"
             id="path375" />
        </g>
        <g
           id="g376">
          <path
             fill="#F5E3E3"
             stroke="none"
             d="M4.372,19.399c-0.042,0-0.074,0.239-0.074,0.534s0.033,0.534,0.074,0.534       c0.041,0,0.074-0.239,0.074-0.534C4.446,19.638,4.413,19.399,4.372,19.399z"
             id="path377" />
        </g>
        <g
           id="g378">
          <path
             fill="#F5E4E4"
             stroke="none"
             d="M4.372,19.404c-0.047,0-0.084,0.237-0.084,0.529c0,0.292,0.037,0.529,0.084,0.529       c0.047,0,0.084-0.236,0.084-0.529C4.456,19.641,4.418,19.404,4.372,19.404z"
             id="path379" />
        </g>
        <g
           id="g380">
          <path
             fill="#F5E6E5"
             stroke="none"
             d="M4.372,19.409c-0.052,0-0.095,0.233-0.095,0.524c0,0.29,0.043,0.524,0.095,0.524       s0.095-0.234,0.095-0.524C4.466,19.643,4.424,19.409,4.372,19.409z"
             id="path381" />
        </g>
        <g
           id="g382">
          <path
             fill="#F5E7E6"
             stroke="none"
             d="M4.372,19.413c-0.058,0-0.106,0.233-0.106,0.52c0,0.287,0.047,0.52,0.106,0.52       c0.058,0,0.105-0.232,0.105-0.52C4.477,19.646,4.429,19.413,4.372,19.413z"
             id="path383" />
        </g>
        <g
           id="g384">
          <path
             fill="#F5E8E7"
             stroke="none"
             d="M4.372,19.418c-0.064,0-0.116,0.229-0.116,0.514s0.052,0.514,0.116,0.514       c0.063,0,0.116-0.23,0.116-0.514C4.487,19.648,4.435,19.418,4.372,19.418z"
             id="path385" />
        </g>
        <g
           id="g386">
          <path
             fill="#F5E9E8"
             stroke="none"
             d="M4.372,19.424c-0.07,0-0.126,0.228-0.126,0.509s0.057,0.51,0.126,0.51       s0.126-0.228,0.126-0.51S4.441,19.424,4.372,19.424z"
             id="path387" />
        </g>
        <g
           id="g388">
          <path
             fill="#F5EBEA"
             stroke="none"
             d="M4.372,19.428c-0.075,0-0.137,0.226-0.137,0.505c0,0.279,0.062,0.505,0.137,0.505       c0.075,0,0.136-0.226,0.136-0.505C4.508,19.654,4.446,19.428,4.372,19.428z"
             id="path389" />
        </g>
        <g
           id="g390">
          <path
             fill="#F6ECEB"
             stroke="none"
             d="M4.372,19.433c-0.081,0-0.147,0.224-0.147,0.5c0,0.276,0.066,0.5,0.147,0.5       s0.147-0.224,0.147-0.5C4.519,19.657,4.453,19.433,4.372,19.433z"
             id="path391" />
        </g>
        <g
           id="g392">
          <path
             fill="#F6EDEC"
             stroke="none"
             d="M4.372,19.438c-0.087,0-0.158,0.222-0.158,0.496c0,0.274,0.071,0.496,0.158,0.496       c0.086,0,0.157-0.221,0.157-0.496C4.529,19.659,4.458,19.438,4.372,19.438z"
             id="path393" />
        </g>
        <g
           id="g394">
          <path
             fill="#F6EEED"
             stroke="none"
             d="M4.372,19.442c-0.093,0-0.168,0.219-0.168,0.491s0.075,0.491,0.168,0.491       c0.092,0,0.167-0.219,0.167-0.491S4.463,19.442,4.372,19.442z"
             id="path395" />
        </g>
        <g
           id="g396">
          <path
             fill="#F7EFEE"
             stroke="none"
             d="M4.372,19.447c-0.099,0-0.178,0.217-0.178,0.485c0,0.269,0.08,0.486,0.178,0.486       c0.098,0,0.178-0.218,0.178-0.486S4.47,19.447,4.372,19.447z"
             id="path397" />
        </g>
        <g
           id="g398">
          <path
             fill="#F8F2F0"
             stroke="none"
             d="M4.372,19.452c-0.104,0-0.188,0.216-0.188,0.481c0,0.266,0.084,0.481,0.188,0.481       c0.104,0,0.188-0.216,0.188-0.481C4.56,19.667,4.476,19.452,4.372,19.452z"
             id="path399" />
        </g>
        <g
           id="g400">
          <path
             fill="#F8F3F1"
             stroke="none"
             d="M4.372,19.457c-0.11,0-0.199,0.213-0.199,0.477s0.089,0.476,0.199,0.476       c0.109,0,0.199-0.212,0.199-0.476S4.481,19.457,4.372,19.457z"
             id="path401" />
        </g>
        <g
           id="g402">
          <path
             fill="#F8F4F2"
             stroke="none"
             d="M4.372,19.461c-0.116,0-0.209,0.21-0.209,0.471c0,0.26,0.094,0.471,0.209,0.471       c0.115,0,0.209-0.21,0.209-0.471C4.581,19.672,4.487,19.461,4.372,19.461z"
             id="path403" />
        </g>
        <g
           id="g404">
          <path
             fill="#F9F5F3"
             stroke="none"
             d="M4.372,19.466c-0.122,0-0.22,0.209-0.22,0.467s0.098,0.467,0.22,0.467       c0.121,0,0.219-0.209,0.219-0.467S4.493,19.466,4.372,19.466z"
             id="path405" />
        </g>
        <g
           id="g406">
          <path
             fill="#F9F6F4"
             stroke="none"
             d="M4.372,19.471c-0.127,0-0.23,0.206-0.23,0.462c0,0.255,0.103,0.461,0.23,0.461       s0.23-0.206,0.23-0.461S4.499,19.471,4.372,19.471z"
             id="path407" />
        </g>
        <g
           id="g408">
          <path
             fill="#FAF7F6"
             stroke="none"
             d="M4.372,19.476c-0.133,0-0.241,0.205-0.241,0.458c0,0.253,0.107,0.457,0.241,0.457       c0.133,0,0.24-0.204,0.24-0.457C4.612,19.681,4.504,19.476,4.372,19.476z"
             id="path409" />
        </g>
        <g
           id="g410">
          <path
             fill="#FAF8F6"
             stroke="none"
             d="M4.372,19.48c-0.139,0-0.251,0.203-0.251,0.452c0,0.25,0.113,0.452,0.251,0.452       c0.138,0,0.25-0.202,0.25-0.452C4.622,19.683,4.51,19.48,4.372,19.48z"
             id="path411" />
        </g>
        <g
           id="g412">
          <path
             fill="#FBFAF8"
             stroke="none"
             d="M4.372,19.485c-0.144,0-0.262,0.201-0.262,0.448c0,0.247,0.118,0.447,0.262,0.447       s0.261-0.2,0.261-0.447C4.633,19.686,4.516,19.485,4.372,19.485z"
             id="path413" />
        </g>
        <g
           id="g414">
          <path
             fill="#FBFBF9"
             stroke="none"
             d="M4.372,19.49c-0.15,0-0.272,0.198-0.272,0.443s0.122,0.442,0.272,0.442       s0.271-0.198,0.271-0.442S4.521,19.49,4.372,19.49z"
             id="path415" />
        </g>
        <g
           id="g416">
          <path
             fill="#FCFBFA"
             stroke="none"
             d="M4.372,19.495c-0.156,0-0.283,0.196-0.283,0.438c0,0.242,0.126,0.438,0.283,0.438       c0.155,0,0.282-0.196,0.282-0.438C4.654,19.691,4.527,19.495,4.372,19.495z"
             id="path417" />
        </g>
        <g
           id="g418">
          <path
             fill="#FCFCFB"
             stroke="none"
             d="M4.372,19.5c-0.162,0-0.292,0.194-0.292,0.433s0.13,0.433,0.292,0.433       c0.161,0,0.292-0.193,0.292-0.433S4.533,19.5,4.372,19.5z"
             id="path419" />
        </g>
        <g
           id="g420">
          <path
             fill="#FEFEFD"
             stroke="none"
             d="M4.372,19.504c-0.168,0-0.303,0.192-0.303,0.429c0,0.236,0.135,0.428,0.303,0.428       c0.167,0,0.302-0.191,0.302-0.428S4.539,19.504,4.372,19.504z"
             id="path421" />
        </g>
        <g
           id="g422">
          <path
             fill="#FEFEFD"
             stroke="none"
             d="M4.372,19.51c-0.173,0-0.314,0.188-0.314,0.423s0.141,0.423,0.314,0.423       c0.172,0,0.313-0.189,0.313-0.423S4.544,19.51,4.372,19.51z"
             id="path423" />
        </g>
        <g
           id="g424">
          <path
             fill="#FFFFFF"
             stroke="none"
             d="M4.048,19.933c0-0.231,0.145-0.418,0.324-0.418c0.178,0,0.323,0.187,0.323,0.418       s-0.145,0.418-0.323,0.418C4.193,20.352,4.048,20.164,4.048,19.933z"
             id="path425" />
        </g>
      </g>
      <g
         id="g426">
        <path
           fill="#D90F0F"
           stroke="none"
           d="M8.239,25.263c0-2.438,2.477-4.413,5.534-4.413c3.056,0,5.534,1.976,5.534,4.413      s-2.478,4.413-5.534,4.413C10.716,29.676,8.239,27.701,8.239,25.263z"
           id="path427" />
        <path
           fill="#DA1414"
           stroke="none"
           d="M13.7,20.906c2.975,0,5.387,1.924,5.387,4.296s-2.412,4.295-5.387,4.295      c-2.976,0-5.387-1.923-5.387-4.295C8.313,22.83,10.725,20.906,13.7,20.906z"
           id="path428" />
        <path
           fill="#DB1818"
           stroke="none"
           d="M13.627,20.962c2.894,0,5.241,1.871,5.241,4.179c0,2.308-2.347,4.178-5.241,4.178      c-2.894,0-5.24-1.87-5.24-4.178C8.387,22.833,10.733,20.962,13.627,20.962z"
           id="path429" />
        <path
           fill="#DC1D1D"
           stroke="none"
           d="M13.555,21.018c2.813,0,5.093,1.818,5.093,4.062c0,2.244-2.28,4.062-5.093,4.062      s-5.094-1.818-5.094-4.062C8.461,22.836,10.742,21.018,13.555,21.018z"
           id="path430" />
        <path
           fill="#DD2121"
           stroke="none"
           d="M13.482,21.073c2.732,0,4.947,1.766,4.947,3.944s-2.214,3.945-4.947,3.945      c-2.732,0-4.946-1.766-4.946-3.944S10.75,21.073,13.482,21.073z"
           id="path431" />
        <path
           fill="#DE2626"
           stroke="none"
           d="M13.41,21.129c2.65,0,4.799,1.714,4.799,3.828c0,2.114-2.149,3.827-4.799,3.827      S8.61,27.07,8.61,24.957C8.611,22.843,10.759,21.129,13.41,21.129z"
           id="path432" />
        <path
           fill="#DF2A2A"
           stroke="none"
           d="M13.337,21.185c2.569,0,4.653,1.662,4.653,3.71s-2.083,3.71-4.653,3.71      s-4.653-1.661-4.653-3.71S10.768,21.185,13.337,21.185z"
           id="path433" />
        <path
           fill="#E02F2F"
           stroke="none"
           d="M13.265,21.241c2.489,0,4.506,1.608,4.506,3.593s-2.017,3.594-4.506,3.594      c-2.488,0-4.505-1.609-4.505-3.594S10.776,21.241,13.265,21.241z"
           id="path434" />
        <path
           fill="#E03334"
           stroke="none"
           d="M13.192,21.296c2.407,0,4.358,1.556,4.358,3.476c0,1.921-1.951,3.477-4.358,3.477      s-4.359-1.556-4.359-3.477C8.833,22.853,10.785,21.296,13.192,21.296z"
           id="path435" />
        <path
           fill="#E13838"
           stroke="none"
           d="M13.12,21.353c2.326,0,4.212,1.504,4.212,3.359c0,1.855-1.886,3.359-4.212,3.359      s-4.212-1.504-4.212-3.359C8.908,22.856,10.794,21.353,13.12,21.353z"
           id="path436" />
        <path
           fill="#E23C3D"
           stroke="none"
           d="M13.047,21.408c2.245,0,4.065,1.452,4.065,3.242c0,1.791-1.82,3.242-4.065,3.242      s-4.065-1.451-4.065-3.242C8.982,22.859,10.803,21.408,13.047,21.408z"
           id="path437" />
        <path
           fill="#E34141"
           stroke="none"
           d="M12.975,21.464c2.164,0,3.918,1.399,3.918,3.125s-1.754,3.125-3.918,3.125      s-3.918-1.399-3.918-3.125C9.056,22.863,10.811,21.464,12.975,21.464z"
           id="path438" />
        <path
           fill="#E44646"
           stroke="none"
           d="M12.902,21.519c2.083,0,3.771,1.347,3.771,3.008c0,1.66-1.688,3.007-3.771,3.007      s-3.771-1.347-3.771-3.007C9.131,22.866,10.819,21.519,12.902,21.519z"
           id="path439" />
        <path
           fill="#E54A4B"
           stroke="none"
           d="M12.83,21.575c2.001,0,3.624,1.294,3.624,2.89c0,1.597-1.623,2.89-3.624,2.89      c-2.002,0-3.625-1.293-3.625-2.89C9.205,22.869,10.828,21.575,12.83,21.575z"
           id="path440" />
        <path
           fill="#E64F4F"
           stroke="none"
           d="M12.757,21.631c1.92,0,3.478,1.242,3.478,2.773s-1.557,2.773-3.478,2.773      s-3.478-1.242-3.478-2.773C9.28,22.873,10.837,21.631,12.757,21.631z"
           id="path441" />
        <path
           fill="#E75354"
           stroke="none"
           d="M12.684,21.687c1.84,0,3.331,1.189,3.331,2.656c0,1.466-1.491,2.656-3.331,2.656      c-1.839,0-3.331-1.189-3.331-2.656C9.354,22.876,10.845,21.687,12.684,21.687z"
           id="path442" />
        <path
           fill="#E85858"
           stroke="none"
           d="M12.612,21.743c1.758,0,3.184,1.137,3.184,2.539s-1.425,2.539-3.184,2.539      c-1.758,0-3.184-1.137-3.184-2.539S10.854,21.743,12.612,21.743z"
           id="path443" />
        <path
           fill="#E95C5D"
           stroke="none"
           d="M12.539,21.799c1.677,0,3.037,1.084,3.037,2.421c0,1.337-1.359,2.421-3.037,2.421      c-1.677,0-3.036-1.084-3.036-2.421C9.503,22.882,10.862,21.799,12.539,21.799z"
           id="path444" />
        <path
           fill="#EA6161"
           stroke="none"
           d="M12.467,21.854c1.596,0,2.89,1.032,2.89,2.304c0,1.273-1.294,2.305-2.89,2.305      s-2.89-1.032-2.89-2.305C9.577,22.886,10.871,21.854,12.467,21.854z"
           id="path445" />
        <path
           fill="#EB6566"
           stroke="none"
           d="M12.394,21.91c1.515,0,2.743,0.979,2.743,2.187c0,1.208-1.228,2.188-2.743,2.188      c-1.515,0-2.743-0.979-2.743-2.188C9.652,22.889,10.879,21.91,12.394,21.91z"
           id="path446" />
        <path
           fill="#EC6A6B"
           stroke="none"
           d="M12.322,21.966c1.434,0,2.596,0.927,2.596,2.07s-1.162,2.07-2.596,2.07      s-2.596-0.926-2.596-2.07S10.888,21.966,12.322,21.966z"
           id="path447" />
        <path
           fill="#ED6F6F"
           stroke="none"
           d="M12.25,22.021c1.353,0,2.449,0.875,2.449,1.954c0,1.078-1.096,1.952-2.449,1.952      c-1.353,0-2.449-0.874-2.449-1.952C9.8,22.896,10.896,22.021,12.25,22.021z"
           id="path448" />
        <path
           fill="#EE7374"
           stroke="none"
           d="M12.177,22.077c1.271,0,2.302,0.822,2.302,1.836s-1.031,1.836-2.302,1.836      c-1.271,0-2.303-0.822-2.303-1.836S10.905,22.077,12.177,22.077z"
           id="path449" />
        <path
           fill="#EF7878"
           stroke="none"
           d="M12.104,22.133c1.19,0,2.155,0.77,2.155,1.719s-0.965,1.719-2.155,1.719      s-2.155-0.77-2.155-1.719S10.914,22.133,12.104,22.133z"
           id="path450" />
        <path
           fill="#EF7C7D"
           stroke="none"
           d="M12.032,22.189c1.109,0,2.008,0.717,2.008,1.602c0,0.884-0.899,1.601-2.008,1.601      s-2.008-0.716-2.008-1.601C10.023,22.906,10.922,22.189,12.032,22.189z"
           id="path451" />
        <path
           fill="#F08182"
           stroke="none"
           d="M11.959,22.245c1.028,0,1.861,0.665,1.861,1.484s-0.833,1.484-1.861,1.484      c-1.028,0-1.861-0.665-1.861-1.484S10.931,22.245,11.959,22.245z"
           id="path452" />
        <path
           fill="#F18586"
           stroke="none"
           d="M11.886,22.301c0.947,0,1.715,0.612,1.715,1.367c0,0.755-0.768,1.367-1.715,1.367      c-0.947,0-1.714-0.612-1.714-1.367C10.172,22.913,10.94,22.301,11.886,22.301z"
           id="path453" />
        <path
           fill="#F28A8B"
           stroke="none"
           d="M11.814,22.356c0.866,0,1.568,0.56,1.568,1.25c0,0.69-0.702,1.25-1.568,1.25      c-0.866,0-1.567-0.56-1.567-1.25C10.247,22.916,10.949,22.356,11.814,22.356z"
           id="path454" />
        <path
           fill="#F38E8F"
           stroke="none"
           d="M11.742,22.412c0.785,0,1.421,0.507,1.421,1.133s-0.636,1.133-1.421,1.133      c-0.785,0-1.42-0.507-1.42-1.133S10.957,22.412,11.742,22.412z"
           id="path455" />
        <path
           fill="#F49394"
           stroke="none"
           d="M11.669,22.468c0.703,0,1.273,0.455,1.273,1.016c0,0.561-0.57,1.016-1.273,1.016      c-0.704,0-1.274-0.455-1.274-1.016C10.396,22.922,10.966,22.468,11.669,22.468z"
           id="path456" />
        <path
           fill="#F59798"
           stroke="none"
           d="M11.597,22.523c0.623,0,1.127,0.402,1.127,0.899c0,0.496-0.504,0.898-1.127,0.898      s-1.127-0.402-1.127-0.898C10.47,22.926,10.974,22.523,11.597,22.523z"
           id="path457" />
        <path
           fill="#F69C9D"
           stroke="none"
           d="M10.544,23.361c0-0.432,0.438-0.781,0.98-0.781c0.541,0,0.98,0.35,0.98,0.781      s-0.439,0.781-0.98,0.781C10.983,24.142,10.544,23.792,10.544,23.361z"
           id="path458" />
      </g>
      <g
         id="g459">
        <g
           id="g460">
          <path
             fill="#F58B8C"
             stroke="none"
             d="M11.324,23.996c0-0.489,0.306-0.885,0.683-0.885s0.684,0.396,0.684,0.885       c0,0.488-0.307,0.885-0.684,0.885S11.324,24.484,11.324,23.996z"
             id="path461" />
        </g>
        <g
           id="g462">
          <path
             fill="#F58C8D"
             stroke="none"
             d="M12.007,23.116c0.372,0,0.673,0.394,0.673,0.88c0,0.485-0.301,0.879-0.673,0.879       c-0.372,0-0.673-0.394-0.673-0.879C11.334,23.51,11.635,23.116,12.007,23.116z"
             id="path463" />
        </g>
        <g
           id="g464">
          <path
             fill="#F68D8E"
             stroke="none"
             d="M12.007,23.122c0.366,0,0.663,0.392,0.663,0.875c0,0.482-0.297,0.875-0.663,0.875       c-0.366,0-0.662-0.392-0.662-0.875C11.345,23.513,11.641,23.122,12.007,23.122z"
             id="path465" />
        </g>
        <g
           id="g466">
          <path
             fill="#F68F90"
             stroke="none"
             d="M12.007,23.126c0.36,0,0.653,0.389,0.653,0.87c0,0.48-0.292,0.87-0.653,0.87       c-0.36,0-0.652-0.39-0.652-0.87C11.355,23.515,11.647,23.126,12.007,23.126z"
             id="path467" />
        </g>
        <g
           id="g468">
          <path
             fill="#F69091"
             stroke="none"
             d="M12.007,23.131c0.354,0,0.642,0.387,0.642,0.865c0,0.478-0.287,0.865-0.642,0.865       c-0.354,0-0.642-0.387-0.642-0.865C11.365,23.518,11.653,23.131,12.007,23.131z"
             id="path469" />
        </g>
        <g
           id="g470">
          <path
             fill="#F79191"
             stroke="none"
             d="M12.007,23.136c0.348,0,0.632,0.384,0.632,0.86c0,0.475-0.284,0.86-0.632,0.86       c-0.349,0-0.631-0.385-0.631-0.86C11.375,23.52,11.659,23.136,12.007,23.136z"
             id="path471" />
        </g>
        <g
           id="g472">
          <path
             fill="#F79293"
             stroke="none"
             d="M12.007,23.14c0.343,0,0.622,0.383,0.622,0.855s-0.279,0.855-0.622,0.855       s-0.621-0.382-0.621-0.855S11.665,23.14,12.007,23.14z"
             id="path473" />
        </g>
        <g
           id="g474">
          <path
             fill="#F79394"
             stroke="none"
             d="M12.007,23.145c0.337,0,0.611,0.381,0.611,0.851c0,0.469-0.274,0.851-0.611,0.851       s-0.611-0.381-0.611-0.851C11.396,23.526,11.67,23.145,12.007,23.145z"
             id="path475" />
        </g>
        <g
           id="g476">
          <path
             fill="#F79495"
             stroke="none"
             d="M12.007,23.15c0.331,0,0.601,0.379,0.601,0.846s-0.27,0.846-0.601,0.846       c-0.332,0-0.6-0.379-0.6-0.846S11.676,23.15,12.007,23.15z"
             id="path477" />
        </g>
        <g
           id="g478">
          <path
             fill="#F79696"
             stroke="none"
             d="M12.007,23.155c0.326,0,0.59,0.376,0.59,0.841c0,0.464-0.265,0.841-0.59,0.841       c-0.325,0-0.59-0.376-0.59-0.841C11.417,23.531,11.682,23.155,12.007,23.155z"
             id="path479" />
        </g>
        <g
           id="g480">
          <path
             fill="#F79798"
             stroke="none"
             d="M12.007,23.16c0.319,0,0.58,0.374,0.58,0.836c0,0.461-0.26,0.836-0.58,0.836       c-0.32,0-0.579-0.375-0.579-0.836C11.428,23.534,11.687,23.16,12.007,23.16z"
             id="path481" />
        </g>
        <g
           id="g482">
          <path
             fill="#F79899"
             stroke="none"
             d="M12.007,23.164c0.314,0,0.57,0.373,0.57,0.832s-0.256,0.832-0.57,0.832       c-0.314,0-0.569-0.373-0.569-0.832S11.693,23.164,12.007,23.164z"
             id="path483" />
        </g>
        <g
           id="g484">
          <path
             fill="#F7999A"
             stroke="none"
             d="M12.007,23.169c0.308,0,0.559,0.37,0.559,0.827c0,0.457-0.251,0.826-0.559,0.826       s-0.559-0.37-0.559-0.826C11.448,23.539,11.699,23.169,12.007,23.169z"
             id="path485" />
        </g>
        <g
           id="g486">
          <path
             fill="#F79A9B"
             stroke="none"
             d="M12.007,23.173c0.302,0,0.548,0.368,0.548,0.822c0,0.454-0.246,0.822-0.548,0.822       c-0.303,0-0.548-0.368-0.548-0.822C11.458,23.542,11.705,23.173,12.007,23.173z"
             id="path487" />
        </g>
        <g
           id="g488">
          <path
             fill="#F69C9D"
             stroke="none"
             d="M12.007,23.179c0.297,0,0.539,0.366,0.539,0.817c0,0.451-0.242,0.817-0.539,0.817       c-0.297,0-0.538-0.366-0.538-0.817S11.71,23.179,12.007,23.179z"
             id="path489" />
        </g>
        <g
           id="g490">
          <path
             fill="#F69D9E"
             stroke="none"
             d="M12.007,23.183c0.291,0,0.528,0.364,0.528,0.813c0,0.448-0.236,0.812-0.528,0.812       c-0.291,0-0.528-0.364-0.528-0.812C11.479,23.547,11.716,23.183,12.007,23.183z"
             id="path491" />
        </g>
        <g
           id="g492">
          <path
             fill="#F69E9F"
             stroke="none"
             d="M12.007,23.188c0.285,0,0.518,0.362,0.518,0.808c0,0.446-0.232,0.807-0.518,0.807       c-0.286,0-0.518-0.361-0.518-0.807C11.49,23.549,11.722,23.188,12.007,23.188z"
             id="path493" />
        </g>
        <g
           id="g494">
          <path
             fill="#F69FA0"
             stroke="none"
             d="M12.007,23.192c0.28,0,0.507,0.36,0.507,0.804c0,0.443-0.228,0.803-0.507,0.803       c-0.28,0-0.507-0.36-0.507-0.803C11.5,23.552,11.727,23.192,12.007,23.192z"
             id="path495" />
        </g>
        <g
           id="g496">
          <path
             fill="#F6A1A1"
             stroke="none"
             d="M12.007,23.198c0.274,0,0.496,0.357,0.496,0.798c0,0.44-0.222,0.797-0.496,0.797       s-0.497-0.357-0.497-0.797C11.511,23.555,11.733,23.198,12.007,23.198z"
             id="path497" />
        </g>
        <g
           id="g498">
          <path
             fill="#F6A3A3"
             stroke="none"
             d="M12.007,23.203c0.269,0,0.486,0.354,0.486,0.793c0,0.438-0.218,0.793-0.486,0.793       s-0.486-0.355-0.486-0.793C11.521,23.557,11.739,23.203,12.007,23.203z"
             id="path499" />
        </g>
        <g
           id="g500">
          <path
             fill="#F6A4A5"
             stroke="none"
             d="M12.007,23.207c0.263,0,0.476,0.354,0.476,0.789s-0.213,0.788-0.476,0.788       c-0.262,0-0.476-0.353-0.476-0.788C11.531,23.561,11.745,23.207,12.007,23.207z"
             id="path501" />
        </g>
        <g
           id="g502">
          <path
             fill="#F6A5A6"
             stroke="none"
             d="M12.007,23.211c0.256,0,0.465,0.352,0.465,0.784c0,0.433-0.209,0.784-0.465,0.784       c-0.257,0-0.465-0.351-0.465-0.784C11.542,23.563,11.75,23.211,12.007,23.211z"
             id="path503" />
        </g>
        <g
           id="g504">
          <path
             fill="#F6A6A6"
             stroke="none"
             d="M12.007,23.217c0.251,0,0.456,0.349,0.456,0.779c0,0.43-0.205,0.779-0.456,0.779       c-0.251,0-0.455-0.349-0.455-0.779C11.552,23.566,11.756,23.217,12.007,23.217z"
             id="path505" />
        </g>
        <g
           id="g506">
          <path
             fill="#F5A7A7"
             stroke="none"
             d="M12.007,23.222c0.246,0,0.445,0.346,0.445,0.773c0,0.427-0.199,0.773-0.445,0.773       s-0.445-0.346-0.445-0.773C11.563,23.568,11.762,23.222,12.007,23.222z"
             id="path507" />
        </g>
        <g
           id="g508">
          <path
             fill="#F4A7A8"
             stroke="none"
             d="M12.007,23.227c0.239,0,0.435,0.344,0.435,0.769c0,0.425-0.195,0.77-0.435,0.77       s-0.434-0.344-0.434-0.77C11.573,23.571,11.768,23.227,12.007,23.227z"
             id="path509" />
        </g>
        <g
           id="g510">
          <path
             fill="#F4A9A9"
             stroke="none"
             d="M12.007,23.231c0.234,0,0.424,0.342,0.424,0.764c0,0.422-0.19,0.764-0.424,0.764       s-0.424-0.342-0.424-0.764C11.583,23.574,11.773,23.231,12.007,23.231z"
             id="path511" />
        </g>
        <g
           id="g512">
          <path
             fill="#F4AAAB"
             stroke="none"
             d="M12.007,23.236c0.229,0,0.414,0.341,0.414,0.76c0,0.419-0.186,0.76-0.414,0.76       s-0.414-0.34-0.414-0.76C11.594,23.577,11.779,23.236,12.007,23.236z"
             id="path513" />
        </g>
        <g
           id="g514">
          <path
             fill="#F4ABAC"
             stroke="none"
             d="M12.007,23.241c0.222,0,0.403,0.338,0.403,0.754c0,0.417-0.181,0.754-0.403,0.754       c-0.223,0-0.403-0.336-0.403-0.754C11.604,23.579,11.784,23.241,12.007,23.241z"
             id="path515" />
        </g>
        <g
           id="g516">
          <path
             fill="#F3ABAC"
             stroke="none"
             d="M12.007,23.246c0.216,0,0.393,0.335,0.393,0.75s-0.177,0.75-0.393,0.75       c-0.217,0-0.393-0.335-0.393-0.75S11.791,23.246,12.007,23.246z"
             id="path517" />
        </g>
        <g
           id="g518">
          <path
             fill="#F3ACAD"
             stroke="none"
             d="M12.007,23.251c0.211,0,0.382,0.333,0.382,0.745c0,0.412-0.171,0.745-0.382,0.745       s-0.382-0.333-0.382-0.745C11.625,23.584,11.796,23.251,12.007,23.251z"
             id="path519" />
        </g>
        <g
           id="g520">
          <path
             fill="#F4AFAF"
             stroke="none"
             d="M12.007,23.255c0.205,0,0.372,0.331,0.372,0.74c0,0.409-0.167,0.74-0.372,0.74       c-0.206,0-0.372-0.332-0.372-0.74C11.635,23.586,11.801,23.255,12.007,23.255z"
             id="path521" />
        </g>
        <g
           id="g522">
          <path
             fill="#F4B0B1"
             stroke="none"
             d="M12.007,23.26c0.199,0,0.362,0.33,0.362,0.735c0,0.406-0.163,0.736-0.362,0.736       c-0.2,0-0.362-0.33-0.362-0.736C11.646,23.59,11.808,23.26,12.007,23.26z"
             id="path523" />
        </g>
        <g
           id="g524">
          <path
             fill="#F4B1B2"
             stroke="none"
             d="M12.007,23.266c0.194,0,0.351,0.327,0.351,0.73c0,0.403-0.157,0.731-0.351,0.731       s-0.351-0.328-0.351-0.731C11.656,23.593,11.813,23.266,12.007,23.266z"
             id="path525" />
        </g>
        <g
           id="g526">
          <path
             fill="#F4B2B2"
             stroke="none"
             d="M12.007,23.27c0.188,0,0.341,0.325,0.341,0.726c0,0.401-0.154,0.726-0.341,0.726       c-0.188,0-0.341-0.324-0.341-0.726C11.667,23.595,11.819,23.27,12.007,23.27z"
             id="path527" />
        </g>
        <g
           id="g528">
          <path
             fill="#F4B3B4"
             stroke="none"
             d="M12.007,23.274c0.182,0,0.331,0.323,0.331,0.721c0,0.398-0.148,0.721-0.331,0.721       c-0.183,0-0.331-0.323-0.331-0.721C11.677,23.598,11.824,23.274,12.007,23.274z"
             id="path529" />
        </g>
        <g
           id="g530">
          <path
             fill="#F4B4B5"
             stroke="none"
             d="M12.007,23.279c0.177,0,0.32,0.321,0.32,0.716c0,0.396-0.143,0.717-0.32,0.717       c-0.176,0-0.32-0.321-0.32-0.717C11.687,23.601,11.831,23.279,12.007,23.279z"
             id="path531" />
        </g>
        <g
           id="g532">
          <path
             fill="#F5B6B7"
             stroke="none"
             d="M12.007,23.284c0.171,0,0.31,0.318,0.31,0.711c0,0.394-0.139,0.712-0.31,0.712       s-0.31-0.318-0.31-0.712C11.698,23.603,11.836,23.284,12.007,23.284z"
             id="path533" />
        </g>
        <g
           id="g534">
          <path
             fill="#F5B7B8"
             stroke="none"
             d="M12.007,23.289c0.165,0,0.3,0.316,0.3,0.707c0,0.391-0.135,0.707-0.3,0.707       c-0.166,0-0.299-0.316-0.299-0.707C11.708,23.605,11.841,23.289,12.007,23.289z"
             id="path535" />
        </g>
        <g
           id="g536">
          <path
             fill="#F5B8B9"
             stroke="none"
             d="M12.007,23.293c0.159,0,0.289,0.315,0.289,0.702c0,0.388-0.13,0.702-0.289,0.702       c-0.16,0-0.289-0.314-0.289-0.702C11.718,23.608,11.847,23.293,12.007,23.293z"
             id="path537" />
        </g>
        <g
           id="g538">
          <path
             fill="#F6B9BA"
             stroke="none"
             d="M12.007,23.299c0.154,0,0.279,0.312,0.279,0.697c0,0.385-0.125,0.697-0.279,0.697       s-0.278-0.312-0.278-0.697C11.729,23.611,11.854,23.299,12.007,23.299z"
             id="path539" />
        </g>
        <g
           id="g540">
          <path
             fill="#F6BABB"
             stroke="none"
             d="M12.007,23.303c0.148,0,0.269,0.31,0.269,0.693c0,0.382-0.121,0.692-0.269,0.692       s-0.268-0.311-0.268-0.692C11.739,23.613,11.859,23.303,12.007,23.303z"
             id="path541" />
        </g>
        <g
           id="g542">
          <path
             fill="#F7BCBD"
             stroke="none"
             d="M12.007,23.308c0.142,0,0.258,0.309,0.258,0.688c0,0.38-0.116,0.688-0.258,0.688       c-0.142,0-0.258-0.308-0.258-0.688C11.75,23.617,11.865,23.308,12.007,23.308z"
             id="path543" />
        </g>
        <g
           id="g544">
          <path
             fill="#F7BDBE"
             stroke="none"
             d="M12.007,23.313c0.137,0,0.248,0.306,0.248,0.683s-0.111,0.683-0.248,0.683       s-0.248-0.306-0.248-0.683S11.871,23.313,12.007,23.313z"
             id="path545" />
        </g>
        <g
           id="g546">
          <path
             fill="#F7BEBF"
             stroke="none"
             d="M12.007,23.318c0.131,0,0.237,0.303,0.237,0.677c0,0.375-0.106,0.678-0.237,0.678       s-0.237-0.303-0.237-0.678C11.771,23.622,11.876,23.318,12.007,23.318z"
             id="path547" />
        </g>
        <g
           id="g548">
          <path
             fill="#F8C0C0"
             stroke="none"
             d="M12.007,23.323c0.125,0,0.227,0.301,0.227,0.673c0,0.372-0.102,0.674-0.227,0.674       c-0.125,0-0.227-0.302-0.227-0.674C11.781,23.624,11.882,23.323,12.007,23.323z"
             id="path549" />
        </g>
        <g
           id="g550">
          <path
             fill="#F8C1C1"
             stroke="none"
             d="M12.007,23.327c0.119,0,0.216,0.3,0.216,0.668c0,0.369-0.097,0.668-0.216,0.668       c-0.12,0-0.216-0.299-0.216-0.668C11.791,23.627,11.888,23.327,12.007,23.327z"
             id="path551" />
        </g>
        <g
           id="g552">
          <path
             fill="#F9C3C3"
             stroke="none"
             d="M12.007,23.333c0.113,0,0.206,0.297,0.206,0.663s-0.092,0.663-0.206,0.663       c-0.114,0-0.206-0.297-0.206-0.663S11.894,23.333,12.007,23.333z"
             id="path553" />
        </g>
        <g
           id="g554">
          <path
             fill="#F9C4C4"
             stroke="none"
             d="M12.007,23.337c0.107,0,0.196,0.295,0.196,0.659c0,0.363-0.088,0.658-0.196,0.658       c-0.108,0-0.195-0.295-0.195-0.658C11.812,23.632,11.899,23.337,12.007,23.337z"
             id="path555" />
        </g>
        <g
           id="g556">
          <path
             fill="#F9C5C5"
             stroke="none"
             d="M12.007,23.342c0.102,0,0.186,0.292,0.186,0.653c0,0.361-0.083,0.654-0.186,0.654       s-0.185-0.292-0.185-0.654C11.822,23.635,11.905,23.342,12.007,23.342z"
             id="path557" />
        </g>
        <g
           id="g558">
          <path
             fill="#F9C6C6"
             stroke="none"
             d="M12.007,23.347c0.096,0,0.174,0.291,0.174,0.649c0,0.359-0.078,0.649-0.174,0.649       c-0.097,0-0.175-0.291-0.175-0.649C11.833,23.637,11.911,23.347,12.007,23.347z"
             id="path559" />
        </g>
        <g
           id="g560">
          <path
             fill="#F9C7C7"
             stroke="none"
             d="M12.007,23.352c0.09,0,0.165,0.288,0.165,0.644c0,0.355-0.074,0.644-0.165,0.644       s-0.165-0.288-0.165-0.644S11.917,23.352,12.007,23.352z"
             id="path561" />
        </g>
        <g
           id="g562">
          <path
             fill="#F9C8C8"
             stroke="none"
             d="M12.007,23.356c0.085,0,0.154,0.286,0.154,0.639c0,0.354-0.069,0.64-0.154,0.64       c-0.085,0-0.154-0.286-0.154-0.64C11.854,23.642,11.922,23.356,12.007,23.356z"
             id="path563" />
        </g>
        <g
           id="g564">
          <path
             fill="#F8C9CA"
             stroke="none"
             d="M12.007,23.361c0.08,0,0.144,0.284,0.144,0.634c0,0.351-0.064,0.635-0.144,0.635       c-0.079,0-0.144-0.284-0.144-0.635C11.864,23.646,11.928,23.361,12.007,23.361z"
             id="path565" />
        </g>
        <g
           id="g566">
          <path
             fill="#F8CACB"
             stroke="none"
             d="M12.007,23.366c0.073,0,0.133,0.282,0.133,0.629c0,0.348-0.06,0.63-0.133,0.63       s-0.133-0.283-0.133-0.63C11.874,23.648,11.934,23.366,12.007,23.366z"
             id="path567" />
        </g>
        <g
           id="g568">
          <path
             fill="#F8CCCC"
             stroke="none"
             d="M12.007,23.37c0.067,0,0.123,0.279,0.123,0.625c0,0.345-0.056,0.625-0.123,0.625       c-0.068,0-0.123-0.28-0.123-0.625C11.884,23.649,11.939,23.37,12.007,23.37z"
             id="path569" />
        </g>
        <g
           id="g570">
          <path
             fill="#F8CDCD"
             stroke="none"
             d="M12.007,23.375c0.063,0,0.113,0.278,0.113,0.62c0,0.343-0.05,0.62-0.113,0.62       c-0.062,0-0.112-0.277-0.112-0.62C11.895,23.653,11.945,23.375,12.007,23.375z"
             id="path571" />
        </g>
        <g
           id="g572">
          <path
             fill="#F7CECE"
             stroke="none"
             d="M12.007,23.38c0.057,0,0.102,0.276,0.102,0.615c0,0.34-0.045,0.615-0.102,0.615       s-0.102-0.275-0.102-0.615C11.905,23.656,11.951,23.38,12.007,23.38z"
             id="path573" />
        </g>
        <g
           id="g574">
          <path
             fill="#F7D0D0"
             stroke="none"
             d="M12.007,23.385c0.05,0,0.092,0.273,0.092,0.611s-0.042,0.61-0.092,0.61       c-0.051,0-0.092-0.273-0.092-0.61S11.957,23.385,12.007,23.385z"
             id="path575" />
        </g>
        <g
           id="g576">
          <path
             fill="#F6D0D1"
             stroke="none"
             d="M12.007,23.39c0.044,0,0.082,0.271,0.082,0.606c0,0.335-0.037,0.606-0.082,0.606       c-0.045,0-0.081-0.271-0.081-0.606C11.926,23.661,11.962,23.39,12.007,23.39z"
             id="path577" />
        </g>
        <g
           id="g578">
          <path
             fill="#F6D2D2"
             stroke="none"
             d="M12.007,23.394c0.04,0,0.071,0.27,0.071,0.602c0,0.332-0.032,0.601-0.071,0.601       s-0.071-0.269-0.071-0.601C11.936,23.664,11.968,23.394,12.007,23.394z"
             id="path579" />
        </g>
        <g
           id="g580">
          <path
             fill="#F6D3D4"
             stroke="none"
             d="M12.007,23.399c0.033,0,0.061,0.267,0.061,0.596c0,0.33-0.027,0.596-0.061,0.596       s-0.061-0.266-0.061-0.596C11.947,23.667,11.974,23.399,12.007,23.399z"
             id="path581" />
        </g>
        <g
           id="g582">
          <path
             fill="#F6D4D4"
             stroke="none"
             d="M12.007,23.404c0.027,0,0.05,0.265,0.05,0.592s-0.023,0.591-0.05,0.591       c-0.028,0-0.05-0.264-0.05-0.591S11.979,23.404,12.007,23.404z"
             id="path583" />
        </g>
        <g
           id="g584">
          <path
             fill="#F5D6D6"
             stroke="none"
             d="M12.007,23.409c0.022,0,0.04,0.263,0.04,0.587s-0.018,0.586-0.04,0.586       c-0.022,0-0.04-0.263-0.04-0.586S11.985,23.409,12.007,23.409z"
             id="path585" />
        </g>
        <g
           id="g586">
          <path
             fill="#F5D7D7"
             stroke="none"
             d="M12.007,23.414c0.016,0,0.029,0.261,0.029,0.582c0,0.322-0.013,0.582-0.029,0.582       s-0.029-0.26-0.029-0.582C11.978,23.674,11.991,23.414,12.007,23.414z"
             id="path587" />
        </g>
        <g
           id="g588">
          <path
             fill="#F5D8D9"
             stroke="none"
             d="M12.007,23.418c0.01,0,0.019,0.258,0.019,0.577c0,0.318-0.009,0.577-0.019,0.577       s-0.019-0.258-0.019-0.577C11.988,23.676,11.997,23.418,12.007,23.418z"
             id="path589" />
        </g>
        <g
           id="g590">
          <path
             fill="#F5D9D9"
             stroke="none"
             d="M12.007,23.423c0.005,0,0.008,0.256,0.008,0.572c0,0.316-0.004,0.572-0.008,0.572       c-0.005,0-0.009-0.256-0.009-0.572C11.999,23.68,12.002,23.423,12.007,23.423z"
             id="path591" />
        </g>
        <g
           id="g592">
          <path
             fill="#F5DADA"
             stroke="none"
             d="M12.007,23.429c-0.001,0-0.001,0.253-0.001,0.567s0,0.567,0.001,0.567       s0.002-0.254,0.002-0.567S12.008,23.429,12.007,23.429z"
             id="path593" />
        </g>
        <g
           id="g594">
          <path
             fill="#F5DBDB"
             stroke="none"
             d="M12.007,23.433c-0.007,0-0.012,0.252-0.012,0.563s0.005,0.562,0.012,0.562       s0.012-0.251,0.012-0.562S12.014,23.433,12.007,23.433z"
             id="path595" />
        </g>
        <g
           id="g596">
          <path
             fill="#F5DCDD"
             stroke="none"
             d="M12.007,23.438c-0.012,0-0.022,0.25-0.022,0.558s0.01,0.558,0.022,0.558       c0.012,0,0.022-0.25,0.022-0.558S12.02,23.438,12.007,23.438z"
             id="path597" />
        </g>
        <g
           id="g598">
          <path
             fill="#F5DDDE"
             stroke="none"
             d="M12.007,23.443c-0.019,0-0.033,0.248-0.033,0.553c0,0.306,0.014,0.553,0.033,0.553       c0.018,0,0.033-0.247,0.033-0.553C12.04,23.69,12.025,23.443,12.007,23.443z"
             id="path599" />
        </g>
        <g
           id="g600">
          <path
             fill="#F5DEDF"
             stroke="none"
             d="M12.007,23.448c-0.024,0-0.043,0.246-0.043,0.548c0,0.303,0.019,0.548,0.043,0.548       s0.043-0.245,0.043-0.548C12.05,23.693,12.031,23.448,12.007,23.448z"
             id="path601" />
        </g>
        <g
           id="g602">
          <path
             fill="#F5DFE0"
             stroke="none"
             d="M12.007,23.452c-0.029,0-0.054,0.243-0.054,0.543s0.024,0.543,0.054,0.543       c0.03,0,0.054-0.243,0.054-0.543S12.037,23.452,12.007,23.452z"
             id="path603" />
        </g>
        <g
           id="g604">
          <path
             fill="#F5E0E1"
             stroke="none"
             d="M12.007,23.457c-0.035,0-0.064,0.241-0.064,0.539c0,0.298,0.029,0.539,0.064,0.539       s0.064-0.241,0.064-0.539C12.071,23.698,12.042,23.457,12.007,23.457z"
             id="path605" />
        </g>
        <g
           id="g606">
          <path
             fill="#F5E3E3"
             stroke="none"
             d="M12.007,23.462c-0.042,0-0.074,0.239-0.074,0.534c0,0.295,0.033,0.534,0.074,0.534       c0.041,0,0.074-0.238,0.074-0.534C12.082,23.701,12.048,23.462,12.007,23.462z"
             id="path607" />
        </g>
        <g
           id="g608">
          <path
             fill="#F5E4E4"
             stroke="none"
             d="M12.007,23.466c-0.047,0-0.085,0.237-0.085,0.529c0,0.292,0.038,0.529,0.085,0.529       s0.085-0.237,0.085-0.529C12.092,23.703,12.054,23.466,12.007,23.466z"
             id="path609" />
        </g>
        <g
           id="g610">
          <path
             fill="#F5E6E5"
             stroke="none"
             d="M12.007,23.472c-0.053,0-0.095,0.234-0.095,0.524s0.042,0.524,0.095,0.524       c0.052,0,0.095-0.234,0.095-0.524S12.06,23.472,12.007,23.472z"
             id="path611" />
        </g>
        <g
           id="g612">
          <path
             fill="#F5E7E6"
             stroke="none"
             d="M12.007,23.476c-0.058,0-0.105,0.233-0.105,0.52c0,0.287,0.047,0.52,0.105,0.52       c0.058,0,0.105-0.232,0.105-0.52C12.113,23.709,12.065,23.476,12.007,23.476z"
             id="path613" />
        </g>
        <g
           id="g614">
          <path
             fill="#F5E8E7"
             stroke="none"
             d="M12.007,23.481c-0.064,0-0.116,0.23-0.116,0.515c0,0.284,0.052,0.514,0.116,0.514       s0.116-0.23,0.116-0.514C12.123,23.711,12.071,23.481,12.007,23.481z"
             id="path615" />
        </g>
        <g
           id="g616">
          <path
             fill="#F5E9E8"
             stroke="none"
             d="M12.007,23.486c-0.07,0-0.126,0.228-0.126,0.509s0.057,0.51,0.126,0.51       s0.126-0.228,0.126-0.51S12.077,23.486,12.007,23.486z"
             id="path617" />
        </g>
        <g
           id="g618">
          <path
             fill="#F5EBEA"
             stroke="none"
             d="M12.007,23.491c-0.075,0-0.137,0.226-0.137,0.505c0,0.279,0.061,0.505,0.137,0.505       c0.075,0,0.137-0.226,0.137-0.505C12.144,23.717,12.082,23.491,12.007,23.491z"
             id="path619" />
        </g>
        <g
           id="g620">
          <path
             fill="#F6ECEB"
             stroke="none"
             d="M12.007,23.496c-0.081,0-0.147,0.224-0.147,0.5c0,0.276,0.066,0.5,0.147,0.5       s0.147-0.224,0.147-0.5C12.154,23.72,12.088,23.496,12.007,23.496z"
             id="path621" />
        </g>
        <g
           id="g622">
          <path
             fill="#F6EDEC"
             stroke="none"
             d="M12.007,23.5c-0.087,0-0.157,0.222-0.157,0.496c0,0.274,0.07,0.496,0.157,0.496       c0.086,0,0.157-0.222,0.157-0.496C12.165,23.722,12.094,23.5,12.007,23.5z"
             id="path623" />
        </g>
        <g
           id="g624">
          <path
             fill="#F6EEED"
             stroke="none"
             d="M12.007,23.505c-0.093,0-0.168,0.22-0.168,0.491c0,0.272,0.075,0.491,0.168,0.491       c0.092,0,0.168-0.219,0.168-0.491C12.175,23.725,12.099,23.505,12.007,23.505z"
             id="path625" />
        </g>
        <g
           id="g626">
          <path
             fill="#F7EFEE"
             stroke="none"
             d="M12.007,23.51c-0.099,0-0.178,0.217-0.178,0.485c0,0.269,0.08,0.486,0.178,0.486       c0.098,0,0.178-0.218,0.178-0.486C12.186,23.727,12.105,23.51,12.007,23.51z"
             id="path627" />
        </g>
        <g
           id="g628">
          <path
             fill="#F8F2F0"
             stroke="none"
             d="M12.007,23.514c-0.104,0-0.188,0.216-0.188,0.481s0.084,0.481,0.188,0.481       s0.188-0.215,0.188-0.481S12.111,23.514,12.007,23.514z"
             id="path629" />
        </g>
        <g
           id="g630">
          <path
             fill="#F8F3F1"
             stroke="none"
             d="M12.007,23.52c-0.11,0-0.199,0.213-0.199,0.476c0,0.264,0.089,0.476,0.199,0.476       c0.109,0,0.199-0.212,0.199-0.476C12.206,23.732,12.117,23.52,12.007,23.52z"
             id="path631" />
        </g>
        <g
           id="g632">
          <path
             fill="#F8F4F2"
             stroke="none"
             d="M12.007,23.524c-0.116,0-0.209,0.21-0.209,0.471c0,0.26,0.094,0.471,0.209,0.471       c0.115,0,0.209-0.21,0.209-0.471C12.217,23.735,12.122,23.524,12.007,23.524z"
             id="path633" />
        </g>
        <g
           id="g634">
          <path
             fill="#F9F5F3"
             stroke="none"
             d="M12.007,23.529c-0.122,0-0.22,0.209-0.22,0.466s0.099,0.467,0.22,0.467       s0.219-0.209,0.219-0.467S12.128,23.529,12.007,23.529z"
             id="path635" />
        </g>
        <g
           id="g636">
          <path
             fill="#F9F6F4"
             stroke="none"
             d="M12.007,23.534c-0.127,0-0.23,0.207-0.23,0.462s0.103,0.461,0.23,0.461       c0.126,0,0.23-0.206,0.23-0.461C12.237,23.74,12.134,23.534,12.007,23.534z"
             id="path637" />
        </g>
        <g
           id="g638">
          <path
             fill="#FAF7F6"
             stroke="none"
             d="M12.007,23.539c-0.133,0-0.241,0.205-0.241,0.457c0,0.253,0.107,0.457,0.241,0.457       c0.133,0,0.24-0.204,0.24-0.457C12.248,23.743,12.14,23.539,12.007,23.539z"
             id="path639" />
        </g>
        <g
           id="g640">
          <path
             fill="#FAF8F6"
             stroke="none"
             d="M12.007,23.543c-0.138,0-0.251,0.203-0.251,0.452c0,0.25,0.112,0.452,0.251,0.452       c0.138,0,0.251-0.202,0.251-0.452C12.258,23.747,12.146,23.543,12.007,23.543z"
             id="path641" />
        </g>
        <g
           id="g642">
          <path
             fill="#FBFAF8"
             stroke="none"
             d="M12.007,23.548c-0.144,0-0.261,0.201-0.261,0.448c0,0.247,0.117,0.447,0.261,0.447       s0.262-0.2,0.262-0.447C12.269,23.749,12.151,23.548,12.007,23.548z"
             id="path643" />
        </g>
        <g
           id="g644">
          <path
             fill="#FBFBF9"
             stroke="none"
             d="M12.007,23.553c-0.15,0-0.271,0.199-0.271,0.443c0,0.245,0.121,0.442,0.271,0.442       c0.15,0,0.271-0.197,0.271-0.442C12.279,23.751,12.157,23.553,12.007,23.553z"
             id="path645" />
        </g>
        <g
           id="g646">
          <path
             fill="#FCFBFA"
             stroke="none"
             d="M12.007,23.558c-0.156,0-0.282,0.196-0.282,0.438c0,0.242,0.126,0.438,0.282,0.438       c0.155,0,0.282-0.196,0.282-0.438C12.29,23.754,12.163,23.558,12.007,23.558z"
             id="path647" />
        </g>
        <g
           id="g648">
          <path
             fill="#FCFCFB"
             stroke="none"
             d="M12.007,23.563c-0.162,0-0.292,0.194-0.292,0.433s0.13,0.433,0.292,0.433       c0.161,0,0.292-0.193,0.292-0.433S12.168,23.563,12.007,23.563z"
             id="path649" />
        </g>
        <g
           id="g650">
          <path
             fill="#FEFEFD"
             stroke="none"
             d="M12.007,23.567c-0.168,0-0.303,0.192-0.303,0.429c0,0.236,0.135,0.428,0.303,0.428       c0.167,0,0.302-0.191,0.302-0.428S12.174,23.567,12.007,23.567z"
             id="path651" />
        </g>
        <g
           id="g652">
          <path
             fill="#FEFEFD"
             stroke="none"
             d="M12.007,23.573c-0.173,0-0.313,0.188-0.313,0.423c0,0.235,0.141,0.423,0.313,0.423       c0.172,0,0.313-0.188,0.313-0.423C12.321,23.761,12.18,23.573,12.007,23.573z"
             id="path653" />
        </g>
        <g
           id="g654">
          <path
             fill="#FFFFFF"
             stroke="none"
             d="M11.684,23.996c0-0.231,0.145-0.418,0.324-0.418c0.178,0,0.323,0.187,0.323,0.418       s-0.145,0.418-0.323,0.418C11.829,24.414,11.684,24.227,11.684,23.996z"
             id="path655" />
        </g>
      </g>
      <path
         stroke="none"
         d="M7.621,25.386c0,2.75,2.767,4.988,6.167,4.988c3.401,0,6.167-2.238,6.167-4.988S17.189,20.4,13.788,20.4     C10.388,20.4,7.621,22.636,7.621,25.386 M8.491,25.386c0-2.362,2.376-4.283,5.297-4.283c2.921,0,5.298,1.921,5.298,4.283     c0,2.362-2.376,4.284-5.298,4.284C10.867,29.67,8.491,27.749,8.491,25.386z"
         id="path656" />
    </g>
  </g>
</svg>
