<?xml version="1.0" encoding="UTF-8" standalone="no"?>
<!DOCTYPE svg PUBLIC "-//W3C//DTD SVG 20010904//EN"
"http://www.w3.org/TR/2001/REC-SVG-20010904/DTD/svg10.dtd">
<!-- Created with Sodipodi ("http://www.sodipodi.com/") -->
<svg
   width="48pt"
   height="48pt"
   viewBox="0 0 126.625 121.43"
   overflow="visible"
   enable-background="new 0 0 126.625 121.43"
   xml:space="preserve"
   xmlns="http://www.w3.org/2000/svg"
   xmlns:xml="http://www.w3.org/XML/1998/namespace"
   xmlns:sodipodi="http://sodipodi.sourceforge.net/DTD/sodipodi-0.dtd"
   xmlns:xlink="http://www.w3.org/1999/xlink"
   id="svg153"
   sodipodi:version="0.32pre"
   sodipodi:docname="/home/cschalle/gnome-themes-extras/Wasp/icons/scalable/mimetypes/gnome-mime-application-x-tar.svg"
   sodipodi:docbase="/home/cschalle/gnome-themes-extras/Wasp/icons/scalable/mimetypes">
  <defs
     id="defs208" />
  <sodipodi:namedview
     id="base" />
  <metadata
     id="metadata154">
    <sfw>
      <slices />
      <sliceSourceBounds
         y="358.785"
         x="233.188"
         width="126.625"
         height="121.43"
         bottomLeftOrigin="true" />
    </sfw>
  </metadata>
  <g
     id="Layer_1"
     stroke="#000000">
    <g
       id="Layer_1_2_">
      <path
         a:adobe-blending-mode="multiply"
         opacity="0.2"
         stroke="none"
         d="M105.311,79.572L61.186,121.43H81.5l45.125-42.563     l-0.074-9.417l-21.295-6.384L105.311,79.572z"
         id="path157" />
      <path
         stroke="none"
         d="M8.959,41.624L8.926,93.852l52.26,27.578l44.432-41.816V27.802L53.289,0L8.959,41.624z"
         id="path158" />
      <g
         id="g159">
        <path
           stroke="none"
           d="M102.4,29.378L53.779,3.654l-41.82,39.269l-0.033-0.018v49.14l48.857,25.867v-0.318l41.834-39.277V29.173      L102.4,29.378z"
           id="path160" />
      </g>
      <g
         id="g161">
        <linearGradient
           id="XMLID_1_"
           gradientUnits="userSpaceOnUse"
           x1="-173.125"
           y1="412.7627"
           x2="-218.0611"
           y2="388.2075"
           gradientTransform="matrix(1 0 0 -1 233.1875 480.2148)">
          <stop
             offset="0"
             style="stop-color:#FAC08B"
             id="stop163" />
          <stop
             offset="1"
             style="stop-color:#CD9363"
             id="stop164" />
        </linearGradient>
        <path
           fill="url(#XMLID_1_)"
           stroke="none"
           d="M60.783,117.912L11.926,92.044v-49.14l48.857,25.867V117.912z"
           id="path168" />
      </g>
      <g
         id="g169">
        <path
           fill="#5E3F1F"
           stroke="none"
           d="M43.24,74.641l-13.771-7.292v-6.102l13.771,7.291V74.641z"
           id="path170" />
      </g>
      <g
         id="g171">
        <g
           id="g172">
          <g
             id="g173">
            <path
               fill="#9A6633"
               stroke="none"
               d="M30.518,66.126v-4.324l-1.049-0.555v6.102l0.059,0.029        C29.676,66.87,30.051,66.41,30.518,66.126z"
               id="path174" />
          </g>
          <g
             id="g175">
            <linearGradient
               id="XMLID_2_"
               gradientUnits="userSpaceOnUse"
               x1="-191.4751"
               y1="407.7861"
               x2="-198.6707"
               y2="410.8301"
               gradientTransform="matrix(1 0 0 -1 233.1875 480.2148)">
              <stop
                 offset="0"
                 style="stop-color:#FFCD99"
                 id="stop177" />
              <stop
                 offset="1"
                 style="stop-color:#EBA76E"
                 id="stop178" />
            </linearGradient>
            <path
               fill="url(#XMLID_2_)"
               stroke="none"
               d="M43.24,73.037L30.518,66.3v-0.174c-0.467,0.283-0.842,0.743-0.99,1.252        l13.712,7.263V73.037z"
               id="path182" />
          </g>
        </g>
      </g>
      <g
         id="g183">
        <path
           fill="#9A6633"
           stroke="none"
           d="M102.617,78.315l-41.834,39.277v-49.14l41.84-38.944L102.617,78.315z"
           id="path184" />
      </g>
      <g
         id="g185">
        <path
           fill="#B0763B"
           stroke="none"
           d="M87.146,93.589l-10.89,10.225V61.687l2.33-5.272l8.562-7.969L87.146,93.589z"
           id="path186" />
      </g>
      <g
         id="g187">
        <linearGradient
           id="XMLID_3_"
           gradientUnits="userSpaceOnUse"
           x1="-182.1489"
           y1="481.1934"
           x2="-173.7255"
           y2="431.0103"
           gradientTransform="matrix(1 0 0 -1 233.1875 480.2148)">
          <stop
             offset="0"
             style="stop-color:#FFCD99"
             id="stop189" />
          <stop
             offset="1"
             style="stop-color:#EBA76E"
             id="stop190" />
        </linearGradient>
        <path
           fill="url(#XMLID_3_)"
           stroke="none"
           d="M102.617,29.494L60.783,68.772L11.947,42.934L53.779,3.654L102.617,29.494z"
           id="path194" />
      </g>
      <g
         id="g195">
        <path
           fill="#9A6633"
           stroke="none"
           d="M77.725,16.343L35.891,55.621l-0.693-0.477l41.831-39.279L77.725,16.343z"
           id="path196" />
      </g>
      <g
         id="g197">
        <path
           fill="#CD8D53"
           stroke="none"
           d="M78.5,63.749l0.088-7.335l-2.33,5.272L78.5,63.749z"
           id="path198" />
      </g>
      <path
         fill="#FFFFFF"
         stroke="none"
         d="M49.5,112.43h-48v-29h48V112.43z"
         id="path199" />
      <path
         stroke="none"
         d="M49.5,81.93H0v32h51v-32H49.5z M48,84.93c0,2.551,0,23.448,0,26c-2.725,0-42.275,0-45,0     c0-2.552,0-23.449,0-26C5.725,84.93,45.275,84.93,48,84.93z"
         id="path200" />
      <g
         id="g201">
        <path
           fill="#9A6633"
           stroke="none"
           d="M11.947,42.934l22.949,14.438l0.363-1.085l0.623,0.346l24.9,12.141L11.947,42.934z"
           id="path202" />
      </g>
      <g
         id="g203">
        <path
           stroke="none"
           d="M8.529,91.552c0,0.105-0.043,0.191-0.127,0.263H8.123c-0.406,0-0.652-0.06-0.736-0.175      c-0.152,0.115-0.33,0.175-0.533,0.175H6.727c-0.051,0-0.119,0-0.203,0c-0.271,0-0.406-0.185-0.406-0.549      c0-0.277,0.072-0.607,0.219-0.99c-0.146-0.156-0.219-0.356-0.219-0.601c0.014-0.018,0.014-0.096,0-0.234      c0-0.156,0-0.305,0-0.443V88.71l0.104-0.183c0.069-0.019,0.166-0.025,0.288-0.025c0.279,0,0.542,0.102,0.786,0.304l0.236-0.304      h0.104c0.088,0,0.188,0,0.302,0s0.179,0,0.196,0c0.192,0,0.332,0.097,0.42,0.287v0.729c0,0.242-0.073,0.435-0.219,0.572      c0.146,0.176,0.219,0.394,0.219,0.652c0.014,0,0.014,0.088,0,0.262C8.537,91.197,8.529,91.378,8.529,91.552z M12.461,105.712      c0.208,0.281,0.312,0.555,0.312,0.816c0,0.315-0.04,0.531-0.118,0.645c-0.079,0.115-0.268,0.172-0.564,0.172      c-0.228,0-0.42-0.01-0.577-0.026c-0.175-0.088-0.307-0.195-0.394-0.319c-0.333,0.231-0.569,0.348-0.709,0.348h-0.367      c-0.473,0-0.708-0.149-0.708-0.447v-3.633c0.053-0.386,0.167-0.729,0.344-1.025c-0.159-0.035-0.273-0.115-0.344-0.238v-4.5      c0.02-0.123,0.106-0.21,0.263-0.263c-0.176-0.192-0.263-0.368-0.263-0.526c0-0.367,0-0.891,0-1.565s0-1.162,0-1.461      c0-0.244-0.016-0.564-0.047-0.96c-0.031-0.396-0.047-0.671-0.047-0.829c0-1.035,0.171-1.588,0.515-1.658l-0.112-0.08      c-0.075-0.053-0.169-0.149-0.281-0.29c-0.019-0.104-0.027-0.263-0.027-0.474c0-0.579,0.115-0.869,0.346-0.869      c0.053,0,0.123-0.008,0.212-0.025c0.106,0,0.177,0,0.213,0c0.496,0,0.814,0.146,0.957,0.435      c0.318-0.289,0.531-0.435,0.638-0.435c0.602,0,0.93,0.078,0.983,0.236c0,0.07,0.009,0.176,0.026,0.316      c0.014,0.122,0.014,0.21,0,0.263c0,0.544-0.127,0.868-0.381,0.974c0.127,0.053,0.244,0.132,0.354,0.236      c0.018,0.229,0.027,0.562,0.027,1c0,0.809-0.046,1.711-0.136,2.711c-0.091,0.211-0.189,0.36-0.298,0.447      c0.173,0.034,0.317,0.141,0.434,0.315v4.396c-0.039,0.035-0.098,0.093-0.176,0.172c-0.078,0.079-0.146,0.145-0.205,0.197      c0.254,0.211,0.381,0.534,0.381,0.974c0.014,0.053,0.014,0.158,0,0.314c0,0.158,0,0.281,0,0.369v3.816      C12.711,105.416,12.627,105.573,12.461,105.712z M15.93,88.711c0.014,0.019,0.014,0.07,0,0.157c0,0.088,0,0.176,0,0.264      c0,0.07,0,0.158,0,0.264c0.014,0.104,0.014,0.175,0,0.21c0,0.299-0.098,0.525-0.292,0.684c0.194,0.386,0.292,0.685,0.292,0.896      c0,0.42-0.16,0.631-0.479,0.631c-0.018,0-0.054,0-0.106,0c-0.054,0-0.094,0-0.12,0s-0.058,0-0.093,0c-0.035,0-0.062,0-0.079,0      c-0.089,0-0.204-0.06-0.346-0.175c-0.054,0.115-0.266,0.175-0.638,0.175s-0.559-0.097-0.559-0.285      c0.015-0.104,0.015-0.25,0-0.439c-0.018-0.173-0.026-0.293-0.026-0.362c0-0.24,0.088-0.457,0.263-0.646      c-0.122-0.086-0.201-0.518-0.236-1.294c0.106-0.188,0.248-0.284,0.426-0.284c0.035,0,0.115,0,0.239,0s0.221,0,0.292,0h0.106      l0.213,0.304c0.248-0.202,0.496-0.304,0.744-0.304c0.124,0,0.221,0.008,0.292,0.025L15.93,88.711z"
           id="path204" />
        <path
           stroke="none"
           d="M24.862,102.718v0.08c0,0.035-0.018,0.087-0.053,0.156c-0.123,0.088-0.245,0.132-0.367,0.132h-0.079      c-0.228,0-0.517-0.009-0.866-0.025c-0.351,0-0.587,0-0.709,0l-0.157,0.157c-0.105,0.646-0.237,1.242-0.395,1.785      c-0.104,0.175-0.236,0.297-0.394,0.367c0.035,0.035,0.083,0.092,0.145,0.17c0.061,0.08,0.101,0.146,0.118,0.197      c-0.088,0.963-0.211,1.467-0.368,1.51c-0.157,0.045-0.402,0.066-0.734,0.066h-0.342c-0.122-0.07-0.245-0.176-0.367-0.315      l-0.184,0.185l-0.236,0.132h-0.342c-0.21,0-0.508-0.019-0.893-0.054c-0.07-0.104-0.104-0.2-0.104-0.288v-0.054      c0.279-1.066,0.507-2.135,0.683-3.203c0.035-0.21,0.14-0.376,0.314-0.498c0-0.018,0.009-0.053,0.026-0.104      c-0.015-0.035-0.015-0.063,0-0.079c0-0.069-0.018-0.157-0.053-0.263c-0.018-0.019-0.026-0.062-0.026-0.131      c0-0.105,0.097-0.552,0.289-1.34c0.228-0.928,0.394-1.828,0.499-2.703c0.069-0.158,0.192-0.324,0.367-0.499      c0-0.035-0.035-0.149-0.104-0.343c0.42-3.168,0.796-4.752,1.129-4.752h0.026c-0.018-0.052-0.049-0.122-0.092-0.21      c-0.044-0.088-0.074-0.147-0.092-0.184c0.122-0.666,0.323-1.646,0.604-2.941c0-0.278,0.062-0.42,0.184-0.42h0.079      c0.069,0.07,0.113,0.219,0.131,0.447c0.053,0.595,0.18,1.238,0.381,1.93c0.201,0.692,0.302,1.107,0.302,1.246      c0,0.246-0.088,0.49-0.263,0.736c0.28,0.175,0.42,0.307,0.42,0.393v0.054c0,0.386,0.074,0.876,0.224,1.471      c0.148,0.596,0.224,0.998,0.224,1.207c0,0.035-0.097,0.5-0.289,1.393c-0.07,0.123-0.176,0.236-0.315,0.341l0.132,0.186      c0.052,0.07,0.078,0.175,0.078,0.313c0,0.07-0.053,0.42-0.157,1.052c0.052,0.053,0.113,0.077,0.184,0.077h0.079      c0.034,0,0.078,0,0.131,0c0.053,0.019,0.088,0.026,0.105,0.026c0.034,0,0.069-0.009,0.104-0.026c0.053,0,0.088,0,0.105,0      c0.332,0.035,0.533,0.466,0.604,1.287c-0.07,0.07-0.14,0.176-0.21,0.314l0.289,0.263      C24.73,102.167,24.81,102.421,24.862,102.718z M30.048,105.936c0.061,0.307,0.092,0.469,0.092,0.485      c0,0.263-0.114,0.533-0.342,0.813c-0.21,0.053-0.42,0.079-0.63,0.079c-0.157,0-0.28-0.011-0.367-0.027      c-0.141-0.069-0.254-0.147-0.342-0.236c-0.14,0.177-0.271,0.265-0.394,0.265c-0.053,0-0.188-0.009-0.407-0.026      c-0.219-0.017-0.416-0.025-0.591-0.025c-0.07-0.069-0.166-0.148-0.288-0.234l-0.079-0.314l-0.866-4.335      c-0.015-0.018-0.015-0.044,0-0.079c-0.018-0.033-0.026-0.061-0.026-0.077c0-0.209,0.096-0.392,0.288-0.55      c-0.297-0.051-0.463-0.164-0.5-0.339l-0.673-3.84l0.097-0.525c-0.21-0.104-0.49-1.277-0.84-3.52v-0.052      c0-0.054,0.017-0.114,0.052-0.186c0.035-0.068,0.053-0.113,0.053-0.132c0-0.087-0.074-0.156-0.222-0.209l-0.058-0.288      c-0.106-0.63-0.347-1.828-0.72-3.595c-0.017-0.035-0.024-0.08-0.024-0.133c0-0.194,0.122-0.291,0.367-0.291      c0.018,0,0.123,0,0.315,0c0.21,0.018,0.411,0.025,0.604,0.025c0.193,0,0.332,0.09,0.42,0.268      c0.07-0.121,0.148-0.199,0.236-0.236c0.088-0.038,0.228-0.057,0.421-0.057c0.35,0,0.656,0.091,0.919,0.272      c0.069,0.267,0.131,0.474,0.184,0.623c0.122,0.577,0.35,1.715,0.683,3.412c-0.053,0.229-0.132,0.403-0.236,0.525      c0.052,0.123,0.113,0.192,0.184,0.211c0.245,0.455,0.411,0.883,0.499,1.285c0.472,2.416,0.708,3.721,0.708,3.912      c0,0.088-0.009,0.148-0.026,0.185l-0.157,0.474c0.242,0.088,0.39,0.245,0.441,0.474c0.282,1.453,0.563,2.86,0.846,4.227      l-0.132,0.341c0.157,0.088,0.267,0.271,0.328,0.553C29.925,105.335,29.986,105.628,30.048,105.936z"
           id="path205" />
        <path
           stroke="none"
           d="M37.312,105.003c0,0.177,0,0.412,0,0.71c0,0.158,0,0.344,0,0.554c0.004,0.21,0.004,0.351,0,0.421      c0,0.334-0.131,0.553-0.392,0.657h-0.444c-0.645,0-0.983-0.149-1.019-0.45l-0.078,0.168c-0.104,0.17-0.244,0.264-0.418,0.282      c-0.087,0-0.191,0-0.313,0c-0.07,0-0.148,0-0.235,0s-0.14,0-0.156,0c-0.192,0-0.288-0.079-0.288-0.237c0,0.035,0-0.157,0-0.579      c0.004-0.421,0.004-0.86,0-1.317c0.021-0.192,0.146-0.315,0.373-0.369c-0.058-0.123-0.144-0.219-0.258-0.289      c-0.077-0.702-0.115-1.467-0.115-2.293c0-0.368,0.02-0.922,0.059-1.659l0.235-0.265l-0.169-0.368c0-0.947,0-1.677,0-2.187      c0-0.475,0-1.221,0-2.24c0.078-0.211,0.187-0.369,0.326-0.475c-0.084-0.088-0.167-0.141-0.251-0.157l-0.075-0.211v-2.793      c0-0.211,0.083-0.378,0.248-0.501l-0.248-0.369V88.77c0.052-0.142,0.224-0.22,0.516-0.236c0.411,0.02,0.66,0.039,0.746,0.058      c0.172,0.039,0.283,0.138,0.335,0.292c0.12-0.144,0.283-0.241,0.489-0.297c0.309-0.035,0.498-0.053,0.566-0.053      c0.292,0,0.472,0.088,0.541,0.263c0.017,0.737,0.025,1.868,0.025,3.395c-0.09,0.088-0.188,0.192-0.293,0.315      c0.195,0.211,0.293,0.526,0.293,0.947c0,1.141-0.008,2.482-0.022,4.025l-0.067,0.289c-0.046,0.034-0.113,0.157-0.203,0.368      c0.15,0.123,0.24,0.299,0.271,0.525l0.022,4.71c0,0.142-0.089,0.368-0.267,0.686c0.178,0.229,0.267,0.509,0.267,0.842      L37.312,105.003z M43.504,106.978c-0.018,0.245-0.218,0.367-0.602,0.367c-0.035,0-0.097,0-0.184,0c-0.07,0-0.131,0-0.184,0      c-0.018,0-0.061,0-0.131,0c-0.053,0-0.096,0-0.131,0c-0.332,0-0.532-0.133-0.602-0.398c-0.123,0.267-0.323,0.398-0.603,0.398      c-0.035,0-0.092,0-0.17,0c-0.079,0-0.145,0-0.196,0h-0.236c-0.122,0-0.235-0.122-0.34-0.368      c-0.21-1.265-0.314-1.976-0.314-2.134c0-0.386,0.198-0.632,0.594-0.736c-0.354-0.157-0.531-0.359-0.531-0.605      c0-0.035,0-0.132,0-0.29c0.004-0.175,0.004-0.324,0-0.446c0-0.229,0-0.412,0-0.554v-0.553c0-0.053,0.107-0.097,0.321-0.132      c-0.28-0.105-0.446-0.396-0.499-0.869c-0.455-0.509-0.858-0.79-1.208-0.843c-0.157-0.019-0.236-0.123-0.236-0.316v-1.079      c0-0.122,0.149-0.263,0.447-0.421c-0.193,0-0.342-0.07-0.447-0.211v-1.053c0.053-0.193,0.14-0.29,0.263-0.29h0.053      c0.56,0,0.937-0.433,1.129-1.295c0.035-0.246,0.069-0.493,0.104-0.739c0.035-0.246,0.149-0.414,0.342-0.502H40.09      c-0.175,0-0.288-0.201-0.341-0.604c-0.053-0.523-0.167-0.891-0.342-1.102c-0.122-0.139-0.346-0.248-0.669-0.327      c-0.324-0.079-0.486-0.196-0.486-0.354v-0.813c0-0.104,0.149-0.244,0.447-0.42c-0.088-0.087-0.237-0.209-0.447-0.367V88.9      c0-0.245,0.271-0.367,0.814-0.367c1.33,0,2.337,0.378,3.02,1.135v0.105c0,0.158-0.053,0.309-0.158,0.449      c0.104-0.054,0.201-0.08,0.289-0.08c0.14,0,0.244,0.053,0.314,0.157c0.437,0.875,0.655,1.82,0.655,2.836      c-0.018,0.089-0.21,0.314-0.576,0.683c0.365,0.018,0.557,0.246,0.576,0.684c-0.107,1.383-0.501,2.397-1.181,3.045      c-0.286,0.177-0.608,0.28-0.966,0.314c-0.144,0.035-0.215,0.098-0.215,0.185c0,0.122,0.07,0.185,0.21,0.185      c0.893,0.018,1.54,0.595,1.943,1.732c-0.123,0.123-0.184,0.254-0.184,0.395c0,0.053,0.034,0.079,0.104,0.079      c0.034,0,0.078-0.011,0.131-0.027c0.087,0.474,0.139,0.964,0.156,1.472c-0.069,0.158-0.191,0.299-0.366,0.421      c0.244,0,0.366,0.123,0.366,0.367v0.5l0.125,2.261c-0.073,0.191-0.202,0.342-0.386,0.445c0.228,0.035,0.376,0.141,0.446,0.315      C43.408,106.451,43.451,106.714,43.504,106.978z"
           id="path206" />
      </g>
    </g>
  </g>
</svg>
