<?xml version="1.0" encoding="UTF-8" standalone="no"?>
<!DOCTYPE svg PUBLIC "-//W3C//DTD SVG 20010904//EN"
"http://www.w3.org/TR/2001/REC-SVG-20010904/DTD/svg10.dtd">
<!-- Created with Sodipodi ("http://www.sodipodi.com/") -->
<svg
   width="58pt"
   height="48pt"
   viewBox="0 0 66.133 54.547"
   overflow="visible"
   enable-background="new 0 0 66.133 54.547"
   xml:space="preserve"
   id="svg153"
   sodipodi:version="0.32pre"
   sodipodi:docname="/home/cschalle/gnome-themes-extras/Wasp/icons/scalable/mimetypes/gimp.svg"
   sodipodi:docbase="/home/cschalle/gnome-themes-extras/Wasp/icons/scalable/mimetypes/"
   xmlns="http://www.w3.org/2000/svg"
   xmlns:sodipodi="http://sodipodi.sourceforge.net/DTD/sodipodi-0.dtd"
   xmlns:xml="http://www.w3.org/XML/1998/namespace"
   xmlns:xlink="http://www.w3.org/1999/xlink">
  <defs
     id="defs253" />
  <sodipodi:namedview
     id="base" />
  <g
     id="Layer_1_1_"
     style="font-size:12;stroke:#000000;">
    <g
       id="Layer_1_2_">
      <g
         id="g157">
        <linearGradient
           id="XMLID_1_"
           gradientUnits="userSpaceOnUse"
           x1="-638.8672"
           y1="345.3164"
           x2="-619.7414"
           y2="376.6905"
           gradientTransform="matrix(0.4828 0.721 -0.7677 0.514 612.5963 304.3939)">
          <stop
             offset="0"
             style="stop-color:#FDFEED"
             id="stop159" />
          <stop
             offset="1"
             style="stop-color:#FFF24B"
             id="stop160" />
        </linearGradient>
        <path
           fill="url(#XMLID_1_)"
           stroke="none"
           d="M22.404,50.927L5.074,30.251l29.248-13.037l25.701,21.264L22.404,50.927z"
           id="path164" />
      </g>
      <path
         stroke="none"
         d="M1.69,29.475l20.231,23.973l41.486-14.191L34.805,14.692L1.69,29.475z"
         id="path165" />
      <g
         id="g166">
        <linearGradient
           id="XMLID_2_"
           gradientUnits="userSpaceOnUse"
           x1="-638.8672"
           y1="345.3164"
           x2="-619.7414"
           y2="376.6905"
           gradientTransform="matrix(0.4828 0.721 -0.7677 0.514 612.5963 304.3939)">
          <stop
             offset="0.0056"
             style="stop-color:#D9D8FF"
             id="stop168" />
          <stop
             offset="0.514"
             style="stop-color:#FDFEED"
             id="stop169" />
          <stop
             offset="1"
             style="stop-color:#9A99CD"
             id="stop170" />
        </linearGradient>
        <path
           fill="url(#XMLID_2_)"
           stroke="none"
           d="M22.404,50.927L5.074,30.251l29.248-13.037l25.701,21.264L22.404,50.927z"
           id="path176" />
      </g>
      <g
         id="g177">
        <linearGradient
           id="XMLID_3_"
           gradientUnits="userSpaceOnUse"
           x1="-576.5303"
           y1="224.0508"
           x2="-555.7454"
           y2="258.1465"
           gradientTransform="matrix(0.702 0.51 -0.543 0.7475 559.5081 137.7542)">
          <stop
             offset="0"
             style="stop-color:#FDFEED"
             id="stop179" />
          <stop
             offset="1"
             style="stop-color:#FFF24B"
             id="stop180" />
        </linearGradient>
        <path
           fill="url(#XMLID_3_)"
           stroke="none"
           d="M38.014,48.27L3.422,29.905L24.475,8.724l34.591,18.365L38.014,48.27z"
           id="path184" />
      </g>
      <path
         stroke="none"
         d="M0,30.454l38.355,20.365l24.133-24.279L24.134,6.176L0,30.454z"
         id="path185" />
      <g
         id="g186">
        <linearGradient
           id="XMLID_4_"
           gradientUnits="userSpaceOnUse"
           x1="-464.0439"
           y1="26.5396"
           x2="-465.6039"
           y2="62.4207"
           gradientTransform="matrix(1 0 0 1 496.3438 -22.3262)">
          <stop
             offset="0.0056"
             style="stop-color:#D9D8FF"
             id="stop188" />
          <stop
             offset="0.514"
             style="stop-color:#FDFEED"
             id="stop189" />
          <stop
             offset="1"
             style="stop-color:#9A99CD"
             id="stop190" />
        </linearGradient>
        <path
           fill="url(#XMLID_4_)"
           stroke="none"
           d="M38.014,48.27L3.422,29.905L24.475,8.724l34.591,18.365L38.014,48.27z"
           id="path196" />
      </g>
      <path
         a:adobe-blending-mode="multiply"
         opacity="0.2"
         stroke="none"
         d="M1.954,31.115l27.714,18.105l-7.746,4.225l11.636-1.029      l6.32,2.131l6.808-7.987l19.447-6.391l-6.32-6.923l5.35-3.728l-5.523-1.63l-4.688,5.357l5.349,3.729l-17.018,6.922l-5.269,4.373      L1.954,31.115z"
         id="path197" />
      <path
         a:adobe-blending-mode="multiply"
         opacity="0.2"
         stroke="none"
         d="M56.563,35.098l-5.358,5.533l-5.755,2.439l9.373-10.063      L56.563,35.098z"
         id="path198" />
    </g>
  </g>
  <g
     id="g199"
     style="font-size:12;stroke:#000000;"
     transform="translate(-18.8698,27.3549)">
    <path
       opacity="0.2"
       stroke="none"
       d="M58.964,2.238c-1.216-0.397-2.72,0.667-5.029,3.559c-0.858,1.074-1.642,2.175-2.155,2.921     c-1.934-1.344-6.822-3.909-13.342-1.349c-1.025-0.916-2.34-1.905-4.036-3.021c-0.497-0.326-1.815-1.193-2.706-0.297     c-0.266,0.268-0.433,0.605-0.433,1.12c0,0.785,0.398,1.997,1.418,3.993c-1.335,0.449-2.305,1.787-2.305,3.369     c0,0.29,0.036,0.57,0.098,0.839c-0.171-0.024-0.332-0.052-0.488-0.079c-0.184-0.557-0.432-1.117-0.743-1.663     c-1.661-2.914-4.518-4.342-6.382-3.189c-1.863,1.151-2.027,4.446-0.366,7.359c0.671,1.177,1.537,2.111,2.454,2.731     c2.552,2.564,8.649,7.655,17.091,7.991c3.693,0.147,7.289-1.402,10.398-4.48c4.779-4.734,7.794-12.523,7.844-17.025     C60.301,3.464,59.856,2.529,58.964,2.238z"
       id="path200" />
    <path
       stroke="none"
       d="M52.502,3.559c-0.859,1.075-1.643,2.176-2.156,2.922c-1.934-1.344-6.821-3.909-13.341-1.35     c-1.025-0.916-2.34-1.905-4.037-3.021c-0.497-0.326-1.815-1.193-2.706-0.296c-0.266,0.267-0.433,0.604-0.433,1.12     c0,0.923,0.549,2.434,2.018,5.126c-0.148,0.206-0.258,0.449-0.258,0.73c0,0.129,0.022,0.265,0.074,0.409     c0.243,0.683,0.88,0.799,1.403,0.786c0.609,0.403,1.57,0.087,2.533-0.341c-0.681,0.868-1.793,1.694-3.582,1.694     c-4.186,0-6.052-1.062-6.07-1.072l-0.725-0.423l-0.549,0.652l-3.023,3.672l0.549,0.685c0.294,0.367,7.333,8.993,18.408,9.434     c3.695,0.147,7.29-1.402,10.398-4.48c4.78-4.734,7.794-12.523,7.845-17.025C58.868,1.227,58.424,0.292,57.531,0     C56.316-0.397,54.812,0.667,52.502,3.559z"
       id="path201" />
    <linearGradient
       id="XMLID_5_"
       gradientUnits="userSpaceOnUse"
       x1="-147.3457"
       y1="329.2109"
       x2="-140.0895"
       y2="322.792"
       gradientTransform="matrix(0.9808 0.1949 0.1949 -0.9808 113.624 356.6488)">
      <stop
         offset="0"
         style="stop-color:#BD8C00"
         id="stop203" />
      <stop
         offset="1"
         style="stop-color:#7D5B00"
         id="stop204" />
    </linearGradient>
    <path
       fill="url(#XMLID_5_)"
       stroke="none"
       d="M37.805,7.385c-0.471-0.46-1.345-1.732-5.378-4.384     c-4.032-2.651,0.894,5.565,1.149,6.054C33.832,9.544,37.805,7.385,37.805,7.385z"
       id="path208" />
    <linearGradient
       id="XMLID_6_"
       gradientUnits="userSpaceOnUse"
       x1="-137.6704"
       y1="319.9209"
       x2="-126.636"
       y2="305.4166"
       gradientTransform="matrix(1 0 0 -1 178 327.7227)">
      <stop
         offset="0"
         style="stop-color:#BD8C00"
         id="stop210" />
      <stop
         offset="1"
         style="stop-color:#7D5B00"
         id="stop211" />
    </linearGradient>
    <path
       fill="url(#XMLID_6_)"
       stroke="none"
       d="M22.977,14.175c0,0,6.917,8.628,17.669,9.056     C51.399,23.657,57.77,8.827,57.838,2.767c0.067-6.06-7.26,5.205-7.26,5.205s-5.959-5.49-14.52-1.283     c-8.561,4.207,1.506,1.212,1.506,1.212s-0.958,4.492-5.547,4.492s-6.574-1.211-6.574-1.211L22.977,14.175z"
       id="path215" />
    <linearGradient
       id="XMLID_7_"
       gradientUnits="userSpaceOnUse"
       x1="-124.7437"
       y1="316.751"
       x2="-137.8713"
       y2="316.8719"
       gradientTransform="matrix(1 0 0 -1 178 327.7227)">
      <stop
         offset="0"
         style="stop-color:#BD8C00"
         id="stop217" />
      <stop
         offset="1"
         style="stop-color:#D9B200"
         id="stop218" />
    </linearGradient>
    <path
       fill="url(#XMLID_7_)"
       stroke="none"
       d="M52.576,9.091c0,0,3.11-4.781,5.26-6.439c-0.025-5.378-6.252,3.804-7.15,5.156     C51.903,8.471,52.576,9.091,52.576,9.091z M37.564,7.9c0,0-0.014,0.064-0.045,0.174c0.172-0.086,0.349-0.174,0.537-0.267     c5.037-2.475,9.173-1.593,11.725-0.448c-1.891-1.302-7.006-3.971-13.723-0.671C27.498,10.895,37.564,7.9,37.564,7.9z      M24.976,15.293l2.466-2.994c0,0,1.986,1.212,6.575,1.212s5.548-4.492,5.548-4.492s-1.459,0.434-2.793,0.739     c-0.765,1.236-2.193,2.634-4.754,2.634c-4.589,0-6.574-1.212-6.574-1.212l-2.466,2.995c0,0,3.138,3.914,8.472,6.6     C27.34,18.239,24.976,15.293,24.976,15.293z"
       id="path222" />
    <path
       fill="#999999"
       stroke="none"
       d="M28.944,10.295c0,1.949,1.472,3.529,3.288,3.529s3.288-1.58,3.288-3.529     c0-1.95-1.473-3.53-3.288-3.53S28.944,8.345,28.944,10.295z"
       id="path223" />
    <path
       fill="#999999"
       stroke="none"
       d="M34.148,11.186c0,2.441,1.901,4.42,4.246,4.42c2.346,0,4.246-1.979,4.246-4.42     c0-2.442-1.9-4.421-4.246-4.421C36.05,6.765,34.148,8.744,34.148,11.186z"
       id="path224" />
    <radialGradient
       id="XMLID_8_"
       cx="230.0439"
       cy="635.8125"
       r="39.1971"
       fx="230.0439"
       fy="635.8125"
       gradientTransform="matrix(0.1791 0 0 -0.1864 -7.8454 130.0106)"
       gradientUnits="userSpaceOnUse">
      <stop
         offset="0"
         style="stop-color:#FFFFFF"
         id="stop226" />
      <stop
         offset="1"
         style="stop-color:#D4E1EE"
         id="stop227" />
    </radialGradient>
    <path
       fill="url(#XMLID_8_)"
       stroke="none"
       d="M29.552,10.717c0,1.948,1.472,3.528,3.288,3.528c1.815,0,3.287-1.58,3.287-3.528     c0-1.95-1.472-3.53-3.287-3.53C31.024,7.187,29.552,8.767,29.552,10.717z"
       id="path231" />
    <path
       opacity="0.73"
       fill="#FFFFFF"
       stroke="none"
       d="M29.949,11.32c0-2.084,1.641-3.775,3.664-3.775     c0.154,0,0.306,0.013,0.455,0.032c-0.323-0.114-0.667-0.178-1.026-0.178c-1.816,0-3.288,1.58-3.288,3.529     c0,0.653,0.168,1.262,0.456,1.787C30.044,12.283,29.949,11.813,29.949,11.32z"
       id="path232" />
    <path
       stroke="none"
       d="M21.063,13.563c1.661,2.913,4.518,4.341,6.382,3.189c1.863-1.152,2.027-4.447,0.366-7.36     c-1.662-2.914-4.519-4.341-6.382-3.19C19.565,7.354,19.401,10.649,21.063,13.563z"
       id="path233" />
    <radialGradient
       id="XMLID_9_"
       cx="267.7129"
       cy="632.9395"
       r="43.5946"
       fx="267.7129"
       fy="632.9395"
       gradientTransform="matrix(0.1791 0 0 -0.1864 -7.8454 130.0106)"
       gradientUnits="userSpaceOnUse">
      <stop
         offset="0"
         style="stop-color:#FFFFFF"
         id="stop235" />
      <stop
         offset="1"
         style="stop-color:#D4E1EE"
         id="stop236" />
    </radialGradient>
    <path
       fill="url(#XMLID_9_)"
       stroke="none"
       d="M34.757,11.608c0,2.441,1.901,4.42,4.246,4.42s4.247-1.979,4.247-4.42     s-1.902-4.42-4.247-4.42S34.757,9.167,34.757,11.608z"
       id="path240" />
    <path
       fill="#FFFFFF"
       stroke="none"
       d="M35.441,11.821c0-2.064,1.725-3.758,3.903-3.906c-0.24-0.06-0.489-0.095-0.747-0.095     c-1.783,0-3.232,1.51-3.232,3.365c0,0.256,0.03,0.506,0.082,0.746C35.447,11.895,35.441,11.859,35.441,11.821z"
       id="path241" />
    <radialGradient
       id="XMLID_10_"
       cx="162.9287"
       cy="664.459"
       r="45.8462"
       fx="162.9287"
       fy="664.459"
       gradientTransform="matrix(0.1791 0 0 -0.1864 -7.8454 130.0106)"
       gradientUnits="userSpaceOnUse">
      <stop
         offset="0"
         style="stop-color:#FFFFFF"
         id="stop243" />
      <stop
         offset="1"
         style="stop-color:#000000"
         id="stop244" />
    </radialGradient>
    <path
       fill="url(#XMLID_10_)"
       stroke="none"
       d="M21.739,6.324c-0.802,0.495-1.206,1.533-1.206,2.775     c0,1.153,0.349,2.482,1.053,3.717c1.462,2.564,4.003,3.924,5.548,2.969c1.545-0.955,1.616-3.929,0.153-6.493     C25.825,6.729,23.285,5.369,21.739,6.324z"
       id="path248" />
    <path
       opacity="0.73"
       fill="#FFFFFF"
       stroke="none"
       d="M33.519,21.532c0,0,15.067,3.159,14.793-4.399     C48.037,9.575,49.133,22.548,33.519,21.532z"
       id="path249" />
    <path
       stroke="none"
       d="M38.523,12c0,0.886,0.705,1.604,1.575,1.604s1.575-0.718,1.575-1.604s-0.705-1.604-1.575-1.604     S38.523,11.114,38.523,12z"
       id="path250" />
    <path
       stroke="none"
       d="M32.223,11.466c0,0.63,0.506,1.141,1.13,1.141c0.624,0,1.129-0.511,1.129-1.141s-0.506-1.141-1.129-1.141     C32.729,10.325,32.223,10.835,32.223,11.466z"
       id="path251" />
  </g>
</svg>
