<?xml version="1.0" encoding="UTF-8" standalone="no"?>
<!DOCTYPE svg PUBLIC "-//W3C//DTD SVG 20010904//EN"
"http://www.w3.org/TR/2001/REC-SVG-20010904/DTD/svg10.dtd">
<!-- Created with Sodipodi ("http://www.sodipodi.com/") -->
<svg
   width="48pt"
   height="48pt"
   viewBox="0 0 50.65 48.572"
   overflow="visible"
   enable-background="new 0 0 50.65 48.572"
   xml:space="preserve"
   xmlns="http://www.w3.org/2000/svg"
   xmlns:xml="http://www.w3.org/XML/1998/namespace"
   xmlns:sodipodi="http://sodipodi.sourceforge.net/DTD/sodipodi-0.dtd"
   xmlns:xlink="http://www.w3.org/1999/xlink"
   id="svg153"
   sodipodi:version="0.32pre"
   sodipodi:docname="/home/cschalle/gnome-themes-extras/Wasp/icons/scalable/mimetypes/gnome-mime-application-x-zip.svg"
   sodipodi:docbase="/home/cschalle/gnome-themes-extras/Wasp/icons/scalable/mimetypes">
  <defs
     id="defs208" />
  <sodipodi:namedview
     id="base" />
  <metadata
     id="metadata154">
    <sfw>
      <slices />
      <sliceSourceBounds
         y="395.214"
         x="271.175"
         width="50.65"
         height="48.572"
         bottomLeftOrigin="true" />
    </sfw>
  </metadata>
  <g
     id="Layer_1"
     stroke="#000000">
    <g
       id="Layer_1_2_">
      <path
         a:adobe-blending-mode="multiply"
         opacity="0.2"
         stroke="none"
         d="M42.125,31.829l-17.65,16.743H32.6l18.05-17.025     l-0.029-3.767l-8.519-2.554L42.125,31.829z"
         id="path157" />
      <path
         stroke="none"
         d="M3.583,16.649L3.57,37.541l20.904,11.031l17.773-16.727V11.121L21.315,0L3.583,16.649z"
         id="path158" />
      <g
         id="g159">
        <path
           stroke="none"
           d="M40.96,11.751L21.511,1.461L4.784,17.169L4.77,17.162v19.656l19.543,10.347v-0.127l16.733-15.711V11.669      L40.96,11.751z"
           id="path160" />
      </g>
      <g
         id="g161">
        <linearGradient
           id="XMLID_1_"
           gradientUnits="userSpaceOnUse"
           x1="-209.1631"
           y1="380.3755"
           x2="-227.1375"
           y2="370.5534"
           gradientTransform="matrix(1 0 0 -1 233.1875 407.3564)">
          <stop
             offset="0"
             style="stop-color:#FAC08B"
             id="stop163" />
          <stop
             offset="1"
             style="stop-color:#CD9363"
             id="stop164" />
        </linearGradient>
        <path
           fill="url(#XMLID_1_)"
           stroke="none"
           d="M24.313,47.165L4.77,36.818V17.162l19.543,10.347V47.165z"
           id="path168" />
      </g>
      <g
         id="g169">
        <path
           fill="#5E3F1F"
           stroke="none"
           d="M17.296,29.856l-5.508-2.917v-2.44l5.508,2.917V29.856z"
           id="path170" />
      </g>
      <g
         id="g171">
        <g
           id="g172">
          <g
             id="g173">
            <path
               fill="#9A6633"
               stroke="none"
               d="M12.207,26.451v-1.73l-0.419-0.222v2.44l0.023,0.012        C11.87,26.748,12.02,26.564,12.207,26.451z"
               id="path174" />
          </g>
          <g
             id="g175">
            <linearGradient
               id="XMLID_2_"
               gradientUnits="userSpaceOnUse"
               x1="-216.5029"
               y1="378.3853"
               x2="-219.3811"
               y2="379.6028"
               gradientTransform="matrix(1 0 0 -1 233.1875 407.3564)">
              <stop
                 offset="0"
                 style="stop-color:#FFCD99"
                 id="stop177" />
              <stop
                 offset="1"
                 style="stop-color:#EBA76E"
                 id="stop178" />
            </linearGradient>
            <path
               fill="url(#XMLID_2_)"
               stroke="none"
               d="M17.296,29.214l-5.089-2.694v-0.069c-0.187,0.113-0.337,0.297-0.396,0.5        l5.485,2.905V29.214z"
               id="path182" />
          </g>
        </g>
      </g>
      <g
         id="g183">
        <path
           fill="#9A6633"
           stroke="none"
           d="M41.046,31.326L24.313,47.037V27.381l16.736-15.578L41.046,31.326z"
           id="path184" />
      </g>
      <g
         id="g185">
        <path
           fill="#B0763B"
           stroke="none"
           d="M34.859,37.435l-4.356,4.09V24.674l0.933-2.109l3.424-3.188V37.435z"
           id="path186" />
      </g>
      <g
         id="g187">
        <linearGradient
           id="XMLID_3_"
           gradientUnits="userSpaceOnUse"
           x1="-212.772"
           y1="407.7485"
           x2="-209.4026"
           y2="387.6752"
           gradientTransform="matrix(1 0 0 -1 233.1875 407.3564)">
          <stop
             offset="0"
             style="stop-color:#FFCD99"
             id="stop189" />
          <stop
             offset="1"
             style="stop-color:#EBA76E"
             id="stop190" />
        </linearGradient>
        <path
           fill="url(#XMLID_3_)"
           stroke="none"
           d="M41.046,11.797L24.313,27.509L4.779,17.173L21.511,1.461L41.046,11.797z"
           id="path194" />
      </g>
      <g
         id="g195">
        <path
           fill="#9A6633"
           stroke="none"
           d="M31.089,6.537L14.356,22.249l-0.277-0.191L30.812,6.346L31.089,6.537z"
           id="path196" />
      </g>
      <g
         id="g197">
        <path
           fill="#CD8D53"
           stroke="none"
           d="M31.4,25.5l0.035-2.934l-0.932,2.109L31.4,25.5z"
           id="path198" />
      </g>
      <path
         fill="#FFFFFF"
         stroke="none"
         d="M19.8,44.972H0.6V33.372h19.2V44.972z"
         id="path199" />
      <path
         stroke="none"
         d="M19.8,32.772H0v12.8h20.4v-12.8H19.8z M19.2,33.972c0,1.02,0,9.379,0,10.399c-1.09,0-16.91,0-18,0     c0-1.021,0-9.38,0-10.399C2.29,33.972,18.11,33.972,19.2,33.972z"
         id="path200" />
      <g
         id="g201">
        <path
           stroke="none"
           d="M7.542,36.84c-0.113,0.233-0.226,0.466-0.339,0.698c-0.112,0.197-0.239,0.321-0.38,0.37      C6.887,37.951,6.918,38,6.918,38.057c0,0.12-0.12,0.405-0.359,0.856c-0.24,0.451-0.423,0.698-0.55,0.74      c0.057,0.071,0.099,0.135,0.126,0.191c-0.134,0.281-0.345,0.704-0.634,1.269c-0.077,0.05-0.166,0.074-0.264,0.074      c0.062,0.05,0.093,0.106,0.093,0.17c0,0.127-0.244,0.628-0.732,1.504c-0.125,0.063-0.262,0.095-0.408,0.095      c-0.182,0-0.272-0.066-0.272-0.2c0-0.036,0-0.109,0-0.223v-0.042c0-0.12,0.049-0.215,0.146-0.285      c-0.097-0.078-0.146-0.191-0.146-0.339v-0.402c0.084-0.226,0.197-0.483,0.337-0.772c0.077-0.042,0.158-0.063,0.242-0.063      l-0.081-0.254c0.146-0.318,0.296-0.618,0.45-0.901c0.056-0.099,0.138-0.158,0.243-0.179c-0.028-0.049-0.042-0.105-0.042-0.169      c0-0.07,0.053-0.211,0.158-0.423c0.162-0.33,0.28-0.589,0.354-0.775s0.195-0.332,0.364-0.438      c-0.001-0.063-0.002-0.124-0.002-0.18v-0.063c0.162-0.372,0.358-0.728,0.587-1.065l0.071-0.042      c-0.035-0.042-0.053-0.095-0.053-0.158v-0.054l0.243-0.484c0.063-0.043,0.117-0.063,0.159-0.063c0.028,0,0.088,0,0.18,0      c0.091,0,0.169,0,0.232,0h0.042c0.092,0,0.138,0.049,0.138,0.147l0.002,0.085c0,0.021,0,0.054-0.002,0.096      c-0.007,0.049-0.01,0.084-0.01,0.105c0,0.021,0.003,0.049,0.01,0.084c0.001,0.043,0.001,0.075,0,0.096      c-0.056,0.106-0.12,0.173-0.19,0.201c0.035,0.057,0.085,0.102,0.148,0.137C7.528,36.481,7.542,36.65,7.542,36.84z M6.118,35.414      c0.084,0.071,0.126,0.139,0.126,0.203c0,0.072-0.06,0.164-0.181,0.278c-0.121,0.115-0.18,0.208-0.18,0.279      c0,0.014,0.02,0.039,0.061,0.075v0.021c0,0.115-0.071,0.247-0.211,0.397l-0.085,0.063H5.457c-0.176,0-0.346-0.012-0.508-0.036      l-0.074-0.074c-0.106,0.074-0.226,0.11-0.36,0.11c-0.057,0-0.099,0-0.127,0c-0.028,0-0.067,0-0.117,0      c-0.078,0-0.155-0.021-0.232-0.063c-0.021-0.119-0.032-0.218-0.032-0.295c0-0.155,0.055-0.254,0.164-0.295      c-0.073-0.015-0.119-0.046-0.137-0.096c-0.018-0.049-0.027-0.112-0.027-0.189c0-0.134,0.014-0.253,0.042-0.358      c0.049-0.035,0.088-0.053,0.116-0.053c0.021,0,0.039,0,0.053,0h0.697c0.021,0.015,0.051,0.036,0.09,0.065      s0.065,0.051,0.079,0.064c0.028-0.064,0.074-0.108,0.137-0.13h0.222C5.674,35.381,5.899,35.392,6.118,35.414z M7.56,42.287      c-0.032,0.049-0.08,0.085-0.144,0.106c0.068,0.027,0.113,0.06,0.133,0.095c0.013,0.086,0.021,0.143,0.021,0.171      c0,0.035-0.007,0.085-0.021,0.148l-0.021,0.096l-0.053,0.054H6.461c-0.077-0.025-0.13-0.079-0.158-0.163      c-0.099,0.108-0.222,0.163-0.369,0.163c-0.035,0-0.092-0.012-0.169-0.036c-0.077,0-0.134,0-0.169,0      c-0.063,0-0.132,0.006-0.206,0.018c-0.074,0.012-0.114,0.019-0.121,0.019c-0.049,0-0.09-0.011-0.122-0.032S5.1,42.875,5.1,42.84      c0-0.057,0.067-0.197,0.201-0.423l0.126-0.041c-0.023-0.057-0.034-0.103-0.034-0.138c0-0.042,0.049-0.158,0.147-0.348      c0.07-0.127,0.105-0.193,0.105-0.2c0.049-0.057,0.126-0.085,0.231-0.085c0.309,0,0.55,0.013,0.725,0.038      c0.035,0.02,0.074,0.057,0.116,0.113c0.07-0.101,0.217-0.151,0.441-0.151c0.049,0,0.143,0.007,0.284,0.021      c0.084,0.036,0.126,0.128,0.126,0.276c0.001,0.014,0.001,0.063,0,0.148C7.563,42.137,7.56,42.215,7.56,42.287z"
           id="path202" />
        <path
           stroke="none"
           d="M10.588,36.744v0.042c0,0.142-0.038,0.258-0.112,0.35c0.075,0.127,0.112,0.219,0.112,0.275v1.481      c-0.006,0.077-0.044,0.145-0.112,0.201c0.017,0.063,0.043,0.116,0.078,0.158l0.026,0.105c0.006,0.142,0.008,0.335,0.008,0.582      c0,0.127,0,0.275,0,0.444c0,0.169,0,0.275,0,0.317c0,0.027,0,0.086,0,0.175c0,0.088,0,0.16,0,0.217      c0,0.092-0.038,0.216-0.112,0.37c0.041,0.05,0.078,0.092,0.112,0.127v0.35c0,0.219-0.008,0.511-0.025,0.877      c-0.084,0.085-0.172,0.127-0.264,0.127c-0.183,0-0.303-0.05-0.358-0.149c-0.071,0.1-0.148,0.149-0.232,0.149H9.635      c-0.049,0-0.095,0-0.137,0H9.466c-0.126,0-0.19-0.088-0.19-0.264v-0.158c0-0.112,0-0.225,0-0.339l0.138-0.147      c-0.091-0.057-0.138-0.123-0.138-0.201v-1.141l0.037-0.074c0.065-0.027,0.106-0.049,0.122-0.063      c-0.068-0.043-0.121-0.106-0.158-0.191c0-0.126,0-0.316,0-0.57c0-0.253,0-0.443,0-0.57s0-0.313,0-0.561c0-0.253,0-0.439,0-0.56      l0.095-0.147c-0.063,0-0.095-0.095-0.095-0.285c0-0.063,0-0.208,0-0.434c0-0.225,0-0.419,0-0.58l0-0.35      c0.03-0.049,0.076-0.108,0.138-0.179c-0.078-0.007-0.124-0.05-0.138-0.127v-0.254c0-0.254,0.073-0.38,0.219-0.38      c0.021,0,0.08,0,0.177,0h0.104c0.097,0,0.17,0.044,0.219,0.132c0.021-0.088,0.097-0.132,0.229-0.132c0.062,0,0.114,0,0.156,0      c0.042,0,0.076,0,0.104,0c0.069,0,0.104,0.109,0.104,0.328c0,0.027,0,0.105,0,0.232c0,0.134,0,0.25,0,0.349      c0,0.042,0,0.116,0,0.223C10.588,36.607,10.588,36.687,10.588,36.744z"
           id="path203" />
        <path
           stroke="none"
           d="M13.944,41.969c0-0.007,0-0.014,0-0.021v0.011c0,0.201,0,0.351,0,0.447v0.313      c0,0.111-0.036,0.183-0.107,0.212c-0.036,0-0.085,0-0.148,0c-0.05,0-0.104,0-0.16,0c-0.057,0-0.092,0-0.106,0      c-0.121,0-0.199-0.046-0.234-0.138c-0.05,0.092-0.131,0.138-0.245,0.138h-0.287c-0.05,0-0.075-0.039-0.075-0.116v-0.021      c-0.003-0.035-0.003-0.084,0-0.148c0-0.063,0-0.109,0-0.137c0-0.128,0.008-0.272,0.023-0.435      c0.007-0.078,0.053-0.128,0.136-0.148c-0.015-0.035-0.042-0.075-0.079-0.116c-0.053-0.247-0.079-0.52-0.079-0.816v-0.243      c-0.003-0.021-0.003-0.116,0-0.286c0-0.17,0-0.325,0-0.466v-0.148c0-0.402,0.053-0.628,0.158-0.678      c-0.065-0.028-0.118-0.077-0.158-0.148v-2.107c0-0.078,0.045-0.148,0.137-0.212l-0.137-0.138v-1.101      c0.036-0.063,0.109-0.096,0.224-0.096h0.149c0.156,0,0.263,0.048,0.319,0.143c0.05-0.059,0.117-0.099,0.202-0.121      c0.128-0.014,0.206-0.021,0.234-0.021c0.121,0,0.195,0.035,0.224,0.105c0.007,0.1,0.011,0.261,0.011,0.486l-0.126,0.127      c0.084,0.085,0.126,0.215,0.126,0.393c0,0.697-0.004,1.537-0.01,2.517l-0.029,0.106c-0.039,0.042-0.068,0.096-0.087,0.158      c0.077,0.057,0.119,0.124,0.126,0.201v1.852c0,0.063-0.039,0.154-0.116,0.275c0.077,0.091,0.116,0.204,0.116,0.338      L13.944,41.969z M16.332,37.942c-0.084,0.901-0.239,1.352-0.464,1.352c-0.035,0-0.081-0.01-0.137-0.029      c0.034,0.126,0.05,0.193,0.05,0.2c0,0.113-0.098,0.215-0.295,0.307c-0.218,0.106-0.499,0.162-0.843,0.17      c-0.021,0.007-0.049,0.01-0.084,0.01c-0.105,0-0.19-0.049-0.253-0.147c0.007-0.099,0.014-0.243,0.021-0.433      c0.056-0.035,0.108-0.077,0.157-0.127c-0.091-0.042-0.146-0.112-0.167-0.211l-0.01-0.232c0-0.077,0.032-0.131,0.096-0.158      l0.278-0.085c0.143-0.169,0.239-0.376,0.289-0.623c0.033-0.183,0.075-0.277,0.128-0.285c-0.072-0.028-0.119-0.088-0.141-0.179      c0-0.296-0.126-0.542-0.379-0.739h-0.043c-0.151,0-0.227-0.074-0.227-0.222v-0.232c0.008-0.092,0.067-0.158,0.177-0.201      c-0.037-0.035-0.092-0.081-0.167-0.137l-0.011-0.424c0.063-0.098,0.143-0.147,0.241-0.147c0.042,0,0.073,0,0.094,0h0.094      c0.376,0,0.705,0.125,0.983,0.376c0.042,0.048,0.063,0.097,0.063,0.146c0,0.034,0,0.069,0,0.104c0.014,0,0.035,0,0.063,0      c0.308,0,0.462,0.469,0.462,1.408v0.148c-0.029,0.057-0.076,0.117-0.142,0.18h0.021C16.227,37.731,16.276,37.801,16.332,37.942z      "
           id="path204" />
      </g>
      <g
         id="g205">
        <path
           fill="#9A6633"
           stroke="none"
           d="M4.779,17.173l9.18,5.775l0.145-0.434l0.249,0.139l9.96,4.856L4.779,17.173z"
           id="path206" />
      </g>
    </g>
  </g>
</svg>
