<?xml version="1.0" encoding="UTF-8" standalone="no"?>
<!DOCTYPE svg PUBLIC "-//W3C//DTD SVG 20010904//EN"
"http://www.w3.org/TR/2001/REC-SVG-20010904/DTD/svg10.dtd">
<!-- Created with Sodipodi ("http://www.sodipodi.com/") -->
<svg
   width="58pt"
   height="48pt"
   viewBox="0 0 66.133 48.371"
   overflow="visible"
   enable-background="new 0 0 66.133 48.371"
   xml:space="preserve"
   id="svg153"
   sodipodi:version="0.32pre"
   sodipodi:docname="/home/cschalle/gnome-themes-extras/Wasp/icons/scalable/mimetypes/gnome-mime-application-pdf.svg"
   sodipodi:docbase="/home/cschalle/gnome-themes-extras/Wasp/icons/scalable/mimetypes/"
   xmlns="http://www.w3.org/2000/svg"
   xmlns:sodipodi="http://sodipodi.sourceforge.net/DTD/sodipodi-0.dtd"
   xmlns:xml="http://www.w3.org/XML/1998/namespace"
   xmlns:xlink="http://www.w3.org/1999/xlink">
  <defs
     id="defs200" />
  <sodipodi:namedview
     id="base" />
  <metadata
     id="metadata154">
    <sfw>
      <slices />
      <sliceSourceBounds
         y="395.314"
         x="263.433"
         width="66.133"
         height="48.371"
         bottomLeftOrigin="true" />
    </sfw>
  </metadata>
  <g
     id="Layer_1"
     stroke="#000000"
     transform="translate(0,1.90735e-06)">
    <g
       id="Layer_1_2_">
      <g
         id="g157">
        <linearGradient
           id="XMLID_1_"
           gradientUnits="userSpaceOnUse"
           x1="-375.4331"
           y1="104.5449"
           x2="-356.3073"
           y2="73.1708"
           gradientTransform="matrix(0.4828 0.721 0.7677 -0.514 140.0518 339.5116)">
          <stop
             offset="0"
             style="stop-color:#FDFEED"
             id="stop159" />
          <stop
             offset="1"
             style="stop-color:#FFF24B"
             id="stop160" />
        </linearGradient>
        <path
           fill="url(#XMLID_1_)"
           stroke="none"
           d="M22.404,44.751L5.074,24.075l29.248-13.037l25.701,21.264L22.404,44.751z"
           id="path164" />
      </g>
      <path
         stroke="none"
         d="M1.69,23.299l20.231,23.972l41.486-14.191L34.804,8.516L1.69,23.299z"
         id="path165" />
      <g
         id="g166">
        <linearGradient
           id="XMLID_2_"
           gradientUnits="userSpaceOnUse"
           x1="-375.4331"
           y1="104.5449"
           x2="-356.3073"
           y2="73.1708"
           gradientTransform="matrix(0.4828 0.721 0.7677 -0.514 140.0518 339.5116)">
          <stop
             offset="0.0056"
             style="stop-color:#D9D8FF"
             id="stop168" />
          <stop
             offset="0.514"
             style="stop-color:#FDFEED"
             id="stop169" />
          <stop
             offset="1"
             style="stop-color:#9A99CD"
             id="stop170" />
        </linearGradient>
        <path
           fill="url(#XMLID_2_)"
           stroke="none"
           d="M22.404,44.751L5.074,24.075l29.248-13.037l25.701,21.264L22.404,44.751z"
           id="path176" />
      </g>
      <g
         id="g177">
        <linearGradient
           id="XMLID_3_"
           gradientUnits="userSpaceOnUse"
           x1="-313.0947"
           y1="225.8115"
           x2="-292.3098"
           y2="191.7158"
           gradientTransform="matrix(0.702 0.51 0.543 -0.7475 130.3028 333.4989)">
          <stop
             offset="0"
             style="stop-color:#FDFEED"
             id="stop179" />
          <stop
             offset="1"
             style="stop-color:#FFF24B"
             id="stop180" />
        </linearGradient>
        <path
           fill="url(#XMLID_3_)"
           stroke="none"
           d="M38.013,42.094L3.422,23.729L24.475,2.548l34.592,18.365L38.013,42.094z"
           id="path184" />
      </g>
      <path
         stroke="none"
         d="M0,24.278l38.356,20.365l24.133-24.28L24.134,0L0,24.278z"
         id="path185" />
      <g
         id="g186">
        <linearGradient
           id="XMLID_4_"
           gradientUnits="userSpaceOnUse"
           x1="-200.6094"
           y1="423.3213"
           x2="-202.1694"
           y2="387.4401"
           gradientTransform="matrix(1 0 0 -1 232.9102 421.3594)">
          <stop
             offset="0.0056"
             style="stop-color:#D9D8FF"
             id="stop188" />
          <stop
             offset="0.514"
             style="stop-color:#FDFEED"
             id="stop189" />
          <stop
             offset="1"
             style="stop-color:#9A99CD"
             id="stop190" />
        </linearGradient>
        <path
           fill="url(#XMLID_4_)"
           stroke="none"
           d="M38.013,42.094L3.422,23.729L24.475,2.548l34.592,18.365L38.013,42.094z"
           id="path196" />
      </g>
      <path
         a:adobe-blending-mode="multiply"
         opacity="0.2"
         stroke="none"
         d="M1.954,24.939l27.714,18.106l-7.746,4.225l11.636-1.03     l6.32,2.131l6.807-7.987l19.448-6.391l-6.32-6.923l5.349-3.727l-5.523-1.63l-4.688,5.358l5.349,3.728l-17.018,6.922l-5.269,4.373     L1.954,24.939z"
         id="path197" />
      <path
         a:adobe-blending-mode="multiply"
         opacity="0.2"
         stroke="none"
         d="M56.563,28.922l-5.359,5.533l-5.755,2.439l9.373-10.063     L56.563,28.922z"
         id="path198" />
    </g>
  </g>
  <g
     id="g172"
     transform="matrix(0.229003,0,0,0.206374,-9.37281,7.17612)"
     style="font-size:12;stroke:#000000;overflow:visible;enable-background:new 0 0 256 256;">
    <g
       knockout="Off"
       style="opacity:0.36;"
       id="g173">
      <g
         id="g174">
        <path
           knockout="Off"
           style="fill:none;stroke:none;"
           d="M78.818,165.84c26.584-5.104,66.043-15.454,102.867-4.887       c29.384,8.281,25.643,28.441,0.508,14.023c-9.076-5.418-13.684-11.796-19.627-18.284       c-11.277-12.761-21.564-24.439-30.55-37.841c-6.509-10.697-15.194-21.077-15.022-31.216       c0.162-4.314,6.393-27.596,21.723-18.492c14.11,8.669-9.903,27.802-14.153,33.938c-5.977,10.985-14.28,20.777-20.259,31.764       c-6.553,12.602-13.105,25.203-20.268,37.588c-1.532,2.369-7.591,15.512-15.031,13.226c-9.998-2.833-1.233-13.918,1.404-15.529       c2.752-1.934,7.337-3.215,10.47-4.284"
           id="path175" />
        <path
           knockout="Off"
           style="fill:#999999;stroke:none;"
           d="M78.818,173.48c26.956-5.062,53.688-10.746,81.302-8.596       c12.757,0.993,27.026,3.95,37.191,12.236c1.468,1.196,2.751,2.618,3.748,4.226c0.349,0.563,0.586,1.177,0.81,1.795       c0.023-4.867,0.047-9.734,0.069-14.602c-0.1,0.29-0.257,0.546-0.471,0.768c-1.946,2.227-6.158,1.271-8.544,0.671       c-12.476-3.135-21.185-13.549-29.321-22.727c-10.2-11.504-20.357-23.052-29.288-35.589c-4.094-5.746-7.967-11.78-11.611-17.821       c-1.684-2.79-3.086-5.706-4.203-8.764c-2.548-6.979-1.617,14.624-0.781,9.588c0.123-0.743,0.314-1.463,0.514-2.188       c1.808-6.588,5.871-14.733,13.563-15.201c2.769-0.168,5.552,1.215,7.771,2.715c1.088,0.735,1.91,1.737,2.537,2.876       c2.062,5.197,2.171,0.599,0.329-13.794c-0.203,0.854-0.563,1.669-0.904,2.474c-2.309,5.448-6.828,10.014-10.808,14.276       c-4.051,4.339-6.923,8.317-10.07,13.391c-5.371,8.658-11.663,16.687-16.622,25.607c-5.339,9.603-10.155,19.503-15.472,29.124       c-3.263,5.906-6.42,12.543-10.888,17.669c-1.789,2.053-4.017,3.575-6.756,3.854c-1.423,0.146-2.871-0.532-4.106-1.132       c-0.672-0.376-1.219-0.889-1.641-1.54c5.882,8.719-2.57,20.331,0.65,13.349c2.895-6.277,9.114-7.909,15.063-10.293       c1.591-0.638,1.001-8.781,1.001-10.008c0-0.518-0.242-10.209-1.001-10.008c-9.009,2.391-16.205,6.303-17.218,16.425       c-0.621,6.217-1.564,14.646,0.951,20.587c1.842,4.348,7.531,3.951,10.713,1.778c3.215-2.195,5.462-6.08,7.379-9.367       c3.158-5.416,6.208-10.896,9.209-16.401c7.519-13.793,14.389-27.653,23.307-40.624c3.535-5.142,6.416-11.341,10.383-16.089       c2.476-2.962,5.295-5.649,7.888-8.508c6.688-7.375,10.329-14.148,10.606-24.242c0.265-9.615,0.526-22.337-12.302-22.569       c-7.384-0.133-11.661,8.888-13.64,14.712c-3.357,9.885-3.034,21.747-0.644,31.743c1.562,6.524,5.773,12.454,9.357,18       c4.007,6.2,7.954,12.375,12.393,18.282c8.766,11.671,18.642,22.503,28.349,33.386c7.16,8.027,17.574,16.2,28.852,16.484       c9.697,0.244,7.032-14.471,6.541-20.384c-0.703-8.475-9.658-12.498-16.726-14.929c-27.569-9.479-58.201-5.771-86.124-0.303       c-7.125,1.396-14.216,2.959-21.336,4.379C76.811,158.6,78.603,173.521,78.818,173.48z"
           id="path264" />
      </g>
    </g>
    <g
       knockout="Off"
       id="g265">
      <g
         id="g178">
        <path
           knockout="Off"
           style="fill:none;stroke:none;"
           d="M72.818,156.84c26.584-5.104,66.043-15.454,102.867-4.887       c29.384,8.281,25.643,28.441,0.508,14.023c-9.076-5.418-13.684-11.796-19.627-18.284       c-11.277-12.761-21.564-24.439-30.55-37.841c-6.509-10.697-15.194-21.077-15.022-31.216       c0.162-4.314,6.393-27.596,21.723-18.492c14.11,8.669-9.903,27.802-14.153,33.938c-5.977,10.985-14.28,20.777-20.259,31.764       c-6.553,12.602-13.105,25.203-20.268,37.588c-1.532,2.369-7.591,15.512-15.031,13.226c-9.998-2.833-1.233-13.918,1.404-15.529       c2.752-1.934,7.337-3.215,10.47-4.284"
           id="path179" />
        <path
           knockout="Off"
           style="fill:#F70019;stroke:none;"
           d="M72.818,164.48c26.956-5.062,53.688-10.746,81.302-8.596       c12.757,0.993,27.026,3.95,37.191,12.236c1.468,1.196,2.751,2.618,3.748,4.226c0.349,0.563,0.586,1.177,0.81,1.795       c0.023-4.867,0.047-9.734,0.069-14.602c-0.1,0.29-0.257,0.546-0.471,0.768c-1.946,2.227-6.158,1.271-8.544,0.671       c-12.476-3.135-21.185-13.549-29.321-22.727c-10.2-11.504-20.357-23.052-29.288-35.589c-4.094-5.746-7.967-11.78-11.611-17.821       c-1.684-2.79-3.086-5.706-4.203-8.765c-2.548-6.979-1.617,14.623-0.781,9.588c0.123-0.744,0.314-1.462,0.514-2.188       c1.808-6.588,5.871-14.733,13.563-15.201c2.769-0.168,5.552,1.215,7.771,2.715c1.088,0.735,1.91,1.737,2.537,2.876       c2.062,5.197,2.171,0.599,0.329-13.794c-0.203,0.854-0.563,1.669-0.904,2.474c-2.309,5.448-6.828,10.014-10.808,14.276       c-4.051,4.339-6.923,8.317-10.07,13.391c-5.371,8.658-11.663,16.687-16.622,25.607c-5.339,9.603-10.155,19.503-15.472,29.124       c-3.263,5.906-6.42,12.543-10.888,17.669c-1.789,2.053-4.017,3.575-6.756,3.854c-1.423,0.146-2.871-0.532-4.106-1.132       c-0.672-0.376-1.219-0.889-1.641-1.54c5.882,8.719-2.57,20.331,0.65,13.349c2.895-6.277,9.114-7.909,15.063-10.293       c1.591-0.638,1.001-8.781,1.001-10.008c0-0.518-0.242-10.209-1.001-10.008c-9.009,2.391-16.205,6.303-17.218,16.425       c-0.621,6.217-1.564,14.646,0.951,20.587c1.842,4.348,7.531,3.951,10.713,1.778c3.215-2.195,5.462-6.08,7.379-9.367       c3.158-5.416,6.208-10.896,9.209-16.401c7.519-13.793,14.389-27.653,23.307-40.624c3.535-5.142,6.416-11.341,10.383-16.089       c2.476-2.962,5.295-5.649,7.888-8.508c6.688-7.375,10.329-14.148,10.606-24.242c0.265-9.615,0.526-22.337-12.302-22.569       c-7.384-0.133-11.661,8.888-13.64,14.712c-3.357,9.885-3.034,21.747-0.644,31.743c1.562,6.524,5.773,12.454,9.357,18       c4.007,6.2,7.954,12.375,12.393,18.282c8.766,11.671,18.642,22.503,28.349,33.386c7.16,8.027,17.574,16.2,28.852,16.484       c9.697,0.244,7.032-14.471,6.541-20.384c-0.703-8.475-9.658-12.498-16.726-14.929c-27.569-9.479-58.201-5.771-86.124-0.303       c-7.125,1.396-14.216,2.959-21.336,4.379C70.811,149.6,72.603,164.521,72.818,164.48z"
           id="path180" />
      </g>
    </g>
  </g>
</svg>
