<?xml version="1.0" encoding="iso-8859-1"?>
<!-- Generator: Adobe Illustrator 9.0, SVG Export Plug-In  -->
<!DOCTYPE svg PUBLIC "-//W3C//DTD SVG 20000303 Stylable//EN"   "http://www.w3.org/TR/2000/03/WD-SVG-20000303/DTD/svg-20000303-stylable.dtd" [
	<!ENTITY st0 "fill:url(#aigrd1);stroke:none;">
	<!ENTITY st1 "opacity:0.25;">
	<!ENTITY st2 "opacity:0.36;">
	<!ENTITY st3 "opacity:0.37;">
	<!ENTITY st4 "stroke-width:2.4586;">
	<!ENTITY st5 "fill:#FFFFFF;stroke:none;">
	<!ENTITY st6 "stroke:#000000;stroke-width:4.3492;">
	<!ENTITY st7 "fill-rule:nonzero;clip-rule:nonzero;fill:none;stroke:#FFFFFF;stroke-width:1.9273;stroke-miterlimit:4;">
	<!ENTITY st8 "fill:none;stroke:none;">
	<!ENTITY st9 "opacity:0.37;fill:#FFFFFF;stroke:none;">
	<!ENTITY st10 "fill-rule:nonzero;clip-rule:nonzero;stroke:#000000;stroke-miterlimit:4;">
	<!ENTITY st11 "stroke:none;">
]>
<svg  width="48pt" height="48pt" viewBox="0 0 48 48" xml:space="preserve">
	<g id="bbox" style="&st10;">
		<path style="&st8;" d="M48,48H0V0h48v48z"/>
	</g>
	<g id="Layer_x0020_5" style="&st10;">
		<g style="&st1;">
			<path style="&st11;" d="M28.4,39.8c1.7,0.4,4.3,0.1,5.8-0.8l9.4-5c1.5-0.8,1.4-1.7-0.3-2l-18.5-3.4c-1.7-0.3-4.4-0.1-6,0.6L8.2,33.3c-1.6,0.6-1.6,1.4,0.1,1.8l20,4.7z"/>
		</g>
	</g>
	<g id="Layer_x0020_4" style="&st7;">
		<g>
			<g>
				<linearGradient id="aigrd1" gradientUnits="userSpaceOnUse" x1="24.5571" y1="32.6445" x2="14.5808" y2="12.0267">
					<stop  offset="0" style="stop-color:#433E6B"/>
					<stop  offset="1" style="stop-color:#7167AF"/>
				</linearGradient>
				<path style="&st0;" d="M30.4,34.5c0,1.6-1.3,2.6-2.8,2.3l-16.1-3.7c-1.6-0.4-2.8-1.9-2.8-3.5L8.6,12.9c0-1.6,1.3-2.8,2.9-2.7l16.1,1.4c1.6,0.1,2.9,1.6,2.9,3.1v19.7z"/>
				<path style="&st6;" d="M30.4,34.5c0,1.6-1.3,2.6-2.8,2.3l-16.1-3.7c-1.6-0.4-2.8-1.9-2.8-3.5L8.6,12.9c0-1.6,1.3-2.8,2.9-2.7l16.1,1.4c1.6,0.1,2.9,1.6,2.9,3.1v19.7z"/>
			</g>
			<path style="&st0;" d="M30.4,34.5c0,1.6-1.3,2.6-2.8,2.3l-16.1-3.7c-1.6-0.4-2.8-1.9-2.8-3.5L8.6,12.9c0-1.6,1.3-2.8,2.9-2.7l16.1,1.4c1.6,0.1,2.9,1.6,2.9,3.1v19.7z"/>
			<path style="&st4;" d="M20.4,20.1"/>
			<g>
				<path style="&st9;" d="M19,18.1c0,1.5-1.3,2.4-3,2.1c-1.6-0.3-2.8-1.7-2.8-3.2c0-1.4,1.2-2.4,2.8-2.1c1.6,0.3,3,1.7,3,3.2z"/>
				<path style="&st3;" d="M17.1,18.2l1.5,6.8l5.3,0.3l1.6,4.6l2.5,0.4"/>
				<path style="&st3;" d="M17.7,20.9l4.2,0.1"/>
				<path style="&st3;" d="M15.7,22.7c-1.5,0-2.8,0.8-3.2,2.1c-0.6,2,0.7,4.5,3,5.8c2.4,1.3,5-1.2,5.7-3.3"/>
			</g>
			<g>
				<path style="&st5;" d="M18.3,17.4c0,1.5-1.3,2.4-2.9,2.1c-1.6-0.3-2.8-1.7-2.8-3.1c0-1.4,1.2-2.4,2.8-2.1c1.6,0.3,3,1.7,3,3.2z"/>
				<path d="M16.5,19.4l1.5,4.8l5.2,0.2l1.6,4.5l2.5,0.4"/>
				<path d="M17.1,20.2l4.2,0.1"/>
				<path d="M15.1,22.1c-1.5,0-2.7,0.8-3.1,2.1c-0.6,1.9,0.7,4.5,3,5.7c2.4,1.3,5-1.2,5.7-3.3"/>
			</g>
			<path style="&st4;" d="M14.5,24"/>
			<path style="&st4;" d="M17.4,22"/>
			<g style="&st2;">
				<path style="&st5;" d="M9.4,31.7c-0.4,0-0.7-1.2-0.7-2.8l-0.1-16c0-1.6,1.3-2.8,2.9-2.7l15.3,1.3c1.6,0.1,2.9,0.7,3,1.2c0,0.5-1.2,0.9-2.8,0.7l-14-1.4c-1.6-0.2-2.9,1-2.9,2.6l0,14.1c0,1.6-0.3,2.9-0.7,3z"/>
			</g>
		</g>
	</g>
</svg>
