<?xml version="1.0" encoding="iso-8859-1"?>
<!-- Generator: Adobe Illustrator 9.0, SVG Export Plug-In  -->
<!DOCTYPE svg PUBLIC "-//W3C//DTD SVG 20000303 Stylable//EN"   "http://www.w3.org/TR/2000/03/WD-SVG-20000303/DTD/svg-20000303-stylable.dtd" [
	<!ENTITY st0 "fill:url(#aigrd7);">
	<!ENTITY st1 "fill:url(#aigrd9);">
	<!ENTITY st2 "fill:url(#aigrd1);stroke:none;">
	<!ENTITY st3 "fill:#000000;stroke:none;">
	<!ENTITY st4 "fill:url(#aigrd6);stroke:#000000;stroke-width:0.5984;">
	<!ENTITY st5 "fill:url(#aigrd1);stroke-width:2.8978;stroke-linecap:round;stroke-linejoin:round;">
	<!ENTITY st6 "fill:none;stroke-width:2.8978;stroke-linecap:round;stroke-linejoin:round;">
	<!ENTITY st7 "fill:#848484;stroke:none;">
	<!ENTITY st8 "opacity:0.25;">
	<!ENTITY st9 "fill:url(#aigrd10);">
	<!ENTITY st10 "fill:url(#aigrd11);">
	<!ENTITY st11 "fill:url(#aigrd12);">
	<!ENTITY st12 "fill:url(#aigrd13);">
	<!ENTITY st13 "fill:url(#aigrd14);">
	<!ENTITY st14 "fill:url(#aigrd15);">
	<!ENTITY st15 "fill:url(#aigrd16);">
	<!ENTITY st16 "fill:url(#aigrd17);">
	<!ENTITY st17 "fill:url(#aigrd18);">
	<!ENTITY st18 "fill:url(#aigrd19);">
	<!ENTITY st19 "fill:url(#aigrd20);">
	<!ENTITY st20 "fill:url(#aigrd3);stroke:none;">
	<!ENTITY st21 "fill:#545454;stroke:none;">
	<!ENTITY st22 "opacity:0.58;fill:url(#aigrd8);">
	<!ENTITY st23 "fill:#FFFFFF;stroke:none;">
	<!ENTITY st24 "fill:url(#aigrd5);stroke:none;">
	<!ENTITY st25 "fill-rule:nonzero;clip-rule:nonzero;fill:#DEDEDE;stroke:#000000;stroke-miterlimit:4;">
	<!ENTITY st26 "fill:none;stroke:none;">
	<!ENTITY st27 "fill-rule:nonzero;clip-rule:nonzero;stroke:#000000;stroke-miterlimit:4;">
	<!ENTITY st28 "stroke:none;">
	<!ENTITY st29 "fill:#B3B3B3;stroke:none;">
	<!ENTITY st30 "fill:url(#aigrd4);stroke:none;">
]>
<svg  width="48pt" height="48.2pt" viewBox="0 0 48 48.2" xml:space="preserve">
	<g id="Layer_x0020_1" style="&st25;">
		<g style="&st8;">
			<path style="&st3;" d="M22.1,32c-2.6-0.6-6.4,0.1-8.5,1.6l-2.3,1.7c-2.1,1.5-1.8,3.4,0.7,4.2l18.9,5.7c2.5,0.8,6.2-0.1,8.1-1.9l2.6-2.4c1.9-1.8,1.4-3.8-1.1-4.4L22.1,32z"/>
		</g>
		<radialGradient id="aigrd1" cx="24.1899" cy="29.9287" r="12.3883" fx="24.1899" fy="29.9287" gradientUnits="userSpaceOnUse">
			<stop  offset="0" style="stop-color:#B6B6B6"/>
			<stop  offset="1" style="stop-color:#878787"/>
		</radialGradient>
		<path style="&st5;" d="M26.9,30.1c-5.7,0-10.4,2-10.4,4.5v1.2c0,2.5,4.6,4.5,10.4,4.5c5.7,0,10.3-2,10.3-4.5v-1.2c0-2.5-4.6-4.5-10.3-4.5z"/>
		<path style="&st2;" d="M26.9,30.1c-5.7,0-10.4,2-10.4,4.5v1.2c0,2.5,4.6,4.5,10.4,4.5c5.7,0,10.3-2,10.3-4.5v-1.2c0-2.5-4.6-4.5-10.3-4.5z"/>
		<path style="&st29;" d="M16.7,34c0.3,2,2.6,4.8,12,5c-7.2,0.7-12.9-1.4-12-5z"/>
		<g>
			<path style="&st3;" d="M39.8,9.9c0.1-0.5,0-1-0.3-1c-0.3,0-0.5-0.1-0.5-0.1c0,0,0,0,0,0c0,0-0.4-0.1-1-0.2L12,4.1C11.5,4,10.8,4,10.4,4c-0.3,0-0.6,0-0.6,0c0,0-0.2,0-0.4,0C9.1,4,8.9,4.5,8.8,5L5.2,29.4c-0.1,0.5,0.3,1.1,0.8,1.2l24.9,7.3
				c0.5,0.1,0.9,0.3,0.9,0.3c0,0,0,0,0,0c0,0,0.2,0.1,0.5,0.1c0.2,0.1,0.6,0.1,0.7,0.1s0.4-0.1,0.5-0.1c0.1,0,0.5-0.1,0.5-0.1c0,0,0.2-0.1,0.6-0.1s0.6-0.6,0.7-1.1l4.5-27z"/>
			<path style="&st6;" d="M39.8,9.9c0.1-0.5,0-1-0.3-1c-0.3,0-0.5-0.1-0.5-0.1c0,0,0,0,0,0c0,0-0.4-0.1-1-0.2L12,4.1C11.5,4,10.8,4,10.4,4c-0.3,0-0.6,0-0.6,0c0,0-0.2,0-0.4,0C9.1,4,8.9,4.5,8.8,5L5.2,29.4c-0.1,0.5,0.3,1.1,0.8,1.2l24.9,7.3
				c0.5,0.1,0.9,0.3,0.9,0.3c0,0,0,0,0,0c0,0,0.2,0.1,0.5,0.1c0.2,0.1,0.6,0.1,0.7,0.1s0.4-0.1,0.5-0.1c0.1,0,0.5-0.1,0.5-0.1c0,0,0.2-0.1,0.6-0.1s0.6-0.6,0.7-1.1l4.5-27z"/>
		</g>
		<g>
			<linearGradient id="aigrd3" gradientUnits="userSpaceOnUse" x1="8.8945" y1="20.3232" x2="34.0076" y2="22.132">
				<stop  offset="0" style="stop-color:#F8F8F8"/>
				<stop  offset="1" style="stop-color:#C9C9C9"/>
			</linearGradient>
			<path style="&st20;" d="M10.2,4.3c-0.7-0.1-1.3,0.4-1.4,1L5.3,29.1c-0.1,0.7,0.4,1.4,1,1.6l25.3,7.4c0.7,0.2,1.3-0.2,1.4-0.9l4.8-27c0.1-0.7-0.3-1.3-1-1.5L10.2,4.3z"/>
		</g>
		<g>
			<linearGradient id="aigrd4" gradientUnits="userSpaceOnUse" x1="30.2646" y1="30.7734" x2="43.8768" y2="14.7483">
				<stop  offset="0" style="stop-color:#9F9F9F"/>
				<stop  offset="1" style="stop-color:#828282"/>
			</linearGradient>
			<path style="&st30;" d="M35.3,36.6c-0.1,0.7-0.7,1.4-1.4,1.5s-1.1-0.3-0.9-1l4.8-27c0.1-0.7,0.7-1.2,1.2-1.2c0.5,0,0.9,0.6,0.8,1.2l-4.4,26.5z"/>
		</g>
		<g>
			<linearGradient id="aigrd5" gradientUnits="userSpaceOnUse" x1="9.9849" y1="6.4648" x2="38.9629" y2="6.4648">
				<stop  offset="0" style="stop-color:#EBEBEB"/>
				<stop  offset="1" style="stop-color:#EAEAEA"/>
			</linearGradient>
			<path style="&st24;" d="M12.3,4.2C11.6,4,10.6,4,10,4s-0.5,0.2,0.2,0.3l26.6,4.4c0.7,0.1,1.7,0.2,2.2,0.2c0.5,0,0.4-0.1-0.3-0.2L12.3,4.2z"/>
		</g>
		<path style="&st7;" d="M34,38.2c-0.6,0.3-1.3,0.3-2.1,0c0.7-0.2,1.1-0.8,1.1-0.8s0.1,0.9,1,0.8z"/>
		<path style="&st23;" d="M36.8,9c0.6,0.1,1.1,0.2,0.7,1.7l-2.2,13.1l2.6-13.7c0.1-0.8,0.6-1.1,1-1.2L10,4.1C9.9,4.1,9.8,4,9.8,4c-0.6,0-1,0.7-1.1,1.3c0.3-0.6,0.5-0.9,1.2-0.8L36.8,9z"/>
		<path style="&st21;" d="M39.7,10.2c0-1-0.7-1.2-0.7-1.2s0.2-0.1,0-0.2c0.4,0.1,0.9,0.7,0.7,1.4z"/>
		<g style="&st23;">
			<linearGradient id="aigrd6" gradientUnits="userSpaceOnUse" x1="20.0874" y1="9.8232" x2="20.0874" y2="28.4387" gradientTransform="matrix(1 -2.300000e-003 2.300000e-003 1 -0.2499 0.2706)">
				<stop  offset="0" style="stop-color:#000000"/>
				<stop  offset="1" style="stop-color:#3A4A70"/>
			</linearGradient>
			<path style="&st4;" d="M28.1,32.3L7.9,26.5l2.8-19.7l21.1,3.7l-3.7,21.9z"/>
			<linearGradient id="aigrd7" gradientUnits="userSpaceOnUse" x1="20.356" y1="9.8906" x2="20.356" y2="28.5047" gradientTransform="matrix(1 -2.300000e-003 2.300000e-003 1 -0.2499 0.2706)">
				<stop  offset="0" style="stop-color:#120751"/>
				<stop  offset="1" style="stop-color:#7473B5"/>
			</linearGradient>
			<path style="&st0;" d="M28.4,32.3L8.2,26.5L11,6.8l21.1,3.7l-3.7,21.9z"/>
			<g>
				<linearGradient id="aigrd8" gradientUnits="userSpaceOnUse" x1="20.8828" y1="9.0415" x2="20.8828" y2="16.4841" gradientTransform="matrix(1 -2.300000e-003 2.300000e-003 1 -0.2499 0.2706)">
					<stop  offset="0" style="stop-color:#E7EBEF"/>
					<stop  offset="1" style="stop-color:#52699F"/>
				</linearGradient>
				<path style="&st22;" d="M12.1,8c-0.1,0-0.2,0.2-0.3,0.4l-1.3,9.4c0,0.2,0,0.4,0.2,0.4c5.5,0,14.6-2.5,19.7-4.9c0.2-0.1,0.3-0.3,0.3-0.6l0.1-0.9c0-0.3,0-0.5-0.2-0.5L12.1,8z"/>
			</g>
			<g>
				<path d="M10.7,21.5l3-0.9l-2.6-2.3l0.3-2.1l4.2,4l-0.3,1.9l-5,1.6l0.3-2.1z"/>
				<path d="M15.1,26.5l4.4,1.2l-0.1,0.6L15,27.1l0.1-0.6z"/>
			</g>
		</g>
		<g style="&st28;">
			<g>
				<g>
					<g>
						<linearGradient id="aigrd9" gradientUnits="userSpaceOnUse" x1="32.0039" y1="27.7031" x2="33.0332" y2="26.4914">
							<stop  offset="0" style="stop-color:#9F9F9F"/>
							<stop  offset="1" style="stop-color:#828282"/>
						</linearGradient>
						<path style="&st1;" d="M34,27.2l-2.7-0.6l-0.1,0.7l2.9-0.1z"/>
						<path d="M33.8,27.9l0.2-0.7l-2.9,0.1l2.7,0.6z"/>
					</g>
					<g>
						<linearGradient id="aigrd10" gradientUnits="userSpaceOnUse" x1="32.5283" y1="24.5972" x2="33.557" y2="23.3861">
							<stop  offset="0" style="stop-color:#9F9F9F"/>
							<stop  offset="1" style="stop-color:#828282"/>
						</linearGradient>
						<path style="&st9;" d="M34.6,24.1l-2.7-0.6l-0.1,0.7l2.9-0.1z"/>
						<path d="M34.4,24.8l0.2-0.7l-2.9,0.1l2.7,0.6z"/>
					</g>
					<g>
						<linearGradient id="aigrd11" gradientUnits="userSpaceOnUse" x1="33.0547" y1="21.4922" x2="34.0832" y2="20.2814">
							<stop  offset="0" style="stop-color:#9F9F9F"/>
							<stop  offset="1" style="stop-color:#828282"/>
						</linearGradient>
						<path style="&st10;" d="M35.1,21l-2.7-0.6l-0.1,0.7l2.9-0.1z"/>
						<path d="M34.9,21.7l0.2-0.7l-2.9,0.1l2.7,0.6z"/>
					</g>
					<g>
						<linearGradient id="aigrd12" gradientUnits="userSpaceOnUse" x1="33.5791" y1="18.3857" x2="34.607" y2="17.1757">
							<stop  offset="0" style="stop-color:#9F9F9F"/>
							<stop  offset="1" style="stop-color:#828282"/>
						</linearGradient>
						<path style="&st11;" d="M35.6,17.9l-2.7-0.6L32.8,18l2.9-0.1z"/>
						<path d="M35.4,18.6l0.2-0.7L32.8,18l2.7,0.6z"/>
					</g>
					<g>
						<linearGradient id="aigrd13" gradientUnits="userSpaceOnUse" x1="34.1055" y1="15.2808" x2="35.1331" y2="14.0709">
							<stop  offset="0" style="stop-color:#9F9F9F"/>
							<stop  offset="1" style="stop-color:#828282"/>
						</linearGradient>
						<path style="&st12;" d="M36.1,14.8l-2.7-0.6l-0.1,0.7l2.9-0.1z"/>
						<path d="M35.9,15.5l0.2-0.7l-2.9,0.1l2.7,0.6z"/>
					</g>
					<g>
						<linearGradient id="aigrd14" gradientUnits="userSpaceOnUse" x1="34.6309" y1="12.1758" x2="35.658" y2="10.9666">
							<stop  offset="0" style="stop-color:#9F9F9F"/>
							<stop  offset="1" style="stop-color:#828282"/>
						</linearGradient>
						<path style="&st13;" d="M36.7,11.7l-2.7-0.6l-0.1,0.7l2.9-0.1z"/>
						<path d="M36.5,12.4l0.2-0.7l-2.9,0.1l2.7,0.6z"/>
					</g>
				</g>
			</g>
			<g>
				<g>
					<g>
						<linearGradient id="aigrd15" gradientUnits="userSpaceOnUse" x1="35.1162" y1="12.1353" x2="35.8561" y2="11.2642">
							<stop  offset="0" style="stop-color:#9F9F9F"/>
							<stop  offset="1" style="stop-color:#828282"/>
						</linearGradient>
						<path style="&st14;" d="M34.3,11.7l2,0.4l0.1-0.5l-2.1,0.1z"/>
						<path d="M34.5,11.2l-0.1,0.5l2.1-0.1l-1.9-0.4z"/>
					</g>
					<g>
						<linearGradient id="aigrd16" gradientUnits="userSpaceOnUse" x1="34.6074" y1="15.2417" x2="35.3468" y2="14.3713">
							<stop  offset="0" style="stop-color:#9F9F9F"/>
							<stop  offset="1" style="stop-color:#828282"/>
						</linearGradient>
						<path style="&st15;" d="M33.8,14.8l2,0.4l0.1-0.5l-2.1,0.1z"/>
						<path d="M34,14.3l-0.1,0.5l2.1-0.1L34,14.3z"/>
					</g>
					<g>
						<linearGradient id="aigrd17" gradientUnits="userSpaceOnUse" x1="34.0967" y1="18.3472" x2="34.8358" y2="17.477">
							<stop  offset="0" style="stop-color:#9F9F9F"/>
							<stop  offset="1" style="stop-color:#828282"/>
						</linearGradient>
						<path style="&st16;" d="M33.3,17.9l2,0.4l0.1-0.5l-2.1,0.1z"/>
						<path d="M33.5,17.4l-0.1,0.5l2.1-0.1l-1.9-0.4z"/>
					</g>
					<g>
						<linearGradient id="aigrd18" gradientUnits="userSpaceOnUse" x1="33.5879" y1="21.4531" x2="34.326" y2="20.5842">
							<stop  offset="0" style="stop-color:#9F9F9F"/>
							<stop  offset="1" style="stop-color:#828282"/>
						</linearGradient>
						<path style="&st17;" d="M32.8,21l2,0.4l0.1-0.5L32.8,21z"/>
						<path d="M32.9,20.5L32.8,21l2.1-0.1l-1.9-0.4z"/>
					</g>
					<g>
						<linearGradient id="aigrd19" gradientUnits="userSpaceOnUse" x1="33.0771" y1="24.5581" x2="33.8151" y2="23.6894">
							<stop  offset="0" style="stop-color:#9F9F9F"/>
							<stop  offset="1" style="stop-color:#828282"/>
						</linearGradient>
						<path style="&st18;" d="M32.3,24.1l2,0.4l0.1-0.5l-2.1,0.1z"/>
						<path d="M32.4,23.6l-0.1,0.5l2.1-0.1l-1.9-0.4z"/>
					</g>
					<g>
						<linearGradient id="aigrd20" gradientUnits="userSpaceOnUse" x1="32.5674" y1="27.665" x2="33.3048" y2="26.7969">
							<stop  offset="0" style="stop-color:#9F9F9F"/>
							<stop  offset="1" style="stop-color:#828282"/>
						</linearGradient>
						<path style="&st19;" d="M31.8,27.2l2,0.4l0.1-0.5l-2.1,0.1z"/>
						<path d="M31.9,26.7l-0.1,0.5l2.1-0.1l-1.9-0.4z"/>
					</g>
				</g>
			</g>
		</g>
	</g>
	<g id="Layer_x0020_2" style="&st27;">
		<path style="&st26;" d="M48,48.2H0V0h48v48.2z"/>
	</g>
</svg>
