<?xml version="1.0" encoding="UTF-8" standalone="no"?>
<!DOCTYPE svg PUBLIC "-//W3C//DTD SVG 20010904//EN"
"http://www.w3.org/TR/2001/REC-SVG-20010904/DTD/svg10.dtd">
<!-- Created with Sodipodi ("http://www.sodipodi.com/") -->
<svg
   i:viewOrigin="246 453.7085"
   i:rulerOrigin="-242 -332"
   i:pageBounds="242 460 370 332"
   width="48pt"
   height="48pt"
   viewBox="0 0 131.5 121.702"
   overflow="visible"
   enable-background="new 0 0 131.5 121.702"
   xml:space="preserve"
   id="svg153"
   sodipodi:version="0.32pre"
   sodipodi:docname="/home/cschalle/gnome-themes-extras/Amaranth/icons/scalable/mimetypes/gnome-mime-application-x-rpm.svg"
   sodipodi:docbase="/home/cschalle/gnome-themes-extras/Amaranth/icons/scalable/mimetypes/"
   xmlns="http://www.w3.org/2000/svg"
   xmlns:sodipodi="http://sodipodi.sourceforge.net/DTD/sodipodi-0.dtd"
   xmlns:ns="http://ns.adobe.com/Variables/1.0/"
   xmlns:i="http://ns.adobe.com/AdobeIllustrator/10.0/"
   xmlns:xml="http://www.w3.org/XML/1998/namespace"
   xmlns:a="http://ns.adobe.com/AdobeSVGViewerExtensions/3.0/"
   xmlns:xlink="http://www.w3.org/1999/xlink">
  <defs
     id="defs196" />
  <sodipodi:namedview
     id="base" />
  <metadata
     id="metadata154">
    <sfw>
      <slices />
      <sliceSourceBounds
         x="246"
         y="332.007"
         width="131.5"
         height="121.702"
         bottomLeftOrigin="true" />
    </sfw>
    <ns:variableSets>
      <ns:variableSet
         varSetName="binding1"
         locked="none">
        <ns:variables />
        <ns:sampleDataSets />
      </ns:variableSet>
    </ns:variableSets>
  </metadata>
  <g
     i:knockout="On"
     id="g157"
     style="font-size:12;stroke:#000000;"
     transform="matrix(1.08534,0,0,1.09679,-0.293403,1.81079)">
    <path
       i:knockout="Off"
       fill="none"
       stroke-width="2"
       stroke-linecap="round"
       stroke-linejoin="round"
       d="M119.366,96.492     c-25.415,3.645-50.831,7.289-76.246,10.934C46.044,71.391,26.104,35.916,29.208,1c20.778,2.806,41.556,5.611,62.333,8.417     C94.646,39.001,116.442,68.026,119.366,96.492z"
       id="path158" />
    <linearGradient
       id="XMLID_1_"
       gradientUnits="userSpaceOnUse"
       x1="19.5596"
       y1="10.6494"
       x2="112.3846"
       y2="103.4744">
      <stop
         offset="0"
         style="stop-color:#FFFFFF"
         id="stop160" />
      <stop
         offset="1"
         style="stop-color:#9FA5A6"
         id="stop161" />
      <a:midPointStop
         offset="0"
         style="stop-color:#FFFFFF"
         id="midPointStop162" />
      <a:midPointStop
         offset="0.5"
         style="stop-color:#FFFFFF"
         id="midPointStop163" />
      <a:midPointStop
         offset="1"
         style="stop-color:#9FA5A6"
         id="midPointStop164" />
    </linearGradient>
    <path
       i:knockout="Off"
       fill="url(#XMLID_1_)"
       stroke="none"
       d="M119.366,96.492c-25.415,3.645-50.831,7.289-76.246,10.934     C46.044,71.391,26.104,35.916,29.208,1c20.778,2.806,41.556,5.611,62.333,8.417C94.646,39.001,116.442,68.026,119.366,96.492z"
       id="path165" />
  </g>
  <g
     i:knockout="On"
     opacity="0.3"
     id="g166"
     style="font-size:12;opacity:0.3;stroke:#000000;"
     transform="matrix(1.08534,0,0,1.09679,-0.293403,1.81079)">
    <path
       i:knockout="Off"
       fill="#FFFFFF"
       stroke="none"
       d="M30.494,27.36C29.1,18.538,28.43,9.751,29.208,1     c20.778,2.806,41.556,5.611,62.333,8.417c1.492,14.219,7.301,28.308,13.259,42.268c6.438,15.087,13.047,30.022,14.565,44.807     c-6.749-4.9-15.691-15.928-23.884-22.157c-8.275-6.831-14.826-8.498-20.826-8.604c-6.056-0.3-11.703,1.024-19.06-4.287     C48.521,56.524,38.942,44.76,30.494,27.36z"
       id="path167" />
  </g>
  <g
     id="g170"
     style="font-size:12;stroke:#000000;"
     transform="matrix(1.08534,0,0,1.09679,-0.293403,1.81079)">
    <g
       id="g171">
      <path
         i:knockout="Off"
         stroke="none"
         d="M24.041,72.973c0,0.482-0.171,0.972-0.511,1.469s-0.753,0.746-1.239,0.746       s-0.9-0.168-1.24-0.504s-0.51-0.743-0.51-1.224c0-5.182-2.678-7.772-8.031-7.772c-1.097,0-2.273,0.145-3.531,0.432v7.152       c0,0.48-0.171,0.889-0.511,1.225S7.714,75,7.228,75s-0.9-0.16-1.24-0.481c-0.34-0.32-0.51-0.722-0.51-1.204v-28.22       c0-0.898,0.482-1.461,1.448-1.686c0.321-0.064,1.174-0.097,2.559-0.097c3.732,0,6.887,0.963,9.461,2.889       c2.896,2.119,4.345,4.976,4.345,8.571c0,3.756-1.888,6.709-5.662,8.859c0.836,0.032,1.671,0.321,2.507,0.866       C22.739,66.2,24.041,69.025,24.041,72.973z M19.728,54.737c0-2.834-1.136-4.944-3.407-6.329       c-1.824-1.095-4.271-1.643-7.343-1.643l0.144,15.798c2.976,0,5.375-0.531,7.199-1.595       C18.592,59.617,19.728,57.54,19.728,54.737z"
         id="path172" />
      <path
         i:knockout="Off"
         stroke="none"
         d="M48.68,54.775c0,3.531-1.553,6.373-4.657,8.523c-2.75,1.862-5.968,2.793-9.655,2.793       v7.176c0,0.481-0.171,0.891-0.511,1.228C33.517,74.833,33.104,75,32.617,75s-0.9-0.16-1.24-0.481       c-0.34-0.32-0.51-0.722-0.51-1.204v-28.22c0-0.898,0.482-1.461,1.448-1.686c0.321-0.064,1.174-0.097,2.559-0.097       c3.732,0,6.902,0.964,9.51,2.89C47.247,48.322,48.68,51.179,48.68,54.775z M45.117,54.721c0-2.828-1.136-4.934-3.407-6.316       c-1.824-1.093-4.271-1.64-7.343-1.64l0.144,15.767c2.976,0,5.375-0.53,7.199-1.591C43.981,59.591,45.117,57.518,45.117,54.721z       "
         id="path173" />
      <path
         i:knockout="Off"
         stroke="none"
         d="M87.816,73.201c0,0.482-0.171,0.893-0.511,1.23s-0.753,0.507-1.239,0.507       s-0.9-0.168-1.24-0.506s-0.51-0.748-0.51-1.23V47.729c-2.979,0.451-5.556,1.946-7.733,4.487s-3.267,5.307-3.267,8.298       c0,0.482-0.171,0.893-0.511,1.23s-0.753,0.506-1.239,0.506s-0.9-0.16-1.24-0.482c-0.34-0.321-0.51-0.724-0.51-1.206       c0-2.99-1.098-5.765-3.291-8.321s-4.764-4.045-7.708-4.463v25.424c0,0.482-0.171,0.893-0.511,1.23s-0.753,0.506-1.239,0.506       s-0.9-0.169-1.24-0.507s-0.51-0.748-0.51-1.23V46.036c0-1.189,0.804-1.785,2.411-1.785c1.093,0,2.379,0.306,3.857,0.916       c4.468,1.799,7.763,4.723,9.885,8.771c2.121-4.049,5.465-6.988,10.03-8.82c1.479-0.578,2.764-0.867,3.857-0.867       c1.639,0,2.459,0.596,2.459,1.785V73.201z"
         id="path174" />
    </g>
  </g>
  <g
     id="g177"
     style="font-size:12;stroke:#000000;"
     transform="matrix(1.08534,0,0,1.09679,-0.293403,1.81079)">
    <linearGradient
       id="XMLID_2_"
       gradientUnits="userSpaceOnUse"
       x1="3.438"
       y1="27.5234"
       x2="86.7676"
       y2="27.5234">
      <stop
         offset="0"
         style="stop-color:#000000"
         id="stop179" />
      <stop
         offset="1"
         style="stop-color:#F6110C"
         id="stop180" />
      <a:midPointStop
         offset="0"
         style="stop-color:#000000"
         id="midPointStop181" />
      <a:midPointStop
         offset="0.5"
         style="stop-color:#000000"
         id="midPointStop182" />
      <a:midPointStop
         offset="1"
         style="stop-color:#F6110C"
         id="midPointStop183" />
    </linearGradient>
    <path
       i:knockout="Off"
       fill="url(#XMLID_2_)"
       stroke="none"
       d="M3.438,39.021c0,0,5.934-24.479,41.293-24.479      s42.036,25.963,42.036,25.963h-9.396c0,0-3.215-23.737-32.64-23.737S12.834,39.052,12.834,39.052L3.438,39.021z"
       id="path184" />
  </g>
  <g
     id="g187"
     style="font-size:12;stroke:#000000;"
     transform="matrix(1.08534,0,0,1.09679,-0.293403,1.81079)">
    <linearGradient
       id="XMLID_3_"
       gradientUnits="userSpaceOnUse"
       x1="46.1982"
       y1="36.0659"
       x2="77.5059"
       y2="36.0659">
      <stop
         offset="0"
         style="stop-color:#000000"
         id="stop189" />
      <stop
         offset="1"
         style="stop-color:#2D0300"
         id="stop190" />
      <a:midPointStop
         offset="0"
         style="stop-color:#000000"
         id="midPointStop191" />
      <a:midPointStop
         offset="0.5"
         style="stop-color:#000000"
         id="midPointStop192" />
      <a:midPointStop
         offset="1"
         style="stop-color:#2D0300"
         id="midPointStop193" />
    </linearGradient>
    <path
       i:knockout="Off"
       fill="url(#XMLID_3_)"
       stroke="none"
       d="M75.021,32.88c0,0,1.669-0.606,2.428,2.731      s-0.455,3.337-0.455,3.337l-30.795,0.303L75.021,32.88z"
       id="path194" />
  </g>
</svg>
