<?xml version="1.0" encoding="UTF-8" standalone="no"?>
<!DOCTYPE svg PUBLIC "-//W3C//DTD SVG 20010904//EN"
"http://www.w3.org/TR/2001/REC-SVG-20010904/DTD/svg10.dtd">
<!-- Created with Sodipodi ("http://www.sodipodi.com/") -->
<svg
   i:viewOrigin="239 462"
   i:rulerOrigin="-242 -332"
   i:pageBounds="242 460 370 332"
   width="48pt"
   height="48pt"
   viewBox="0 0 134 135"
   overflow="visible"
   enable-background="new 0 0 134 135"
   xml:space="preserve"
   id="svg153"
   sodipodi:version="0.32pre"
   sodipodi:docname="/home/cschalle/gnome-themes-extras/Amaranth/icons/scalable/mimetypes/gnome-mime-video.svg"
   sodipodi:docbase="/home/cschalle/gnome-themes-extras/Amaranth/icons/scalable/mimetypes/"
   xmlns="http://www.w3.org/2000/svg"
   xmlns:sodipodi="http://sodipodi.sourceforge.net/DTD/sodipodi-0.dtd"
   xmlns:ns="http://ns.adobe.com/Variables/1.0/"
   xmlns:i="http://ns.adobe.com/AdobeIllustrator/10.0/"
   xmlns:xml="http://www.w3.org/XML/1998/namespace"
   xmlns:a="http://ns.adobe.com/AdobeSVGViewerExtensions/3.0/"
   xmlns:xlink="http://www.w3.org/1999/xlink">
  <defs
     id="defs216" />
  <sodipodi:namedview
     id="base" />
  <metadata
     id="metadata154">
    <ns:variableSets>
      <ns:variableSet
         varSetName="binding1"
         locked="none">
        <ns:variables />
        <ns:sampleDataSets />
      </ns:variableSet>
    </ns:variableSets>
    <sfw>
      <slices />
      <optimizationSettings>
        <targetSettings
           fileFormat="PNG24Format"
           targetSettingsID="0">
          <PNG24Format
             transparency="true"
             includeCaption="false"
             interlaced="false"
             noMatteColor="false"
             matteColor="#FFFFFF"
             filtered="false" />
        </targetSettings>
      </optimizationSettings>
      <sliceSourceBounds
         x="239"
         y="327"
         width="134"
         height="135"
         bottomLeftOrigin="true" />
    </sfw>
  </metadata>
  <g
     id="g281"
     transform="matrix(1.24042,0,0,1.18291,-12.7938,4.99243)">
    <g
       i:knockout="On"
       id="g157"
       style="font-size:12;stroke:#000000;">
      <path
         i:knockout="Off"
         fill="none"
         stroke-width="2"
         stroke-linecap="round"
         stroke-linejoin="round"
         d="M116.118,96.492     c-25.415,3.645-50.831,7.289-76.246,10.934C42.796,71.391,22.855,35.916,25.96,1c20.778,2.806,41.556,5.611,62.333,8.417     C91.398,39.001,113.194,68.026,116.118,96.492z"
         id="path158" />
      <linearGradient
         id="XMLID_1_"
         gradientUnits="userSpaceOnUse"
         x1="16.311"
         y1="10.6494"
         x2="109.1361"
         y2="103.4744">
        <stop
           offset="0"
           style="stop-color:#FFFFFF"
           id="stop160" />
        <stop
           offset="1"
           style="stop-color:#9FA5A6"
           id="stop161" />
        <a:midPointStop
           offset="0"
           style="stop-color:#FFFFFF"
           id="midPointStop162" />
        <a:midPointStop
           offset="0.5"
           style="stop-color:#FFFFFF"
           id="midPointStop163" />
        <a:midPointStop
           offset="1"
           style="stop-color:#9FA5A6"
           id="midPointStop164" />
      </linearGradient>
      <path
         i:knockout="Off"
         fill="url(#XMLID_1_)"
         stroke="none"
         d="M116.118,96.492c-25.415,3.645-50.831,7.289-76.246,10.934     C42.796,71.391,22.855,35.916,25.96,1c20.778,2.806,41.556,5.611,62.333,8.417C91.398,39.001,113.194,68.026,116.118,96.492z"
         id="path165" />
    </g>
    <g
       i:knockout="On"
       opacity="0.3"
       id="g166"
       style="font-size:12;opacity:0.3;stroke:#000000;">
      <path
         i:knockout="Off"
         fill="#FFFFFF"
         stroke="none"
         d="M27.246,27.36C25.852,18.538,25.182,9.751,25.96,1     c20.778,2.806,41.556,5.611,62.333,8.417c1.492,14.219,7.301,28.308,13.259,42.268c6.438,15.087,13.047,30.022,14.565,44.807     c-6.749-4.9-15.691-15.928-23.884-22.157c-8.275-6.831-14.826-8.498-20.826-8.604c-6.056-0.3-11.703,1.024-19.06-4.287     C45.272,56.524,35.694,44.76,27.246,27.36z"
         id="path167" />
    </g>
  </g>
  <g
     id="g170"
     style="font-size:12;stroke:#000000;"
     transform="matrix(1.05744,0,0,1.02764,-0.431371,-0.170664)">
    <path
       i:knockout="Off"
       opacity="0.3"
       fill="#FAAA5F"
       stroke="none"
       d="M112.993,27.882l-83.101,83.101L9.385,90.478      L92.488,7.374L112.993,27.882z"
       id="path171" />
  </g>
  <g
     id="g174"
     style="font-size:12;stroke:#000000;"
     transform="matrix(1.05744,0,0,1.02764,-0.431371,-0.170664)">
    <path
       i:knockout="Off"
       stroke="none"
       d="M7.51,92.268L92.362,7.415"
       id="path175" />
    <path
       i:knockout="Off"
       fill="none"
       stroke-width="10"
       d="M7.51,92.268L92.362,7.415"
       id="path176" />
  </g>
  <g
     id="g179"
     style="font-size:12;stroke:#000000;"
     transform="matrix(1.05744,0,0,1.02764,-0.431371,-0.170664)">
    <linearGradient
       id="XMLID_2_"
       gradientUnits="userSpaceOnUse"
       x1="28.0161"
       y1="70.3467"
       x2="112.8691"
       y2="70.3467">
      <stop
         offset="0.0056"
         style="stop-color:#FFFFFF"
         id="stop181" />
      <stop
         offset="0.9831"
         style="stop-color:#1C1C1C"
         id="stop182" />
      <a:midPointStop
         offset="0.0056"
         style="stop-color:#FFFFFF"
         id="midPointStop183" />
      <a:midPointStop
         offset="0.5"
         style="stop-color:#FFFFFF"
         id="midPointStop184" />
      <a:midPointStop
         offset="0.9831"
         style="stop-color:#1C1C1C"
         id="midPointStop185" />
    </linearGradient>
    <path
       i:knockout="Off"
       fill="url(#XMLID_2_)"
       stroke="none"
       d="M28.016,112.773l84.853-84.853"
       id="path186" />
    <path
       i:knockout="Off"
       fill="none"
       stroke-width="10"
       d="M28.016,112.773l84.853-84.853"
       id="path187" />
  </g>
  <g
     id="g190"
     style="font-size:12;stroke:#000000;"
     transform="matrix(1.05744,0,0,1.02764,-0.431371,-0.170664)">
    <path
       i:knockout="Off"
       opacity="0"
       stroke="none"
       d="M53.369,87.506l-23.853,23.854L9.01,90.854l23.853-23.854L53.369,87.506z"
       id="path191" />
    <path
       i:knockout="Off"
       fill="none"
       stroke-width="4"
       d="M53.369,87.506l-23.853,23.854L9.01,90.854l23.853-23.854L53.369,87.506      z"
       id="path192" />
  </g>
  <g
     id="g195"
     style="font-size:12;stroke:#000000;"
     transform="matrix(1.05744,0,0,1.02764,-0.431371,-0.170664)">
    <path
       i:knockout="Off"
       opacity="0"
       stroke="none"
       d="M79.369,61.506L55.516,85.359L35.01,64.854l23.853-23.854L79.369,61.506z"
       id="path196" />
    <path
       i:knockout="Off"
       fill="none"
       stroke-width="4"
       d="M79.369,61.506L55.516,85.359L35.01,64.854l23.853-23.854L79.369,61.506      z"
       id="path197" />
  </g>
  <g
     id="g200"
     style="font-size:12;stroke:#000000;"
     transform="matrix(1.05744,0,0,1.02764,-0.431371,-0.170664)">
    <path
       i:knockout="Off"
       opacity="0"
       stroke="none"
       d="M105.369,35.506L81.516,59.359L61.01,38.854l23.854-23.854L105.369,35.506z      "
       id="path201" />
    <path
       i:knockout="Off"
       fill="none"
       stroke-width="4"
       d="M105.369,35.506L81.516,59.359L61.01,38.854l23.854-23.854      L105.369,35.506z"
       id="path202" />
  </g>
  <g
     id="g205"
     style="font-size:12;stroke:#000000;"
     transform="matrix(1.05744,0,0,1.02764,-0.431371,-0.170664)">
    <path
       i:knockout="Off"
       opacity="0"
       stroke="none"
       d="M107.516,33.359L87.01,12.854"
       id="path206" />
    <path
       i:knockout="Off"
       fill="none"
       stroke-width="4"
       d="M107.516,33.359L87.01,12.854"
       id="path207" />
  </g>
  <path
     i:knockout="Off"
     fill="#FFFFFF"
     stroke="#FFFFFF"
     stroke-width="3"
     stroke-linecap="round"
     stroke-dasharray="15"
     d="    M11.338,87.61L91.948,7"
     id="path208"
     style="font-size:12;fill:#ffffff;stroke:#ffffff;stroke-width:3;stroke-linecap:round;stroke-dasharray:15 ;"
     transform="matrix(1.05744,0,0,1.02764,-0.431371,-0.170664)" />
  <path
     i:knockout="Off"
     fill="#FFFFFF"
     stroke="#FFFFFF"
     stroke-width="3"
     stroke-linecap="round"
     stroke-dasharray="15"
     d="    M32.673,108.945l82.731-82.732"
     id="path209"
     style="font-size:12;fill:#ffffff;stroke:#ffffff;stroke-width:3;stroke-linecap:round;stroke-dasharray:15 ;"
     transform="matrix(1.05744,0,0,1.02764,-0.431371,-0.170664)" />
</svg>
