<?xml version="1.0" encoding="UTF-8" standalone="no"?>
<!DOCTYPE svg PUBLIC "-//W3C//DTD SVG 20010904//EN"
"http://www.w3.org/TR/2001/REC-SVG-20010904/DTD/svg10.dtd">
<!-- Created with Sodipodi ("http://www.sodipodi.com/") -->
<svg
   i:viewOrigin="242.7588 453.7085"
   i:rulerOrigin="-242 -332"
   i:pageBounds="242 460 370 332"
   width="48pt"
   height="48pt"
   viewBox="0 0 134.741 121.702"
   overflow="visible"
   enable-background="new 0 0 134.741 121.702"
   xml:space="preserve"
   id="svg153"
   sodipodi:version="0.32pre"
   sodipodi:docname="/home/cschalle/gnome-themes-extras/Amaranth/icons/scalable/mimetypes/gnome-mime-text-x-c++.svg"
   sodipodi:docbase="/home/cschalle/gnome-themes-extras/Amaranth/icons/scalable/mimetypes"
   xmlns="http://www.w3.org/2000/svg"
   xmlns:sodipodi="http://sodipodi.sourceforge.net/DTD/sodipodi-0.dtd"
   xmlns:ns="http://ns.adobe.com/Variables/1.0/"
   xmlns:i="http://ns.adobe.com/AdobeIllustrator/10.0/"
   xmlns:xml="http://www.w3.org/XML/1998/namespace"
   xmlns:a="http://ns.adobe.com/AdobeSVGViewerExtensions/3.0/"
   xmlns:xlink="http://www.w3.org/1999/xlink">
  <defs
     id="defs257" />
  <sodipodi:namedview
     id="base" />
  <metadata
     id="metadata154">
    <sfw>
      <slices />
      <sliceSourceBounds
         x="242.759"
         y="332.007"
         width="134.741"
         height="121.702"
         bottomLeftOrigin="true" />
    </sfw>
    <ns:variableSets>
      <ns:variableSet
         varSetName="binding1"
         locked="none">
        <ns:variables />
        <ns:sampleDataSets />
      </ns:variableSet>
    </ns:variableSets>
  </metadata>
  <g
     id="g256"
     transform="matrix(1.05882,0,0,1.04572,-0.0288813,4.00923)">
    <g
       i:knockout="On"
       id="g157"
       style="font-size:12;stroke:#000000;">
      <path
         i:knockout="Off"
         fill="none"
         stroke-width="2"
         stroke-linecap="round"
         stroke-linejoin="round"
         d="M122.607,96.492     c-25.415,3.645-50.831,7.289-76.246,10.934C49.286,71.391,29.345,35.916,32.45,1c20.778,2.806,41.556,5.611,62.333,8.417     C97.888,39.001,119.684,68.026,122.607,96.492z"
         id="path158" />
      <linearGradient
         id="XMLID_1_"
         gradientUnits="userSpaceOnUse"
         x1="22.8008"
         y1="10.6494"
         x2="115.6258"
         y2="103.4744">
        <stop
           offset="0"
           style="stop-color:#FFFFFF"
           id="stop160" />
        <stop
           offset="1"
           style="stop-color:#9FA5A6"
           id="stop161" />
        <a:midPointStop
           offset="0"
           style="stop-color:#FFFFFF"
           id="midPointStop162" />
        <a:midPointStop
           offset="0.5"
           style="stop-color:#FFFFFF"
           id="midPointStop163" />
        <a:midPointStop
           offset="1"
           style="stop-color:#9FA5A6"
           id="midPointStop164" />
      </linearGradient>
      <path
         i:knockout="Off"
         fill="url(#XMLID_1_)"
         stroke="none"
         d="M122.607,96.492c-25.415,3.645-50.831,7.289-76.246,10.934     C49.286,71.391,29.345,35.916,32.45,1c20.778,2.806,41.556,5.611,62.333,8.417C97.888,39.001,119.684,68.026,122.607,96.492z"
         id="path165" />
    </g>
    <g
       id="g166"
       style="font-size:12;stroke:#000000;">
      <g
         id="g167">
        <g
           i:knockout="Off"
           id="g168">
          <linearGradient
             id="XMLID_2_"
             gradientUnits="userSpaceOnUse"
             x1="69.4707"
             y1="58.2842"
             x2="80.223"
             y2="69.0365">
            <stop
               offset="0"
               style="stop-color:#FFFFFF"
               id="stop170" />
            <stop
               offset="1"
               style="stop-color:#000000"
               id="stop171" />
            <a:midPointStop
               offset="0"
               style="stop-color:#FFFFFF"
               id="midPointStop172" />
            <a:midPointStop
               offset="0.5"
               style="stop-color:#FFFFFF"
               id="midPointStop173" />
            <a:midPointStop
               offset="1"
               style="stop-color:#000000"
               id="midPointStop174" />
          </linearGradient>
          <path
             i:knockout="Off"
             opacity="0.5"
             fill="url(#XMLID_2_)"
             stroke="none"
             d="M81.177,63.442       c-1.261-3.729-5.074-6.777-8.521-6.742C69.2,56.734,67.42,60,68.687,63.929c1.267,3.93,5.04,6.882,8.482,6.649       C80.614,70.343,82.436,67.172,81.177,63.442z"
             id="path175" />
          <path
             i:knockout="Off"
             opacity="0.5"
             fill="none"
             d="M81.177,63.442c-1.261-3.729-5.074-6.777-8.521-6.742       C69.2,56.734,67.42,60,68.687,63.929c1.267,3.93,5.04,6.882,8.482,6.649C80.614,70.343,82.436,67.172,81.177,63.442z"
             id="path176" />
        </g>
        <g
           i:knockout="Off"
           id="g177">
          <linearGradient
             id="XMLID_3_"
             gradientUnits="userSpaceOnUse"
             x1="62.7173"
             y1="35.4844"
             x2="73.6471"
             y2="46.4141">
            <stop
               offset="0"
               style="stop-color:#FFFFFF"
               id="stop179" />
            <stop
               offset="1"
               style="stop-color:#000000"
               id="stop180" />
            <a:midPointStop
               offset="0"
               style="stop-color:#FFFFFF"
               id="midPointStop181" />
            <a:midPointStop
               offset="0.5"
               style="stop-color:#FFFFFF"
               id="midPointStop182" />
            <a:midPointStop
               offset="1"
               style="stop-color:#000000"
               id="midPointStop183" />
          </linearGradient>
          <path
             i:knockout="Off"
             opacity="0.5"
             fill="url(#XMLID_3_)"
             stroke="none"
             d="M74.406,41.21       c-0.966-3.909-4.313-7.306-7.757-7.539c-3.442-0.236-5.691,2.943-4.733,7.052c0.951,4.109,4.695,7.42,8.142,7.456       C73.514,48.213,75.364,45.12,74.406,41.21z"
             id="path184" />
          <path
             i:knockout="Off"
             opacity="0.5"
             fill="none"
             d="M74.406,41.21c-0.966-3.909-4.313-7.306-7.757-7.539       c-3.442-0.236-5.691,2.943-4.733,7.052c0.951,4.109,4.695,7.42,8.142,7.456C73.514,48.213,75.364,45.12,74.406,41.21z"
             id="path185" />
        </g>
        <g
           i:knockout="Off"
           id="g186">
          <linearGradient
             id="XMLID_4_"
             gradientUnits="userSpaceOnUse"
             x1="89.6318"
             y1="57.6836"
             x2="100.0257"
             y2="68.0775">
            <stop
               offset="0"
               style="stop-color:#FFFFFF"
               id="stop188" />
            <stop
               offset="1"
               style="stop-color:#000000"
               id="stop189" />
            <a:midPointStop
               offset="0"
               style="stop-color:#FFFFFF"
               id="midPointStop190" />
            <a:midPointStop
               offset="0.5"
               style="stop-color:#FFFFFF"
               id="midPointStop191" />
            <a:midPointStop
               offset="1"
               style="stop-color:#000000"
               id="midPointStop192" />
          </linearGradient>
          <path
             i:knockout="Off"
             opacity="0.5"
             fill="url(#XMLID_4_)"
             stroke="none"
             d="M101.161,62.664       c-1.249-3.461-5.06-6.292-8.509-6.256c-3.454,0.034-5.238,3.083-3.981,6.742c1.257,3.661,5.017,6.396,8.457,6.162       C100.574,69.077,102.41,66.125,101.161,62.664z"
             id="path193" />
          <path
             i:knockout="Off"
             opacity="0.5"
             fill="none"
             d="M101.161,62.664c-1.249-3.461-5.06-6.292-8.509-6.256       c-3.454,0.034-5.238,3.083-3.981,6.742c1.257,3.661,5.017,6.396,8.457,6.162C100.574,69.077,102.41,66.125,101.161,62.664z"
             id="path194" />
        </g>
        <g
           i:knockout="Off"
           id="g195">
          <linearGradient
             id="XMLID_5_"
             gradientUnits="userSpaceOnUse"
             x1="42.5703"
             y1="34.54"
             x2="53.8308"
             y2="45.8006">
            <stop
               offset="0"
               style="stop-color:#FFFFFF"
               id="stop197" />
            <stop
               offset="1"
               style="stop-color:#000000"
               id="stop198" />
            <a:midPointStop
               offset="0"
               style="stop-color:#FFFFFF"
               id="midPointStop199" />
            <a:midPointStop
               offset="0.5"
               style="stop-color:#FFFFFF"
               id="midPointStop200" />
            <a:midPointStop
               offset="1"
               style="stop-color:#000000"
               id="midPointStop201" />
          </linearGradient>
          <path
             i:knockout="Off"
             opacity="0.5"
             fill="url(#XMLID_5_)"
             stroke="none"
             d="M54.421,40.432       c-0.955-4.178-4.287-7.792-7.731-8.026c-3.442-0.235-5.706,3.162-4.759,7.539c0.941,4.378,4.683,7.908,8.128,7.942       C53.516,47.921,55.369,44.609,54.421,40.432z"
             id="path202" />
          <path
             i:knockout="Off"
             opacity="0.5"
             fill="none"
             d="M54.421,40.432c-0.955-4.178-4.287-7.792-7.731-8.026       c-3.442-0.235-5.706,3.162-4.759,7.539c0.941,4.378,4.683,7.908,8.128,7.942C53.516,47.921,55.369,44.609,54.421,40.432z"
             id="path203" />
        </g>
        <g
           i:knockout="Off"
           id="g204">
          <linearGradient
             id="XMLID_6_"
             gradientUnits="userSpaceOnUse"
             x1="60.4707"
             y1="12.5366"
             x2="70.4296"
             y2="22.4955">
            <stop
               offset="0"
               style="stop-color:#FFFFFF"
               id="stop206" />
            <stop
               offset="1"
               style="stop-color:#000000"
               id="stop207" />
            <a:midPointStop
               offset="0"
               style="stop-color:#FFFFFF"
               id="midPointStop208" />
            <a:midPointStop
               offset="0.5"
               style="stop-color:#FFFFFF"
               id="midPointStop209" />
            <a:midPointStop
               offset="1"
               style="stop-color:#000000"
               id="midPointStop210" />
          </linearGradient>
          <path
             i:knockout="Off"
             opacity="0.5"
             fill="url(#XMLID_6_)"
             stroke="none"
             d="M71.532,18.223       c0.072-3.958-2.195-7.529-5.615-8.03c-3.41-0.503-6.704,2.416-6.799,6.571c-0.109,4.154,2.982,7.784,6.412,8.086       C68.977,25.155,71.445,22.178,71.532,18.223z"
             id="path211" />
          <path
             i:knockout="Off"
             opacity="0.5"
             fill="none"
             d="M71.532,18.223c0.072-3.958-2.195-7.529-5.615-8.03       c-3.41-0.503-6.704,2.416-6.799,6.571c-0.109,4.154,2.982,7.784,6.412,8.086C68.977,25.155,71.445,22.178,71.532,18.223z"
             id="path212" />
        </g>
        <g
           i:knockout="Off"
           id="g213">
          <linearGradient
             id="XMLID_7_"
             gradientUnits="userSpaceOnUse"
             x1="40.459"
             y1="10.0518"
             x2="50.7203"
             y2="20.3131">
            <stop
               offset="0"
               style="stop-color:#FFFFFF"
               id="stop215" />
            <stop
               offset="1"
               style="stop-color:#000000"
               id="stop216" />
            <a:midPointStop
               offset="0"
               style="stop-color:#FFFFFF"
               id="midPointStop217" />
            <a:midPointStop
               offset="0.5"
               style="stop-color:#FFFFFF"
               id="midPointStop218" />
            <a:midPointStop
               offset="1"
               style="stop-color:#000000"
               id="midPointStop219" />
          </linearGradient>
          <path
             i:knockout="Off"
             opacity="0.5"
             fill="url(#XMLID_7_)"
             stroke="none"
             d="M51.669,15.889       c0.103-4.226-2.133-8.013-5.552-8.514c-3.41-0.503-6.735,2.632-6.862,7.055c-0.141,4.421,2.932,8.27,6.361,8.571       C49.062,23.306,51.552,20.111,51.669,15.889z"
             id="path220" />
          <path
             i:knockout="Off"
             opacity="0.5"
             fill="none"
             d="M51.669,15.889c0.103-4.226-2.133-8.013-5.552-8.514       c-3.41-0.503-6.735,2.632-6.862,7.055c-0.141,4.421,2.932,8.27,6.361,8.571C49.062,23.306,51.552,20.111,51.669,15.889z"
             id="path221" />
        </g>
        <g
           i:knockout="Off"
           id="g222">
          <linearGradient
             id="XMLID_8_"
             gradientUnits="userSpaceOnUse"
             x1="76.2607"
             y1="80.6831"
             x2="85.9821"
             y2="90.4044">
            <stop
               offset="0"
               style="stop-color:#FFFFFF"
               id="stop224" />
            <stop
               offset="1"
               style="stop-color:#000000"
               id="stop225" />
            <a:midPointStop
               offset="0"
               style="stop-color:#FFFFFF"
               id="midPointStop226" />
            <a:midPointStop
               offset="0.5"
               style="stop-color:#FFFFFF"
               id="midPointStop227" />
            <a:midPointStop
               offset="1"
               style="stop-color:#000000"
               id="midPointStop228" />
          </linearGradient>
          <path
             i:knockout="Off"
             opacity="0.5"
             fill="url(#XMLID_8_)"
             stroke="none"
             d="M87.517,84.816       c-0.812-3.647-4.469-6.359-7.9-6.057c-3.443,0.305-5.348,3.669-4.515,7.516c0.841,3.846,4.032,6.584,7.448,6.083       C85.962,91.855,88.334,88.463,87.517,84.816z"
             id="path229" />
          <path
             i:knockout="Off"
             opacity="0.5"
             fill="none"
             d="M87.517,84.816c-0.812-3.647-4.469-6.359-7.9-6.057       c-3.443,0.305-5.348,3.669-4.515,7.516c0.841,3.846,4.032,6.584,7.448,6.083C85.962,91.855,88.334,88.463,87.517,84.816z"
             id="path230" />
        </g>
        <g
           i:knockout="Off"
           id="g231">
          <linearGradient
             id="XMLID_9_"
             gradientUnits="userSpaceOnUse"
             x1="56.2095"
             y1="82.8247"
             x2="66.3134"
             y2="92.9286">
            <stop
               offset="0"
               style="stop-color:#FFFFFF"
               id="stop233" />
            <stop
               offset="1"
               style="stop-color:#000000"
               id="stop234" />
            <a:midPointStop
               offset="0"
               style="stop-color:#FFFFFF"
               id="midPointStop235" />
            <a:midPointStop
               offset="0.5"
               style="stop-color:#FFFFFF"
               id="midPointStop236" />
            <a:midPointStop
               offset="1"
               style="stop-color:#000000"
               id="midPointStop237" />
          </linearGradient>
          <path
             i:knockout="Off"
             opacity="0.5"
             fill="url(#XMLID_9_)"
             stroke="none"
             d="M67.653,87.15       c-0.843-3.915-4.519-6.844-7.951-6.542c-3.444,0.305-5.33,3.887-4.465,8.001c0.873,4.113,4.095,7.067,7.511,6.566       C66.162,94.672,68.502,91.065,67.653,87.15z"
             id="path238" />
          <path
             i:knockout="Off"
             opacity="0.5"
             fill="none"
             d="M67.653,87.15c-0.843-3.915-4.519-6.844-7.951-6.542       c-3.444,0.305-5.33,3.887-4.465,8.001c0.873,4.113,4.095,7.067,7.511,6.566C66.162,94.672,68.502,91.065,67.653,87.15z"
             id="path239" />
        </g>
        <g
           i:knockout="Off"
           id="g240">
          <linearGradient
             id="XMLID_10_"
             gradientUnits="userSpaceOnUse"
             x1="96.3135"
             y1="78.5405"
             x2="105.6516"
             y2="87.8786">
            <stop
               offset="0"
               style="stop-color:#FFFFFF"
               id="stop242" />
            <stop
               offset="1"
               style="stop-color:#000000"
               id="stop243" />
            <a:midPointStop
               offset="0"
               style="stop-color:#FFFFFF"
               id="midPointStop244" />
            <a:midPointStop
               offset="0.5"
               style="stop-color:#FFFFFF"
               id="midPointStop245" />
            <a:midPointStop
               offset="1"
               style="stop-color:#000000"
               id="midPointStop246" />
          </linearGradient>
          <path
             i:knockout="Off"
             opacity="0.5"
             fill="url(#XMLID_10_)"
             stroke="none"
             d="M107.38,82.482       c-0.779-3.38-4.417-5.874-7.849-5.571c-3.443,0.304-5.369,3.451-4.566,7.03c0.811,3.578,3.969,6.1,7.385,5.599       C105.763,89.037,108.166,85.862,107.38,82.482z"
             id="path247" />
          <path
             i:knockout="Off"
             opacity="0.5"
             fill="none"
             d="M107.38,82.482c-0.779-3.38-4.417-5.874-7.849-5.571       c-3.443,0.304-5.369,3.451-4.566,7.03c0.811,3.578,3.969,6.1,7.385,5.599C105.763,89.037,108.166,85.862,107.38,82.482z"
             id="path248" />
        </g>
      </g>
    </g>
    <g
       i:knockout="On"
       opacity="0.3"
       id="g249"
       style="font-size:12;opacity:0.3;stroke:#000000;">
      <path
         i:knockout="Off"
         fill="#FFFFFF"
         stroke="none"
         d="M33.735,27.36C32.341,18.538,31.671,9.751,32.45,1     c20.778,2.806,41.556,5.611,62.333,8.417c1.492,14.219,7.301,28.308,13.259,42.268c6.438,15.087,13.047,30.022,14.565,44.807     c-6.749-4.9-15.691-15.928-23.884-22.157c-8.275-6.831-14.826-8.498-20.826-8.604c-6.056-0.3-11.703,1.024-19.06-4.287     C51.762,56.524,42.184,44.76,33.735,27.36z"
         id="path250" />
    </g>
    <g
       i:knockout="Off"
       id="g251"
       style="font-size:12;stroke:#000000;">
      <path
         i:knockout="Off"
         stroke="#56774C"
         d="M6.491,77.361c0,0.818-0.287,1.539-0.861,2.162c-0.574,0.625-1.287,0.936-2.139,0.936     c-0.809,0-1.512-0.268-2.107-0.807c-0.596-0.537-0.893-1.215-0.893-2.031s0.297-1.549,0.893-2.193s1.299-0.969,2.107-0.969     s1.51,0.281,2.105,0.84S6.491,76.544,6.491,77.361z"
         id="path252" />
      <path
         i:knockout="Off"
         stroke="#56774C"
         d="M28.738,43.812c-4.305,0-8.1,1.631-11.381,4.893s-4.922,7.068-4.922,11.416     c0,4.307,1.641,8.09,4.924,11.352s7.078,4.891,11.385,4.891c0.553,0,1.363,0,2.43,0s1.875,0,2.43,0     c0.639,0,1.182,0.227,1.631,0.68c0.447,0.453,0.672,1.002,0.672,1.648c0,0.648-0.215,1.197-0.641,1.65     c-0.426,0.451-0.938,0.678-1.535,0.678s-1.43,0.021-2.496,0.064c-1.109,0-1.941,0-2.496,0c-5.59,0-10.477-2.09-14.656-6.273     C9.9,70.626,7.811,65.74,7.811,60.146c0-5.592,2.09-10.479,6.271-14.662c4.18-4.184,9.066-6.275,14.656-6.275V43.812z      M28.738,43.787h4.928c0.641,0,1.184-0.223,1.633-0.668c0.447-0.445,0.672-0.984,0.672-1.621c0-0.635-0.225-1.176-0.672-1.621     c-0.449-0.445-0.992-0.668-1.633-0.668h-4.928V43.787z"
         id="path253" />
      <path
         i:knockout="Off"
         stroke="#56774C"
         d="M72.713,64.427c0,4.529-1.605,8.396-4.816,11.6     c-3.211,3.205-7.064,4.807-11.561,4.807c-4.41,0-8.283-1.768-11.623-5.303V90.91c0,0.637-0.244,1.201-0.729,1.691     c-0.486,0.486-1.045,0.732-1.678,0.732c-0.635,0-1.184-0.213-1.648-0.639s-0.695-0.959-0.695-1.598V64.38     c0-4.473,1.602-8.309,4.807-11.504c3.203-3.195,7.07-4.793,11.6-4.793c4.486,0,8.332,1.604,11.537,4.807     C71.109,56.095,72.713,59.941,72.713,64.427z M67.963,64.427c0-3.219-1.133-5.977-3.395-8.273     c-2.264-2.297-4.996-3.445-8.199-3.445c-3.246,0-6,1.148-8.262,3.445c-2.264,2.297-3.395,5.055-3.395,8.273     c0,3.221,1.131,5.969,3.395,8.244c2.262,2.275,5.016,3.412,8.262,3.412c3.203,0,5.936-1.137,8.199-3.412     C66.83,70.396,67.963,67.648,67.963,64.427z"
         id="path254" />
      <path
         i:knockout="Off"
         stroke="#56774C"
         d="M108.04,64.427c0,4.529-1.605,8.396-4.816,11.6     c-3.211,3.205-7.064,4.807-11.561,4.807c-4.41,0-8.283-1.768-11.623-5.303V90.91c0,0.637-0.244,1.201-0.729,1.691     c-0.486,0.486-1.045,0.732-1.678,0.732c-0.635,0-1.184-0.213-1.648-0.639s-0.695-0.959-0.695-1.598V64.38     c0-4.473,1.602-8.309,4.807-11.504c3.203-3.195,7.07-4.793,11.6-4.793c4.486,0,8.332,1.604,11.537,4.807     C106.437,56.095,108.04,59.941,108.04,64.427z M103.29,64.427c0-3.219-1.133-5.977-3.395-8.273     c-2.264-2.297-4.996-3.445-8.199-3.445c-3.246,0-6,1.148-8.262,3.445c-2.264,2.297-3.395,5.055-3.395,8.273     c0,3.221,1.131,5.969,3.395,8.244c2.262,2.275,5.016,3.412,8.262,3.412c3.203,0,5.936-1.137,8.199-3.412     C102.157,70.396,103.29,67.648,103.29,64.427z"
         id="path255" />
    </g>
  </g>
</svg>
