<?xml version="1.0" encoding="UTF-8" standalone="no"?>
<!DOCTYPE svg PUBLIC "-//W3C//DTD SVG 20010904//EN"
"http://www.w3.org/TR/2001/REC-SVG-20010904/DTD/svg10.dtd">
<!-- Created with Sodipodi ("http://www.sodipodi.com/") -->
<svg
   i:viewOrigin="249.2485 453.7085"
   i:rulerOrigin="-242 -332"
   i:pageBounds="242 460 370 332"
   width="48pt"
   height="48pt"
   viewBox="0 0 128.251 121.702"
   overflow="visible"
   enable-background="new 0 0 128.251 121.702"
   xml:space="preserve"
   id="svg153"
   sodipodi:version="0.32pre"
   sodipodi:docname="/home/cschalle/gnome-themes-extras/Amaranth/icons/scalable/mimetypes/gnome-mime-text-x-install.svg"
   sodipodi:docbase="/home/cschalle/gnome-themes-extras/Amaranth/icons/scalable/mimetypes"
   xmlns="http://www.w3.org/2000/svg"
   xmlns:sodipodi="http://sodipodi.sourceforge.net/DTD/sodipodi-0.dtd"
   xmlns:ns="http://ns.adobe.com/Variables/1.0/"
   xmlns:i="http://ns.adobe.com/AdobeIllustrator/10.0/"
   xmlns:xml="http://www.w3.org/XML/1998/namespace"
   xmlns:a="http://ns.adobe.com/AdobeSVGViewerExtensions/3.0/"
   xmlns:xlink="http://www.w3.org/1999/xlink">
  <defs
     id="defs255" />
  <sodipodi:namedview
     id="base" />
  <metadata
     id="metadata154">
    <sfw>
      <slices />
      <sliceSourceBounds
         x="249.249"
         y="332.007"
         width="128.251"
         height="121.702"
         bottomLeftOrigin="true" />
    </sfw>
    <ns:variableSets>
      <ns:variableSet
         varSetName="binding1"
         locked="none">
        <ns:variables />
        <ns:sampleDataSets />
      </ns:variableSet>
    </ns:variableSets>
  </metadata>
  <g
     i:knockout="On"
     id="g157"
     style="font-size:12;stroke:#000000;"
     transform="matrix(1.08159,0,0,1.08603,-1.08119,2.20303)">
    <path
       i:knockout="Off"
       fill="none"
       stroke-width="2"
       stroke-linecap="round"
       stroke-linejoin="round"
       d="M116.118,96.492     c-25.415,3.645-50.831,7.289-76.246,10.934C42.796,71.391,22.855,35.916,25.96,1c20.778,2.806,41.556,5.611,62.333,8.417     C91.398,39.001,113.194,68.026,116.118,96.492z"
       id="path158" />
    <linearGradient
       id="XMLID_1_"
       gradientUnits="userSpaceOnUse"
       x1="16.311"
       y1="10.6494"
       x2="109.1361"
       y2="103.4744">
      <stop
         offset="0"
         style="stop-color:#FFFFFF"
         id="stop160" />
      <stop
         offset="1"
         style="stop-color:#9FA5A6"
         id="stop161" />
      <a:midPointStop
         offset="0"
         style="stop-color:#FFFFFF"
         id="midPointStop162" />
      <a:midPointStop
         offset="0.5"
         style="stop-color:#FFFFFF"
         id="midPointStop163" />
      <a:midPointStop
         offset="1"
         style="stop-color:#9FA5A6"
         id="midPointStop164" />
    </linearGradient>
    <path
       i:knockout="Off"
       fill="url(#XMLID_1_)"
       stroke="none"
       d="M116.118,96.492c-25.415,3.645-50.831,7.289-76.246,10.934     C42.796,71.391,22.855,35.916,25.96,1c20.778,2.806,41.556,5.611,62.333,8.417C91.398,39.001,113.194,68.026,116.118,96.492z"
       id="path165" />
  </g>
  <g
     id="g166"
     style="font-size:12;stroke:#000000;"
     transform="matrix(1.08159,0,0,1.08603,-1.08119,2.20303)">
    <g
       id="g167">
      <g
         i:knockout="Off"
         id="g168">
        <linearGradient
           id="XMLID_2_"
           gradientUnits="userSpaceOnUse"
           x1="62.981"
           y1="58.2842"
           x2="73.7333"
           y2="69.0365">
          <stop
             offset="0"
             style="stop-color:#FFFFFF"
             id="stop170" />
          <stop
             offset="1"
             style="stop-color:#000000"
             id="stop171" />
          <a:midPointStop
             offset="0"
             style="stop-color:#FFFFFF"
             id="midPointStop172" />
          <a:midPointStop
             offset="0.5"
             style="stop-color:#FFFFFF"
             id="midPointStop173" />
          <a:midPointStop
             offset="1"
             style="stop-color:#000000"
             id="midPointStop174" />
        </linearGradient>
        <path
           i:knockout="Off"
           opacity="0.5"
           fill="url(#XMLID_2_)"
           stroke="none"
           d="M74.687,63.442       c-1.261-3.729-5.074-6.777-8.521-6.742C62.71,56.734,60.93,60,62.197,63.929c1.267,3.93,5.04,6.882,8.482,6.649       C74.125,70.343,75.946,67.172,74.687,63.442z"
           id="path175" />
        <path
           i:knockout="Off"
           opacity="0.5"
           fill="none"
           d="M74.687,63.442c-1.261-3.729-5.074-6.777-8.521-6.742       C62.71,56.734,60.93,60,62.197,63.929c1.267,3.93,5.04,6.882,8.482,6.649C74.125,70.343,75.946,67.172,74.687,63.442z"
           id="path176" />
      </g>
      <g
         i:knockout="Off"
         id="g177">
        <linearGradient
           id="XMLID_3_"
           gradientUnits="userSpaceOnUse"
           x1="56.2275"
           y1="35.4844"
           x2="67.1573"
           y2="46.4141">
          <stop
             offset="0"
             style="stop-color:#FFFFFF"
             id="stop179" />
          <stop
             offset="1"
             style="stop-color:#000000"
             id="stop180" />
          <a:midPointStop
             offset="0"
             style="stop-color:#FFFFFF"
             id="midPointStop181" />
          <a:midPointStop
             offset="0.5"
             style="stop-color:#FFFFFF"
             id="midPointStop182" />
          <a:midPointStop
             offset="1"
             style="stop-color:#000000"
             id="midPointStop183" />
        </linearGradient>
        <path
           i:knockout="Off"
           opacity="0.5"
           fill="url(#XMLID_3_)"
           stroke="none"
           d="M67.917,41.21       c-0.966-3.909-4.313-7.306-7.757-7.539c-3.442-0.236-5.691,2.943-4.733,7.052c0.951,4.109,4.695,7.42,8.142,7.456       C67.024,48.213,68.875,45.12,67.917,41.21z"
           id="path184" />
        <path
           i:knockout="Off"
           opacity="0.5"
           fill="none"
           d="M67.917,41.21c-0.966-3.909-4.313-7.306-7.757-7.539       c-3.442-0.236-5.691,2.943-4.733,7.052c0.951,4.109,4.695,7.42,8.142,7.456C67.024,48.213,68.875,45.12,67.917,41.21z"
           id="path185" />
      </g>
      <g
         i:knockout="Off"
         id="g186">
        <linearGradient
           id="XMLID_4_"
           gradientUnits="userSpaceOnUse"
           x1="83.1421"
           y1="57.6836"
           x2="93.536"
           y2="68.0775">
          <stop
             offset="0"
             style="stop-color:#FFFFFF"
             id="stop188" />
          <stop
             offset="1"
             style="stop-color:#000000"
             id="stop189" />
          <a:midPointStop
             offset="0"
             style="stop-color:#FFFFFF"
             id="midPointStop190" />
          <a:midPointStop
             offset="0.5"
             style="stop-color:#FFFFFF"
             id="midPointStop191" />
          <a:midPointStop
             offset="1"
             style="stop-color:#000000"
             id="midPointStop192" />
        </linearGradient>
        <path
           i:knockout="Off"
           opacity="0.5"
           fill="url(#XMLID_4_)"
           stroke="none"
           d="M94.671,62.664       c-1.249-3.461-5.06-6.292-8.509-6.256c-3.454,0.034-5.238,3.083-3.981,6.742c1.257,3.661,5.017,6.396,8.457,6.162       C94.084,69.077,95.92,66.125,94.671,62.664z"
           id="path193" />
        <path
           i:knockout="Off"
           opacity="0.5"
           fill="none"
           d="M94.671,62.664c-1.249-3.461-5.06-6.292-8.509-6.256       c-3.454,0.034-5.238,3.083-3.981,6.742c1.257,3.661,5.017,6.396,8.457,6.162C94.084,69.077,95.92,66.125,94.671,62.664z"
           id="path194" />
      </g>
      <g
         i:knockout="Off"
         id="g195">
        <linearGradient
           id="XMLID_5_"
           gradientUnits="userSpaceOnUse"
           x1="36.0806"
           y1="34.54"
           x2="47.3411"
           y2="45.8006">
          <stop
             offset="0"
             style="stop-color:#FFFFFF"
             id="stop197" />
          <stop
             offset="1"
             style="stop-color:#000000"
             id="stop198" />
          <a:midPointStop
             offset="0"
             style="stop-color:#FFFFFF"
             id="midPointStop199" />
          <a:midPointStop
             offset="0.5"
             style="stop-color:#FFFFFF"
             id="midPointStop200" />
          <a:midPointStop
             offset="1"
             style="stop-color:#000000"
             id="midPointStop201" />
        </linearGradient>
        <path
           i:knockout="Off"
           opacity="0.5"
           fill="url(#XMLID_5_)"
           stroke="none"
           d="M47.931,40.432       c-0.955-4.178-4.287-7.792-7.731-8.026c-3.442-0.235-5.706,3.162-4.759,7.539c0.941,4.378,4.683,7.908,8.128,7.942       C47.026,47.921,48.879,44.609,47.931,40.432z"
           id="path202" />
        <path
           i:knockout="Off"
           opacity="0.5"
           fill="none"
           d="M47.931,40.432c-0.955-4.178-4.287-7.792-7.731-8.026       c-3.442-0.235-5.706,3.162-4.759,7.539c0.941,4.378,4.683,7.908,8.128,7.942C47.026,47.921,48.879,44.609,47.931,40.432z"
           id="path203" />
      </g>
      <g
         i:knockout="Off"
         id="g204">
        <linearGradient
           id="XMLID_6_"
           gradientUnits="userSpaceOnUse"
           x1="53.981"
           y1="12.5366"
           x2="63.9398"
           y2="22.4955">
          <stop
             offset="0"
             style="stop-color:#FFFFFF"
             id="stop206" />
          <stop
             offset="1"
             style="stop-color:#000000"
             id="stop207" />
          <a:midPointStop
             offset="0"
             style="stop-color:#FFFFFF"
             id="midPointStop208" />
          <a:midPointStop
             offset="0.5"
             style="stop-color:#FFFFFF"
             id="midPointStop209" />
          <a:midPointStop
             offset="1"
             style="stop-color:#000000"
             id="midPointStop210" />
        </linearGradient>
        <path
           i:knockout="Off"
           opacity="0.5"
           fill="url(#XMLID_6_)"
           stroke="none"
           d="M65.042,18.223       c0.072-3.958-2.195-7.529-5.615-8.03c-3.41-0.503-6.704,2.416-6.799,6.571c-0.109,4.154,2.982,7.784,6.412,8.086       C62.487,25.155,64.956,22.178,65.042,18.223z"
           id="path211" />
        <path
           i:knockout="Off"
           opacity="0.5"
           fill="none"
           d="M65.042,18.223c0.072-3.958-2.195-7.529-5.615-8.03       c-3.41-0.503-6.704,2.416-6.799,6.571c-0.109,4.154,2.982,7.784,6.412,8.086C62.487,25.155,64.956,22.178,65.042,18.223z"
           id="path212" />
      </g>
      <g
         i:knockout="Off"
         id="g213">
        <linearGradient
           id="XMLID_7_"
           gradientUnits="userSpaceOnUse"
           x1="33.9692"
           y1="10.0518"
           x2="44.2306"
           y2="20.3131">
          <stop
             offset="0"
             style="stop-color:#FFFFFF"
             id="stop215" />
          <stop
             offset="1"
             style="stop-color:#000000"
             id="stop216" />
          <a:midPointStop
             offset="0"
             style="stop-color:#FFFFFF"
             id="midPointStop217" />
          <a:midPointStop
             offset="0.5"
             style="stop-color:#FFFFFF"
             id="midPointStop218" />
          <a:midPointStop
             offset="1"
             style="stop-color:#000000"
             id="midPointStop219" />
        </linearGradient>
        <path
           i:knockout="Off"
           opacity="0.5"
           fill="url(#XMLID_7_)"
           stroke="none"
           d="M45.179,15.889       c0.103-4.226-2.133-8.013-5.552-8.514c-3.41-0.503-6.735,2.632-6.862,7.055c-0.141,4.421,2.932,8.27,6.361,8.571       C42.572,23.306,45.062,20.111,45.179,15.889z"
           id="path220" />
        <path
           i:knockout="Off"
           opacity="0.5"
           fill="none"
           d="M45.179,15.889c0.103-4.226-2.133-8.013-5.552-8.514       c-3.41-0.503-6.735,2.632-6.862,7.055c-0.141,4.421,2.932,8.27,6.361,8.571C42.572,23.306,45.062,20.111,45.179,15.889z"
           id="path221" />
      </g>
      <g
         i:knockout="Off"
         id="g222">
        <linearGradient
           id="XMLID_8_"
           gradientUnits="userSpaceOnUse"
           x1="69.771"
           y1="80.6831"
           x2="79.4923"
           y2="90.4044">
          <stop
             offset="0"
             style="stop-color:#FFFFFF"
             id="stop224" />
          <stop
             offset="1"
             style="stop-color:#000000"
             id="stop225" />
          <a:midPointStop
             offset="0"
             style="stop-color:#FFFFFF"
             id="midPointStop226" />
          <a:midPointStop
             offset="0.5"
             style="stop-color:#FFFFFF"
             id="midPointStop227" />
          <a:midPointStop
             offset="1"
             style="stop-color:#000000"
             id="midPointStop228" />
        </linearGradient>
        <path
           i:knockout="Off"
           opacity="0.5"
           fill="url(#XMLID_8_)"
           stroke="none"
           d="M81.027,84.816       c-0.812-3.647-4.469-6.359-7.9-6.057c-3.443,0.305-5.348,3.669-4.515,7.516c0.841,3.846,4.032,6.584,7.448,6.083       C79.472,91.855,81.844,88.463,81.027,84.816z"
           id="path229" />
        <path
           i:knockout="Off"
           opacity="0.5"
           fill="none"
           d="M81.027,84.816c-0.812-3.647-4.469-6.359-7.9-6.057       c-3.443,0.305-5.348,3.669-4.515,7.516c0.841,3.846,4.032,6.584,7.448,6.083C79.472,91.855,81.844,88.463,81.027,84.816z"
           id="path230" />
      </g>
      <g
         i:knockout="Off"
         id="g231">
        <linearGradient
           id="XMLID_9_"
           gradientUnits="userSpaceOnUse"
           x1="49.7197"
           y1="82.8247"
           x2="59.8236"
           y2="92.9286">
          <stop
             offset="0"
             style="stop-color:#FFFFFF"
             id="stop233" />
          <stop
             offset="1"
             style="stop-color:#000000"
             id="stop234" />
          <a:midPointStop
             offset="0"
             style="stop-color:#FFFFFF"
             id="midPointStop235" />
          <a:midPointStop
             offset="0.5"
             style="stop-color:#FFFFFF"
             id="midPointStop236" />
          <a:midPointStop
             offset="1"
             style="stop-color:#000000"
             id="midPointStop237" />
        </linearGradient>
        <path
           i:knockout="Off"
           opacity="0.5"
           fill="url(#XMLID_9_)"
           stroke="none"
           d="M61.164,87.15       c-0.843-3.915-4.519-6.844-7.951-6.542c-3.444,0.305-5.33,3.887-4.465,8.001c0.873,4.113,4.095,7.067,7.511,6.566       C59.672,94.672,62.012,91.065,61.164,87.15z"
           id="path238" />
        <path
           i:knockout="Off"
           opacity="0.5"
           fill="none"
           d="M61.164,87.15c-0.843-3.915-4.519-6.844-7.951-6.542       c-3.444,0.305-5.33,3.887-4.465,8.001c0.873,4.113,4.095,7.067,7.511,6.566C59.672,94.672,62.012,91.065,61.164,87.15z"
           id="path239" />
      </g>
      <g
         i:knockout="Off"
         id="g240">
        <linearGradient
           id="XMLID_10_"
           gradientUnits="userSpaceOnUse"
           x1="89.8237"
           y1="78.5405"
           x2="99.1618"
           y2="87.8786">
          <stop
             offset="0"
             style="stop-color:#FFFFFF"
             id="stop242" />
          <stop
             offset="1"
             style="stop-color:#000000"
             id="stop243" />
          <a:midPointStop
             offset="0"
             style="stop-color:#FFFFFF"
             id="midPointStop244" />
          <a:midPointStop
             offset="0.5"
             style="stop-color:#FFFFFF"
             id="midPointStop245" />
          <a:midPointStop
             offset="1"
             style="stop-color:#000000"
             id="midPointStop246" />
        </linearGradient>
        <path
           i:knockout="Off"
           opacity="0.5"
           fill="url(#XMLID_10_)"
           stroke="none"
           d="M100.89,82.482       c-0.779-3.38-4.417-5.874-7.849-5.571c-3.443,0.304-5.369,3.451-4.566,7.03c0.811,3.578,3.969,6.1,7.385,5.599       C99.273,89.037,101.676,85.862,100.89,82.482z"
           id="path247" />
        <path
           i:knockout="Off"
           opacity="0.5"
           fill="none"
           d="M100.89,82.482c-0.779-3.38-4.417-5.874-7.849-5.571       c-3.443,0.304-5.369,3.451-4.566,7.03c0.811,3.578,3.969,6.1,7.385,5.599C99.273,89.037,101.676,85.862,100.89,82.482z"
           id="path248" />
      </g>
    </g>
  </g>
  <g
     i:knockout="On"
     opacity="0.3"
     id="g249"
     style="font-size:12;opacity:0.3;stroke:#000000;"
     transform="matrix(1.08159,0,0,1.08603,-1.08119,2.20303)">
    <path
       i:knockout="Off"
       fill="#FFFFFF"
       stroke="none"
       d="M27.246,27.36C25.852,18.538,25.182,9.751,25.96,1     c20.778,2.806,41.556,5.611,62.333,8.417c1.492,14.219,7.301,28.308,13.259,42.268c6.438,15.087,13.047,30.022,14.565,44.807     c-6.749-4.9-15.691-15.928-23.884-22.157c-8.275-6.831-14.826-8.498-20.826-8.604c-6.056-0.3-11.703,1.024-19.06-4.287     C45.272,56.524,35.694,44.76,27.246,27.36z"
       id="path250" />
  </g>
  <g
     i:knockout="Off"
     id="g251"
     style="font-size:12;stroke:#000000;"
     transform="matrix(1.08159,0,0,1.08603,-1.08119,2.20303)">
    <path
       i:knockout="Off"
       stroke="#56774C"
       d="M19.251,76.861c0,0.818-0.287,1.539-0.861,2.162     c-0.574,0.625-1.287,0.936-2.139,0.936c-0.809,0-1.512-0.268-2.107-0.807c-0.596-0.537-0.893-1.215-0.893-2.031     s0.297-1.549,0.893-2.193s1.299-0.969,2.107-0.969s1.51,0.281,2.105,0.84S19.251,76.044,19.251,76.861z"
       id="path252" />
    <path
       i:knockout="Off"
       stroke="#56774C"
       d="M26.946,77.974c0,0.639-0.254,1.17-0.76,1.596c-0.508,0.426-1.078,0.639-1.711,0.639     s-1.172-0.246-1.615-0.734s-0.664-1.053-0.664-1.691v-40.59c0-0.596,0.23-1.117,0.695-1.564c0.465-0.445,1.014-0.67,1.648-0.67     c0.633,0,1.191,0.246,1.678,0.734c0.484,0.49,0.729,1.055,0.729,1.691V77.974z"
       id="path253" />
  </g>
</svg>
