<?xml version="1.0" encoding="UTF-8" standalone="no"?>
<!DOCTYPE svg PUBLIC "-//W3C//DTD SVG 20010904//EN"
"http://www.w3.org/TR/2001/REC-SVG-20010904/DTD/svg10.dtd">
<!-- Created with Sodipodi ("http://www.sodipodi.com/") -->
<svg
   i:viewOrigin="239.2485 457.498"
   i:rulerOrigin="-242 -332"
   i:pageBounds="242 460 370 332"
   width="48pt"
   height="48pt"
   viewBox="0 0 128.251 125.491"
   overflow="visible"
   enable-background="new 0 0 128.251 125.491"
   xml:space="preserve"
   id="svg153"
   sodipodi:version="0.32pre"
   sodipodi:docname="/home/cschalle/gnome-themes-extras/Amaranth/icons/scalable/mimetypes/gnome-mime-text.svg"
   sodipodi:docbase="/home/cschalle/gnome-themes-extras/Amaranth/icons/scalable/mimetypes/"
   xmlns="http://www.w3.org/2000/svg"
   xmlns:sodipodi="http://sodipodi.sourceforge.net/DTD/sodipodi-0.dtd"
   xmlns:ns="http://ns.adobe.com/Variables/1.0/"
   xmlns:i="http://ns.adobe.com/AdobeIllustrator/10.0/"
   xmlns:xml="http://www.w3.org/XML/1998/namespace"
   xmlns:a="http://ns.adobe.com/AdobeSVGViewerExtensions/3.0/"
   xmlns:xlink="http://www.w3.org/1999/xlink">
  <defs
     id="defs244" />
  <sodipodi:namedview
     id="base" />
  <metadata
     id="metadata154">
    <sfw>
      <slices />
      <sliceSourceBounds
         x="239.249"
         y="332.007"
         width="132.751"
         height="128.993"
         bottomLeftOrigin="true" />
    </sfw>
    <ns:variableSets>
      <ns:variableSet
         varSetName="binding1"
         locked="none">
        <ns:variables />
        <ns:sampleDataSets />
      </ns:variableSet>
    </ns:variableSets>
  </metadata>
  <g
     i:knockout="On"
     id="g157"
     style="font-size:12;stroke:#000000;"
     transform="matrix(1.029,0,0,1.09592,-0.743255,2.31381)">
    <path
       i:knockout="Off"
       fill="none"
       stroke-width="2"
       stroke-linecap="round"
       stroke-linejoin="round"
       d="M116.118,100.281     c-25.415,3.645-50.831,7.289-76.246,10.934C42.796,75.181,22.855,39.705,25.96,4.79c20.778,2.806,41.556,5.611,62.333,8.417     C91.398,42.791,113.194,71.815,116.118,100.281z"
       id="path158" />
    <linearGradient
       id="XMLID_1_"
       gradientUnits="userSpaceOnUse"
       x1="16.311"
       y1="14.439"
       x2="109.1361"
       y2="107.264">
      <stop
         offset="0"
         style="stop-color:#FFFFFF"
         id="stop160" />
      <stop
         offset="1"
         style="stop-color:#9FA5A6"
         id="stop161" />
      <a:midPointStop
         offset="0"
         style="stop-color:#FFFFFF"
         id="midPointStop162" />
      <a:midPointStop
         offset="0.5"
         style="stop-color:#FFFFFF"
         id="midPointStop163" />
      <a:midPointStop
         offset="1"
         style="stop-color:#9FA5A6"
         id="midPointStop164" />
    </linearGradient>
    <path
       i:knockout="Off"
       fill="url(#XMLID_1_)"
       stroke="none"
       d="M116.118,100.281c-25.415,3.645-50.831,7.289-76.246,10.934     C42.796,75.181,22.855,39.705,25.96,4.79c20.778,2.806,41.556,5.611,62.333,8.417C91.398,42.791,113.194,71.815,116.118,100.281z     "
       id="path165" />
  </g>
  <g
     i:knockout="On"
     opacity="0.3"
     id="g166"
     style="font-size:12;opacity:0.3;stroke:#000000;"
     transform="matrix(1.029,0,0,1.09592,-0.743255,2.31381)">
    <path
       i:knockout="Off"
       fill="#FFFFFF"
       stroke="none"
       d="M27.246,31.149c-1.394-8.822-2.064-17.608-1.286-26.36     c20.778,2.806,41.556,5.611,62.333,8.417c1.492,14.219,7.301,28.308,13.259,42.268c6.438,15.087,13.047,30.022,14.565,44.807     c-6.749-4.9-15.691-15.928-23.884-22.157c-8.275-6.831-14.826-8.498-20.826-8.604c-6.056-0.3-11.703,1.024-19.06-4.287     C45.272,60.314,35.694,48.549,27.246,31.149z"
       id="path167" />
  </g>
  <g
     id="g170"
     style="font-size:12;stroke:#000000;"
     transform="matrix(1.029,0,0,1.09592,-0.743255,2.31381)">
    <g
       id="g171">
      <path
         i:knockout="Off"
         fill="none"
         stroke-linecap="round"
         stroke-linejoin="round"
         d="M31.496,10.875       c12.89,2.076,27.758,3.921,43.728,5.499"
         id="path172" />
      <path
         i:knockout="Off"
         fill="none"
         stroke-linecap="round"
         stroke-linejoin="round"
         d="M32.85,17.305       c15.748,1.757,32.466,3.251,49.639,4.443"
         id="path173" />
      <path
         i:knockout="Off"
         fill="none"
         stroke-linecap="round"
         stroke-linejoin="round"
         d="M54.721,26.176       c11.189,0.755,22.444,1.368,33.753,1.826"
         id="path174" />
      <path
         i:knockout="Off"
         fill="none"
         stroke-linecap="round"
         stroke-linejoin="round"
         d="M38.413,24.971       c3.579,0.287,7.168,0.56,10.767,0.819"
         id="path175" />
    </g>
    <g
       id="g176">
      <path
         i:knockout="Off"
         fill="none"
         stroke="#828282"
         stroke-linecap="round"
         stroke-linejoin="round"
         d="M31.496,10.875       c12.89,2.076,27.758,3.921,43.728,5.499"
         id="path177" />
      <path
         i:knockout="Off"
         fill="none"
         stroke="#828282"
         stroke-linecap="round"
         stroke-linejoin="round"
         d="M32.85,17.305       c15.748,1.757,32.466,3.251,49.639,4.443"
         id="path178" />
      <path
         i:knockout="Off"
         fill="none"
         stroke="#828282"
         stroke-linecap="round"
         stroke-linejoin="round"
         d="M54.721,26.176       c11.189,0.755,22.444,1.368,33.753,1.826"
         id="path179" />
      <path
         i:knockout="Off"
         fill="none"
         stroke="#828282"
         stroke-linecap="round"
         stroke-linejoin="round"
         d="M38.413,24.971       c3.579,0.287,7.168,0.56,10.767,0.819"
         id="path180" />
    </g>
    <g
       i:knockout="Off"
       id="g181">
      <path
         i:knockout="Off"
         fill="#D1D1D1"
         stroke="none"
         d="M31.496,10.875c12.89,2.076,27.758,3.921,43.728,5.499"
         id="path182" />
      <path
         i:knockout="Off"
         fill="#D1D1D1"
         stroke="none"
         d="M32.85,17.305c15.748,1.757,32.466,3.251,49.639,4.443"
         id="path183" />
      <path
         i:knockout="Off"
         fill="#D1D1D1"
         stroke="none"
         d="M54.721,26.176c11.189,0.755,22.444,1.368,33.753,1.826"
         id="path184" />
      <path
         i:knockout="Off"
         fill="#D1D1D1"
         stroke="none"
         d="M38.413,24.971c3.579,0.287,7.168,0.56,10.767,0.819"
         id="path185" />
    </g>
  </g>
  <g
     id="g188"
     style="font-size:12;stroke:#000000;"
     transform="matrix(1.029,0,0,1.09592,-0.743255,2.31381)">
    <g
       id="g189">
      <linearGradient
         id="XMLID_2_"
         gradientUnits="userSpaceOnUse"
         x1="96.0054"
         y1="76.7822"
         x2="103.2554"
         y2="76.7822"
         gradientTransform="matrix(0.7071 -0.7071 0.7071 0.7071 -5.7103 20.4769)">
        <stop
           offset="0"
           style="stop-color:#F4A279"
           id="stop191" />
        <stop
           offset="1"
           style="stop-color:#FAACD5"
           id="stop192" />
        <a:midPointStop
           offset="0"
           style="stop-color:#F4A279"
           id="midPointStop193" />
        <a:midPointStop
           offset="0.5"
           style="stop-color:#F4A279"
           id="midPointStop194" />
        <a:midPointStop
           offset="1"
           style="stop-color:#FAACD5"
           id="midPointStop195" />
      </linearGradient>
      <path
         i:knockout="Off"
         fill="url(#XMLID_2_)"
         d="M119.474,9.889l3.005-3.005c0,0,0.883-3.359-1.062-5.304       c-1.943-1.944-4.949-0.707-4.949-0.707l-3.005,3.005"
         id="path196" />
      <linearGradient
         id="XMLID_3_"
         gradientUnits="userSpaceOnUse"
         x1="19.0049"
         y1="81.0322"
         x2="19.0049"
         y2="72.5322"
         gradientTransform="matrix(0.7071 -0.7071 0.7071 0.7071 -5.7103 20.4769)">
        <stop
           offset="0"
           style="stop-color:#F7EB8F"
           id="stop198" />
        <stop
           offset="0.2978"
           style="stop-color:#C29B2F"
           id="stop199" />
        <stop
           offset="0.5506"
           style="stop-color:#FBDD40"
           id="stop200" />
        <stop
           offset="1"
           style="stop-color:#FF8A00"
           id="stop201" />
        <a:midPointStop
           offset="0"
           style="stop-color:#F7EB8F"
           id="midPointStop202" />
        <a:midPointStop
           offset="0.5"
           style="stop-color:#F7EB8F"
           id="midPointStop203" />
        <a:midPointStop
           offset="0.2978"
           style="stop-color:#C29B2F"
           id="midPointStop204" />
        <a:midPointStop
           offset="0.5"
           style="stop-color:#C29B2F"
           id="midPointStop205" />
        <a:midPointStop
           offset="0.5506"
           style="stop-color:#FBDD40"
           id="midPointStop206" />
        <a:midPointStop
           offset="0.5"
           style="stop-color:#FBDD40"
           id="midPointStop207" />
        <a:midPointStop
           offset="1"
           style="stop-color:#FF8A00"
           id="midPointStop208" />
      </linearGradient>
      <path
         i:knockout="Off"
         fill="url(#XMLID_3_)"
         d="M61.844,55.498l-6.01,9.545c0,0,1.237-0.178,1.709,0.295       c0.471,0.471,0.413,1.826,0.413,1.826l9.899-5.656c0,0,1.414-2.829-1.061-5.303C64.32,53.729,61.844,55.498,61.844,55.498z"
         id="path209" />
      <path
         i:knockout="Off"
         fill="#515151"
         d="M55.834,65.043l-2.593,5.068l4.714-2.947c0,0,0.235-1.297-0.413-1.826       C56.895,64.807,55.834,65.043,55.834,65.043z"
         id="path210" />
      <linearGradient
         id="XMLID_4_"
         gradientUnits="userSpaceOnUse"
         x1="61.1299"
         y1="81.0322"
         x2="61.1299"
         y2="72.5322"
         gradientTransform="matrix(0.7071 -0.7071 0.7071 0.7071 -5.7103 20.4769)">
        <stop
           offset="0"
           style="stop-color:#F7EB8F"
           id="stop212" />
        <stop
           offset="0.138"
           style="stop-color:#F7EA8D"
           id="stop213" />
        <stop
           offset="0.1877"
           style="stop-color:#F6E585"
           id="stop214" />
        <stop
           offset="0.223"
           style="stop-color:#F7DE78"
           id="stop215" />
        <stop
           offset="0.2472"
           style="stop-color:#F8D569"
           id="stop216" />
        <stop
           offset="0.2652"
           style="stop-color:#F8CE5F"
           id="stop217" />
        <stop
           offset="0.2988"
           style="stop-color:#F9C752"
           id="stop218" />
        <stop
           offset="0.3461"
           style="stop-color:#F9C24B"
           id="stop219" />
        <stop
           offset="0.4775"
           style="stop-color:#FAC149"
           id="stop220" />
        <stop
           offset="0.5976"
           style="stop-color:#FAC048"
           id="stop221" />
        <stop
           offset="0.6408"
           style="stop-color:#FABB42"
           id="stop222" />
        <stop
           offset="0.6715"
           style="stop-color:#FBB336"
           id="stop223" />
        <stop
           offset="0.6963"
           style="stop-color:#FCA927"
           id="stop224" />
        <stop
           offset="0.6966"
           style="stop-color:#FCA927"
           id="stop225" />
        <stop
           offset="0.7091"
           style="stop-color:#FCA320"
           id="stop226" />
        <stop
           offset="0.742"
           style="stop-color:#FE9812"
           id="stop227" />
        <stop
           offset="0.783"
           style="stop-color:#FF900B"
           id="stop228" />
        <stop
           offset="0.8405"
           style="stop-color:#FF8B03"
           id="stop229" />
        <stop
           offset="1"
           style="stop-color:#FF8A00"
           id="stop230" />
        <a:midPointStop
           offset="0"
           style="stop-color:#F7EB8F"
           id="midPointStop231" />
        <a:midPointStop
           offset="0.87"
           style="stop-color:#F7EB8F"
           id="midPointStop232" />
        <a:midPointStop
           offset="0.2472"
           style="stop-color:#F8D569"
           id="midPointStop233" />
        <a:midPointStop
           offset="0.13"
           style="stop-color:#F8D569"
           id="midPointStop234" />
        <a:midPointStop
           offset="0.4775"
           style="stop-color:#FAC149"
           id="midPointStop235" />
        <a:midPointStop
           offset="0.87"
           style="stop-color:#FAC149"
           id="midPointStop236" />
        <a:midPointStop
           offset="0.6966"
           style="stop-color:#FCA927"
           id="midPointStop237" />
        <a:midPointStop
           offset="0.13"
           style="stop-color:#FCA927"
           id="midPointStop238" />
        <a:midPointStop
           offset="1"
           style="stop-color:#FF8A00"
           id="midPointStop239" />
      </linearGradient>
      <path
         i:knockout="Off"
         fill="url(#XMLID_4_)"
         d="M118.589,4.409c-1.944-1.944-4.949-0.707-4.949-0.707L61.844,55.498       c0,0,2.829-1.415,4.95,0.707c2.121,2.121,1.061,5.303,1.061,5.303L119.65,9.712C119.65,9.712,120.534,6.353,118.589,4.409z"
         id="path240" />
      <path
         i:knockout="Off"
         fill="none"
         d="M68.032,58.149l51.384-51.383"
         id="path241" />
      <path
         i:knockout="Off"
         fill="none"
         d="M66.617,55.321l51.266-51.266"
         id="path242" />
    </g>
  </g>
</svg>
