<?xml version="1.0" encoding="UTF-8" standalone="no"?>
<!DOCTYPE svg PUBLIC "-//W3C//DTD SVG 20010904//EN"
"http://www.w3.org/TR/2001/REC-SVG-20010904/DTD/svg10.dtd">
<!-- Created with Sodipodi ("http://www.sodipodi.com/") -->
<svg
   i:viewOrigin="249.2485 453.7085"
   i:rulerOrigin="-242 -332"
   i:pageBounds="242 460 370 332"
   width="48pt"
   height="48pt"
   viewBox="0 0 128.251 121.702"
   overflow="visible"
   enable-background="new 0 0 128.251 121.702"
   xml:space="preserve"
   id="svg153"
   sodipodi:version="0.32pre"
   sodipodi:docname="/home/cschalle/gnome-themes-extras/Amaranth/icons/scalable/mimetypes/gnome-mime-application-pgp.svg"
   sodipodi:docbase="/home/cschalle/gnome-themes-extras/Amaranth/icons/scalable/mimetypes/"
   xmlns="http://www.w3.org/2000/svg"
   xmlns:sodipodi="http://sodipodi.sourceforge.net/DTD/sodipodi-0.dtd"
   xmlns:ns="http://ns.adobe.com/Variables/1.0/"
   xmlns:i="http://ns.adobe.com/AdobeIllustrator/10.0/"
   xmlns:xml="http://www.w3.org/XML/1998/namespace"
   xmlns:a="http://ns.adobe.com/AdobeSVGViewerExtensions/3.0/"
   xmlns:xlink="http://www.w3.org/1999/xlink">
  <defs
     id="defs169" />
  <sodipodi:namedview
     id="base" />
  <metadata
     id="metadata154">
    <sfw>
      <slices />
      <sliceSourceBounds
         x="249.249"
         y="332.007"
         width="128.251"
         height="121.702"
         bottomLeftOrigin="true" />
    </sfw>
    <ns:variableSets>
      <ns:variableSet
         varSetName="binding1"
         locked="none">
        <ns:variables />
        <ns:sampleDataSets />
      </ns:variableSet>
    </ns:variableSets>
  </metadata>
  <g
     id="g246"
     transform="matrix(1.09775,0,0,1.08604,-2.50532,1.82153)">
    <g
       i:knockout="On"
       id="g157"
       style="font-size:12;stroke:#000000;">
      <path
         i:knockout="Off"
         fill="none"
         stroke-width="2"
         stroke-linecap="round"
         stroke-linejoin="round"
         d="M116.118,96.492     c-25.415,3.645-50.831,7.289-76.246,10.934C42.796,71.391,22.855,35.916,25.96,1c20.778,2.806,41.556,5.611,62.333,8.417     C91.398,39.001,113.194,68.026,116.118,96.492z"
         id="path158" />
      <linearGradient
         id="XMLID_1_"
         gradientUnits="userSpaceOnUse"
         x1="16.311"
         y1="10.6494"
         x2="109.1361"
         y2="103.4744">
        <stop
           offset="0"
           style="stop-color:#FFFFFF"
           id="stop160" />
        <stop
           offset="1"
           style="stop-color:#9FA5A6"
           id="stop161" />
        <a:midPointStop
           offset="0"
           style="stop-color:#FFFFFF"
           id="midPointStop162" />
        <a:midPointStop
           offset="0.5"
           style="stop-color:#FFFFFF"
           id="midPointStop163" />
        <a:midPointStop
           offset="1"
           style="stop-color:#9FA5A6"
           id="midPointStop164" />
      </linearGradient>
      <path
         i:knockout="Off"
         fill="url(#XMLID_1_)"
         stroke="none"
         d="M116.118,96.492c-25.415,3.645-50.831,7.289-76.246,10.934     C42.796,71.391,22.855,35.916,25.96,1c20.778,2.806,41.556,5.611,62.333,8.417C91.398,39.001,113.194,68.026,116.118,96.492z"
         id="path165" />
    </g>
    <g
       i:knockout="On"
       opacity="0.3"
       id="g166"
       style="font-size:12;opacity:0.3;stroke:#000000;">
      <path
         i:knockout="Off"
         fill="#FFFFFF"
         stroke="none"
         d="M27.246,27.36C25.852,18.538,25.182,9.751,25.96,1     c20.778,2.806,41.556,5.611,62.333,8.417c1.492,14.219,7.301,28.308,13.259,42.268c6.438,15.087,13.047,30.022,14.565,44.807     c-6.749-4.9-15.691-15.928-23.884-22.157c-8.275-6.831-14.826-8.498-20.826-8.604c-6.056-0.3-11.703,1.024-19.06-4.287     C45.272,56.524,35.694,44.76,27.246,27.36z"
         id="path167" />
    </g>
    <g
       id="g196"
       transform="translate(44.2553,19.8386)">
      <g
         i:knockout="Off"
         id="g156"
         style="font-size:12;stroke:#000000;">
        <linearGradient
           id="linearGradient223"
           gradientUnits="userSpaceOnUse"
           x1="14.1826"
           y1="34.2314"
           x2="37.8157"
           y2="10.5984">
          <stop
             offset="0.0056"
             style="stop-color:#C7C7C7"
             id="stop158" />
          <stop
             offset="0.4944"
             style="stop-color:#FFFFFF"
             id="stop159" />
          <stop
             offset="1"
             style="stop-color:#B5B5B5"
             id="stop226" />
          <a:midPointStop
             offset="0.0056"
             style="stop-color:#C7C7C7"
             id="midPointStop161" />
          <a:midPointStop
             offset="0.5"
             style="stop-color:#C7C7C7"
             id="midPointStop228" />
          <a:midPointStop
             offset="0.4944"
             style="stop-color:#FFFFFF"
             id="midPointStop229" />
          <a:midPointStop
             offset="0.5"
             style="stop-color:#FFFFFF"
             id="midPointStop230" />
          <a:midPointStop
             offset="1"
             style="stop-color:#B5B5B5"
             id="midPointStop165" />
        </linearGradient>
        <path
           i:knockout="Off"
           fill="url(#XMLID_1_)"
           stroke="none"
           d="M37.675,31.921c-0.634,0-1.153-0.52-1.154-1.153     c0,0-0.004-10.732-0.012-10.907c-0.275-5.566-4.876-9.994-10.51-9.994c-5.57,0-10.13,4.327-10.5,9.804     c-0.016,0.237-0.022,11.098-0.022,11.098c0,0.634-0.52,1.153-1.154,1.153h-2.45c-0.634,0-1.153-0.52-1.153-1.153     c0,0,0.002-10.669,0.006-10.813c0.23-8.237,6.98-14.845,15.274-14.845c8.326,0,15.097,6.66,15.276,14.943     c0.002,0.111,0.003,10.715,0.003,10.715c0,0.634-0.52,1.153-1.153,1.153H37.675z"
           id="path166" />
        <path
           i:knockout="Off"
           fill="none"
           stroke-width="2"
           d="M37.675,31.921c-0.634,0-1.153-0.52-1.154-1.153     c0,0-0.004-10.732-0.012-10.907c-0.275-5.566-4.876-9.994-10.51-9.994c-5.57,0-10.13,4.327-10.5,9.804     c-0.016,0.237-0.022,11.098-0.022,11.098c0,0.634-0.52,1.153-1.154,1.153h-2.45c-0.634,0-1.153-0.52-1.153-1.153     c0,0,0.002-10.669,0.006-10.813c0.23-8.237,6.98-14.845,15.274-14.845c8.326,0,15.097,6.66,15.276,14.943     c0.002,0.111,0.003,10.715,0.003,10.715c0,0.634-0.52,1.153-1.153,1.153H37.675z"
           id="path233" />
      </g>
      <g
         i:knockout="Off"
         id="g174"
         style="font-size:12;stroke:#000000;">
        <linearGradient
           id="XMLID_2_"
           gradientUnits="userSpaceOnUse"
           x1="5.2295"
           y1="31.375"
           x2="45.9023"
           y2="59.8544">
          <stop
             offset="0.0056"
             style="stop-color:#FFFFFF"
             id="stop176" />
          <stop
             offset="0.9831"
             style="stop-color:#1C1C1C"
             id="stop177" />
          <a:midPointStop
             offset="0.0056"
             style="stop-color:#FFFFFF"
             id="midPointStop178" />
          <a:midPointStop
             offset="0.5"
             style="stop-color:#FFFFFF"
             id="midPointStop179" />
          <a:midPointStop
             offset="0.9831"
             style="stop-color:#1C1C1C"
             id="midPointStop180" />
        </linearGradient>
        <path
           i:knockout="Off"
           fill="url(#XMLID_2_)"
           stroke="none"
           d="M46.083,59.597c0,0.634-0.52,1.153-1.153,1.153H6.202      c-0.634,0-1.153-0.52-1.153-1.153V31.632c0-0.634,0.52-1.153,1.153-1.153H44.93c0.634,0,1.153,0.52,1.153,1.153V59.597z"
           id="path181" />
        <path
           i:knockout="Off"
           fill="none"
           stroke-width="2"
           d="M46.083,59.597c0,0.634-0.52,1.153-1.153,1.153H6.202      c-0.634,0-1.153-0.52-1.153-1.153V31.632c0-0.634,0.52-1.153,1.153-1.153H44.93c0.634,0,1.153,0.52,1.153,1.153V59.597z"
           id="path182" />
      </g>
      <g
         i:knockout="Off"
         id="g183"
         style="font-size:12;stroke:#000000;">
        <path
           i:knockout="Off"
           opacity="0.25"
           fill="#FFFFFF"
           stroke="none"
           d="M30.852,30.72c0,0-6.295,1.874-12.781,8.36     s-12.781,0-12.781,0v-7.448c0,0,0.145-1.032,1.033-1.032S30.852,30.72,30.852,30.72z"
           id="path184" />
      </g>
      <path
         i:knockout="Off"
         stroke-width="2"
         d="M26.72,56.569c0-0.596-0.319-1.116-0.796-1.401c-0.057-0.035,0.027-5.229,0.027-5.229    l-0.865-0.769l-0.673,0.769c0,0,0.081,5.107,0.037,5.126c-0.586,0.248-0.998,0.828-0.998,1.505c0,0.902,0.731,1.634,1.634,1.634    S26.72,57.472,26.72,56.569z"
         id="path185"
         style="font-size:12;stroke:#000000;stroke-width:2;" />
    </g>
  </g>
</svg>
