<?xml version="1.0" encoding="UTF-8" standalone="no"?>
<!DOCTYPE svg PUBLIC "-//W3C//DTD SVG 1.0//EN"
"http://www.w3.org/TR/2001/REC-SVG-20010904/DTD/svg10.dtd">
<!-- Created with Sodipodi ("http://www.sodipodi.com/") -->
<svg
   xmlns="http://www.w3.org/2000/svg"
   xmlns:xlink="http://www.w3.org/1999/xlink"
   version="1.0"
   x="0"
   y="0"
   width="60"
   height="60"
   viewBox="0 0 116.208 121.076"
   id="svg602"
   xml:space="preserve"><defs
   id="defs633" /><g
   style="font-size:12;stroke:#000000;"
   id="g606"><linearGradient
   x1="13.0059004"
   y1="36.0723"
   x2="93.9689026"
   y2="117.035301"
   id="XMLID_1_"
   gradientUnits="userSpaceOnUse"><stop
   style="stop-color:#b9cdd2;stop-opacity:1;"
   offset="0"
   id="stop608" /><stop
   style="stop-color:#032850;stop-opacity:1;"
   offset="1"
   id="stop609" /><a:midPointStop
   offset="0"
   style="stop-color:#B9CDD2"
   id="midPointStop610" /><a:midPointStop
   offset="0.5"
   style="stop-color:#B9CDD2"
   id="midPointStop611" /><a:midPointStop
   offset="1"
   style="stop-color:#032850"
   id="midPointStop612" /></linearGradient><path
   d="M 33.089 93.901 L 19.664 107.325 C 15.294 111.695 8.144 111.695 3.775 107.325 L 3.775 107.325 C -0.595 102.955 -0.595 95.805 3.775 91.435 L 35.655 59.53 L 21.33 59.53 C 15.151 59.53 10.095 54.474 10.095 48.295 L 10.095 48.294 C 10.095 42.115 15.151 37.059 21.33 37.059 L 62.609 36.971 L 45.301 19.665 C 40.931 15.295 40.931 8.145 45.301 3.776 L 45.301 3.776 C 49.67 -0.594 56.821 -0.594 61.19 3.776 L 103.893 46.478 C 103.893 46.478 115.706 58.08 115.706 77.742 C 115.706 100.681 96.745 120.577 72.87 120.577 C 48.995 120.577 33.089 93.901 33.089 93.901 z M 100.493 76.429 C 100.493 61.433 88.336 49.277 73.341 49.277 C 58.344 49.277 46.188 61.434 46.188 76.429 C 46.188 91.425 58.344 103.582 73.341 103.582 C 88.335 103.583 100.493 91.425 100.493 76.429 z "
   style="fill:url(#XMLID_1_);stroke:none;"
   id="path613" /><path
   d="M 33.089 93.901 L 19.664 107.325 C 15.294 111.695 8.144 111.695 3.775 107.325 L 3.775 107.325 C -0.595 102.955 -0.595 95.805 3.775 91.435 L 35.655 59.53 L 21.33 59.53 C 15.151 59.53 10.095 54.474 10.095 48.295 L 10.095 48.294 C 10.095 42.115 15.151 37.059 21.33 37.059 L 62.609 36.971 L 45.301 19.665 C 40.931 15.295 40.931 8.145 45.301 3.776 L 45.301 3.776 C 49.67 -0.594 56.821 -0.594 61.19 3.776 L 103.893 46.478 C 103.893 46.478 115.706 58.08 115.706 77.742 C 115.706 100.681 96.745 120.577 72.87 120.577 C 48.995 120.577 33.089 93.901 33.089 93.901 z M 100.493 76.429 C 100.493 61.433 88.336 49.277 73.341 49.277 C 58.344 49.277 46.188 61.434 46.188 76.429 C 46.188 91.425 58.344 103.582 73.341 103.582 C 88.335 103.583 100.493 91.425 100.493 76.429 z "
   style="fill:none;stroke:#404040;"
   id="path614" /></g><g
   style="font-size:12;stroke:#000000;"
   id="g617"><linearGradient
   x1="63.1851006"
   y1="64.7855988"
   x2="85.8139038"
   y2="87.4143982"
   id="XMLID_2_"
   gradientUnits="userSpaceOnUse"><stop
   style="stop-color:#7f7f7f;stop-opacity:1;"
   offset="0"
   id="stop619" /><stop
   style="stop-color:#404040;stop-opacity:1;"
   offset="1"
   id="stop620" /><a:midPointStop
   offset="0"
   style="stop-color:#7F7F7F"
   id="midPointStop621" /><a:midPointStop
   offset="0.5"
   style="stop-color:#7F7F7F"
   id="midPointStop622" /><a:midPointStop
   offset="1"
   style="stop-color:#404040"
   id="midPointStop623" /></linearGradient><path
   d="M 90.499 76.099 C 90.499 67.262 83.336 60.099 74.499 60.099 C 65.662 60.099 58.499 67.262 58.499 76.099 C 58.499 84.936 65.662 92.099 74.499 92.099 C 83.336 92.099 90.499 84.936 90.499 76.099 z "
   style="fill:url(#XMLID_2_);stroke:none;"
   id="path624" /><path
   d="M 90.499 76.099 C 90.499 67.262 83.336 60.099 74.499 60.099 C 65.662 60.099 58.499 67.262 58.499 76.099 C 58.499 84.936 65.662 92.099 74.499 92.099 C 83.336 92.099 90.499 84.936 90.499 76.099 z "
   style="fill:none;stroke:#404040;"
   id="path625" /></g><path
   d="M 3.775 107.325 C -0.595 102.955 -0.595 95.805 3.775 91.435 L 35.655 59.53 L 21.33 59.53 C 15.151 59.53 10.095 54.474 10.095 48.295 L 10.095 48.294 C 10.095 42.115 15.151 37.059 21.33 37.059 L 62.609 36.971 L 45.301 19.665 C 40.931 15.295 40.931 8.145 45.301 3.776 L 45.301 3.776 C 49.67 -0.594 56.821 -0.594 61.19 3.776 L 103.893 46.478 C 103.893 62.6 97.116 63.308 97.116 63.308 C 92.489 54.943 83.576 49.278 73.34 49.278 C 47.331 49.278 46.187 76.43 46.187 76.43 C 13.832 76.429 3.775 107.325 3.775 107.325 z "
   style="font-size:12;opacity:0.3;fill:#ffffff;stroke:#ffffff;"
   id="path626" /></svg>
