<?xml version="1.0" encoding="UTF-8" standalone="no"?>
<!DOCTYPE svg PUBLIC "-//W3C//DTD SVG 20010904//EN"
"http://www.w3.org/TR/2001/REC-SVG-20010904/DTD/svg10.dtd">
<!-- Created with Sodipodi ("http://www.sodipodi.com/") -->
<svg
   i:viewOrigin="240.7295 456.1738"
   i:rulerOrigin="-242 -332"
   i:pageBounds="242 460 370 332"
   width="48pt"
   height="48pt"
   viewBox="0 0 133.271 122.84"
   overflow="visible"
   enable-background="new 0 0 133.271 122.84"
   xml:space="preserve"
   id="svg548"
   sodipodi:version="0.32"
   sodipodi:docname="/home/cschalle/gnome-themes-extras/Amaranth/icons/scalable/apps/gtkkam2.svg"
   sodipodi:docbase="/home/cschalle/gnome-themes-extras/Amaranth/icons/scalable/apps"
   xmlns="http://www.w3.org/2000/svg"
   xmlns:sodipodi="http://sodipodi.sourceforge.net/DTD/sodipodi-0.dtd"
   xmlns:ns="http://ns.adobe.com/Variables/1.0/"
   xmlns:i="http://ns.adobe.com/AdobeIllustrator/10.0/"
   xmlns:xml="http://www.w3.org/XML/1998/namespace"
   xmlns:a="http://ns.adobe.com/AdobeSVGViewerExtensions/3.0/"
   xmlns:xlink="http://www.w3.org/1999/xlink">
  <defs
     id="defs682">
    <linearGradient
       id="XMLID_8_"
       gradientUnits="userSpaceOnUse"
       x1="77.9512"
       y1="75.1045"
       x2="57.0915"
       y2="54.2448">
      <stop
         offset="0"
         style="stop-color:#404040"
         id="stop614" />
      <stop
         offset="1"
         style="stop-color:#000000"
         id="stop615" />
      <a:midPointStop
         offset="0"
         style="stop-color:#404040"
         id="midPointStop616" />
      <a:midPointStop
         offset="0.5"
         style="stop-color:#404040"
         id="midPointStop617" />
      <a:midPointStop
         offset="1"
         style="stop-color:#000000"
         id="midPointStop618" />
    </linearGradient>
  </defs>
  <sodipodi:namedview
     id="base" />
  <metadata
     id="metadata549">
    <sfw>
      <slices />
      <sliceSourceBounds
         y="322"
         x="233"
         width="148"
         height="142"
         bottomLeftOrigin="true" />
    </sfw>
    <ns:variableSets>
      <ns:variableSet
         varSetName="binding1"
         locked="none">
        <ns:variables />
        <ns:sampleDataSets />
      </ns:variableSet>
    </ns:variableSets>
  </metadata>
  <g
     id="g553"
     style="font-size:12;stroke:#000000;">
    <g
       id="g554">
      <linearGradient
         id="XMLID_1_"
         gradientUnits="userSpaceOnUse"
         x1="8.708"
         y1="9.4868"
         x2="53.3331"
         y2="54.1119"
         gradientTransform="matrix(0.8206 -0.5715 0.5715 0.8206 -12.6087 23.4341)">
        <stop
           offset="0"
           style="stop-color:#FFFFFF"
           id="stop556" />
        <stop
           offset="1"
           style="stop-color:#BFBFBF"
           id="stop557" />
        <a:midPointStop
           offset="0"
           style="stop-color:#FFFFFF"
           id="midPointStop558" />
        <a:midPointStop
           offset="0.5"
           style="stop-color:#FFFFFF"
           id="midPointStop559" />
        <a:midPointStop
           offset="1"
           style="stop-color:#BFBFBF"
           id="midPointStop560" />
      </linearGradient>
      <path
         i:knockout="Off"
         fill="url(#XMLID_1_)"
         stroke-width="0.5"
         d="M61.693,39.531L27.639,63.249L0.348,24.067L34.402,0.348       L61.693,39.531z"
         id="path561" />
      <linearGradient
         id="XMLID_2_"
         gradientUnits="userSpaceOnUse"
         x1="20.3394"
         y1="36.0522"
         x2="40.7267"
         y2="56.4396"
         gradientTransform="matrix(0.8206 -0.5715 0.5715 0.8206 -12.6087 23.4341)">
        <stop
           offset="0"
           style="stop-color:#FFFFFF"
           id="stop563" />
        <stop
           offset="1"
           style="stop-color:#027976"
           id="stop564" />
        <a:midPointStop
           offset="0"
           style="stop-color:#FFFFFF"
           id="midPointStop565" />
        <a:midPointStop
           offset="0.5"
           style="stop-color:#FFFFFF"
           id="midPointStop566" />
        <a:midPointStop
           offset="1"
           style="stop-color:#027976"
           id="midPointStop567" />
      </linearGradient>
      <path
         i:knockout="Off"
         fill="url(#XMLID_2_)"
         d="M34.445,57.797c0,0-16.09-20.437-5.342-27.923       c10.748-7.485,24.302,14.718,24.302,14.718L34.445,57.797z"
         id="path568" />
      <linearGradient
         id="XMLID_3_"
         gradientUnits="userSpaceOnUse"
         x1="26.4048"
         y1="21.6318"
         x2="35.4508"
         y2="30.6778"
         gradientTransform="matrix(0.8206 -0.5715 0.5715 0.8206 -12.6087 23.4341)">
        <stop
           offset="0"
           style="stop-color:#FFFFFF"
           id="stop570" />
        <stop
           offset="1"
           style="stop-color:#E2C77A"
           id="stop571" />
        <a:midPointStop
           offset="0"
           style="stop-color:#FFFFFF"
           id="midPointStop572" />
        <a:midPointStop
           offset="0.5"
           style="stop-color:#FFFFFF"
           id="midPointStop573" />
        <a:midPointStop
           offset="1"
           style="stop-color:#E2C77A"
           id="midPointStop574" />
      </linearGradient>
      <path
         i:knockout="Off"
         fill="url(#XMLID_3_)"
         d="M32.967,23.564c-2.019-2.899-6.006-3.612-8.904-1.593       c-2.899,2.019-3.612,6.006-1.593,8.905s6.006,3.612,8.905,1.593C34.272,30.45,34.986,26.463,32.967,23.564z"
         id="path575" />
      <linearGradient
         id="XMLID_4_"
         gradientUnits="userSpaceOnUse"
         x1="16.7637"
         y1="39.9375"
         x2="24.5313"
         y2="39.9375"
         gradientTransform="matrix(0.8206 -0.5715 0.5715 0.8206 -12.6087 23.4341)">
        <stop
           offset="0"
           style="stop-color:#FFFFFF"
           id="stop577" />
        <stop
           offset="1"
           style="stop-color:#054861"
           id="stop578" />
        <a:midPointStop
           offset="0"
           style="stop-color:#FFFFFF"
           id="midPointStop579" />
        <a:midPointStop
           offset="0.5"
           style="stop-color:#FFFFFF"
           id="midPointStop580" />
        <a:midPointStop
           offset="1"
           style="stop-color:#054861"
           id="midPointStop581" />
      </linearGradient>
      <path
         i:knockout="Off"
         fill="url(#XMLID_4_)"
         d="M26.473,36.625c0,0-2.501,1.139-3.061,4.266       c-0.56,3.127,4.434,11.295,4.434,11.295l2.687-1.872C30.533,50.314,24.469,42.004,26.473,36.625z"
         id="path582" />
      <linearGradient
         id="XMLID_5_"
         gradientUnits="userSpaceOnUse"
         x1="36.1475"
         y1="39.5557"
         x2="43.915"
         y2="39.5557"
         gradientTransform="matrix(0.8206 -0.5715 0.5715 0.8206 -12.6087 23.4341)">
        <stop
           offset="0"
           style="stop-color:#FFFFFF"
           id="stop584" />
        <stop
           offset="1"
           style="stop-color:#054861"
           id="stop585" />
        <a:midPointStop
           offset="0"
           style="stop-color:#FFFFFF"
           id="midPointStop586" />
        <a:midPointStop
           offset="0.5"
           style="stop-color:#FFFFFF"
           id="midPointStop587" />
        <a:midPointStop
           offset="1"
           style="stop-color:#054861"
           id="midPointStop588" />
      </linearGradient>
      <path
         i:knockout="Off"
         fill="url(#XMLID_5_)"
         d="M35.787,29.671c0,0,1.936-1.951,5.063-1.392       c3.127,0.56,9.058,8.075,9.058,8.075l-2.687,1.871C47.221,38.226,41.527,29.658,35.787,29.671z"
         id="path589" />
    </g>
  </g>
  <g
     id="g593"
     transform="translate(0.000000,-2.178192e-6)"
     style="font-size:12;stroke:#000000;">
    <linearGradient
       id="XMLID_6_"
       gradientUnits="userSpaceOnUse"
       x1="28.3335"
       y1="25.4868"
       x2="106.7091"
       y2="103.8624">
      <stop
         offset="0"
         style="stop-color:#FFFFFF"
         id="stop595" />
      <stop
         offset="1"
         style="stop-color:#BFBFBF"
         id="stop596" />
      <a:midPointStop
         offset="0"
         style="stop-color:#FFFFFF"
         id="midPointStop597" />
      <a:midPointStop
         offset="0.5"
         style="stop-color:#FFFFFF"
         id="midPointStop598" />
      <a:midPointStop
         offset="1"
         style="stop-color:#BFBFBF"
         id="midPointStop599" />
    </linearGradient>
    <path
       i:knockout="Off"
       fill="url(#XMLID_6_)"
       stroke="none"
       d="M121.771,84.674c0,5.5-4.5,10-10,10h-88.5c-5.5,0-10-4.5-10-10       v-40c0-5.5,4.5-10,10-10h1.167c5.5,0,9.99-0.9,9.979-2c-0.012-1.1,4.479-2,9.979-2h2.375c5.5,0,10,0.9,10,2c0,1.1,4.5,2,10,2       h45c5.5,0,10,4.5,10,10V84.674z"
       id="path600" />
    <path
       i:knockout="Off"
       fill="none"
       d="M121.771,84.674c0,5.5-4.5,10-10,10h-88.5c-5.5,0-10-4.5-10-10v-40c0-5.5,4.5-10,10-10       h1.167c5.5,0,9.99-0.9,9.979-2c-0.012-1.1,4.479-2,9.979-2h2.375c5.5,0,10,0.9,10,2c0,1.1,4.5,2,10,2h45c5.5,0,10,4.5,10,10       V84.674z"
       id="path601" />
  </g>
  <g
     id="g604"
     style="font-size:12;stroke:#000000;">
    <linearGradient
       id="XMLID_7_"
       gradientUnits="userSpaceOnUse"
       x1="54.6167"
       y1="51.77"
       x2="80.4261"
       y2="77.5794">
      <stop
         offset="0"
         style="stop-color:#404040"
         id="stop606" />
      <stop
         offset="1"
         style="stop-color:#000000"
         id="stop607" />
      <a:midPointStop
         offset="0"
         style="stop-color:#404040"
         id="midPointStop608" />
      <a:midPointStop
         offset="0.5"
         style="stop-color:#404040"
         id="midPointStop609" />
      <a:midPointStop
         offset="1"
         style="stop-color:#000000"
         id="midPointStop610" />
    </linearGradient>
    <path
       i:knockout="Off"
       fill="url(#XMLID_7_)"
       stroke="none"
       d="M85.771,64.674c0-10.079-8.171-18.25-18.25-18.25       s-18.25,8.171-18.25,18.25s8.171,18.25,18.25,18.25S85.771,74.753,85.771,64.674z"
       id="path611" />
    <path
       i:knockout="Off"
       fill="none"
       d="M85.771,64.674c0-10.079-8.171-18.25-18.25-18.25s-18.25,8.171-18.25,18.25       s8.171,18.25,18.25,18.25S85.771,74.753,85.771,64.674z"
       id="path612" />
  </g>
  <path
     i:knockout="Off"
     fill="url(#XMLID_8_)"
     d="M82.271,64.674c0-8.146-6.604-14.75-14.75-14.75     c-8.146,0-14.75,6.604-14.75,14.75s6.604,14.75,14.75,14.75C75.667,79.424,82.271,72.82,82.271,64.674z"
     id="path619"
     style="font-size:12;fill:url(#XMLID_8_);stroke:#000000;" />
  <g
     id="g622"
     style="font-size:12;stroke:#000000;">
    <linearGradient
       id="XMLID_9_"
       gradientUnits="userSpaceOnUse"
       x1="21.3516"
       y1="40.7549"
       x2="30.1897"
       y2="49.593">
      <stop
         offset="0"
         style="stop-color:#404040"
         id="stop624" />
      <stop
         offset="1"
         style="stop-color:#000000"
         id="stop625" />
      <a:midPointStop
         offset="0"
         style="stop-color:#404040"
         id="midPointStop626" />
      <a:midPointStop
         offset="0.5"
         style="stop-color:#404040"
         id="midPointStop627" />
      <a:midPointStop
         offset="1"
         style="stop-color:#000000"
         id="midPointStop628" />
    </linearGradient>
    <path
       i:knockout="Off"
       fill="url(#XMLID_9_)"
       stroke="none"
       d="M32.021,45.174c0-3.452-2.798-6.25-6.25-6.25       s-6.25,2.798-6.25,6.25s2.798,6.25,6.25,6.25S32.021,48.625,32.021,45.174z"
       id="path629" />
    <path
       i:knockout="Off"
       fill="none"
       d="M32.021,45.174c0-3.452-2.798-6.25-6.25-6.25s-6.25,2.798-6.25,6.25       s2.798,6.25,6.25,6.25S32.021,48.625,32.021,45.174z"
       id="path630" />
  </g>
  <g
     id="g633"
     style="font-size:12;stroke:#000000;">
    <linearGradient
       id="XMLID_10_"
       gradientUnits="userSpaceOnUse"
       x1="96.6455"
       y1="36.0488"
       x2="110.8961"
       y2="50.2994">
      <stop
         offset="0"
         style="stop-color:#404040"
         id="stop635" />
      <stop
         offset="1"
         style="stop-color:#000000"
         id="stop636" />
      <a:midPointStop
         offset="0"
         style="stop-color:#404040"
         id="midPointStop637" />
      <a:midPointStop
         offset="0.5"
         style="stop-color:#404040"
         id="midPointStop638" />
      <a:midPointStop
         offset="1"
         style="stop-color:#000000"
         id="midPointStop639" />
    </linearGradient>
    <path
       i:knockout="Off"
       fill="url(#XMLID_10_)"
       stroke="none"
       d="M116.271,41.424c0-1.1-0.9-2-2-2h-21c-1.1,0-2,0.9-2,2v3.5       c0,1.1,0.9,2,2,2h21c1.1,0,2-0.9,2-2V41.424z"
       id="path640" />
    <path
       i:knockout="Off"
       fill="none"
       d="M116.271,41.424c0-1.1-0.9-2-2-2h-21c-1.1,0-2,0.9-2,2v3.5c0,1.1,0.9,2,2,2h21       c1.1,0,2-0.9,2-2V41.424z"
       id="path641" />
  </g>
  <path
     i:knockout="Off"
     opacity="0.3"
     fill="#FFFFFF"
     stroke="none"
     d="M121.515,39.245c0,2.591-0.048,9.21-0.105,14.71       c0,0-0.123,11.678-53.906,11.678c-53.784,0-54.166,11.887-54.166,11.887c-0.177,5.497-0.321,5.495-0.321-0.005V44.535       c0-5.5,4.5-10,10-10h1.167c5.5,0,9.99-0.9,9.979-2c-0.012-1.1,4.479-2,9.979-2h2.375c5.5,0,10,0.9,10,2c0,1.1,4.5,2,10.001,2       h44.998C117.015,34.535,121.515,36.655,121.515,39.245z"
     id="path645"
     style="font-size:12;opacity:0.3;fill:#ffffff;"
     transform="translate(-0.795648,1.193464)" />
  <g
     id="g648"
     style="font-size:12;stroke:#000000;">
    <g
       id="g649">
      <g
         id="g650">
        <linearGradient
           id="XMLID_11_"
           gradientUnits="userSpaceOnUse"
           x1="79.958"
           y1="71.4863"
           x2="124.5831"
           y2="116.1114"
           gradientTransform="matrix(0.9601 0.2796 -0.2796 0.9601 30.2714 -24.8486)">
          <stop
             offset="0"
             style="stop-color:#FFFFFF"
             id="stop652" />
          <stop
             offset="1"
             style="stop-color:#BFBFBF"
             id="stop653" />
          <a:midPointStop
             offset="0"
             style="stop-color:#FFFFFF"
             id="midPointStop654" />
          <a:midPointStop
             offset="0.5"
             style="stop-color:#FFFFFF"
             id="midPointStop655" />
          <a:midPointStop
             offset="1"
             style="stop-color:#BFBFBF"
             id="midPointStop656" />
        </linearGradient>
        <path
           i:knockout="Off"
           fill="url(#XMLID_11_)"
           stroke-width="0.5"
           d="M115.48,122.53l-39.845-11.604l13.352-45.846        l39.845,11.604L115.48,122.53z"
           id="path657" />
      </g>
      <linearGradient
         id="XMLID_12_"
         gradientUnits="userSpaceOnUse"
         x1="106.1006"
         y1="75.0039"
         x2="114.9401"
         y2="83.8434"
         gradientTransform="matrix(0.9601 0.2796 -0.2796 0.9601 30.2714 -24.8486)">
        <stop
           offset="0"
           style="stop-color:#FFFFFF"
           id="stop659" />
        <stop
           offset="1"
           style="stop-color:#FFFF00"
           id="stop660" />
        <a:midPointStop
           offset="0"
           style="stop-color:#FFFFFF"
           id="midPointStop661" />
        <a:midPointStop
           offset="0.5"
           style="stop-color:#FFFFFF"
           id="midPointStop662" />
        <a:midPointStop
           offset="1"
           style="stop-color:#FFFF00"
           id="midPointStop663" />
      </linearGradient>
      <path
         i:knockout="Off"
         fill="url(#XMLID_12_)"
         stroke-width="0.5"
         d="M120.175,84.059c0.965-3.313-0.938-6.783-4.253-7.748       c-3.314-0.966-6.783,0.939-7.748,4.253c-0.966,3.314,0.938,6.783,4.253,7.748C115.741,89.277,119.21,87.373,120.175,84.059z"
         id="path664" />
      <linearGradient
         id="XMLID_13_"
         gradientUnits="userSpaceOnUse"
         x1="89.7695"
         y1="104.6738"
         x2="102.6452"
         y2="117.5495"
         gradientTransform="matrix(0.9601 0.2796 -0.2796 0.9601 30.2714 -24.8486)">
        <stop
           offset="0"
           style="stop-color:#FFFFFF"
           id="stop666" />
        <stop
           offset="1"
           style="stop-color:#C77000"
           id="stop667" />
        <a:midPointStop
           offset="0"
           style="stop-color:#FFFFFF"
           id="midPointStop668" />
        <a:midPointStop
           offset="0.5"
           style="stop-color:#FFFFFF"
           id="midPointStop669" />
        <a:midPointStop
           offset="1"
           style="stop-color:#C77000"
           id="midPointStop670" />
      </linearGradient>
      <path
         i:knockout="Off"
         fill="url(#XMLID_13_)"
         stroke-width="0.5"
         d="M82.836,113.023c0,0,8.087-9.883,9.624-15.164       l5.211,1.778c0,0-2.477,7.611-1.873,17.161"
         id="path671" />
      <linearGradient
         id="XMLID_14_"
         gradientUnits="userSpaceOnUse"
         x1="86.1846"
         y1="83.5098"
         x2="103.1848"
         y2="100.51"
         gradientTransform="matrix(0.9601 0.2796 -0.2796 0.9601 30.2714 -24.8486)">
        <stop
           offset="0"
           style="stop-color:#FFFFFF"
           id="stop673" />
        <stop
           offset="1"
           style="stop-color:#4A881F"
           id="stop674" />
        <a:midPointStop
           offset="0"
           style="stop-color:#FFFFFF"
           id="midPointStop675" />
        <a:midPointStop
           offset="0.5"
           style="stop-color:#FFFFFF"
           id="midPointStop676" />
        <a:midPointStop
           offset="1"
           style="stop-color:#4A881F"
           id="midPointStop677" />
      </linearGradient>
      <path
         i:knockout="Off"
         fill="url(#XMLID_14_)"
         stroke-width="0.5"
         d="M95.734,82.148c1.201-1.297-0.019,3.64,3.181,2.488       c3.2-1.15,5.011,0.679,4.521,2.358c-0.489,1.681,0.221,3.71,1.831,4.439s5.882,4.838,4.132,4.589       c-1.75-0.25-6.35-0.548-5.43,0.762c0.921,1.31-0.738,3.431-1.389,2.98c-0.65-0.449-2.859,1.771-4.189,0.082       c-1.331-1.689-1.699,3.15-3.3,0.601c-1.602-2.549-5.421-1.058-4.7-0.848c0.72,0.21-3.121-0.909-0.392-4.02       c2.729-3.111-0.902-4.95-2.963-5.029c-2.06-0.079-0.431-2.99,0.839-2.88c1.271,0.109,5.779-1.963,4.72-2.792       c-1.061-0.83-4.673-6.309-3.133-5.339c1.541,0.969,4.78-1.212,4.29,0.468C93.264,81.689,94.215,83.789,95.734,82.148z"
         id="path678" />
      <g
         i:knockout="Off"
         id="g679">
        <path
           i:knockout="Off"
           opacity="0.3"
           fill="#FFFFFF"
           stroke="none"
           d="M127.225,82.206c0,0-5.553,18.172-26.676,12.021        c-21.122-6.151-23.725,12.619-23.725,12.619l12.233-42.005l39.845,11.604L127.225,82.206z"
           id="path680" />
      </g>
    </g>
  </g>
</svg>
