<?xml version="1.0" encoding="UTF-8" standalone="no"?>
<!DOCTYPE svg PUBLIC "-//W3C//DTD SVG 20010904//EN"
"http://www.w3.org/TR/2001/REC-SVG-20010904/DTD/svg10.dtd">
<!-- Created with Sodipodi ("http://www.sodipodi.com/") -->
<svg
   i:viewOrigin="237 460"
   i:rulerOrigin="-242 -332"
   i:pageBounds="242 460 370 332"
   width="48pt"
   height="48pt"
   viewBox="0 0 140 140"
   overflow="visible"
   enable-background="new 0 0 140 140"
   xml:space="preserve"
   id="svg548"
   sodipodi:version="0.32"
   sodipodi:docname="/home/cschalle/gnome-themes-extras/Amaranth/icons/scalable/apps/evolution.svg"
   sodipodi:docbase="/home/cschalle/gnome-themes-extras/Amaranth/icons/scalable/apps"
   xmlns="http://www.w3.org/2000/svg"
   xmlns:sodipodi="http://sodipodi.sourceforge.net/DTD/sodipodi-0.dtd"
   xmlns:ns="http://ns.adobe.com/Variables/1.0/"
   xmlns:i="http://ns.adobe.com/AdobeIllustrator/10.0/"
   xmlns:xml="http://www.w3.org/XML/1998/namespace"
   xmlns:a="http://ns.adobe.com/AdobeSVGViewerExtensions/3.0/"
   xmlns:xlink="http://www.w3.org/1999/xlink">
  <defs
     id="defs642" />
  <sodipodi:namedview
     id="base" />
  <metadata
     id="metadata549">
    <sfw>
      <slices />
      <sliceSourceBounds
         y="320"
         x="237"
         width="140"
         height="140"
         bottomLeftOrigin="true" />
    </sfw>
    <ns:variableSets>
      <ns:variableSet
         varSetName="binding1"
         locked="none">
        <ns:variables />
        <ns:sampleDataSets />
      </ns:variableSet>
    </ns:variableSets>
  </metadata>
  <g
     id="g553"
     style="font-size:12;stroke:#000000;">
    <linearGradient
       id="XMLID_1_"
       gradientUnits="userSpaceOnUse"
       x1="29.9507"
       y1="29.4507"
       x2="104.5504"
       y2="104.0505">
      <stop
         offset="0"
         style="stop-color:#F4F911"
         id="stop555" />
      <stop
         offset="1"
         style="stop-color:#F4890D"
         id="stop556" />
      <a:midPointStop
         offset="0"
         style="stop-color:#F4F911"
         id="midPointStop557" />
      <a:midPointStop
         offset="0.5"
         style="stop-color:#F4F911"
         id="midPointStop558" />
      <a:midPointStop
         offset="1"
         style="stop-color:#F4890D"
         id="midPointStop559" />
    </linearGradient>
    <path
       i:knockout="Off"
       fill="url(#XMLID_1_)"
       stroke="none"
       d="M120,66.75C120,37.617,96.383,14,67.25,14      S14.5,37.617,14.5,66.75s23.617,52.75,52.75,52.75S120,95.883,120,66.75z"
       id="path560" />
    <path
       i:knockout="Off"
       fill="none"
       stroke="#666666"
       stroke-width="4"
       d="M120,66.75C120,37.617,96.383,14,67.25,14      S14.5,37.617,14.5,66.75s23.617,52.75,52.75,52.75S120,95.883,120,66.75z"
       id="path561" />
  </g>
  <g
     id="g564"
     style="font-size:12;stroke:#000000;">
    <linearGradient
       id="XMLID_2_"
       gradientUnits="userSpaceOnUse"
       x1="76.5215"
       y1="2.4985"
       x2="114.9939"
       y2="40.9709"
       gradientTransform="matrix(0.7071 0.7071 -0.7071 0.7071 31.5548 -5.8461)">
      <stop
         offset="0"
         style="stop-color:#FFFFFF"
         id="stop566" />
      <stop
         offset="1"
         style="stop-color:#808080"
         id="stop567" />
      <a:midPointStop
         offset="0"
         style="stop-color:#FFFFFF"
         id="midPointStop568" />
      <a:midPointStop
         offset="0.5"
         style="stop-color:#FFFFFF"
         id="midPointStop569" />
      <a:midPointStop
         offset="1"
         style="stop-color:#808080"
         id="midPointStop570" />
    </linearGradient>
    <path
       i:knockout="Off"
       fill="url(#XMLID_2_)"
       stroke="none"
       d="M94.257,102.979c-1.944,1.944-5.126,1.944-7.07,0L58.12,73.913      c-1.945-1.944-1.945-5.126,0-7.07l15.168-15.169c1.944-1.945,4.841-2.23,6.436-0.635c1.595,1.595,1.271,4.453-0.719,6.351      c0,0-0.787,0.751,1.794,3.332s3.331,1.792,3.331,1.792c1.895-1.993,5.035-2.033,6.979-0.088l7.131,7.13      c1.944,1.944,2.026,5.204,0.182,7.244c0,0-0.734,0.812,2.172,3.716c2.905,2.905,3.639,2.094,3.639,2.094      c1.844-2.04,4.563-2.499,6.041-1.021c1.478,1.479,1.097,4.279-0.848,6.224L94.257,102.979z"
       id="path571" />
    <path
       i:knockout="Off"
       fill="none"
       stroke="#5E5E5E"
       stroke-width="2"
       d="M94.257,102.979c-1.944,1.944-5.126,1.944-7.07,0      L58.12,73.913c-1.945-1.944-1.945-5.126,0-7.07l15.168-15.169c1.944-1.945,4.841-2.23,6.436-0.635      c1.595,1.595,1.271,4.453-0.719,6.351c0,0-0.787,0.751,1.794,3.332s3.331,1.792,3.331,1.792      c1.895-1.993,5.035-2.033,6.979-0.088l7.131,7.13c1.944,1.944,2.026,5.204,0.182,7.244c0,0-0.734,0.812,2.172,3.716      c2.905,2.905,3.639,2.094,3.639,2.094c1.844-2.04,4.563-2.499,6.041-1.021c1.478,1.479,1.097,4.279-0.848,6.224L94.257,102.979z      "
       id="path572" />
  </g>
  <g
     id="g577"
     style="font-size:12;stroke:#000000;">
    <linearGradient
       id="XMLID_3_"
       gradientUnits="userSpaceOnUse"
       x1="42.2979"
       y1="77.6895"
       x2="107.3408"
       y2="77.6895"
       gradientTransform="matrix(0.7071 0.7071 -0.7071 0.7071 59.3468 -28.5971)">
      <stop
         offset="0.0056"
         style="stop-color:#FFFFFF"
         id="stop579" />
      <stop
         offset="0.9831"
         style="stop-color:#8C8C8C"
         id="stop580" />
      <a:midPointStop
         offset="0.0056"
         style="stop-color:#FFFFFF"
         id="midPointStop581" />
      <a:midPointStop
         offset="0.5"
         style="stop-color:#FFFFFF"
         id="midPointStop582" />
      <a:midPointStop
         offset="0.9831"
         style="stop-color:#8C8C8C"
         id="midPointStop583" />
    </linearGradient>
    <path
       i:knockout="Off"
       fill="url(#XMLID_3_)"
       stroke="none"
       d="M69.494,113.057c-0.427,0.428-1.126,0.428-1.553,0        L23.502,68.618c-0.427-0.427-0.427-1.126,0-1.553L45.14,45.428c0.427-0.427,1.125-0.427,1.553,0l44.439,44.44        c0.426,0.426,0.426,1.124,0,1.552L69.494,113.057z"
       id="path584" />
    <path
       i:knockout="Off"
       fill="none"
       stroke="#5E5E5E"
       stroke-width="2"
       d="M69.494,113.057c-0.427,0.428-1.126,0.428-1.553,0        L23.502,68.618c-0.427-0.427-0.427-1.126,0-1.553L45.14,45.428c0.427-0.427,1.125-0.427,1.553,0l44.439,44.44        c0.426,0.426,0.426,1.124,0,1.552L69.494,113.057z"
       id="path585" />
  </g>
  <g
     id="g586"
     style="font-size:12;stroke:#000000;">
    <linearGradient
       id="XMLID_4_"
       gradientUnits="userSpaceOnUse"
       x1="54.4883"
       y1="79.0303"
       x2="96.289"
       y2="108.2995"
       gradientTransform="matrix(0.7071 0.7071 -0.7071 0.7071 59.3468 -28.5971)">
      <stop
         offset="0.0056"
         style="stop-color:#FFFFFF"
         id="stop588" />
      <stop
         offset="0.9831"
         style="stop-color:#1C1C1C"
         id="stop589" />
      <a:midPointStop
         offset="0.0056"
         style="stop-color:#FFFFFF"
         id="midPointStop590" />
      <a:midPointStop
         offset="0.5"
         style="stop-color:#FFFFFF"
         id="midPointStop591" />
      <a:midPointStop
         offset="0.9831"
         style="stop-color:#1C1C1C"
         id="midPointStop592" />
    </linearGradient>
    <path
       i:knockout="Off"
       fill="url(#XMLID_4_)"
       stroke="#5E5E5E"
       stroke-width="2"
       d="M24.471,69.396     c-0.426-0.427-0.292-0.672,0.298-0.544l32.591,7.101c0.59,0.129,1.203,0.711,1.362,1.293l9.705,35.53     c0.161,0.583-0.059,0.708-0.485,0.28L24.471,69.396z"
       id="path593" />
  </g>
  <g
     id="g594"
     style="font-size:12;stroke:#000000;">
    <linearGradient
       id="XMLID_5_"
       gradientUnits="userSpaceOnUse"
       x1="106.791"
       y1="70.2979"
       x2="42.8467"
       y2="70.2979"
       gradientTransform="matrix(0.7071 0.7071 -0.7071 0.7071 59.3468 -28.5971)">
      <stop
         offset="0.0056"
         style="stop-color:#FFFFFF"
         id="stop596" />
      <stop
         offset="1"
         style="stop-color:#737373"
         id="stop597" />
      <a:midPointStop
         offset="0.0056"
         style="stop-color:#FFFFFF"
         id="midPointStop598" />
      <a:midPointStop
         offset="0.5"
         style="stop-color:#FFFFFF"
         id="midPointStop599" />
      <a:midPointStop
         offset="1"
         style="stop-color:#737373"
         id="midPointStop600" />
    </linearGradient>
    <path
       i:knockout="Off"
       fill="url(#XMLID_5_)"
       stroke="#5E5E5E"
       stroke-width="2"
       d="M45.914,45.43l8.738,32.795     c0.156,0.584,0.755,1.207,1.332,1.386l35.246,10.935"
       id="path601" />
  </g>
  <g
     id="g604"
     style="font-size:12;stroke:#000000;">
    <g
       id="g605">
      <g
         i:knockout="Off"
         id="g606">
        <linearGradient
           id="XMLID_6_"
           gradientUnits="userSpaceOnUse"
           x1="41.7769"
           y1="-2.4634"
           x2="80.1174"
           y2="35.8771"
           gradientTransform="matrix(0.7071 0.7071 -0.7071 0.7071 31.5548 -5.8461)">
          <stop
             offset="0"
             style="stop-color:#FFFFFF"
             id="stop608" />
          <stop
             offset="1"
             style="stop-color:#BFBFBF"
             id="stop609" />
          <a:midPointStop
             offset="0"
             style="stop-color:#FFFFFF"
             id="midPointStop610" />
          <a:midPointStop
             offset="0.5"
             style="stop-color:#FFFFFF"
             id="midPointStop611" />
          <a:midPointStop
             offset="1"
             style="stop-color:#BFBFBF"
             id="midPointStop612" />
        </linearGradient>
        <path
           i:knockout="Off"
           fill="url(#XMLID_6_)"
           stroke="none"
           d="M73.322,74.716c-1.944,1.944-5.126,1.944-7.071,0        L37.185,45.649c-1.945-1.945-1.945-5.126,0-7.071l15.167-15.167c1.945-1.945,5.126-1.945,7.071,0L88.49,52.477        c1.944,1.945,1.944,5.126,0,7.071L73.322,74.716z"
           id="path613" />
        <path
           i:knockout="Off"
           fill="none"
           stroke="#5E5E5E"
           stroke-width="2"
           d="M73.322,74.716c-1.944,1.944-5.126,1.944-7.071,0        L37.185,45.649c-1.945-1.945-1.945-5.126,0-7.071l15.167-15.167c1.945-1.945,5.126-1.945,7.071,0L88.49,52.477        c1.944,1.945,1.944,5.126,0,7.071L73.322,74.716z"
           id="path614" />
      </g>
      <g
         i:knockout="Off"
         id="g615">
        <linearGradient
           id="XMLID_7_"
           gradientUnits="userSpaceOnUse"
           x1="48.0127"
           y1="-10.7363"
           x2="73.8829"
           y2="15.1338"
           gradientTransform="matrix(0.7071 0.7071 -0.7071 0.7071 31.5548 -5.8461)">
          <stop
             offset="0.0056"
             style="stop-color:#BFBFBF"
             id="stop617" />
          <stop
             offset="0.9831"
             style="stop-color:#404040"
             id="stop618" />
          <a:midPointStop
             offset="0.0056"
             style="stop-color:#BFBFBF"
             id="midPointStop619" />
          <a:midPointStop
             offset="0.5"
             style="stop-color:#BFBFBF"
             id="midPointStop620" />
          <a:midPointStop
             offset="0.9831"
             style="stop-color:#404040"
             id="midPointStop621" />
        </linearGradient>
        <path
           i:knockout="Off"
           fill="url(#XMLID_7_)"
           stroke="none"
           d="M91.166,56.874c0.982-0.983,0.196-3.378-1.748-5.323        L60.35,22.484c-1.945-1.945-4.34-2.731-5.323-1.749s-0.196,3.378,1.749,5.323l29.068,29.067        C87.788,57.07,90.184,57.856,91.166,56.874z"
           id="path622" />
        <path
           i:knockout="Off"
           fill="none"
           stroke="#5E5E5E"
           stroke-width="2"
           d="M91.166,56.874c0.982-0.983,0.196-3.378-1.748-5.323        L60.35,22.484c-1.945-1.945-4.34-2.731-5.323-1.749s-0.196,3.378,1.749,5.323l29.068,29.067        C87.788,57.07,90.184,57.856,91.166,56.874z"
           id="path623" />
      </g>
    </g>
  </g>
  <g
     i:knockout="Off"
     id="g624"
     style="font-size:12;stroke:#000000;">
    <path
       i:knockout="Off"
       fill="#666666"
       stroke="none"
       d="M52.883,29.855c-0.246-0.246-0.557-0.37-0.93-0.372     s-0.685,0.122-0.933,0.37c-0.246,0.246-0.368,0.556-0.366,0.931c0.002,0.374,0.126,0.685,0.374,0.932l0.154,0.154l0.852-0.852     c0.037-0.037,0.081-0.055,0.131-0.056c0.051,0,0.095,0.018,0.131,0.055c0.036,0.036,0.054,0.08,0.054,0.131     s-0.019,0.095-0.055,0.131l-1.118,1.118l-0.417-0.417c-0.319-0.319-0.479-0.717-0.479-1.195c0-0.477,0.159-0.875,0.478-1.194     c0.318-0.319,0.716-0.479,1.193-0.478c0.477,0,0.875,0.16,1.194,0.479L52.883,29.855z M52.884,29.854l0.281,0.281     c0.037,0.036,0.081,0.055,0.131,0.055c0.051,0,0.095-0.018,0.131-0.054s0.054-0.08,0.054-0.131s-0.019-0.095-0.055-0.131     l-0.281-0.281L52.884,29.854z"
       id="path625" />
    <path
       i:knockout="Off"
       fill="#666666"
       stroke="none"
       d="M53.385,34.3c-0.037,0.037-0.083,0.055-0.139,0.056     c-0.056,0-0.102-0.018-0.138-0.054s-0.055-0.08-0.058-0.13c-0.002-0.051,0.015-0.095,0.052-0.131l0.771-0.771     c0.182-0.183,0.275-0.403,0.277-0.663c0.001-0.259-0.089-0.48-0.271-0.661c-0.185-0.185-0.407-0.276-0.666-0.275     c-0.259,0.002-0.48,0.094-0.662,0.277c0.002-0.002-0.25,0.25-0.757,0.756c-0.039,0.039-0.086,0.059-0.142,0.059     c-0.056,0-0.102-0.018-0.138-0.054s-0.055-0.08-0.056-0.132c-0.001-0.052,0.017-0.097,0.054-0.133l0.771-0.771     c0.256-0.256,0.564-0.384,0.926-0.385c0.362-0.001,0.672,0.127,0.93,0.386c0.256,0.256,0.384,0.566,0.384,0.932     c0,0.366-0.128,0.676-0.383,0.932L53.385,34.3z"
       id="path626" />
    <path
       i:knockout="Off"
       fill="#666666"
       stroke="none"
       d="M56.201,35.521c-0.259,0.258-0.57,0.388-0.935,0.388     c-0.365,0-0.676-0.127-0.931-0.382c-0.258-0.258-0.386-0.569-0.386-0.935c0-0.365,0.13-0.677,0.389-0.935     c0.256-0.256,0.566-0.385,0.932-0.385c0.365,0,0.676,0.128,0.935,0.386c0.255,0.255,0.382,0.565,0.382,0.93     C56.585,34.954,56.457,35.265,56.201,35.521z M55.931,35.249c0.183-0.183,0.275-0.404,0.276-0.663     c0.002-0.259-0.088-0.479-0.27-0.662c-0.185-0.184-0.407-0.275-0.666-0.274c-0.259,0.002-0.479,0.094-0.663,0.277     c-0.183,0.183-0.274,0.403-0.275,0.661c0,0.257,0.092,0.479,0.276,0.664c0.182,0.181,0.401,0.272,0.66,0.272     C55.528,35.523,55.748,35.432,55.931,35.249z"
       id="path627" />
    <path
       i:knockout="Off"
       fill="#666666"
       stroke="none"
       d="M59,39.953c-0.037,0.037-0.083,0.055-0.139,0.055     c-0.055,0-0.101-0.018-0.137-0.054c-0.039-0.039-0.059-0.084-0.062-0.134c-0.002-0.051,0.016-0.093,0.055-0.127l0.769-0.769     c0.182-0.182,0.274-0.403,0.274-0.663s-0.09-0.481-0.272-0.663c-0.136-0.136-0.299-0.221-0.49-0.257     c-0.191-0.035-0.373-0.013-0.548,0.064c-0.093,0.039-0.156,0.076-0.189,0.109c-0.102,0.102-0.239,0.239-0.412,0.412     c-0.204,0.205-0.342,0.343-0.415,0.416c-0.039,0.039-0.09,0.061-0.151,0.067c-0.063,0.006-0.113-0.01-0.15-0.047     c-0.038-0.037-0.057-0.082-0.057-0.134c0-0.051,0.019-0.093,0.058-0.127l0.77-0.77c0.008-0.011,0.024-0.027,0.047-0.047     c0.02-0.02,0.035-0.035,0.048-0.048c0.036-0.036,0.074-0.098,0.113-0.186c0.083-0.18,0.107-0.366,0.074-0.56     c-0.033-0.193-0.119-0.359-0.257-0.499c-0.185-0.185-0.408-0.276-0.667-0.275c-0.259,0.002-0.481,0.094-0.663,0.276     c0.002-0.002-0.25,0.25-0.757,0.756c-0.039,0.04-0.086,0.059-0.142,0.059c-0.056,0-0.102-0.018-0.138-0.054     s-0.055-0.08-0.055-0.132c-0.001-0.052,0.017-0.097,0.053-0.133l0.771-0.771c0.256-0.256,0.565-0.384,0.926-0.385     c0.362,0,0.672,0.127,0.931,0.386c0.163,0.163,0.276,0.356,0.338,0.579c0.062,0.223,0.065,0.448,0.009,0.675     c0.216-0.051,0.432-0.044,0.647,0.018c0.216,0.063,0.404,0.174,0.565,0.335c0.258,0.258,0.388,0.57,0.388,0.936     c0,0.365-0.126,0.675-0.381,0.93L59,39.953z"
       id="path628" />
    <path
       i:knockout="Off"
       fill="#666666"
       stroke="none"
       d="M61.695,41.318l-1.57-1.57c-0.114,0.182-0.157,0.38-0.131,0.595     c0.026,0.214,0.118,0.399,0.273,0.555c0.018,0.017,0.056,0.056,0.117,0.117c0.049,0.049,0.088,0.088,0.117,0.117     c0.088,0.098,0.088,0.19,0,0.279c-0.083,0.083-0.173,0.085-0.268,0.004c-0.052-0.046-0.134-0.125-0.246-0.236     c-0.258-0.258-0.387-0.57-0.386-0.936c0-0.365,0.129-0.677,0.388-0.936c0.256-0.256,0.567-0.384,0.932-0.384     c0.365,0,0.677,0.128,0.935,0.387c0.188,0.188,0.307,0.412,0.359,0.674c0.052,0.262,0.026,0.518-0.076,0.766     c-0.056,0.134-0.111,0.231-0.165,0.29C61.972,41.038,61.878,41.131,61.695,41.318z M61.657,40.729     c0.125-0.189,0.187-0.386,0.183-0.592c-0.009-0.215-0.091-0.4-0.247-0.557c-0.158-0.158-0.35-0.248-0.575-0.269     c-0.225-0.021-0.432,0.032-0.621,0.157L61.657,40.729z"
       id="path629" />
    <path
       i:knockout="Off"
       fill="#666666"
       stroke="none"
       d="M52.13,37.62c-0.222-0.221-0.5-0.344-0.833-0.368     c-0.333-0.024-0.628,0.056-0.881,0.242l1.245,1.245c0.037,0.037,0.055,0.081,0.055,0.132s-0.019,0.096-0.056,0.133     c-0.037,0.036-0.081,0.055-0.133,0.056c-0.051,0-0.095-0.018-0.132-0.055l-1.245-1.245c-0.186,0.259-0.268,0.554-0.245,0.887     c0.022,0.333,0.145,0.61,0.367,0.832c0.031,0.032,0.078,0.078,0.138,0.138c0.061,0.061,0.107,0.107,0.139,0.139     c0.037,0.037,0.055,0.081,0.055,0.132c0,0.051-0.019,0.095-0.055,0.131c-0.037,0.037-0.08,0.056-0.13,0.057     c-0.05,0.001-0.092-0.015-0.126-0.048c-0.035-0.035-0.083-0.081-0.146-0.139c-0.063-0.063-0.11-0.111-0.142-0.142     c-0.319-0.319-0.479-0.718-0.479-1.194c0-0.477,0.159-0.875,0.478-1.194c0.318-0.318,0.716-0.478,1.193-0.477     c0.477,0,0.875,0.159,1.194,0.478L52.13,37.62z M52.13,37.62l0.281,0.281c0.037,0.037,0.08,0.055,0.131,0.055     c0.051,0,0.095-0.018,0.131-0.054c0.037-0.036,0.055-0.08,0.055-0.131c0-0.051-0.019-0.094-0.055-0.131l-0.281-0.281L52.13,37.62     z"
       id="path630" />
    <path
       i:knockout="Off"
       fill="#666666"
       stroke="none"
       d="M54.095,40.381c-0.02,0.02-0.036,0.032-0.051,0.037l-2.239,0.8     c-0.125,0.043-0.214,0.039-0.265-0.012c-0.037-0.037-0.049-0.079-0.037-0.128s0.027-0.096,0.044-0.142l0.729-2.285     c0.006-0.015,0.018-0.032,0.037-0.051c0.037-0.037,0.082-0.056,0.136-0.056s0.099,0.018,0.136,0.055     c0.059,0.059,0.072,0.133,0.04,0.224l-0.63,1.907l1.879-0.657c0.091-0.033,0.166-0.02,0.224,0.039     c0.037,0.036,0.054,0.081,0.054,0.135C54.15,40.299,54.132,40.344,54.095,40.381z"
       id="path631" />
    <path
       i:knockout="Off"
       fill="#666666"
       stroke="none"
       d="M55.322,43.162c-0.258,0.259-0.57,0.388-0.936,0.389     c-0.365,0-0.675-0.127-0.931-0.383c-0.257-0.257-0.386-0.569-0.386-0.934c0-0.365,0.13-0.677,0.389-0.936     c0.256-0.256,0.566-0.384,0.932-0.384c0.365,0,0.677,0.128,0.935,0.386c0.255,0.255,0.382,0.565,0.382,0.931     C55.706,42.596,55.578,42.906,55.322,43.162z M55.052,42.89c0.183-0.183,0.275-0.404,0.276-0.663s-0.088-0.479-0.271-0.662     c-0.185-0.184-0.406-0.275-0.665-0.274c-0.259,0.002-0.479,0.094-0.663,0.277c-0.183,0.183-0.275,0.403-0.275,0.661     c0,0.258,0.091,0.479,0.276,0.664c0.183,0.182,0.402,0.272,0.66,0.272C54.648,43.164,54.869,43.073,55.052,42.89z"
       id="path632" />
    <path
       i:knockout="Off"
       fill="#666666"
       stroke="none"
       d="M54.977,44.424c-0.037,0.037-0.082,0.053-0.134,0.048     c-0.053-0.004-0.098-0.025-0.134-0.061c-0.037-0.036-0.053-0.081-0.05-0.134c0.003-0.053,0.022-0.099,0.059-0.135l2.32-2.32     c0.034-0.034,0.077-0.05,0.129-0.049c0.052,0,0.096,0.019,0.132,0.055s0.054,0.082,0.054,0.138c0,0.055-0.019,0.102-0.055,0.138     L54.977,44.424z"
       id="path633" />
    <path
       i:knockout="Off"
       fill="#666666"
       stroke="none"
       d="M56.951,46.105c-0.365,0-0.676-0.127-0.931-0.383     c-0.258-0.257-0.386-0.569-0.386-0.934c0-0.365,0.129-0.677,0.388-0.936c-0.002,0.002,0.249-0.252,0.755-0.765     c0.037-0.037,0.083-0.055,0.14-0.055c0.056,0,0.103,0.019,0.14,0.055s0.056,0.082,0.057,0.134     c0.002,0.053-0.015,0.096-0.049,0.13l-0.773,0.774c-0.186,0.186-0.279,0.407-0.279,0.666c-0.001,0.258,0.09,0.479,0.275,0.664     c0.182,0.182,0.402,0.272,0.661,0.271c0.258-0.001,0.48-0.094,0.666-0.28c-0.003,0.003,0.251-0.251,0.762-0.762     c0.037-0.037,0.083-0.056,0.137-0.058c0.054-0.001,0.099,0.015,0.135,0.051c0.088,0.087,0.089,0.175,0.004,0.26l-0.765,0.778     C57.627,45.976,57.315,46.104,56.951,46.105z"
       id="path634" />
    <path
       i:knockout="Off"
       fill="#666666"
       stroke="none"
       d="M58.564,48.014c-0.085,0.086-0.175,0.088-0.267,0.005     c-0.119-0.106-0.203-0.184-0.254-0.235c-0.258-0.258-0.391-0.566-0.4-0.926c-0.008-0.359,0.116-0.667,0.372-0.923l1.277-1.277     c0.034-0.034,0.077-0.051,0.129-0.05c0.052,0.001,0.096,0.02,0.132,0.056s0.053,0.082,0.052,0.136     c-0.001,0.055-0.02,0.102-0.053,0.141l-0.322,0.322l0.904,0.904c0.083,0.083,0.079,0.17-0.012,0.261     c-0.039,0.039-0.086,0.058-0.142,0.057c-0.055-0.001-0.101-0.02-0.137-0.056l-0.89-0.89l-0.645,0.645     c-0.182,0.182-0.27,0.401-0.265,0.659c0.005,0.259,0.1,0.479,0.286,0.66c0.02,0.019,0.059,0.058,0.118,0.117     c0.048,0.049,0.088,0.088,0.117,0.117c0.037,0.037,0.055,0.083,0.055,0.14C58.62,47.931,58.601,47.978,58.564,48.014z"
       id="path635" />
    <path
       i:knockout="Off"
       fill="#666666"
       stroke="none"
       d="M61.195,46.342c-0.036,0.037-0.082,0.056-0.136,0.058     c-0.054,0.002-0.099-0.016-0.137-0.053c-0.04-0.04-0.06-0.084-0.062-0.135c-0.002-0.05,0.016-0.094,0.052-0.13     c0.036-0.036,0.082-0.056,0.135-0.057c0.054-0.002,0.1,0.015,0.137,0.052c0.037,0.037,0.057,0.082,0.06,0.133     S61.231,46.305,61.195,46.342z M59.045,48.492c-0.037,0.037-0.082,0.052-0.135,0.048c-0.053-0.004-0.098-0.025-0.134-0.061     c-0.036-0.036-0.053-0.081-0.05-0.134c0.003-0.053,0.022-0.098,0.059-0.134l1.592-1.593c0.034-0.034,0.077-0.05,0.129-0.05     c0.052,0.001,0.096,0.02,0.132,0.056c0.036,0.036,0.054,0.082,0.054,0.138c0,0.056-0.019,0.102-0.055,0.138L59.045,48.492z      M59.044,48.493c-0.037,0.037-0.082,0.052-0.135,0.048c-0.053-0.005-0.098-0.025-0.134-0.062     c-0.036-0.036-0.053-0.081-0.05-0.134c0.002-0.053,0.022-0.097,0.059-0.134L59.044,48.493z"
       id="path636" />
    <path
       i:knockout="Off"
       fill="#666666"
       stroke="none"
       d="M61.935,49.775c-0.259,0.258-0.57,0.388-0.936,0.388     c-0.365,0-0.675-0.127-0.931-0.382c-0.258-0.258-0.387-0.569-0.386-0.935s0.13-0.677,0.389-0.935     c0.256-0.256,0.566-0.385,0.932-0.385c0.365,0,0.676,0.128,0.935,0.386c0.255,0.255,0.383,0.566,0.382,0.931     C62.318,49.208,62.191,49.519,61.935,49.775z M61.665,49.503c0.183-0.183,0.275-0.404,0.277-0.663     c0.001-0.259-0.089-0.479-0.271-0.662c-0.185-0.185-0.406-0.275-0.665-0.274c-0.259,0.002-0.479,0.094-0.663,0.277     c-0.183,0.183-0.274,0.403-0.274,0.661c-0.001,0.258,0.091,0.479,0.276,0.664c0.182,0.182,0.402,0.273,0.659,0.272     C61.262,49.777,61.482,49.686,61.665,49.503z"
       id="path637" />
    <path
       i:knockout="Off"
       fill="#666666"
       stroke="none"
       d="M63.165,52.6c-0.037,0.037-0.083,0.055-0.139,0.055     s-0.102-0.018-0.138-0.054s-0.055-0.08-0.058-0.131c-0.002-0.05,0.016-0.094,0.052-0.13l0.771-0.771     c0.182-0.183,0.275-0.404,0.277-0.663c0.001-0.259-0.089-0.479-0.271-0.662c-0.185-0.185-0.406-0.276-0.666-0.275     c-0.259,0.002-0.48,0.095-0.662,0.277c0.002-0.002-0.25,0.25-0.756,0.756c-0.04,0.039-0.087,0.059-0.142,0.059     c-0.056,0-0.102-0.017-0.138-0.053c-0.036-0.037-0.055-0.08-0.056-0.132s0.017-0.097,0.054-0.133l0.771-0.771     c0.256-0.256,0.564-0.384,0.926-0.386c0.361,0,0.672,0.127,0.93,0.386c0.256,0.256,0.383,0.566,0.384,0.932     c0,0.365-0.128,0.676-0.383,0.932L63.165,52.6z"
       id="path638" />
  </g>
  <g
     i:knockout="Off"
     id="g639"
     style="font-size:12;stroke:#000000;">
    <path
       i:knockout="Off"
       opacity="0.3"
       fill="#FFFFFF"
       stroke="none"
       d="M69.5,65c39.25,10.5,54-9.5,44.97-24.978     C104.948,23.702,87.493,12.5,67.25,12.5C37.289,12.5,13,36.789,13,66.75c0,15.924,8,32,17.789,40.171     C31.043,107.133,30.25,54.5,69.5,65z"
       id="path640" />
  </g>
</svg>
