<?xml version="1.0" encoding="UTF-8" standalone="no"?>
<!DOCTYPE svg PUBLIC "-//W3C//DTD SVG 1.0//EN"
"http://www.w3.org/TR/2001/REC-SVG-20010904/DTD/svg10.dtd">
<!-- Created with Sodipodi ("http://www.sodipodi.com/") -->
<svg
   xmlns="http://www.w3.org/2000/svg"
   xmlns:xlink="http://www.w3.org/1999/xlink"
   version="1.0"
   x="0"
   y="0"
   width="60"
   height="60"
   viewBox="0 0 121 132"
   id="svg602"
   xml:space="preserve"><defs
   id="defs673"><linearGradient
   x1="32.1254997"
   y1="31.8334999"
   x2="72.7509995"
   y2="72.4589996"
   id="XMLID_3_"
   gradientUnits="userSpaceOnUse"><stop
   style="stop-color:#ffffff;stop-opacity:1;"
   offset="0"
   id="stop627" /><stop
   style="stop-color:#7f7f7f;stop-opacity:1;"
   offset="1"
   id="stop628" /><a:midPointStop
   offset="0"
   style="stop-color:#FFFFFF"
   id="midPointStop629" /><a:midPointStop
   offset="0.5"
   style="stop-color:#FFFFFF"
   id="midPointStop630" /><a:midPointStop
   offset="1"
   style="stop-color:#7F7F7F"
   id="midPointStop631" /></linearGradient><linearGradient
   x1="32.1254997"
   y1="76.375"
   x2="72.7509995"
   y2="117.000504"
   id="XMLID_4_"
   gradientUnits="userSpaceOnUse"><stop
   style="stop-color:#ffffff;stop-opacity:1;"
   offset="0"
   id="stop634" /><stop
   style="stop-color:#7f7f7f;stop-opacity:1;"
   offset="1"
   id="stop635" /><a:midPointStop
   offset="0"
   style="stop-color:#FFFFFF"
   id="midPointStop636" /><a:midPointStop
   offset="0.5"
   style="stop-color:#FFFFFF"
   id="midPointStop637" /><a:midPointStop
   offset="1"
   style="stop-color:#7F7F7F"
   id="midPointStop638" /></linearGradient><linearGradient
   x1="60.2714996"
   y1="61.5629997"
   x2="44.4382019"
   y2="45.7296982"
   id="XMLID_6_"
   gradientUnits="userSpaceOnUse"><stop
   style="stop-color:#bfbfbf;stop-opacity:1;"
   offset="0"
   id="stop658" /><stop
   style="stop-color:#000000;stop-opacity:1;"
   offset="1"
   id="stop659" /><a:midPointStop
   offset="0"
   style="stop-color:#BFBFBF"
   id="midPointStop660" /><a:midPointStop
   offset="0.5"
   style="stop-color:#BFBFBF"
   id="midPointStop661" /><a:midPointStop
   offset="1"
   style="stop-color:#000000"
   id="midPointStop662" /></linearGradient><linearGradient
   x1="60.2714996"
   y1="105.5625"
   x2="44.4382019"
   y2="89.7292023"
   id="XMLID_7_"
   gradientUnits="userSpaceOnUse"><stop
   style="stop-color:#bfbfbf;stop-opacity:1;"
   offset="0"
   id="stop665" /><stop
   style="stop-color:#000000;stop-opacity:1;"
   offset="1"
   id="stop666" /><a:midPointStop
   offset="0"
   style="stop-color:#BFBFBF"
   id="midPointStop667" /><a:midPointStop
   offset="0.5"
   style="stop-color:#BFBFBF"
   id="midPointStop668" /><a:midPointStop
   offset="1"
   style="stop-color:#000000"
   id="midPointStop669" /></linearGradient></defs><g
   style="font-size:12;stroke:#000000;"
   id="g606"><linearGradient
   x1="-1.21580005"
   y1="21.1182003"
   x2="62.6669006"
   y2="85.0008011"
   id="XMLID_1_"
   gradientUnits="userSpaceOnUse"><stop
   style="stop-color:#bfbfbf;stop-opacity:1;"
   offset="0"
   id="stop608" /><stop
   style="stop-color:#000000;stop-opacity:1;"
   offset="1"
   id="stop609" /><a:midPointStop
   offset="0"
   style="stop-color:#BFBFBF"
   id="midPointStop610" /><a:midPointStop
   offset="0.5"
   style="stop-color:#BFBFBF"
   id="midPointStop611" /><a:midPointStop
   offset="1"
   style="stop-color:#000000"
   id="midPointStop612" /></linearGradient><path
   d="M 27.666 120 L 7.666 100 L 7.666 14 C 7.666 14 7.757 12.144 9.666 10.234 C 11.575 8.324 14 8.234 14 8.234 L 55.666 8.234 L 75.666 27.999 L 27.666 27.999 L 27.666 120 L 27.666 120 z "
   style="fill:url(#XMLID_1_);stroke:none;"
   id="path613" /><path
   d="M 27.666 120 L 7.666 100 L 7.666 14 C 7.666 14 7.757 12.144 9.666 10.234 C 11.575 8.324 14 8.234 14 8.234 L 55.666 8.234 L 75.666 27.999 L 27.666 27.999 L 27.666 120 L 27.666 120 z "
   style="fill:none;stroke-linecap:round;stroke-linejoin:bevel;"
   id="path614" /></g><g
   style="font-size:12;stroke:#000000;"
   id="g617"><linearGradient
   x1="16.7255993"
   y1="39.1767998"
   x2="86.6075974"
   y2="109.0588"
   id="XMLID_2_"
   gradientUnits="userSpaceOnUse"><stop
   style="stop-color:#bfbfbf;stop-opacity:1;"
   offset="0"
   id="stop619" /><stop
   style="stop-color:#000000;stop-opacity:1;"
   offset="1"
   id="stop620" /><a:midPointStop
   offset="0"
   style="stop-color:#BFBFBF"
   id="midPointStop621" /><a:midPointStop
   offset="0.5"
   style="stop-color:#BFBFBF"
   id="midPointStop622" /><a:midPointStop
   offset="1"
   style="stop-color:#000000"
   id="midPointStop623" /></linearGradient><path
   d="M 75.666 120 L 27.666 120 L 27.666 28.235 L 75.666 28.235 L 75.666 120 z "
   style="fill:url(#XMLID_2_);stroke:none;"
   id="path624" /><path
   d="M 75.666 120 L 27.666 120 L 27.666 28.235 L 75.666 28.235 L 75.666 120 z "
   style="fill:none;"
   id="path625" /></g><path
   d="M 72.751 31.833 L 32.125 31.833 L 32.125 72.459 L 72.751 72.459 L 72.751 31.833 z "
   style="font-size:12;fill:url(#XMLID_3_);stroke:#000000;"
   id="path632" /><path
   d="M 72.751 76.374 L 32.125 76.374 L 32.125 117 L 72.751 117 L 72.751 76.374 z "
   style="font-size:12;fill:url(#XMLID_4_);stroke:#000000;"
   id="path639" /><path
   d="M 53.417 28.042 L 71.75 36.167 "
   style="font-size:12;fill:none;stroke:#000000;"
   id="path640" /><g
   style="font-size:12;stroke:#000000;"
   id="g643"><linearGradient
   x1="103.714798"
   y1="51.8700981"
   x2="65.7721024"
   y2="13.9273005"
   id="XMLID_5_"
   gradientUnits="userSpaceOnUse"><stop
   style="stop-color:#cb7429;stop-opacity:1;"
   offset="0"
   id="stop645" /><stop
   style="stop-color:#fdbf6f;stop-opacity:1;"
   offset="1"
   id="stop646" /><a:midPointStop
   offset="0"
   style="stop-color:#CB7429"
   id="midPointStop647" /><a:midPointStop
   offset="0.5"
   style="stop-color:#CB7429"
   id="midPointStop648" /><a:midPointStop
   offset="1"
   style="stop-color:#FDBF6F"
   id="midPointStop649" /></linearGradient><path
   d="M 53.625 27.833 C 61.633 12.645 80.438 6.825 95.625 14.833 C 107.775 21.239 112.432 36.282 106.025 48.433 C 100.899 58.154 88.865 61.879 79.145 56.754 C 71.369 52.654 68.388 43.026 72.488 35.25 C 75.769 29.029 83.471 26.645 89.692 29.925 C 94.669 32.549 96.576 38.711 93.952 43.687 C 91.852 47.668 86.924 49.195 82.942 47.095 C 79.756 45.415 78.536 41.472 80.215 38.286 C 81.559 35.739 84.713 34.762 87.261 36.105 C 89.3 37.18 90.081 39.704 89.006 41.743 C 88.147 43.373 86.127 43.999 84.496 43.139 C 83.191 42.451 82.691 40.835 83.38 39.531 C 83.93 38.488 85.222 38.088 86.266 38.638 C 87.101 39.077 87.421 40.112 86.981 40.947 C 86.628 41.615 85.802 41.871 85.134 41.519 "
   style="fill:url(#XMLID_5_);stroke:none;"
   id="path650" /><path
   d="M 53.625 27.833 C 61.633 12.645 80.438 6.825 95.625 14.833 C 107.775 21.239 112.432 36.282 106.025 48.433 C 100.899 58.154 88.865 61.879 79.145 56.754 C 71.369 52.654 68.388 43.026 72.488 35.25 C 75.769 29.029 83.471 26.645 89.692 29.925 C 94.669 32.549 96.576 38.711 93.952 43.687 C 91.852 47.668 86.924 49.195 82.942 47.095 C 79.756 45.415 78.536 41.472 80.215 38.286 C 81.559 35.739 84.713 34.762 87.261 36.105 C 89.3 37.18 90.081 39.704 89.006 41.743 C 88.147 43.373 86.127 43.999 84.496 43.139 C 83.191 42.451 82.691 40.835 83.38 39.531 C 83.93 38.488 85.222 38.088 86.266 38.638 C 87.101 39.077 87.421 40.112 86.981 40.947 C 86.628 41.615 85.802 41.871 85.134 41.519 "
   style="fill:none;"
   id="path651" /></g><g
   style="font-size:12;fill:#eefcff;fill-opacity:0.0611;stroke:#eefcff;stroke-opacity:0.0305;"
   id="g654"><path
   d="M 84.024 35.271 C 68.377 19.624 53.625 27.5 53.625 27.5 C 61.633 12.312 80.438 6.492 95.625 14.5 C 107.775 20.906 112.432 35.95 106.025 48.1 C 106.025 48.1 99.672 50.919 84.024 35.271 z "
   id="path655" /><path
   d="M 84.024 35.271 C 68.377 19.624 53.625 27.5 53.625 27.5 C 61.633 12.312 80.438 6.492 95.625 14.5 C 107.775 20.906 112.432 35.95 106.025 48.1 C 106.025 48.1 99.672 50.919 84.024 35.271 z "
   id="path656" /></g><path
   d="M 65.167 56.666 L 39.542 56.666 L 39.542 50.625 L 43.084 50.625 L 43.084 54.166 L 62.042 54.166 L 62 50.625 L 65.167 50.625 L 65.167 56.666 z "
   style="font-size:12;fill:url(#XMLID_6_);stroke:#000000;"
   id="path663" /><path
   d="M 65.167 100.666 L 39.542 100.666 L 39.542 94.625 L 43.084 94.625 L 43.084 98.166 L 62.042 98.166 L 62 94.625 L 65.167 94.625 L 65.167 100.666 z "
   style="font-size:12;fill:url(#XMLID_7_);stroke:#000000;"
   id="path670" /><path
   d="M 27.583 28.042 L 9.875 10.333 "
   style="font-size:12;fill:none;stroke:#000000;stroke-linecap:round;stroke-linejoin:bevel;"
   id="path671" /></svg>
