<?xml version="1.0" encoding="UTF-8" standalone="no"?>
<!DOCTYPE svg PUBLIC "-//W3C//DTD SVG 1.0//EN"
"http://www.w3.org/TR/2001/REC-SVG-20010904/DTD/svg10.dtd">
<!-- Created with Sodipodi ("http://www.sodipodi.com/") -->
<svg
   xmlns="http://www.w3.org/2000/svg"
   xmlns:xlink="http://www.w3.org/1999/xlink"
   version="1.0"
   x="0"
   y="0"
   width="60"
   height="60"
   viewBox="0 0 131 145"
   id="svg602"
   xml:space="preserve"><defs
   id="defs668" /><g
   style="font-size:12;stroke:#000000;"
   id="g606"><linearGradient
   x1="8.3817997"
   y1="26.8535004"
   x2="108.619102"
   y2="127.090698"
   id="XMLID_1_"
   gradientUnits="userSpaceOnUse"><stop
   style="stop-color:#ffffff;stop-opacity:1;"
   offset="0"
   id="stop608" /><stop
   style="stop-color:#bfbfbf;stop-opacity:1;"
   offset="1"
   id="stop609" /><a:midPointStop
   offset="0"
   style="stop-color:#FFFFFF"
   id="midPointStop610" /><a:midPointStop
   offset="0.5"
   style="stop-color:#FFFFFF"
   id="midPointStop611" /><a:midPointStop
   offset="1"
   style="stop-color:#BFBFBF"
   id="midPointStop612" /></linearGradient><path
   d="M 109.5 124.972 C 109.5 126.622 108.15 127.972 106.5 127.972 L 10.5 127.972 C 8.85 127.972 7.5 126.622 7.5 124.972 L 7.5 28.972 C 7.5 27.322 8.85 25.972 10.5 25.972 L 106.5 25.972 C 108.15 25.972 109.5 27.322 109.5 28.972 L 109.5 124.972 z "
   style="fill:url(#XMLID_1_);stroke:none;"
   id="path613" /><path
   d="M 109.5 124.972 C 109.5 126.622 108.15 127.972 106.5 127.972 L 10.5 127.972 C 8.85 127.972 7.5 126.622 7.5 124.972 L 7.5 28.972 C 7.5 27.322 8.85 25.972 10.5 25.972 L 106.5 25.972 C 108.15 25.972 109.5 27.322 109.5 28.972 L 109.5 124.972 z "
   style="fill:none;"
   id="path614" /></g><g
   style="font-size:12;stroke:#000000;"
   id="g617"><linearGradient
   x1="22.6054993"
   y1="84.4932022"
   x2="43.2510986"
   y2="105.138702"
   id="XMLID_2_"
   gradientUnits="userSpaceOnUse"><stop
   style="stop-color:#bfbfbf;stop-opacity:1;"
   offset="0"
   id="stop619" /><stop
   style="stop-color:#000000;stop-opacity:1;"
   offset="1"
   id="stop620" /><a:midPointStop
   offset="0"
   style="stop-color:#BFBFBF"
   id="midPointStop621" /><a:midPointStop
   offset="0.5"
   style="stop-color:#BFBFBF"
   id="midPointStop622" /><a:midPointStop
   offset="1"
   style="stop-color:#000000"
   id="midPointStop623" /></linearGradient><path
   d="M 49.833 85.014 L 49.833 98.556 C 44.416 93.139 19.791 108.555 19.791 108.555 C 19.791 108.555 34.062 81.576 29.791 77.306 L 42.291 77.306 L 49.833 85.014 z "
   style="fill:url(#XMLID_2_);stroke:none;"
   id="path624" /><path
   d="M 49.833 85.014 L 49.833 98.556 C 44.416 93.139 19.791 108.555 19.791 108.555 C 19.791 108.555 34.062 81.576 29.791 77.306 L 42.291 77.306 L 49.833 85.014 z "
   style="fill:none;"
   id="path625" /></g><g
   style="font-size:12;stroke:#000000;"
   id="g628"><path
   d="M 21.083 107.43 L 34.833 93.138 "
   style="fill:none;"
   id="path629" /></g><g
   style="font-size:12;stroke:#000000;"
   id="g632"><path
   d="M 36.125 93.68 C 36.125 94.969 35.08 96.014 33.792 96.014 C 32.504 96.014 31.459 94.969 31.459 93.68 C 31.459 92.391 32.504 91.346 33.792 91.346 C 35.08 91.346 36.125 92.391 36.125 93.68 z "
   style="stroke:none;"
   id="path633" /></g><g
   style="font-size:12;stroke:#000000;"
   id="g636"><linearGradient
   x1="78.3867035"
   y1="8"
   x2="78.3867035"
   y2="89.2300034"
   id="XMLID_3_"
   gradientUnits="userSpaceOnUse"><stop
   style="stop-color:#80999c;stop-opacity:1;"
   offset="0"
   id="stop638" /><stop
   style="stop-color:#406771;stop-opacity:1;"
   offset="1"
   id="stop639" /><a:midPointStop
   offset="0"
   style="stop-color:#80999C"
   id="midPointStop640" /><a:midPointStop
   offset="0.5"
   style="stop-color:#80999C"
   id="midPointStop641" /><a:midPointStop
   offset="1"
   style="stop-color:#406771"
   id="midPointStop642" /></linearGradient><path
   d="M 118.427 8 C 118.427 8 112.499 30.715 91.769 51.446 C 81.28 61.934 68.71 69.48 60.824 76.354 C 53.124 83.067 49.985 89.23 49.985 89.23 L 38.347 77.591 C 38.347 77.591 44.624 74.43 51.083 67.034 C 58.362 58.699 66.413 45.525 76.236 35.702 C 94.775 17.163 118.427 8 118.427 8 z "
   style="fill:url(#XMLID_3_);stroke:none;"
   id="path643" /><path
   d="M 118.427 8 C 118.427 8 112.499 30.715 91.769 51.446 C 81.28 61.934 68.71 69.48 60.824 76.354 C 53.124 83.067 49.985 89.23 49.985 89.23 L 38.347 77.591 C 38.347 77.591 44.624 74.43 51.083 67.034 C 58.362 58.699 66.413 45.525 76.236 35.702 C 94.775 17.163 118.427 8 118.427 8 z "
   style="fill:none;"
   id="path644" /></g><g
   style="font-size:12;stroke:#000000;"
   id="g647"><linearGradient
   x1="95.8525009"
   y1="101.6436"
   x2="75.7317963"
   y2="81.5227966"
   id="XMLID_4_"
   gradientUnits="userSpaceOnUse"><stop
   style="stop-color:#7f7f7f;stop-opacity:1;"
   offset="0"
   id="stop649" /><stop
   style="stop-color:#000000;stop-opacity:1;"
   offset="1"
   id="stop650" /><a:midPointStop
   offset="0"
   style="stop-color:#7F7F7F"
   id="midPointStop651" /><a:midPointStop
   offset="0.5"
   style="stop-color:#7F7F7F"
   id="midPointStop652" /><a:midPointStop
   offset="1"
   style="stop-color:#000000"
   id="midPointStop653" /></linearGradient><path
   d="M 102.876 91.583 C 102.876 85.37 95.228 80.334 85.792 80.334 C 76.357 80.334 68.708 85.37 68.708 91.583 C 68.708 97.796 76.357 102.832 85.792 102.832 C 95.228 102.832 102.876 97.796 102.876 91.583 z "
   style="fill:url(#XMLID_4_);stroke:none;"
   id="path654" /><path
   d="M 102.876 91.583 C 102.876 85.37 95.228 80.334 85.792 80.334 C 76.357 80.334 68.708 85.37 68.708 91.583 C 68.708 97.796 76.357 102.832 85.792 102.832 C 95.228 102.832 102.876 97.796 102.876 91.583 z "
   style="fill:none;"
   id="path655" /></g><g
   style="font-size:12;stroke:#000000;"
   id="g658"><linearGradient
   x1="68.9912033"
   y1="91.3007965"
   x2="102.5933"
   y2="124.902901"
   id="XMLID_5_"
   gradientUnits="userSpaceOnUse"><stop
   style="stop-color:#7f7f7f;stop-opacity:1;"
   offset="0"
   id="stop660" /><stop
   style="stop-color:#000000;stop-opacity:1;"
   offset="1"
   id="stop661" /><a:midPointStop
   offset="0"
   style="stop-color:#7F7F7F"
   id="midPointStop662" /><a:midPointStop
   offset="0.5"
   style="stop-color:#7F7F7F"
   id="midPointStop663" /><a:midPointStop
   offset="1"
   style="stop-color:#000000"
   id="midPointStop664" /></linearGradient><path
   d="M 99.876 111.333 C 99.876 122.667 102.876 121.583 102.876 121.583 C 102.876 127.796 95.228 132.832 85.792 132.832 C 76.357 132.832 68.708 127.796 68.708 121.583 C 68.708 121.583 71.708 123.001 71.708 110.667 C 71.708 98.333 68.708 91.583 68.708 91.583 C 68.708 97.796 76.357 102.832 85.792 102.832 C 95.228 102.832 102.876 97.796 102.876 91.583 C 102.876 91.583 99.876 99.999 99.876 111.333 z "
   style="fill:url(#XMLID_5_);stroke:none;"
   id="path665" /><path
   d="M 99.876 111.333 C 99.876 122.667 102.876 121.583 102.876 121.583 C 102.876 127.796 95.228 132.832 85.792 132.832 C 76.357 132.832 68.708 127.796 68.708 121.583 C 68.708 121.583 71.708 123.001 71.708 110.667 C 71.708 98.333 68.708 91.583 68.708 91.583 C 68.708 97.796 76.357 102.832 85.792 102.832 C 95.228 102.832 102.876 97.796 102.876 91.583 C 102.876 91.583 99.876 99.999 99.876 111.333 z "
   style="fill:none;"
   id="path666" /></g></svg>
