<?xml version="1.0" encoding="UTF-8" standalone="no"?>
<!DOCTYPE svg PUBLIC "-//W3C//DTD SVG 1.0//EN"
"http://www.w3.org/TR/2001/REC-SVG-20010904/DTD/svg10.dtd">
<!-- Created with Sodipodi ("http://www.sodipodi.com/") -->
<svg
   xmlns="http://www.w3.org/2000/svg"
   xmlns:xlink="http://www.w3.org/1999/xlink"
   version="1.0"
   x="0"
   y="0"
   width="60"
   height="60"
   viewBox="0 0 138.757 138.326"
   id="svg602"
   xml:space="preserve"><defs
   id="defs688"><linearGradient
   x1="24.4741001"
   y1="50.5264015"
   x2="74.4742966"
   y2="100.526604"
   id="XMLID_6_"
   gradientUnits="userSpaceOnUse"><stop
   style="stop-color:#ffffff;stop-opacity:1;"
   offset="0"
   id="stop679" /><stop
   style="stop-color:#59b43e;stop-opacity:1;"
   offset="1"
   id="stop680" /><a:midPointStop
   offset="0"
   style="stop-color:#FFFFFF"
   id="midPointStop681" /><a:midPointStop
   offset="0.5"
   style="stop-color:#FFFFFF"
   id="midPointStop682" /><a:midPointStop
   offset="1"
   style="stop-color:#59B43E"
   id="midPointStop683" /></linearGradient></defs><metadata
   id="metadata603"><sfw><slices /><sliceSourceBounds
   y="322.674"
   x="237"
   width="138.757"
   height="138.326"
   bottomLeftOrigin="true" /></sfw><ns:variableSets
   xmlns="http://ns.adobe.com/Variables/1.0/"><ns:variableSet
   varSetName="binding1"
   locked="none"><ns:variables /><ns:sampleDataSets
   xmlns="http://ns.adobe.com/GenericCustomNamespace/1.0/"
   xmlns:v="http://ns.adobe.com/Variables/1.0/" /></ns:variableSet></ns:variableSets></metadata><g
   transform="matrix(1.092832,0,0,1.092832,-4.829352,-4.763118)"
   style="font-size:12;stroke:#000000;"
   id="g608"><linearGradient
   x1="20.0238991"
   y1="20.1499004"
   x2="77.4763031"
   y2="77.6023026"
   id="XMLID_1_"
   gradientUnits="userSpaceOnUse"><stop
   style="stop-color:#ffffff;stop-opacity:1;"
   offset="0"
   id="stop610" /><stop
   style="stop-color:#2d345e;stop-opacity:1;"
   offset="1"
   id="stop611" /><a:midPointStop
   offset="0"
   style="stop-color:#FFFFFF"
   id="midPointStop612" /><a:midPointStop
   offset="0.5"
   style="stop-color:#FFFFFF"
   id="midPointStop613" /><a:midPointStop
   offset="1"
   style="stop-color:#2D345E"
   id="midPointStop614" /></linearGradient><path
   d="M 89.375 48.875 C 89.375 26.438 71.187 8.25 48.75 8.25 C 26.313 8.25 8.125 26.438 8.125 48.875 C 8.125 71.312 26.313 89.501 48.75 89.501 C 71.187 89.501 89.375 71.313 89.375 48.875 z "
   style="fill:url(#XMLID_1_);stroke:none;"
   id="path615" /><path
   d="M 89.375 48.875 C 89.375 26.438 71.187 8.25 48.75 8.25 C 26.313 8.25 8.125 26.438 8.125 48.875 C 8.125 71.312 26.313 89.501 48.75 89.501 C 71.187 89.501 89.375 71.313 89.375 48.875 z "
   style="fill:none;stroke:#6f708c;"
   id="path616" /></g><g
   transform="matrix(1.092832,0,0,1.092832,-4.829352,-4.763118)"
   style="font-size:12;stroke:#000000;"
   id="g619"><g
   id="g620"><path
   d="M 10.093 35.99 L 84.901 66.414 "
   style="fill:none;stroke:#7c7c96;"
   id="path621" /><path
   d="M 13.576 28.294 L 87.943 58.54 "
   style="fill:none;stroke:#7c7c96;"
   id="path622" /><path
   d="M 18.349 21.852 L 89.197 50.665 "
   style="fill:none;stroke:#7c7c96;"
   id="path623" /><path
   d="M 24.674 16.125 L 88.659 42.148 "
   style="fill:none;stroke:#7c7c96;"
   id="path624" /><path
   d="M 33.087 11.292 L 86.333 32.947 "
   style="fill:none;stroke:#7c7c96;"
   id="path625" /><path
   d="M 43.038 8.608 L 80.786 23.96 "
   style="fill:none;stroke:#7c7c96;"
   id="path626" /><path
   d="M 8.274 43.864 L 81.322 73.573 "
   style="fill:none;stroke:#7c7c96;"
   id="path627" /><path
   d="M 8.283 51.56 L 76.05 79.121 "
   style="fill:none;stroke:#7c7c96;"
   id="path628" /><path
   d="M 9.91 60.508 L 68.436 84.311 "
   style="fill:none;stroke:#7c7c96;"
   id="path629" /><path
   d="M 13.366 69.277 L 59.13 87.891 "
   style="fill:none;stroke:#7c7c96;"
   id="path630" /><path
   d="M 21.905 79.423 L 46.245 89.322 "
   style="fill:none;stroke:#7c7c96;"
   id="path631" /><path
   d="M 64.32 11.292 L 32.643 86.279 "
   style="fill:none;stroke:#7c7c96;"
   id="path632" /><path
   d="M 73.626 17.02 C 73.626 17.02 67.278 39.139 61.235 52.15 C 55.192 65.161 43.234 88.964 43.234 88.964 "
   style="fill:none;stroke:#7c7c96;"
   id="path633" /><path
   d="M 82.217 25.61 C 82.217 25.61 77.395 46.016 73.095 57.11 C 68.794 68.204 55.53 88.785 55.53 88.785 "
   style="fill:none;stroke:#7c7c96;"
   id="path634" /><path
   d="M 88.659 40.643 C 88.659 40.643 87.111 54.949 84.038 61.487 C 80.964 68.025 70.893 82.7 70.893 82.7 "
   style="fill:none;stroke:#7c7c96;"
   id="path635" /><path
   d="M 54.298 8.429 C 54.298 8.429 42.448 29.14 36.74 41.782 C 31.032 54.424 23.755 80.732 23.755 80.732 "
   style="fill:none;stroke:#7c7c96;"
   id="path636" /><path
   d="M 43.56 8.429 C 43.56 8.429 32.664 25.442 26.748 37.606 C 20.831 49.771 16.268 73.036 16.268 73.036 "
   style="fill:none;stroke:#7c7c96;"
   id="path637" /><path
   d="M 31.39 12.008 C 31.39 12.008 22.676 22.461 17.1 34.952 C 11.524 47.444 10.271 61.999 10.271 61.999 "
   style="fill:none;stroke:#7c7c96;"
   id="path638" /></g></g><g
   transform="matrix(1.092832,0,0,1.092832,-4.829352,-4.763118)"
   style="font-size:12;stroke:#000000;"
   id="g639"><linearGradient
   x1="15.8105001"
   y1="24.8813"
   x2="72.7332993"
   y2="81.8041"
   id="XMLID_2_"
   gradientUnits="userSpaceOnUse"><stop
   style="stop-color:#ffffff;stop-opacity:1;"
   offset="0"
   id="stop641" /><stop
   style="stop-color:#648761;stop-opacity:1;"
   offset="1"
   id="stop642" /><a:midPointStop
   offset="0"
   style="stop-color:#FFFFFF"
   id="midPointStop643" /><a:midPointStop
   offset="0.5"
   style="stop-color:#FFFFFF"
   id="midPointStop644" /><a:midPointStop
   offset="1"
   style="stop-color:#648761"
   id="midPointStop645" /></linearGradient><path
   d="M 12.241 31.337 C 12.241 31.337 15.283 30.084 15.641 31.158 C 15.999 32.232 14.746 39.212 16.357 39.928 C 17.968 40.644 14.03 46.013 14.746 48.876 C 15.462 51.739 19.399 55.498 22.442 59.077 C 25.484 62.657 24.947 63.373 26.379 64.626 C 27.811 65.878 34.433 67.489 38.728 67.489 C 43.023 67.489 43.202 69.815 44.812 69.636 C 46.423 69.457 48.392 67.489 49.465 68.741 C 50.539 69.993 46.244 74.109 50.36 77.152 C 54.476 80.194 59.488 77.868 60.204 79.658 C 60.92 81.447 57.579 86.935 59.548 87.831 C 60.723 88.365 71.479 83.059 73.09 81.447 C 74.7 79.837 76.669 71.604 79.175 69.993 C 81.68 68.383 83.291 60.508 79.891 59.792 C 76.491 59.076 73.09 61.045 72.374 62.656 C 71.658 64.266 63.962 62.298 63.067 61.94 C 62.172 61.582 52.866 63.372 50.897 64.803 C 48.928 66.234 46.423 68.919 44.812 68.382 C 43.202 67.845 43.202 64.624 39.443 64.624 C 35.684 64.624 40.159 61.402 37.653 61.224 C 35.147 61.044 36.042 63.55 34.253 63.729 C 32.463 63.908 25.126 61.044 31.211 56.212 C 37.295 51.38 38.548 54.96 40.338 56.57 C 42.128 58.18 41.233 54.78 39.622 53.17 C 38.012 51.559 40.159 49.053 41.054 48.517 C 41.949 47.98 39.622 42.253 43.202 38.674 C 46.781 35.095 43.739 34.737 42.665 34.2 C 41.591 33.663 47.139 31.695 46.96 30.262 C 46.781 28.83 36.58 26.146 35.327 26.862 C 34.074 27.578 37.117 35.453 35.506 35.274 C 33.895 35.095 28.527 34.2 27.453 31.516 C 26.379 28.831 31.569 25.968 29.243 24.715 C 26.917 23.462 25.843 26.326 24.411 25.789 C 22.979 25.252 19.221 22.926 19.221 21.673 C 19.221 20.42 13.672 27.042 12.241 31.337 z "
   style="fill:url(#XMLID_2_);stroke:#6f708c;"
   id="path646" /><linearGradient
   x1="72.2217026"
   y1="20.0366001"
   x2="90.6548004"
   y2="38.4696999"
   id="XMLID_3_"
   gradientUnits="userSpaceOnUse"><stop
   style="stop-color:#ffffff;stop-opacity:1;"
   offset="0"
   id="stop648" /><stop
   style="stop-color:#648761;stop-opacity:1;"
   offset="1"
   id="stop649" /><a:midPointStop
   offset="0"
   style="stop-color:#FFFFFF"
   id="midPointStop650" /><a:midPointStop
   offset="0.5"
   style="stop-color:#FFFFFF"
   id="midPointStop651" /><a:midPointStop
   offset="1"
   style="stop-color:#648761"
   id="midPointStop652" /></linearGradient><path
   d="M 74.521 17.735 C 74.521 17.735 74.521 25.61 79.174 31.873 C 80.692 33.916 82.191 33.431 83.521 34.744 C 86.27 37.455 88.301 40.822 88.301 40.822 C 88.301 40.822 83.827 22.925 74.521 17.735 z "
   style="fill:url(#XMLID_3_);stroke:#6f708c;"
   id="path653" /><linearGradient
   x1="58.7559013"
   y1="9.51860046"
   x2="72.3351974"
   y2="23.0979004"
   id="XMLID_4_"
   gradientUnits="userSpaceOnUse"><stop
   style="stop-color:#ffffff;stop-opacity:1;"
   offset="0"
   id="stop655" /><stop
   style="stop-color:#648761;stop-opacity:1;"
   offset="1"
   id="stop656" /><a:midPointStop
   offset="0"
   style="stop-color:#FFFFFF"
   id="midPointStop657" /><a:midPointStop
   offset="0.5"
   style="stop-color:#FFFFFF"
   id="midPointStop658" /><a:midPointStop
   offset="1"
   style="stop-color:#648761"
   id="midPointStop659" /></linearGradient><path
   d="M 58.593 9.682 C 58.593 9.682 63.425 12.009 61.993 13.44 C 60.561 14.871 55.551 14.156 58.951 15.587 C 62.351 17.019 64.857 14.692 65.752 16.303 C 66.647 17.913 67.362 17.377 68.078 17.555 C 68.794 17.734 70.941 23.998 72.194 23.103 C 73.447 22.208 75.058 21.313 72.731 19.344 C 70.405 17.376 68.615 13.796 70.046 14.512 C 71.477 15.228 62.53 9.324 58.593 9.682 z "
   style="fill:url(#XMLID_4_);stroke:#6f708c;"
   id="path660" /></g><g
   transform="matrix(1.092832,0,0,1.092832,-4.829352,-4.763118)"
   style="font-size:12;fill-opacity:0.1;stroke:#000000;"
   id="g663"><path
   d="M 82.741 26.619 C 75.483 15.556 62.97 8.25 48.75 8.25 C 26.313 8.25 8.125 26.438 8.125 48.875 C 8.125 60.685 13.469 71 21.21 78.741 C 21.898 79.429 5.335 38.666 48.334 51.666 C 91.333 64.666 86.936 33.012 82.741 26.619 z "
   style="stroke:none;"
   id="path664" /></g><g
   transform="matrix(1.092832,0,0,1.092832,-4.829352,-4.763118)"
   style="font-size:12;stroke:#000000;"
   id="g667"><path
   d="M 128.844 117.733 C 108.083 120.71 87.323 123.686 66.562 126.663 C 68.951 97.228 52.662 68.251 55.198 39.729 C 72.171 42.021 89.143 44.313 106.115 46.605 C 108.651 70.771 126.455 94.48 128.844 117.733 z "
   style="fill:none;stroke-width:2;stroke-linecap:round;stroke-linejoin:round;"
   id="path668" /><linearGradient
   x1="47.3163986"
   y1="47.6118011"
   x2="123.141197"
   y2="123.4366"
   id="XMLID_5_"
   gradientUnits="userSpaceOnUse"><stop
   style="stop-color:#ffffff;stop-opacity:1;"
   offset="0"
   id="stop670" /><stop
   style="stop-color:#9fa5a6;stop-opacity:1;"
   offset="1"
   id="stop671" /><a:midPointStop
   offset="0"
   style="stop-color:#FFFFFF"
   id="midPointStop672" /><a:midPointStop
   offset="0.5"
   style="stop-color:#FFFFFF"
   id="midPointStop673" /><a:midPointStop
   offset="1"
   style="stop-color:#9FA5A6"
   id="midPointStop674" /></linearGradient><path
   d="M 128.844 117.733 C 108.083 120.71 87.323 123.686 66.562 126.663 C 68.951 97.228 52.662 68.251 55.198 39.729 C 72.171 42.021 89.143 44.313 106.115 46.605 C 108.651 70.771 126.455 94.48 128.844 117.733 z "
   style="fill:url(#XMLID_5_);stroke:none;"
   id="path675" /></g><g
   transform="matrix(1.092832,0,0,1.092832,-4.829352,-4.763118)"
   style="font-size:12;opacity:0.3;stroke:#000000;"
   id="g676"><path
   d="M 56.249 61.262 C 55.11 54.055 54.563 46.878 55.198 39.729 C 72.171 42.021 89.143 44.313 106.115 46.605 C 107.335 58.22 112.08 69.73 116.946 81.133 C 122.205 93.456 127.603 105.655 128.843 117.734 C 123.33 113.729 116.027 104.722 109.333 99.633 C 102.574 94.054 97.222 92.692 92.321 92.605 C 87.375 92.36 82.761 93.443 76.752 89.103 C 70.974 85.085 63.149 75.475 56.249 61.262 z "
   style="fill:#ffffff;stroke:none;"
   id="path677" /></g><path
   d="M 16.66337 55.70652 C 16.66337 55.70652 18.48512 102.6983 68.39035 102.6983 L 68.75426 112.8988 L 91.1584 90.49462 L 65.47686 64.81309 L 65.84078 76.47032 C 65.84078 76.47032 17.75619 80.47773 17.75619 55.70652 L 16.66337 55.70652 z "
   style="font-size:12;fill:url(#XMLID_6_);stroke:#000000;stroke-width:1.092832;"
   id="path684" /><g
   transform="matrix(1.092832,0,0,1.092832,-4.829352,-4.763118)"
   style="font-size:12;stroke:#000000;"
   id="g685"><path
   d="M 19.667 55.333 C 19.667 55.333 20.6 79.414 40.209 91.534 C 46.803 95.61 37.334 84.667 61.001 84.667 C 84.668 84.667 78.336 77.667 78.336 77.667 L 64.334 63.666 L 64.667 74.333 C 64.667 74.333 20.667 78 20.667 55.333 L 19.667 55.333 z "
   style="opacity:0.3;fill:#ffffff;stroke:none;"
   id="path686" /></g></svg>
