<?xml version="1.0" encoding="UTF-8" standalone="no"?>
<!DOCTYPE svg PUBLIC "-//W3C//DTD SVG 20010904//EN"
"http://www.w3.org/TR/2001/REC-SVG-20010904/DTD/svg10.dtd">
<!-- Created with Sodipodi ("http://www.sodipodi.com/") -->
<svg
   i:viewOrigin="258.1226 457.1265"
   i:rulerOrigin="-242 -332"
   i:pageBounds="242 460 370 332"
   width="48pt"
   height="48pt"
   viewBox="0 0 103.985 124.265"
   overflow="visible"
   enable-background="new 0 0 103.985 124.265"
   xml:space="preserve"
   id="svg548"
   sodipodi:version="0.32"
   sodipodi:docname="/home/cschalle/gnome-themes-extras/Amaranth/icons/scalable/apps/gnome-applications.svg"
   sodipodi:docbase="/home/cschalle/gnome-themes-extras/Amaranth/icons/scalable/apps"
   xmlns="http://www.w3.org/2000/svg"
   xmlns:sodipodi="http://sodipodi.sourceforge.net/DTD/sodipodi-0.dtd"
   xmlns:ns="http://ns.adobe.com/Variables/1.0/"
   xmlns:i="http://ns.adobe.com/AdobeIllustrator/10.0/"
   xmlns:xml="http://www.w3.org/XML/1998/namespace"
   xmlns:a="http://ns.adobe.com/AdobeSVGViewerExtensions/3.0/"
   xmlns:xlink="http://www.w3.org/1999/xlink">
  <defs
     id="defs585" />
  <sodipodi:namedview
     id="base" />
  <metadata
     id="metadata549">
    <sfw>
      <slices />
      <sliceSourceBounds
         x="249"
         y="323"
         width="123"
         height="144"
         bottomLeftOrigin="true" />
    </sfw>
    <ns:variableSets>
      <ns:variableSet
         varSetName="binding1"
         locked="none">
        <ns:variables />
        <ns:sampleDataSets />
      </ns:variableSet>
    </ns:variableSets>
  </metadata>
  <g
     id="g553"
     style="font-size:12;stroke:#000000;">
    <linearGradient
       id="XMLID_1_"
       gradientUnits="userSpaceOnUse"
       x1="6.2358"
       y1="32.0405"
       x2="45.4879"
       y2="71.2925">
      <stop
         offset="0"
         style="stop-color:#8ACE7B"
         id="stop555" />
      <stop
         offset="1"
         style="stop-color:#0F4717"
         id="stop556" />
      <a:midPointStop
         offset="0"
         style="stop-color:#8ACE7B"
         id="midPointStop557" />
      <a:midPointStop
         offset="0.5"
         style="stop-color:#8ACE7B"
         id="midPointStop558" />
      <a:midPointStop
         offset="1"
         style="stop-color:#0F4717"
         id="midPointStop559" />
    </linearGradient>
    <path
       i:knockout="Off"
       fill="url(#XMLID_1_)"
       stroke="none"
       d="M51.358,22.326c0,1.169-0.403,2.16-1.206,2.978      c-0.806,0.817-1.78,1.223-2.927,1.223h-8.836c-2.758,0-5.394,0.269-7.918,0.8v19.629h20.047v2.864      c0,6.722-1.825,12.87-5.472,18.446c-3.645,5.576-8.546,9.851-14.697,12.828c0,2.6-0.113,4.278-0.34,5.042      c-0.535,1.757-1.788,2.634-3.762,2.634c-2.736,0-4.103-1.629-4.103-4.886c-3.039,0.713-6.002,1.067-8.888,1.067H4.484      c-2.661,0-3.988-1.398-3.988-4.199c0-1.167,0.396-2.158,1.19-2.976c0.793-0.817,1.76-1.227,2.896-1.227c1.36,0,2.802,0,4.316,0      c1.966,0,3.404,0,4.314,0c3.103,0,6.056-0.34,8.858-1.02V55.356H0.877v-4.138c0-6.897,1.948-13.031,5.85-18.397      c3.824-5.134,8.984-9.006,15.488-11.614c0-2.453,0.114-4.099,0.344-4.943c0.537-1.686,1.798-2.53,3.784-2.53      c2.755,0,4.133,1.694,4.133,5.078c2.599-0.456,5.235-0.687,7.914-0.687h8.838c1.145,0,2.117,0.409,2.923,1.227      C50.955,20.169,51.358,21.159,51.358,22.326z M22.072,46.956V29.924c-7.149,3.606-11.326,9.284-12.528,17.031H22.072z       M41.963,55.356H30.471v16.725C36.98,68.163,40.812,62.588,41.963,55.356z"
       id="path560" />
    <path
       i:knockout="Off"
       fill="none"
       d="M51.358,22.326c0,1.169-0.403,2.16-1.206,2.978c-0.806,0.817-1.78,1.223-2.927,1.223      h-8.836c-2.758,0-5.394,0.269-7.918,0.8v19.629h20.047v2.864c0,6.722-1.825,12.87-5.472,18.446      c-3.645,5.576-8.546,9.851-14.697,12.828c0,2.6-0.113,4.278-0.34,5.042c-0.535,1.757-1.788,2.634-3.762,2.634      c-2.736,0-4.103-1.629-4.103-4.886c-3.039,0.713-6.002,1.067-8.888,1.067H4.484c-2.661,0-3.988-1.398-3.988-4.199      c0-1.167,0.396-2.158,1.19-2.976c0.793-0.817,1.76-1.227,2.896-1.227c1.36,0,2.802,0,4.316,0c1.966,0,3.404,0,4.314,0      c3.103,0,6.056-0.34,8.858-1.02V55.356H0.877v-4.138c0-6.897,1.948-13.031,5.85-18.397c3.824-5.134,8.984-9.006,15.488-11.614      c0-2.453,0.114-4.099,0.344-4.943c0.537-1.686,1.798-2.53,3.784-2.53c2.755,0,4.133,1.694,4.133,5.078      c2.599-0.456,5.235-0.687,7.914-0.687h8.838c1.145,0,2.117,0.409,2.923,1.227C50.955,20.169,51.358,21.159,51.358,22.326z       M22.072,46.956V29.924c-7.149,3.606-11.326,9.284-12.528,17.031H22.072z M41.963,55.356H30.471v16.725      C36.98,68.163,40.812,62.588,41.963,55.356z"
       id="path561" />
  </g>
  <g
     id="g564"
     style="font-size:12;stroke:#000000;">
    <linearGradient
       id="XMLID_2_"
       gradientUnits="userSpaceOnUse"
       x1="61.9331"
       y1="17.7031"
       x2="97.7601"
       y2="53.5301">
      <stop
         offset="0"
         style="stop-color:#8ACE7B"
         id="stop566" />
      <stop
         offset="1"
         style="stop-color:#0F4717"
         id="stop567" />
      <a:midPointStop
         offset="0"
         style="stop-color:#8ACE7B"
         id="midPointStop568" />
      <a:midPointStop
         offset="0.5"
         style="stop-color:#8ACE7B"
         id="midPointStop569" />
      <a:midPointStop
         offset="1"
         style="stop-color:#0F4717"
         id="midPointStop570" />
    </linearGradient>
    <path
       i:knockout="Off"
       fill="url(#XMLID_2_)"
       stroke="none"
       d="M103.494,8.446c0,1.083-0.374,2.002-1.117,2.759      c-0.747,0.757-1.65,1.134-2.713,1.134h-8.188c-2.556,0-4.999,0.249-7.338,0.741v18.19h18.577v2.654      c0,6.229-1.691,11.926-5.07,17.094c-3.378,5.167-7.92,9.129-13.62,11.888c0,2.409-0.104,3.965-0.314,4.673      c-0.496,1.628-1.657,2.44-3.486,2.44c-2.535,0-3.802-1.51-3.802-4.527c-2.816,0.66-5.563,0.989-8.237,0.989h-8.13      c-2.465,0-3.695-1.296-3.695-3.892c0-1.082,0.367-2,1.103-2.758s1.631-1.137,2.685-1.137c1.261,0,2.597,0,4,0      c1.822,0,3.155,0,3.998,0c2.875,0,5.612-0.314,8.209-0.944V39.055H56.713v-3.834c0-6.392,1.806-12.076,5.421-17.049      c3.544-4.758,8.326-8.346,14.354-10.763c0-2.273,0.105-3.798,0.319-4.581c0.496-1.563,1.666-2.345,3.507-2.345      c2.553,0,3.829,1.57,3.829,4.706c2.408-0.423,4.853-0.636,7.334-0.636h8.19c1.061,0,1.962,0.379,2.709,1.137      C103.12,6.447,103.494,7.365,103.494,8.446z M76.354,31.271V15.488c-6.625,3.342-10.496,8.603-11.609,15.783H76.354z       M94.788,39.055H84.138v15.499C90.169,50.923,93.721,45.757,94.788,39.055z"
       id="path571" />
    <path
       i:knockout="Off"
       fill="none"
       d="M103.494,8.446c0,1.083-0.374,2.002-1.117,2.759c-0.747,0.757-1.65,1.134-2.713,1.134      h-8.188c-2.556,0-4.999,0.249-7.338,0.741v18.19h18.577v2.654c0,6.229-1.691,11.926-5.07,17.094      c-3.378,5.167-7.92,9.129-13.62,11.888c0,2.409-0.104,3.965-0.314,4.673c-0.496,1.628-1.657,2.44-3.486,2.44      c-2.535,0-3.802-1.51-3.802-4.527c-2.816,0.66-5.563,0.989-8.237,0.989h-8.13c-2.465,0-3.695-1.296-3.695-3.892      c0-1.082,0.367-2,1.103-2.758s1.631-1.137,2.685-1.137c1.261,0,2.597,0,4,0c1.822,0,3.155,0,3.998,0      c2.875,0,5.612-0.314,8.209-0.944V39.055H56.713v-3.834c0-6.392,1.806-12.076,5.421-17.049      c3.544-4.758,8.326-8.346,14.354-10.763c0-2.273,0.105-3.798,0.319-4.581c0.496-1.563,1.666-2.345,3.507-2.345      c2.553,0,3.829,1.57,3.829,4.706c2.408-0.423,4.853-0.636,7.334-0.636h8.19c1.061,0,1.962,0.379,2.709,1.137      C103.12,6.447,103.494,7.365,103.494,8.446z M76.354,31.271V15.488c-6.625,3.342-10.496,8.603-11.609,15.783H76.354z       M94.788,39.055H84.138v15.499C90.169,50.923,93.721,45.757,94.788,39.055z"
       id="path572" />
  </g>
  <g
     id="g575"
     style="font-size:12;stroke:#000000;">
    <linearGradient
       id="XMLID_3_"
       gradientUnits="userSpaceOnUse"
       x1="29.6123"
       y1="59.4805"
       x2="74.0951"
       y2="103.9633">
      <stop
         offset="0"
         style="stop-color:#8ACE7B"
         id="stop577" />
      <stop
         offset="1"
         style="stop-color:#0F4717"
         id="stop578" />
      <a:midPointStop
         offset="0"
         style="stop-color:#8ACE7B"
         id="midPointStop579" />
      <a:midPointStop
         offset="0.5"
         style="stop-color:#8ACE7B"
         id="midPointStop580" />
      <a:midPointStop
         offset="1"
         style="stop-color:#0F4717"
         id="midPointStop581" />
    </linearGradient>
    <path
       i:knockout="Off"
       fill="url(#XMLID_3_)"
       stroke="none"
       d="M80.748,48.471c0,1.325-0.457,2.448-1.367,3.375      c-0.913,0.926-2.018,1.386-3.316,1.386H66.05c-3.126,0-6.112,0.304-8.974,0.906v22.246h22.719v3.246      c0,7.617-2.068,14.584-6.201,20.903c-4.13,6.319-9.685,11.163-16.655,14.537c0,2.946-0.129,4.849-0.386,5.715      c-0.606,1.99-2.026,2.984-4.263,2.984c-3.101,0-4.65-1.846-4.65-5.537c-3.444,0.809-6.802,1.21-10.072,1.21h-9.942      c-3.015,0-4.52-1.585-4.52-4.759c0-1.322,0.449-2.446,1.349-3.372c0.899-0.927,1.994-1.391,3.282-1.391c1.542,0,3.175,0,4.892,0      c2.228,0,3.858,0,4.89,0c3.516,0,6.863-0.385,10.039-1.155V85.903H23.539v-4.689c0-7.815,2.208-14.768,6.63-20.849      c4.333-5.819,10.182-10.207,17.552-13.162c0-2.78,0.129-4.646,0.39-5.602c0.607-1.911,2.038-2.868,4.289-2.868      c3.122,0,4.684,1.92,4.684,5.754c2.945-0.517,5.933-0.778,8.969-0.778h10.016c1.297,0,2.399,0.463,3.313,1.39      C80.291,46.026,80.748,47.149,80.748,48.471z M47.558,76.383V57.082c-8.103,4.087-12.836,10.521-14.198,19.301H47.558z       M70.101,85.903H57.077v18.954C64.453,100.417,68.795,94.099,70.101,85.903z"
       id="path582" />
    <path
       i:knockout="Off"
       fill="none"
       d="M80.748,48.471c0,1.325-0.457,2.448-1.367,3.375c-0.913,0.926-2.018,1.386-3.316,1.386      H66.05c-3.126,0-6.112,0.304-8.974,0.906v22.246h22.719v3.246c0,7.617-2.068,14.584-6.201,20.903      c-4.13,6.319-9.685,11.163-16.655,14.537c0,2.946-0.129,4.849-0.386,5.715c-0.606,1.99-2.026,2.984-4.263,2.984      c-3.101,0-4.65-1.846-4.65-5.537c-3.444,0.809-6.802,1.21-10.072,1.21h-9.942c-3.015,0-4.52-1.585-4.52-4.759      c0-1.322,0.449-2.446,1.349-3.372c0.899-0.927,1.994-1.391,3.282-1.391c1.542,0,3.175,0,4.892,0c2.228,0,3.858,0,4.89,0      c3.516,0,6.863-0.385,10.039-1.155V85.903H23.539v-4.689c0-7.815,2.208-14.768,6.63-20.849      c4.333-5.819,10.182-10.207,17.552-13.162c0-2.78,0.129-4.646,0.39-5.602c0.607-1.911,2.038-2.868,4.289-2.868      c3.122,0,4.684,1.92,4.684,5.754c2.945-0.517,5.933-0.778,8.969-0.778h10.016c1.297,0,2.399,0.463,3.313,1.39      C80.291,46.026,80.748,47.149,80.748,48.471z M47.558,76.383V57.082c-8.103,4.087-12.836,10.521-14.198,19.301H47.558z       M70.101,85.903H57.077v18.954C64.453,100.417,68.795,94.099,70.101,85.903z"
       id="path583" />
  </g>
</svg>
