<?xml version="1.0" encoding="UTF-8" standalone="no"?>
<!DOCTYPE svg PUBLIC "-//W3C//DTD SVG 20010904//EN"
"http://www.w3.org/TR/2001/REC-SVG-20010904/DTD/svg10.dtd">
<!-- Created with Sodipodi ("http://www.sodipodi.com/") -->
<svg
   i:viewOrigin="250 453"
   i:rulerOrigin="-242 -332"
   i:pageBounds="242 460 370 332"
   width="48pt"
   height="48pt"
   viewBox="0 0 138 122"
   overflow="visible"
   enable-background="new 0 0 138 122"
   xml:space="preserve"
   id="svg153"
   sodipodi:version="0.32pre"
   sodipodi:docname="/home/cschalle/gnome-themes-extras/Amaranth/icons/scalable/apps/gnome-aisleriot.svg"
   sodipodi:docbase="/home/cschalle/gnome-themes-extras/Amaranth/icons/scalable/apps/"
   xmlns="http://www.w3.org/2000/svg"
   xmlns:sodipodi="http://sodipodi.sourceforge.net/DTD/sodipodi-0.dtd"
   xmlns:ns="http://ns.adobe.com/Variables/1.0/"
   xmlns:i="http://ns.adobe.com/AdobeIllustrator/10.0/"
   xmlns:xml="http://www.w3.org/XML/1998/namespace"
   xmlns:a="http://ns.adobe.com/AdobeSVGViewerExtensions/3.0/"
   xmlns:xlink="http://www.w3.org/1999/xlink">
  <defs
     id="defs284" />
  <sodipodi:namedview
     id="base" />
  <metadata
     id="metadata154">
    <sfw>
      <slices />
      <sliceSourceBounds
         x="250"
         y="331"
         width="138"
         height="122"
         bottomLeftOrigin="true" />
    </sfw>
    <ns:variableSets>
      <ns:variableSet
         varSetName="binding1"
         locked="none">
        <ns:variables />
        <ns:sampleDataSets />
      </ns:variableSet>
    </ns:variableSets>
  </metadata>
  <g
     id="g159"
     style="font-size:12;stroke:#000000;">
    <linearGradient
       id="XMLID_1_"
       gradientUnits="userSpaceOnUse"
       x1="60.9727"
       y1="40.5044"
       x2="115.0304"
       y2="94.5622">
      <stop
         offset="0"
         style="stop-color:#FFFFFF"
         id="stop161" />
      <stop
         offset="1"
         style="stop-color:#E5E5E5"
         id="stop162" />
      <a:midPointStop
         offset="0"
         style="stop-color:#FFFFFF"
         id="midPointStop163" />
      <a:midPointStop
         offset="0.5"
         style="stop-color:#FFFFFF"
         id="midPointStop164" />
      <a:midPointStop
         offset="1"
         style="stop-color:#E5E5E5"
         id="midPointStop165" />
    </linearGradient>
    <path
       i:knockout="Off"
       fill="url(#XMLID_1_)"
       stroke="none"
       d="M100.741,108.852c-1.112,2.515-4.081,3.661-6.596,2.549       L51.397,92.477c-2.515-1.112-3.662-4.081-2.548-6.596l26.412-59.666c1.112-2.515,4.081-3.662,6.596-2.548l42.749,18.923       c2.515,1.113,3.661,4.082,2.549,6.596L100.741,108.852z"
       id="path166" />
    <path
       i:knockout="Off"
       fill="none"
       stroke="#474747"
       stroke-width="2"
       d="M100.741,108.852       c-1.112,2.515-4.081,3.661-6.596,2.549L51.397,92.477c-2.515-1.112-3.662-4.081-2.548-6.596l26.412-59.666       c1.112-2.515,4.081-3.662,6.596-2.548l42.749,18.923c2.515,1.113,3.661,4.082,2.549,6.596L100.741,108.852z"
       id="path167" />
  </g>
  <g
     id="g170"
     style="font-size:12;stroke:#000000;">
    <g
       id="g171">
      <path
         i:knockout="Off"
         fill="#A30800"
         stroke="none"
         d="M87.491,31.262c-0.104,0.238-0.258,0.4-0.459,0.489l-7.455,2.555        c1.262,1.169,2.126,2.644,2.595,4.423c0.515,1.87,0.437,3.564-0.235,5.083c-0.098,0.219-0.257,0.372-0.477,0.457        c-0.221,0.086-0.44,0.08-0.658-0.016c-0.219-0.097-0.37-0.256-0.455-0.477s-0.078-0.441,0.019-0.661        c0.654-1.478,0.646-3.083-0.026-4.814c-0.671-1.732-1.747-2.926-3.229-3.582l-2.575,5.818        c-0.097,0.219-0.256,0.371-0.477,0.457s-0.44,0.08-0.658-0.017c-0.219-0.097-0.37-0.255-0.455-0.477s-0.078-0.441,0.019-0.66        l5.461-12.335c0.097-0.219,0.256-0.372,0.477-0.458s0.44-0.081,0.658,0.016s0.37,0.255,0.454,0.477        c0.085,0.221,0.079,0.442-0.018,0.661l-2.186,4.938l8.591-3.021c0.225-0.08,0.444-0.072,0.659,0.023        c0.216,0.095,0.364,0.254,0.445,0.477C87.588,30.84,87.583,31.055,87.491,31.262z"
         id="path172" />
    </g>
  </g>
  <g
     id="g175"
     style="font-size:12;stroke:#000000;">
    <g
       id="g176">
      <path
         i:knockout="Off"
         fill="#A30800"
         stroke="none"
         d="M88.027,105.507c0.104-0.237,0.258-0.4,0.459-0.488l7.455-2.555        c-1.262-1.17-2.126-2.645-2.595-4.423c-0.515-1.87-0.437-3.564,0.235-5.083c0.098-0.22,0.257-0.371,0.477-0.457        c0.221-0.086,0.44-0.08,0.658,0.017c0.219,0.097,0.37,0.255,0.455,0.477c0.085,0.221,0.078,0.441-0.019,0.661        c-0.654,1.478-0.646,3.082,0.026,4.814c0.671,1.732,1.747,2.926,3.229,3.582l2.575-5.818c0.097-0.219,0.256-0.371,0.477-0.457        c0.221-0.085,0.44-0.079,0.658,0.018c0.219,0.097,0.37,0.255,0.455,0.476c0.085,0.222,0.078,0.441-0.019,0.661l-5.461,12.335        c-0.097,0.219-0.256,0.371-0.477,0.457s-0.44,0.081-0.658-0.016s-0.37-0.256-0.454-0.477        c-0.085-0.222-0.079-0.442,0.018-0.661l2.186-4.938l-8.591,3.021c-0.225,0.079-0.444,0.071-0.659-0.023        c-0.216-0.096-0.364-0.255-0.445-0.478C87.931,105.929,87.936,105.714,88.027,105.507z"
         id="path177" />
    </g>
  </g>
  <g
     id="g180"
     style="font-size:12;stroke:#000000;">
    <path
       i:knockout="Off"
       fill="#A30800"
       stroke="none"
       d="M89.176,67.021c0,0,4.909-8.07,11.398-5.188       c6.49,2.885,0.983,9.697,0.554,10.663c-0.43,0.968-20.634,11.832-20.634,11.832s-7.336-19.959-6.17-22.583       c1.166-2.623,6.473-7.872,10.754-5.969C89.358,57.679,89.176,67.021,89.176,67.021z"
       id="path181" />
  </g>
  <g
     id="g185"
     style="font-size:12;stroke:#000000;">
    <linearGradient
       id="XMLID_2_"
       gradientUnits="userSpaceOnUse"
       x1="4.7383"
       y1="12.7207"
       x2="68.4656"
       y2="76.448">
      <stop
         offset="0"
         style="stop-color:#FFFFFF"
         id="stop187" />
      <stop
         offset="1"
         style="stop-color:#E5E5E5"
         id="stop188" />
      <a:midPointStop
         offset="0"
         style="stop-color:#FFFFFF"
         id="midPointStop189" />
      <a:midPointStop
         offset="0.5"
         style="stop-color:#FFFFFF"
         id="midPointStop190" />
      <a:midPointStop
         offset="1"
         style="stop-color:#E5E5E5"
         id="midPointStop191" />
    </linearGradient>
    <path
       i:knockout="Off"
       fill="url(#XMLID_2_)"
       stroke="none"
       d="M68.912,73.316c0.352,2.728-1.593,5.246-4.32,5.598       l-46.368,5.973c-2.728,0.352-5.247-1.593-5.598-4.32L4.292,15.851c-0.351-2.728,1.593-5.247,4.32-5.598l46.367-5.972       c2.728-0.351,5.246,1.593,5.598,4.32L68.912,73.316z"
       id="path192" />
    <path
       i:knockout="Off"
       fill="none"
       stroke="#4D4D4D"
       stroke-width="2"
       d="M68.912,73.316c0.352,2.728-1.593,5.246-4.32,5.598       l-46.368,5.973c-2.728,0.352-5.247-1.593-5.598-4.32L4.292,15.851c-0.351-2.728,1.593-5.247,4.32-5.598l46.367-5.972       c2.728-0.351,5.246,1.593,5.598,4.32L68.912,73.316z"
       id="path193" />
  </g>
  <g
     id="g199"
     style="font-size:12;stroke:#000000;">
    <linearGradient
       id="XMLID_3_"
       gradientUnits="userSpaceOnUse"
       x1="24.9302"
       y1="54.0815"
       x2="39.2871"
       y2="68.4384"
       gradientTransform="matrix(0.9918 -0.1277 0.1277 0.9918 -1.3564 -1.7878)">
      <stop
         offset="0"
         style="stop-color:#FFFFFF"
         id="stop201" />
      <stop
         offset="1"
         style="stop-color:#000000"
         id="stop202" />
      <a:midPointStop
         offset="0"
         style="stop-color:#FFFFFF"
         id="midPointStop203" />
      <a:midPointStop
         offset="0.5"
         style="stop-color:#FFFFFF"
         id="midPointStop204" />
      <a:midPointStop
         offset="1"
         style="stop-color:#000000"
         id="midPointStop205" />
    </linearGradient>
    <path
       i:knockout="Off"
       fill="url(#XMLID_3_)"
       stroke="none"
       d="M32.918,63.461l12.865-1.656c0,0-6.266-8.971-7.665-19.838         l-2.966,0.383C36.551,53.216,32.918,63.461,32.918,63.461z"
       id="path206" />
    <path
       i:knockout="Off"
       fill="none"
       d="M32.918,63.461l12.865-1.656c0,0-6.266-8.971-7.665-19.838l-2.966,0.383         C36.551,53.216,32.918,63.461,32.918,63.461z"
       id="path207" />
  </g>
  <g
     id="g212"
     style="font-size:12;stroke:#000000;">
    <linearGradient
       id="XMLID_4_"
       gradientUnits="userSpaceOnUse"
       x1="19.9185"
       y1="47.5654"
       x2="28.4666"
       y2="56.1135"
       gradientTransform="matrix(0.9918 -0.1277 0.1277 0.9918 -1.3564 -1.7878)">
      <stop
         offset="0"
         style="stop-color:#FFFFFF"
         id="stop214" />
      <stop
         offset="1"
         style="stop-color:#000000"
         id="stop215" />
      <a:midPointStop
         offset="0"
         style="stop-color:#FFFFFF"
         id="midPointStop216" />
      <a:midPointStop
         offset="0.5"
         style="stop-color:#FFFFFF"
         id="midPointStop217" />
      <a:midPointStop
         offset="1"
         style="stop-color:#000000"
         id="midPointStop218" />
    </linearGradient>
    <path
       i:knockout="Off"
       fill="url(#XMLID_4_)"
       stroke="none"
       d="M35.252,45.765c-0.427-3.31-3.457-5.649-6.768-5.223         c-3.311,0.427-5.648,3.457-5.222,6.768c0.426,3.31,3.455,5.649,6.767,5.221C33.341,52.106,35.679,49.075,35.252,45.765z"
       id="path219" />
    <path
       i:knockout="Off"
       fill="none"
       d="M35.252,45.765c-0.427-3.31-3.457-5.649-6.768-5.223         c-3.311,0.427-5.648,3.457-5.222,6.768c0.426,3.31,3.455,5.649,6.767,5.221C33.341,52.106,35.679,49.075,35.252,45.765z"
       id="path220" />
  </g>
  <g
     id="g225"
     style="font-size:12;stroke:#000000;">
    <linearGradient
       id="XMLID_5_"
       gradientUnits="userSpaceOnUse"
       x1="27.6851"
       y1="38.498"
       x2="36.2339"
       y2="47.0469"
       gradientTransform="matrix(0.9918 -0.1277 0.1277 0.9918 -1.3564 -1.7878)">
      <stop
         offset="0"
         style="stop-color:#FFFFFF"
         id="stop227" />
      <stop
         offset="1"
         style="stop-color:#000000"
         id="stop228" />
      <a:midPointStop
         offset="0"
         style="stop-color:#FFFFFF"
         id="midPointStop229" />
      <a:midPointStop
         offset="0.5"
         style="stop-color:#FFFFFF"
         id="midPointStop230" />
      <a:midPointStop
         offset="1"
         style="stop-color:#000000"
         id="midPointStop231" />
    </linearGradient>
    <path
       i:knockout="Off"
       fill="url(#XMLID_5_)"
       stroke="none"
       d="M41.797,35.781c-0.427-3.312-3.457-5.649-6.767-5.223         c-3.312,0.426-5.65,3.456-5.223,6.767c0.426,3.31,3.456,5.648,6.767,5.223C39.885,42.122,42.224,39.091,41.797,35.781z"
       id="path232" />
    <path
       i:knockout="Off"
       fill="none"
       d="M41.797,35.781c-0.427-3.312-3.457-5.649-6.767-5.223         c-3.312,0.426-5.65,3.456-5.223,6.767c0.426,3.31,3.456,5.648,6.767,5.223C39.885,42.122,42.224,39.091,41.797,35.781z"
       id="path233" />
  </g>
  <g
     id="g238"
     style="font-size:12;stroke:#000000;">
    <linearGradient
       id="XMLID_6_"
       gradientUnits="userSpaceOnUse"
       x1="35.7441"
       y1="47.564"
       x2="44.2929"
       y2="56.1128"
       gradientTransform="matrix(0.9918 -0.1277 0.1277 0.9918 -1.3564 -1.7878)">
      <stop
         offset="0"
         style="stop-color:#FFFFFF"
         id="stop240" />
      <stop
         offset="1"
         style="stop-color:#000000"
         id="stop241" />
      <a:midPointStop
         offset="0"
         style="stop-color:#FFFFFF"
         id="midPointStop242" />
      <a:midPointStop
         offset="0.5"
         style="stop-color:#FFFFFF"
         id="midPointStop243" />
      <a:midPointStop
         offset="1"
         style="stop-color:#000000"
         id="midPointStop244" />
    </linearGradient>
    <path
       i:knockout="Off"
       fill="url(#XMLID_6_)"
       stroke="none"
       d="M50.948,43.744c-0.426-3.311-3.457-5.65-6.767-5.224         c-3.312,0.427-5.649,3.457-5.223,6.768s3.457,5.648,6.767,5.222S51.375,47.054,50.948,43.744z"
       id="path245" />
    <path
       i:knockout="Off"
       fill="none"
       d="M50.948,43.744c-0.426-3.311-3.457-5.65-6.767-5.224         c-3.312,0.427-5.649,3.457-5.223,6.768s3.457,5.648,6.767,5.222S51.375,47.054,50.948,43.744z"
       id="path246" />
  </g>
  <g
     id="g273"
     style="font-size:12;stroke:#000000;">
    <g
       id="g274">
      <path
         i:knockout="Off"
         stroke="none"
         d="M17.37,13.828c0.033,0.258-0.014,0.477-0.14,0.656l-5.051,6.048        c1.685,0.347,3.188,1.16,4.511,2.438c1.41,1.333,2.221,2.822,2.433,4.469c0.03,0.238-0.027,0.45-0.171,0.638        c-0.145,0.188-0.335,0.297-0.571,0.327c-0.237,0.03-0.449-0.027-0.636-0.172c-0.187-0.145-0.296-0.337-0.327-0.575        c-0.206-1.603-1.045-2.97-2.517-4.104c-1.472-1.133-3.011-1.597-4.618-1.39l0.813,6.311c0.031,0.237-0.027,0.45-0.171,0.638        c-0.145,0.188-0.335,0.296-0.571,0.327c-0.237,0.03-0.449-0.026-0.636-0.172C9.529,29.121,9.42,28.93,9.39,28.692        L7.667,15.313c-0.03-0.237,0.026-0.45,0.17-0.638c0.145-0.188,0.335-0.297,0.572-0.328c0.236-0.03,0.449,0.027,0.636,0.172        c0.187,0.145,0.296,0.337,0.327,0.575l0.689,5.355l5.782-7.036c0.15-0.184,0.342-0.292,0.576-0.322        c0.233-0.03,0.443,0.029,0.628,0.177S17.34,13.604,17.37,13.828z"
         id="path275" />
    </g>
  </g>
  <g
     id="g278"
     style="font-size:12;stroke:#000000;">
    <g
       id="g279">
      <path
         i:knockout="Off"
         stroke="none"
         d="M56.305,77.048c-0.033-0.258,0.014-0.477,0.14-0.656l5.051-6.048        c-1.685-0.347-3.188-1.159-4.511-2.438c-1.41-1.333-2.221-2.822-2.433-4.47c-0.03-0.237,0.027-0.45,0.171-0.638        c0.145-0.188,0.335-0.297,0.571-0.327c0.237-0.03,0.449,0.027,0.636,0.172c0.187,0.146,0.296,0.338,0.327,0.576        c0.206,1.602,1.045,2.97,2.517,4.104c1.473,1.133,3.012,1.597,4.618,1.39l-0.813-6.311c-0.031-0.237,0.026-0.45,0.171-0.638        c0.144-0.188,0.335-0.296,0.571-0.326s0.448,0.026,0.636,0.172c0.188,0.145,0.296,0.336,0.326,0.574l1.723,13.379        c0.031,0.237-0.026,0.45-0.17,0.638c-0.145,0.188-0.335,0.298-0.572,0.328c-0.236,0.03-0.448-0.027-0.635-0.172        c-0.188-0.146-0.297-0.337-0.327-0.575l-0.689-5.355l-5.782,7.035c-0.15,0.185-0.343,0.292-0.576,0.322        s-0.443-0.029-0.628-0.177C56.441,77.459,56.334,77.272,56.305,77.048z"
         id="path280" />
    </g>
  </g>
  <g
     i:knockout="Off"
     id="g281"
     style="font-size:12;stroke:#000000;">
    <path
       i:knockout="Off"
       opacity="0.3"
       fill="#FFFFFF"
       stroke="none"
       d="M89.176,67.021c0,0,4.909-8.07,11.398-5.188     c6.49,2.885-4.24,8.833-12.907,8.833s-9.196,8.158-10.948,2.551c-1.585-5.071-2.948-10.226-2.395-11.472     c1.166-2.623,6.473-7.872,10.754-5.969C89.358,57.679,89.176,67.021,89.176,67.021z"
       id="path282" />
  </g>
</svg>
