<?xml version="1.0" encoding="UTF-8" standalone="no"?>
<!DOCTYPE svg PUBLIC "-//W3C//DTD SVG 20010904//EN"
"http://www.w3.org/TR/2001/REC-SVG-20010904/DTD/svg10.dtd">
<!-- Created with Sodipodi ("http://www.sodipodi.com/") -->
<svg
   i:viewOrigin="242 462"
   i:rulerOrigin="-242 -332"
   i:pageBounds="242 460 370 332"
   width="48pt"
   height="48pt"
   viewBox="0 0 131 134"
   overflow="visible"
   enable-background="new 0 0 131 134"
   xml:space="preserve"
   id="svg153"
   sodipodi:version="0.32pre"
   sodipodi:docname="/home/cschalle/gnome-themes-extras/Amaranth/icons/scalable/apps/gnome-logo.svg"
   sodipodi:docbase="/home/cschalle/gnome-themes-extras/Amaranth/icons/scalable/apps"
   xmlns="http://www.w3.org/2000/svg"
   xmlns:sodipodi="http://sodipodi.sourceforge.net/DTD/sodipodi-0.dtd"
   xmlns:ns="http://ns.adobe.com/Variables/1.0/"
   xmlns:i="http://ns.adobe.com/AdobeIllustrator/10.0/"
   xmlns:xml="http://www.w3.org/XML/1998/namespace"
   xmlns:a="http://ns.adobe.com/AdobeSVGViewerExtensions/3.0/"
   xmlns:xlink="http://www.w3.org/1999/xlink">
  <defs
     id="defs227" />
  <sodipodi:namedview
     id="base" />
  <metadata
     id="metadata154">
    <sfw>
      <slices />
      <sliceSourceBounds
         x="242"
         y="328"
         width="131"
         height="134"
         bottomLeftOrigin="true" />
    </sfw>
    <ns:variableSets>
      <ns:variableSet
         varSetName="binding1"
         locked="none">
        <ns:variables />
        <ns:sampleDataSets />
      </ns:variableSet>
    </ns:variableSets>
  </metadata>
  <g
     id="g159"
     style="font-size:12;stroke:#000000;">
    <radialGradient
       id="XMLID_1_"
       cx="63.1934"
       cy="63.3291"
       r="55.8146"
       fx="63.1934"
       fy="63.3291"
       gradientTransform="matrix(1.0738 0 0 1.0465 -5.3566 -2.6897)"
       gradientUnits="userSpaceOnUse">
      <stop
         offset="0"
         style="stop-color:#FEFFD1"
         id="stop161" />
      <stop
         offset="1"
         style="stop-color:#FDCF12"
         id="stop162" />
      <a:midPointStop
         offset="0"
         style="stop-color:#FEFFD1"
         id="midPointStop163" />
      <a:midPointStop
         offset="0.5"
         style="stop-color:#FEFFD1"
         id="midPointStop164" />
      <a:midPointStop
         offset="1"
         style="stop-color:#FDCF12"
         id="midPointStop165" />
    </radialGradient>
    <path
       i:knockout="Off"
       fill="url(#XMLID_1_)"
       stroke="none"
       d="M120.667,63.584c0-33.183-26.042-60.083-58.167-60.083      c-32.125,0-58.167,26.9-58.167,60.083c0,33.184,26.042,60.083,58.167,60.083C94.625,123.667,120.667,96.768,120.667,63.584z"
       id="path166" />
    <path
       i:knockout="Off"
       fill="none"
       d="M120.667,63.584c0-33.183-26.042-60.083-58.167-60.083      c-32.125,0-58.167,26.9-58.167,60.083c0,33.184,26.042,60.083,58.167,60.083C94.625,123.667,120.667,96.768,120.667,63.584z"
       id="path167" />
  </g>
  <g
     id="g170"
     style="font-size:12;stroke:#000000;">
    <linearGradient
       id="XMLID_2_"
       gradientUnits="userSpaceOnUse"
       x1="14.7119"
       y1="64.5083"
       x2="33.4395"
       y2="60.7053"
       gradientTransform="matrix(0.7624 0.6471 -0.873 1.0287 61.2997 -19.9834)">
      <stop
         offset="0"
         style="stop-color:#FFFFFF"
         id="stop172" />
      <stop
         offset="1"
         style="stop-color:#000000"
         id="stop173" />
      <a:midPointStop
         offset="0"
         style="stop-color:#FFFFFF"
         id="midPointStop174" />
      <a:midPointStop
         offset="0.5"
         style="stop-color:#FFFFFF"
         id="midPointStop175" />
      <a:midPointStop
         offset="1"
         style="stop-color:#000000"
         id="midPointStop176" />
    </linearGradient>
    <path
       i:knockout="Off"
       fill="url(#XMLID_2_)"
       stroke="none"
       d="M32.434,66.309c-2.17,2.558-7.257,1.805-11.362-1.68      s-5.675-8.381-3.505-10.938s7.256-1.804,11.362,1.681S34.604,63.752,32.434,66.309z"
       id="path177" />
    <path
       i:knockout="Off"
       fill="none"
       d="M32.434,66.309c-2.17,2.558-7.257,1.805-11.362-1.68s-5.675-8.381-3.505-10.938      s7.256-1.804,11.362,1.681S34.604,63.752,32.434,66.309z"
       id="path178" />
  </g>
  <g
     id="g181"
     style="font-size:12;stroke:#000000;">
    <linearGradient
       id="XMLID_3_"
       gradientUnits="userSpaceOnUse"
       x1="15.5239"
       y1="47.6221"
       x2="36.2659"
       y2="42.5133"
       gradientTransform="matrix(0.5915 0.6176 -0.9744 0.9332 57.5307 -15.8603)">
      <stop
         offset="0"
         style="stop-color:#FFFFFF"
         id="stop183" />
      <stop
         offset="1"
         style="stop-color:#000000"
         id="stop184" />
      <a:midPointStop
         offset="0"
         style="stop-color:#FFFFFF"
         id="midPointStop185" />
      <a:midPointStop
         offset="0.5"
         style="stop-color:#FFFFFF"
         id="midPointStop186" />
      <a:midPointStop
         offset="1"
         style="stop-color:#000000"
         id="midPointStop187" />
    </linearGradient>
    <path
       i:knockout="Off"
       fill="url(#XMLID_3_)"
       stroke="none"
       d="M35.441,48.982c-2.152,2.062-6.811,0.691-10.404-3.06      c-3.594-3.752-4.762-8.465-2.61-10.527c2.153-2.062,6.812-0.691,10.404,3.061C36.425,42.208,37.593,46.92,35.441,48.982z"
       id="path188" />
    <path
       i:knockout="Off"
       fill="none"
       d="M35.441,48.982c-2.152,2.062-6.811,0.691-10.404-3.06      c-3.594-3.752-4.762-8.465-2.61-10.527c2.153-2.062,6.812-0.691,10.404,3.061C36.425,42.208,37.593,46.92,35.441,48.982z"
       id="path189" />
  </g>
  <g
     id="g192"
     style="font-size:12;stroke:#000000;">
    <linearGradient
       id="XMLID_4_"
       gradientUnits="userSpaceOnUse"
       x1="34.439"
       y1="37.104"
       x2="50.6694"
       y2="26.359"
       gradientTransform="matrix(0.5224 0.8527 -0.8527 0.5224 46.0772 -25.1128)">
      <stop
         offset="0"
         style="stop-color:#FFFFFF"
         id="stop194" />
      <stop
         offset="1"
         style="stop-color:#000000"
         id="stop195" />
      <a:midPointStop
         offset="0"
         style="stop-color:#FFFFFF"
         id="midPointStop196" />
      <a:midPointStop
         offset="0.5"
         style="stop-color:#FFFFFF"
         id="midPointStop197" />
      <a:midPointStop
         offset="1"
         style="stop-color:#000000"
         id="midPointStop198" />
    </linearGradient>
    <path
       i:knockout="Off"
       fill="url(#XMLID_4_)"
       stroke="none"
       d="M46.735,36.703c-3.65,2.236-9.064,0.04-12.094-4.904      c-3.029-4.945-2.527-10.766,1.123-13.002c3.65-2.236,9.064-0.04,12.094,4.904C50.888,28.646,50.385,34.467,46.735,36.703z"
       id="path199" />
    <path
       i:knockout="Off"
       fill="none"
       d="M46.735,36.703c-3.65,2.236-9.064,0.04-12.094-4.904      c-3.029-4.945-2.527-10.766,1.123-13.002c3.65-2.236,9.064-0.04,12.094,4.904C50.888,28.646,50.385,34.467,46.735,36.703z"
       id="path200" />
  </g>
  <g
     id="g203"
     style="font-size:12;stroke:#000000;">
    <linearGradient
       id="XMLID_5_"
       gradientUnits="userSpaceOnUse"
       x1="52.3438"
       y1="15.5039"
       x2="71.6745"
       y2="26.6978"
       gradientTransform="matrix(0.9961 -0.0884 0.0884 0.9961 -2.1327 6.4629)">
      <stop
         offset="0"
         style="stop-color:#FFFFFF"
         id="stop205" />
      <stop
         offset="1"
         style="stop-color:#000000"
         id="stop206" />
      <a:midPointStop
         offset="0"
         style="stop-color:#FFFFFF"
         id="midPointStop207" />
      <a:midPointStop
         offset="0.5"
         style="stop-color:#FFFFFF"
         id="midPointStop208" />
      <a:midPointStop
         offset="1"
         style="stop-color:#000000"
         id="midPointStop209" />
    </linearGradient>
    <path
       i:knockout="Off"
       fill="url(#XMLID_5_)"
       stroke="none"
       d="M51.539,22.884c0.696,7.839,5.72,13.798,11.222,13.31      c5.5-0.489,9.396-7.239,8.7-15.079S65.74,7.317,60.239,7.806C54.738,8.294,50.843,15.045,51.539,22.884z"
       id="path210" />
    <path
       i:knockout="Off"
       fill="none"
       d="M51.539,22.884c0.696,7.839,5.72,13.798,11.222,13.31c5.5-0.489,9.396-7.239,8.7-15.079      S65.74,7.317,60.239,7.806C54.738,8.294,50.843,15.045,51.539,22.884z"
       id="path211" />
  </g>
  <g
     id="g214"
     style="font-size:12;stroke:#000000;">
    <linearGradient
       id="XMLID_6_"
       gradientUnits="userSpaceOnUse"
       x1="34.8213"
       y1="63.2559"
       x2="97.2618"
       y2="92.3724">
      <stop
         offset="0"
         style="stop-color:#FFFFFF"
         id="stop216" />
      <stop
         offset="1"
         style="stop-color:#000000"
         id="stop217" />
      <a:midPointStop
         offset="0"
         style="stop-color:#FFFFFF"
         id="midPointStop218" />
      <a:midPointStop
         offset="0.5"
         style="stop-color:#FFFFFF"
         id="midPointStop219" />
      <a:midPointStop
         offset="1"
         style="stop-color:#000000"
         id="midPointStop220" />
    </linearGradient>
    <path
       i:knockout="Off"
       fill="url(#XMLID_6_)"
       stroke="none"
       d="M77.75,52.25c0.396,11.493-11,15-15,17.5s-4.25,7-4.25,10      s5.509,16.246,13,10c1.11-0.926,2.326-1.609,3.5-11.75s23.5-13.75,25,0s-8.25,29.25-25,35.5s-27.75-3.5-37.25-32      s13.25-42.25,25-42.25S77.5,45,77.75,52.25z"
       id="path221" />
    <path
       i:knockout="Off"
       fill="none"
       d="M77.75,52.25c0.396,11.493-11,15-15,17.5s-4.25,7-4.25,10s5.509,16.246,13,10      c1.11-0.926,2.326-1.609,3.5-11.75s23.5-13.75,25,0s-8.25,29.25-25,35.5s-27.75-3.5-37.25-32s13.25-42.25,25-42.25      S77.5,45,77.75,52.25z"
       id="path222" />
  </g>
  <path
     i:knockout="Off"
     display="none"
     opacity="0.3"
     fill="#FFFFFF"
     stroke="none"
     d="M28.775,61.992    c-5.275-0.492-9.577-5.984-8.459-7.301c2.17-2.557,7.256-1.804,11.362,1.681s5.675,8.38,3.505,10.937    C35.184,67.309,34.051,62.484,28.775,61.992z M35.581,39.456c-3.592-3.752-8.251-5.123-10.404-3.061    c-2.152,2.062-0.984,6.774,2.61,10.527c3.593,3.751,8.251,5.122,10.404,3.06S39.175,43.208,35.581,39.456z M50.608,24.701    c-3.029-4.944-8.444-7.141-12.094-4.904c-3.65,2.236-4.152,8.057-1.123,13.002c3.029,4.944,8.444,7.141,12.094,4.904    C53.135,35.467,53.638,29.646,50.608,24.701z M54.289,23.884c0.696,7.839,5.72,13.798,11.222,13.31    c5.5-0.489,9.396-7.239,8.7-15.079S68.49,8.317,62.989,8.806C57.488,9.294,53.593,16.045,54.289,23.884z M61.25,80.75    c0-3,0.25-7.5,4.25-10s15.396-6.007,15-17.5c-0.25-7.25-3.25-13-15-13c-8.617,0-23.552,7.26-26.862,22.47    C37.945,65.901,43.75,78.5,49.5,74.75S61.25,80.75,61.25,80.75z M103.5,84.75c2-20.5-27-20-26.5,1.25c0.023,0.985,9-7,13.75-2.75    S103.5,84.75,103.5,84.75z"
     id="path223"
     style="font-size:12;opacity:0.3;fill:#ffffff;" />
  <path
     i:knockout="Off"
     opacity="0.3"
     fill="#FFFFFF"
     stroke="none"
     d="M63.334,65.667c33.666-0.334,49.583,38.396,55.723,12.014    c1.053-4.521,1.61-9.242,1.61-14.097c0-33.183-26.042-60.083-58.167-60.083c-25.325,0-46.87,16.717-54.855,40.052    C7.645,43.553,29.667,66.001,63.334,65.667z"
     id="path224"
     style="font-size:12;opacity:0.3;fill:#ffffff;"
     transform="translate(1.29258,1.29258)" />
  <path
     i:knockout="Off"
     opacity="0.3"
     fill="#FFFFFF"
     stroke="none"
     d="M67.929,9.256c0.691,1.805-8.678,7.071-20.927,11.763    c-12.25,4.691-22.74,7.031-23.431,5.226s8.678-7.071,20.927-11.763C56.748,9.79,67.237,7.451,67.929,9.256z"
     id="path225"
     style="font-size:12;opacity:0.3;fill:#ffffff;" />
</svg>
