<?xml version="1.0" encoding="UTF-8" standalone="no"?>
<!DOCTYPE svg PUBLIC "-//W3C//DTD SVG 1.0//EN"
"http://www.w3.org/TR/2001/REC-SVG-20010904/DTD/svg10.dtd">
<!-- Created with Sodipodi ("http://www.sodipodi.com/") -->
<svg
   xmlns="http://www.w3.org/2000/svg"
   xmlns:xlink="http://www.w3.org/1999/xlink"
   version="1.0"
   x="0"
   y="0"
   width="60"
   height="60"
   viewBox="0 0 107 140"
   id="svg602"
   xml:space="preserve"><defs
   id="defs920"><linearGradient
   x1="39.8769989"
   y1="13.0142002"
   x2="43.4560013"
   y2="16.5932007"
   id="XMLID_1_"
   gradientUnits="userSpaceOnUse"><stop
   style="stop-color:#ffffff;stop-opacity:1;"
   offset="0"
   id="stop605" /><stop
   style="stop-color:#7f7f7f;stop-opacity:1;"
   offset="1"
   id="stop606" /><a:midPointStop
   offset="0"
   style="stop-color:#FFFFFF"
   id="midPointStop607" /><a:midPointStop
   offset="0.5"
   style="stop-color:#FFFFFF"
   id="midPointStop608" /><a:midPointStop
   offset="1"
   style="stop-color:#7F7F7F"
   id="midPointStop609" /></linearGradient><linearGradient
   x1="15.8779001"
   y1="13.0145998"
   x2="19.4563007"
   y2="16.5930004"
   id="XMLID_2_"
   gradientUnits="userSpaceOnUse"><stop
   style="stop-color:#ffffff;stop-opacity:1;"
   offset="0"
   id="stop612" /><stop
   style="stop-color:#7f7f7f;stop-opacity:1;"
   offset="1"
   id="stop613" /><a:midPointStop
   offset="0"
   style="stop-color:#FFFFFF"
   id="midPointStop614" /><a:midPointStop
   offset="0.5"
   style="stop-color:#FFFFFF"
   id="midPointStop615" /><a:midPointStop
   offset="1"
   style="stop-color:#7F7F7F"
   id="midPointStop616" /></linearGradient><linearGradient
   x1="79.8769989"
   y1="12.6826"
   x2="83.4560013"
   y2="16.2616997"
   id="XMLID_3_"
   gradientUnits="userSpaceOnUse"><stop
   style="stop-color:#ffffff;stop-opacity:1;"
   offset="0"
   id="stop619" /><stop
   style="stop-color:#7f7f7f;stop-opacity:1;"
   offset="1"
   id="stop620" /><a:midPointStop
   offset="0"
   style="stop-color:#FFFFFF"
   id="midPointStop621" /><a:midPointStop
   offset="0.5"
   style="stop-color:#FFFFFF"
   id="midPointStop622" /><a:midPointStop
   offset="1"
   style="stop-color:#7F7F7F"
   id="midPointStop623" /></linearGradient><linearGradient
   x1="51.8778992"
   y1="12.6826"
   x2="55.4570007"
   y2="16.2616997"
   id="XMLID_4_"
   gradientUnits="userSpaceOnUse"><stop
   style="stop-color:#ffffff;stop-opacity:1;"
   offset="0"
   id="stop626" /><stop
   style="stop-color:#7f7f7f;stop-opacity:1;"
   offset="1"
   id="stop627" /><a:midPointStop
   offset="0"
   style="stop-color:#FFFFFF"
   id="midPointStop628" /><a:midPointStop
   offset="0.5"
   style="stop-color:#FFFFFF"
   id="midPointStop629" /><a:midPointStop
   offset="1"
   style="stop-color:#7F7F7F"
   id="midPointStop630" /></linearGradient><linearGradient
   x1="62.3769989"
   y1="9.1821003"
   x2="72.9559021"
   y2="19.7611008"
   id="XMLID_5_"
   gradientUnits="userSpaceOnUse"><stop
   style="stop-color:#ffffff;stop-opacity:1;"
   offset="0"
   id="stop633" /><stop
   style="stop-color:#7f7f7f;stop-opacity:1;"
   offset="1"
   id="stop634" /><a:midPointStop
   offset="0"
   style="stop-color:#FFFFFF"
   id="midPointStop635" /><a:midPointStop
   offset="0.5"
   style="stop-color:#FFFFFF"
   id="midPointStop636" /><a:midPointStop
   offset="1"
   style="stop-color:#7F7F7F"
   id="midPointStop637" /></linearGradient><linearGradient
   x1="25.3773994"
   y1="10.5145998"
   x2="33.9566002"
   y2="19.0937996"
   id="XMLID_6_"
   gradientUnits="userSpaceOnUse"><stop
   style="stop-color:#ffffff;stop-opacity:1;"
   offset="0"
   id="stop640" /><stop
   style="stop-color:#7f7f7f;stop-opacity:1;"
   offset="1"
   id="stop641" /><a:midPointStop
   offset="0"
   style="stop-color:#FFFFFF"
   id="midPointStop642" /><a:midPointStop
   offset="0.5"
   style="stop-color:#FFFFFF"
   id="midPointStop643" /><a:midPointStop
   offset="1"
   style="stop-color:#7F7F7F"
   id="midPointStop644" /></linearGradient><linearGradient
   x1="43.0410004"
   y1="83.5361023"
   x2="51.585701"
   y2="92.0808029"
   id="XMLID_20_"
   gradientUnits="userSpaceOnUse"><stop
   style="stop-color:#7e5f37;stop-opacity:1;"
   offset="0"
   id="stop774" /><stop
   style="stop-color:#fdbf6f;stop-opacity:1;"
   offset="1"
   id="stop775" /><a:midPointStop
   offset="0"
   style="stop-color:#7E5F37"
   id="midPointStop776" /><a:midPointStop
   offset="0.5"
   style="stop-color:#7E5F37"
   id="midPointStop777" /><a:midPointStop
   offset="1"
   style="stop-color:#FDBF6F"
   id="midPointStop778" /></linearGradient></defs><path
   d="M 39.452 16.168 L 39.452 14.25 L 40.558 12.332 L 42.773 12.332 L 43.88 14.25 L 43.88 16.168 L 39.452 16.168 z "
   style="font-size:12;fill:url(#XMLID_1_);stroke:#404040;stroke-width:0.75;"
   id="path610" /><path
   d="M 15.452 16.168 L 15.452 14.25 L 16.559 12.332 L 18.774 12.332 L 19.881 14.25 L 19.881 16.168 L 15.452 16.168 z "
   style="font-size:12;fill:url(#XMLID_2_);stroke:#404040;stroke-width:0.75;"
   id="path617" /><path
   d="M 79.452 15.836 L 79.452 13.918 L 80.559 12 L 82.774 12 L 83.881 13.918 L 83.881 15.836 L 79.452 15.836 L 79.452 15.836 z "
   style="font-size:12;fill:url(#XMLID_3_);stroke:#404040;stroke-width:0.75;"
   id="path624" /><path
   d="M 51.452 15.836 L 51.452 13.918 L 52.559 12 L 54.774 12 L 55.881 13.918 L 55.881 15.836 L 51.452 15.836 L 51.452 15.836 z "
   style="font-size:12;fill:url(#XMLID_4_);stroke:#404040;stroke-width:0.75;"
   id="path631" /><path
   d="M 58.452 15.836 L 58.452 13.918 L 59.559 12 L 75.774 12 L 76.881 13.918 L 76.881 15.836 L 58.452 15.836 L 58.452 15.836 z "
   style="font-size:12;fill:url(#XMLID_5_);stroke:#404040;stroke-width:0.75;"
   id="path638" /><path
   d="M 22.452 16.168 L 22.452 14.25 L 23.559 12.332 L 35.774 12.332 L 36.881 14.25 L 36.881 16.168 L 22.452 16.168 z "
   style="font-size:12;fill:url(#XMLID_6_);stroke:#404040;stroke-width:0.75;"
   id="path645" /><g
   style="font-size:12;stroke:#000000;"
   id="g648"><linearGradient
   x1="90.857399"
   y1="10.5811005"
   x2="94.8631973"
   y2="14.5867996"
   id="XMLID_7_"
   gradientUnits="userSpaceOnUse"><stop
   style="stop-color:#ffffff;stop-opacity:1;"
   offset="0"
   id="stop650" /><stop
   style="stop-color:#7f7f7f;stop-opacity:1;"
   offset="0.96630001"
   id="stop651" /><a:midPointStop
   offset="0"
   style="stop-color:#FFFFFF"
   id="midPointStop652" /><a:midPointStop
   offset="0.5"
   style="stop-color:#FFFFFF"
   id="midPointStop653" /><a:midPointStop
   offset="0.9663"
   style="stop-color:#7F7F7F"
   id="midPointStop654" /></linearGradient><path
   d="M 91.822 9.616 C 91.416 9.987 91.084 10.741 91.084 11.291 L 91.084 17.125 C 91.084 17.675 91.416 17.821 91.822 17.45 L 93.898 15.552 C 94.304 15.181 94.636 14.427 94.636 13.877 L 94.636 8.042 C 94.636 7.492 94.304 7.346 93.898 7.717 L 91.822 9.616 z "
   style="fill:url(#XMLID_7_);stroke:none;"
   id="path655" /><path
   d="M 91.822 9.616 C 91.416 9.987 91.084 10.741 91.084 11.291 L 91.084 17.125 C 91.084 17.675 91.416 17.821 91.822 17.45 L 93.898 15.552 C 94.304 15.181 94.636 14.427 94.636 13.877 L 94.636 8.042 C 94.636 7.492 94.304 7.346 93.898 7.717 L 91.822 9.616 z "
   style="fill:none;stroke:#7f7f7f;"
   id="path656" /></g><g
   style="font-size:12;stroke:#000000;"
   id="g659"><linearGradient
   x1="29.6161995"
   y1="-3.84229994"
   x2="71.5109024"
   y2="38.0523987"
   id="XMLID_8_"
   gradientUnits="userSpaceOnUse"><stop
   style="stop-color:#ffffff;stop-opacity:1;"
   offset="0"
   id="stop661" /><stop
   style="stop-color:#7f7f7f;stop-opacity:1;"
   offset="0.96630001"
   id="stop662" /><a:midPointStop
   offset="0"
   style="stop-color:#FFFFFF"
   id="midPointStop663" /><a:midPointStop
   offset="0.5"
   style="stop-color:#FFFFFF"
   id="midPointStop664" /><a:midPointStop
   offset="0.9663"
   style="stop-color:#7F7F7F"
   id="midPointStop665" /></linearGradient><path
   d="M 91.009 18.554 C 90.638 18.96 89.884 19.292 89.334 19.292 L 7.792 19.292 C 7.242 19.292 7.096 18.96 7.467 18.554 L 10.117 15.656 C 10.488 15.25 11.242 14.918 11.792 14.918 L 93.334 14.918 C 93.884 14.918 94.03 15.25 93.659 15.656 L 91.009 18.554 z "
   style="fill:url(#XMLID_8_);stroke:none;"
   id="path666" /><path
   d="M 91.009 18.554 C 90.638 18.96 89.884 19.292 89.334 19.292 L 7.792 19.292 C 7.242 19.292 7.096 18.96 7.467 18.554 L 10.117 15.656 C 10.488 15.25 11.242 14.918 11.792 14.918 L 93.334 14.918 C 93.884 14.918 94.03 15.25 93.659 15.656 L 91.009 18.554 z "
   style="fill:none;stroke:#7f7f7f;"
   id="path667" /></g><g
   style="font-size:12;stroke:#000000;"
   id="g670"><linearGradient
   x1="9.63720036"
   y1="31.1973"
   x2="93.9499969"
   y2="115.510101"
   id="XMLID_9_"
   gradientUnits="userSpaceOnUse"><stop
   style="stop-color:#fedfb3;stop-opacity:1;"
   offset="0"
   id="stop672" /><stop
   style="stop-color:#3f100b;stop-opacity:1;"
   offset="1"
   id="stop673" /><a:midPointStop
   offset="0"
   style="stop-color:#FEDFB3"
   id="midPointStop674" /><a:midPointStop
   offset="0.5"
   style="stop-color:#FEDFB3"
   id="midPointStop675" /><a:midPointStop
   offset="1"
   style="stop-color:#3F100B"
   id="midPointStop676" /></linearGradient><path
   d="M 22.375 18.462 C 21.825 18.46 21.375 18.908 21.375 19.458 L 21.375 28.083 C 21.375 28.633 21.824 29.061 22.374 29.034 C 22.374 29.034 27.729 28.771 27.417 29.083 C 27.105 29.395 27.408 62.25 27.408 62.25 C 27.413 62.8 26.967 63.25 26.417 63.25 L 22.375 63.25 C 21.825 63.25 21.375 63.7 21.375 64.25 L 21.375 77.25 C 21.375 77.8 21.825 78.25 22.375 78.25 L 25.375 78.25 C 25.925 78.25 26.375 78.7 26.375 79.25 L 26.375 80.167 C 26.375 80.717 25.925 81.167 25.375 81.167 L 22.167 81.167 C 21.617 81.167 21.167 81.617 21.167 82.167 L 21.167 91 C 21.167 91.55 21.617 92 22.167 92 L 24.959 92 C 25.509 92 25.959 92.45 25.959 93 L 25.959 94.125 C 25.959 94.675 25.509 95.125 24.959 95.125 L 21.959 95.125 C 21.409 95.125 20.959 95.575 20.959 96.125 L 20.959 108.5 C 20.959 109.05 21.409 109.5 21.959 109.5 L 26.417 109.5 C 26.967 109.5 27.417 109.95 27.417 110.5 L 27.417 111.208 C 27.417 111.758 26.967 112.208 26.417 112.208 L 21.334 112.208 C 20.784 112.208 20.334 112.658 20.334 113.208 L 20.334 119.542 C 20.334 120.092 20.784 120.542 21.334 120.542 L 21.834 120.542 C 22.384 120.542 22.834 120.092 22.834 119.542 L 22.834 117.792 C 22.834 117.242 23.284 116.792 23.834 116.792 L 25.167 116.792 C 25.717 116.792 26.167 117.242 26.167 117.792 L 26.167 127.25 C 26.167 127.8 26.617 128.25 27.167 128.25 L 81.209 128.25 C 81.759 128.25 82.209 127.8 82.209 127.25 L 82.209 24.875 C 82.209 24.325 81.759 23.875 81.209 23.875 L 78.625 23.875 C 78.075 23.875 77.625 23.425 77.625 22.875 L 77.625 19.667 C 77.625 19.117 77.175 18.666 76.625 18.663 L 22.375 18.462 z "
   style="fill:url(#XMLID_9_);stroke:none;"
   id="path677" /><path
   d="M 22.375 18.462 C 21.825 18.46 21.375 18.908 21.375 19.458 L 21.375 28.083 C 21.375 28.633 21.824 29.061 22.374 29.034 C 22.374 29.034 27.729 28.771 27.417 29.083 C 27.105 29.395 27.408 62.25 27.408 62.25 C 27.413 62.8 26.967 63.25 26.417 63.25 L 22.375 63.25 C 21.825 63.25 21.375 63.7 21.375 64.25 L 21.375 77.25 C 21.375 77.8 21.825 78.25 22.375 78.25 L 25.375 78.25 C 25.925 78.25 26.375 78.7 26.375 79.25 L 26.375 80.167 C 26.375 80.717 25.925 81.167 25.375 81.167 L 22.167 81.167 C 21.617 81.167 21.167 81.617 21.167 82.167 L 21.167 91 C 21.167 91.55 21.617 92 22.167 92 L 24.959 92 C 25.509 92 25.959 92.45 25.959 93 L 25.959 94.125 C 25.959 94.675 25.509 95.125 24.959 95.125 L 21.959 95.125 C 21.409 95.125 20.959 95.575 20.959 96.125 L 20.959 108.5 C 20.959 109.05 21.409 109.5 21.959 109.5 L 26.417 109.5 C 26.967 109.5 27.417 109.95 27.417 110.5 L 27.417 111.208 C 27.417 111.758 26.967 112.208 26.417 112.208 L 21.334 112.208 C 20.784 112.208 20.334 112.658 20.334 113.208 L 20.334 119.542 C 20.334 120.092 20.784 120.542 21.334 120.542 L 21.834 120.542 C 22.384 120.542 22.834 120.092 22.834 119.542 L 22.834 117.792 C 22.834 117.242 23.284 116.792 23.834 116.792 L 25.167 116.792 C 25.717 116.792 26.167 117.242 26.167 117.792 L 26.167 127.25 C 26.167 127.8 26.617 128.25 27.167 128.25 L 81.209 128.25 C 81.759 128.25 82.209 127.8 82.209 127.25 L 82.209 24.875 C 82.209 24.325 81.759 23.875 81.209 23.875 L 78.625 23.875 C 78.075 23.875 77.625 23.425 77.625 22.875 L 77.625 19.667 C 77.625 19.117 77.175 18.666 76.625 18.663 L 22.375 18.462 z "
   style="fill:none;"
   id="path678" /></g><g
   style="font-size:12;stroke:#000000;"
   id="g682"><path
   d="M 29.5 21.583 C 29.5 21.583 29.5 22.567 29.5 23.771 C 29.5 24.975 30.85 25.959 32.5 25.959 L 47.333 25.959 C 48.983 25.959 50.333 27.309 50.333 28.959 L 50.333 66.167 "
   style="fill:none;"
   id="path683" /></g><g
   style="font-size:12;stroke:#000000;"
   id="g686"><path
   d="M 66.583 22 L 66.583 36.708 C 66.583 38.358 65.233 39.708 63.583 39.708 L 40.625 39.708 C 38.975 39.708 37.625 41.058 37.625 42.708 L 37.625 64.5 "
   style="fill:none;"
   id="path687" /></g><g
   style="font-size:12;stroke:#000000;"
   id="g690"><path
   d="M 58.25 36.792 L 58.25 45.25 C 58.25 46.9 59.6 48.25 61.25 48.25 L 67.125 48.25 C 68.775 48.25 70.125 49.375 70.125 50.75 C 70.125 52.125 68.775 53.25 67.125 53.25 L 62.292 53.25 C 60.642 53.25 59.003 54.568 58.648 56.18 C 58.648 56.18 58.354 57.521 59.292 58.458 C 60.23 59.395 67.762 58.724 67.762 58.724 C 69.406 58.578 70.75 59.808 70.75 61.458 L 70.75 74.208 C 70.75 75.858 71.5 77.208 72.416 77.208 C 73.333 77.208 74.083 78.558 74.083 80.208 L 74.083 82.958 C 74.083 84.608 73.192 85.958 72.104 85.958 C 71.016 85.958 70.125 87.308 70.125 88.958 L 70.125 91.917 C 70.125 93.567 71.156 94.917 72.416 94.917 C 73.677 94.917 74.708 96.267 74.708 97.917 L 74.708 101.5 C 74.708 103.15 73.911 104.5 72.937 104.5 C 71.963 104.5 71.166 105.85 71.166 107.5 L 71.166 109.208 C 71.166 110.858 72.45 111.792 74.02 111.282 C 74.02 111.282 78.874 109.708 78.874 112.208 C 78.874 114.708 78.874 117.958 78.874 117.958 C 78.874 119.608 77.524 120.958 75.874 120.958 L 74.791 120.958 C 73.141 120.958 70.441 120.958 68.791 120.958 L 63.124 120.958 C 61.474 120.958 59.561 120.958 58.874 120.958 C 58.187 120.958 57.624 119.608 57.624 117.958 L 57.624 108.25 "
   style="fill:none;"
   id="path691" /></g><g
   style="font-size:12;stroke:#000000;"
   id="g694"><path
   d="M 37.208 119.083 L 42.541 119.083 C 44.191 119.083 45.541 117.733 45.541 116.083 L 45.541 108.667 "
   style="fill:none;"
   id="path695" /></g><g
   style="font-size:12;stroke:#000000;"
   id="g696"><linearGradient
   x1="47.1044998"
   y1="61.8700981"
   x2="47.1044998"
   y2="113.744598"
   id="XMLID_10_"
   gradientUnits="userSpaceOnUse"><stop
   style="stop-color:#ffffff;stop-opacity:1;"
   offset="0"
   id="stop698" /><stop
   style="stop-color:#7f7f7f;stop-opacity:1;"
   offset="0.96630001"
   id="stop699" /><a:midPointStop
   offset="0"
   style="stop-color:#FFFFFF"
   id="midPointStop700" /><a:midPointStop
   offset="0.5"
   style="stop-color:#FFFFFF"
   id="midPointStop701" /><a:midPointStop
   offset="0.9663"
   style="stop-color:#7F7F7F"
   id="midPointStop702" /></linearGradient><path
   d="M 64.917 110.744 C 64.917 112.394 63.567 113.744 61.917 113.744 L 32.292 113.744 C 30.642 113.744 29.292 112.394 29.292 110.744 L 29.292 64.87 C 29.292 63.22 30.642 61.87 32.292 61.87 L 61.917 61.87 C 63.567 61.87 64.917 63.22 64.917 64.87 L 64.917 110.744 z "
   style="fill:url(#XMLID_10_);stroke:none;"
   id="path703" /><path
   d="M 64.917 110.744 C 64.917 112.394 63.567 113.744 61.917 113.744 L 32.292 113.744 C 30.642 113.744 29.292 112.394 29.292 110.744 L 29.292 64.87 C 29.292 63.22 30.642 61.87 32.292 61.87 L 61.917 61.87 C 63.567 61.87 64.917 63.22 64.917 64.87 L 64.917 110.744 z "
   style="fill:none;"
   id="path704" /></g><g
   style="font-size:12;stroke:#000000;"
   id="Blades"><linearGradient
   x1="48.0693016"
   y1="81.3438034"
   x2="42.2046013"
   y2="75.4789963"
   id="XMLID_11_"
   gradientUnits="userSpaceOnUse"><stop
   style="stop-color:#ffffff;stop-opacity:1;"
   offset="0.53369999"
   id="stop707" /><stop
   style="stop-color:#7f7f7f;stop-opacity:1;"
   offset="0.96630001"
   id="stop708" /><a:midPointStop
   offset="0.5337"
   style="stop-color:#FFFFFF"
   id="midPointStop709" /><a:midPointStop
   offset="0.5"
   style="stop-color:#FFFFFF"
   id="midPointStop710" /><a:midPointStop
   offset="0.9663"
   style="stop-color:#7F7F7F"
   id="midPointStop711" /></linearGradient><path
   d="M 39.242 78.441 C 41.473 76.367 44.465 75.099 47.75 75.099 L 47.855 81.557 L 39.242 78.441 z "
   style="fill:url(#XMLID_11_);stroke:#7f7f7f;stroke-width:0.5;"
   id="path712" /><linearGradient
   x1="33.3501015"
   y1="76.8115005"
   x2="27.4860992"
   y2="70.9475021"
   id="XMLID_12_"
   gradientUnits="userSpaceOnUse"
   gradientTransform="matrix(0.7071,-0.7071,0.7071,0.7071,-34.8526,52.3661)"><stop
   style="stop-color:#ffffff;stop-opacity:1;"
   offset="0.53369999"
   id="stop714" /><stop
   style="stop-color:#7f7f7f;stop-opacity:1;"
   offset="0.96630001"
   id="stop715" /><a:midPointStop
   offset="0.5337"
   style="stop-color:#FFFFFF"
   id="midPointStop716" /><a:midPointStop
   offset="0.5"
   style="stop-color:#FFFFFF"
   id="midPointStop717" /><a:midPointStop
   offset="0.9663"
   style="stop-color:#7F7F7F"
   id="midPointStop718" /></linearGradient><path
   d="M 34.75 87.287 C 34.861 84.242 36.079 81.23 38.403 78.908 L 43.044 83.4 L 34.75 87.287 z "
   style="fill:url(#XMLID_12_);stroke:#7f7f7f;stroke-width:0.5;"
   id="path719" /><linearGradient
   x1="30.4794998"
   y1="85.1846008"
   x2="24.6147995"
   y2="79.3199005"
   id="XMLID_13_"
   gradientUnits="userSpaceOnUse"
   gradientTransform="matrix(0,-1,1,0,-43.7446,117.8086)"><stop
   style="stop-color:#ffffff;stop-opacity:1;"
   offset="0.53369999"
   id="stop721" /><stop
   style="stop-color:#7f7f7f;stop-opacity:1;"
   offset="0.96630001"
   id="stop722" /><a:midPointStop
   offset="0.5337"
   style="stop-color:#FFFFFF"
   id="midPointStop723" /><a:midPointStop
   offset="0.5"
   style="stop-color:#FFFFFF"
   id="midPointStop724" /><a:midPointStop
   offset="0.9663"
   style="stop-color:#7F7F7F"
   id="midPointStop725" /></linearGradient><path
   d="M 38.537 96.156 C 36.463 93.925 35.195 90.933 35.195 87.648 L 41.653 87.543 L 38.537 96.156 z "
   style="fill:url(#XMLID_13_);stroke:#7f7f7f;stroke-width:0.5;"
   id="path726" /><linearGradient
   x1="18.1973"
   y1="67.089798"
   x2="12.3325996"
   y2="61.2251015"
   id="XMLID_14_"
   gradientUnits="userSpaceOnUse"
   gradientTransform="matrix(-0.7071,-0.7071,0.7071,-0.7071,8.6209,152.6612)"><stop
   style="stop-color:#ffffff;stop-opacity:1;"
   offset="0.53369999"
   id="stop728" /><stop
   style="stop-color:#7f7f7f;stop-opacity:1;"
   offset="0.96630001"
   id="stop729" /><a:midPointStop
   offset="0.5337"
   style="stop-color:#FFFFFF"
   id="midPointStop730" /><a:midPointStop
   offset="0.5"
   style="stop-color:#FFFFFF"
   id="midPointStop731" /><a:midPointStop
   offset="0.9663"
   style="stop-color:#7F7F7F"
   id="midPointStop732" /></linearGradient><path
   d="M 47.383 100.649 C 44.338 100.538 41.326 99.319 39.004 96.996 L 43.496 92.355 L 47.383 100.649 z "
   style="fill:url(#XMLID_14_);stroke:#7f7f7f;stroke-width:0.5;"
   id="path733" /><linearGradient
   x1="44.1533012"
   y1="43.3862"
   x2="38.287899"
   y2="37.5208015"
   id="XMLID_15_"
   gradientUnits="userSpaceOnUse"
   gradientTransform="matrix(-1,0,0,-1,90.6055,137.749)"><stop
   style="stop-color:#ffffff;stop-opacity:1;"
   offset="0.53369999"
   id="stop735" /><stop
   style="stop-color:#7f7f7f;stop-opacity:1;"
   offset="0.96630001"
   id="stop736" /><a:midPointStop
   offset="0.5337"
   style="stop-color:#FFFFFF"
   id="midPointStop737" /><a:midPointStop
   offset="0.5"
   style="stop-color:#FFFFFF"
   id="midPointStop738" /><a:midPointStop
   offset="0.9663"
   style="stop-color:#7F7F7F"
   id="midPointStop739" /></linearGradient><path
   d="M 55.28 97.266 C 53.049 99.34 50.056 100.608 46.771 100.608 L 46.666 94.15 L 55.28 97.266 z "
   style="fill:url(#XMLID_15_);stroke:#7f7f7f;stroke-width:0.5;"
   id="path740" /><linearGradient
   x1="57.4229012"
   y1="47.2020988"
   x2="51.5581017"
   y2="41.3373985"
   id="XMLID_16_"
   gradientUnits="userSpaceOnUse"
   gradientTransform="matrix(-0.7071,0.7071,-0.7071,-0.7071,125.4581,85.3825)"><stop
   style="stop-color:#ffffff;stop-opacity:1;"
   offset="0.53369999"
   id="stop742" /><stop
   style="stop-color:#7f7f7f;stop-opacity:1;"
   offset="0.96630001"
   id="stop743" /><a:midPointStop
   offset="0.5337"
   style="stop-color:#FFFFFF"
   id="midPointStop744" /><a:midPointStop
   offset="0.5"
   style="stop-color:#FFFFFF"
   id="midPointStop745" /><a:midPointStop
   offset="0.9663"
   style="stop-color:#7F7F7F"
   id="midPointStop746" /></linearGradient><path
   d="M 59.772 88.42 C 59.661 91.465 58.444 94.477 56.12 96.799 L 51.478 92.307 L 59.772 88.42 z "
   style="fill:url(#XMLID_16_);stroke:#7f7f7f;stroke-width:0.5;"
   id="path747" /><linearGradient
   x1="68.4375"
   y1="81.2666016"
   x2="62.5727997"
   y2="75.4019012"
   id="XMLID_17_"
   gradientUnits="userSpaceOnUse"
   gradientTransform="matrix(0,1,-1,0,134.3496,19.9404)"><stop
   style="stop-color:#ffffff;stop-opacity:1;"
   offset="0.53369999"
   id="stop749" /><stop
   style="stop-color:#7f7f7f;stop-opacity:1;"
   offset="0.96630001"
   id="stop750" /><a:midPointStop
   offset="0.5337"
   style="stop-color:#FFFFFF"
   id="midPointStop751" /><a:midPointStop
   offset="0.5"
   style="stop-color:#FFFFFF"
   id="midPointStop752" /><a:midPointStop
   offset="0.9663"
   style="stop-color:#7F7F7F"
   id="midPointStop753" /></linearGradient><path
   d="M 55.985 79.551 C 58.059 81.782 59.327 84.774 59.327 88.059 L 52.869 88.164 L 55.985 79.551 z "
   style="fill:url(#XMLID_17_);stroke:#7f7f7f;stroke-width:0.5;"
   id="path754" /><linearGradient
   x1="47.8075981"
   y1="91.160202"
   x2="41.9429016"
   y2="85.2954025"
   id="XMLID_18_"
   gradientUnits="userSpaceOnUse"
   gradientTransform="matrix(0.7071,0.7071,-0.7071,0.7071,81.984,-14.9122)"><stop
   style="stop-color:#ffffff;stop-opacity:1;"
   offset="0.53369999"
   id="stop756" /><stop
   style="stop-color:#7f7f7f;stop-opacity:1;"
   offset="0.96630001"
   id="stop757" /><a:midPointStop
   offset="0.5337"
   style="stop-color:#FFFFFF"
   id="midPointStop758" /><a:midPointStop
   offset="0.5"
   style="stop-color:#FFFFFF"
   id="midPointStop759" /><a:midPointStop
   offset="0.9663"
   style="stop-color:#7F7F7F"
   id="midPointStop760" /></linearGradient><path
   d="M 47.139 75.058 C 50.184 75.169 53.196 76.388 55.519 78.711 L 51.026 83.352 L 47.139 75.058 z "
   style="fill:url(#XMLID_18_);stroke:#7f7f7f;stroke-width:0.5;"
   id="path761" /></g><g
   style="font-size:12;stroke:#000000;"
   id="g764"><linearGradient
   x1="34.1313019"
   y1="74.5224991"
   x2="60.7024002"
   y2="101.093498"
   id="XMLID_19_"
   gradientUnits="userSpaceOnUse"><stop
   style="stop-color:#7e5f37;stop-opacity:1;"
   offset="0"
   id="stop766" /><stop
   style="stop-color:#fdbf6f;stop-opacity:1;"
   offset="1"
   id="stop767" /><a:midPointStop
   offset="0"
   style="stop-color:#7E5F37"
   id="midPointStop768" /><a:midPointStop
   offset="0.5"
   style="stop-color:#7E5F37"
   id="midPointStop769" /><a:midPointStop
   offset="1"
   style="stop-color:#FDBF6F"
   id="midPointStop770" /></linearGradient><path
   d="M 61.583 98.974 C 61.583 100.624 60.233 101.974 58.583 101.974 L 36.25 101.974 C 34.6 101.974 33.25 100.624 33.25 98.974 L 33.25 76.641 C 33.25 74.991 34.6 73.641 36.25 73.641 L 58.583 73.641 C 60.233 73.641 61.583 74.991 61.583 76.641 L 61.583 98.974 z M 59.708 87.808 C 59.708 80.905 54.111 75.308 47.208 75.308 C 40.305 75.308 34.708 80.905 34.708 87.808 C 34.708 94.711 40.305 100.308 47.208 100.308 C 54.111 100.308 59.708 94.711 59.708 87.808 z "
   style="fill:url(#XMLID_19_);stroke:none;"
   id="path771" /><path
   d="M 61.583 98.974 C 61.583 100.624 60.233 101.974 58.583 101.974 L 36.25 101.974 C 34.6 101.974 33.25 100.624 33.25 98.974 L 33.25 76.641 C 33.25 74.991 34.6 73.641 36.25 73.641 L 58.583 73.641 C 60.233 73.641 61.583 74.991 61.583 76.641 L 61.583 98.974 z M 59.708 87.808 C 59.708 80.905 54.111 75.308 47.208 75.308 C 40.305 75.308 34.708 80.905 34.708 87.808 C 34.708 94.711 40.305 100.308 47.208 100.308 C 54.111 100.308 59.708 94.711 59.708 87.808 z "
   style="fill:none;"
   id="path772" /></g><path
   d="M 53.354 87.808 C 53.354 84.471 50.649 81.766 47.312 81.766 C 43.975 81.766 41.27 84.471 41.27 87.808 C 41.27 91.145 43.975 93.85 47.312 93.85 C 50.649 93.85 53.354 91.145 53.354 87.808 z "
   style="font-size:12;fill:url(#XMLID_20_);stroke:#000000;"
   id="path779" /><g
   style="font-size:12;stroke:#000000;"
   id="g782"><g
   id="g783"><g
   id="g784"><linearGradient
   x1="41.5355988"
   y1="122.786102"
   x2="33.0896988"
   y2="114.340202"
   id="XMLID_21_"
   gradientUnits="userSpaceOnUse"><stop
   style="stop-color:#000000;stop-opacity:1;"
   offset="0"
   id="stop786" /><stop
   style="stop-color:#fedfb3;stop-opacity:1;"
   offset="1"
   id="stop787" /><a:midPointStop
   offset="0"
   style="stop-color:#000000"
   id="midPointStop788" /><a:midPointStop
   offset="0.5"
   style="stop-color:#000000"
   id="midPointStop789" /><a:midPointStop
   offset="1"
   style="stop-color:#FEDFB3"
   id="midPointStop790" /></linearGradient><path
   d="M 40.958 122.125 C 40.958 123.775 39.608 125.125 37.958 125.125 L 36.666 125.125 C 35.016 125.125 33.666 123.775 33.666 122.125 L 33.666 115 C 33.666 113.35 35.016 112 36.666 112 L 37.958 112 C 39.608 112 40.958 113.35 40.958 115 L 40.958 122.125 z "
   style="fill:url(#XMLID_21_);stroke:none;"
   id="path791" /><path
   d="M 40.958 122.125 C 40.958 123.775 39.608 125.125 37.958 125.125 L 36.666 125.125 C 35.016 125.125 33.666 123.775 33.666 122.125 L 33.666 115 C 33.666 113.35 35.016 112 36.666 112 L 37.958 112 C 39.608 112 40.958 113.35 40.958 115 L 40.958 122.125 z "
   style="fill:none;"
   id="path792" /></g><g
   id="g793"><linearGradient
   x1="60.5458984"
   y1="121.900398"
   x2="52.4127998"
   y2="113.767303"
   id="XMLID_22_"
   gradientUnits="userSpaceOnUse"><stop
   style="stop-color:#000000;stop-opacity:1;"
   offset="0"
   id="stop795" /><stop
   style="stop-color:#fedfb3;stop-opacity:1;"
   offset="1"
   id="stop796" /><a:midPointStop
   offset="0"
   style="stop-color:#000000"
   id="midPointStop797" /><a:midPointStop
   offset="0.5"
   style="stop-color:#000000"
   id="midPointStop798" /><a:midPointStop
   offset="1"
   style="stop-color:#FEDFB3"
   id="midPointStop799" /></linearGradient><path
   d="M 59.917 121.292 C 59.917 122.942 58.567 124.292 56.917 124.292 L 56.042 124.292 C 54.392 124.292 53.042 122.942 53.042 121.292 L 53.042 114.375 C 53.042 112.725 54.392 111.375 56.042 111.375 L 56.917 111.375 C 58.567 111.375 59.917 112.725 59.917 114.375 L 59.917 121.292 z "
   style="fill:url(#XMLID_22_);stroke:none;"
   id="path800" /><path
   d="M 59.917 121.292 C 59.917 122.942 58.567 124.292 56.917 124.292 L 56.042 124.292 C 54.392 124.292 53.042 122.942 53.042 121.292 L 53.042 114.375 C 53.042 112.725 54.392 111.375 56.042 111.375 L 56.917 111.375 C 58.567 111.375 59.917 112.725 59.917 114.375 L 59.917 121.292 z "
   style="fill:none;"
   id="path801" /></g><g
   id="g802"><linearGradient
   x1="76.7441025"
   y1="100.702103"
   x2="66.8404999"
   y2="90.7985001"
   id="XMLID_23_"
   gradientUnits="userSpaceOnUse"><stop
   style="stop-color:#000000;stop-opacity:1;"
   offset="0"
   id="stop804" /><stop
   style="stop-color:#fedfb3;stop-opacity:1;"
   offset="1"
   id="stop805" /><a:midPointStop
   offset="0"
   style="stop-color:#000000"
   id="midPointStop806" /><a:midPointStop
   offset="0.5"
   style="stop-color:#000000"
   id="midPointStop807" /><a:midPointStop
   offset="1"
   style="stop-color:#FEDFB3"
   id="midPointStop808" /></linearGradient><path
   d="M 64.083 96.708 C 64.083 98.358 65.433 99.708 67.083 99.708 L 76.5 99.708 C 78.15 99.708 79.5 98.358 79.5 96.708 L 79.5 94.792 C 79.5 93.142 78.15 91.792 76.5 91.792 L 67.083 91.792 C 65.433 91.792 64.083 93.142 64.083 94.792 L 64.083 96.708 z "
   style="fill:url(#XMLID_23_);stroke:none;"
   id="path809" /><path
   d="M 64.083 96.708 C 64.083 98.358 65.433 99.708 67.083 99.708 L 76.5 99.708 C 78.15 99.708 79.5 98.358 79.5 96.708 L 79.5 94.792 C 79.5 93.142 78.15 91.792 76.5 91.792 L 67.083 91.792 C 65.433 91.792 64.083 93.142 64.083 94.792 L 64.083 96.708 z "
   style="fill:none;"
   id="path810" /></g><g
   id="g811"><linearGradient
   x1="76.1191025"
   y1="81.1191025"
   x2="66.631897"
   y2="71.631897"
   id="XMLID_24_"
   gradientUnits="userSpaceOnUse"><stop
   style="stop-color:#000000;stop-opacity:1;"
   offset="0"
   id="stop813" /><stop
   style="stop-color:#fedfb3;stop-opacity:1;"
   offset="1"
   id="stop814" /><a:midPointStop
   offset="0"
   style="stop-color:#000000"
   id="midPointStop815" /><a:midPointStop
   offset="0.5"
   style="stop-color:#000000"
   id="midPointStop816" /><a:midPointStop
   offset="1"
   style="stop-color:#FEDFB3"
   id="midPointStop817" /></linearGradient><path
   d="M 63.667 76.917 C 63.667 78.567 65.017 79.917 66.667 79.917 L 76.083 79.917 C 77.733 79.917 79.083 78.567 79.083 76.917 L 79.083 75.833 C 79.083 74.183 77.733 72.833 76.083 72.833 L 66.667 72.833 C 65.017 72.833 63.667 74.183 63.667 75.833 L 63.667 76.917 z "
   style="fill:url(#XMLID_24_);stroke:none;"
   id="path818" /><path
   d="M 63.667 76.917 C 63.667 78.567 65.017 79.917 66.667 79.917 L 76.083 79.917 C 77.733 79.917 79.083 78.567 79.083 76.917 L 79.083 75.833 C 79.083 74.183 77.733 72.833 76.083 72.833 L 66.667 72.833 C 65.017 72.833 63.667 74.183 63.667 75.833 L 63.667 76.917 z "
   style="fill:none;"
   id="path819" /></g><g
   id="g820"><linearGradient
   x1="47.7285004"
   y1="47.3129997"
   x2="44.6038017"
   y2="44.1883011"
   id="XMLID_25_"
   gradientUnits="userSpaceOnUse"><stop
   style="stop-color:#000000;stop-opacity:1;"
   offset="0"
   id="stop822" /><stop
   style="stop-color:#fedfb3;stop-opacity:1;"
   offset="1"
   id="stop823" /><a:midPointStop
   offset="0"
   style="stop-color:#000000"
   id="midPointStop824" /><a:midPointStop
   offset="0.5"
   style="stop-color:#000000"
   id="midPointStop825" /><a:midPointStop
   offset="1"
   style="stop-color:#FEDFB3"
   id="midPointStop826" /></linearGradient><path
   d="M 47.833 45.875 C 47.833 47.525 47.083 48.875 46.166 48.875 C 45.25 48.875 44.5 47.525 44.5 45.875 L 44.5 45.625 C 44.5 43.975 45.25 42.625 46.166 42.625 C 47.083 42.625 47.833 43.975 47.833 45.625 L 47.833 45.875 z "
   style="fill:url(#XMLID_25_);stroke:none;"
   id="path827" /><path
   d="M 47.833 45.875 C 47.833 47.525 47.083 48.875 46.166 48.875 C 45.25 48.875 44.5 47.525 44.5 45.875 L 44.5 45.625 C 44.5 43.975 45.25 42.625 46.166 42.625 C 47.083 42.625 47.833 43.975 47.833 45.625 L 47.833 45.875 z "
   style="fill:none;"
   id="path828" /></g><g
   id="g829"><linearGradient
   x1="54.0360985"
   y1="25.7031002"
   x2="47.0479012"
   y2="18.7148991"
   id="XMLID_26_"
   gradientUnits="userSpaceOnUse"><stop
   style="stop-color:#000000;stop-opacity:1;"
   offset="0"
   id="stop831" /><stop
   style="stop-color:#fedfb3;stop-opacity:1;"
   offset="1"
   id="stop832" /><a:midPointStop
   offset="0"
   style="stop-color:#000000"
   id="midPointStop833" /><a:midPointStop
   offset="0.5"
   style="stop-color:#000000"
   id="midPointStop834" /><a:midPointStop
   offset="1"
   style="stop-color:#FEDFB3"
   id="midPointStop835" /></linearGradient><path
   d="M 55.542 21.458 C 55.542 19.808 54.192 18.458 52.542 18.458 L 48.541 18.458 C 46.892 18.458 45.541 19.808 45.541 21.458 L 45.541 22.958 C 45.541 24.608 46.891 25.958 48.541 25.958 L 52.542 25.958 C 54.192 25.958 55.542 24.608 55.542 22.958 L 55.542 21.458 z "
   style="fill:url(#XMLID_26_);stroke:none;"
   id="path836" /><path
   d="M 55.542 21.458 C 55.542 19.808 54.192 18.458 52.542 18.458 L 48.541 18.458 C 46.892 18.458 45.541 19.808 45.541 21.458 L 45.541 22.958 C 45.541 24.608 46.891 25.958 48.541 25.958 L 52.542 25.958 C 54.192 25.958 55.542 24.608 55.542 22.958 L 55.542 21.458 z "
   style="fill:none;"
   id="path837" /></g></g></g><g
   style="font-size:12;stroke:#000000;"
   id="g840"><g
   id="g841"><linearGradient
   x1="57.9541016"
   y1="50.9541016"
   x2="62.9631996"
   y2="55.9631996"
   id="XMLID_27_"
   gradientUnits="userSpaceOnUse"><stop
   style="stop-color:#ffffff;stop-opacity:1;"
   offset="0"
   id="stop843" /><stop
   style="stop-color:#7f5f1c;stop-opacity:1;"
   offset="1"
   id="stop844" /><a:midPointStop
   offset="0"
   style="stop-color:#FFFFFF"
   id="midPointStop845" /><a:midPointStop
   offset="0.5"
   style="stop-color:#FFFFFF"
   id="midPointStop846" /><a:midPointStop
   offset="1"
   style="stop-color:#7F5F1C"
   id="midPointStop847" /></linearGradient><path
   d="M 64 53.458 C 64 51.502 62.414 49.916 60.458 49.916 C 58.502 49.916 56.916 51.502 56.916 53.458 C 56.916 55.414 58.502 57 60.458 57 C 62.414 57 64 55.414 64 53.458 z "
   style="fill:url(#XMLID_27_);stroke:#3f2018;"
   id="path848" /><linearGradient
   x1="66.9541016"
   y1="50.9541016"
   x2="71.9625015"
   y2="55.9625015"
   id="XMLID_28_"
   gradientUnits="userSpaceOnUse"><stop
   style="stop-color:#ffffff;stop-opacity:1;"
   offset="0"
   id="stop850" /><stop
   style="stop-color:#7f5f1c;stop-opacity:1;"
   offset="1"
   id="stop851" /><a:midPointStop
   offset="0"
   style="stop-color:#FFFFFF"
   id="midPointStop852" /><a:midPointStop
   offset="0.5"
   style="stop-color:#FFFFFF"
   id="midPointStop853" /><a:midPointStop
   offset="1"
   style="stop-color:#7F5F1C"
   id="midPointStop854" /></linearGradient><path
   d="M 73 53.458 C 73 51.502 71.414 49.916 69.458 49.916 C 67.502 49.916 65.916 51.502 65.916 53.458 C 65.916 55.414 67.502 57 69.458 57 C 71.414 57 73 55.414 73 53.458 z "
   style="fill:url(#XMLID_28_);stroke:#3f2018;"
   id="path855" /><linearGradient
   x1="73.9541016"
   y1="45.9546013"
   x2="78.9625015"
   y2="50.9630013"
   id="XMLID_29_"
   gradientUnits="userSpaceOnUse"><stop
   style="stop-color:#ffffff;stop-opacity:1;"
   offset="0"
   id="stop857" /><stop
   style="stop-color:#7f5f1c;stop-opacity:1;"
   offset="1"
   id="stop858" /><a:midPointStop
   offset="0"
   style="stop-color:#FFFFFF"
   id="midPointStop859" /><a:midPointStop
   offset="0.5"
   style="stop-color:#FFFFFF"
   id="midPointStop860" /><a:midPointStop
   offset="1"
   style="stop-color:#7F5F1C"
   id="midPointStop861" /></linearGradient><path
   d="M 80 48.458 C 80 46.502 78.414 44.916 76.458 44.916 C 74.502 44.916 72.916 46.502 72.916 48.458 C 72.916 50.414 74.502 52 76.458 52 C 78.414 52 80 50.414 80 48.458 z "
   style="fill:url(#XMLID_29_);stroke:#3f2018;"
   id="path862" /><linearGradient
   x1="68.8701019"
   y1="108.746101"
   x2="73.8792038"
   y2="113.755203"
   id="XMLID_30_"
   gradientUnits="userSpaceOnUse"><stop
   style="stop-color:#ffffff;stop-opacity:1;"
   offset="0"
   id="stop864" /><stop
   style="stop-color:#7f5f1c;stop-opacity:1;"
   offset="1"
   id="stop865" /><a:midPointStop
   offset="0"
   style="stop-color:#FFFFFF"
   id="midPointStop866" /><a:midPointStop
   offset="0.5"
   style="stop-color:#FFFFFF"
   id="midPointStop867" /><a:midPointStop
   offset="1"
   style="stop-color:#7F5F1C"
   id="midPointStop868" /></linearGradient><path
   d="M 71.374 114.792 C 73.33 114.792 74.916 113.206 74.916 111.25 C 74.916 109.294 73.33 107.708 71.374 107.708 C 69.418 107.708 67.832 109.294 67.832 111.25 C 67.832 113.206 69.418 114.792 71.374 114.792 z "
   style="fill:url(#XMLID_30_);stroke:#3f2018;"
   id="path869" /><linearGradient
   x1="68.8701019"
   y1="117.745102"
   x2="73.8792038"
   y2="122.754204"
   id="XMLID_31_"
   gradientUnits="userSpaceOnUse"><stop
   style="stop-color:#ffffff;stop-opacity:1;"
   offset="0"
   id="stop871" /><stop
   style="stop-color:#7f5f1c;stop-opacity:1;"
   offset="1"
   id="stop872" /><a:midPointStop
   offset="0"
   style="stop-color:#FFFFFF"
   id="midPointStop873" /><a:midPointStop
   offset="0.5"
   style="stop-color:#FFFFFF"
   id="midPointStop874" /><a:midPointStop
   offset="1"
   style="stop-color:#7F5F1C"
   id="midPointStop875" /></linearGradient><path
   d="M 71.374 123.791 C 73.33 123.791 74.916 122.205 74.916 120.25 C 74.916 118.293 73.33 116.707 71.374 116.707 C 69.418 116.707 67.832 118.293 67.832 120.25 C 67.832 122.205 69.418 123.791 71.374 123.791 z "
   style="fill:url(#XMLID_31_);stroke:#3f2018;"
   id="path876" /><linearGradient
   x1="22.7294998"
   y1="113.563499"
   x2="24.1879005"
   y2="115.021896"
   id="XMLID_32_"
   gradientUnits="userSpaceOnUse"><stop
   style="stop-color:#ffffff;stop-opacity:1;"
   offset="0"
   id="stop878" /><stop
   style="stop-color:#7f5f1c;stop-opacity:1;"
   offset="1"
   id="stop879" /><a:midPointStop
   offset="0"
   style="stop-color:#FFFFFF"
   id="midPointStop880" /><a:midPointStop
   offset="0.5"
   style="stop-color:#FFFFFF"
   id="midPointStop881" /><a:midPointStop
   offset="1"
   style="stop-color:#7F5F1C"
   id="midPointStop882" /></linearGradient><path
   d="M 24.917 114.292 C 24.917 113.486 24.264 112.834 23.459 112.834 C 22.654 112.834 22 113.486 22 114.292 C 22 115.098 22.653 115.75 23.458 115.75 C 24.263 115.75 24.917 115.098 24.917 114.292 z "
   style="fill:url(#XMLID_32_);stroke:#3f2018;"
   id="path883" /></g></g><g
   style="font-size:12;stroke:#000000;"
   id="g886"><g
   id="g887"><path
   d="M 40 31.667 L 40 34.584 "
   style="fill:none;"
   id="path888" /><path
   d="M 30 31.667 L 30 34.584 "
   style="fill:none;"
   id="path889" /><path
   d="M 38 31.667 L 38 34.584 "
   style="fill:none;"
   id="path890" /><path
   d="M 32 31.667 L 32 34.584 "
   style="fill:none;"
   id="path891" /><path
   d="M 36 31.667 L 36 34.584 "
   style="fill:none;"
   id="path892" /><path
   d="M 34 31.667 L 34 34.584 "
   style="fill:none;"
   id="path893" /><path
   d="M 45 35.667 L 45 38.584 "
   style="fill:none;"
   id="path894" /><path
   d="M 35 35.667 L 35 38.584 "
   style="fill:none;"
   id="path895" /><path
   d="M 43 35.667 L 43 38.584 "
   style="fill:none;"
   id="path896" /><path
   d="M 37 35.667 L 37 38.584 "
   style="fill:none;"
   id="path897" /><path
   d="M 41 35.667 L 41 38.584 "
   style="fill:none;"
   id="path898" /><path
   d="M 39 35.667 L 39 38.584 "
   style="fill:none;"
   id="path899" /><path
   d="M 68 31.667 L 68 34.584 "
   style="fill:none;"
   id="path900" /><path
   d="M 58 31.667 L 58 34.584 "
   style="fill:none;"
   id="path901" /><path
   d="M 66 31.667 L 66 34.584 "
   style="fill:none;"
   id="path902" /><path
   d="M 60 31.667 L 60 34.584 "
   style="fill:none;"
   id="path903" /><path
   d="M 64 31.667 L 64 34.584 "
   style="fill:none;"
   id="path904" /><path
   d="M 62 31.667 L 62 34.584 "
   style="fill:none;"
   id="path905" /></g></g><g
   transform="translate(-1.639128e-6,0)"
   style="font-size:12;fill:#f8f2fc;fill-opacity:0.1308;stroke:#f8f2fc;stroke-opacity:0.0615;"
   id="g916"><path
   d="M 59.084 56.167 C 77.834 56.167 82.209 23.875 82.209 23.875 L 77.625 23.875 L 77.625 18.667 L 21.375 18.459 L 21.375 29.084 C 21.375 29.084 27.729 28.771 27.417 29.084 C 27.105 29.397 27.417 63.251 27.417 63.251 L 21.375 63.251 L 21.375 78.251 L 26.375 78.251 L 26.375 81.168 C 26.375 81.167 40.333 56.167 59.084 56.167 z "
   id="path917" /><path
   d="M 59.084 56.167 C 77.834 56.167 82.209 23.875 82.209 23.875 L 77.625 23.875 L 77.625 18.667 L 21.375 18.459 L 21.375 29.084 C 21.375 29.084 27.729 28.771 27.417 29.084 C 27.105 29.397 27.417 63.251 27.417 63.251 L 21.375 63.251 L 21.375 78.251 L 26.375 78.251 L 26.375 81.168 C 26.375 81.167 40.333 56.167 59.084 56.167 z "
   id="path918" /></g></svg>
