<?xml version="1.0" encoding="UTF-8" standalone="no"?>
<!DOCTYPE svg PUBLIC "-//W3C//DTD SVG 1.0//EN"
"http://www.w3.org/TR/2001/REC-SVG-20010904/DTD/svg10.dtd">
<!-- Created with Sodipodi ("http://www.sodipodi.com/") -->
<svg
   xmlns="http://www.w3.org/2000/svg"
   xmlns:xlink="http://www.w3.org/1999/xlink"
   version="1.0"
   x="0"
   y="0"
   width="60"
   height="60"
   viewBox="0 0 118.336 161.064"
   id="svg602"
   xml:space="preserve"><defs
   id="defs749" /><g
   style="font-size:12;stroke:#000000;"
   id="g606"><linearGradient
   x1="14.5347004"
   y1="25.5776005"
   x2="59.4221001"
   y2="70.4651031"
   id="XMLID_1_"
   gradientUnits="userSpaceOnUse"><stop
   style="stop-color:#a3c5cd;stop-opacity:1;"
   offset="0"
   id="stop608" /><stop
   style="stop-color:#203438;stop-opacity:1;"
   offset="1"
   id="stop609" /><a:midPointStop
   offset="0"
   style="stop-color:#A3C5CD"
   id="midPointStop610" /><a:midPointStop
   offset="0.5"
   style="stop-color:#A3C5CD"
   id="midPointStop611" /><a:midPointStop
   offset="1"
   style="stop-color:#203438"
   id="midPointStop612" /></linearGradient><path
   d="M 64.726 61.034 C 64.726 66.534 60.226 71.034 54.726 71.034 L 19.229 71.034 C 13.729 71.034 9.229 66.534 9.229 61.034 L 9.229 35.008 C 9.229 29.508 13.729 25.008 19.229 25.008 L 54.726 25.008 C 60.226 25.008 64.726 29.508 64.726 35.008 L 64.726 61.034 z "
   style="fill:url(#XMLID_1_);stroke:none;"
   id="path613" /><path
   d="M 64.726 61.034 C 64.726 66.534 60.226 71.034 54.726 71.034 L 19.229 71.034 C 13.729 71.034 9.229 66.534 9.229 61.034 L 9.229 35.008 C 9.229 29.508 13.729 25.008 19.229 25.008 L 54.726 25.008 C 60.226 25.008 64.726 29.508 64.726 35.008 L 64.726 61.034 z "
   style="fill:none;"
   id="path614" /></g><g
   style="font-size:12;stroke:#000000;"
   id="g617"><linearGradient
   x1="-9.56540012"
   y1="36.1841011"
   x2="83.1027985"
   y2="128.852402"
   id="XMLID_2_"
   gradientUnits="userSpaceOnUse"><stop
   style="stop-color:#bfbfbf;stop-opacity:1;"
   offset="0"
   id="stop619" /><stop
   style="stop-color:#000000;stop-opacity:1;"
   offset="1"
   id="stop620" /><a:midPointStop
   offset="0"
   style="stop-color:#BFBFBF"
   id="midPointStop621" /><a:midPointStop
   offset="0.5"
   style="stop-color:#BFBFBF"
   id="midPointStop622" /><a:midPointStop
   offset="1"
   style="stop-color:#000000"
   id="midPointStop623" /></linearGradient><path
   d="M 73.037 134.792 C 73.037 140.292 68.537 144.792 63.037 144.792 L 10.5 144.792 C 5 144.792 0.5 140.292 0.5 134.792 L 0.5 30.243 C 0.5 24.743 5 20.243 10.5 20.243 L 63.037 20.243 C 68.537 20.243 73.037 24.743 73.037 30.243 L 73.037 134.792 z M 63.24 36.113 C 63.24 30.613 58.74 26.113 53.24 26.113 L 20.41 26.113 C 14.91 26.113 10.41 30.613 10.41 36.113 L 10.41 59.929 C 10.41 65.429 14.91 69.929 20.41 69.929 L 53.24 69.929 C 58.74 69.929 63.24 65.429 63.24 59.929 L 63.24 36.113 L 63.24 36.113 z "
   style="fill:url(#XMLID_2_);stroke:none;"
   id="path624" /><path
   d="M 73.037 134.792 C 73.037 140.292 68.537 144.792 63.037 144.792 L 10.5 144.792 C 5 144.792 0.5 140.292 0.5 134.792 L 0.5 30.243 C 0.5 24.743 5 20.243 10.5 20.243 L 63.037 20.243 C 68.537 20.243 73.037 24.743 73.037 30.243 L 73.037 134.792 z M 63.24 36.113 C 63.24 30.613 58.74 26.113 53.24 26.113 L 20.41 26.113 C 14.91 26.113 10.41 30.613 10.41 36.113 L 10.41 59.929 C 10.41 65.429 14.91 69.929 20.41 69.929 L 53.24 69.929 C 58.74 69.929 63.24 65.429 63.24 59.929 L 63.24 36.113 L 63.24 36.113 z "
   style="fill:none;"
   id="path625" /></g><g
   style="font-size:12;stroke:#000000;"
   id="g628"><linearGradient
   x1="54.7778015"
   y1="130.705597"
   x2="21.2744999"
   y2="97.2022018"
   id="XMLID_3_"
   gradientUnits="userSpaceOnUse"><stop
   style="stop-color:#bfbfbf;stop-opacity:1;"
   offset="0"
   id="stop630" /><stop
   style="stop-color:#000000;stop-opacity:1;"
   offset="1"
   id="stop631" /><a:midPointStop
   offset="0"
   style="stop-color:#BFBFBF"
   id="midPointStop632" /><a:midPointStop
   offset="0.5"
   style="stop-color:#BFBFBF"
   id="midPointStop633" /><a:midPointStop
   offset="1"
   style="stop-color:#000000"
   id="midPointStop634" /></linearGradient><path
   d="M 61.716 113.954 C 61.716 100.87 51.11 90.264 38.026 90.264 C 24.942 90.264 14.336 100.87 14.336 113.954 C 14.336 127.038 24.942 137.644 38.026 137.644 C 51.11 137.644 61.716 127.038 61.716 113.954 z "
   style="fill:url(#XMLID_3_);stroke:none;"
   id="path635" /><path
   d="M 61.716 113.954 C 61.716 100.87 51.11 90.264 38.026 90.264 C 24.942 90.264 14.336 100.87 14.336 113.954 C 14.336 127.038 24.942 137.644 38.026 137.644 C 51.11 137.644 61.716 127.038 61.716 113.954 z "
   style="fill:none;"
   id="path636" /></g><g
   style="font-size:12;stroke:#000000;"
   id="g639"><linearGradient
   x1="44.2523994"
   y1="120.180199"
   x2="31.7994003"
   y2="107.727097"
   id="XMLID_4_"
   gradientUnits="userSpaceOnUse"><stop
   style="stop-color:#bfbfbf;stop-opacity:1;"
   offset="0"
   id="stop641" /><stop
   style="stop-color:#000000;stop-opacity:1;"
   offset="1"
   id="stop642" /><a:midPointStop
   offset="0"
   style="stop-color:#BFBFBF"
   id="midPointStop643" /><a:midPointStop
   offset="0.5"
   style="stop-color:#BFBFBF"
   id="midPointStop644" /><a:midPointStop
   offset="1"
   style="stop-color:#000000"
   id="midPointStop645" /></linearGradient><path
   d="M 46.831 113.954 C 46.831 109.091 42.889 105.148 38.026 105.148 C 33.163 105.148 29.221 109.09 29.221 113.954 C 29.221 118.818 33.163 122.76 38.026 122.76 C 42.889 122.76 46.831 118.817 46.831 113.954 z "
   style="fill:url(#XMLID_4_);stroke:none;"
   id="path646" /><path
   d="M 46.831 113.954 C 46.831 109.091 42.889 105.148 38.026 105.148 C 33.163 105.148 29.221 109.09 29.221 113.954 C 29.221 118.818 33.163 122.76 38.026 122.76 C 42.889 122.76 46.831 118.817 46.831 113.954 z "
   style="fill:none;"
   id="path647" /></g><g
   style="font-size:12;stroke:#000000;"
   id="g650"><linearGradient
   x1="66.903801"
   y1="86.3041992"
   x2="57.1189003"
   y2="76.5193024"
   id="XMLID_5_"
   gradientUnits="userSpaceOnUse"><stop
   style="stop-color:#bfbfbf;stop-opacity:1;"
   offset="0"
   id="stop652" /><stop
   style="stop-color:#000000;stop-opacity:1;"
   offset="1"
   id="stop653" /><a:midPointStop
   offset="0"
   style="stop-color:#BFBFBF"
   id="midPointStop654" /><a:midPointStop
   offset="0.5"
   style="stop-color:#BFBFBF"
   id="midPointStop655" /><a:midPointStop
   offset="1"
   style="stop-color:#000000"
   id="midPointStop656" /></linearGradient><path
   d="M 68.929 81.411 C 68.929 77.59 65.831 74.493 62.011 74.493 C 58.19 74.493 55.093 77.591 55.093 81.411 C 55.093 85.231 58.191 88.329 62.011 88.329 C 65.832 88.33 68.929 85.232 68.929 81.411 z "
   style="fill:url(#XMLID_5_);stroke:none;"
   id="path657" /><path
   d="M 68.929 81.411 C 68.929 77.59 65.831 74.493 62.011 74.493 C 58.19 74.493 55.093 77.591 55.093 81.411 C 55.093 85.231 58.191 88.329 62.011 88.329 C 65.832 88.33 68.929 85.232 68.929 81.411 z "
   style="fill:none;"
   id="path658" /></g><g
   style="font-size:12;stroke:#000000;"
   id="g661"><linearGradient
   x1="50.9033012"
   y1="86.3031998"
   x2="41.1198006"
   y2="76.5196991"
   id="XMLID_6_"
   gradientUnits="userSpaceOnUse"><stop
   style="stop-color:#bfbfbf;stop-opacity:1;"
   offset="0"
   id="stop663" /><stop
   style="stop-color:#000000;stop-opacity:1;"
   offset="1"
   id="stop664" /><a:midPointStop
   offset="0"
   style="stop-color:#BFBFBF"
   id="midPointStop665" /><a:midPointStop
   offset="0.5"
   style="stop-color:#BFBFBF"
   id="midPointStop666" /><a:midPointStop
   offset="1"
   style="stop-color:#000000"
   id="midPointStop667" /></linearGradient><path
   d="M 52.929 81.412 C 52.929 77.591 49.831 74.493 46.011 74.493 C 42.19 74.493 39.093 77.591 39.093 81.412 C 39.093 85.232 42.191 88.33 46.011 88.33 C 49.832 88.33 52.929 85.232 52.929 81.412 z "
   style="fill:url(#XMLID_6_);stroke:none;"
   id="path668" /><path
   d="M 52.929 81.412 C 52.929 77.591 49.831 74.493 46.011 74.493 C 42.19 74.493 39.093 77.591 39.093 81.412 C 39.093 85.232 42.191 88.33 46.011 88.33 C 49.832 88.33 52.929 85.232 52.929 81.412 z "
   style="fill:none;"
   id="path669" /></g><g
   style="font-size:12;stroke:#000000;"
   id="g672"><linearGradient
   x1="34.8134995"
   y1="86.3041992"
   x2="25.0286007"
   y2="76.5193024"
   id="XMLID_7_"
   gradientUnits="userSpaceOnUse"><stop
   style="stop-color:#bfbfbf;stop-opacity:1;"
   offset="0"
   id="stop674" /><stop
   style="stop-color:#000000;stop-opacity:1;"
   offset="1"
   id="stop675" /><a:midPointStop
   offset="0"
   style="stop-color:#BFBFBF"
   id="midPointStop676" /><a:midPointStop
   offset="0.5"
   style="stop-color:#BFBFBF"
   id="midPointStop677" /><a:midPointStop
   offset="1"
   style="stop-color:#000000"
   id="midPointStop678" /></linearGradient><path
   d="M 36.839 81.411 C 36.839 77.59 33.741 74.493 29.921 74.493 C 26.1 74.493 23.003 77.591 23.003 81.411 C 23.003 85.231 26.101 88.329 29.921 88.329 C 33.741 88.33 36.839 85.232 36.839 81.411 z "
   style="fill:url(#XMLID_7_);stroke:none;"
   id="path679" /><path
   d="M 36.839 81.411 C 36.839 77.59 33.741 74.493 29.921 74.493 C 26.1 74.493 23.003 77.591 23.003 81.411 C 23.003 85.231 26.101 88.329 29.921 88.329 C 33.741 88.33 36.839 85.232 36.839 81.411 z "
   style="fill:none;"
   id="path680" /></g><g
   style="font-size:12;stroke:#000000;"
   id="g683"><linearGradient
   x1="18.8129997"
   y1="86.3031998"
   x2="9.02950001"
   y2="76.5196991"
   id="XMLID_8_"
   gradientUnits="userSpaceOnUse"><stop
   style="stop-color:#bfbfbf;stop-opacity:1;"
   offset="0"
   id="stop685" /><stop
   style="stop-color:#000000;stop-opacity:1;"
   offset="1"
   id="stop686" /><a:midPointStop
   offset="0"
   style="stop-color:#BFBFBF"
   id="midPointStop687" /><a:midPointStop
   offset="0.5"
   style="stop-color:#BFBFBF"
   id="midPointStop688" /><a:midPointStop
   offset="1"
   style="stop-color:#000000"
   id="midPointStop689" /></linearGradient><path
   d="M 20.839 81.411 C 20.839 77.59 17.741 74.493 13.921 74.493 C 10.1 74.493 7.003 77.591 7.003 81.411 C 7.003 85.231 10.101 88.329 13.921 88.329 C 17.741 88.33 20.839 85.232 20.839 81.411 z "
   style="fill:url(#XMLID_8_);stroke:none;"
   id="path690" /><path
   d="M 20.839 81.411 C 20.839 77.59 17.741 74.493 13.921 74.493 C 10.1 74.493 7.003 77.591 7.003 81.411 C 7.003 85.231 10.101 88.329 13.921 88.329 C 17.741 88.33 20.839 85.232 20.839 81.411 z "
   style="fill:none;"
   id="path691" /></g><g
   style="font-size:12;stroke:#000000;"
   id="g695"><g
   id="g696"><path
   d="M 34.41 19.792 C 34.41 -12.993 141.169 -10.828 112.423 91.181 C 105.91 114.292 69.91 123.792 69.91 123.792 "
   style="fill:none;stroke-width:2;"
   id="path697" /><path
   d="M 33.91 19.792 C 33.91 -12.993 140.669 -10.828 111.923 91.181 C 105.41 114.292 90.077 132.459 90.077 132.459 "
   style="fill:none;stroke-width:2;"
   id="path698" /><g
   id="g699"><linearGradient
   x1="72.5073013"
   y1="149.695801"
   x2="89.8876038"
   y2="132.315506"
   id="XMLID_9_"
   gradientUnits="userSpaceOnUse"><stop
   style="stop-color:#bfbfbf;stop-opacity:1;"
   offset="0"
   id="stop701" /><stop
   style="stop-color:#000000;stop-opacity:1;"
   offset="1"
   id="stop702" /><a:midPointStop
   offset="0"
   style="stop-color:#BFBFBF"
   id="midPointStop703" /><a:midPointStop
   offset="0.5"
   style="stop-color:#BFBFBF"
   id="midPointStop704" /><a:midPointStop
   offset="1"
   style="stop-color:#000000"
   id="midPointStop705" /></linearGradient><path
   d="M 76.013 151.483 C 75.023 152.802 75.167 152.927 76.333 151.761 L 90.711 137.383 C 91.878 136.216 91.878 134.307 90.711 133.141 L 89.061 131.49 C 87.894 130.324 85.986 130.324 84.819 131.49 L 74.964 141.346 C 79.91 146.292 76.013 151.483 76.013 151.483 z "
   style="fill:url(#XMLID_9_);stroke:none;"
   id="path706" /><path
   d="M 76.013 151.483 C 75.023 152.802 75.167 152.927 76.333 151.761 L 90.711 137.383 C 91.878 136.216 91.878 134.307 90.711 133.141 L 89.061 131.49 C 87.894 130.324 85.986 130.324 84.819 131.49 L 74.964 141.346 C 79.91 146.292 76.013 151.483 76.013 151.483 z "
   style="fill:none;stroke-width:0.5;"
   id="path707" /></g><linearGradient
   x1="56.5186005"
   y1="160.0112"
   x2="73.8917999"
   y2="142.638"
   id="XMLID_10_"
   gradientUnits="userSpaceOnUse"
   gradientTransform="matrix(0.5928,-0.5928,0.7071,0.7071,-78.912,81.4438)"><stop
   style="stop-color:#bfbfbf;stop-opacity:1;"
   offset="0"
   id="stop709" /><stop
   style="stop-color:#000000;stop-opacity:1;"
   offset="1"
   id="stop710" /><a:midPointStop
   offset="0"
   style="stop-color:#BFBFBF"
   id="midPointStop711" /><a:midPointStop
   offset="0.5"
   style="stop-color:#BFBFBF"
   id="midPointStop712" /><a:midPointStop
   offset="1"
   style="stop-color:#000000"
   id="midPointStop713" /></linearGradient><path
   d="M 75.577 140.959 C 71.918 137.303 65.001 138.292 60.123 143.169 C 55.244 148.048 54.254 154.966 57.911 158.624 C 61.567 162.28 68.487 161.29 73.366 156.413 C 78.243 151.535 79.232 144.618 75.577 140.959 z "
   style="fill:url(#XMLID_10_);stroke-width:0.5;"
   id="path714" /><linearGradient
   x1="58.1211014"
   y1="156.005402"
   x2="71.7257996"
   y2="142.400696"
   id="XMLID_11_"
   gradientUnits="userSpaceOnUse"
   gradientTransform="matrix(0.5928,-0.5928,0.7071,0.7071,-78.912,81.4438)"><stop
   style="stop-color:#bfbfbf;stop-opacity:1;"
   offset="0"
   id="stop716" /><stop
   style="stop-color:#000000;stop-opacity:1;"
   offset="1"
   id="stop717" /><a:midPointStop
   offset="0"
   style="stop-color:#BFBFBF"
   id="midPointStop718" /><a:midPointStop
   offset="0.5"
   style="stop-color:#BFBFBF"
   id="midPointStop719" /><a:midPointStop
   offset="1"
   style="stop-color:#000000"
   id="midPointStop720" /></linearGradient><path
   d="M 71.994 141.542 C 69.129 138.679 63.712 139.453 59.892 143.272 C 56.072 147.092 55.297 152.51 58.16 155.375 C 61.024 158.238 66.442 157.463 70.263 153.644 C 74.082 149.824 74.856 144.407 71.994 141.542 z "
   style="fill:url(#XMLID_11_);stroke-width:0.5;"
   id="path721" /><g
   id="g722"><linearGradient
   x1="39.0796013"
   y1="131.522903"
   x2="69.0479965"
   y2="127.3834"
   id="XMLID_12_"
   gradientUnits="userSpaceOnUse"
   gradientTransform="matrix(1.0839,-0.35,0.3158,0.9782,-45.9416,21.3008)"><stop
   style="stop-color:#bfbfbf;stop-opacity:1;"
   offset="0"
   id="stop724" /><stop
   style="stop-color:#000000;stop-opacity:1;"
   offset="1"
   id="stop725" /><a:midPointStop
   offset="0"
   style="stop-color:#BFBFBF"
   id="midPointStop726" /><a:midPointStop
   offset="0.5"
   style="stop-color:#BFBFBF"
   id="midPointStop727" /><a:midPointStop
   offset="1"
   style="stop-color:#000000"
   id="midPointStop728" /></linearGradient><path
   d="M 37.336 135.05 C 37.843 136.619 39.543 137.489 41.113 136.983 L 68.282 128.211 C 69.851 127.704 70.721 126.004 70.215 124.435 L 69.742 122.97 C 69.235 121.401 67.535 120.531 65.966 121.037 L 38.797 129.809 C 37.227 130.316 36.357 132.016 36.864 133.585 L 37.336 135.05 z "
   style="fill:url(#XMLID_12_);stroke:none;"
   id="path729" /><path
   d="M 37.336 135.05 C 37.843 136.619 39.543 137.489 41.113 136.983 L 68.282 128.211 C 69.851 127.704 70.721 126.004 70.215 124.435 L 69.742 122.97 C 69.235 121.401 67.535 120.531 65.966 121.037 L 38.797 129.809 C 37.227 130.316 36.357 132.016 36.864 133.585 L 37.336 135.05 z "
   style="fill:none;stroke-width:0.5;"
   id="path730" /></g><linearGradient
   x1="39.482399"
   y1="148.153793"
   x2="52.172699"
   y2="135.463593"
   id="XMLID_13_"
   gradientUnits="userSpaceOnUse"
   gradientTransform="matrix(0.9425,-0.3343,0.3343,0.9425,-43.7473,23.3107)"><stop
   style="stop-color:#bfbfbf;stop-opacity:1;"
   offset="0"
   id="stop732" /><stop
   style="stop-color:#000000;stop-opacity:1;"
   offset="1"
   id="stop733" /><a:midPointStop
   offset="0"
   style="stop-color:#BFBFBF"
   id="midPointStop734" /><a:midPointStop
   offset="0.5"
   style="stop-color:#BFBFBF"
   id="midPointStop735" /><a:midPointStop
   offset="1"
   style="stop-color:#000000"
   id="midPointStop736" /></linearGradient><path
   d="M 58.055 137.333 C 57.563 135.945 50.763 132.845 44.516 135.061 C 38.27 137.276 34.942 143.967 35.435 145.355 C 35.927 146.744 34.756 148.426 47.636 143.858 C 60.516 139.29 58.547 138.721 58.055 137.333 z "
   style="fill:url(#XMLID_13_);stroke-width:0.5;"
   id="path737" /><linearGradient
   x1="39.3681984"
   y1="149.150894"
   x2="52.4281006"
   y2="136.090897"
   id="XMLID_14_"
   gradientUnits="userSpaceOnUse"
   gradientTransform="matrix(0.9425,-0.3343,0.3343,0.9425,-43.7473,23.3107)"><stop
   style="stop-color:#bfbfbf;stop-opacity:1;"
   offset="0"
   id="stop739" /><stop
   style="stop-color:#000000;stop-opacity:1;"
   offset="1"
   id="stop740" /><a:midPointStop
   offset="0"
   style="stop-color:#BFBFBF"
   id="midPointStop741" /><a:midPointStop
   offset="0.5"
   style="stop-color:#BFBFBF"
   id="midPointStop742" /><a:midPointStop
   offset="1"
   style="stop-color:#000000"
   id="midPointStop743" /></linearGradient><path
   d="M 58.055 137.333 C 57.563 135.945 52.99 139.576 46.743 141.792 C 40.496 144.007 34.942 143.967 35.435 145.355 C 35.927 146.744 35.863 150.694 48.743 146.126 C 61.624 141.557 58.547 138.721 58.055 137.333 z "
   style="fill:url(#XMLID_14_);stroke-width:0.5;"
   id="path744" /></g></g><path
   d="M 38.58894 80.43316 C 2.255944 80.43316 1.208944 133.7682 1.208944 133.7682 C 1.100944 139.2672 1.012944 139.2662 1.012944 133.7662 L 1.012944 29.21716 C 1.012944 23.71716 5.512944 19.21716 11.01294 19.21716 L 63.54993 19.21716 C 69.04993 19.21716 73.65093 23.71616 73.77493 29.21516 C 73.77393 29.21516 74.92293 80.43316 38.58894 80.43316 z "
   style="font-size:12;fill:#ffffff;fill-opacity:0.2538;"
   id="path746" /><path
   d="M 38.076 81.459 C 1.743 81.459 0.696 134.794 0.696 134.794 C 0.588 140.293 0.5 140.292 0.5 134.792 L 0.5 30.243 C 0.5 24.743 5 20.243 10.5 20.243 L 63.037 20.243 C 68.537 20.243 73.138 24.742 73.262 30.241 C 73.261 30.241 74.41 81.459 38.076 81.459 z "
   style="font-size:12;fill:none;stroke:#ffffff;stroke-opacity:0.1077;"
   id="path747" /></svg>
