<?xml version="1.0" encoding="UTF-8" standalone="no"?>
<!DOCTYPE svg PUBLIC "-//W3C//DTD SVG 20010904//EN"
"http://www.w3.org/TR/2001/REC-SVG-20010904/DTD/svg10.dtd">
<!-- Created with Sodipodi ("http://www.sodipodi.com/") -->
<svg
   i:viewOrigin="231 471"
   i:rulerOrigin="-242 -332"
   i:pageBounds="242 460 370 332"
   width="48pt"
   height="48pt"
   viewBox="0 0 150 149"
   overflow="visible"
   enable-background="new 0 0 150 149"
   xml:space="preserve"
   id="svg153"
   sodipodi:version="0.32"
   sodipodi:docname="/home/cschalle/gnome-themes-extras/Amaranth/icons/scalable/apps/xmms.svg"
   sodipodi:docbase="/home/cschalle/gnome-themes-extras/Amaranth/icons/scalable/apps/"
   xmlns="http://www.w3.org/2000/svg"
   xmlns:sodipodi="http://sodipodi.sourceforge.net/DTD/sodipodi-0.dtd"
   xmlns:ns="http://ns.adobe.com/Variables/1.0/"
   xmlns:i="http://ns.adobe.com/AdobeIllustrator/10.0/"
   xmlns:xml="http://www.w3.org/XML/1998/namespace"
   xmlns:a="http://ns.adobe.com/AdobeSVGViewerExtensions/3.0/"
   xmlns:xlink="http://www.w3.org/1999/xlink">
  <defs
     id="defs208" />
  <sodipodi:namedview
     id="base" />
  <metadata
     id="metadata154">
    <sfw>
      <slices />
      <sliceSourceBounds
         x="231"
         y="322"
         width="150"
         height="149"
         bottomLeftOrigin="true" />
    </sfw>
    <ns:variableSets>
      <ns:variableSet
         varSetName="binding1"
         locked="none">
        <ns:variables />
        <ns:sampleDataSets />
      </ns:variableSet>
    </ns:variableSets>
  </metadata>
  <g
     i:knockout="Off"
     id="g158"
     style="font-size:12;stroke:#000000;">
    <path
       i:knockout="Off"
       opacity="0"
       fill="#FFFFFF"
       stroke="none"
       d="M130.508,71.478c0-5.5-0.76-10.824-2.18-15.87      c-5.448-19.354-20.611-34.637-39.894-40.254c-5.196-1.514-10.691-2.325-16.376-2.325c-7.794,0-15.232,1.525-22.032,4.294      c-15.614,6.359-27.86,19.275-33.319,35.329c-2.009,5.907-3.098,12.239-3.098,18.826c0,6.683,1.122,13.104,3.187,19.085      c6.224,18.026,21.02,32.057,39.515,37.218c5.01,1.398,10.291,2.146,15.747,2.146C104.34,129.927,130.508,103.759,130.508,71.478      z"
       id="path159" />
    <path
       i:knockout="Off"
       fill="none"
       stroke-width="2"
       stroke-linecap="round"
       stroke-linejoin="round"
       stroke-dasharray="50"
       d="      M130.508,71.478c0-5.5-0.76-10.824-2.18-15.87c-5.448-19.354-20.611-34.637-39.894-40.254      c-5.196-1.514-10.691-2.325-16.376-2.325c-7.794,0-15.232,1.525-22.032,4.294c-15.614,6.359-27.86,19.275-33.319,35.329      c-2.009,5.907-3.098,12.239-3.098,18.826c0,6.683,1.122,13.104,3.187,19.085c6.224,18.026,21.02,32.057,39.515,37.218      c5.01,1.398,10.291,2.146,15.747,2.146C104.34,129.927,130.508,103.759,130.508,71.478z"
       id="path160" />
  </g>
  <g
     i:knockout="Off"
     id="g163"
     style="font-size:12;stroke:#000000;">
    <path
       i:knockout="Off"
       opacity="0"
       fill="#FFFFFF"
       stroke="none"
       d="M126.508,71.449c0-5.124-0.707-10.083-2.031-14.784      c-5.074-18.029-19.2-32.267-37.163-37.499C82.474,17.756,77.354,17,72.059,17c-7.261,0-14.19,1.421-20.524,4      c-14.546,5.924-25.954,17.957-31.039,32.912c-1.871,5.502-2.886,11.401-2.886,17.537c0,6.227,1.045,12.207,2.969,17.78      c5.798,16.791,19.582,29.862,36.811,34.669c4.667,1.303,9.587,2,14.669,2C102.131,125.898,126.508,101.521,126.508,71.449z"
       id="path164" />
    <path
       i:knockout="Off"
       fill="none"
       stroke-width="2"
       stroke-linecap="round"
       stroke-linejoin="round"
       stroke-dasharray="35"
       d="      M126.508,71.449c0-5.124-0.707-10.083-2.031-14.784c-5.074-18.029-19.2-32.267-37.163-37.499C82.474,17.756,77.354,17,72.059,17      c-7.261,0-14.19,1.421-20.524,4c-14.546,5.924-25.954,17.957-31.039,32.912c-1.871,5.502-2.886,11.401-2.886,17.537      c0,6.227,1.045,12.207,2.969,17.78c5.798,16.791,19.582,29.862,36.811,34.669c4.667,1.303,9.587,2,14.669,2      C102.131,125.898,126.508,101.521,126.508,71.449z"
       id="path165" />
  </g>
  <g
     id="g166"
     style="font-size:12;stroke:#000000;">
    <g
       id="g167">
      <g
         i:knockout="Off"
         id="g168">
        <linearGradient
           id="XMLID_1_"
           gradientUnits="userSpaceOnUse"
           x1="32.6519"
           y1="44.3164"
           x2="112.3912"
           y2="100.1505">
          <stop
             offset="0.0056"
             style="stop-color:#FFFFFF"
             id="stop170" />
          <stop
             offset="0.9831"
             style="stop-color:#1C1C1C"
             id="stop171" />
          <a:midPointStop
             offset="0.0056"
             style="stop-color:#FFFFFF"
             id="midPointStop172" />
          <a:midPointStop
             offset="0.5"
             style="stop-color:#FFFFFF"
             id="midPointStop173" />
          <a:midPointStop
             offset="0.9831"
             style="stop-color:#1C1C1C"
             id="midPointStop174" />
        </linearGradient>
        <path
           i:knockout="Off"
           fill="url(#XMLID_1_)"
           stroke="none"
           d="M121.196,72.233c0-26.883-21.792-48.675-48.675-48.675       c-26.882,0-48.675,21.792-48.675,48.675s21.792,48.675,48.675,48.675C99.404,120.908,121.196,99.116,121.196,72.233z"
           id="path175" />
        <path
           i:knockout="Off"
           fill="none"
           stroke-width="2"
           d="M121.196,72.233c0-26.883-21.792-48.675-48.675-48.675       c-26.882,0-48.675,21.792-48.675,48.675s21.792,48.675,48.675,48.675C99.404,120.908,121.196,99.116,121.196,72.233z"
           id="path176" />
      </g>
    </g>
  </g>
  <g
     i:knockout="Off"
     id="g177"
     style="font-size:12;stroke:#000000;">
    <g
       i:knockout="Off"
       id="g178">
      <linearGradient
         id="XMLID_2_"
         gradientUnits="userSpaceOnUse"
         x1="50.3433"
         y1="75.9351"
         x2="94.3755"
         y2="31.9028">
        <stop
           offset="0.0056"
           style="stop-color:#076AAD"
           id="stop180" />
        <stop
           offset="0.9831"
           style="stop-color:#00A0C6"
           id="stop181" />
        <a:midPointStop
           offset="0.0056"
           style="stop-color:#076AAD"
           id="midPointStop182" />
        <a:midPointStop
           offset="0.5"
           style="stop-color:#076AAD"
           id="midPointStop183" />
        <a:midPointStop
           offset="0.9831"
           style="stop-color:#00A0C6"
           id="midPointStop184" />
      </linearGradient>
      <path
         i:knockout="Off"
         fill="url(#XMLID_2_)"
         stroke="none"
         d="M95.109,33.676c0,4.262-1.316,8.268-3.945,12.018      c-2.402,3.475-5.586,6.23-9.555,8.268c3.941,2.039,7.143,4.793,9.604,8.266c2.598,3.705,3.896,7.688,3.896,11.949      c0,0.695-0.25,1.285-0.748,1.771s-1.104,0.729-1.814,0.729c-0.713,0-1.318-0.242-1.816-0.73      c-0.498-0.486-0.746-1.078-0.746-1.775c0-4.684-1.775-8.813-5.322-12.385c-3.549-3.572-7.65-5.359-12.303-5.359      c-4.654,0-8.756,1.775-12.303,5.324c-3.549,3.549-5.322,7.689-5.322,12.42c0,0.697-0.25,1.289-0.748,1.775      c-0.498,0.488-1.104,0.73-1.814,0.73c-0.713,0-1.318-0.242-1.816-0.729s-0.746-1.076-0.746-1.771      c0-4.354,1.17-8.324,3.514-11.914c2.344-3.588,5.463-6.379,9.361-8.371c-3.918-1.99-7.045-4.779-9.377-8.369      s-3.498-7.537-3.498-11.846c0-0.693,0.242-1.283,0.73-1.77c0.486-0.486,1.078-0.73,1.773-0.73s1.287,0.242,1.775,0.727      c0.486,0.484,0.73,1.072,0.73,1.764c0,4.656,1.785,8.76,5.355,12.311s7.699,5.324,12.385,5.324      c4.684,0,8.813-1.764,12.383-5.291S90.1,38.369,90.1,33.666c0-0.691,0.242-1.279,0.73-1.764      c0.486-0.484,1.078-0.727,1.775-0.727c0.695,0,1.285,0.244,1.773,0.73C94.865,32.393,95.109,32.982,95.109,33.676z"
         id="path185" />
    </g>
    <g
       id="g186">
      <path
         i:knockout="Off"
         fill="none"
         stroke-width="2"
         d="M95.109,33.676c0,4.262-1.316,8.268-3.945,12.018      c-2.402,3.475-5.586,6.23-9.555,8.268c3.941,2.039,7.143,4.793,9.604,8.266c2.598,3.705,3.896,7.688,3.896,11.949      c0,0.695-0.25,1.285-0.748,1.771s-1.104,0.729-1.814,0.729c-0.713,0-1.318-0.242-1.816-0.73      c-0.498-0.486-0.746-1.078-0.746-1.775c0-4.684-1.775-8.813-5.322-12.385c-3.549-3.572-7.65-5.359-12.303-5.359      c-4.654,0-8.756,1.775-12.303,5.324c-3.549,3.549-5.322,7.689-5.322,12.42c0,0.697-0.25,1.289-0.748,1.775      c-0.498,0.488-1.104,0.73-1.814,0.73c-0.713,0-1.318-0.242-1.816-0.729s-0.746-1.076-0.746-1.771      c0-4.354,1.17-8.324,3.514-11.914c2.344-3.588,5.463-6.379,9.361-8.371c-3.918-1.99-7.045-4.779-9.377-8.369      s-3.498-7.537-3.498-11.846c0-0.693,0.242-1.283,0.73-1.77c0.486-0.486,1.078-0.73,1.773-0.73s1.287,0.242,1.775,0.727      c0.486,0.484,0.73,1.072,0.73,1.764c0,4.656,1.785,8.76,5.355,12.311s7.699,5.324,12.385,5.324      c4.684,0,8.813-1.764,12.383-5.291S90.1,38.369,90.1,33.666c0-0.691,0.242-1.279,0.73-1.764      c0.486-0.484,1.078-0.727,1.775-0.727c0.695,0,1.285,0.244,1.773,0.73C94.865,32.393,95.109,32.982,95.109,33.676z"
         id="path187" />
    </g>
  </g>
  <g
     i:knockout="Off"
     id="g188"
     style="font-size:12;stroke:#000000;">
    <g
       i:knockout="Off"
       id="g189">
      <linearGradient
         id="XMLID_3_"
         gradientUnits="userSpaceOnUse"
         x1="47.915"
         y1="110.7754"
         x2="96.761"
         y2="61.9294">
        <stop
           offset="0.0056"
           style="stop-color:#076AAD"
           id="stop191" />
        <stop
           offset="0.9831"
           style="stop-color:#00A0C6"
           id="stop192" />
        <a:midPointStop
           offset="0.0056"
           style="stop-color:#076AAD"
           id="midPointStop193" />
        <a:midPointStop
           offset="0.5"
           style="stop-color:#076AAD"
           id="midPointStop194" />
        <a:midPointStop
           offset="0.9831"
           style="stop-color:#00A0C6"
           id="midPointStop195" />
      </linearGradient>
      <path
         i:knockout="Off"
         fill="url(#XMLID_3_)"
         stroke="none"
         d="M64.486,94.078c0,0.348-0.132,0.655-0.394,0.922      s-0.563,0.4-0.904,0.4c-0.365,0-0.673-0.116-0.924-0.348s-0.364-0.521-0.341-0.869v-7.333c0-1.737-0.619-3.226-1.856-4.466      c-1.238-1.239-2.725-1.859-4.46-1.859c-1.296,0-2.481,0.371-3.557,1.112c-1.076,0.742-1.845,1.715-2.308,2.919      c-0.255,0.626-0.382,1.101-0.382,1.425c0,0.974,0,2.283,0,3.928c0,1.946,0,3.267,0,3.962c0,0.371-0.134,0.719-0.399,1.043      c-0.267,0.324-0.577,0.486-0.932,0.486c-0.355,0-0.655-0.122-0.899-0.364s-0.355-0.537-0.332-0.885v-7.323      c-0.006-0.092-0.006-0.242,0-0.451c0-0.185,0-0.335,0-0.451c0-0.347-0.116-0.821-0.349-1.423      c-0.465-1.249-1.238-2.256-2.319-3.02c-1.082-0.764-2.285-1.146-3.609-1.146c-1.768,0-3.267,0.62-4.499,1.859      c-1.232,1.24-1.849,2.729-1.849,4.466c0-0.022,0,2.376,0,7.194c0,0.371-0.132,0.689-0.394,0.956      c-0.262,0.266-0.563,0.399-0.904,0.399c-0.342,0-0.639-0.122-0.889-0.365c-0.251-0.243-0.376-0.539-0.376-0.888v-7.344      c0-2.437,0.858-4.52,2.577-6.248c1.718-1.729,3.808-2.593,6.269-2.593c1.555,0,3.012,0.384,4.37,1.149s2.444,1.821,3.257,3.167      c0.789-1.283,1.845-2.292,3.168-3.026s2.751-1.103,4.284-1.103c2.461,0,4.562,0.87,6.303,2.61s2.612,3.829,2.612,6.265      L64.486,94.078z"
         id="path196" />
      <path
         i:knockout="Off"
         fill="url(#XMLID_3_)"
         stroke="none"
         d="M99.08,94.078c0,0.348-0.133,0.655-0.395,0.922      s-0.563,0.4-0.904,0.4c-0.365,0-0.672-0.116-0.924-0.348c-0.25-0.231-0.363-0.521-0.34-0.869v-7.333      c0-1.737-0.619-3.226-1.857-4.466c-1.238-1.239-2.725-1.859-4.459-1.859c-1.297,0-2.482,0.371-3.557,1.112      c-1.076,0.742-1.846,1.715-2.309,2.919c-0.254,0.626-0.381,1.101-0.381,1.425c0,0.974,0,2.283,0,3.928c0,1.946,0,3.267,0,3.962      c0,0.371-0.135,0.719-0.4,1.043S82.979,95.4,82.623,95.4s-0.654-0.122-0.898-0.364s-0.355-0.537-0.332-0.885v-7.323      c-0.006-0.092-0.006-0.242,0-0.451c0-0.185,0-0.335,0-0.451c0-0.347-0.117-0.821-0.35-1.423      c-0.465-1.249-1.238-2.256-2.318-3.02c-1.082-0.764-2.285-1.146-3.61-1.146c-1.768,0-3.267,0.62-4.499,1.859      c-1.232,1.24-1.849,2.729-1.849,4.466c0-0.022,0,2.376,0,7.194c0,0.371-0.132,0.689-0.394,0.956      c-0.262,0.266-0.563,0.399-0.904,0.399c-0.342,0-0.639-0.122-0.889-0.365c-0.251-0.243-0.376-0.539-0.376-0.888v-7.344      c0-2.437,0.858-4.52,2.577-6.248c1.718-1.729,3.808-2.593,6.269-2.593c1.555,0,3.012,0.384,4.37,1.149      c1.359,0.766,2.445,1.821,3.258,3.167c0.789-1.283,1.844-2.292,3.168-3.026c1.322-0.734,2.75-1.103,4.283-1.103      c2.461,0,4.563,0.87,6.303,2.61c1.742,1.74,2.613,3.829,2.613,6.265L99.08,94.078z"
         id="path197" />
      <path
         i:knockout="Off"
         fill="url(#XMLID_3_)"
         stroke="none"
         d="M113.01,86.143c0,2.452-0.869,4.546-2.607,6.28      c-1.738,1.735-3.824,2.603-6.258,2.603h-2.295c-0.348,0-0.655-0.127-0.922-0.381s-0.399-0.565-0.399-0.935      c0-0.346,0.121-0.641,0.365-0.883c0.243-0.242,0.55-0.364,0.921-0.364c0.255,0,0.638,0,1.147,0s0.892,0,1.147,0      c1.46,0,2.77-0.461,3.929-1.383c1.158-0.922,1.9-2.107,2.225-3.555h-9.839V86.17c0-2.455,0.869-4.551,2.607-6.288      s3.836-2.606,6.293-2.606h2.26c0.348,0,0.654,0.133,0.921,0.398s0.4,0.571,0.4,0.917c0,0.347-0.122,0.642-0.365,0.884      c-0.244,0.242-0.539,0.363-0.887,0.363c-0.278,0-0.672,0-1.182,0s-0.881,0-1.112,0c-1.507,0-2.846,0.48-4.016,1.439      c-1.171,0.96-1.907,2.188-2.208,3.686h9.874V86.143z"
         id="path198" />
    </g>
    <g
       id="g199">
      <path
         i:knockout="Off"
         fill="none"
         stroke-width="2"
         d="M64.486,94.078c0,0.348-0.132,0.655-0.394,0.922s-0.563,0.4-0.904,0.4      c-0.365,0-0.673-0.116-0.924-0.348s-0.364-0.521-0.341-0.869v-7.333c0-1.737-0.619-3.226-1.856-4.466      c-1.238-1.239-2.725-1.859-4.46-1.859c-1.296,0-2.481,0.371-3.557,1.112c-1.076,0.742-1.845,1.715-2.308,2.919      c-0.255,0.626-0.382,1.101-0.382,1.425c0,0.974,0,2.283,0,3.928c0,1.946,0,3.267,0,3.962c0,0.371-0.134,0.719-0.399,1.043      c-0.267,0.324-0.577,0.486-0.932,0.486c-0.355,0-0.655-0.122-0.899-0.364s-0.355-0.537-0.332-0.885v-7.323      c-0.006-0.092-0.006-0.242,0-0.451c0-0.185,0-0.335,0-0.451c0-0.347-0.116-0.821-0.349-1.423      c-0.465-1.249-1.238-2.256-2.319-3.02c-1.082-0.764-2.285-1.146-3.609-1.146c-1.768,0-3.267,0.62-4.499,1.859      c-1.232,1.24-1.849,2.729-1.849,4.466c0-0.022,0,2.376,0,7.194c0,0.371-0.132,0.689-0.394,0.956      c-0.262,0.266-0.563,0.399-0.904,0.399c-0.342,0-0.639-0.122-0.889-0.365c-0.251-0.243-0.376-0.539-0.376-0.888v-7.344      c0-2.437,0.858-4.52,2.577-6.248c1.718-1.729,3.808-2.593,6.269-2.593c1.555,0,3.012,0.384,4.37,1.149s2.444,1.821,3.257,3.167      c0.789-1.283,1.845-2.292,3.168-3.026s2.751-1.103,4.284-1.103c2.461,0,4.562,0.87,6.303,2.61s2.612,3.829,2.612,6.265      L64.486,94.078z"
         id="path200" />
      <path
         i:knockout="Off"
         fill="none"
         stroke-width="2"
         d="M99.08,94.078c0,0.348-0.133,0.655-0.395,0.922s-0.563,0.4-0.904,0.4      c-0.365,0-0.672-0.116-0.924-0.348c-0.25-0.231-0.363-0.521-0.34-0.869v-7.333c0-1.737-0.619-3.226-1.857-4.466      c-1.238-1.239-2.725-1.859-4.459-1.859c-1.297,0-2.482,0.371-3.557,1.112c-1.076,0.742-1.846,1.715-2.309,2.919      c-0.254,0.626-0.381,1.101-0.381,1.425c0,0.974,0,2.283,0,3.928c0,1.946,0,3.267,0,3.962c0,0.371-0.135,0.719-0.4,1.043      S82.979,95.4,82.623,95.4s-0.654-0.122-0.898-0.364s-0.355-0.537-0.332-0.885v-7.323c-0.006-0.092-0.006-0.242,0-0.451      c0-0.185,0-0.335,0-0.451c0-0.347-0.117-0.821-0.35-1.423c-0.465-1.249-1.238-2.256-2.318-3.02      c-1.082-0.764-2.285-1.146-3.61-1.146c-1.768,0-3.267,0.62-4.499,1.859c-1.232,1.24-1.849,2.729-1.849,4.466      c0-0.022,0,2.376,0,7.194c0,0.371-0.132,0.689-0.394,0.956c-0.262,0.266-0.563,0.399-0.904,0.399      c-0.342,0-0.639-0.122-0.889-0.365c-0.251-0.243-0.376-0.539-0.376-0.888v-7.344c0-2.437,0.858-4.52,2.577-6.248      c1.718-1.729,3.808-2.593,6.269-2.593c1.555,0,3.012,0.384,4.37,1.149c1.359,0.766,2.445,1.821,3.258,3.167      c0.789-1.283,1.844-2.292,3.168-3.026c1.322-0.734,2.75-1.103,4.283-1.103c2.461,0,4.563,0.87,6.303,2.61      c1.742,1.74,2.613,3.829,2.613,6.265L99.08,94.078z"
         id="path201" />
      <path
         i:knockout="Off"
         fill="none"
         stroke-width="2"
         d="M113.01,86.143c0,2.452-0.869,4.546-2.607,6.28      c-1.738,1.735-3.824,2.603-6.258,2.603h-2.295c-0.348,0-0.655-0.127-0.922-0.381s-0.399-0.565-0.399-0.935      c0-0.346,0.121-0.641,0.365-0.883c0.243-0.242,0.55-0.364,0.921-0.364c0.255,0,0.638,0,1.147,0s0.892,0,1.147,0      c1.46,0,2.77-0.461,3.929-1.383c1.158-0.922,1.9-2.107,2.225-3.555h-9.839V86.17c0-2.455,0.869-4.551,2.607-6.288      s3.836-2.606,6.293-2.606h2.26c0.348,0,0.654,0.133,0.921,0.398s0.4,0.571,0.4,0.917c0,0.347-0.122,0.642-0.365,0.884      c-0.244,0.242-0.539,0.363-0.887,0.363c-0.278,0-0.672,0-1.182,0s-0.881,0-1.112,0c-1.507,0-2.846,0.48-4.016,1.439      c-1.171,0.96-1.907,2.188-2.208,3.686h9.874V86.143z"
         id="path202" />
    </g>
  </g>
  <g
     i:knockout="Off"
     id="g203"
     style="font-size:12;stroke:#000000;">
    <path
       i:knockout="Off"
       opacity="0.25"
       fill="#FFFFFF"
       stroke="none"
       d="M97.632,42.101c0,2.347-11.155,4.249-24.917,4.249     c-13.761,0-24.917-1.902-24.917-4.249s11.156-4.25,24.917-4.25C86.477,37.852,97.632,39.754,97.632,42.101z"
       id="path204" />
  </g>
  <g
     i:knockout="Off"
     id="g205"
     style="font-size:12;stroke:#000000;">
    <path
       i:knockout="Off"
       opacity="0.25"
       fill="#FFFFFF"
       stroke="none"
       d="M73.874,72.619c19.219-19.218,44.027-18.732,39.33-26.219     c-8.607-13.721-23.87-22.842-41.263-22.842c-26.882,0-48.674,24.724-48.674,48.675C23.267,96.184,54.655,91.839,73.874,72.619z"
       id="path206" />
  </g>
</svg>
