<?xml version="1.0" encoding="UTF-8" standalone="no"?>
<!DOCTYPE svg PUBLIC "-//W3C//DTD SVG 20010904//EN"
"http://www.w3.org/TR/2001/REC-SVG-20010904/DTD/svg10.dtd">
<!-- Created with Sodipodi ("http://www.sodipodi.com/") -->
<svg
   width="48pt"
   height="48pt"
   viewBox="0 0 256 256"
   overflow="visible"
   enable-background="new 0 0 256 256"
   xml:space="preserve"
   xmlns="http://www.w3.org/2000/svg"
   xmlns:xml="http://www.w3.org/XML/1998/namespace"
   xmlns:sodipodi="http://sodipodi.sourceforge.net/DTD/sodipodi-0.dtd"
   xmlns:xlink="http://www.w3.org/1999/xlink"
   id="svg153"
   sodipodi:version="0.32pre"
   sodipodi:docname="/home/cschalle/gnome-themes-extras/Lush/icons/scalable/filesystems/gnome-fs-directory.svgz"
   sodipodi:docbase="/home/cschalle/gnome-themes-extras/Lush/icons/scalable/filesystems/">
  <defs
     id="defs202" />
  <sodipodi:namedview
     id="base" />
  <g
     id="Layer_2"
     stroke="#000000">
    <path
       fill="none"
       stroke="none"
       d="M256,256H0V0h256V256z"
       id="path155" />
  </g>
  <g
     id="Layer_1"
     stroke="#000000">
    <path
       opacity="0.2"
       stroke="none"
       d="M27,210.334c0,10.677,50.443,19.332,112.667,19.332c62.223,0,112.666-8.655,112.666-19.332    c0-10.679-50.443-19.334-112.666-19.334C77.443,191,27,199.655,27,210.334z"
       id="path157" />
    <path
       stroke="none"
       d="M221.254,199.903c-1.122,7.32-7.341,12.443-13.892,11.44l-96.212-14.729    c-6.552-1.003-10.954-7.751-9.833-15.071L76.128,95.39c1.122-7.321,150.064-7.04,150.064-7.04    c6.551,1.003,10.953,7.751,9.833,15.073L221.254,199.903z"
       id="path158" />
    <path
       fill="#6AC29F"
       stroke="none"
       d="M79.153,98.39c2.203,7.534,24.284,83.058,24.284,83.058l-0.167,1.096    c-0.118,0.776-0.145,1.551-0.083,2.308c0.135,1.646,0.688,3.202,1.613,4.464c0.744,1.013,2.063,2.286,4.117,2.601l96.212,14.73    c3.813,0.583,7.49-2.672,8.193-7.256l14.77-96.479c0.121-0.791,0.146-1.57,0.085-2.322c-0.29-3.541-2.506-6.433-5.573-6.995    C161.386,93.49,94.741,95.241,79.153,98.39z"
       id="path159" />
    <linearGradient
       id="XMLID_1_"
       gradientUnits="userSpaceOnUse"
       x1="153.665"
       y1="101.3379"
       x2="153.665"
       y2="144.0038">
      <stop
         offset="0"
         style="stop-color:#FFFFFF"
         id="stop161" />
      <stop
         offset="1"
         style="stop-color:#000000"
         id="stop162" />
    </linearGradient>
    <path
       opacity="0.1"
       fill="url(#XMLID_1_)"
       stroke="none"
       adobe-blending-mode="multiply"
       d="M79.153,98.39    c2.203,7.534,24.284,83.058,24.284,83.058l-0.167,1.096c-0.118,0.776-0.145,1.551-0.083,2.308    c0.135,1.646,0.688,3.202,1.613,4.464c0.744,1.013,2.063,2.286,4.117,2.601l96.212,14.73c3.813,0.583,7.49-2.672,8.193-7.256    l14.77-96.479c0.121-0.791,0.146-1.57,0.085-2.322c-0.29-3.541-2.506-6.433-5.573-6.995C161.386,93.49,94.741,95.241,79.153,98.39    z"
       id="path166" />
    <path
       fill="#91D3AE"
       stroke="none"
       d="M228.177,100.588c-0.29-3.541-2.506-6.433-5.573-6.995    c-10.695-0.018-21.556,0.021-32.279,0.113l-5.632,4.182c0,0,25.751-4.111,29.78,4.255c4.026,8.366,3.554,27.133,3.554,27.133    l-1,36.872l1.199,1.203l9.866-64.442C228.213,102.119,228.237,101.34,228.177,100.588z"
       id="path167" />
    <path
       stroke="none"
       d="M19.659,66.5c-9.35-0.006-15.131,7.402-12.887,16.515l27.699,112.47    c2.244,9.111,11.675,16.53,21.025,16.536l152.452,0.091c9.347,0.004,15.131-7.403,12.888-16.515l-27.7-112.471    c-2.242-9.112-11.677-16.53-21.023-16.535L19.659,66.5z"
       id="path168" />
    <path
       stroke="none"
       d="M44.522,48.752c-8.638-0.025-13.952,7.039-11.848,15.749l2.448,10.129    c2.104,8.71,10.846,15.817,19.483,15.843l22.484,0.068c8.639,0.025,13.954-7.039,11.849-15.75l-2.447-10.128    c-2.105-8.709-10.847-15.817-19.485-15.843L44.522,48.752z"
       id="path169" />
    <linearGradient
       id="XMLID_2_"
       gradientUnits="userSpaceOnUse"
       x1="59.7622"
       y1="60.7207"
       x2="59.0957"
       y2="74.7204">
      <stop
         offset="0"
         style="stop-color:#CFECCF"
         id="stop171" />
      <stop
         offset="1"
         style="stop-color:#91D290"
         id="stop172" />
    </linearGradient>
    <path
       fill="url(#XMLID_2_)"
       stroke="none"
       d="M81.316,72.402c1.263,5.233-1.918,9.464-7.111,9.448l-22.483-0.067    c-5.191-0.016-10.424-4.271-11.689-9.506l-2.45-10.128c-1.264-5.235,1.919-9.465,7.111-9.449l22.481,0.067    c5.193,0.016,10.426,4.271,11.691,9.506L81.316,72.402z"
       id="path176" />
    <path
       opacity="0.6"
       fill="#FFFFFF"
       stroke="none"
       d="M67.554,52.498l-22.917-0.179c-5.292-0.041-8.521,6.154-7.212,13.839    l0.79,4.638c-1.31-7.684,1.921-13.881,7.212-13.839l22.918,0.182c5.292,0.041,10.641,6.304,11.95,13.989l-0.79-4.638    C78.196,58.802,72.846,52.541,67.554,52.498z"
       id="path177" />
    <linearGradient
       id="XMLID_3_"
       gradientUnits="userSpaceOnUse"
       x1="112.2666"
       y1="107.6689"
       x2="112.2666"
       y2="259.008">
      <stop
         offset="0"
         style="stop-color:#CFECCF"
         id="stop179" />
      <stop
         offset="1"
         style="stop-color:#91D290"
         id="stop180" />
    </linearGradient>
    <path
       fill="url(#XMLID_3_)"
       stroke="none"
       d="M213.022,194.558c1.392,5.642-2.265,10.217-8.165,10.213L52.405,204.68    c-5.899-0.004-11.808-4.583-13.198-10.225L11.509,81.984c-1.389-5.644,2.266-10.215,8.167-10.212l152.454,0.091    c5.898,0.002,11.808,4.581,13.196,10.224L213.022,194.558z"
       id="path184" />
    <linearGradient
       id="XMLID_4_"
       gradientUnits="userSpaceOnUse"
       x1="112.2666"
       y1="196.6709"
       x2="112.2666"
       y2="208.6674">
      <stop
         offset="0"
         style="stop-color:#FFFFFF"
         id="stop186" />
      <stop
         offset="1"
         style="stop-color:#15807D"
         id="stop187" />
    </linearGradient>
    <path
       opacity="0.5"
       fill="url(#XMLID_4_)"
       stroke="none"
       adobe-blending-mode="multiply"
       d="M213.022,194.558    c1.392,5.642-2.265,10.217-8.165,10.213L52.405,204.68c-5.899-0.004-11.808-4.583-13.198-10.225L11.509,81.984    c-1.389-5.644,2.266-10.215,8.167-10.212l152.454,0.091c5.898,0.002,11.808,4.581,13.196,10.224L213.022,194.558z"
       id="path191" />
    <radialGradient
       id="XMLID_5_"
       cx="167.3779"
       cy="82.6641"
       r="128.6971"
       fx="167.3779"
       fy="82.6641"
       gradientUnits="userSpaceOnUse">
      <stop
         offset="0"
         style="stop-color:#FFFFFF"
         id="stop193" />
      <stop
         offset="1"
         style="stop-color:#B3E1C2"
         id="stop194" />
    </radialGradient>
    <path
       opacity="0.3"
       fill="url(#XMLID_5_)"
       stroke="none"
       d="M19.668,76.772c-1.312,0-2.348,0.4-2.918,1.128    c-0.354,0.451-0.535,1.049-0.535,1.74c0,0.36,0.049,0.746,0.148,1.149c0,0.002,27.699,112.47,27.699,112.47    c0.842,3.417,4.742,6.418,8.346,6.42l152.452,0.091c1.313,0.001,2.351-0.399,2.922-1.129c0.539-0.687,0.676-1.712,0.386-2.887    L180.471,83.284c-0.842-3.419-4.74-6.418-8.344-6.42L19.672,76.772C19.671,76.772,19.67,76.772,19.668,76.772z"
       id="path198" />
    <path
       opacity="0.8"
       fill="#FFFFFF"
       stroke="none"
       d="M22.288,90.247c-1.391-5.644,2.265-10.215,8.165-10.212l146.288-7.259    c-1.481-0.58-3.046-0.911-4.611-0.912L19.675,71.772c-5.9-0.003-9.555,4.568-8.167,10.212l27.223,110.538L22.288,90.247z"
       id="path199" />
    <path
       fill="#2BA475"
       stroke="none"
       d="M148.277,204.867l55.949-0.045c6.004-0.005,9.731-4.586,8.324-10.226l-19.654-78.857    l0.621,4.661c0,0,11.386,53.259,12.247,57.786c0.858,4.525,2.438,14.112-2.034,19.976    C201.459,201.139,174.38,203.383,148.277,204.867z"
       id="path200" />
  </g>
</svg>
