<?xml version="1.0" encoding="UTF-8" standalone="no"?>
<svg
   xmlns:xapMM="http://ns.adobe.com/xap/1.0/mm/"
   xmlns:xap="http://ns.adobe.com/xap/1.0/"
   xmlns:pdf="http://ns.adobe.com/pdf/1.3/"
   xmlns:x="adobe:ns:meta/"
   xmlns:dc="http://purl.org/dc/elements/1.1/"
   xmlns:cc="http://creativecommons.org/ns#"
   xmlns:rdf="http://www.w3.org/1999/02/22-rdf-syntax-ns#"
   xmlns:svg="http://www.w3.org/2000/svg"
   xmlns="http://www.w3.org/2000/svg"
   xmlns:xlink="http://www.w3.org/1999/xlink"
   xmlns:sodipodi="http://sodipodi.sourceforge.net/DTD/sodipodi-0.dtd"
   xmlns:inkscape="http://www.inkscape.org/namespaces/inkscape"
   viewBox="0 0 48 48"
   height="128"
   width="128"
   style="overflow:visible"
   id="svg548"
   version="1.1"
   sodipodi:docname="folder-remote.svg"
   inkscape:version="0.92.3 (2405546, 2018-03-11)"
   inkscape:export-filename="/home/wachin/Dropbox/UbuntuManuales/icons/nuvola/nuvola-dark-panel/16x16/places/folder-bookmark.png"
   inkscape:export-xdpi="12"
   inkscape:export-ydpi="12">
  <sodipodi:namedview
     pagecolor="#ffffff"
     bordercolor="#666666"
     borderopacity="1"
     objecttolerance="10"
     gridtolerance="10"
     guidetolerance="10"
     inkscape:pageopacity="0"
     inkscape:pageshadow="2"
     inkscape:window-width="1280"
     inkscape:window-height="720"
     id="namedview110"
     showgrid="false"
     inkscape:zoom="2.6074563"
     inkscape:cx="61.883559"
     inkscape:cy="71.041307"
     inkscape:window-x="-4"
     inkscape:window-y="-2"
     inkscape:window-maximized="1"
     inkscape:current-layer="svg548"
     inkscape:snap-global="false" />
  <defs
     id="defs664">
    <radialGradient
       gradientUnits="userSpaceOnUse"
       gradientTransform="matrix(0.3749,0,0,0.375,14.9959,14.624986)"
       fy="47.091801"
       fx="49.904301"
       r="30.083599"
       cy="47.091801"
       cx="49.904301"
       id="XMLID_15_">
      <stop
         id="stop555"
         style="stop-color:#85CAFF"
         offset="0" />
      <stop
         id="stop556"
         style="stop-color:#003DA9"
         offset="1" />
    </radialGradient>
    <linearGradient
       y2="40.926601"
       x2="33.705101"
       y1="29.922899"
       x1="33.705101"
       gradientUnits="userSpaceOnUse"
       id="XMLID_16_">
      <stop
         id="stop562"
         style="stop-color:#3399FF"
         offset="0" />
      <stop
         id="stop563"
         style="stop-color:#3399FF"
         offset="1" />
    </linearGradient>
    <linearGradient
       y2="29.5782"
       x2="36.869"
       y1="24.5171"
       x1="43.6172"
       gradientUnits="userSpaceOnUse"
       id="XMLID_17_">
      <stop
         id="stop569"
         style="stop-color:#3399FF"
         offset="0" />
      <stop
         id="stop570"
         style="stop-color:#000000"
         offset="1" />
    </linearGradient>
    <linearGradient
       gradientTransform="matrix(0.38749492,0,0,0.38749492,-0.79864641,-1.9553698)"
       y2="15.0197"
       x2="52.5445"
       y1="95.0156"
       x1="107.209"
       gradientUnits="userSpaceOnUse"
       id="XMLID_18_">
      <stop
         id="stop578"
         style="stop-color:#888888"
         offset="0" />
      <stop
         id="stop579"
         style="stop-color:#555555"
         offset="1" />
    </linearGradient>
    <linearGradient
       gradientTransform="matrix(0.38749492,0,0,0.38749492,-0.79864641,-1.9553698)"
       y2="53.8789"
       x2="122.3945"
       y1="53.8789"
       x1="35.8013"
       gradientUnits="userSpaceOnUse"
       id="XMLID_29_">
      <stop
         id="stop586"
         style="stop-color:#ffffff"
         offset="0" />
      <stop
         id="stop587"
         style="stop-color:#cecedb"
         offset="1" />
    </linearGradient>
    <linearGradient
       gradientTransform="matrix(0.38749492,0,0,0.38749492,-0.79864641,-1.9553698)"
       y2="80.001999"
       x2="79.097702"
       y1="32.003899"
       x1="79.097702"
       gradientUnits="userSpaceOnUse"
       id="XMLID_19_">
      <stop
         id="stop594"
         style="stop-color:#ffffff"
         offset="0" />
      <stop
         id="stop595"
         style="stop-color:#bdbdcf"
         offset="1" />
    </linearGradient>
    <linearGradient
       gradientTransform="matrix(0.38747346,0,0,0.38747346,-0.79803919,-1.9561422)"
       y2="119.9015"
       x2="56.5815"
       y1="26.3452"
       x1="56.5815"
       gradientUnits="userSpaceOnUse"
       id="XMLID_20_">
      <stop
         id="stop232"
         style="stop-color:#0066cc"
         offset="0" />
      <stop
         id="stop234"
         style="stop-color:#003399"
         offset="1" />
    </linearGradient>
    <radialGradient
       gradientUnits="userSpaceOnUse"
       gradientTransform="matrix(0.3714,-0.0512,0.0511,0.3715,13.2666,16.712286)"
       fy="18.062"
       fx="38.167999"
       r="90.268204"
       cy="18.062"
       cx="38.167999"
       id="XMLID_21_">
      <stop
         id="stop602"
         style="stop-color:#99CCFF"
         offset="0" />
      <stop
         id="stop603"
         style="stop-color:#3399FF"
         offset="0.5" />
      <stop
         id="stop604"
         style="stop-color:#3366FF"
         offset="1" />
    </radialGradient>
    <linearGradient
       gradientTransform="matrix(0.38386996,-0.05285138,0.05285138,0.38386996,-4.5555243,2.4590016)"
       y2="37.7549"
       x2="23.8281"
       y1="45.498"
       x1="23.8281"
       gradientUnits="userSpaceOnUse"
       id="XMLID_22_">
      <stop
         id="stop612"
         style="stop-color:#0872ff"
         offset="0" />
      <stop
         id="stop613"
         style="stop-color:#3b92ff"
         offset="0.271" />
      <stop
         id="stop614"
         style="stop-color:#64abff"
         offset="0.495" />
      <stop
         id="stop615"
         style="stop-color:#81bdff"
         offset="0.698" />
      <stop
         id="stop616"
         style="stop-color:#93c8ff"
         offset="0.8731" />
      <stop
         id="stop617"
         style="stop-color:#99ccff"
         offset="1" />
    </linearGradient>
    <linearGradient
       gradientTransform="matrix(0.9907,-0.1364,0.1364,0.9907,-4.6134,5.5667)"
       y2="34.062"
       x2="29.0541"
       y1="13.7358"
       x1="13.4614"
       gradientUnits="userSpaceOnUse"
       id="XMLID_23_">
      <stop
         id="stop623"
         style="stop-color:#FFFFFF"
         offset="0" />
      <stop
         id="stop624"
         style="stop-color:#66B3FF"
         offset="1" />
    </linearGradient>
    <linearGradient
       gradientTransform="matrix(0.35205106,0.16185096,-0.16185096,0.35205106,10.725319,-12.849318)"
       y2="107.4253"
       x2="101.7489"
       y1="59.0239"
       x1="31.8359"
       gradientUnits="userSpaceOnUse"
       id="XMLID_25_">
      <stop
         id="stop639"
         style="stop-color:#ffffff"
         offset="0" />
      <stop
         id="stop640"
         style="stop-color:#3399ff"
         offset="1" />
    </linearGradient>
    <linearGradient
       gradientTransform="translate(0,-0.37501362)"
       y2="26.7041"
       x2="40.5078"
       y1="26.7041"
       x1="12.4033"
       gradientUnits="userSpaceOnUse"
       id="XMLID_27_">
      <stop
         id="stop647"
         style="stop-color:#888888"
         offset="0" />
      <stop
         id="stop648"
         style="stop-color:#555555"
         offset="1" />
    </linearGradient>
    <linearGradient
       y2="36.6497"
       x2="36.1435"
       y1="40.6279"
       x1="41.5449"
       gradientUnits="userSpaceOnUse"
       id="XMLID_28_">
      <stop
         id="stop376"
         style="stop-color:#dcf0ff"
         offset="0" />
      <stop
         id="stop378"
         style="stop-color:#57adff"
         offset="0.6742" />
      <stop
         id="stop380"
         style="stop-color:#428aff"
         offset="1" />
    </linearGradient>
    <linearGradient
       gradientTransform="translate(-51,-76)"
       y2="175.6378"
       x2="126"
       y1="116.3"
       x1="126"
       gradientUnits="userSpaceOnUse"
       id="XMLID_12_">
      <stop
         id="stop3323"
         style="stop-color:#FFFFFF"
         offset="0" />
      <stop
         id="stop3324"
         style="stop-color:#FEFEFD"
         offset="0.2918" />
      <stop
         id="stop3325"
         style="stop-color:#FBF9F5"
         offset="0.4294" />
      <stop
         id="stop3326"
         style="stop-color:#F6F1E8"
         offset="0.5347" />
      <stop
         id="stop3327"
         style="stop-color:#EFE6D6"
         offset="0.6236" />
      <stop
         id="stop3328"
         style="stop-color:#E5D8BE"
         offset="0.7022" />
      <stop
         id="stop3329"
         style="stop-color:#D9C6A1"
         offset="0.7734" />
      <stop
         id="stop3330"
         style="stop-color:#CBB17E"
         offset="0.8392" />
      <stop
         id="stop3331"
         style="stop-color:#BB9955"
         offset="0.9007" />
      <stop
         id="stop3333"
         style="stop-color:#996600"
         offset="1" />
    </linearGradient>
    <linearGradient
       gradientTransform="matrix(0,1,1,0,182.1133,-309.1123)"
       y2="-107.1133"
       x2="424.5777"
       y1="-107.1133"
       x1="318.38379"
       gradientUnits="userSpaceOnUse"
       id="XMLID_13_">
      <stop
         id="stop3339"
         style="stop-color:#FFFFFF"
         offset="0" />
      <stop
         id="stop3340"
         style="stop-color:#FFFEFD"
         offset="0.3651" />
      <stop
         id="stop3341"
         style="stop-color:#FEFBF5"
         offset="0.5373" />
      <stop
         id="stop3342"
         style="stop-color:#FCF7E8"
         offset="0.669" />
      <stop
         id="stop3343"
         style="stop-color:#FAF0D6"
         offset="0.7802" />
      <stop
         id="stop3346"
         style="stop-color:#F1D894"
         offset="1" />
    </linearGradient>
    <linearGradient
       gradientTransform="matrix(0,1,1,0,182.1133,-309.1123)"
       y2="-91.3797"
       x2="355.11069"
       y1="-70.630402"
       x1="334.3613"
       gradientUnits="userSpaceOnUse"
       id="XMLID_14_">
      <stop
         id="stop3357"
         style="stop-color:#000000"
         offset="0" />
      <stop
         id="stop3358"
         style="stop-color:#FFFFFF"
         offset="1" />
    </linearGradient>
    <clipPath
       clipPathUnits="userSpaceOnUse"
       id="clipPath3588">
      <path
         inkscape:connector-curvature="0"
         style="fill:url(#linearGradient3592);fill-opacity:1;stroke:none;stroke-width:4;stroke-linecap:round;stroke-linejoin:round;stroke-miterlimit:4;stroke-opacity:1"
         d="M 33.6875,23.03125 C 31.691577,23.052949 29.800974,23.086795 28,23.125 V 80 l 4,-4 4,4 V 23.03125 c -0.759566,0.0053 -1.581338,-0.0079 -2.3125,0 z"
         id="path3590"
         sodipodi:nodetypes="ccccccc" />
    </clipPath>
    <linearGradient
       id="c"
       y2="397.34"
       gradientUnits="userSpaceOnUse"
       x2="12.991"
       gradientTransform="matrix(2.573,0,0,-2.573,207.924,1307.73)"
       y1="397.34"
       x1="-117">
      <stop
         stop-color="#0053BD"
         offset="0"
         id="stop19" />
      <stop
         stop-color="#0032A4"
         offset="1"
         id="stop21" />
    </linearGradient>
    <radialGradient
       id="d"
       gradientUnits="userSpaceOnUse"
       cy="439.63"
       cx="-57.021999"
       gradientTransform="matrix(2.573,0,0,-2.573,207.924,1307.73)"
       r="98">
      <stop
         stop-color="#FFF"
         offset="0"
         id="stop24" />
      <stop
         stop-color="#57ADFF"
         offset="0.6"
         id="stop26" />
      <stop
         stop-color="#C9E6FF"
         offset="1"
         id="stop28" />
    </radialGradient>
    <linearGradient
       id="e"
       y2="183.37"
       gradientUnits="userSpaceOnUse"
       x2="127.66"
       gradientTransform="matrix(2.573,0,0,2.573,-251.365,-39.26)"
       y1="63.215"
       x1="127.66">
      <stop
         stop-color="#006a00"
         offset="0"
         id="stop31" />
      <stop
         stop-color="#004000"
         offset="0.2"
         id="stop33" />
      <stop
         stop-color="#00d000"
         offset="1"
         id="stop35" />
    </linearGradient>
    <linearGradient
       inkscape:collect="always"
       xlink:href="#f"
       id="linearGradient4346"
       gradientUnits="userSpaceOnUse"
       gradientTransform="matrix(2.573,0,0,-2.573,207.924,1307.73)"
       x1="-52.250999"
       y1="457.03"
       x2="-52.250999"
       y2="361.42001" />
    <linearGradient
       id="f"
       y2="361.42001"
       gradientUnits="userSpaceOnUse"
       x2="-52.250999"
       gradientTransform="matrix(2.573,0,0,-2.573,207.924,1307.73)"
       y1="457.03"
       x1="-52.250999">
      <stop
         stop-color="#FFF"
         offset="0"
         id="stop38" />
      <stop
         stop-color="#94CAFF"
         offset="1"
         id="stop40" />
    </linearGradient>
    <linearGradient
       id="g"
       y2="158.07001"
       xlink:href="#a"
       gradientUnits="userSpaceOnUse"
       x2="141.27"
       gradientTransform="matrix(2.573,0,0,2.573,-251.365,-39.26)"
       y1="70.428001"
       x1="141.27" />
    <linearGradient
       id="a"
       y2="158.07001"
       gradientUnits="userSpaceOnUse"
       y1="70.428001"
       gradientTransform="matrix(1.68,0,0,1.68,-86.7,-86.7)"
       x2="141.27"
       x1="141.27">
      <stop
         stop-color="#FFF"
         offset="0"
         id="stop12" />
      <stop
         stop-color="#00a100"
         offset="0.5"
         id="stop14" />
      <stop
         stop-color="#000"
         offset="1"
         id="stop16" />
    </linearGradient>
    <linearGradient
       id="h"
       y2="130.03"
       xlink:href="#a"
       gradientUnits="userSpaceOnUse"
       x2="100.51"
       gradientTransform="matrix(2.573,0,0,2.573,-251.365,-39.26)"
       y1="70.032997"
       x1="100.51" />
    <linearGradient
       id="i"
       y2="85.32"
       xlink:href="#b"
       gradientUnits="userSpaceOnUse"
       x2="120.48"
       gradientTransform="matrix(2.573,0,0,2.573,-251.365,-39.26)"
       y1="68.116997"
       x1="120.48" />
    <linearGradient
       id="b"
       y2="158.07001"
       gradientUnits="userSpaceOnUse"
       x2="141.27"
       gradientTransform="matrix(1.68,0,0,1.68,-86.7,-86.7)"
       y1="70.428001"
       x1="141.27">
      <stop
         stop-color="#FFF"
         offset="0"
         id="stop7" />
      <stop
         stop-color="#00a200"
         offset="1"
         id="stop9" />
    </linearGradient>
    <linearGradient
       id="j"
       y2="79.161003"
       xlink:href="#b"
       gradientUnits="userSpaceOnUse"
       x2="124.57"
       y1="73.444"
       x1="124.57" />
    <linearGradient
       id="k"
       y2="73.864998"
       xlink:href="#b"
       gradientUnits="userSpaceOnUse"
       x2="132.78"
       y1="67.755997"
       x1="132.78" />
  </defs>
  <metadata
     id="metadata549">
    <xpacket>
begin='﻿' id='W5M0MpCehiHzreSzNTczkc9d'</xpacket>
    <x:xmpmeta
       x:xmptk="XMP toolkit 3.0-29, framework 1.6">
      <metadata>
        <rdf:RDF>
          <rdf:Description
             rdf:about="uuid:1d5424af-bcf6-4c39-808f-267922041dc2">
            <pdf:Producer>
Adobe PDF library 5.00</pdf:Producer>
          </rdf:Description>
          <rdf:Description
             rdf:about="uuid:1d5424af-bcf6-4c39-808f-267922041dc2" />
          <rdf:Description
             rdf:about="uuid:1d5424af-bcf6-4c39-808f-267922041dc2" />
          <rdf:Description
             rdf:about="uuid:1d5424af-bcf6-4c39-808f-267922041dc2">
            <xap:CreateDate>
2003-03-10T02:02:16+02:00</xap:CreateDate>
            <xap:ModifyDate>
2004-03-29T08:59:47Z</xap:ModifyDate>
            <xap:CreatorTool>
Adobe Illustrator 10.0</xap:CreatorTool>
            <xap:MetadataDate>
2004-01-18T18:44:12+01:00</xap:MetadataDate>
          </rdf:Description>
          <rdf:Description
             rdf:about="uuid:1d5424af-bcf6-4c39-808f-267922041dc2">
            <xapMM:DocumentID>
uuid:c0ca0d88-d3d0-4de4-88fb-576c6d69015f</xapMM:DocumentID>
          </rdf:Description>
          <rdf:Description
             rdf:about="uuid:1d5424af-bcf6-4c39-808f-267922041dc2">
            <dc:format>
image/svg+xml</dc:format>
            <dc:title>
              <rdf:Alt>
                <rdf:li
                   xml:lang="x-default">
folder-1.ai</rdf:li>
              </rdf:Alt>
            </dc:title>
          </rdf:Description>
          <cc:Work
             rdf:about="">
            <dc:format>image/svg+xml</dc:format>
            <dc:type
               rdf:resource="http://purl.org/dc/dcmitype/StillImage" />
            <dc:title></dc:title>
          </cc:Work>
        </rdf:RDF>
      </metadata>
    </x:xmpmeta>
    <xpacket>
end='w'</xpacket>
  </metadata>
  <path
     id="path551"
     d="M 47.465,24.408 C 47.3,24.215 47.048,24.117 46.795,24.151 l -6.457,0.861 -1.453,-10.557 c -0.034,-0.247 -0.165,-0.469 -0.363,-0.619 -0.198,-0.15 -0.447,-0.216 -0.693,-0.182 0,0 -22.446,3.091 -24.169,3.328 -0.009,-0.064 -0.029,-0.211 -0.029,-0.211 -0.252,-1.833 -1.874,-3.128 -3.615,-2.889 l -5.581,0.769 c -0.813,0.112 -1.541,0.542 -2.049,1.212 -0.444,0.586 -0.683,1.321 -0.683,2.069 0,0.159 0.011,0.318 0.032,0.477 L 4.886,41.281 25.7145,44.2635 41.737,42.057 c 0.246,-0.034 0.469,-0.164 0.618,-0.362 0.015,-0.019 0.023,-0.039 0.036,-0.059 0.188,-0.089 0.34,-0.249 0.402,-0.457 l 4.818,-16.067 c 0.075,-0.246 0.019,-0.51 -0.146,-0.704 z"
     style="opacity:0.2" />
  <use
     height="100%"
     width="100%"
     transform="translate(-0.249,-0.375)"
     id="use552"
     xlink:href="#path551"
     y="0"
     x="0" />
  <use
     height="100%"
     width="100%"
     transform="translate(-0.624,-0.812)"
     x="0"
     y="0"
     xlink:href="#path551"
     id="use553" />
  <path
     id="path560"
     d="m 45.797,22.963 -24.382,3.252 c -0.393,0.052 -0.676,0.4 -0.648,0.796 l 0.98,13.903 c 0.029,0.409 0.382,0.72 0.792,0.696 l 18.582,-1.088 c 0.314,-0.02 0.584,-0.231 0.675,-0.533 l 4.818,-16.068 c 0.073,-0.244 0.019,-0.508 -0.147,-0.702 -0.166,-0.193 -0.418,-0.289 -0.67,-0.256 z"
     style="fill:url(#XMLID_15_)" />
  <path
     id="path567"
     d="m 21.515,26.959 0.98,13.903 18.582,-1.088 4.819,-16.067 z"
     style="fill:url(#XMLID_16_)" />
  <path
     id="path574"
     d="m 21.116,27.573 0.955,13.544 18.267,-1.07 4.697,-15.663 z"
     style="opacity:0.5;fill:url(#XMLID_17_)" />
  <path
     id="path575"
     d="m 23.793,1.616 c -1.203,-0.363 -2.477,0.32 -2.84,1.523 L 13.205,28.812 c -0.363,1.203 0.32,2.479 1.523,2.842 l 22.586,6.819 c 1.203,0.363 2.478,-0.32 2.841,-1.523 l 7.747,-25.674 c 0.363,-1.203 -0.32,-2.478 -1.522,-2.841 z"
     style="opacity:0.2" />
  <use
     height="100%"
     width="100%"
     transform="translate(-0.375,-0.749)"
     id="use576"
     xlink:href="#path575"
     y="0"
     x="0" />
  <path
     id="path583"
     d="m 23.089,0.491 c -1.203,-0.363 -2.477,0.32 -2.84,1.523 L 12.501,27.687 c -0.363,1.203 0.32,2.479 1.523,2.842 l 22.586,6.819 c 1.203,0.363 2.478,-0.32 2.841,-1.523 l 7.748,-25.674 C 47.561,8.948 46.879,7.673 45.676,7.31 Z"
     style="fill:url(#XMLID_18_)" />
  <path
     id="path584"
     d="m 13.143,27.881 c -0.256,0.852 0.225,1.749 1.075,2.006 l 22.587,6.82 c 0.851,0.256 1.748,-0.225 2.005,-1.076 L 46.557,9.958 c 0.257,-0.851 -0.225,-1.749 -1.074,-2.005 l -22.587,-6.82 c -0.851,-0.257 -1.748,0.225 -2.005,1.075 z"
     style="fill:url(#XMLID_29_)" />
  <path
     id="path591"
     d="m 22.702,1.774 c -0.495,-0.149 -1.02,0.132 -1.17,0.628 L 13.785,28.075 c -0.15,0.495 0.132,1.021 0.627,1.17 l 22.586,6.82 c 0.495,0.148 1.02,-0.132 1.169,-0.628 L 45.916,9.764 c 0.148,-0.496 -0.133,-1.021 -0.628,-1.17 z"
     style="fill:url(#XMLID_19_)" />
  <path
     id="path599"
     d="m 36.829,12.466 c 0,0 -22.446,3.092 -24.168,3.329 -0.009,-0.064 -0.029,-0.211 -0.029,-0.211 -0.252,-1.833 -1.874,-3.129 -3.614,-2.889 l -5.581,0.769 c -0.814,0.111 -1.541,0.541 -2.049,1.211 -0.444,0.586 -0.684,1.32 -0.684,2.069 0,0.159 0.011,0.318 0.033,0.477 l 3.151,22.871 c 0.019,0.135 0.066,0.265 0.14,0.38 1.105,1.717 2.423,3.259 3.917,4.582 0.205,0.182 0.478,0.264 0.749,0.227 l 32.044,-4.414 c 0.246,-0.033 0.469,-0.164 0.619,-0.361 0.15,-0.198 0.216,-0.448 0.182,-0.694 l -3.654,-26.544 c -0.033,-0.247 -0.164,-0.469 -0.361,-0.62 -0.199,-0.15 -0.449,-0.216 -0.695,-0.182 z"
     style="fill:url(#XMLID_20_)" />
  <path
     id="path600"
     d="m 39.385,14.392 c -0.034,-0.247 -0.164,-0.469 -0.362,-0.62 -0.198,-0.15 -0.447,-0.215 -0.693,-0.182 l -20.694,2.85 -3.85,12.759 25.353452,7.655324 2.293725,-7.597524 z"
     style="opacity:0.2" />
  <path
     id="path610"
     d="m 36.957,13.395 -25.097,3.456 -0.157,-1.14 c -0.182,-1.323 -1.328,-2.258 -2.558,-2.088 l -5.581,0.769 c -1.23,0.169 -2.081,1.379 -1.898,2.702 l 3.15,22.871 c 1.045,1.626 2.311,3.114 3.75,4.388 l 32.044,-4.413 z"
     style="fill:url(#XMLID_21_)" />
  <path
     id="path621"
     d="M 3.641,14.949 C 2.72,15.076 2.083,16.004 2.223,17.017 L 2.4320395,18.533019 11.355539,17.304054 11.147,15.787 c -0.14,-1.013 -1.003,-1.734 -1.924,-1.608 z"
     style="fill:url(#XMLID_22_)" />
  <path
     id="path628"
     d="m 2.458,18.713 2.957,21.48 c 0.192,0.256 0.39,0.506 0.593,0.752 0.054,-3.912 1.658,-7.941 4.878,-10.158 4.991,-3.606 11.106,-3.172 16.925,-4.885 4.775,-1.506 8.133,-5.882 8.843,-10.583 -0.098,-0.707 -0.178,-1.29 -0.178,-1.29 z"
     style="opacity:0.8;fill:url(#XMLID_23_)" />
  <path
     id="path629"
     d="m 9.196,13.994 -5.581,0.769 c -0.922,0.127 -1.558,1.055 -1.418,2.068 l 0.103,0.743 c -0.14,-1.013 0.497,-1.941 1.418,-2.068 l 5.581,-0.769 c 0.921,-0.127 1.785,0.594 1.924,1.607 l -0.103,-0.743 c -0.139,-1.013 -1.002,-1.734 -1.924,-1.607 z"
     style="fill:#ffffff" />
  <path
     id="path630"
     d="m 2.316,18.549 2.939,21.357 c 0.218,0.297 0.445,0.586 0.68,0.871 l -2.706,-19.666 c -0.161,-1.167 0.683,-2.248 1.885,-2.413 l 31.121,-4.286 c 0.117,-0.016 0.233,-0.02 0.349,-0.019 l -0.076,-0.553 z"
     style="fill:#ffffff" />
  <path
     id="path637"
     d="M 36.957,13.395 17.402299,16.087794 13.785,28.075 c -0.15,0.495 0.132,1.021 0.627,1.17 l 22.586,6.82 c 0.495,0.148 1.02,-0.132 1.169,-0.628 l 1.251749,-4.153383 z"
     style="opacity:0.3;fill:#ffffff" />
  <path
     id="path644"
     d="m 40.07,29.133986 -1.902,6.303 c -0.149,0.496 -0.674,0.776 -1.169,0.628 l -22.586,-6.82 c -0.495,-0.149 -0.777,-0.675 -0.627,-1.17 l 3.914,-12.974 -0.73,0.101 -3.827,12.68 c -0.256,0.852 0.225,1.749 1.075,2.006 l 22.587,6.82 c 0.851,0.256 1.748,-0.225 2.005,-1.076 l 1.479,-4.902 z"
     style="opacity:0.37;fill:url(#XMLID_25_)" />
  <path
     id="path652"
     d="m 40.289,30.727986 -1.479,4.902 c -0.257,0.852 -1.154,1.332 -2.005,1.076 l -22.587,-6.82 c -0.85,-0.257 -1.332,-1.154 -1.075,-2.006 l 3.826827,-12.678434 -0.730827,0.09943 -3.738,12.386 c -0.363,1.203 0.32,2.479 1.523,2.842 l 22.586,6.819 c 1.203,0.363 2.478,-0.32 2.841,-1.523 l 1.057,-3.503 z"
     style="opacity:0.3;fill:url(#XMLID_27_)" />
  <polygon
     transform="translate(0,-0.375)"
     id="polygon653"
     points="31.627,42.053 41.232,40.73 39.817,30.447 38.722,32.001 "
     style="fill:#003da9" />
  <polygon
     transform="translate(0,-0.375)"
     id="polygon660"
     points="39.334,32.434 33.236,41.074 40.388,40.089 "
     style="fill:url(#XMLID_28_)" />
  <path
     id="path661"
     d="m 39.119,34.162 -0.111,-0.812 -4.736,6.767 c 0,0 0.48,-0.066 0.752,-0.104 1.049,-1.5 4.095,-5.851 4.095,-5.851 z"
     style="fill:#ffffff" />
  <g
     id="g74"
     transform="matrix(0.06069806,0,0,0.06069806,11.334923,18.900934)">
    <path
       style="fill:#000000;fill-opacity:0.3"
       inkscape:connector-curvature="0"
       id="path76"
       d="m -39.634,171.47 c -31.743,31.66 -49.227,73.53 -49.227,117.89 0,92.35 75.02,167.48 167.23,167.48 92.218,0 167.25,-75.13 167.25,-167.48 0,-92.06 -75.03,-166.96 -167.25,-166.96 -44.38,0.01 -86.288,17.43 -118.01,49.07 z" />
    <path
       inkscape:connector-curvature="0"
       style="fill:url(#c)"
       id="path78"
       d="m -43.9,167.2 c -31.744,31.66 -49.228,73.53 -49.228,117.89 0,92.35 75.02,167.48 167.23,167.48 92.225,0 167.24,-75.13 167.24,-167.48 0,-92.06 -75.02,-166.96 -167.24,-166.96 -44.38,0.01 -86.287,17.43 -118,49.07 z" />
    <path
       style="fill:#b0d9ff"
       inkscape:connector-curvature="0"
       id="path80"
       d="m -39.03,172.09 c -30.439,30.35 -47.207,70.49 -47.207,113 0,88.55 71.929,160.59 160.34,160.59 88.42,0 160.35,-72.04 160.35,-160.59 0,-88.25 -71.93,-160.06 -160.35,-160.06 -42.533,0.01 -82.714,16.72 -113.13,47.06 z" />
    <path
       style="fill:#ffffff"
       inkscape:connector-curvature="0"
       id="path82"
       d="m 74.105,440.51 c 85.675,0 155.18,-69.8 155.18,-155.42 0,-85.08 -69.51,-154.88 -155.18,-154.88 -85.068,0 -155.16,69.8 -155.16,154.88 0,85.62 70.098,155.42 155.16,155.42 z" />
    <path
       inkscape:connector-curvature="0"
       style="fill:url(#d)"
       id="path84"
       d="m 74.105,440.51 c 85.675,0 155.18,-69.8 155.18,-155.42 0,-85.08 -69.51,-154.88 -155.18,-154.88 -85.068,0 -155.16,69.8 -155.16,154.88 0,85.62 70.098,155.42 155.16,155.42 z" />
    <path
       inkscape:connector-curvature="0"
       style="fill:url(#e)"
       id="path86"
       d="m 22.564,147.28 c -0.767,0 -1.608,0.31 -2.467,0.8 2.019,-0.59 2.969,-0.8 2.467,-0.8 m 49.961,9.74 0.502,-7.31 -7.712,0.49 1.019,6.82 h 6.191 m -87.044,126.31 c -1.554,-1.46 -0.512,-7.81 -0.512,-7.81 0,0 -23.183,-12.18 -48.417,-19.5 -3.111,-0.9 -1.541,-7.31 1.539,-9.74 l -1.022,-6.84 c -0.512,-3.41 5.157,-19.99 10.82,-21.44 5.669,-1.47 -0.517,9.74 -0.517,9.74 l -5.661,3.41 c 0,0 6.693,7.8 8.244,7.8 1.542,0 4.117,-3.9 4.117,-3.9 l -7.207,-4.87 6.695,-2.93 0.422,-2.57 1.125,-0.36 11.087,-16.79 c 7.662,-3.14 17.08,-7.02 18.276,-7.59 2.064,-0.97 16.478,-9.26 19.056,-11.2 2.5833,-1.97 8.2368,-1.47 10.292,-1.47 2.072,0 5.157,-0.98 5.669,-6.35 0.514,-5.36 2.578,-6.34 4.127,-4.87 1.549,1.45 -1.549,3.9 2.061,4.87 3.602,0.98 6.69,3.42 9.273,0.98 1.881,-1.78 -0.638,-3.82 -2.336,-5.35 h 28.599 l 3.096,-8.8 -6.695,-0.97 -24.735,-2.43 v -2.93 l -1.971,0.33 c 2.679,-14.71 18.58,-12.29 6.608,-20.8 -0.729,-0.53 -11.203,16.5 -13.869,16.17 -4.83,-0.64 -11.067,-0.69 -12.395,0.88 -1.7595,2.08 3.95,-7.13 8.862,-9.92 -7.845,2.31 -32.626,10.79 -58.82,38.7 -25.046,26.67 -35.032,62.62 -35.032,63.88 0,2.43 5.156,3.41 5.668,6.34 0.518,2.91 -9.785,12.68 -9.785,17.55 0,2.25 -2.426,32.3 6.17,57.06 10.051,28.89 31.505,53.03 34.001,54.62 l 5.146,-2.44 c 0,0 -11.847,-20.97 -12.359,-22.93 -0.509,-1.94 13.391,-30.23 20.093,-29.24 6.693,0.95 5.152,2.92 9.271,0.48 4.122,-2.43 6.6951,-22.44 11.332,-24.38 4.6392,-1.96 9.7853,-4.39 9.2733,-9.27 -0.5378,-4.89 -18.047,-13.66 -19.589,-15.12 m 111.77,-143.37 -13.905,-4.88 2.578,7.81 11.327,-2.93 M 45.2293,158 c 1.552,0 32.449,-20.47 29.359,-20.96 -3.08,-0.49 -3.598,0 -11.854,-0.98 -8.229,-0.98 -16.993,11.7 -19.049,13.66 -2.061,1.95 -1.366,8.28 1.544,8.28 m 141.8,147.04 3.99,-5.18 -3.99,-1.4 -2.99,3.76 -3.48,5.16 2.99,1.41 3.48,-3.75 m 17.45,16.93 -1,-7.53 h -6.48 l -0.5,5.64 -5.99,-0.93 -1.48,-6.12 -2.99,-1.88 -3.5,4.23 -3.48,-0.94 -1,3.29 3.99,0.95 v 30.54 l 14.11,3.4 c -0.33,0.56 -0.57,1.03 -0.65,1.29 -1.01,3.29 3.98,4.72 7.46,3.29 1.3,-0.51 5.4,-4.66 7.98,-10.8 3.59,-8.54 6.73,-19.82 7.36,-23.8 l 1.61,-3.45 -9.97,3.75 -5.49,-0.93 h 0.02 m 20.94,-56.88 -2.61,-5.04 c -3.08,-17.39 -10.15,-39.64 -25.3,-62.64 -22.8,-34.57 -86.26,-54.51 -86.26,-54.51 l -3.48,4.22 -2,-3.28 -4.99,-1.89 v 4.24 l 4.5,3.76 -2.99,1.41 -11.476,0.93 -25.918,14.11 2.488,11.28 -2.997,0.94 -1.483,2.35 8.474,12.68 0.496,4.24 -6.978,1.41 v 8.45 l -3.986,0.94 0.5,6.58 -33.906,23.52 0.999,13.14 c 2.488,3.29 21.935,23.04 21.935,23.04 0,0 22.429,0.92 27.413,-1.88 4.987,-2.82 1.493,2.82 2.995,4.23 1.488,1.42 1.989,11.28 3.482,12.22 1.495,0.93 0,6.57 1.994,8.46 1.991,1.87 1.991,24.44 1.991,24.44 0,0 11.967,20.2 11.967,25.37 0,5.18 -0.504,4.7 8.97,4.24 9.48,-0.47 11.47,-4.24 13.45,-5.64 2.01,-1.41 2.01,-4.7 4,-7.52 2,-2.83 5.48,-13.63 9.98,-17.39 4.48,-3.77 16.45,-6.59 17.43,-13.16 1,-6.58 5.49,-11.75 5.49,-11.75 l 21.55,-22.8 -0.6,3.06 -0.5,11.74 6.48,-2.34 -0.49,-12.7 -2.33,-2.46 0.33,-0.36 c 0,0 -1.49,-2.82 -3.48,-2.82 -1.99,0 -13.97,2.82 -15.95,2.35 -2,-0.47 -10.48,-23.03 -11.97,-23.96 -1.5,-0.94 -10.97,-16.46 -10.97,-16.46 0,0 21.93,26.32 25.43,36.66 2.02,6.02 9.63,0.41 15.82,-5.87 l 1.64,4 3.98,-0.95 -0.5,-4.7 h 4.48 v 7.05 l -1.49,3.76 -0.51,6.1 3.99,3.77 2,-3.28 6.47,-6.12 7.48,-3.76 2,3.76 1,5.18 -2,5.63 -3.99,3.29 -1.99,8.46 v 4.23 l -4.48,-2.82 -0.49,-8.93 -6.49,0.48 -2.99,7.98 4.49,6.59 10.46,1.41 8.48,-8 1,-15.49 3.77,-4.98 c 2.45,6.31 4.21,12.92 4.21,19.08 0,6.74 3.08,-4.68 0.46,-25.26 l 1.52,-2.02 m -125.63,-47.94 -26.917,-0.95 11.46,-9.39 h 5.983 l 9.474,6.57 v 3.77 m 32.913,-3.29 v 4.23 h -11.46 l 0.99,2.83 -6.98,0.95 -0.49,2.34 -4.99,-0.93 -8.98,-1.89 1.5,-2.34 1.5,-2.84 4.98,-5.16 2,3.76 7.48,-0.48 3.98,-4.23 15.46,2.82 -4.99,0.94 m 0.98,-6.11 -5.97,0.94 -1,-4.24 7.47,-0.93 1,-4.23 5.5,5.65 -7,2.8 v 0.01 m 28.93,146.16 -3.5,2.82 0.5,7.06 h 4.49 v -6.1 l 3.99,-5.18 V 341.7 l -2.5,-0.48 -2.98,12.69 m -33.4,-14.08 c 0,0 -3.49,0.91 0.49,2.33 3.98,1.42 19.94,-23.01 19.94,-23.01 l -13.46,8.45 -6.98,12.23 h 0.01 m -27.14,90.07 -2.978,-2.84 -5.985,-0.95 -0.991,2.84 -7.976,-0.94 -0.499,-3.78 h -5.98 l -6.476,3.78 h -11.458 l -0.996,-2.84 -18.433,-1.9 -2.995,2.84 -7.462,-1.88 -1.001,-6.63 -3.487,-0.49 -3.988,7.12 -13.452,-0.47 c 2.4088,1.13 22.491,13.12 53.301,15.61 40.856,3.31 60.296,-6.62 60.296,-6.62 l -1.5,-1.43 -17.94,-1.41 z" />
    <path
       inkscape:connector-curvature="0"
       style="fill:url(#linearGradient4346)"
       id="path88"
       d="m 73.583,254 c 53.147,0 99.387,-18.31 123.18,-45.31 -23.96,-45.72 -70.24,-76.92 -123.41,-76.92 -52.699,0 -99.045,31.1 -123.15,76.69 23.726,27.12 70.075,45.54 123.38,45.54 z" />
    <path
       inkscape:connector-curvature="0"
       style="fill:url(#g)"
       id="path90"
       d="m 141.67,229.84 c 0,0 3.61,4.33 8.13,10.17 19.53,-7.86 35.75,-18.61 46.96,-31.32 -7.94,-15.15 -18.35,-28.7 -30.64,-40.06 -25.84,-16.6 -54.87,-25.73 -54.87,-25.73 l -3.48,4.22 -2,-3.28 -4.99,-1.89 v 4.24 l 4.5,3.76 -2.99,1.41 -11.476,0.93 -25.918,14.11 2.488,11.28 -2.997,0.94 -1.483,2.35 8.474,12.68 0.496,4.24 -6.978,1.41 v 8.45 l -3.986,0.94 0.5,6.58 -33.906,23.52 0.803,10.55 c 14.209,3 29.423,4.66 45.276,4.66 27.537,0 53.187,-4.94 74.847,-13.44 -3.12,-4.76 -6.76,-10.72 -6.76,-10.72 z M 99.787,217.15 72.87,216.2 84.33,206.81 h 5.983 l 9.474,6.57 z m 32.913,-3.29 v 4.23 h -11.46 l 0.99,2.83 -6.98,0.95 -0.49,2.34 -4.99,-0.93 -8.98,-1.89 1.5,-2.34 1.5,-2.84 4.98,-5.16 2,3.76 7.48,-0.48 3.98,-4.23 15.46,2.82 z m 0.98,-6.12 v 0.01 l -5.97,0.94 -1,-4.24 7.47,-0.93 1,-4.23 5.5,5.65 z" />
    <path
       inkscape:connector-curvature="0"
       style="fill:url(#h)"
       id="path92"
       d="m -15.54,199.94 c 2.063,-0.97 16.478,-9.26 19.056,-11.2 2.5833,-1.97 8.2361,-1.47 10.292,-1.47 2.071,0 5.156,-0.98 5.669,-6.35 0.514,-5.36 2.578,-6.34 4.127,-4.87 1.549,1.45 -1.549,3.9 2.061,4.87 3.602,0.98 6.69,3.42 9.273,0.98 1.881,-1.78 -0.638,-3.82 -2.336,-5.35 h 28.599 l 3.095,-8.8 -6.695,-0.97 -24.734,-2.43 v -2.93 l -1.971,0.33 c 2.678,-14.71 18.58,-12.29 6.607,-20.8 -0.728,-0.53 -11.203,16.5 -13.868,16.17 -4.83,-0.64 -11.067,-0.69 -12.395,0.88 -1.7598,2.08 3.95,-7.13 8.862,-9.92 -6.106,1.8 -22.478,7.38 -41.781,22.9 -11.17,10.8 -20.701,23.45 -28.121,37.48 2.789,3.19 5.918,6.25 9.309,9.18 l 6.674,-10.11 c 7.663,-3.13 17.083,-7.02 18.277,-7.59 z" />
    <path
       inkscape:connector-curvature="0"
       style="fill:url(#i)"
       id="path94"
       d="m 43.679,149.72 c -2.059,1.95 -1.364,8.28 1.546,8.28 1.552,0 32.449,-20.47 29.359,-20.96 -3.08,-0.49 -3.598,0 -11.854,-0.98 -8.232,-0.98 -16.996,11.7 -19.051,13.66 z" />
    <path
       transform="matrix(2.573,0,0,2.573,-251.365,-39.26)"
       style="fill:url(#j)"
       d="m 123.47,76.284 h 2.41 v 10e-4 l 0.19,-2.841 v 0 l -2.99,0.187 z"
       id="polygon96"
       inkscape:connector-curvature="0" />
    <path
       transform="matrix(2.573,0,0,2.573,-251.365,-39.26)"
       style="fill:url(#k)"
       d="m 131.08,70.792 4.41,-1.139 v 0 l -5.41,-1.897 z"
       id="polygon98"
       inkscape:connector-curvature="0" />
  </g>
</svg>
