<?xml version="1.0" encoding="UTF-8" standalone="no"?>
<svg
   xmlns:dc="http://purl.org/dc/elements/1.1/"
   xmlns:cc="http://creativecommons.org/ns#"
   xmlns:rdf="http://www.w3.org/1999/02/22-rdf-syntax-ns#"
   xmlns:svg="http://www.w3.org/2000/svg"
   xmlns="http://www.w3.org/2000/svg"
   xmlns:xlink="http://www.w3.org/1999/xlink"
   xmlns:sodipodi="http://sodipodi.sourceforge.net/DTD/sodipodi-0.dtd"
   xmlns:inkscape="http://www.inkscape.org/namespaces/inkscape"
   height="128"
   width="128"
   version="1.0"
   viewBox="0 0 256 256"
   id="svg2"
   inkscape:version="0.48.0 r9654"
   sodipodi:docname="Globe_spelling_colour.svg">
  <metadata
     id="metadata142">
    <rdf:RDF>
      <cc:Work
         rdf:about="">
        <dc:format>image/svg+xml</dc:format>
        <dc:type
           rdf:resource="http://purl.org/dc/dcmitype/StillImage" />
        <dc:title></dc:title>
      </cc:Work>
    </rdf:RDF>
  </metadata>
  <sodipodi:namedview
     pagecolor="#ffffff"
     bordercolor="#666666"
     borderopacity="1"
     objecttolerance="10"
     gridtolerance="10"
     guidetolerance="10"
     inkscape:pageopacity="0"
     inkscape:pageshadow="2"
     inkscape:window-width="1280"
     inkscape:window-height="752"
     id="namedview140"
     showgrid="false"
     inkscape:zoom="3.1733193"
     inkscape:cx="83.157895"
     inkscape:cy="55.794718"
     inkscape:window-x="0"
     inkscape:window-y="0"
     inkscape:window-maximized="0"
     inkscape:current-layer="svg2" />
  <defs
     id="defs4">
    <linearGradient
       id="linearGradient3944">
      <stop
         style="stop-color:#3300cc;stop-opacity:1;"
         offset="0"
         id="stop3946" />
      <stop
         style="stop-color:#cc009c;stop-opacity:1;"
         offset="1"
         id="stop3948" />
    </linearGradient>
    <linearGradient
       id="b"
       y2="158.07"
       gradientUnits="userSpaceOnUse"
       x2="141.27"
       gradientTransform="matrix(1.68, 0, 0, 1.68, -86.7, -86.7)"
       y1="70.428"
       x1="141.27">
      <stop
         stop-color="#FFF"
         offset="0"
         id="stop7" />
      <stop
         stop-color="#00a200"
         offset="1"
         id="stop9" />
    </linearGradient>
    <linearGradient
       id="a"
       y2="158.07"
       gradientUnits="userSpaceOnUse"
       y1="70.428"
       gradientTransform="matrix(1.68, 0, 0, 1.68, -86.7, -86.7)"
       x2="141.27"
       x1="141.27">
      <stop
         stop-color="#FFF"
         offset="0"
         id="stop12" />
      <stop
         stop-color="#00a100"
         offset="0.5"
         id="stop14" />
      <stop
         stop-color="#000"
         offset="1"
         id="stop16" />
    </linearGradient>
    <linearGradient
       id="c"
       y2="397.34"
       gradientUnits="userSpaceOnUse"
       x2="12.991"
       gradientTransform="matrix(2.573,0,0,-2.573,207.924,1307.73)"
       y1="397.34"
       x1="-117">
      <stop
         stop-color="#0053BD"
         offset="0"
         id="stop19" />
      <stop
         stop-color="#0032A4"
         offset="1"
         id="stop21" />
    </linearGradient>
    <radialGradient
       id="d"
       gradientUnits="userSpaceOnUse"
       cy="439.63"
       cx="-57.022"
       gradientTransform="matrix(2.573,0,0,-2.573,207.924,1307.73)"
       r="98">
      <stop
         stop-color="#FFF"
         offset="0"
         id="stop24" />
      <stop
         stop-color="#57ADFF"
         offset="0.6"
         id="stop26" />
      <stop
         stop-color="#C9E6FF"
         offset="1"
         id="stop28" />
    </radialGradient>
    <linearGradient
       id="e"
       y2="183.37"
       gradientUnits="userSpaceOnUse"
       x2="127.66"
       gradientTransform="matrix(2.573,0,0,2.573,-251.365,-39.26)"
       y1="63.215"
       x1="127.66">
      <stop
         stop-color="#006a00"
         offset="0"
         id="stop31" />
      <stop
         stop-color="#004000"
         offset="0.2"
         id="stop33" />
      <stop
         stop-color="#00d000"
         offset="1"
         id="stop35" />
    </linearGradient>
    <linearGradient
       id="f"
       y2="361.42"
       gradientUnits="userSpaceOnUse"
       x2="-52.251"
       gradientTransform="matrix(2.573,0,0,-2.573,207.924,1307.73)"
       y1="457.03"
       x1="-52.251">
      <stop
         stop-color="#FFF"
         offset="0"
         id="stop38" />
      <stop
         stop-color="#94CAFF"
         offset="1"
         id="stop40" />
    </linearGradient>
    <linearGradient
       id="g"
       y2="158.07"
       xlink:href="#a"
       gradientUnits="userSpaceOnUse"
       x2="141.27"
       gradientTransform="matrix(2.573,0,0,2.573,-251.365,-39.26)"
       y1="70.428"
       x1="141.27" />
    <linearGradient
       id="h"
       y2="130.03"
       xlink:href="#a"
       gradientUnits="userSpaceOnUse"
       x2="100.51"
       gradientTransform="matrix(2.573,0,0,2.573,-251.365,-39.26)"
       y1="70.033"
       x1="100.51" />
    <linearGradient
       id="i"
       y2="85.32"
       xlink:href="#b"
       gradientUnits="userSpaceOnUse"
       x2="120.48"
       gradientTransform="matrix(2.573,0,0,2.573,-251.365,-39.26)"
       y1="68.117"
       x1="120.48" />
    <linearGradient
       id="j"
       y2="79.161"
       xlink:href="#b"
       gradientUnits="userSpaceOnUse"
       x2="124.57"
       y1="73.444"
       x1="124.57" />
    <linearGradient
       id="k"
       y2="73.865"
       xlink:href="#b"
       gradientUnits="userSpaceOnUse"
       x2="132.78"
       y1="67.756"
       x1="132.78" />
    <linearGradient
       id="l"
       y2="323.36"
       gradientUnits="userSpaceOnUse"
       x2="258.77"
       gradientTransform="translate(5.58,-12.8322)"
       y1="408.7"
       x1="258.77">
      <stop
         stop-color="#3434ff"
         offset="0"
         id="stop48" />
      <stop
         stop-color="#b9b9b9"
         offset="1"
         id="stop50" />
    </linearGradient>
    <linearGradient
       id="m"
       y2="85.792"
       gradientUnits="userSpaceOnUse"
       x2="-60.735"
       gradientTransform="translate(2.16,-1.33)"
       y1="171.13"
       x1="-60.735">
      <stop
         stop-color="#ffff01"
         offset="0"
         id="stop53" />
      <stop
         stop-color="#b9b9b9"
         offset="1"
         id="stop55"
         style="stop-color:#cdf441;stop-opacity:1;" />
    </linearGradient>
    <linearGradient
       id="n"
       y2="298.71"
       gradientUnits="userSpaceOnUse"
       x2="-105.42"
       y1="384.04"
       x1="-105.42">
      <stop
         stop-color="red"
         offset="0"
         id="stop58" />
      <stop
         stop-color="#b9b9b9"
         offset="1"
         id="stop60" />
    </linearGradient>
    <linearGradient
       id="o"
       y2="408.7"
       gradientUnits="userSpaceOnUse"
       x2="32.595"
       gradientTransform="translate(-3.45,-0.43)"
       y1="494.61"
       x1="32.595">
      <stop
         stop-color="lime"
         offset="0"
         id="stop63" />
      <stop
         stop-color="#b9b9b9"
         offset="1"
         id="stop65" />
    </linearGradient>
    <linearGradient
       id="p"
       y2="99.849"
       gradientUnits="userSpaceOnUse"
       x2="230.67"
       gradientTransform="translate(1.59,1.61)"
       y1="171.13"
       x1="230.67">
      <stop
         stop-color="#F0F"
         offset="0"
         id="stop68" />
      <stop
         stop-color="#b9b9b9"
         offset="1"
         id="stop70" />
    </linearGradient>
    <linearGradient
       inkscape:collect="always"
       xlink:href="#f"
       id="linearGradient3950"
       x1="-46.977272"
       y1="10.055044"
       x2="-46.936478"
       y2="33.198696"
       gradientUnits="userSpaceOnUse"
       gradientTransform="matrix(2.6043791,0,0,2.6043792,275.74026,136.30428)" />
    <radialGradient
       id="shadowGradient">
      <stop
         id="stop17"
         style="stop-color: rgb(192, 192, 192); stop-opacity: 1;"
         offset="0" />
      <stop
         id="stop19-4"
         style="stop-color: rgb(192, 192, 192); stop-opacity: 1;"
         offset="0.88" />
      <stop
         id="stop21-5"
         style="stop-color: rgb(192, 192, 192); stop-opacity: 0;"
         offset="1" />
    </radialGradient>
    <linearGradient
       x1="42.986301"
       y1="7.0127001"
       x2="22.0144"
       y2="51.987099"
       id="fieldGradient"
       gradientUnits="userSpaceOnUse">
      <stop
         id="stop7-2"
         style="stop-color: rgb(31, 222, 0); stop-opacity: 1;"
         offset="0" />
      <stop
         id="stop9-3"
         style="stop-color: rgb(0, 128, 0); stop-opacity: 1;"
         offset="1" />
    </linearGradient>
    <linearGradient
       x1="54.509937"
       y1="41.179295"
       x2="9.5471001"
       y2="16.248501"
       id="edgeGradient"
       gradientUnits="userSpaceOnUse"
       spreadMethod="pad">
      <stop
         id="stop12-3"
         style="stop-color: rgb(0, 64, 0); stop-opacity: 1;"
         offset="0" />
      <stop
         id="stop14-6"
         style="stop-color: rgb(0, 111, 0); stop-opacity: 1;"
         offset="1" />
    </linearGradient>
    <linearGradient
       x1="42.986301"
       y1="7.0127001"
       x2="22.0144"
       y2="51.987099"
       id="linearGradient3014"
       gradientUnits="userSpaceOnUse">
      <stop
         id="stop3016"
         style="stop-color: rgb(31, 222, 0); stop-opacity: 1;"
         offset="0" />
      <stop
         id="stop3018"
         style="stop-color: rgb(0, 128, 0); stop-opacity: 1;"
         offset="1" />
    </linearGradient>
    <radialGradient
       gradientUnits="userSpaceOnUse"
       r="26.5"
       fy="29.5"
       fx="32.5"
       cy="29.5"
       cx="32.5"
       id="radialGradient3023"
       xlink:href="#shadowGradient"
       inkscape:collect="always" />
    <filter
       id="filter4153"
       inkscape:label="Drop shadow"
       width="1.5"
       height="1.5"
       x="-.25"
       y="-.25">
      <feGaussianBlur
         id="feGaussianBlur4155"
         in="SourceAlpha"
         stdDeviation="5.4"
         result="blur" />
      <feColorMatrix
         id="feColorMatrix4157"
         result="bluralpha"
         type="matrix"
         values="-1 0 0 0 1 0 -1 0 0 1 0 0 -1 0 1 0 0 0 0.596 0 " />
      <feOffset
         id="feOffset4159"
         in="bluralpha"
         dx="6.3"
         dy="6.3"
         result="offsetBlur" />
      <feMerge
         id="feMerge4161">
        <feMergeNode
           id="feMergeNode4163"
           in="offsetBlur" />
        <feMergeNode
           id="feMergeNode4165"
           in="SourceGraphic" />
      </feMerge>
    </filter>
    <linearGradient
       inkscape:collect="always"
       xlink:href="#m-0"
       id="linearGradient3950-8"
       x1="-46.977272"
       y1="10.055044"
       x2="-46.936478"
       y2="33.198696"
       gradientUnits="userSpaceOnUse"
       gradientTransform="matrix(2.6043791,0,0,2.6043792,275.74026,136.30428)" />
    <linearGradient
       id="m-0"
       y2="85.792"
       gradientUnits="userSpaceOnUse"
       x2="-60.735001"
       gradientTransform="translate(2.16,-1.33)"
       y1="171.13"
       x1="-60.735001">
      <stop
         stop-color="#ffff01"
         offset="0"
         id="stop53-2" />
      <stop
         stop-color="#b9b9b9"
         offset="1"
         id="stop55-5"
         style="stop-color:#cdf441;stop-opacity:1;" />
    </linearGradient>
    <linearGradient
       inkscape:collect="always"
       xlink:href="#m-0"
       id="linearGradient4193"
       x1="-46.977272"
       y1="10.055044"
       x2="-46.936478"
       y2="33.198696"
       gradientUnits="userSpaceOnUse"
       gradientTransform="matrix(2.6043791,0,0,2.6043792,275.74026,136.30428)" />
    <linearGradient
       id="linearGradient4195"
       y2="85.792"
       gradientUnits="userSpaceOnUse"
       x2="-60.735001"
       gradientTransform="translate(2.16,-1.33)"
       y1="171.13"
       x1="-60.735001">
      <stop
         stop-color="#ffff01"
         offset="0"
         id="stop4197" />
      <stop
         stop-color="#b9b9b9"
         offset="1"
         id="stop4199"
         style="stop-color:#cdf441;stop-opacity:1;" />
    </linearGradient>
    <filter
       inkscape:collect="always"
       id="filter4240"
       x="-0.030714161"
       width="1.0614283"
       y="-0.12305928"
       height="1.2461186">
      <feGaussianBlur
         inkscape:collect="always"
         stdDeviation="2.4577162"
         id="feGaussianBlur4242" />
    </filter>
    <filter
       inkscape:collect="always"
       id="filter4250"
       x="-0.20405191"
       width="1.4081038"
       y="-1.0309991"
       height="3.0619983">
      <feGaussianBlur
         inkscape:collect="always"
         stdDeviation="6.0490658"
         id="feGaussianBlur4252" />
    </filter>
    <linearGradient
       inkscape:collect="always"
       xlink:href="#f"
       id="linearGradient4261"
       gradientUnits="userSpaceOnUse"
       gradientTransform="matrix(2.6043791,0,0,2.6043792,275.74026,136.30428)"
       x1="-46.977272"
       y1="10.055044"
       x2="-46.936478"
       y2="33.198696" />
    <linearGradient
       inkscape:collect="always"
       xlink:href="#f"
       id="linearGradient4332"
       gradientUnits="userSpaceOnUse"
       gradientTransform="matrix(2.6043791,0,0,2.6043792,275.74026,136.30428)"
       x1="-46.977272"
       y1="10.055044"
       x2="-46.936478"
       y2="33.198696" />
    <linearGradient
       inkscape:collect="always"
       xlink:href="#f"
       id="linearGradient4334"
       gradientUnits="userSpaceOnUse"
       gradientTransform="matrix(2.6043791,0,0,2.6043792,275.74026,136.30428)"
       x1="-46.977272"
       y1="10.055044"
       x2="-46.936478"
       y2="33.198696" />
    <linearGradient
       inkscape:collect="always"
       xlink:href="#f"
       id="linearGradient4336"
       gradientUnits="userSpaceOnUse"
       gradientTransform="matrix(2.6043791,0,0,2.6043792,275.74026,136.30428)"
       x1="-46.977272"
       y1="10.055044"
       x2="-46.936478"
       y2="33.198696" />
    <linearGradient
       inkscape:collect="always"
       xlink:href="#f"
       id="linearGradient4338"
       gradientUnits="userSpaceOnUse"
       gradientTransform="matrix(2.6043791,0,0,2.6043792,275.74026,136.30428)"
       x1="-46.977272"
       y1="10.055044"
       x2="-46.936478"
       y2="33.198696" />
    <linearGradient
       inkscape:collect="always"
       xlink:href="#f"
       id="linearGradient4340"
       gradientUnits="userSpaceOnUse"
       gradientTransform="matrix(2.6043791,0,0,2.6043792,275.74026,136.30428)"
       x1="-46.977272"
       y1="10.055044"
       x2="-46.936478"
       y2="33.198696" />
    <linearGradient
       inkscape:collect="always"
       xlink:href="#f"
       id="linearGradient4342"
       gradientUnits="userSpaceOnUse"
       gradientTransform="matrix(2.6043791,0,0,2.6043792,275.74026,136.30428)"
       x1="-46.977272"
       y1="10.055044"
       x2="-46.936478"
       y2="33.198696" />
    <linearGradient
       inkscape:collect="always"
       xlink:href="#f"
       id="linearGradient4344"
       gradientUnits="userSpaceOnUse"
       gradientTransform="matrix(2.6043791,0,0,2.6043792,275.74026,136.30428)"
       x1="-46.977272"
       y1="10.055044"
       x2="-46.936478"
       y2="33.198696" />
    <linearGradient
       inkscape:collect="always"
       xlink:href="#f"
       id="linearGradient4346"
       gradientUnits="userSpaceOnUse"
       gradientTransform="matrix(2.573,0,0,-2.573,207.924,1307.73)"
       x1="-52.251"
       y1="457.03"
       x2="-52.251"
       y2="361.42" />
  </defs>
  <g
     id="g74"
     transform="matrix(0.6,0,0,0.6,87.576059,-52.879706)">
    <path
       style="fill:#000000;fill-opacity:0.3"
       inkscape:connector-curvature="0"
       id="path76"
       d="m -39.634,171.47 c -31.743,31.66 -49.227,73.53 -49.227,117.89 0,92.35 75.02,167.48 167.23,167.48 92.218,0 167.25,-75.13 167.25,-167.48 0,-92.06 -75.03,-166.96 -167.25,-166.96 -44.38,0.01 -86.288,17.43 -118.01,49.07 z" />
    <path
       inkscape:connector-curvature="0"
       style="fill:url(#c)"
       id="path78"
       d="m -43.9,167.2 c -31.744,31.66 -49.228,73.53 -49.228,117.89 0,92.35 75.02,167.48 167.23,167.48 92.225,0 167.24,-75.13 167.24,-167.48 0,-92.06 -75.02,-166.96 -167.24,-166.96 -44.38,0.01 -86.287,17.43 -118,49.07 z" />
    <path
       style="fill:#b0d9ff"
       inkscape:connector-curvature="0"
       id="path80"
       d="m -39.03,172.09 c -30.439,30.35 -47.207,70.49 -47.207,113 0,88.55 71.929,160.59 160.34,160.59 88.42,0 160.35,-72.04 160.35,-160.59 0,-88.25 -71.93,-160.06 -160.35,-160.06 -42.533,0.01 -82.714,16.72 -113.13,47.06 z" />
    <path
       style="fill:#ffffff"
       inkscape:connector-curvature="0"
       id="path82"
       d="m 74.105,440.51 c 85.675,0 155.18,-69.8 155.18,-155.42 0,-85.08 -69.51,-154.88 -155.18,-154.88 -85.068,0 -155.16,69.8 -155.16,154.88 0,85.62 70.098,155.42 155.16,155.42 z" />
    <path
       inkscape:connector-curvature="0"
       style="fill:url(#d)"
       id="path84"
       d="m 74.105,440.51 c 85.675,0 155.18,-69.8 155.18,-155.42 0,-85.08 -69.51,-154.88 -155.18,-154.88 -85.068,0 -155.16,69.8 -155.16,154.88 0,85.62 70.098,155.42 155.16,155.42 z" />
    <path
       inkscape:connector-curvature="0"
       style="fill:url(#e)"
       id="path86"
       d="m 22.564,147.28 c -0.767,0 -1.608,0.31 -2.467,0.8 2.019,-0.59 2.969,-0.8 2.467,-0.8 m 49.961,9.74 0.502,-7.31 -7.712,0.49 1.019,6.82 h 6.191 m -87.044,126.31 c -1.554,-1.46 -0.512,-7.81 -0.512,-7.81 0,0 -23.183,-12.18 -48.417,-19.5 -3.111,-0.9 -1.541,-7.31 1.539,-9.74 l -1.022,-6.84 c -0.512,-3.41 5.157,-19.99 10.82,-21.44 5.669,-1.47 -0.517,9.74 -0.517,9.74 l -5.661,3.41 c 0,0 6.693,7.8 8.244,7.8 1.542,0 4.117,-3.9 4.117,-3.9 l -7.207,-4.87 6.695,-2.93 0.422,-2.57 1.125,-0.36 11.087,-16.79 c 7.662,-3.14 17.08,-7.02 18.276,-7.59 2.064,-0.97 16.478,-9.26 19.056,-11.2 2.5833,-1.97 8.2368,-1.47 10.292,-1.47 2.072,0 5.157,-0.98 5.669,-6.35 0.514,-5.36 2.578,-6.34 4.127,-4.87 1.549,1.45 -1.549,3.9 2.061,4.87 3.602,0.98 6.69,3.42 9.273,0.98 1.881,-1.78 -0.638,-3.82 -2.336,-5.35 h 28.599 l 3.096,-8.8 -6.695,-0.97 -24.735,-2.43 v -2.93 l -1.971,0.33 c 2.679,-14.71 18.58,-12.29 6.608,-20.8 -0.729,-0.53 -11.203,16.5 -13.869,16.17 -4.83,-0.64 -11.067,-0.69 -12.395,0.88 -1.7595,2.08 3.95,-7.13 8.862,-9.92 -7.845,2.31 -32.626,10.79 -58.82,38.7 -25.046,26.67 -35.032,62.62 -35.032,63.88 0,2.43 5.156,3.41 5.668,6.34 0.518,2.91 -9.785,12.68 -9.785,17.55 0,2.25 -2.426,32.3 6.17,57.06 10.051,28.89 31.505,53.03 34.001,54.62 l 5.146,-2.44 c 0,0 -11.847,-20.97 -12.359,-22.93 -0.509,-1.94 13.391,-30.23 20.093,-29.24 6.693,0.95 5.152,2.92 9.271,0.48 4.122,-2.43 6.6951,-22.44 11.332,-24.38 4.6392,-1.96 9.7853,-4.39 9.2733,-9.27 -0.5378,-4.89 -18.047,-13.66 -19.589,-15.12 m 111.77,-143.37 -13.905,-4.88 2.578,7.81 11.327,-2.93 M 45.2293,158 c 1.552,0 32.449,-20.47 29.359,-20.96 -3.08,-0.49 -3.598,0 -11.854,-0.98 -8.229,-0.98 -16.993,11.7 -19.049,13.66 -2.061,1.95 -1.366,8.28 1.544,8.28 m 141.8,147.04 3.99,-5.18 -3.99,-1.4 -2.99,3.76 -3.48,5.16 2.99,1.41 3.48,-3.75 m 17.45,16.93 -1,-7.53 h -6.48 l -0.5,5.64 -5.99,-0.93 -1.48,-6.12 -2.99,-1.88 -3.5,4.23 -3.48,-0.94 -1,3.29 3.99,0.95 v 30.54 l 14.11,3.4 c -0.33,0.56 -0.57,1.03 -0.65,1.29 -1.01,3.29 3.98,4.72 7.46,3.29 1.3,-0.51 5.4,-4.66 7.98,-10.8 3.59,-8.54 6.73,-19.82 7.36,-23.8 l 1.61,-3.45 -9.97,3.75 -5.49,-0.93 h 0.02 m 20.94,-56.88 -2.61,-5.04 c -3.08,-17.39 -10.15,-39.64 -25.3,-62.64 -22.8,-34.57 -86.26,-54.51 -86.26,-54.51 l -3.48,4.22 -2,-3.28 -4.99,-1.89 v 4.24 l 4.5,3.76 -2.99,1.41 -11.476,0.93 -25.918,14.11 2.488,11.28 -2.997,0.94 -1.483,2.35 8.474,12.68 0.496,4.24 -6.978,1.41 v 8.45 l -3.986,0.94 0.5,6.58 -33.906,23.52 0.999,13.14 c 2.488,3.29 21.935,23.04 21.935,23.04 0,0 22.429,0.92 27.413,-1.88 4.987,-2.82 1.493,2.82 2.995,4.23 1.488,1.42 1.989,11.28 3.482,12.22 1.495,0.93 0,6.57 1.994,8.46 1.991,1.87 1.991,24.44 1.991,24.44 0,0 11.967,20.2 11.967,25.37 0,5.18 -0.504,4.7 8.97,4.24 9.48,-0.47 11.47,-4.24 13.45,-5.64 2.01,-1.41 2.01,-4.7 4,-7.52 2,-2.83 5.48,-13.63 9.98,-17.39 4.48,-3.77 16.45,-6.59 17.43,-13.16 1,-6.58 5.49,-11.75 5.49,-11.75 l 21.55,-22.8 -0.6,3.06 -0.5,11.74 6.48,-2.34 -0.49,-12.7 -2.33,-2.46 0.33,-0.36 c 0,0 -1.49,-2.82 -3.48,-2.82 -1.99,0 -13.97,2.82 -15.95,2.35 -2,-0.47 -10.48,-23.03 -11.97,-23.96 -1.5,-0.94 -10.97,-16.46 -10.97,-16.46 0,0 21.93,26.32 25.43,36.66 2.02,6.02 9.63,0.41 15.82,-5.87 l 1.64,4 3.98,-0.95 -0.5,-4.7 h 4.48 v 7.05 l -1.49,3.76 -0.51,6.1 3.99,3.77 2,-3.28 6.47,-6.12 7.48,-3.76 2,3.76 1,5.18 -2,5.63 -3.99,3.29 -1.99,8.46 v 4.23 l -4.48,-2.82 -0.49,-8.93 -6.49,0.48 -2.99,7.98 4.49,6.59 10.46,1.41 8.48,-8 1,-15.49 3.77,-4.98 c 2.45,6.31 4.21,12.92 4.21,19.08 0,6.74 3.08,-4.68 0.46,-25.26 l 1.52,-2.02 m -125.63,-47.94 -26.917,-0.95 11.46,-9.39 h 5.983 l 9.474,6.57 v 3.77 m 32.913,-3.29 v 4.23 h -11.46 l 0.99,2.83 -6.98,0.95 -0.49,2.34 -4.99,-0.93 -8.98,-1.89 1.5,-2.34 1.5,-2.84 4.98,-5.16 2,3.76 7.48,-0.48 3.98,-4.23 15.46,2.82 -4.99,0.94 m 0.98,-6.11 -5.97,0.94 -1,-4.24 7.47,-0.93 1,-4.23 5.5,5.65 -7,2.8 v 0.01 m 28.93,146.16 -3.5,2.82 0.5,7.06 h 4.49 v -6.1 l 3.99,-5.18 V 341.7 l -2.5,-0.48 -2.98,12.69 m -33.4,-14.08 c 0,0 -3.49,0.91 0.49,2.33 3.98,1.42 19.94,-23.01 19.94,-23.01 l -13.46,8.45 -6.98,12.23 h 0.01 m -27.14,90.07 -2.978,-2.84 -5.985,-0.95 -0.991,2.84 -7.976,-0.94 -0.499,-3.78 h -5.98 l -6.476,3.78 h -11.458 l -0.996,-2.84 -18.433,-1.9 -2.995,2.84 -7.462,-1.88 -1.001,-6.63 -3.487,-0.49 -3.988,7.12 -13.452,-0.47 c 2.4088,1.13 22.491,13.12 53.301,15.61 40.856,3.31 60.296,-6.62 60.296,-6.62 l -1.5,-1.43 -17.94,-1.41 v -0.01 z" />
    <path
       inkscape:connector-curvature="0"
       style="fill:url(#linearGradient4346)"
       id="path88"
       d="m 73.583,254 c 53.147,0 99.387,-18.31 123.18,-45.31 -23.96,-45.72 -70.24,-76.92 -123.41,-76.92 -52.699,0 -99.045,31.1 -123.15,76.69 23.726,27.12 70.075,45.54 123.38,45.54 z" />
    <path
       inkscape:connector-curvature="0"
       style="fill:url(#g)"
       id="path90"
       d="m 141.67,229.84 c 0,0 3.61,4.33 8.13,10.17 19.53,-7.86 35.75,-18.61 46.96,-31.32 -7.94,-15.15 -18.35,-28.7 -30.64,-40.06 -25.84,-16.6 -54.87,-25.73 -54.87,-25.73 l -3.48,4.22 -2,-3.28 -4.99,-1.89 v 4.24 l 4.5,3.76 -2.99,1.41 -11.476,0.93 -25.918,14.11 2.488,11.28 -2.997,0.94 -1.483,2.35 8.474,12.68 0.496,4.24 -6.978,1.41 v 8.45 l -3.986,0.94 0.5,6.58 -33.906,23.52 0.803,10.55 c 14.209,3 29.423,4.66 45.276,4.66 27.537,0 53.187,-4.94 74.847,-13.44 -3.12,-4.76 -6.76,-10.72 -6.76,-10.72 z M 99.787,217.15 72.87,216.2 84.33,206.81 h 5.983 l 9.474,6.57 v 3.77 z m 32.913,-3.29 v 4.23 h -11.46 l 0.99,2.83 -6.98,0.95 -0.49,2.34 -4.99,-0.93 -8.98,-1.89 1.5,-2.34 1.5,-2.84 4.98,-5.16 2,3.76 7.48,-0.48 3.98,-4.23 15.46,2.82 -4.99,0.94 z m 0.98,-6.12 v 0.01 l -5.97,0.94 -1,-4.24 7.47,-0.93 1,-4.23 5.5,5.65 -7,2.8 z" />
    <path
       inkscape:connector-curvature="0"
       style="fill:url(#h)"
       id="path92"
       d="m -15.54,199.94 c 2.063,-0.97 16.478,-9.26 19.056,-11.2 2.5833,-1.97 8.2361,-1.47 10.292,-1.47 2.071,0 5.156,-0.98 5.669,-6.35 0.514,-5.36 2.578,-6.34 4.127,-4.87 1.549,1.45 -1.549,3.9 2.061,4.87 3.602,0.98 6.69,3.42 9.273,0.98 1.881,-1.78 -0.638,-3.82 -2.336,-5.35 h 28.599 l 3.095,-8.8 -6.695,-0.97 -24.734,-2.43 v -2.93 l -1.971,0.33 c 2.678,-14.71 18.58,-12.29 6.607,-20.8 -0.728,-0.53 -11.203,16.5 -13.868,16.17 -4.83,-0.64 -11.067,-0.69 -12.395,0.88 -1.7598,2.08 3.95,-7.13 8.862,-9.92 -6.106,1.8 -22.478,7.38 -41.781,22.9 -11.17,10.8 -20.701,23.45 -28.121,37.48 2.789,3.19 5.918,6.25 9.309,9.18 l 6.674,-10.11 c 7.663,-3.13 17.083,-7.02 18.277,-7.59 z" />
    <path
       inkscape:connector-curvature="0"
       style="fill:url(#i)"
       id="path94"
       d="m 43.679,149.72 c -2.059,1.95 -1.364,8.28 1.546,8.28 1.552,0 32.449,-20.47 29.359,-20.96 -3.08,-0.49 -3.598,0 -11.854,-0.98 -8.232,-0.98 -16.996,11.7 -19.051,13.66 z" />
    <path
       transform="matrix(2.573,0,0,2.573,-251.365,-39.26)"
       style="fill:url(#j)"
       d="m 123.47,76.284 2.41,0 0,10e-4 0.19,-2.841 0,0 -2.99,0.187 z"
       id="polygon96"
       inkscape:connector-curvature="0" />
    <path
       transform="matrix(2.573,0,0,2.573,-251.365,-39.26)"
       style="fill:url(#k)"
       d="m 131.08,70.792 4.41,-1.139 0,0 -5.41,-1.897 z"
       id="polygon98"
       inkscape:connector-curvature="0" />
  </g>
  <path
     inkscape:connector-curvature="0"
     id="check"
     style="fill:#2a8908;fill-opacity:1;fill-rule:evenodd;stroke:#cbe8d0;stroke-width:4;stroke-miterlimit:4;stroke-opacity:1;stroke-dasharray:none"
     d="m 6.2652183,192.55075 c 0,0 21.0908537,23.75039 25.3090317,33.45219 l 18.138118,0 C 57.30507,202.80299 86.83226,147.4163 112.1413,128.0127 c 5.24377,-6.74195 -7.92939,-9.52487 -18.559957,-5.06177 -16.021859,6.72654 -46.239537,58.08469 -51.883504,70.44345 -8.014509,2.10908 -16.450847,-13.49815 -16.450847,-13.49815 L 6.2652183,192.55075 z" />
  <g
     id="g4254"
     transform="translate(11.563059,-70.327706)">
    <g
       transform="matrix(0.94357755,0,0,1.0597963,0,80)"
       style="font-size:52.08758163px;font-style:normal;font-variant:normal;font-weight:bold;font-stretch:normal;line-height:125%;letter-spacing:0px;word-spacing:0px;fill:url(#linearGradient4344);fill-opacity:1;stroke:#000000;stroke-width:2.60437918px;stroke-linecap:butt;stroke-linejoin:miter;stroke-opacity:0.25333336;filter:url(#filter4240);font-family:Arial;-inkscape-font-specification:Sans"
       id="text3154">
      <path
         d="m 87.829702,185.8418 -8.454059,1.526 c -0.284878,-1.68876 -0.935972,-2.96042 -1.953284,-3.81501 -0.99701,-0.85454 -2.299199,-1.28182 -3.906569,-1.28184 -2.136421,2e-5 -3.845543,0.74268 -5.127371,2.22796 -1.261508,1.46499 -1.892256,3.92694 -1.892245,7.38586 -1.1e-5,3.84554 0.64091,6.56182 1.922765,8.14886 1.302175,1.58705 3.041817,2.38057 5.218931,2.38056 1.627717,1e-5 2.960426,-0.45779 3.998129,-1.3734 1.037659,-0.93594 1.77014,-2.53316 2.197445,-4.79165 l 8.423539,1.43444 c -0.874941,3.86588 -2.553543,6.78563 -5.035811,8.75926 -2.482325,1.97363 -5.809009,2.96045 -9.980062,2.96045 -4.740798,0 -8.525282,-1.49548 -11.353466,-4.48645 -2.80785,-2.99096 -4.211772,-7.13151 -4.211769,-12.42167 -3e-6,-5.35116 1.414092,-9.51206 4.242289,-12.48271 2.828184,-2.99093 6.653362,-4.48641 11.475546,-4.48645 3.94724,4e-5 7.08063,0.8546 9.400181,2.56369 2.339842,1.6888 4.018444,4.27283 5.035811,7.7521"
         style="font-size:62.50510025px;fill:url(#linearGradient4332);stroke:#000000"
         id="path4287"
         inkscape:connector-curvature="0" />
      <path
         d="m 92.377192,192.00685 c -3e-6,-2.84852 0.701958,-5.6055 2.105884,-8.27094 1.403918,-2.66539 3.38772,-4.70006 5.951414,-6.10401 2.58402,-1.40389 5.46308,-2.10585 8.63718,-2.10589 4.90353,4e-5 8.922,1.59725 12.05543,4.79165 3.13336,3.17412 4.70005,7.19259 4.70009,12.05543 -4e-5,4.90357 -1.58708,8.97291 -4.76113,12.20803 -3.15377,3.21478 -7.13155,4.82217 -11.93335,4.82217 -2.97064,0 -5.809,-0.67144 -8.5151,-2.01433 -2.685774,-1.34288 -4.730616,-3.30633 -6.134534,-5.89037 -1.403926,-2.60437 -2.105887,-5.76828 -2.105884,-9.49174 m 8.789778,0.4578 c -1e-5,3.21479 0.76299,5.67674 2.28901,7.38586 1.52598,1.70913 3.40805,2.56369 5.64621,2.56368 2.23812,1e-5 4.11001,-0.85455 5.61569,-2.56368 1.52598,-1.70912 2.28898,-4.19141 2.28901,-7.4469 -3e-5,-3.17407 -0.76303,-5.61567 -2.28901,-7.32482 -1.50568,-1.70909 -3.37757,-2.56366 -5.61569,-2.56368 -2.23816,2e-5 -4.12023,0.85459 -5.64621,2.56368 -1.52602,1.70915 -2.28902,4.1711 -2.28901,7.38586"
         style="font-size:62.50510025px;fill:url(#linearGradient4334);stroke:#000000"
         id="path4289"
         inkscape:connector-curvature="0" />
      <path
         d="m 132.57212,208.67081 0,-44.74242 8.57614,0 0,44.74242 -8.57614,0"
         style="font-size:62.50510025px;fill:url(#linearGradient4336);stroke:#000000"
         id="path4291"
         inkscape:connector-curvature="0" />
      <path
         d="m 147.92372,192.00685 c -1e-5,-2.84852 0.70195,-5.6055 2.10588,-8.27094 1.40392,-2.66539 3.38772,-4.70006 5.95141,-6.10401 2.58402,-1.40389 5.46308,-2.10585 8.63718,-2.10589 4.90354,4e-5 8.92201,1.59725 12.05543,4.79165 3.13336,3.17412 4.70005,7.19259 4.70009,12.05543 -4e-5,4.90357 -1.58708,8.97291 -4.76113,12.20803 -3.15377,3.21478 -7.13155,4.82217 -11.93335,4.82217 -2.97063,0 -5.809,-0.67144 -8.5151,-2.01433 -2.68577,-1.34288 -4.73061,-3.30633 -6.13453,-5.89037 -1.40393,-2.60437 -2.10589,-5.76828 -2.10588,-9.49174 m 8.78978,0.4578 c -2e-5,3.21479 0.76299,5.67674 2.289,7.38586 1.52599,1.70913 3.40806,2.56369 5.64621,2.56368 2.23812,1e-5 4.11002,-0.85455 5.6157,-2.56368 1.52597,-1.70912 2.28897,-4.19141 2.289,-7.4469 -3e-5,-3.17407 -0.76303,-5.61567 -2.289,-7.32482 -1.50568,-1.70909 -3.37758,-2.56366 -5.6157,-2.56368 -2.23815,2e-5 -4.12022,0.85459 -5.64621,2.56368 -1.52601,1.70915 -2.28902,4.1711 -2.289,7.38586"
         style="font-size:62.50510025px;fill:url(#linearGradient4338);stroke:#000000"
         id="path4293"
         inkscape:connector-curvature="0" />
      <path
         d="m 209.45217,208.67081 0,-4.85269 c -1.18014,1.72947 -2.73666,3.0927 -4.66957,4.08969 -1.91261,0.99698 -3.93711,1.49548 -6.0735,1.49548 -2.17711,0 -4.13039,-0.47815 -5.85985,-1.43444 -1.72948,-0.9563 -2.9808,-2.29918 -3.75397,-4.02865 -0.77318,-1.72947 -1.15976,-4.1202 -1.15976,-7.17222 l 0,-20.50949 8.57614,0 0,14.8938 c -1e-5,4.55767 0.15259,7.35534 0.4578,8.39302 0.32553,1.01734 0.90542,1.83121 1.73964,2.4416 0.8342,0.59006 1.89223,0.88509 3.17409,0.88508 1.46495,1e-5 2.77731,-0.39675 3.93709,-1.19028 1.15974,-0.81386 1.95326,-1.81085 2.38057,-2.99097 0.42725,-1.20044 0.64089,-4.12019 0.64092,-8.75926 l 0,-13.67299 8.57614,0 0,32.41232 -7.96574,0"
         style="font-size:62.50510025px;fill:url(#linearGradient4340);stroke:#000000"
         id="path4295"
         inkscape:connector-curvature="0" />
      <path
         d="m 234.53968,208.67081 -8.57614,0 0,-32.41232 7.96573,0 0,4.60853 c 1.36322,-2.17706 2.58402,-3.61151 3.66241,-4.30333 1.09871,-0.69175 2.33986,-1.03764 3.72345,-1.03768 1.95326,4e-5 3.83533,0.53922 5.64621,1.61757 l -2.65524,7.47741 c -1.44464,-0.93592 -2.78752,-1.40389 -4.02865,-1.40392 -1.20048,3e-5 -2.21781,0.33575 -3.05201,1.00716 -0.83423,0.65112 -1.4955,1.8414 -1.9838,3.57085 -0.46799,1.72949 -0.70198,5.3512 -0.70196,10.86514 l 0,10.01059"
         style="font-size:62.50510025px;fill:url(#linearGradient4342);stroke:#000000"
         id="path4297"
         inkscape:connector-curvature="0" />
    </g>
    <path
       transform="matrix(2,0,0,2,0,80)"
       style="opacity:0.77155175;color:#000000;fill:#ffffff;fill-opacity:1;stroke:#ffffff;stroke-width:2.29999995;stroke-linecap:butt;stroke-linejoin:miter;stroke-miterlimit:4;stroke-opacity:1;stroke-dashoffset:0;marker:none;visibility:visible;display:inline;overflow:visible;filter:url(#filter4250);enable-background:accumulate"
       d="m 31.497536,95.020226 71.147374,0 0,14.081254 -71.147374,0 z"
       id="rect4244"
       inkscape:connector-curvature="0" />
    <g
       transform="scale(0.94357755,1.0597963)"
       style="font-size:52.08758163px;font-style:normal;font-variant:normal;font-weight:bold;font-stretch:normal;line-height:125%;letter-spacing:0px;word-spacing:0px;fill:#005793;fill-opacity:1;stroke:#000000;stroke-width:1.40400004;stroke-linecap:butt;stroke-linejoin:miter;stroke-miterlimit:4;stroke-opacity:0.70666665;font-family:Arial;-inkscape-font-specification:Sans"
       id="text3154-4">
      <path
         d="m 88.67613,260.6929 -8.454059,1.526 c -0.284878,-1.68875 -0.935972,-2.96042 -1.953284,-3.815 -0.99701,-0.85454 -2.299199,-1.28182 -3.906569,-1.28185 -2.136421,3e-5 -3.845543,0.74268 -5.127371,2.22797 -1.261509,1.46498 -1.892256,3.92693 -1.892245,7.38585 -1.1e-5,3.84555 0.64091,6.56183 1.922765,8.14886 1.302175,1.58705 3.041817,2.38057 5.218931,2.38057 1.627717,0 2.960426,-0.4578 3.998129,-1.37341 1.037659,-0.93594 1.77014,-2.53315 2.197445,-4.79165 l 8.423539,1.43445 c -0.874941,3.86588 -2.553543,6.78563 -5.035811,8.75926 -2.482325,1.97363 -5.809009,2.96044 -9.980062,2.96044 -4.740798,0 -8.525283,-1.49548 -11.353466,-4.48645 -2.80785,-2.99096 -4.211772,-7.13151 -4.211769,-12.42166 -3e-6,-5.35117 1.414092,-9.51207 4.242289,-12.48271 2.828183,-2.99094 6.653362,-4.48642 11.475546,-4.48645 3.94724,3e-5 7.08063,0.85459 9.400181,2.56368 2.339842,1.68881 4.018444,4.27284 5.035811,7.7521"
         style="font-size:62.50510025px;fill:#005793;stroke:#000000"
         id="path4301"
         inkscape:connector-curvature="0" />
      <path
         d="m 93.22362,266.85795 c -3e-6,-2.84852 0.701958,-5.60549 2.105884,-8.27093 1.403917,-2.6654 3.38772,-4.70007 5.951416,-6.10402 2.58402,-1.40389 5.46307,-2.10585 8.63718,-2.10588 4.90353,3e-5 8.922,1.59725 12.05542,4.79165 3.13336,3.17411 4.70006,7.19258 4.70009,12.05543 -3e-5,4.90356 -1.58707,8.9729 -4.76113,12.20802 -3.15376,3.21478 -7.13154,4.82217 -11.93334,4.82217 -2.97064,0 -5.809,-0.67144 -8.5151,-2.01432 -2.685776,-1.34288 -4.730619,-3.30634 -6.134536,-5.89037 -1.403926,-2.60437 -2.105887,-5.76828 -2.105884,-9.49175 m 8.78978,0.45781 c -1e-5,3.21479 0.76299,5.67674 2.289,7.38585 1.52599,1.70913 3.40806,2.56369 5.64622,2.56369 2.23811,0 4.11001,-0.85456 5.61569,-2.56369 1.52598,-1.70911 2.28898,-4.19141 2.289,-7.44689 -2e-5,-3.17407 -0.76302,-5.61568 -2.289,-7.32482 -1.50568,-1.7091 -3.37758,-2.56366 -5.61569,-2.56369 -2.23816,3e-5 -4.12023,0.85459 -5.64622,2.56369 -1.52601,1.70914 -2.28901,4.17109 -2.289,7.38586"
         style="font-size:62.50510025px;fill:#005793;stroke:#000000"
         id="path4303"
         inkscape:connector-curvature="0" />
      <path
         d="m 133.41854,283.52191 0,-44.74242 8.57614,0 0,44.74242 -8.57614,0"
         style="font-size:62.50510025px;fill:#005793;stroke:#000000"
         id="path4305"
         inkscape:connector-curvature="0" />
      <path
         d="m 148.77014,266.85795 c 0,-2.84852 0.70196,-5.60549 2.10589,-8.27093 1.40392,-2.6654 3.38772,-4.70007 5.95141,-6.10402 2.58402,-1.40389 5.46308,-2.10585 8.63718,-2.10588 4.90353,3e-5 8.92201,1.59725 12.05543,4.79165 3.13336,3.17411 4.70005,7.19258 4.70009,12.05543 -4e-5,4.90356 -1.58708,8.9729 -4.76113,12.20802 -3.15377,3.21478 -7.13155,4.82217 -11.93335,4.82217 -2.97064,0 -5.809,-0.67144 -8.5151,-2.01432 -2.68577,-1.34288 -4.73061,-3.30634 -6.13453,-5.89037 -1.40393,-2.60437 -2.10589,-5.76828 -2.10589,-9.49175 m 8.78978,0.45781 c -1e-5,3.21479 0.76299,5.67674 2.28901,7.38585 1.52599,1.70913 3.40806,2.56369 5.64621,2.56369 2.23812,0 4.11001,-0.85456 5.61569,-2.56369 1.52598,-1.70911 2.28898,-4.19141 2.28901,-7.44689 -3e-5,-3.17407 -0.76303,-5.61568 -2.28901,-7.32482 -1.50568,-1.7091 -3.37757,-2.56366 -5.61569,-2.56369 -2.23815,3e-5 -4.12022,0.85459 -5.64621,2.56369 -1.52602,1.70914 -2.28902,4.17109 -2.28901,7.38586"
         style="font-size:62.50510025px;fill:#005793;stroke:#000000"
         id="path4307"
         inkscape:connector-curvature="0" />
      <path
         d="m 210.2986,283.52191 0,-4.85269 c -1.18014,1.72947 -2.73666,3.0927 -4.66957,4.08969 -1.91261,0.99699 -3.93711,1.49548 -6.0735,1.49548 -2.17711,0 -4.13039,-0.47814 -5.85985,-1.43444 -1.72948,-0.95629 -2.9808,-2.29918 -3.75397,-4.02865 -0.77318,-1.72946 -1.15977,-4.1202 -1.15976,-7.17222 l 0,-20.50948 8.57614,0 0,14.89379 c -2e-5,4.55768 0.15258,7.35535 0.4578,8.39302 0.32553,1.01734 0.90541,1.83121 1.73964,2.44161 0.8342,0.59006 1.89223,0.88508 3.17409,0.88508 1.46494,0 2.7773,-0.39676 3.93709,-1.19028 1.15974,-0.81386 1.95326,-1.81085 2.38056,-2.99097 0.42726,-1.20045 0.6409,-4.1202 0.64093,-8.75926 l 0,-13.67299 8.57613,0 0,32.41231 -7.96573,0"
         style="font-size:62.50510025px;fill:#005793;stroke:#000000"
         id="path4309"
         inkscape:connector-curvature="0" />
      <path
         d="m 235.3861,283.52191 -8.57614,0 0,-32.41231 7.96574,0 0,4.60853 c 1.36322,-2.17707 2.58402,-3.61151 3.66241,-4.30333 1.09871,-0.69176 2.33985,-1.03765 3.72345,-1.03768 1.95326,3e-5 3.83533,0.53922 5.64621,1.61756 l -2.65525,7.47742 c -1.44463,-0.93593 -2.78751,-1.4039 -4.02864,-1.40393 -1.20048,3e-5 -2.21781,0.33575 -3.05201,1.00717 -0.83423,0.65112 -1.4955,1.8414 -1.98381,3.57084 -0.46798,1.72949 -0.70197,5.35121 -0.70196,10.86515 l 0,10.01058"
         style="font-size:62.50510025px;fill:#005793;stroke:#000000"
         id="path4311"
         inkscape:connector-curvature="0" />
    </g>
  </g>
</svg>
