<?xml version="1.0" encoding="UTF-8" standalone="no"?>
<!-- Created with Inkscape (http://www.inkscape.org/) -->
<svg
   xmlns:a="http://ns.adobe.com/AdobeSVGViewerExtensions/3.0/"
   xmlns:svg="http://www.w3.org/2000/svg"
   xmlns="http://www.w3.org/2000/svg"
   version="1.0"
   width="36pt"
   height="36pt"
   viewBox="0 0 256 256"
   id="svg4076"
   xml:space="preserve">
  <defs
   id="defs4124">
    
    
  
      
      
      
      
      
      <linearGradient
   x1="-9.5307999"
   y1="68.1875"
   x2="117.4706"
   y2="159.1877"
   id="XMLID_3_"
   gradientUnits="userSpaceOnUse"
   gradientTransform="matrix(1.653269,0.000000,0.000000,1.723862,-27.38092,-96.05968)">
        <stop
   style="stop-color:#ffffff;stop-opacity:1"
   offset="0"
   id="stop4109" />
        <stop
   style="stop-color:#000000;stop-opacity:1"
   offset="1"
   id="stop4110" />
        <a:midPointStop
   id="midPointStop4111"
   style="stop-color:#FFFFFF"
   offset="0" />
        <a:midPointStop
   id="midPointStop4112"
   style="stop-color:#FFFFFF"
   offset="0.5" />
        <a:midPointStop
   id="midPointStop4113"
   style="stop-color:#000000"
   offset="1" />
      </linearGradient>
      
      
      <linearGradient
   x1="84.248001"
   y1="70.608398"
   x2="196.74809"
   y2="158.1078"
   id="XMLID_4_"
   gradientUnits="userSpaceOnUse">
        <stop
   style="stop-color:#ffffff;stop-opacity:1"
   offset="0"
   id="stop4117" />
        <stop
   style="stop-color:#000000;stop-opacity:1"
   offset="1"
   id="stop4118" />
        <a:midPointStop
   id="midPointStop4119"
   style="stop-color:#FFFFFF"
   offset="0" />
        <a:midPointStop
   id="midPointStop4120"
   style="stop-color:#FFFFFF"
   offset="0.5" />
        <a:midPointStop
   id="midPointStop4121"
   style="stop-color:#000000"
   offset="1" />
      </linearGradient>
      
    </defs>
  
  <g
   transform="matrix(1.137104,0.000000,0.000000,1.000000,-19.30420,-9.769963e-15)"
   style="stroke:#000000"
   id="g4078">
      <path
   d="M 44,15.5 C 34.626,15.5 27,23.126 27,32.5 L 27,232.5 C 27,241.874 34.626,249.5 44,249.5 L 220,249.5 C 229.375,249.5 237,241.874 237,232.5 L 237,32.5 C 237,23.126 229.375,15.5 220,15.5 L 44,15.5 z "
   style="opacity:0.2;stroke:none"
   id="path4079" />
      <path
   d="M 42,13.5 C 32.626,13.5 25,21.126 25,30.5 L 25,230.5 C 25,239.874 32.626,247.5 42,247.5 L 218,247.5 C 227.375,247.5 235,239.874 235,230.5 L 235,30.5 C 235,21.126 227.375,13.5 218,13.5 L 42,13.5 z "
   style="opacity:0.2;stroke:none"
   id="path4080" />
      <path
   d="M 40,12.5 C 30.626,12.5 23,20.126 23,29.5 L 23,229.5 C 23,238.874 30.626,246.5 40,246.5 L 216,246.5 C 225.375,246.5 233,238.874 233,229.5 L 233,29.5 C 233,20.126 225.375,12.5 216,12.5 L 40,12.5 z "
   style="opacity:0.2;stroke:none"
   id="path4081" />
      <linearGradient
   x1="128.9995"
   y1="11"
   x2="128.9995"
   y2="245.0005"
   id="XMLID_1_"
   gradientUnits="userSpaceOnUse">
        <stop
   style="stop-color:#494949;stop-opacity:1"
   offset="0"
   id="stop4083" />
        <stop
   style="stop-color:#000000;stop-opacity:1"
   offset="1"
   id="stop4084" />
        <a:midPointStop
   offset="0"
   style="stop-color:#494949"
   id="midPointStop4085" />
        <a:midPointStop
   offset="0.5"
   style="stop-color:#494949"
   id="midPointStop4086" />
        <a:midPointStop
   offset="1"
   style="stop-color:#000000"
   id="midPointStop4087" />
      </linearGradient>
      <path
   d="M 41,11 C 31.626,11 24,18.626 24,28 L 24,228 C 24,237.374 31.626,245 41,245 L 217,245 C 226.375,245 234,237.374 234,228 L 234,28 C 234,18.626 226.375,11 217,11 L 41,11 z "
   style="fill:url(#XMLID_1_);stroke:none"
   id="path4088" />
      <path
   d="M 28,228 C 28,234.627 33.373,240 40,240 L 216,240 C 222.627,240 228,234.627 228,228 L 228,28 C 228,21.373 222.627,16 216,16 L 40,16 C 33.373,16 28,21.373 28,28 L 28,228 z "
   style="fill:#ffffff;stroke:none"
   id="path4089" />
      <linearGradient
   x1="29.0532"
   y1="29.0532"
   x2="226.9471"
   y2="226.9471"
   id="XMLID_2_"
   gradientUnits="userSpaceOnUse">
        <stop
   style="stop-color:#ffffff;stop-opacity:1"
   offset="0"
   id="stop4091" />
        <stop
   style="stop-color:#dadada;stop-opacity:1"
   offset="1"
   id="stop4092" />
        <a:midPointStop
   offset="0"
   style="stop-color:#FFFFFF"
   id="midPointStop4093" />
        <a:midPointStop
   offset="0.5"
   style="stop-color:#FFFFFF"
   id="midPointStop4094" />
        <a:midPointStop
   offset="1"
   style="stop-color:#DADADA"
   id="midPointStop4095" />
      </linearGradient>
      <path
   d="M 40,21 C 36.14,21 33,24.14 33,28 L 33,228 C 33,231.859 36.14,235 40,235 L 216,235 C 219.859,235 223,231.859 223,228 L 223,28 C 223,24.14 219.859,21 216,21 L 40,21 z "
   style="fill:url(#XMLID_2_);stroke:none"
   id="path4096" />
      <path
   d="M 256,256 L 0,256 L 0,0 L 256,0 L 256,256 z "
   style="fill:none;stroke:none"
   id="path4097" />
    </g><g
   transform="matrix(1.653269,0.000000,0.000000,1.723862,-27.38092,-96.05968)"
   style="opacity:0.2;stroke:#000000"
   id="g4099">
        <path
   d="M 91.633,83.188 C 90.807,83.188 90.067,83.695 89.768,84.465 L 76.022,119.958 C 70.916,133.156 66.173,145.23 61.926,155.845 C 61.158,157.747 60.378,159.239 59.609,160.273 C 58.871,161.265 57.788,162.247 56.389,163.191 C 55.622,163.681 54.539,164.108 53.209,164.432 C 51.762,164.786 50.564,164.999 49.648,165.069 C 48.605,165.147 47.798,166.017 47.798,167.063 L 47.798,171.313 C 47.798,172.417 48.694,173.313 49.798,173.313 L 81.78,173.313 C 82.884,173.313 83.78,172.417 83.78,171.313 L 83.78,167.063 C 83.78,165.998 82.945,165.12 81.882,165.066 C 78.934,164.916 76.263,164.429 73.945,163.62 C 73.038,163.304 71.516,162.646 71.516,161.8 C 71.516,161.247 71.606,160.485 71.782,159.53 C 71.968,158.531 72.311,157.194 72.807,155.559 C 72.799,155.584 74.672,149.875 74.672,149.875 C 75.239,148.188 76,146.158 76.869,143.937 C 79.24,143.937 101.429,143.937 103.839,143.937 C 104.676,146.205 110.377,161.653 110.377,161.653 C 110.395,161.699 110.635,162.642 110.635,162.642 C 110.635,162.645 110.669,163.007 110.698,163.299 C 110.484,163.438 110.042,163.669 109.093,163.946 C 107.19,164.5 104.73,164.877 101.78,165.065 C 100.727,165.132 99.908,166.006 99.908,167.061 L 99.908,171.311 C 99.908,172.415 100.804,173.311 101.908,173.311 L 137.174,173.311 C 138.278,173.311 139.174,172.415 139.174,171.311 L 139.174,167.061 C 139.174,165.987 138.325,165.105 137.252,165.063 C 136.406,165.03 135.301,164.838 133.967,164.496 C 132.691,164.168 131.667,163.771 130.924,163.318 C 129.827,162.573 128.912,161.766 128.283,160.972 C 127.657,160.182 127.074,159.089 126.551,157.725 L 98.28,84.465 C 97.983,83.694 97.241,83.186 96.415,83.186 L 91.633,83.186 M 90.238,109.244 C 92.706,115.577 98.603,130.71 100.105,134.562 C 96.115,134.562 84.481,134.562 80.508,134.562 C 81.984,130.722 87.801,115.587 90.238,109.244 z "
   style="stroke:none"
   id="path4100" />
      </g><g
   transform="matrix(1.653269,0.000000,0.000000,1.723862,-27.38092,-96.05968)"
   style="opacity:0.2;stroke:#000000"
   id="g4103">
        <path
   d="M 90.633,82.188 C 89.807,82.188 89.067,82.695 88.768,83.465 L 75.022,118.958 C 69.916,132.156 65.173,144.23 60.926,154.845 C 60.158,156.747 59.378,158.239 58.609,159.273 C 57.871,160.265 56.788,161.247 55.389,162.191 C 54.622,162.681 53.539,163.108 52.209,163.432 C 50.762,163.786 49.564,163.999 48.648,164.069 C 47.605,164.147 46.798,165.017 46.798,166.063 L 46.798,170.313 C 46.798,171.417 47.694,172.313 48.798,172.313 L 80.78,172.313 C 81.884,172.313 82.78,171.417 82.78,170.313 L 82.78,166.063 C 82.78,164.998 81.945,164.12 80.882,164.066 C 77.934,163.916 75.263,163.429 72.945,162.62 C 72.038,162.304 70.516,161.646 70.516,160.8 C 70.516,160.247 70.606,159.485 70.782,158.53 C 70.968,157.531 71.311,156.194 71.807,154.559 C 71.799,154.584 73.672,148.875 73.672,148.875 C 74.239,147.188 75,145.158 75.869,142.937 C 78.24,142.937 100.429,142.937 102.839,142.937 C 103.676,145.205 109.377,160.653 109.377,160.653 C 109.395,160.699 109.635,161.642 109.635,161.642 C 109.635,161.645 109.669,162.007 109.698,162.299 C 109.484,162.438 109.042,162.669 108.093,162.946 C 106.19,163.5 103.73,163.877 100.78,164.065 C 99.727,164.132 98.908,165.006 98.908,166.061 L 98.908,170.311 C 98.908,171.415 99.804,172.311 100.908,172.311 L 136.174,172.311 C 137.278,172.311 138.174,171.415 138.174,170.311 L 138.174,166.061 C 138.174,164.987 137.325,164.105 136.252,164.063 C 135.406,164.03 134.301,163.838 132.967,163.496 C 131.691,163.168 130.667,162.771 129.924,162.318 C 128.827,161.573 127.912,160.766 127.283,159.972 C 126.657,159.182 126.074,158.089 125.551,156.725 L 97.28,83.465 C 96.983,82.694 96.241,82.186 95.415,82.186 L 90.633,82.186 M 89.238,108.244 C 91.706,114.577 97.603,129.71 99.105,133.562 C 95.115,133.562 83.481,133.562 79.508,133.562 C 80.984,129.722 86.801,114.587 89.238,108.244 z "
   style="stroke:none"
   id="path4104" />
      </g><path
   d="M 120.80645,43.897246 C 119.44085,43.897246 118.21743,44.771243 117.7231,46.098618 L 94.997283,107.28365 C 86.555696,130.03518 78.714247,150.8491 71.692818,169.14789 C 70.423107,172.42667 69.133558,174.99868 67.862195,176.78115 C 66.642083,178.49122 64.851595,180.18406 62.538673,181.81138 C 61.270616,182.65607 59.480126,183.39216 57.281281,183.95069 C 54.889001,184.56094 52.908387,184.92812 51.393992,185.04879 C 49.669635,185.18325 48.335447,186.68301 48.335447,188.48618 L 48.335447,195.81259 C 48.335447,197.71573 49.816776,199.26032 51.641983,199.26032 L 104.5168,199.26032 C 106.34201,199.26032 107.82333,197.71573 107.82333,195.81259 L 107.82333,188.48618 C 107.82333,186.65026 106.44286,185.13671 104.68544,185.04362 C 99.811605,184.78505 95.395723,183.94552 91.563446,182.55092 C 90.063931,182.00617 87.547658,180.87188 87.547658,179.41348 C 87.547658,178.4602 87.69645,177.14661 87.987426,175.50032 C 88.294934,173.77818 88.862005,171.47338 89.682025,168.65486 C 89.6688,168.69796 92.765371,158.85643 92.765371,158.85643 C 93.702774,155.94828 94.96091,152.44884 96.397604,148.62014 C 100.3175,148.62014 137.00186,148.62014 140.98624,148.62014 C 142.37003,152.52986 151.7953,179.16008 151.7953,179.16008 C 151.82507,179.23938 152.22184,180.86498 152.22184,180.86498 C 152.22184,180.87015 152.27805,181.49419 152.326,181.99755 C 151.9722,182.23718 151.24146,182.63539 149.67251,183.11289 C 146.52635,184.06792 142.45929,184.7178 137.58215,185.04189 C 135.84126,185.15739 134.48724,186.66405 134.48724,188.48273 L 134.48724,195.80913 C 134.48724,197.71228 135.96857,199.25686 137.79378,199.25686 L 196.09792,199.25686 C 197.92313,199.25686 199.40446,197.71228 199.40446,195.80913 L 199.40446,188.48273 C 199.40446,186.63129 198.00084,185.11085 196.22688,185.03845 C 194.82821,184.98156 193.00135,184.65058 190.79589,184.06102 C 188.68634,183.4956 186.99338,182.81122 185.765,182.03031 C 183.95137,180.74604 182.43862,179.35488 181.39872,177.98613 C 180.36378,176.62428 179.39991,174.74009 178.53526,172.38875 L 131.79572,46.098618 C 131.3047,44.769521 130.07798,43.893798 128.71237,43.893798 L 120.80645,43.893798 M 118.50014,88.8142 C 122.5804,99.731421 132.32973,125.81861 134.81292,132.45893 C 128.2164,132.45893 108.98227,132.45893 102.41385,132.45893 C 104.85406,125.83929 114.47112,99.748654 118.50014,88.8142 z "
   style="stroke:none"
   id="path4107" /><path
   d="M 194.44466,194.08873 L 136.14051,194.08873 L 136.14051,186.76231 C 141.28052,186.41927 145.54925,185.73144 148.94342,184.70231 C 152.33758,183.67314 154.03547,182.39922 154.03547,180.88394 C 154.03547,180.26852 153.96769,179.51348 153.83874,178.61879 C 153.70648,177.72238 153.50975,176.93113 153.24852,176.24503 L 141.64093,143.452 L 92.484315,143.452 C 90.637614,148.26674 89.136447,152.45918 87.982467,156.03447 C 86.826833,159.60976 85.790234,162.90924 84.866057,165.93289 C 84.006357,168.88931 83.412834,171.29582 83.083834,173.15243 C 82.754833,175.01074 82.589507,176.52258 82.589507,177.69135 C 82.589507,180.44263 84.666011,182.57333 88.822327,184.08515 C 92.975336,185.59698 97.657395,186.48995 102.86518,186.76576 L 102.86518,194.09217 L 49.990368,194.09217 L 49.990368,186.76576 C 51.704808,186.63129 53.845789,186.23308 56.413315,185.57974 C 58.980841,184.9264 61.088756,184.04723 62.735411,182.94741 C 65.370721,181.09253 67.410853,179.14974 68.860769,177.11903 C 70.307378,175.09177 71.724229,172.28704 73.109669,168.7083 C 80.155897,150.34572 87.927909,129.71282 96.42736,106.80786 C 104.9268,83.902916 112.50209,63.509625 119.15317,45.624556 L 127.05744,45.624556 L 173.79534,171.90779 C 174.78399,174.59185 175.89995,176.75874 177.15312,178.40847 C 178.4063,180.05821 180.15051,181.6752 182.39069,183.25771 C 183.90507,184.22133 185.88072,185.0281 188.3193,185.68145 C 190.75457,186.33479 192.798,186.69853 194.44466,186.76576 L 194.44466,194.08873 M 137.99713,134.18451 L 116.82372,77.540143 L 95.947911,134.18451 L 137.99713,134.18451 z "
   style="fill:url(#XMLID_3_);stroke:none"
   id="path4114" />
<rect
   width="181.6349"
   height="21.059124"
   rx="9.6520967"
   ry="9.6520967"
   x="34.221111"
   y="106.39245"
   style="opacity:1;color:#000000;fill:#000000;fill-opacity:1;fill-rule:nonzero;stroke:none;stroke-width:1;stroke-linecap:butt;stroke-linejoin:miter;marker:none;marker-start:none;marker-mid:none;marker-end:none;stroke-miterlimit:4;stroke-dasharray:none;stroke-dashoffset:0;stroke-opacity:1;overflow:visible"
   id="rect1380" /></svg>