<?xml version="1.0" encoding="UTF-8" standalone="no"?>
<!DOCTYPE svg PUBLIC "-//W3C//DTD SVG 20010904//EN"
"http://www.w3.org/TR/2001/REC-SVG-20010904/DTD/svg10.dtd"
[
 <!ATTLIST svg
  xmlns:xlink CDATA #FIXED "http://www.w3.org/1999/xlink">
]>
<!-- Created with Sodipodi ("http://www.sodipodi.com/") -->
<svg
   xmlns="http://www.w3.org/2000/svg"
   xmlns:xlink="http://www.w3.org/1999/xlink"
   version="1"
   x="0.00000000"
   y="0.00000000"
   width="60.0000000"
   height="60.0000000"
   viewBox="0 0 256 256"
   id="svg153">
  <defs
     id="defs250" />
  <g
     transform="translate(-0.815282,7.337578)"
     style="font-size:12;stroke:#000000;"
     id="Layer_2">
    <path
       d="M 81.93 90.136 C 81.93 90.136 81.93 90.136 81.93 90.136 C 79.448 90.362 77.4 92.231 76.952 94.684 C 76.952 94.684 76.862 95.189 76.748 95.819 C 55.725 98.175 42.593 101.748 37.87 106.471 C 28.338 116.002 26.915 139.029 26.915 151.908 C 26.915 173.894 31.012 200.733 37.87 207.591 C 45.322 215.043 106.178 215.8 131.996 215.779 C 152.122 215.763 218.375 215.126 225.908 207.591 C 232.69 200.809 236.887 173.215 236.887 151.539 C 236.887 138.809 235.462 116.025 225.908 106.472 C 221.138 101.703 208.033 98.116 187.105 95.772 C 187.019 95.287 186.905 94.646 186.905 94.646 C 186.464 92.186 184.414 90.31 181.922 90.086 C 151.636 87.355 112.386 87.375 81.93 90.136 z "
       style="opacity:0.2;stroke:none;"
       id="path157" />
    <linearGradient
       x1="122.986801"
       y1="69.0000000"
       x2="122.986801"
       y2="219.500000"
       id="XMLID_1_"
       gradientUnits="userSpaceOnUse"
       spreadMethod="pad">
      <stop
         style="stop-color:#666666;stop-opacity:1;"
         offset="0.00000000"
         id="stop159" />
      <stop
         style="stop-color:#333333;stop-opacity:1;"
         offset="1.00000000"
         id="stop160" />
      <a:midPointStop
         offset="0"
         style="stop-color:#666666"
         id="midPointStop161" />
      <a:midPointStop
         offset="0.5"
         style="stop-color:#666666"
         id="midPointStop162" />
      <a:midPointStop
         offset="1"
         style="stop-color:#333333"
         id="midPointStop163" />
    </linearGradient>
    <path
       d="M 72.834 79.229 C 69.574 79.524 66.911 81.928 66.182 85.095 C 45.215 87.544 32.526 91.155 27.54 96.142 C 17.499 106.183 16 129.805 16 142.992 C 16 165.078 20.044 192.595 27.541 200.089 C 34.849 207.399 83.531 208.895 123.083 208.863 C 155.435 208.837 210.837 207.661 218.408 200.089 C 226.386 192.113 229.974 161.684 229.974 142.623 C 229.974 129.583 228.471 106.205 218.408 96.142 C 213.378 91.111 200.714 87.484 179.842 85.047 C 179.115 81.874 176.454 79.471 173.188 79.178 C 142.79 76.438 103.399 76.458 72.834 79.229 z "
       style="fill:url(#XMLID_1_);stroke:none;"
       id="path164" />
    <path
       d="M 73.015 81.221 C 73.015 81.221 73.015 81.221 73.015 81.221 C 70.533 81.446 68.485 83.316 68.037 85.768 C 68.037 85.769 67.947 86.273 67.833 86.903 C 46.81 89.26 33.678 92.833 28.955 97.556 C 19.423 107.087 18 130.114 18 142.992 C 18 164.978 22.097 191.818 28.955 198.675 C 36.407 206.127 97.263 206.884 123.081 206.863 C 143.207 206.846 209.46 206.209 216.994 198.675 C 223.777 191.894 227.974 164.299 227.974 142.623 C 227.974 129.893 226.548 107.11 216.994 97.556 C 212.225 92.787 199.119 89.199 178.191 86.856 C 178.105 86.371 177.991 85.73 177.991 85.73 C 177.55 83.27 175.501 81.394 173.009 81.17 C 142.721 78.44 103.471 78.46 73.015 81.221 z "
       style="fill:url(#XMLID_1_);stroke:none;"
       id="path165" />
    <linearGradient
       x1="122.984901"
       y1="140.036102"
       x2="122.984901"
       y2="195.753601"
       id="XMLID_3_"
       gradientUnits="userSpaceOnUse"
       spreadMethod="pad">
      <stop
         style="stop-color:#d9d9d9;stop-opacity:1;"
         offset="0.00000000"
         id="stop167" />
      <stop
         style="stop-color:#999999;stop-opacity:1;"
         offset="1.00000000"
         id="stop168" />
      <a:midPointStop
         offset="0"
         style="stop-color:#D9D9D9"
         id="midPointStop169" />
      <a:midPointStop
         offset="0.5"
         style="stop-color:#D9D9D9"
         id="midPointStop170" />
      <a:midPointStop
         offset="1"
         style="stop-color:#999999"
         id="midPointStop171" />
    </linearGradient>
    <path
       d="M 31.318 196.312 C 41.068 206.063 205.157 205.784 214.629 196.312 C 224.102 186.84 231.345 116.635 214.629 99.92 C 197.914 83.204 47.755 83.483 31.318 99.92 C 14.882 116.356 21.568 186.561 31.318 196.312 z "
       style="fill:url(#XMLID_3_);stroke:none;"
       id="path172" />
    <linearGradient
       x1="122.992203"
       y1="162.459000"
       x2="122.992203"
       y2="16.3572006"
       id="XMLID_4_"
       gradientUnits="userSpaceOnUse"
       spreadMethod="pad">
      <stop
         style="stop-color:#f7f7f7;stop-opacity:1;"
         offset="0.00000000"
         id="stop174" />
      <stop
         style="stop-color:#bfbfbf;stop-opacity:1;"
         offset="1.00000000"
         id="stop175" />
      <a:midPointStop
         offset="0"
         style="stop-color:#F7F7F7"
         id="midPointStop176" />
      <a:midPointStop
         offset="0.5"
         style="stop-color:#F7F7F7"
         id="midPointStop177" />
      <a:midPointStop
         offset="1"
         style="stop-color:#BFBFBF"
         id="midPointStop178" />
    </linearGradient>
    <path
       d="M 122.985 158.98 C 163.483 158.98 199.806 151.072 224.522 138.554 C 223.956 122.111 221.075 107.129 214.629 100.423 C 197.914 83.03 47.755 83.32 31.318 100.423 C 24.953 107.047 22.057 122.06 21.462 138.56 C 46.178 151.074 82.495 158.98 122.985 158.98 z "
       style="fill:url(#XMLID_4_);stroke:none;"
       id="path179" />
    <linearGradient
       x1="122.992203"
       y1="159.537094"
       x2="122.992203"
       y2="19.1291008"
       id="XMLID_5_"
       gradientUnits="userSpaceOnUse"
       spreadMethod="pad">
      <stop
         style="stop-color:#f7f7f7;stop-opacity:1;"
         offset="0.00000000"
         id="stop181" />
      <stop
         style="stop-color:#bfbfbf;stop-opacity:1;"
         offset="1.00000000"
         id="stop182" />
      <a:midPointStop
         offset="0"
         style="stop-color:#F7F7F7"
         id="midPointStop183" />
      <a:midPointStop
         offset="0.5"
         style="stop-color:#F7F7F7"
         id="midPointStop184" />
      <a:midPointStop
         offset="1"
         style="stop-color:#BFBFBF"
         id="midPointStop185" />
    </linearGradient>
    <path
       d="M 122.985 156.194 C 163.483 156.194 199.806 148.594 224.522 136.563 C 223.956 120.762 221.075 106.364 214.629 99.919 C 197.914 83.203 47.755 83.482 31.318 99.919 C 24.953 106.284 22.057 120.712 21.462 136.569 C 46.178 148.597 82.495 156.194 122.985 156.194 z "
       style="fill:url(#XMLID_5_);stroke:none;"
       id="path186" />
    <path
       d="M 55 189.068 L 190.952 189.068 L 190.952 165.667 L 55 165.667 L 55 189.068 z "
       style="opacity:0.8;fill:#ffffff;stroke:none;"
       id="path187" />
    <path
       d="M 190.951 165.667 L 190.951 189.068 C 192.701 189.068 193.925 189.068 194.497 189.068 C 194.497 183.311 190.951 165.667 190.951 165.667 z M 51.488 189.068 C 52.127 189.068 53.335 189.068 55 189.068 L 55 165.667 C 55 165.667 51.488 183.311 51.488 189.068 z "
       style="fill:#7f7f7f;stroke:none;"
       id="path188" />
    <path
       d="M 55 186.282 L 190.952 186.282 L 190.952 165.667 L 55 165.667 L 55 186.282 z "
       style="stroke:none;"
       id="path189" />
    <path
       d="M 172.609 103.263 C 188.799 103.263 204.346 104.284 218.819 106.154 C 217.632 103.646 216.243 101.534 214.629 99.92 C 197.914 83.204 47.755 83.483 31.318 99.92 C 24.953 106.285 22.057 120.713 21.462 136.57 C 26.037 138.797 31.012 140.87 36.336 142.772 C 51.51 120.082 106.762 103.263 172.609 103.263 z "
       style="opacity:0.5;fill:#ffffff;stroke:none;"
       id="path190" />
    <g
       id="g191">
      <path
         d="M 203.518 107.047 C 199.108 107.42 194.329 110.849 192.846 114.708 C 191.363 118.567 193.736 121.395 198.147 121.022 C 202.556 120.65 207.335 117.219 208.819 113.36 C 210.301 109.5 207.93 106.673 203.518 107.047 z "
         style="fill:#009900;stroke:none;"
         id="path192" />
      <linearGradient
         x1="146.236298"
         y1="97.3461990"
         x2="147.116302"
         y2="102.625900"
         id="XMLID_6_"
         gradientUnits="userSpaceOnUse"
         gradientTransform="matrix(0.707100,-0.707100,0.707100,0.707100,28.55470,148.5771)"
         spreadMethod="pad">
        <stop
           style="stop-color:#99ff66;stop-opacity:1;"
           offset="0.00000000"
           id="stop194" />
        <stop
           style="stop-color:#33cc33;stop-opacity:1;"
           offset="1.00000000"
           id="stop195" />
        <a:midPointStop
           offset="0"
           style="stop-color:#99FF66"
           id="midPointStop196" />
        <a:midPointStop
           offset="0.5"
           style="stop-color:#99FF66"
           id="midPointStop197" />
        <a:midPointStop
           offset="1"
           style="stop-color:#33CC33"
           id="midPointStop198" />
      </linearGradient>
      <path
         d="M 203.135 108.043 C 200.371 108.277 196.297 111.1 194.977 114.528 C 193.659 117.957 195.763 120.257 198.529 120.023 C 201.295 119.789 205.374 116.966 206.69 113.539 C 208.005 110.111 205.9 107.812 203.135 108.043 z "
         style="fill:url(#XMLID_6_);stroke:none;"
         id="path199" />
      <linearGradient
         x1="147.625000"
         y1="93.3149033"
         x2="147.625000"
         y2="97.4478989"
         id="XMLID_7_"
         gradientUnits="userSpaceOnUse"
         gradientTransform="matrix(0.707100,-0.707100,0.707100,0.707100,28.55470,148.5771)"
         spreadMethod="pad">
        <stop
           style="stop-color:#ffffff;stop-opacity:1;"
           offset="0.00000000"
           id="stop201" />
        <stop
           style="stop-color:#99ff66;stop-opacity:1;"
           offset="1.00000000"
           id="stop202" />
        <a:midPointStop
           offset="0"
           style="stop-color:#FFFFFF"
           id="midPointStop203" />
        <a:midPointStop
           offset="0.5"
           style="stop-color:#FFFFFF"
           id="midPointStop204" />
        <a:midPointStop
           offset="1"
           style="stop-color:#99FF66"
           id="midPointStop205" />
      </linearGradient>
      <path
         d="M 203.156 107.966 C 200.804 108.177 197.288 110.589 196.093 113.504 C 195.871 114.046 195.75 114.554 195.719 115.022 C 197.362 114.594 199.076 113.991 200.688 113.235 C 203.609 111.865 205.488 110.337 205.943 109.142 C 205.367 108.301 204.339 107.859 203.156 107.966 z "
         style="fill:url(#XMLID_7_);stroke:none;"
         id="path206" />
    </g>
    <path
       d="M 224.511 136.37 C 224.441 134.478 224.341 132.604 224.201 130.766 C 224.341 132.605 224.44 134.479 224.511 136.37 z "
       style="fill:#ffffff;stroke:none;"
       id="path207" />
    <path
       d="M 224.511 136.37 C 224.513 136.435 224.515 136.501 224.517 136.566 C 224.519 136.565 224.521 136.565 224.522 136.563 C 224.52 136.499 224.513 136.436 224.511 136.37 z "
       style="fill:#ffffff;stroke:none;"
       id="path208" />
    <path
       d="M 184.434 149.895 C 181.822 130.997 178.032 104.784 174.702 86.324 C 174.524 85.337 173.708 84.59 172.709 84.5 C 142.605 81.786 103.592 81.806 73.318 84.55 C 72.321 84.64 71.506 85.385 71.326 86.37 C 67.956 104.838 64.048 131.001 61.34 149.852 C 79.817 153.902 100.769 156.194 122.985 156.194 C 145.122 156.194 166.006 153.919 184.434 149.895 z "
       style="fill:#ffffff;stroke:none;"
       id="path209" />
    <linearGradient
       x1="63.4878006"
       y1="120.199203"
       x2="182.283203"
       y2="120.199203"
       id="XMLID_8_"
       gradientUnits="userSpaceOnUse"
       spreadMethod="pad">
      <stop
         style="stop-color:#666666;stop-opacity:1;"
         offset="0.00000000"
         id="stop211" />
      <stop
         style="stop-color:#333333;stop-opacity:1;"
         offset="1.00000000"
         id="stop212" />
      <a:midPointStop
         offset="0"
         style="stop-color:#666666"
         id="midPointStop213" />
      <a:midPointStop
         offset="0.5"
         style="stop-color:#666666"
         id="midPointStop214" />
      <a:midPointStop
         offset="1"
         style="stop-color:#333333"
         id="midPointStop215" />
    </linearGradient>
    <path
       d="M 73.519 86.755 C 70.024 105.775 65.916 133.31 63.488 150.109 C 81.552 153.69 101.716 155.694 122.989 155.694 C 144.182 155.694 164.273 153.706 182.283 150.151 C 179.945 133.342 175.968 105.748 172.508 86.705 C 142.41 84.011 103.62 84.046 73.519 86.755 z "
       style="fill:url(#XMLID_8_);stroke:none;"
       id="path216" />
    <path
       d="M 170.625 127.778 L 75.348 127.778 L 75.348 13 L 170.625 13 L 170.625 127.778 z "
       style="fill:#333333;stroke:none;"
       id="path217" />
    <linearGradient
       x1="67.3026962"
       y1="70.3891983"
       x2="233.341400"
       y2="70.3891983"
       id="XMLID_9_"
       gradientUnits="userSpaceOnUse"
       spreadMethod="pad">
      <stop
         style="stop-color:#ffffff;stop-opacity:1;"
         offset="0.00000000"
         id="stop219" />
      <stop
         style="stop-color:#e6eef6;stop-opacity:1;"
         offset="1.00000000"
         id="stop220" />
      <a:midPointStop
         offset="0"
         style="stop-color:#FFFFFF"
         id="midPointStop221" />
      <a:midPointStop
         offset="0.5"
         style="stop-color:#FFFFFF"
         id="midPointStop222" />
      <a:midPointStop
         offset="1"
         style="stop-color:#E6EEF6"
         id="midPointStop223" />
    </linearGradient>
    <path
       d="M 78.577 16.229 C 78.577 18.175 78.577 122.604 78.577 124.55 C 80.512 124.55 165.462 124.55 167.397 124.55 C 167.397 122.604 167.397 18.175 167.397 16.229 C 165.462 16.229 80.511 16.229 78.577 16.229 z "
       style="fill:url(#XMLID_9_);stroke:none;"
       id="path224" />
    <linearGradient
       x1="123.000000"
       y1="189.112305"
       x2="123.000000"
       y2="232.007294"
       id="XMLID_10_"
       gradientUnits="userSpaceOnUse"
       spreadMethod="pad">
      <stop
         style="stop-color:#666666;stop-opacity:1;"
         offset="0.00000000"
         id="stop226" />
      <stop
         style="stop-color:#333333;stop-opacity:1;"
         offset="1.00000000"
         id="stop227" />
      <a:midPointStop
         offset="0"
         style="stop-color:#666666"
         id="midPointStop228" />
      <a:midPointStop
         offset="0.5"
         style="stop-color:#666666"
         id="midPointStop229" />
      <a:midPointStop
         offset="1"
         style="stop-color:#333333"
         id="midPointStop230" />
    </linearGradient>
    <path
       d="M 191.158 226.278 L 54.842 226.278 L 72.655 176.547 L 173.319 176.547 L 191.158 226.278 z "
       style="fill:url(#XMLID_10_);stroke:none;"
       id="path231" />
    <linearGradient
       x1="44.4511986"
       y1="199.873993"
       x2="279.341888"
       y2="199.873993"
       id="XMLID_11_"
       gradientUnits="userSpaceOnUse"
       spreadMethod="pad">
      <stop
         style="stop-color:#ffffff;stop-opacity:1;"
         offset="0.00000000"
         id="stop233" />
      <stop
         style="stop-color:#e6eef6;stop-opacity:1;"
         offset="1.00000000"
         id="stop234" />
      <a:midPointStop
         offset="0"
         style="stop-color:#FFFFFF"
         id="midPointStop235" />
      <a:midPointStop
         offset="0.5"
         style="stop-color:#FFFFFF"
         id="midPointStop236" />
      <a:midPointStop
         offset="1"
         style="stop-color:#E6EEF6"
         id="midPointStop237" />
    </linearGradient>
    <path
       d="M 76.064 177.494 C 76.064 179.197 58.985 220.549 58.985 222.254 C 63.274 222.254 183.177 222.254 187.465 222.254 C 187.465 220.549 169.922 179.197 169.922 177.494 C 165.635 177.494 80.353 177.494 76.064 177.494 z "
       style="fill:url(#XMLID_11_);stroke:none;"
       id="path238" />
    <path
       d="M 75.442 101.381 C 72.084 115.46 68.135 135.839 65.802 148.275 C 83.162 150.926 102.54 152.41 122.985 152.41 C 143.351 152.41 162.659 150.938 179.969 148.306 C 177.722 135.866 173.899 115.44 170.574 101.346 C 141.65 99.35 104.371 99.375 75.442 101.381 z "
       style="fill:#666666;stroke:none;"
       id="path239" />
    <linearGradient
       x1="122.885300"
       y1="104.934097"
       x2="122.885300"
       y2="153.965393"
       id="XMLID_12_"
       gradientUnits="userSpaceOnUse"
       spreadMethod="pad">
      <stop
         style="stop-color:#f7f7f7;stop-opacity:1;"
         offset="0.00000000"
         id="stop241" />
      <stop
         style="stop-color:#d9d9d9;stop-opacity:1;"
         offset="1.00000000"
         id="stop242" />
      <a:midPointStop
         offset="0"
         style="stop-color:#F7F7F7"
         id="midPointStop243" />
      <a:midPointStop
         offset="0.5"
         style="stop-color:#F7F7F7"
         id="midPointStop244" />
      <a:midPointStop
         offset="1"
         style="stop-color:#D9D9D9"
         id="midPointStop245" />
    </linearGradient>
    <path
       d="M 75.442 104.626 C 72.084 118.854 68.135 139.45 65.802 152.017 C 83.162 154.697 102.54 156.195 122.985 156.195 C 143.351 156.195 162.659 154.708 179.969 152.048 C 177.722 139.476 173.899 118.834 170.574 104.59 C 141.65 102.573 104.371 102.599 75.442 104.626 z "
       style="fill:url(#XMLID_12_);stroke:none;"
       id="path246" />
    <path
       d="M 170.938 110.506 C 171.262 110.506 171.584 110.511 171.908 110.513 C 171.459 108.451 171.012 106.462 170.575 104.589 C 141.651 102.573 104.371 102.6 75.443 104.627 C 72.243 118.184 68.51 137.507 66.147 150.172 C 81.678 127.036 122.731 110.506 170.938 110.506 z "
       style="opacity:0.4;fill:#ffffff;stroke:none;"
       id="path247" />
    <path
       d="M 172.282 184.001 C 170.854 180.384 169.923 177.885 169.923 177.494 C 165.635 177.494 80.353 177.494 76.064 177.494 C 76.064 177.885 75.156 180.384 73.767 184.001 L 172.282 184.001 z "
       style="fill:#bfbfbf;stroke:none;"
       id="path248" />
  </g>
  <g
     transform="matrix(1.233530,0.000000,0.000000,1.211570,5.850576,-8.133430)"
     style="font-size:12;stroke:#000000;"
     id="g170">
    <g
       id="g171">
      <path
         d="M 7.841 176.921 L 50.458 134.306 C 52.647 132.117 56.197 132.117 58.386 134.306 L 58.882 134.801 L 64.506 129.178 C 55.487 120.071 49.913 107.545 49.913 93.716 C 49.913 65.88 72.478 43.315 100.315 43.315 C 128.149 43.315 150.715 65.88 150.715 93.716 C 150.715 121.551 128.15 144.116 100.315 144.116 C 88.328 144.116 77.325 139.925 68.674 132.937 L 62.846 138.764 L 63.343 139.26 C 65.532 141.449 65.532 144.999 63.343 147.188 L 20.726 189.805 C 18.536 191.993 14.987 191.993 12.798 189.805 L 7.841 184.85 C 5.652 182.66 5.652 179.11 7.841 176.921 z "
         style="opacity:0.2;stroke:none;"
         id="path401" />
      <path
         d="M 97.039 99.328 L 55.414 140.953 L 51.449 136.99 L 93.074 95.365 L 97.039 99.328 z "
         style="stroke:none;"
         id="path173" />
      <path
         d="M 63.343 134.017 C 65.532 136.206 65.532 139.756 63.343 141.945 L 20.726 184.562 C 18.536 186.75 14.987 186.75 12.798 184.562 L 7.841 179.607 C 5.652 177.417 5.652 173.867 7.841 171.678 L 50.458 129.062 C 52.647 126.873 56.197 126.873 58.386 129.062 L 63.343 134.017 z "
         style="fill:#993300;stroke:none;"
         id="path174" />
      <linearGradient
         x1="215.620102"
         y1="163.117203"
         x2="225.431503"
         y2="151.904205"
         id="XMLID_2_"
         gradientUnits="userSpaceOnUse"
         gradientTransform="matrix(-0.999900,1.200000e-2,1.200000e-2,0.999900,254.7392,-2.736000)"
         spreadMethod="pad">
        <stop
           style="stop-color:#ff9900;stop-opacity:1;"
           offset="0.00000000"
           id="stop176" />
        <stop
           style="stop-color:#ffcc66;stop-opacity:1;"
           offset="1.00000000"
           id="stop177" />
        <a:midPointStop
           offset="0"
           style="stop-color:#FF9900"
           id="midPointStop407" />
        <a:midPointStop
           offset="0.5"
           style="stop-color:#FF9900"
           id="midPointStop179" />
        <a:midPointStop
           offset="1"
           style="stop-color:#FFCC66"
           id="midPointStop180" />
      </linearGradient>
      <path
         d="M 52.13 130.843 C 53.21 129.738 54.988 129.716 56.094 130.796 L 61.109 135.692 C 62.214 136.771 62.235 138.549 61.157 139.655 L 19.054 182.779 C 17.974 183.885 16.196 183.907 15.09 182.827 L 10.075 177.931 C 8.968 176.852 8.947 175.073 10.028 173.967 L 52.13 130.843 z "
         style="fill:url(#XMLID_2_);stroke:none;"
         id="path181" />
      <path
         d="M 150.715 88.472 C 150.715 116.307 128.15 138.872 100.315 138.872 C 72.478 138.872 49.913 116.307 49.913 88.472 C 49.913 60.637 72.478 38.071 100.315 38.071 C 128.149 38.071 150.715 60.636 150.715 88.472 z "
         style="fill:#333333;stroke:none;"
         id="path182" />
      <path
         d="M 147.142 88.472 C 147.142 114.292 126.135 135.299 100.315 135.299 C 74.493 135.299 53.487 114.292 53.487 88.472 C 53.487 62.651 74.493 41.645 100.315 41.645 C 126.134 41.645 147.142 62.651 147.142 88.472 z "
         style="fill:#cccccc;stroke:none;"
         id="path183" />
      <path
         d="M 142.937 88.472 C 142.937 111.975 123.817 131.094 100.315 131.094 C 76.813 131.094 57.692 111.975 57.692 88.472 C 57.692 64.97 76.813 45.849 100.315 45.849 C 123.816 45.849 142.937 64.969 142.937 88.472 z "
         style="fill:#003366;stroke:none;"
         id="path184" />
      <linearGradient
         x1="116.866203"
         y1="88.4717026"
         x2="196.505905"
         y2="88.4717026"
         id="linearGradient414"
         gradientUnits="userSpaceOnUse"
         gradientTransform="matrix(-1.000000,0.000000,0.000000,1.000000,257.0000,0.000000)"
         spreadMethod="pad">
        <stop
           style="stop-color:#ffffff;stop-opacity:1;"
           offset="0.00000000"
           id="stop186" />
        <stop
           style="stop-color:#cbd5e8;stop-opacity:1;"
           offset="1.00000000"
           id="stop187" />
        <a:midPointStop
           offset="0"
           style="stop-color:#FFFFFF"
           id="midPointStop188" />
        <a:midPointStop
           offset="0.5"
           style="stop-color:#FFFFFF"
           id="midPointStop189" />
        <a:midPointStop
           offset="1"
           style="stop-color:#CBD5E8"
           id="midPointStop190" />
      </linearGradient>
      <path
         d="M 140.134 88.472 C 140.134 110.428 122.271 128.291 100.315 128.291 C 78.357 128.291 60.494 110.428 60.494 88.472 C 60.494 66.516 78.357 48.653 100.315 48.653 C 122.271 48.652 140.134 66.516 140.134 88.472 z "
         style="fill:url(#XMLID_3_);stroke:none;"
         id="path191" />
    </g>
    <path
       d="M 138.386 88.472 C 138.386 94.065 137.164 99.373 134.989 104.161 C 133.554 103.659 132.212 102.94 131.008 101.908 C 111.704 88.849 95.718 69.155 76.103 59.112 C 82.689 53.672 91.127 50.4 100.316 50.4 C 121.307 50.4 138.386 67.479 138.386 88.472 z "
       style="fill:#ffffff;stroke:none;"
       id="path421" />
  </g>
</svg>
