<?xml version="1.0" encoding="UTF-8" standalone="no"?>
<!DOCTYPE svg PUBLIC "-//W3C//DTD SVG 1.0//EN"
"http://www.w3.org/TR/2001/REC-SVG-20010904/DTD/svg10.dtd">
<!-- Created with Inkscape (http://www.inkscape.org/) -->
<svg
   xmlns="http://www.w3.org/2000/svg"
   xmlns:xlink="http://www.w3.org/1999/xlink"
   version="1.0"
   x="0.0000000"
   y="0.0000000"
   width="60.000000"
   height="60.000000"
   viewBox="0 0 256 256"
   id="svg153"
   xml:space="preserve">
  <defs
     id="defs192" />
  <g
     style="stroke:#000000;"
     id="Layer_2">
    <path
       d="M 256.00000,256.00000 L 0.0000000,256.00000 L 0.0000000,0.0000000 L 256.00000,0.0000000 L 256.00000,256.00000 z "
       style="fill:none;stroke:none;"
       id="path155" />
  </g>
  <g
     style="stroke:#000000;"
     id="Layer_1">
    <path
       d="M 50.867000,22.925000 C 41.930000,22.925000 34.660000,30.195000 34.660000,39.132000 L 34.660000,229.79300 C 34.660000,238.73000 41.930000,246.00000 50.867000,246.00000 L 218.65000,246.00000 C 227.58700,246.00000 234.85600,238.72900 234.85600,229.79300 L 234.85600,39.132000 C 234.85600,30.195000 227.58600,22.925000 218.65000,22.925000 L 50.867000,22.925000 L 50.867000,22.925000 z "
       style="opacity:0.20000000;stroke:none;"
       id="path157" />
    <path
       d="M 43.970000,16.206000 C 35.033000,16.206000 27.763000,23.476000 27.763000,32.412000 L 27.763000,223.07500 C 27.763000,232.01100 35.033000,239.28100 43.970000,239.28100 L 211.75300,239.28100 C 220.68900,239.28100 227.95900,232.01000 227.95900,223.07500 L 227.95900,32.412000 C 227.95900,23.476000 220.68800,16.206000 211.75300,16.206000 L 43.970000,16.206000 z "
       style="fill:#003366;stroke:none;"
       id="path158" />
    <path
       d="M 32.530000,223.07400 C 32.530000,229.39100 37.652000,234.51300 43.970000,234.51300 L 211.75300,234.51300 C 218.06900,234.51300 223.19200,229.39100 223.19200,223.07400 L 223.19200,32.412000 C 223.19200,26.094000 218.06900,20.972000 211.75300,20.972000 L 43.970000,20.972000 C 37.652000,20.972000 32.530000,26.094000 32.530000,32.412000 L 32.530000,223.07400 z "
       style="fill:#3399ff;stroke:none;"
       id="path159" />
    <linearGradient
       x1="86.394997"
       y1="86.276398"
       x2="312.32861"
       y2="312.20990"
       id="XMLID_1_"
       gradientUnits="userSpaceOnUse">
      <stop
         style="stop-color:#ffffff;stop-opacity:1.0000000;"
         offset="0.0000000"
         id="stop161" />
      <stop
         style="stop-color:#99ccff;stop-opacity:1.0000000;"
         offset="1.0000000"
         id="stop162" />
    </linearGradient>
    <path
       d="M 43.970000,25.739000 C 40.291000,25.739000 37.297000,28.733000 37.297000,32.412000 L 37.297000,223.07500 C 37.297000,226.75400 40.291000,229.74800 43.970000,229.74800 L 211.75300,229.74800 C 215.43200,229.74800 218.42600,226.75400 218.42600,223.07500 L 218.42600,32.412000 C 218.42600,28.733000 215.43200,25.739000 211.75300,25.739000 L 43.970000,25.739000 L 43.970000,25.739000 z "
       style="fill:url(#XMLID_1_);stroke:none;"
       id="path166" />
    <path
       d="M 161.22800,106.77000 C 178.95200,90.153000 200.25400,81.978000 223.19300,77.918000 L 223.19300,32.412000 C 223.19300,26.094000 218.07000,20.972000 211.75400,20.972000 L 43.970000,20.972000 C 37.652000,20.972000 32.530000,26.094000 32.530000,32.412000 L 32.530000,168.99000 C 79.797000,172.55700 124.50300,139.66800 161.22800,106.77000 z "
       style="opacity:0.40000001;fill:#ffffff;stroke:none;"
       id="path167" />
    <path
       d="M 199.46600,44.370000 L 174.48000,31.817000 L 118.37800,143.47900 C 118.37800,143.47900 118.90200,143.74300 119.46200,144.02400 C 130.19400,141.34100 141.08000,146.03900 144.75500,155.42900 C 144.95900,155.94700 145.12900,156.47000 145.28000,156.99500 C 145.82400,157.26800 146.30700,157.51200 146.30700,157.51200 L 202.41100,45.850000 L 199.46600,44.370000 z "
       style="fill:#cc6633;stroke:none;"
       id="path168" />
    <path
       d="M 249.92200,236.82700 L 201.16100,188.06700 C 198.65600,185.56200 194.59500,185.56200 192.09000,188.06700 L 191.52300,188.63400 L 185.08800,182.19900 C 195.40700,171.77900 201.78500,157.44800 201.78500,141.62500 C 201.78500,109.77700 175.96700,83.958000 144.11700,83.958000 C 112.26900,83.958000 86.451000,109.77600 86.451000,141.62500 C 86.451000,173.47400 112.26900,199.29200 144.11700,199.29200 C 157.83200,199.29200 170.42100,194.49600 180.31900,186.50100 L 186.98700,193.16900 L 186.41900,193.73600 C 183.91400,196.24100 183.91400,200.30200 186.41900,202.80600 L 235.18000,251.56800 C 237.68600,254.07200 241.74600,254.07200 244.25100,251.56800 L 249.92200,245.89800 C 252.42700,243.39400 252.42700,239.33200 249.92200,236.82700 z "
       style="opacity:0.20000000;stroke:none;"
       id="path169" />
    <path
       d="M 147.86500,148.04800 L 195.49100,195.67400 L 200.02700,191.14000 L 152.40100,143.51400 L 147.86500,148.04800 z "
       style="stroke:none;"
       id="path170" />
    <path
       d="M 186.41900,187.73700 C 183.91400,190.24200 183.91400,194.30300 186.41900,196.80700 L 235.18000,245.56900 C 237.68600,248.07300 241.74600,248.07300 244.25100,245.56900 L 249.92200,239.89900 C 252.42700,237.39300 252.42700,233.33200 249.92200,230.82700 L 201.16100,182.06700 C 198.65600,179.56200 194.59500,179.56200 192.09000,182.06700 L 186.41900,187.73700 z "
       style="fill:#993300;stroke:none;"
       id="path171" />
    <linearGradient
       x1="211.95700"
       y1="220.91991"
       x2="223.18260"
       y2="208.09070"
       id="XMLID_2_"
       gradientUnits="userSpaceOnUse"
       gradientTransform="matrix(0.999900,1.200000e-2,-1.200000e-2,0.999900,2.579000,-2.600000)">
      <stop
         style="stop-color:#ff9900;stop-opacity:1.0000000;"
         offset="0.0000000"
         id="stop173" />
      <stop
         style="stop-color:#ffcc66;stop-opacity:1.0000000;"
         offset="1.0000000"
         id="stop174" />
    </linearGradient>
    <path
       d="M 199.24800,184.10500 C 198.01300,182.84000 195.97700,182.81600 194.71300,184.05100 L 188.97500,189.65400 C 187.71000,190.88800 187.68600,192.92400 188.92000,194.18800 L 237.09300,243.52900 C 238.32800,244.79600 240.36400,244.82000 241.62800,243.58400 L 247.36500,237.98300 C 248.63200,236.74800 248.65600,234.71200 247.42000,233.44800 L 199.24800,184.10500 z "
       style="fill:url(#XMLID_2_);stroke:none;"
       id="path178" />
    <path
       d="M 86.451000,135.62600 C 86.451000,167.47500 112.26900,193.29300 144.11700,193.29300 C 175.96700,193.29300 201.78500,167.47500 201.78500,135.62600 C 201.78500,103.77800 175.96700,77.959000 144.11700,77.959000 C 112.27000,77.959000 86.451000,103.77800 86.451000,135.62600 z "
       style="fill:#333333;stroke:none;"
       id="path179" />
    <path
       d="M 90.540000,135.62600 C 90.540000,165.16900 114.57600,189.20400 144.11800,189.20400 C 173.66200,189.20400 197.69700,165.16900 197.69700,135.62600 C 197.69700,106.08300 173.66200,82.048000 144.11800,82.048000 C 114.57500,82.048000 90.540000,106.08300 90.540000,135.62600 z "
       style="fill:#cccccc;stroke:none;"
       id="path180" />
    <path
       d="M 92.143000,136.42800 C 92.143000,106.88600 116.17900,82.850000 145.72200,82.850000 C 153.89700,82.850000 161.64700,84.698000 168.58600,87.986000 C 161.24400,84.201000 152.93100,82.049000 144.11700,82.049000 C 114.57500,82.049000 90.539000,106.08400 90.539000,135.62700 C 90.539000,156.99600 103.11600,175.47500 121.25400,184.06900 C 103.98600,175.16400 92.143000,157.15800 92.143000,136.42800 z "
       style="fill:#ffffff;stroke:none;"
       id="path181" />
    <path
       d="M 95.351000,135.62600 C 95.351000,162.51800 117.22800,184.39300 144.11800,184.39300 C 171.00900,184.39300 192.88600,162.51800 192.88600,135.62600 C 192.88600,108.73600 171.00900,86.859000 144.11800,86.859000 C 117.22800,86.859000 95.351000,108.73600 95.351000,135.62600 z "
       style="fill:#003366;stroke:none;"
       id="path182" />
    <linearGradient
       x1="98.557602"
       y1="135.62700"
       x2="189.67870"
       y2="135.62700"
       id="XMLID_3_"
       gradientUnits="userSpaceOnUse">
      <stop
         style="stop-color:#ffffff;stop-opacity:1.0000000;"
         offset="0.0000000"
         id="stop184" />
      <stop
         style="stop-color:#cbd5e8;stop-opacity:1.0000000;"
         offset="1.0000000"
         id="stop185" />
    </linearGradient>
    <path
       d="M 98.558000,135.62600 C 98.558000,160.74800 118.99600,181.18700 144.11800,181.18700 C 169.24100,181.18700 189.68000,160.74900 189.68000,135.62600 C 189.68000,110.50500 169.24200,90.066000 144.11800,90.066000 C 118.99600,90.066000 98.558000,110.50500 98.558000,135.62600 z "
       style="fill:url(#XMLID_3_);stroke:none;"
       id="path189" />
    <path
       d="M 100.55800,135.62600 C 100.55800,142.02500 101.95600,148.10000 104.44500,153.57800 C 106.08600,153.00300 107.62300,152.18100 109.00000,151.00000 C 131.08700,136.05900 149.37800,113.52500 171.82000,102.03400 C 164.28500,95.810000 154.63000,92.066000 144.11700,92.066000 C 120.09800,92.066000 100.55800,111.60700 100.55800,135.62600 z "
       style="fill:#ffffff;stroke:none;"
       id="path190" />
  </g>
  <metadata
     id="metadata68">
    <rdf:RDF
       id="RDF69">
      <cc:Work
         rdf:about=""
         id="Work70">
        <dc:format
           id="format71">image/svg+xml</dc:format>
        <dc:type
           id="type73"
           rdf:resource="http://purl.org/dc/dcmitype/StillImage" />
      </cc:Work>
    </rdf:RDF>
  </metadata>
</svg>
