<?xml version="1.0" encoding="UTF-8" standalone="no"?>
<!-- Created with Inkscape (http://www.inkscape.org/) -->
<svg
   xmlns:a="http://ns.adobe.com/AdobeSVGViewerExtensions/3.0/"
   xmlns:dc="http://purl.org/dc/elements/1.1/"
   xmlns:cc="http://web.resource.org/cc/"
   xmlns:rdf="http://www.w3.org/1999/02/22-rdf-syntax-ns#"
   xmlns:svg="http://www.w3.org/2000/svg"
   xmlns="http://www.w3.org/2000/svg"
   xmlns:sodipodi="http://inkscape.sourceforge.net/DTD/sodipodi-0.dtd"
   xmlns:inkscape="http://www.inkscape.org/namespaces/inkscape"
   version="1.0"
   width="48pt"
   height="48pt"
   viewBox="0 0 256 256"
   id="svg2"
   xml:space="preserve"
   sodipodi:version="0.32"
   inkscape:version="0.42+devel"
   sodipodi:docname="gtk-directory2.svg"
   sodipodi:docbase="/home/cschalle/gnome/gnome-themes-extras/Nuvola/icons/scalable/stock"><metadata
   id="metadata89"><rdf:RDF><cc:Work
       rdf:about=""><dc:format>image/svg+xml</dc:format><dc:type
         rdf:resource="http://purl.org/dc/dcmitype/StillImage" /></cc:Work></rdf:RDF></metadata><sodipodi:namedview
   inkscape:cy="354.56458"
   inkscape:cx="305.25953"
   inkscape:zoom="0.43415836"
   inkscape:window-height="563"
   inkscape:window-width="822"
   inkscape:pageshadow="2"
   inkscape:pageopacity="0.0"
   borderopacity="1.0"
   bordercolor="#666666"
   pagecolor="#ffffff"
   id="base"
   inkscape:window-x="0"
   inkscape:window-y="30"
   inkscape:current-layer="svg2" /><defs
   id="defs158">
			
			
		
				
					<linearGradient
   x1="101.3335"
   y1="25.02002"
   x2="101.33349"
   y2="198.4874"
   id="XMLID_15_"
   gradientUnits="userSpaceOnUse"
   gradientTransform="scale(1.125962,1.062981)">
					<stop
   style="stop-color:#c9e6ff;stop-opacity:1"
   offset="0"
   id="stop13" />
					<stop
   style="stop-color:#006dff;stop-opacity:1"
   offset="0.55618012"
   id="stop15" />
					<stop
   style="stop-color:#0035ed;stop-opacity:1"
   offset="1"
   id="stop17" />
					<a:midPointStop
   style="stop-color:#C9E6FF"
   offset="0" />
					<a:midPointStop
   style="stop-color:#C9E6FF"
   offset="0.5" />
					<a:midPointStop
   style="stop-color:#006DFF"
   offset="0.5561801" />
					<a:midPointStop
   style="stop-color:#006DFF"
   offset="0.5" />
					<a:midPointStop
   style="stop-color:#0035ED"
   offset="1" />
				</linearGradient>
				
				
					<linearGradient
   x1="101.3335"
   y1="25.019531"
   x2="101.33349"
   y2="198.48936"
   id="XMLID_16_"
   gradientUnits="userSpaceOnUse"
   gradientTransform="scale(1.125962,1.062981)">
					<stop
   style="stop-color:#dcf0ff;stop-opacity:1"
   offset="0"
   id="stop22" />
					<stop
   style="stop-color:#428aff;stop-opacity:1"
   offset="0.58988798"
   id="stop24" />
					<stop
   style="stop-color:#006dff;stop-opacity:1"
   offset="0.85955"
   id="stop26" />
					<stop
   style="stop-color:#0035ed;stop-opacity:1"
   offset="1"
   id="stop28" />
					<a:midPointStop
   style="stop-color:#DCF0FF"
   offset="0" />
					<a:midPointStop
   style="stop-color:#DCF0FF"
   offset="0.5" />
					<a:midPointStop
   style="stop-color:#428AFF"
   offset="0.589888" />
					<a:midPointStop
   style="stop-color:#428AFF"
   offset="0.5" />
					<a:midPointStop
   style="stop-color:#006DFF"
   offset="0.85955" />
					<a:midPointStop
   style="stop-color:#006DFF"
   offset="0.5" />
					<a:midPointStop
   style="stop-color:#0035ED"
   offset="1" />
				</linearGradient>
				
				
					<linearGradient
   x1="101.3335"
   y1="25.02002"
   x2="101.33349"
   y2="198.4874"
   id="XMLID_17_"
   gradientUnits="userSpaceOnUse"
   gradientTransform="scale(1.125962,1.062981)">
					<stop
   style="stop-color:#ffffff;stop-opacity:1"
   offset="0"
   id="stop33" />
					<stop
   style="stop-color:#e9f2ff;stop-opacity:1"
   offset="0.1147145"
   id="stop35" />
					<stop
   style="stop-color:#b0d2ff;stop-opacity:1"
   offset="0.3538844"
   id="stop37" />
					<stop
   style="stop-color:#579fff;stop-opacity:1"
   offset="0.69359553"
   id="stop39" />
					<stop
   style="stop-color:#006dff;stop-opacity:1"
   offset="1"
   id="stop41" />
					<a:midPointStop
   style="stop-color:#FFFFFF"
   offset="0" />
					<a:midPointStop
   style="stop-color:#FFFFFF"
   offset="0.5423729" />
					<a:midPointStop
   style="stop-color:#006DFF"
   offset="1" />
				</linearGradient>
				
				
					<linearGradient
   x1="109.76611"
   y1="82.360352"
   x2="109.76611"
   y2="190.49658"
   id="XMLID_18_"
   gradientUnits="userSpaceOnUse"
   gradientTransform="scale(1.125962,1.062981)">
					<stop
   style="stop-color:#0099ff;stop-opacity:1"
   offset="0"
   id="stop46" />
					<stop
   style="stop-color:#0089e5;stop-opacity:1"
   offset="0.0936629"
   id="stop48" />
					<stop
   style="stop-color:#00406b;stop-opacity:1"
   offset="0.54686439"
   id="stop50" />
					<stop
   style="stop-color:#00121e;stop-opacity:1"
   offset="0.85774583"
   id="stop52" />
					<stop
   style="stop-color:#000000;stop-opacity:1"
   offset="1"
   id="stop54" />
					<a:midPointStop
   style="stop-color:#0099FF"
   offset="0" />
					<a:midPointStop
   style="stop-color:#0099FF"
   offset="0.468927" />
					<a:midPointStop
   style="stop-color:#000000"
   offset="1" />
				</linearGradient>
				
				
					<linearGradient
   x1="9.1479492"
   y1="30.90918"
   x2="182.1861"
   y2="203.94733"
   id="XMLID_19_"
   gradientUnits="userSpaceOnUse"
   gradientTransform="scale(1.125962,1.062981)">
					<stop
   style="stop-color:#0053bd;stop-opacity:1"
   offset="0"
   id="stop59" />
					<stop
   style="stop-color:#00008d;stop-opacity:1"
   offset="1"
   id="stop61" />
					<a:midPointStop
   style="stop-color:#0053BD"
   offset="0" />
					<a:midPointStop
   style="stop-color:#0053BD"
   offset="0.5" />
					<a:midPointStop
   style="stop-color:#00008D"
   offset="1" />
				</linearGradient>
				
				
					<linearGradient
   x1="131.2666"
   y1="69.828125"
   x2="131.2666"
   y2="211.83263"
   id="XMLID_20_"
   gradientUnits="userSpaceOnUse"
   gradientTransform="scale(1.125962,1.062981)">
					<stop
   style="stop-color:#c9e6ff;stop-opacity:1"
   offset="0"
   id="stop66" />
					<stop
   style="stop-color:#006dff;stop-opacity:1"
   offset="0.55618012"
   id="stop68" />
					<stop
   style="stop-color:#0035ed;stop-opacity:1"
   offset="1"
   id="stop70" />
					<a:midPointStop
   style="stop-color:#C9E6FF"
   offset="0" />
					<a:midPointStop
   style="stop-color:#C9E6FF"
   offset="0.5" />
					<a:midPointStop
   style="stop-color:#006DFF"
   offset="0.5561801" />
					<a:midPointStop
   style="stop-color:#006DFF"
   offset="0.5" />
					<a:midPointStop
   style="stop-color:#0035ED"
   offset="1" />
				</linearGradient>
				
				
					<linearGradient
   x1="131.2666"
   y1="69.825195"
   x2="131.2666"
   y2="211.82832"
   id="XMLID_21_"
   gradientUnits="userSpaceOnUse"
   gradientTransform="scale(1.125962,1.062981)">
					<stop
   style="stop-color:#dcf0ff;stop-opacity:1"
   offset="0"
   id="stop75" />
					<stop
   style="stop-color:#428aff;stop-opacity:1"
   offset="0.67415702"
   id="stop77" />
					<stop
   style="stop-color:#006dff;stop-opacity:1"
   offset="1"
   id="stop79" />
					<a:midPointStop
   style="stop-color:#DCF0FF"
   offset="0" />
					<a:midPointStop
   style="stop-color:#DCF0FF"
   offset="0.5" />
					<a:midPointStop
   style="stop-color:#428AFF"
   offset="0.674157" />
					<a:midPointStop
   style="stop-color:#428AFF"
   offset="0.5" />
					<a:midPointStop
   style="stop-color:#006DFF"
   offset="1" />
				</linearGradient>
				
				
					<linearGradient
   x1="57.272949"
   y1="60.435059"
   x2="219.93748"
   y2="223.09961"
   id="XMLID_22_"
   gradientUnits="userSpaceOnUse"
   gradientTransform="scale(1.125962,1.062981)">
					<stop
   style="stop-color:#0053bd;stop-opacity:1"
   offset="0"
   id="stop84" />
					<stop
   style="stop-color:#00008d;stop-opacity:1"
   offset="1"
   id="stop86" />
					<a:midPointStop
   style="stop-color:#0053BD"
   offset="0" />
					<a:midPointStop
   style="stop-color:#0053BD"
   offset="0.5" />
					<a:midPointStop
   style="stop-color:#00008D"
   offset="1" />
				</linearGradient>
				
				
					<linearGradient
   x1="188.66699"
   y1="69.828125"
   x2="188.66699"
   y2="211.83263"
   id="XMLID_23_"
   gradientUnits="userSpaceOnUse"
   gradientTransform="scale(1.125962,1.062981)">
					<stop
   style="stop-color:#0053bd;stop-opacity:1"
   offset="0"
   id="stop91" />
					<stop
   style="stop-color:#00008d;stop-opacity:1"
   offset="1"
   id="stop93" />
					<a:midPointStop
   style="stop-color:#0053BD"
   offset="0" />
					<a:midPointStop
   style="stop-color:#0053BD"
   offset="0.5" />
					<a:midPointStop
   style="stop-color:#00008D"
   offset="1" />
				</linearGradient>
				
				
					<linearGradient
   x1="131.2666"
   y1="69.828125"
   x2="131.2666"
   y2="211.83263"
   id="XMLID_24_"
   gradientUnits="userSpaceOnUse"
   gradientTransform="scale(1.125962,1.062981)">
					<stop
   style="stop-color:#ffffff;stop-opacity:1"
   offset="0"
   id="stop98" />
					<stop
   style="stop-color:#f7fbff;stop-opacity:1"
   offset="0.0862401"
   id="stop100" />
					<stop
   style="stop-color:#e2eeff;stop-opacity:1"
   offset="0.2176879"
   id="stop102" />
					<stop
   style="stop-color:#c0dbff;stop-opacity:1"
   offset="0.37792769"
   id="stop104" />
					<stop
   style="stop-color:#8fbfff;stop-opacity:1"
   offset="0.56087899"
   id="stop106" />
					<stop
   style="stop-color:#529cff;stop-opacity:1"
   offset="0.76306421"
   id="stop108" />
					<stop
   style="stop-color:#0871ff;stop-opacity:1"
   offset="0.97838408"
   id="stop110" />
					<stop
   style="stop-color:#006dff;stop-opacity:1"
   offset="1"
   id="stop112" />
					<a:midPointStop
   style="stop-color:#FFFFFF"
   offset="0" />
					<a:midPointStop
   style="stop-color:#FFFFFF"
   offset="0.615819" />
					<a:midPointStop
   style="stop-color:#006DFF"
   offset="1" />
				</linearGradient>
				
				
					<linearGradient
   x1="172.49902"
   y1="117.17529"
   x2="172.49902"
   y2="223.937"
   id="XMLID_25_"
   gradientUnits="userSpaceOnUse">
					<stop
   style="stop-color:#663333;stop-opacity:1"
   offset="0"
   id="stop117" />
					<stop
   style="stop-color:#8d0000;stop-opacity:1"
   offset="1"
   id="stop119" />
					<a:midPointStop
   style="stop-color:#663333"
   offset="0" />
					<a:midPointStop
   style="stop-color:#663333"
   offset="0.5" />
					<a:midPointStop
   style="stop-color:#8D0000"
   offset="1" />
				</linearGradient>
				
				
					<linearGradient
   x1="172.49902"
   y1="117.16602"
   x2="172.49902"
   y2="224.2915"
   id="XMLID_26_"
   gradientUnits="userSpaceOnUse">
					<stop
   style="stop-color:#ff0000;stop-opacity:1"
   offset="0"
   id="stop124" />
					<stop
   style="stop-color:#ff5454;stop-opacity:1"
   offset="1"
   id="stop126" />
					<a:midPointStop
   style="stop-color:#FF0000"
   offset="0" />
					<a:midPointStop
   style="stop-color:#FF0000"
   offset="0.5" />
					<a:midPointStop
   style="stop-color:#FF5454"
   offset="1" />
				</linearGradient>
				
				
					<radialGradient
   cx="173.43262"
   cy="154.87305"
   r="78.009834"
   fx="173.43262"
   fy="154.87305"
   id="XMLID_27_"
   gradientUnits="userSpaceOnUse"
   gradientTransform="matrix(1.000000,0.000000,0.000000,0.833200,506.7275,-75.20216)">
					<stop
   style="stop-color:#ff0000;stop-opacity:1"
   offset="0"
   id="stop131" />
					<stop
   style="stop-color:#f20000;stop-opacity:1"
   offset="0.27350461"
   id="stop133" />
					<stop
   style="stop-color:#d00000;stop-opacity:1"
   offset="0.77711999"
   id="stop135" />
					<stop
   style="stop-color:#bf0000;stop-opacity:1"
   offset="1"
   id="stop137" />
					<a:midPointStop
   style="stop-color:#FF0000"
   offset="0" />
					<a:midPointStop
   style="stop-color:#FF0000"
   offset="0.570621" />
					<a:midPointStop
   style="stop-color:#BF0000"
   offset="1" />
				</radialGradient>
				
				
					<linearGradient
   x1="171.42383"
   y1="115.73877"
   x2="171.42383"
   y2="214.90515"
   id="XMLID_28_"
   gradientUnits="userSpaceOnUse">
					<stop
   style="stop-color:#ffffff;stop-opacity:1"
   offset="0"
   id="stop142" />
					<stop
   style="stop-color:#ffc2c2;stop-opacity:1"
   offset="0.20325381"
   id="stop144" />
					<stop
   style="stop-color:#ff7070;stop-opacity:1"
   offset="0.4939799"
   id="stop146" />
					<stop
   style="stop-color:#ff3333;stop-opacity:1"
   offset="0.73299563"
   id="stop148" />
					<stop
   style="stop-color:#ff0e0e;stop-opacity:1"
   offset="0.90779817"
   id="stop150" />
					<stop
   style="stop-color:#ff0000;stop-opacity:1"
   offset="1"
   id="stop152" />
					<a:midPointStop
   style="stop-color:#FFFFFF"
   offset="0" />
					<a:midPointStop
   style="stop-color:#FFFFFF"
   offset="0.435028" />
					<a:midPointStop
   style="stop-color:#FF0000"
   offset="1" />
				</linearGradient>
				
			</defs>
	
		
		<g
   id="g1599"><g
     transform="scale(1.125962,1.062981)"
     id="Layer_1">
			<rect
   id="rect7"
   style="fill:none"
   y="0"
   x="0"
   height="256"
   width="256" /> 
		</g><path
     id="path19"
     style="fill:url(#XMLID_15_)"
     d="M 22.520342,37.232364 C 21.277825,37.232364 20.268418,38.186348 20.268418,39.358327 L 20.268418,198.24181 C 20.268418,199.41276 21.277825,200.36777 22.520342,200.36777 L 205.67611,200.36777 C 206.91642,200.36777 207.92803,199.41276 207.92803,198.24181 L 207.92803,63.45291 C 207.92803,62.280931 206.91642,61.326947 205.67611,61.326947 L 116.35015,61.326947 L 116.35015,39.358327 C 116.35015,38.186348 115.34074,37.232364 114.09822,37.232364 L 22.520342,37.232364 z " /><path
     id="path30"
     style="fill:url(#XMLID_16_)"
     d="M 25.898228,42.54727 C 25.898228,48.546262 25.898228,189.05284 25.898228,195.05287 C 32.284545,195.05287 195.91191,195.05287 202.29822,195.05287 C 202.29822,189.11927 202.29822,72.574408 202.29822,66.641853 C 196.04385,66.641853 110.72034,66.641853 110.72034,66.641853 C 110.72034,66.641853 110.72034,47.208193 110.72034,42.54727 C 104.69358,42.54727 31.924984,42.54727 25.898228,42.54727 z " /><path
     id="path43"
     style="fill:url(#XMLID_17_)"
     d="M 205.67611,61.326947 L 116.35015,61.326947 L 116.35015,39.358327 C 116.35015,38.186348 115.34074,37.232364 114.09822,37.232364 L 22.520342,37.232364 C 21.277825,37.232364 20.268418,38.186348 20.268418,39.358327 L 20.268418,43.610251 L 106.21649,43.610251 C 107.45901,43.610251 108.46842,44.564235 108.46842,45.736213 L 108.46842,67.704834 L 197.79437,67.704834 C 199.03469,67.704834 200.0463,68.658818 200.0463,69.830796 L 200.0463,200.36777 L 205.67611,200.36777 C 206.91642,200.36777 207.92803,199.41276 207.92803,198.24181 L 207.92803,63.45291 C 207.92803,62.280931 206.91642,61.326947 205.67611,61.326947 z " /><path
     id="path56"
     style="opacity:0.3;fill:url(#XMLID_18_)"
     d="M 39.256932,96.051342 L 39.256932,202.49373 L 50.516553,202.49373 C 50.516553,174.54896 50.516553,101.49289 50.516553,98.177304 C 54.050579,98.177304 164.78741,98.177304 207.92803,98.177304 L 207.92803,87.547494 L 48.264629,87.547494 C 43.289064,87.547494 39.256932,91.354086 39.256932,96.051342 z " /><path
     id="path63"
     style="fill:url(#XMLID_19_)"
     d="M 205.67611,50.697137 L 127.60977,50.697137 L 127.60977,39.358327 C 127.60977,32.314001 121.56102,26.602554 114.09822,26.602554 L 22.520342,26.602554 C 15.057544,26.602554 9.0087964,32.314001 9.0087964,39.358327 L 9.0087964,63.45291 L 9.0087964,198.24181 C 9.0087964,205.28614 15.057544,210.99758 22.520342,210.99758 L 114.09822,210.99758 L 205.67611,210.99758 C 213.13781,210.99758 219.18765,205.28614 219.18765,198.24181 L 219.18765,63.45291 C 219.18765,56.408584 213.13781,50.697137 205.67611,50.697137 z M 207.92803,198.24181 C 207.92803,199.41276 206.91642,200.36777 205.67611,200.36777 L 22.520342,200.36777 C 21.277825,200.36777 20.268418,199.41276 20.268418,198.24181 L 20.268418,39.358327 C 20.268418,38.186348 21.277825,37.232364 22.520342,37.232364 L 114.09822,37.232364 C 115.34074,37.232364 116.35015,38.186348 116.35015,39.358327 L 116.35015,61.326947 L 205.67611,61.326947 C 206.91642,61.326947 207.92803,62.280931 207.92803,63.45291 L 207.92803,198.24181 z " /><path
     id="path72"
     style="fill:url(#XMLID_20_)"
     d="M 60.650212,85.421531 C 60.650212,89.448195 60.650212,196.34007 60.650212,200.36777 C 64.984727,200.36777 230.61441,200.36777 234.95112,200.36777 C 234.95112,196.34007 234.95112,89.448194 234.95112,85.421531 C 230.61441,85.421531 64.984727,85.421531 60.650212,85.421531 z " /><path
     id="path81"
     style="fill:url(#XMLID_21_)"
     d="M 66.280023,90.736437 C 66.280023,99.936828 66.280023,185.85144 66.280023,195.05287 C 76.471959,195.05287 219.12828,195.05287 229.32131,195.05287 C 229.32131,185.85144 229.32131,99.936828 229.32131,90.736437 C 219.12828,90.736437 76.471959,90.736437 66.280023,90.736437 z " /><path
     id="path88"
     style="fill:url(#XMLID_22_)"
     d="M 237.20305,74.791721 L 58.398288,74.791721 C 53.422723,74.791721 49.390591,78.598313 49.390591,83.295569 L 49.390591,202.49373 C 49.390591,207.18995 53.422723,210.99758 58.398288,210.99758 L 237.20305,210.99758 C 242.17751,210.99758 246.21074,207.18995 246.21074,202.49373 L 246.21074,83.295569 C 246.21074,78.598313 242.17751,74.791721 237.20305,74.791721 z M 234.95112,200.36777 C 230.61441,200.36777 64.984727,200.36777 60.650212,200.36777 C 60.650212,196.34007 60.650212,89.448195 60.650212,85.421531 C 64.984727,85.421531 230.61441,85.421531 234.95112,85.421531 C 234.95112,89.448195 234.95112,196.34007 234.95112,200.36777 z " /><path
     id="path95"
     style="opacity:0.3;fill:url(#XMLID_23_)"
     d="M 207.92803,85.421531 L 207.92803,198.24181 C 207.92803,199.41276 206.91642,200.36777 205.67611,200.36777 C 210.61099,200.36777 215.08845,200.36777 218.98533,200.36777 C 219.10849,199.67435 219.18765,198.96638 219.18765,198.24181 L 219.18765,85.421531 C 215.84276,85.421531 212.06243,85.421531 207.92803,85.421531 z " /><path
     id="path114"
     style="fill:url(#XMLID_24_)"
     d="M 60.650212,85.421531 C 60.650212,85.99662 60.650212,88.6821 60.650212,92.862399 C 95.933291,92.862399 222.16529,92.862399 225.94343,92.862399 C 225.94343,96.313973 225.94343,175.31091 225.94343,200.36777 C 231.151,200.36777 234.39254,200.36777 234.95112,200.36777 C 234.95112,196.34007 234.95112,89.448194 234.95112,85.421531 C 230.61441,85.421531 64.984727,85.421531 60.650212,85.421531 z " /><polyline
     transform="scale(1.125962,1.062981)"
     id="_x3C_Slice_x3E_"
     points="0,256 0,0 256,0 256,256 "
     style="fill:none" /></g>
	</svg>