<?xml version="1.0" encoding="UTF-8" standalone="no"?>
<!-- Created with Sodipodi ("http://www.sodipodi.com/") -->
<svg
   xmlns:dc="http://purl.org/dc/elements/1.1/"
   xmlns:cc="http://web.resource.org/cc/"
   xmlns:rdf="http://www.w3.org/1999/02/22-rdf-syntax-ns#"
   xmlns:svg="http://www.w3.org/2000/svg"
   xmlns="http://www.w3.org/2000/svg"
   xmlns:xlink="http://www.w3.org/1999/xlink"
   xmlns:sodipodi="http://inkscape.sourceforge.net/DTD/sodipodi-0.dtd"
   xmlns:inkscape="http://www.inkscape.org/namespaces/inkscape"
   version="1"
   x="0.00000000"
   y="0.00000000"
   width="32pt"
   height="32pt"
   viewBox="0 0 256 256"
   id="svg548"
   sodipodi:version="0.32"
   sodipodi:docname="stock_volume-0.svg"
   sodipodi:docbase="/home/joss/deb/pkg-gnome/packages/unstable/gnome-themes-extras/debian/icons/Nuvola"
   inkscape:version="0.42+0.43pre2">
  <metadata
     id="metadata6574">
    <rdf:RDF>
      <cc:Work
         rdf:about="">
        <dc:format>image/svg+xml</dc:format>
        <dc:type
           rdf:resource="http://purl.org/dc/dcmitype/StillImage" />
      </cc:Work>
    </rdf:RDF>
  </metadata>
  <sodipodi:namedview
     id="base"
     inkscape:zoom="9.375"
     inkscape:cx="20"
     inkscape:cy="26.873257"
     inkscape:window-width="900"
     inkscape:window-height="712"
     inkscape:window-x="309"
     inkscape:window-y="173"
     inkscape:current-layer="svg548" />
  <defs
     id="defs647">
    <linearGradient
       id="POUETID_6_"
       gradientUnits="userSpaceOnUse"
       x1="127.5972"
       y1="36.8535"
       x2="127.5972"
       y2="139.1456">
      <stop
   offset="0.0056"
   style="stop-color:#FFFFFF"
   id="stop573" />

      <stop
   offset="1"
   style="stop-color:#FF6666"
   id="stop9005" />

      
      
      
    </linearGradient>
    <linearGradient
       id="POUETID_5_"
       gradientUnits="userSpaceOnUse"
       x1="32.4849"
       y1="127.5029"
       x2="222.7139"
       y2="127.5029">
      <stop
   offset="0.0056"
   style="stop-color:#FF6D00"
   id="stop563" />

      <stop
   offset="0.5"
   style="stop-color:#CF0000"
   id="stop564" />

      <stop
   offset="1"
   style="stop-color:#FF6666"
   id="stop565" />

      
      
      
      
      
    </linearGradient>
    <linearGradient
       id="POUETID_4_"
       gradientUnits="userSpaceOnUse"
       x1="20.0864"
       y1="127.5"
       x2="235.1136"
       y2="127.5">
      <stop
   offset="0.0056"
   style="stop-color:#AA0000"
   id="stop556" />

      <stop
   offset="1"
   style="stop-color:#663333"
   id="stop557" />

      
      
      
    </linearGradient>
    <linearGradient
       id="POUETID_9_"
       gradientUnits="userSpaceOnUse"
       x1="128.0024"
       y1="39.8628"
       x2="128.0024"
       y2="216.1587"
       gradientTransform="matrix(1.881965,0.000000,0.000000,1.881965,-28.93882,-142.0167)">
      <stop
         offset="0"
         style="stop-color:#003333"
         id="stop3256" />
      <stop
         offset="1"
         style="stop-color:#006600"
         id="stop3257" />
    </linearGradient>
    <linearGradient
       id="POUETID_10_"
       gradientUnits="userSpaceOnUse"
       x1="127.7437"
       y1="211.125"
       x2="127.7436"
       y2="44.9092"
       gradientTransform="matrix(1.881965,0.000000,0.000000,1.881965,-28.93882,-142.0167)">
      <stop
         offset="0"
         style="stop-color:#009933"
         id="stop3263" />
      <stop
         offset="1"
         style="stop-color:#00FF00"
         id="stop3264" />
    </linearGradient>
    <linearGradient
       id="POUETID_11_"
       gradientUnits="userSpaceOnUse"
       x1="126.2256"
       y1="55.0059"
       x2="126.2256"
       y2="283.1829"
       gradientTransform="matrix(1.881965,0.000000,0.000000,1.881965,-28.93882,-142.0167)">
      <stop
         offset="0"
         style="stop-color:#FFFFFF"
         id="stop3271" />
      <stop
         offset="0.382"
         style="stop-color:#00FF00"
         id="stop3272" />
      <stop
         offset="0.4331"
         style="stop-color:#00FB02"
         id="stop3273" />
      <stop
         offset="0.4874"
         style="stop-color:#00EE09"
         id="stop3274" />
      <stop
         offset="0.5432"
         style="stop-color:#00D913"
         id="stop3275" />
      <stop
         offset="0.5997"
         style="stop-color:#00BB22"
         id="stop3276" />
      <stop
         offset="0.6517"
         style="stop-color:#009933"
         id="stop3277" />
      <stop
         offset="0.8258"
         style="stop-color:#006600"
         id="stop3278" />
    </linearGradient>
    <radialGradient
       id="POUETID_12_"
       cx="100.5962"
       cy="124.4897"
       r="86.1955"
       fx="100.5962"
       fy="124.4897"
       gradientTransform="matrix(1.554503,-4.648454e-2,-4.648454e-2,1.388890,5.260633,-56.65603)"
       gradientUnits="userSpaceOnUse">
      <stop
         offset="0.3933"
         style="stop-color:#FFFFFF"
         id="stop3288" />
      <stop
         offset="0.7303"
         style="stop-color:#00E100"
         id="stop3289" />
    </radialGradient>
    <linearGradient
       inkscape:collect="always"
       xlink:href="#POUETID_9_"
       id="linearGradient8700"
       gradientUnits="userSpaceOnUse"
       gradientTransform="matrix(1.881965,0.000000,0.000000,1.881965,-28.93882,-142.0167)"
       x1="128.0024"
       y1="39.8628"
       x2="128.0024"
       y2="216.1587" />
    <linearGradient
       inkscape:collect="always"
       xlink:href="#POUETID_10_"
       id="linearGradient8702"
       gradientUnits="userSpaceOnUse"
       gradientTransform="matrix(1.881965,0.000000,0.000000,1.881965,-28.93882,-142.0167)"
       x1="127.7437"
       y1="211.125"
       x2="127.7436"
       y2="44.9092" />
    <linearGradient
       inkscape:collect="always"
       xlink:href="#POUETID_11_"
       id="linearGradient8704"
       gradientUnits="userSpaceOnUse"
       gradientTransform="matrix(1.881965,0.000000,0.000000,1.881965,-28.93882,-142.0167)"
       x1="126.2256"
       y1="55.0059"
       x2="126.2256"
       y2="283.1829" />
    <radialGradient
       inkscape:collect="always"
       xlink:href="#POUETID_12_"
       id="radialGradient8706"
       gradientUnits="userSpaceOnUse"
       gradientTransform="matrix(1.554503,-4.648454e-2,-4.648454e-2,1.388890,5.260633,-56.65603)"
       cx="100.5962"
       cy="124.4897"
       fx="100.5962"
       fy="124.4897"
       r="86.1955" />
  </defs>
  <g
     style="font-size:12px;stroke:#000000"
     id="Layer_1"
     transform="translate(-17.74933,14.33600)">
    <linearGradient
       x1="69.416"
       y1="128.0146"
       x2="228.6201"
       y2="128.0146"
       id="XMLID_1_"
       gradientUnits="userSpaceOnUse"
       spreadMethod="pad">
      <stop
         style="stop-color:#ffffff;stop-opacity:1;"
         offset="0.00000000"
         id="stop551" />
      <stop
         style="stop-color:#949494;stop-opacity:1;"
         offset="1.00000000"
         id="stop552" />
    </linearGradient>
    <path
       d="M 223.964,113.503 C 223.663,112.235 223.346,110.966 223.005,109.696 C 222.645,108.352 222.267,107.02 221.869,105.7 C 206.53,53.528 169.332,18.557 137.472,27.094 C 136.45,27.368 135.446,27.683 134.459,28.039 C 131.308,28.792 127.268,29.828 122.076,31.219 C 80.905,42.252 59.341,95.272 73.909,149.646 C 88.479,204.02 133.665,239.155 174.836,228.124 C 179.412,226.897 183.142,225.811 186.235,224.811 C 187.575,224.605 188.91,224.352 190.231,223.998 C 222.136,215.448 236.861,166.438 223.964,113.503 z "
       style="fill:url(#XMLID_1_);stroke:none"
       id="path556" />
    <path
       d="M 150.699,67.342 L 48.101,94.832 C 27.936,100.237 19.674,132.594 29.293,168.494 C 38.913,204.395 62.245,228.285 82.412,222.882 L 189.872,194.088 L 155.561,66.039 L 150.699,67.342 z "
       style="opacity:0.2;stroke:none"
       id="path557" />
    <path
       d="M 139.169,26.232 C 139.169,26.232 136.767,26.985 136.148,27.179 C 135.874,27.25 123.774,30.357 123.774,30.357 C 89.118,39.644 67.355,76.594 67.355,119.845 C 67.355,131.239 68.865,143.07 72.048,154.948 C 87.313,211.915 135.353,248.717 179.139,236.984 C 183.616,235.784 187.331,234.703 190.532,233.677 C 191.356,233.509 194.534,232.86 194.534,232.86 C 220.875,225.801 236.663,194.434 236.663,155.109 C 236.663,142.79 235.114,129.69 231.855,116.311 C 231.853,116.311 230.867,112.393 230.867,112.393 L 229.689,108.251 C 213.454,53.023 173.688,16.983 139.169,26.232 z "
       style="opacity:0.2;stroke:none"
       id="path558" />
    <linearGradient
       x1="104.605"
       y1="62.039101"
       x2="104.605"
       y2="219.5688"
       id="XMLID_2_"
       gradientUnits="userSpaceOnUse"
       spreadMethod="pad">
      <stop
         style="stop-color:#949494;stop-opacity:1;"
         offset="0.00000000"
         id="stop560" />
      <stop
         style="stop-color:#616161;stop-opacity:1;"
         offset="1.00000000"
         id="stop561" />
    </linearGradient>
    <path
       d="M 147.699,63.342 L 45.101,90.832 C 24.936,96.237 16.674,128.594 26.293,164.494 C 35.913,200.395 59.245,224.285 79.412,218.882 L 186.872,190.088 L 152.561,62.039 L 147.699,63.342 z "
       style="fill:url(#XMLID_2_);stroke:none"
       id="path565" />
    <linearGradient
       x1="95.139603"
       y1="128.9995"
       x2="144.2132"
       y2="244.763"
       id="XMLID_3_"
       gradientUnits="userSpaceOnUse"
       spreadMethod="pad">
      <stop
         style="stop-color:#dfdfdf;stop-opacity:1;"
         offset="0.00000000"
         id="stop567" />
      <stop
         style="stop-color:#828282;stop-opacity:1;"
         offset="1.00000000"
         id="stop568" />
    </linearGradient>
    <path
       d="M 46.403,95.694 C 29.227,100.297 22.399,130.518 31.155,163.19 C 39.909,195.864 60.932,218.622 78.108,214.021 L 180.707,186.529 L 149.002,68.204 L 46.403,95.694 z "
       style="fill:url(#XMLID_3_);stroke:none"
       id="path572" />
    <linearGradient
       x1="106.7593"
       y1="90.512199"
       x2="106.7593"
       y2="186.1459"
       id="XMLID_4_"
       gradientUnits="userSpaceOnUse"
       spreadMethod="pad">
      <stop
         style="stop-color:#ffffff;stop-opacity:1;"
         offset="0.00000000"
         id="stop574" />
      <stop
         style="stop-color:#b2b2b2;stop-opacity:1;"
         offset="1.00000000"
         id="stop575" />
    </linearGradient>
    <path
       d="M 51.121,98.885 C 34.549,103.326 27.961,132.486 36.407,164.011 C 44.854,195.537 65.139,217.496 81.713,213.055 L 180.707,186.53 L 150.115,72.36 L 51.121,98.885 z "
       style="fill:url(#XMLID_4_);stroke:none"
       id="path579" />
    <path
       d="M 79.412,209.882 C 67.165,213.163 53.757,205.629 42.955,191.175 C 53.107,207.711 66.486,217.135 78.108,214.022 L 180.707,186.53 L 179.76,182.995 L 79.412,209.882 z "
       style="fill:#999999;stroke:none"
       id="path580" />
    <linearGradient
       x1="149.0088"
       y1="20.835899"
       x2="149.0088"
       y2="235.1646"
       id="XMLID_5_"
       gradientUnits="userSpaceOnUse"
       spreadMethod="pad">
      <stop
         style="stop-color:#949494;stop-opacity:1;"
         offset="0.00000000"
         id="stop582" />
      <stop
         style="stop-color:#616161;stop-opacity:1;"
         offset="1.00000000"
         id="stop583" />
    </linearGradient>
    <path
       d="M 136.169,22.232 C 136.169,22.232 133.767,22.985 133.148,23.179 C 132.874,23.25 120.774,26.357 120.774,26.357 C 86.118,35.644 64.355,72.594 64.355,115.845 C 64.355,127.239 65.865,139.07 69.048,150.948 C 84.313,207.915 132.353,244.717 176.139,232.984 C 180.616,231.784 184.331,230.703 187.532,229.677 C 188.356,229.509 191.534,228.86 191.534,228.86 C 217.875,221.801 233.663,190.434 233.663,151.109 C 233.663,138.79 232.114,125.69 228.855,112.311 C 228.853,112.311 227.867,108.393 227.867,108.393 L 226.689,104.251 C 210.454,49.023 170.688,12.983 136.169,22.232 z "
       style="fill:url(#XMLID_5_);stroke:none"
       id="path587" />
    <linearGradient
       x1="199.19431"
       y1="40.438999"
       x2="199.19431"
       y2="244.2944"
       id="XMLID_6_"
       gradientUnits="userSpaceOnUse"
       gradientTransform="matrix(0.965900,-0.258800,0.258800,0.965900,-80.78880,43.71060)"
       spreadMethod="pad">
      <stop
         style="stop-color:#dfdfdf;stop-opacity:1;"
         offset="0.00000000"
         id="stop589" />
      <stop
         style="stop-color:#cccccc;stop-opacity:1;"
         offset="1.00000000"
         id="stop590" />
    </linearGradient>
    <path
       d="M 73.909,149.646 C 88.479,204.02 133.665,239.155 174.836,228.124 C 207.654,219.331 198.164,217.463 206.612,207.41 C 225.812,184.565 233.121,147.457 223.005,109.698 C 211.528,66.869 181.059,35.978 148.515,30.18 C 139.743,28.617 157.326,21.776 122.077,31.221 C 80.905,42.252 59.341,95.272 73.909,149.646 z "
       style="fill:url(#XMLID_6_);stroke:none"
       id="path594" />
    <linearGradient
       x1="147.49409"
       y1="198.4893"
       x2="118.9936"
       y2="226.98981"
       id="XMLID_7_"
       gradientUnits="userSpaceOnUse"
       spreadMethod="pad">
      <stop
         style="stop-color:#b2b2b2;stop-opacity:1;"
         offset="0.00000000"
         id="stop596" />
      <stop
         style="stop-color:#828282;stop-opacity:1;"
         offset="1.00000000"
         id="stop597" />
    </linearGradient>
    <path
       d="M 191.533,219.86 C 191.533,219.86 188.355,220.509 187.531,220.677 C 184.331,221.702 180.615,222.783 176.138,223.984 C 144.743,232.396 111.163,215.855 89.044,184.823 C 109.756,218.122 143.46,236.529 174.835,228.123 C 196.143,222.414 199.615,219.624 201.742,215.617 C 198.544,217.455 195.142,218.894 191.533,219.86 z "
       style="fill:url(#XMLID_7_);stroke:none"
       id="path601" />
    <linearGradient
       x1="153.89259"
       y1="142.3652"
       x2="276.37299"
       y2="142.3652"
       id="XMLID_8_"
       gradientUnits="userSpaceOnUse"
       gradientTransform="matrix(0.965900,-0.258800,0.258800,0.965900,-80.78880,43.71060)"
       spreadMethod="pad">
      <stop
         style="stop-color:#ffffff;stop-opacity:1;"
         offset="0.00000000"
         id="stop603" />
      <stop
         style="stop-color:#949494;stop-opacity:1;"
         offset="1.00000000"
         id="stop604" />
    </linearGradient>
    <path
       d="M 104.701,141.396 C 119.27,195.77 157.562,232.751 190.231,223.998 C 222.9,215.245 237.573,164.07 223.004,109.698 C 208.434,55.323 170.14,18.343 137.471,27.095 C 104.804,35.847 90.132,87.022 104.701,141.396 z "
       style="fill:url(#XMLID_8_);stroke:none"
       id="path608" />
    <path
       d="M 137.472,32.127 C 170.141,23.374 208.435,60.355 223.005,114.73 C 226.597,128.134 228.403,141.34 228.609,153.768 C 228.869,139.903 227.086,124.926 223.005,109.697 C 208.435,55.322 170.141,18.342 137.472,27.094 C 112.858,33.689 98.468,64.372 99.097,102.357 C 99.766,66.718 113.954,38.429 137.472,32.127 z "
       style="fill:#ffffff;stroke:none"
       id="path609" />
    <linearGradient
       x1="156.4102"
       y1="142.3662"
       x2="267.9834"
       y2="142.3662"
       id="XMLID_9_"
       gradientUnits="userSpaceOnUse"
       gradientTransform="matrix(0.965900,-0.258800,0.258800,0.965900,-80.78880,43.71060)"
       spreadMethod="pad">
      <stop
         style="stop-color:#cccccc;stop-opacity:1;"
         offset="0.00000000"
         id="stop611" />
      <stop
         style="stop-color:#828282;stop-opacity:1;"
         offset="0.84829998"
         id="stop612" />
      <stop
         style="stop-color:#616161;stop-opacity:1;"
         offset="1.00000000"
         id="stop613" />
    </linearGradient>
    <path
       d="M 107.133,140.744 C 120.704,191.394 155.831,225.988 185.589,218.013 C 215.35,210.039 228.474,162.517 214.902,111.867 C 201.331,61.217 166.204,26.624 136.444,34.598 C 106.685,42.571 93.561,90.094 107.133,140.744 z "
       style="fill:url(#XMLID_9_);stroke:none"
       id="path619" />
    <linearGradient
       x1="242.81641"
       y1="142.3662"
       x2="184.0947"
       y2="142.3662"
       id="XMLID_10_"
       gradientUnits="userSpaceOnUse"
       gradientTransform="matrix(0.965900,-0.258800,0.258800,0.965900,-80.78880,43.71060)"
       spreadMethod="pad">
      <stop
         style="stop-color:#cccccc;stop-opacity:1;"
         offset="0.00000000"
         id="stop621" />
      <stop
         style="stop-color:#c8c8c8;stop-opacity:1;"
         offset="0.22430000"
         id="stop622" />
      <stop
         style="stop-color:#bbbbbb;stop-opacity:1;"
         offset="0.46250001"
         id="stop623" />
      <stop
         style="stop-color:#a6a6a6;stop-opacity:1;"
         offset="0.70709997"
         id="stop624" />
      <stop
         style="stop-color:#888888;stop-opacity:1;"
         offset="0.95480001"
         id="stop625" />
      <stop
         style="stop-color:#828282;stop-opacity:1;"
         offset="1.00000000"
         id="stop626" />
    </linearGradient>
    <path
       d="M 133.873,133.578 C 140.857,159.648 159.216,177.378 174.879,173.182 C 190.543,168.985 197.578,144.451 190.592,118.381 C 183.608,92.311 165.247,74.582 149.583,78.778 C 133.922,82.974 126.887,107.509 133.873,133.578 z "
       style="fill:url(#XMLID_10_);stroke:none"
       id="path630" />
    <linearGradient
       x1="242.81641"
       y1="142.3662"
       x2="188.28709"
       y2="142.3662"
       id="XMLID_11_"
       gradientUnits="userSpaceOnUse"
       gradientTransform="matrix(0.965900,-0.258800,0.258800,0.965900,-80.78880,43.71060)"
       spreadMethod="pad">
      <stop
         style="stop-color:#ffffff;stop-opacity:1;"
         offset="0.00000000"
         id="stop632" />
      <stop
         style="stop-color:#dadada;stop-opacity:1;"
         offset="1.00000000"
         id="stop633" />
    </linearGradient>
    <path
       d="M 137.923,132.494 C 144.408,156.7 161.458,173.166 176.001,169.267 C 190.546,165.371 197.077,142.586 190.592,118.38 C 184.107,94.174 167.057,77.708 152.513,81.606 C 137.969,85.503 131.438,108.287 137.923,132.494 z "
       style="fill:url(#XMLID_11_);stroke:none"
       id="path637" />
    <radialGradient
       cx="250.3643"
       cy="124.3267"
       fx="250.3643"
       fy="124.3267"
       r="71.779099"
       id="XMLID_12_"
       gradientUnits="userSpaceOnUse"
       gradientTransform="matrix(0.965900,-0.258800,0.258800,0.965900,-80.78880,43.71060)"
       spreadMethod="pad">
      <stop
         style="stop-color:#ffffff;stop-opacity:1;"
         offset="0.00000000"
         id="stop639" />
      <stop
         style="stop-color:#b2b2b2;stop-opacity:1;"
         offset="1.00000000"
         id="stop640" />
    </radialGradient>
    <path
       d="M 145.217,130.538 C 150.804,151.394 165.491,165.579 178.021,162.222 C 190.553,158.866 196.181,139.236 190.592,118.381 C 185.004,97.527 170.317,83.341 157.784,86.698 C 145.255,90.056 139.627,109.685 145.217,130.538 z "
       style="fill:url(#XMLID_12_);stroke:none"
       id="path644" />
    <path
       d="M 256,256 L 0,256 L 0,0 L 256,0 L 256,256 z "
       style="fill:none;stroke:none"
       id="path645" />
  </g>
</svg>
