<?xml version="1.0" encoding="UTF-8" standalone="no"?>
<!DOCTYPE svg PUBLIC "-//W3C//DTD SVG 20010904//EN"
"http://www.w3.org/TR/2001/REC-SVG-20010904/DTD/svg10.dtd">
<!-- Created with Sodipodi ("http://www.sodipodi.com/") -->
<svg
   width="48pt"
   height="48pt"
   viewBox="0 0 204.756 242.184"
   style="overflow:visible;enable-background:new 0 0 204.756 242.184"
   xml:space="preserve"
   xmlns="http://www.w3.org/2000/svg"
   xmlns:xml="http://www.w3.org/XML/1998/namespace"
   xmlns:sodipodi="http://sodipodi.sourceforge.net/DTD/sodipodi-0.dtd"
   xmlns:xlink="http://www.w3.org/1999/xlink"
   id="svg2157"
   sodipodi:version="0.32pre"
   sodipodi:docname="/home/cschalle/gnome-themes-extras/Nuvola/icons/scalable/emblems/emblem-package.svg"
   sodipodi:docbase="/home/cschalle/gnome-themes-extras/Nuvola/icons/scalable/emblems">
  <defs
     id="defs2291" />
  <sodipodi:namedview
     id="base" />
  <g
     id="g2215"
     style="font-size:12;stroke:#000000;"
     transform="matrix(1.07012,0,0,1.36066,-1.88124,-82.6581)">
    <path
       style="fill:#BDD0E5;stroke:none;"
       d="M97.521,95.263l-30.335,4.691c0,0-30.409,8.072-30.563,8.113c-0.149,0.031-5.796,1.219-5.796,1.219     l0.861,100.906l86.832,18.991l56.357-24.279l3.05-93.156c0,0-1.614-3.388-2.552-3.119c-1.359-0.236-77.357-13.442-77.357-13.442     L97.521,95.263z"
       id="path2216" />
    <linearGradient
       id="XMLID_5_"
       gradientUnits="userSpaceOnUse"
       x1="48.7954"
       y1="103.6733"
       x2="196.73"
       y2="251.6079">
      <stop
         offset="0"
         style="stop-color:#9D9282"
         id="stop2218" />
      <stop
         offset="1"
         style="stop-color:#72634D"
         id="stop2219" />
    </linearGradient>
    <path
       style="fill:url(#XMLID_5_);stroke:none;"
       d="M93.521,90.263l-30.335,4.691c0,0-30.409,8.072-30.563,8.113c-0.149,0.031-5.796,1.219-5.796,1.219     l0.861,100.906l86.832,18.991l56.357-24.279l3.05-93.156c0,0-1.614-3.388-2.552-3.119c-1.359-0.236-77.357-13.442-77.357-13.442     L93.521,90.263z"
       id="path2223" />
    <radialGradient
       id="XMLID_6_"
       cx="-318.7246"
       cy="158.4873"
       r="85.76"
       fx="-318.7246"
       fy="158.4873"
       gradientTransform="matrix(1 0 0 1 358.811 2.1875)"
       gradientUnits="userSpaceOnUse">
      <stop
         offset="0"
         style="stop-color:#ECE0DA"
         id="stop2225" />
      <stop
         offset="0.3152"
         style="stop-color:#E9DCD6"
         id="stop2226" />
      <stop
         offset="0.6427"
         style="stop-color:#E0D0C9"
         id="stop2227" />
      <stop
         offset="0.7247"
         style="stop-color:#DDCCC5"
         id="stop2228" />
      <stop
         offset="1"
         style="stop-color:#C1ADA2"
         id="stop2229" />
    </radialGradient>
    <path
       style="fill:url(#XMLID_6_);stroke:none;"
       d="M114.204,220.979l-83.473-18.256l-0.819-95.955l84.292,16.441V220.979z"
       id="path2239" />
    <linearGradient
       id="XMLID_7_"
       gradientUnits="userSpaceOnUse"
       x1="114.9502"
       y1="163.873"
       x2="193.9502"
       y2="163.873">
      <stop
         offset="0"
         style="stop-color:#DDCCC5"
         id="stop2241" />
      <stop
         offset="0.2978"
         style="stop-color:#C1ADA2"
         id="stop2242" />
      <stop
         offset="1"
         style="stop-color:#8A7269"
         id="stop2243" />
    </linearGradient>
    <path
       style="fill:url(#XMLID_7_);stroke:none;"
       d="M114.204,220.979l54.376-23.771l2.965-90.44l-57.341,16.441V220.979z"
       id="path2249" />
    <linearGradient
       id="XMLID_8_"
       gradientUnits="userSpaceOnUse"
       x1="77.9956"
       y1="171.0703"
       x2="49.6092"
       y2="142.6842">
      <stop
         offset="0"
         style="stop-color:#ECE0DA"
         id="stop2251" />
      <stop
         offset="1"
         style="stop-color:#FFFFFF"
         id="stop2252" />
    </linearGradient>
    <path
       style="fill:url(#XMLID_8_);stroke:none;"
       d="M30.716,200.93c12.813-4.556,25.172-10.833,33.559-22.673c14.134-19.481,26.125-39.677,41.319-56.727     l-75.682-14.763L30.716,200.93z"
       id="path2256" />
    <linearGradient
       id="XMLID_9_"
       gradientUnits="userSpaceOnUse"
       x1="-258.5039"
       y1="110.0479"
       x2="-258.1295"
       y2="105.1811"
       gradientTransform="matrix(1 0 0 1 358.811 2.1875)">
      <stop
         offset="0"
         style="stop-color:#8A7269"
         id="stop2258" />
      <stop
         offset="0.1753"
         style="stop-color:#836C60"
         id="stop2259" />
      <stop
         offset="0.4555"
         style="stop-color:#6F5B49"
         id="stop2260" />
      <stop
         offset="0.8038"
         style="stop-color:#4F3F23"
         id="stop2261" />
      <stop
         offset="1"
         style="stop-color:#3A2D0B"
         id="stop2262" />
    </linearGradient>
    <path
       style="fill:url(#XMLID_9_);stroke:#8A7269;stroke-width:5;"
       d="M114.204,123.209l-84.292-16.441L93.99,93.29l77.554,13.478L114.204,123.209z"
       id="path2272" />
    <linearGradient
       id="XMLID_10_"
       gradientUnits="userSpaceOnUse"
       x1="91.3506"
       y1="118.3447"
       x2="147.7158"
       y2="83.627">
      <stop
         offset="0"
         style="stop-color:#DDCCC5"
         id="stop2274" />
      <stop
         offset="1"
         style="stop-color:#BCAEA5"
         id="stop2275" />
    </linearGradient>
    <path
       style="fill:url(#XMLID_10_);stroke:none;"
       d="M172.157,106.155L94.603,92.678l-30.175,4.666l77.195,16.542L172.157,106.155z"
       id="path2279" />
    <linearGradient
       id="XMLID_11_"
       gradientUnits="userSpaceOnUse"
       x1="79.6528"
       y1="104.4727"
       x2="129.6874"
       y2="154.5072">
      <stop
         offset="0"
         style="stop-color:#ECE0DA"
         id="stop2281" />
      <stop
         offset="1"
         style="stop-color:#C1ADA2"
         id="stop2282" />
    </linearGradient>
    <path
       style="fill:url(#XMLID_11_);stroke:none;"
       d="M114.204,123.343l-83.586-16.574l33.197-8.813l77.196,16.543L114.204,123.343z"
       id="path2286" />
  </g>
</svg>
