<?xml version="1.0" encoding="UTF-8" standalone="no"?>
<!DOCTYPE svg PUBLIC "-//W3C//DTD SVG 1.0//EN"
"http://www.w3.org/TR/2001/REC-SVG-20010904/DTD/svg10.dtd">
<!-- Created with Sodipodi ("http://www.sodipodi.com/") -->
<svg
   xmlns="http://www.w3.org/2000/svg"
   xmlns:xlink="http://www.w3.org/1999/xlink"
   version="1.0"
   x="0"
   y="0"
   width="40"
   height="40"
   viewBox="0 0 129 123"
   id="svg602"
   xml:space="preserve"><defs
   id="defs871" /><g
   transform="matrix(1.065784,0,0,1.065784,-0.243565,-0.235328)"
   style="font-size:12;stroke:#000000;"
   id="g606"><linearGradient
   x1="101.514603"
   y1="108.441399"
   x2="21.1116009"
   y2="28.0384007"
   id="XMLID_1_"
   gradientUnits="userSpaceOnUse"><stop
   style="stop-color:#c09e2d;stop-opacity:1;"
   offset="0"
   id="stop608" /><stop
   style="stop-color:#ffffbf;stop-opacity:1;"
   offset="1"
   id="stop609" /><a:midPointStop
   offset="0"
   style="stop-color:#C09E2D"
   id="midPointStop610" /><a:midPointStop
   offset="0.5"
   style="stop-color:#C09E2D"
   id="midPointStop611" /><a:midPointStop
   offset="1"
   style="stop-color:#FFFFBF"
   id="midPointStop612" /></linearGradient><path
   d="M 59.974 4.685 C 60.71 3.208 61.915 3.208 62.652 4.685 L 78.338 36.144 C 79.074 37.621 81.012 39.028 82.644 39.272 L 117.41 44.469 C 119.042 44.713 119.414 45.859 118.237 47.015 L 93.167 71.654 C 91.99 72.81 91.25 75.088 91.522 76.716 L 97.322 111.386 C 97.594 113.014 96.62 113.722 95.156 112.96 L 63.975 96.73 C 62.511 95.968 60.117 95.968 58.653 96.73 L 27.473 112.96 C 26.01 113.722 25.035 113.014 25.307 111.386 L 31.108 76.716 C 31.38 75.088 30.64 72.811 29.463 71.654 L 4.39 47.014 C 3.213 45.858 3.585 44.712 5.217 44.468 L 39.984 39.271 C 41.616 39.027 43.553 37.62 44.29 36.143 L 59.974 4.685 z "
   style="fill:url(#XMLID_1_);stroke:none;"
   id="path613" /><path
   d="M 59.974 4.685 C 60.71 3.208 61.915 3.208 62.652 4.685 L 78.338 36.144 C 79.074 37.621 81.012 39.028 82.644 39.272 L 117.41 44.469 C 119.042 44.713 119.414 45.859 118.237 47.015 L 93.167 71.654 C 91.99 72.81 91.25 75.088 91.522 76.716 L 97.322 111.386 C 97.594 113.014 96.62 113.722 95.156 112.96 L 63.975 96.73 C 62.511 95.968 60.117 95.968 58.653 96.73 L 27.473 112.96 C 26.01 113.722 25.035 113.014 25.307 111.386 L 31.108 76.716 C 31.38 75.088 30.64 72.811 29.463 71.654 L 4.39 47.014 C 3.213 45.858 3.585 44.712 5.217 44.468 L 39.984 39.271 C 41.616 39.027 43.553 37.62 44.29 36.143 L 59.974 4.685 z "
   style="fill:none;stroke-linejoin:round;"
   id="path614" /></g><g
   transform="matrix(1.065784,0,0,1.065784,-0.243565,-0.235328)"
   style="font-size:12;opacity:0.3;stroke:#000000;"
   id="g615"><path
   d="M 17.7 44.034 C 16.215 43.315 16.337 42.538 17.971 42.308 L 39.73 39.245 C 41.364 39.015 43.303 37.619 44.04 36.142 L 59.724 4.685 C 60.46 3.208 61.665 3.208 62.402 4.685 L 78.088 36.144 C 78.824 37.621 80.762 39.028 82.394 39.272 L 117.16 44.469 C 118.792 44.713 119.164 45.859 117.987 47.015 L 92.917 71.654 C 91.74 72.81 91 75.088 91.272 76.716 L 91.907 80.513 C 92.179 82.141 91.714 82.311 90.872 80.892 C 90.872 80.892 77.002 57.501 61.252 57.501 C 45.502 57.501 17.7 44.034 17.7 44.034 z "
   style="fill:#ffffff;stroke:none;"
   id="path616" /></g><g
   transform="matrix(1.065784,0,0,1.065784,-0.243565,-0.235328)"
   style="font-size:12;stroke:#000000;"
   id="g617"><radialGradient
   cx="66.3643036"
   cy="71.8887024"
   r="22.1361008"
   fx="66.3643036"
   fy="71.8887024"
   id="XMLID_2_"
   gradientUnits="userSpaceOnUse"><stop
   style="stop-color:#000000;stop-opacity:1;"
   offset="0.1"
   id="stop619" /><stop
   style="stop-color:#000000;stop-opacity:1;"
   offset="0.1108"
   id="stop620" /><stop
   style="stop-color:#060200;stop-opacity:1;"
   offset="0.1525"
   id="stop621" /><stop
   style="stop-color:#130b01;stop-opacity:1;"
   offset="0.1996"
   id="stop622" /><stop
   style="stop-color:#201303;stop-opacity:1;"
   offset="0.2529"
   id="stop623" /><stop
   style="stop-color:#2d1d04;stop-opacity:1;"
   offset="0.3152"
   id="stop624" /><stop
   style="stop-color:#372505;stop-opacity:1;"
   offset="0.39219999"
   id="stop625" /><stop
   style="stop-color:#3e2a05;stop-opacity:1;"
   offset="0.50019997"
   id="stop626" /><stop
   style="stop-color:#3f2b05;stop-opacity:1;"
   offset="0.80000001"
   id="stop627" /><stop
   style="stop-color:#000000;stop-opacity:1;"
   offset="1"
   id="stop628" /><a:midPointStop
   offset="0.1"
   style="stop-color:#000000"
   id="midPointStop629" /><a:midPointStop
   offset="0.13"
   style="stop-color:#000000"
   id="midPointStop630" /><a:midPointStop
   offset="0.8"
   style="stop-color:#3F2B05"
   id="midPointStop631" /><a:midPointStop
   offset="0.5"
   style="stop-color:#3F2B05"
   id="midPointStop632" /><a:midPointStop
   offset="1"
   style="stop-color:#000000"
   id="midPointStop633" /></radialGradient><path
   d="M 37.86 57.636 C 37.86 73.378 50.622 86.141 66.365 86.141 C 82.107 86.141 94.869 73.378 94.869 57.636 "
   style="opacity:0.25;fill:url(#XMLID_2_);stroke:none;"
   id="path634" /><radialGradient
   cx="61.9902"
   cy="62.0098"
   r="0.95020002"
   fx="61.9902"
   fy="62.0098"
   id="XMLID_3_"
   gradientUnits="userSpaceOnUse"><stop
   style="stop-color:#c4e679;stop-opacity:1;"
   offset="0"
   id="stop636" /><stop
   style="stop-color:#a9c064;stop-opacity:1;"
   offset="2.40000002e-2"
   id="stop637" /><stop
   style="stop-color:#6a6f3c;stop-opacity:1;"
   offset="9.43000019e-2"
   id="stop638" /><stop
   style="stop-color:#3e3c22;stop-opacity:1;"
   offset="0.17030001"
   id="stop639" /><stop
   style="stop-color:#211d12;stop-opacity:1;"
   offset="0.2502"
   id="stop640" /><stop
   style="stop-color:#100d09;stop-opacity:1;"
   offset="0.3348"
   id="stop641" /><stop
   style="stop-color:#060402;stop-opacity:1;"
   offset="0.42559999"
   id="stop642" /><stop
   style="stop-color:#010000;stop-opacity:1;"
   offset="0.52499998"
   id="stop643" /><stop
   style="stop-color:#000000;stop-opacity:1;"
   offset="0.63739997"
   id="stop644" /><stop
   style="stop-color:#000000;stop-opacity:1;"
   offset="0.77359998"
   id="stop645" /><stop
   style="stop-color:#000000;stop-opacity:1;"
   offset="1"
   id="stop646" /><a:midPointStop
   offset="0"
   style="stop-color:#C4E679"
   id="midPointStop647" /><a:midPointStop
   offset="0.2"
   style="stop-color:#C4E679"
   id="midPointStop648" /><a:midPointStop
   offset="1"
   style="stop-color:#000000"
   id="midPointStop649" /></radialGradient><path
   d="M 61.04 62.01 C 61.04 62.534 61.465 62.96 61.99 62.96 C 62.515 62.96 62.94 62.534 62.94 62.01 C 62.94 61.485 62.515 61.06 61.99 61.06 C 61.465 61.06 61.04 61.484 61.04 62.01 z "
   style="fill:url(#XMLID_3_);stroke:none;"
   id="path650" /><radialGradient
   cx="61.4169998"
   cy="62.5830002"
   r="0.95020002"
   fx="61.4169998"
   fy="62.5830002"
   id="XMLID_4_"
   gradientUnits="userSpaceOnUse"><stop
   style="stop-color:#c4e679;stop-opacity:1;"
   offset="0"
   id="stop652" /><stop
   style="stop-color:#a9c064;stop-opacity:1;"
   offset="2.40000002e-2"
   id="stop653" /><stop
   style="stop-color:#6a6f3c;stop-opacity:1;"
   offset="9.43000019e-2"
   id="stop654" /><stop
   style="stop-color:#3e3c22;stop-opacity:1;"
   offset="0.17030001"
   id="stop655" /><stop
   style="stop-color:#211d12;stop-opacity:1;"
   offset="0.2502"
   id="stop656" /><stop
   style="stop-color:#100d09;stop-opacity:1;"
   offset="0.3348"
   id="stop657" /><stop
   style="stop-color:#060402;stop-opacity:1;"
   offset="0.42559999"
   id="stop658" /><stop
   style="stop-color:#010000;stop-opacity:1;"
   offset="0.52499998"
   id="stop659" /><stop
   style="stop-color:#000000;stop-opacity:1;"
   offset="0.63739997"
   id="stop660" /><stop
   style="stop-color:#000000;stop-opacity:1;"
   offset="0.77359998"
   id="stop661" /><stop
   style="stop-color:#000000;stop-opacity:1;"
   offset="1"
   id="stop662" /><a:midPointStop
   offset="0"
   style="stop-color:#C4E679"
   id="midPointStop663" /><a:midPointStop
   offset="0.2"
   style="stop-color:#C4E679"
   id="midPointStop664" /><a:midPointStop
   offset="1"
   style="stop-color:#000000"
   id="midPointStop665" /></radialGradient><path
   d="M 60.467 62.583 C 60.467 63.107 60.892 63.533 61.416 63.533 C 61.941 63.533 62.367 63.107 62.367 62.583 C 62.367 62.059 61.941 61.633 61.416 61.633 C 60.892 61.633 60.467 62.059 60.467 62.583 z "
   style="fill:url(#XMLID_4_);stroke:none;"
   id="path666" /><radialGradient
   cx="61.6142998"
   cy="62.3852997"
   r="6.99940014"
   fx="61.6142998"
   fy="62.3852997"
   id="XMLID_5_"
   gradientUnits="userSpaceOnUse"><stop
   style="stop-color:#000000;stop-opacity:1;"
   offset="5.00000007e-2"
   id="stop668" /><stop
   style="stop-color:#020501;stop-opacity:1;"
   offset="0.1912"
   id="stop669" /><stop
   style="stop-color:#0c1607;stop-opacity:1;"
   offset="0.33250001"
   id="stop670" /><stop
   style="stop-color:#152b0c;stop-opacity:1;"
   offset="0.46380001"
   id="stop671" /><stop
   style="stop-color:#1d3f11;stop-opacity:1;"
   offset="0.5812"
   id="stop672" /><stop
   style="stop-color:#244e14;stop-opacity:1;"
   offset="0.68059999"
   id="stop673" /><stop
   style="stop-color:#265315;stop-opacity:1;"
   offset="0.75"
   id="stop674" /><stop
   style="stop-color:#2b5413;stop-opacity:1;"
   offset="0.75529999"
   id="stop675" /><stop
   style="stop-color:#4a580a;stop-opacity:1;"
   offset="0.7931"
   id="stop676" /><stop
   style="stop-color:#585702;stop-opacity:1;"
   offset="0.82440001"
   id="stop677" /><stop
   style="stop-color:#5d5600;stop-opacity:1;"
   offset="0.84750003"
   id="stop678" /><stop
   style="stop-color:#5e5500;stop-opacity:1;"
   offset="0.86000001"
   id="stop679" /><stop
   style="stop-color:#5b5200;stop-opacity:1;"
   offset="0.88010001"
   id="stop680" /><stop
   style="stop-color:#544a00;stop-opacity:1;"
   offset="0.898"
   id="stop681" /><stop
   style="stop-color:#473c01;stop-opacity:1;"
   offset="0.91509998"
   id="stop682" /><stop
   style="stop-color:#382d02;stop-opacity:1;"
   offset="0.93169999"
   id="stop683" /><stop
   style="stop-color:#271d02;stop-opacity:1;"
   offset="0.9479"
   id="stop684" /><stop
   style="stop-color:#160f01;stop-opacity:1;"
   offset="0.96390003"
   id="stop685" /><stop
   style="stop-color:#080400;stop-opacity:1;"
   offset="0.97960001"
   id="stop686" /><stop
   style="stop-color:#000000;stop-opacity:1;"
   offset="0.99479997"
   id="stop687" /><stop
   style="stop-color:#000000;stop-opacity:1;"
   offset="1"
   id="stop688" /><a:midPointStop
   offset="0.05"
   style="stop-color:#000000"
   id="midPointStop689" /><a:midPointStop
   offset="0.37"
   style="stop-color:#000000"
   id="midPointStop690" /><a:midPointStop
   offset="0.75"
   style="stop-color:#265315"
   id="midPointStop691" /><a:midPointStop
   offset="0.43"
   style="stop-color:#265315"
   id="midPointStop692" /><a:midPointStop
   offset="0.86"
   style="stop-color:#5E5500"
   id="midPointStop693" /><a:midPointStop
   offset="0.73"
   style="stop-color:#5E5500"
   id="midPointStop694" /><a:midPointStop
   offset="1"
   style="stop-color:#000000"
   id="midPointStop695" /></radialGradient><path
   d="M 54.488 62.385 C 54.488 66.321 57.678 69.512 61.614 69.512 C 65.551 69.512 68.74 66.321 68.74 62.385 C 68.74 58.449 65.551 55.259 61.614 55.259 C 57.679 55.259 54.488 58.449 54.488 62.385 z "
   style="opacity:0.2;fill:url(#XMLID_5_);stroke:none;"
   id="path696" /><path
   d="M 65.375 58.625 L 61.416 62.583 "
   style="fill:none;stroke:none;"
   id="path697" /><radialGradient
   cx="65.375"
   cy="58.625"
   r="19.0028992"
   fx="65.375"
   fy="58.625"
   id="XMLID_6_"
   gradientUnits="userSpaceOnUse"><stop
   style="stop-color:#000000;stop-opacity:1;"
   offset="0"
   id="stop699" /><stop
   style="stop-color:#87210e;stop-opacity:1;"
   offset="0.73000002"
   id="stop700" /><stop
   style="stop-color:#000000;stop-opacity:1;"
   offset="1"
   id="stop701" /><a:midPointStop
   offset="0"
   style="stop-color:#000000"
   id="midPointStop702" /><a:midPointStop
   offset="0.5"
   style="stop-color:#000000"
   id="midPointStop703" /><a:midPointStop
   offset="0.73"
   style="stop-color:#87210E"
   id="midPointStop704" /><a:midPointStop
   offset="0.5"
   style="stop-color:#87210E"
   id="midPointStop705" /><a:midPointStop
   offset="1"
   style="stop-color:#000000"
   id="midPointStop706" /></radialGradient><path
   d="M 46.372 58.625 C 46.372 69.12 54.88 77.628 65.375 77.628 C 75.87 77.628 84.378 69.12 84.378 58.625 C 84.378 48.13 75.87 39.622 65.375 39.622 C 54.88 39.622 46.372 48.13 46.372 58.625 z "
   style="opacity:0.15;fill:url(#XMLID_6_);stroke:none;"
   id="path707" /><radialGradient
   cx="65.375"
   cy="58.625"
   r="9.00020027"
   fx="65.375"
   fy="58.625"
   id="XMLID_7_"
   gradientUnits="userSpaceOnUse"><stop
   style="stop-color:#ffffff;stop-opacity:1;"
   offset="0.15000001"
   id="stop709" /><stop
   style="stop-color:#d8bab5;stop-opacity:1;"
   offset="0.21340001"
   id="stop710" /><stop
   style="stop-color:#b17876;stop-opacity:1;"
   offset="0.2931"
   id="stop711" /><stop
   style="stop-color:#985053;stop-opacity:1;"
   offset="0.36199999"
   id="stop712" /><stop
   style="stop-color:#8a3b41;stop-opacity:1;"
   offset="0.41659999"
   id="stop713" /><stop
   style="stop-color:#85333c;stop-opacity:1;"
   offset="0.44999999"
   id="stop714" /><stop
   style="stop-color:#671a1b;stop-opacity:1;"
   offset="0.5442"
   id="stop715" /><stop
   style="stop-color:#410908;stop-opacity:1;"
   offset="0.64719999"
   id="stop716" /><stop
   style="stop-color:#1e0500;stop-opacity:1;"
   offset="0.73619998"
   id="stop717" /><stop
   style="stop-color:#0e0000;stop-opacity:1;"
   offset="0.80680001"
   id="stop718" /><stop
   style="stop-color:#000000;stop-opacity:1;"
   offset="0.85000002"
   id="stop719" /><stop
   style="stop-color:#090000;stop-opacity:1;"
   offset="0.85600001"
   id="stop720" /><stop
   style="stop-color:#140000;stop-opacity:1;"
   offset="0.86229998"
   id="stop721" /><stop
   style="stop-color:#230600;stop-opacity:1;"
   offset="0.86860001"
   id="stop722" /><stop
   style="stop-color:#400301;stop-opacity:1;"
   offset="0.875"
   id="stop723" /><stop
   style="stop-color:#620902;stop-opacity:1;"
   offset="0.88150001"
   id="stop724" /><stop
   style="stop-color:#891205;stop-opacity:1;"
   offset="0.88800001"
   id="stop725" /><stop
   style="stop-color:#b4200b;stop-opacity:1;"
   offset="0.89450002"
   id="stop726" /><stop
   style="stop-color:#da3011;stop-opacity:1;"
   offset="0.89999998"
   id="stop727" /><stop
   style="stop-color:#bf250c;stop-opacity:1;"
   offset="0.90630001"
   id="stop728" /><stop
   style="stop-color:#971607;stop-opacity:1;"
   offset="0.91600001"
   id="stop729" /><stop
   style="stop-color:#720c03;stop-opacity:1;"
   offset="0.92619997"
   id="stop730" /><stop
   style="stop-color:#510601;stop-opacity:1;"
   offset="0.93669999"
   id="stop731" /><stop
   style="stop-color:#340200;stop-opacity:1;"
   offset="0.94749999"
   id="stop732" /><stop
   style="stop-color:#1d0300;stop-opacity:1;"
   offset="0.95880002"
   id="stop733" /><stop
   style="stop-color:#110000;stop-opacity:1;"
   offset="0.97070003"
   id="stop734" /><stop
   style="stop-color:#080000;stop-opacity:1;"
   offset="0.98379999"
   id="stop735" /><stop
   style="stop-color:#000000;stop-opacity:1;"
   offset="1"
   id="stop736" /><a:midPointStop
   offset="0.15"
   style="stop-color:#FFFFFF"
   id="midPointStop737" /><a:midPointStop
   offset="0.4"
   style="stop-color:#FFFFFF"
   id="midPointStop738" /><a:midPointStop
   offset="0.45"
   style="stop-color:#85333C"
   id="midPointStop739" /><a:midPointStop
   offset="0.4"
   style="stop-color:#85333C"
   id="midPointStop740" /><a:midPointStop
   offset="0.85"
   style="stop-color:#000000"
   id="midPointStop741" /><a:midPointStop
   offset="0.7"
   style="stop-color:#000000"
   id="midPointStop742" /><a:midPointStop
   offset="0.9"
   style="stop-color:#DA3011"
   id="midPointStop743" /><a:midPointStop
   offset="0.25"
   style="stop-color:#DA3011"
   id="midPointStop744" /><a:midPointStop
   offset="1"
   style="stop-color:#000000"
   id="midPointStop745" /></radialGradient><path
   d="M 55.874 58.625 C 55.874 63.873 60.127 68.127 65.375 68.127 C 70.623 68.127 74.877 63.873 74.877 58.625 C 74.877 53.377 70.623 49.124 65.375 49.124 C 60.127 49.124 55.874 53.377 55.874 58.625 z "
   style="opacity:0.5;fill:url(#XMLID_7_);stroke:none;"
   id="path746" /><radialGradient
   cx="65.375"
   cy="58.625"
   r="7.00029993"
   fx="65.375"
   fy="58.625"
   id="XMLID_8_"
   gradientUnits="userSpaceOnUse"><stop
   style="stop-color:#ffffff;stop-opacity:1;"
   offset="0.15000001"
   id="stop748" /><stop
   style="stop-color:#a1958d;stop-opacity:1;"
   offset="0.2437"
   id="stop749" /><stop
   style="stop-color:#584a44;stop-opacity:1;"
   offset="0.35319999"
   id="stop750" /><stop
   style="stop-color:#2b201f;stop-opacity:1;"
   offset="0.4641"
   id="stop751" /><stop
   style="stop-color:#130c0d;stop-opacity:1;"
   offset="0.57429999"
   id="stop752" /><stop
   style="stop-color:#050202;stop-opacity:1;"
   offset="0.68349999"
   id="stop753" /><stop
   style="stop-color:#000000;stop-opacity:1;"
   offset="0.79140002"
   id="stop754" /><stop
   style="stop-color:#000000;stop-opacity:1;"
   offset="0.8976"
   id="stop755" /><stop
   style="stop-color:#000000;stop-opacity:1;"
   offset="1"
   id="stop756" /><a:midPointStop
   offset="0.15"
   style="stop-color:#FFFFFF"
   id="midPointStop757" /><a:midPointStop
   offset="0.3"
   style="stop-color:#FFFFFF"
   id="midPointStop758" /><a:midPointStop
   offset="1"
   style="stop-color:#000000"
   id="midPointStop759" /></radialGradient><path
   d="M 57.457 58.625 C 57.457 62.998 61.002 66.543 65.375 66.543 C 69.748 66.543 73.293 62.998 73.293 58.625 C 73.293 54.252 69.748 50.707 65.375 50.707 C 61.002 50.707 57.457 54.252 57.457 58.625 z "
   style="fill:url(#XMLID_8_);stroke:none;"
   id="path760" /><path
   d="M 65.375 58.625 L 56.083 29.545 L 65.375 58.625 L 74.667 87.705 L 65.375 58.625 L 94.455 49.333 L 65.375 58.625 L 36.295 67.917 L 65.375 58.625 L 92.634 42.221 L 65.375 58.625 L 38.117 75.029 L 65.375 58.625 L 81.779 85.884 L 65.375 58.625 L 48.971 31.367 L 65.375 58.625 L 88.57 73.179 L 65.375 58.625 L 42.179 44.071 L 65.375 58.625 L 50.821 81.82 L 65.375 58.625 L 79.929 35.429 L 65.375 58.625 L 94.248 45.309 L 65.375 58.625 L 36.501 71.941 L 65.375 58.625 L 78.691 87.498 L 65.375 58.625 L 52.059 29.751 L 65.375 58.625 L 68.487 32.774 L 65.375 58.625 L 62.263 84.477 L 65.375 58.625 L 91.227 61.737 L 65.375 58.625 L 39.524 55.513 L 65.375 58.625 L 97.866 60.794 L 65.375 58.625 L 32.884 56.456 L 65.375 58.625 L 63.206 91.116 L 65.375 58.625 L 67.544 26.134 L 65.375 58.625 L 81.075 78.116 L 65.375 58.625 L 49.674 39.134 L 65.375 58.625 L 45.884 74.325 L 65.375 58.625 L 84.866 42.924 L 65.375 58.625 L 92.676 60.794 L 65.375 58.625 L 38.074 56.456 L 65.375 58.625 L 63.206 85.926 L 65.375 58.625 L 67.544 31.324 L 65.375 58.625 L 63.558 28.279 L 65.375 58.625 L 67.192 88.971 L 65.375 58.625 L 95.721 56.808 L 65.375 58.625 L 35.029 60.442 L 65.375 58.625 L 83.681 33.231 L 65.375 58.625 L 47.069 84.019 L 65.375 58.625 L 90.769 76.931 L 65.375 58.625 L 39.981 40.319 L 65.375 58.625 L 91.151 75.323 L 65.375 58.625 L 39.599 41.927 L 65.375 58.625 L 48.677 84.401 L 65.375 58.625 L 82.073 32.849 L 65.375 58.625 L 91.316 59.323 L 65.375 58.625 L 39.434 57.927 L 65.375 58.625 L 64.678 84.566 L 65.375 58.625 L 66.072 32.684 L 65.375 58.625 L 44.585 36.686 L 65.375 58.625 L 86.165 80.564 L 65.375 58.625 L 87.314 37.835 L 65.375 58.625 L 43.436 79.415 L 65.375 58.625 L 93.492 55.98 L 65.375 58.625 L 37.257 61.271 L 65.375 58.625 L 68.02 86.742 L 65.375 58.625 L 62.73 30.507 L 65.375 58.625 L 86.079 77.045 L 65.375 58.625 L 44.671 40.205 L 65.375 58.625 L 46.955 79.329 L 65.375 58.625 L 83.795 37.921 "
   style="opacity:0.03;fill:#ffffff;stroke:#ffffff;stroke-width:2;"
   id="path761" /><radialGradient
   cx="61.4165001"
   cy="62.5830002"
   r="13.9998999"
   fx="61.4165001"
   fy="62.5830002"
   id="XMLID_9_"
   gradientUnits="userSpaceOnUse"><stop
   style="stop-color:#000000;stop-opacity:1;"
   offset="0.63999999"
   id="stop763" /><stop
   style="stop-color:#000000;stop-opacity:1;"
   offset="0.70020002"
   id="stop764" /><stop
   style="stop-color:#000000;stop-opacity:1;"
   offset="0.72189999"
   id="stop765" /><stop
   style="stop-color:#000000;stop-opacity:1;"
   offset="0.7374"
   id="stop766" /><stop
   style="stop-color:#000000;stop-opacity:1;"
   offset="0.74989998"
   id="stop767" /><stop
   style="stop-color:#000100;stop-opacity:1;"
   offset="0.76059997"
   id="stop768" /><stop
   style="stop-color:#010300;stop-opacity:1;"
   offset="0.7701"
   id="stop769" /><stop
   style="stop-color:#020901;stop-opacity:1;"
   offset="0.77869999"
   id="stop770" /><stop
   style="stop-color:#061003;stop-opacity:1;"
   offset="0.78659999"
   id="stop771" /><stop
   style="stop-color:#0b1906;stop-opacity:1;"
   offset="0.79360002"
   id="stop772" /><stop
   style="stop-color:#10270a;stop-opacity:1;"
   offset="0.80000001"
   id="stop773" /><stop
   style="stop-color:#132308;stop-opacity:1;"
   offset="0.80339998"
   id="stop774" /><stop
   style="stop-color:#181903;stop-opacity:1;"
   offset="0.81199998"
   id="stop775" /><stop
   style="stop-color:#1b1101;stop-opacity:1;"
   offset="0.82069999"
   id="stop776" /><stop
   style="stop-color:#1b0b00;stop-opacity:1;"
   offset="0.82920003"
   id="stop777" /><stop
   style="stop-color:#1b0700;stop-opacity:1;"
   offset="0.83749998"
   id="stop778" /><stop
   style="stop-color:#1b0400;stop-opacity:1;"
   offset="0.84549999"
   id="stop779" /><stop
   style="stop-color:#1a0300;stop-opacity:1;"
   offset="0.8531"
   id="stop780" /><stop
   style="stop-color:#1b0300;stop-opacity:1;"
   offset="0.86000001"
   id="stop781" /><stop
   style="stop-color:#150000;stop-opacity:1;"
   offset="0.86320001"
   id="stop782" /><stop
   style="stop-color:#0e0000;stop-opacity:1;"
   offset="0.86940002"
   id="stop783" /><stop
   style="stop-color:#090000;stop-opacity:1;"
   offset="0.87650001"
   id="stop784" /><stop
   style="stop-color:#040000;stop-opacity:1;"
   offset="0.88410002"
   id="stop785" /><stop
   style="stop-color:#010000;stop-opacity:1;"
   offset="0.8926"
   id="stop786" /><stop
   style="stop-color:#000000;stop-opacity:1;"
   offset="0.90210003"
   id="stop787" /><stop
   style="stop-color:#000000;stop-opacity:1;"
   offset="0.91320002"
   id="stop788" /><stop
   style="stop-color:#000000;stop-opacity:1;"
   offset="0.92699999"
   id="stop789" /><stop
   style="stop-color:#000000;stop-opacity:1;"
   offset="0.94639999"
   id="stop790" /><stop
   style="stop-color:#000000;stop-opacity:1;"
   offset="1"
   id="stop791" /><a:midPointStop
   offset="0.64"
   style="stop-color:#000000"
   id="midPointStop792" /><a:midPointStop
   offset="0.87"
   style="stop-color:#000000"
   id="midPointStop793" /><a:midPointStop
   offset="0.8"
   style="stop-color:#10270A"
   id="midPointStop794" /><a:midPointStop
   offset="0.315"
   style="stop-color:#10270A"
   id="midPointStop795" /><a:midPointStop
   offset="0.86"
   style="stop-color:#1B0300"
   id="midPointStop796" /><a:midPointStop
   offset="0.13"
   style="stop-color:#1B0300"
   id="midPointStop797" /><a:midPointStop
   offset="1"
   style="stop-color:#000000"
   id="midPointStop798" /></radialGradient><path
   d="M 47.164 62.583 C 47.164 70.454 53.545 76.835 61.416 76.835 C 69.288 76.835 75.669 70.454 75.669 62.583 C 75.669 54.711 69.288 48.331 61.416 48.331 C 53.545 48.331 47.164 54.711 47.164 62.583 z "
   style="opacity:0.5;fill:url(#XMLID_9_);stroke:none;"
   id="path799" /><radialGradient
   cx="66.3173981"
   cy="57.6825981"
   r="1.00010002"
   fx="66.3173981"
   fy="57.6825981"
   id="XMLID_10_"
   gradientUnits="userSpaceOnUse"><stop
   style="stop-color:#3e8d99;stop-opacity:1;"
   offset="0.1"
   id="stop801" /><stop
   style="stop-color:#254f56;stop-opacity:1;"
   offset="0.2068"
   id="stop802" /><stop
   style="stop-color:#15292d;stop-opacity:1;"
   offset="0.31369999"
   id="stop803" /><stop
   style="stop-color:#0b1315;stop-opacity:1;"
   offset="0.42320001"
   id="stop804" /><stop
   style="stop-color:#040709;stop-opacity:1;"
   offset="0.53380001"
   id="stop805" /><stop
   style="stop-color:#010101;stop-opacity:1;"
   offset="0.64560002"
   id="stop806" /><stop
   style="stop-color:#000000;stop-opacity:1;"
   offset="0.75919998"
   id="stop807" /><stop
   style="stop-color:#000000;stop-opacity:1;"
   offset="0.87589997"
   id="stop808" /><stop
   style="stop-color:#000000;stop-opacity:1;"
   offset="1"
   id="stop809" /><a:midPointStop
   offset="0.1"
   style="stop-color:#3E8D99"
   id="midPointStop810" /><a:midPointStop
   offset="0.28"
   style="stop-color:#3E8D99"
   id="midPointStop811" /><a:midPointStop
   offset="1"
   style="stop-color:#000000"
   id="midPointStop812" /></radialGradient><path
   d="M 64.619 57.683 C 64.619 58.621 65.379 59.382 66.317 59.382 C 67.255 59.382 68.015 58.621 68.015 57.683 C 68.015 56.745 67.255 55.985 66.317 55.985 C 65.379 55.985 64.619 56.745 64.619 57.683 z "
   style="fill:url(#XMLID_10_);stroke:none;"
   id="path813" /><radialGradient
   cx="63.7705002"
   cy="60.2290001"
   r="4.00010014"
   fx="63.7705002"
   fy="60.2290001"
   id="XMLID_11_"
   gradientUnits="userSpaceOnUse"><stop
   style="stop-color:#000000;stop-opacity:1;"
   offset="0.1"
   id="stop815" /><stop
   style="stop-color:#000000;stop-opacity:1;"
   offset="0.1177"
   id="stop816" /><stop
   style="stop-color:#060101;stop-opacity:1;"
   offset="0.2211"
   id="stop817" /><stop
   style="stop-color:#140707;stop-opacity:1;"
   offset="0.32769999"
   id="stop818" /><stop
   style="stop-color:#230e0e;stop-opacity:1;"
   offset="0.43509999"
   id="stop819" /><stop
   style="stop-color:#331715;stop-opacity:1;"
   offset="0.54339999"
   id="stop820" /><stop
   style="stop-color:#421f1c;stop-opacity:1;"
   offset="0.65289998"
   id="stop821" /><stop
   style="stop-color:#4e2622;stop-opacity:1;"
   offset="0.76419997"
   id="stop822" /><stop
   style="stop-color:#562b26;stop-opacity:1;"
   offset="0.87840003"
   id="stop823" /><stop
   style="stop-color:#582c27;stop-opacity:1;"
   offset="1"
   id="stop824" /><a:midPointStop
   offset="0.1"
   style="stop-color:#000000"
   id="midPointStop825" /><a:midPointStop
   offset="0.28"
   style="stop-color:#000000"
   id="midPointStop826" /><a:midPointStop
   offset="1"
   style="stop-color:#582C27"
   id="midPointStop827" /></radialGradient><path
   d="M 59.729 60.229 C 59.729 62.46 61.539 64.27 63.771 64.27 C 66.003 64.27 67.813 62.46 67.813 60.229 C 67.813 57.997 66.003 56.187 63.771 56.187 C 61.539 56.188 59.729 57.997 59.729 60.229 z "
   style="fill:url(#XMLID_11_);stroke:none;"
   id="path828" /><radialGradient
   cx="61.7998009"
   cy="62.1991997"
   r="4.00010014"
   fx="61.7998009"
   fy="62.1991997"
   id="XMLID_12_"
   gradientUnits="userSpaceOnUse"><stop
   style="stop-color:#020b14;stop-opacity:1;"
   offset="0.1"
   id="stop830" /><stop
   style="stop-color:#020810;stop-opacity:1;"
   offset="0.14830001"
   id="stop831" /><stop
   style="stop-color:#010208;stop-opacity:1;"
   offset="0.2827"
   id="stop832" /><stop
   style="stop-color:#000102;stop-opacity:1;"
   offset="0.41999999"
   id="stop833" /><stop
   style="stop-color:#000000;stop-opacity:1;"
   offset="0.55909997"
   id="stop834" /><stop
   style="stop-color:#000000;stop-opacity:1;"
   offset="0.70050001"
   id="stop835" /><stop
   style="stop-color:#000000;stop-opacity:1;"
   offset="0.84549999"
   id="stop836" /><stop
   style="stop-color:#000000;stop-opacity:1;"
   offset="1"
   id="stop837" /><a:midPointStop
   offset="0.1"
   style="stop-color:#020B14"
   id="midPointStop838" /><a:midPointStop
   offset="0.28"
   style="stop-color:#020B14"
   id="midPointStop839" /><a:midPointStop
   offset="1"
   style="stop-color:#000000"
   id="midPointStop840" /></radialGradient><path
   d="M 57.493 62.199 C 57.493 64.578 59.422 66.507 61.801 66.507 C 64.18 66.507 66.108 64.578 66.108 62.199 C 66.108 59.82 64.18 57.891 61.801 57.891 C 59.421 57.892 57.493 59.82 57.493 62.199 z "
   style="fill:url(#XMLID_12_);stroke:none;"
   id="path841" /><radialGradient
   cx="65.1054993"
   cy="58.8945007"
   r="4.00019979"
   fx="65.1054993"
   fy="58.8945007"
   id="XMLID_13_"
   gradientUnits="userSpaceOnUse"><stop
   style="stop-color:#6f5d68;stop-opacity:1;"
   offset="0.1"
   id="stop843" /><stop
   style="stop-color:#5c4b54;stop-opacity:1;"
   offset="0.1398"
   id="stop844" /><stop
   style="stop-color:#33262b;stop-opacity:1;"
   offset="0.25560001"
   id="stop845" /><stop
   style="stop-color:#191114;stop-opacity:1;"
   offset="0.37439999"
   id="stop846" /><stop
   style="stop-color:#0b0608;stop-opacity:1;"
   offset="0.49419999"
   id="stop847" /><stop
   style="stop-color:#020101;stop-opacity:1;"
   offset="0.61549997"
   id="stop848" /><stop
   style="stop-color:#000000;stop-opacity:1;"
   offset="0.73879999"
   id="stop849" /><stop
   style="stop-color:#000000;stop-opacity:1;"
   offset="0.8653"
   id="stop850" /><stop
   style="stop-color:#000000;stop-opacity:1;"
   offset="1"
   id="stop851" /><a:midPointStop
   offset="0.1"
   style="stop-color:#6F5D68"
   id="midPointStop852" /><a:midPointStop
   offset="0.28"
   style="stop-color:#6F5D68"
   id="midPointStop853" /><a:midPointStop
   offset="1"
   style="stop-color:#000000"
   id="midPointStop854" /></radialGradient><path
   d="M 60.48 58.895 C 60.48 61.449 62.551 63.519 65.105 63.519 C 67.66 63.519 69.73 61.449 69.73 58.895 C 69.73 56.341 67.66 54.27 65.105 54.27 C 62.552 54.27 60.48 56.34 60.48 58.895 z "
   style="fill:url(#XMLID_13_);stroke:none;"
   id="path855" /><radialGradient
   cx="62.8148994"
   cy="61.1851006"
   r="3.9999001"
   fx="62.8148994"
   fy="61.1851006"
   id="XMLID_14_"
   gradientUnits="userSpaceOnUse"><stop
   style="stop-color:#6f5d68;stop-opacity:1;"
   offset="0.1"
   id="stop857" /><stop
   style="stop-color:#5c4b54;stop-opacity:1;"
   offset="0.1398"
   id="stop858" /><stop
   style="stop-color:#33262b;stop-opacity:1;"
   offset="0.25560001"
   id="stop859" /><stop
   style="stop-color:#191114;stop-opacity:1;"
   offset="0.37439999"
   id="stop860" /><stop
   style="stop-color:#0b0608;stop-opacity:1;"
   offset="0.49419999"
   id="stop861" /><stop
   style="stop-color:#020101;stop-opacity:1;"
   offset="0.61549997"
   id="stop862" /><stop
   style="stop-color:#000000;stop-opacity:1;"
   offset="0.73879999"
   id="stop863" /><stop
   style="stop-color:#000000;stop-opacity:1;"
   offset="0.8653"
   id="stop864" /><stop
   style="stop-color:#000000;stop-opacity:1;"
   offset="1"
   id="stop865" /><a:midPointStop
   offset="0.1"
   style="stop-color:#6F5D68"
   id="midPointStop866" /><a:midPointStop
   offset="0.28"
   style="stop-color:#6F5D68"
   id="midPointStop867" /><a:midPointStop
   offset="1"
   style="stop-color:#000000"
   id="midPointStop868" /></radialGradient><path
   d="M 58.771 61.185 C 58.771 63.419 60.582 65.23 62.815 65.23 C 65.049 65.23 66.86 63.419 66.86 61.185 C 66.86 58.952 65.049 57.141 62.815 57.141 C 60.581 57.141 58.771 58.951 58.771 61.185 z "
   style="fill:url(#XMLID_14_);stroke:none;"
   id="path869" /></g></svg>
