<?xml version="1.0" encoding="UTF-8" standalone="no"?>
<!DOCTYPE svg PUBLIC "-//W3C//DTD SVG 1.0//EN"
"http://www.w3.org/TR/2001/REC-SVG-20010904/DTD/svg10.dtd">
<!-- Created with Sodipodi ("http://www.sodipodi.com/") -->
<svg
   xmlns="http://www.w3.org/2000/svg"
   xmlns:xlink="http://www.w3.org/1999/xlink"
   version="1.0"
   x="0"
   y="0"
   width="40"
   height="40"
   viewBox="0 0 128 117.292"
   id="svg602"
   xml:space="preserve"><defs
   id="defs635"><linearGradient
   x1="32.9105988"
   y1="34.1186981"
   x2="89.5074997"
   y2="90.7154999"
   id="XMLID_1_"
   gradientUnits="userSpaceOnUse"><stop
   style="stop-color:#ffffff;stop-opacity:1;"
   offset="0"
   id="stop605" /><stop
   style="stop-color:#bfbfbf;stop-opacity:1;"
   offset="1"
   id="stop606" /><a:midPointStop
   offset="0"
   style="stop-color:#FFFFFF"
   id="midPointStop607" /><a:midPointStop
   offset="0.5"
   style="stop-color:#FFFFFF"
   id="midPointStop608" /><a:midPointStop
   offset="1"
   style="stop-color:#BFBFBF"
   id="midPointStop609" /></linearGradient><linearGradient
   x1="23.9482002"
   y1="24.3232002"
   x2="100.552597"
   y2="100.927597"
   id="XMLID_3_"
   gradientUnits="userSpaceOnUse"><stop
   style="stop-color:#808080;stop-opacity:1;"
   offset="0"
   id="stop623" /><stop
   style="stop-color:#404040;stop-opacity:1;"
   offset="1"
   id="stop624" /><a:midPointStop
   offset="0"
   style="stop-color:#808080"
   id="midPointStop625" /><a:midPointStop
   offset="0.5"
   style="stop-color:#808080"
   id="midPointStop626" /><a:midPointStop
   offset="1"
   style="stop-color:#404040"
   id="midPointStop627" /></linearGradient></defs><path
   d="M 112.8176 47.40309 L 15.59528 47.40309 L 15.59528 69.76457 L 112.8166 69.76457 L 112.8166 47.40309 L 112.8176 47.40309 z "
   style="font-size:12;fill:url(#XMLID_1_);stroke:#404040;stroke-width:1.166617;"
   id="path610" /><g
   transform="matrix(1.056431,0,0,1.056431,-0.456134,-7.354912)"
   style="font-size:12;stroke:#000000;"
   id="g613"><linearGradient
   x1="23.9482002"
   y1="24.3232002"
   x2="100.552597"
   y2="100.927597"
   id="XMLID_2_"
   gradientUnits="userSpaceOnUse"><stop
   style="stop-color:#d7b9ab;stop-opacity:1;"
   offset="0"
   id="stop615" /><stop
   style="stop-color:#ff0000;stop-opacity:1;"
   offset="1"
   id="stop616" /><a:midPointStop
   offset="0"
   style="stop-color:#D7B9AB"
   id="midPointStop617" /><a:midPointStop
   offset="0.5"
   style="stop-color:#D7B9AB"
   id="midPointStop618" /><a:midPointStop
   offset="1"
   style="stop-color:#FF0000"
   id="midPointStop619" /></linearGradient><path
   d="M 62.25 116.792 C 32.334 116.792 8.083 92.541 8.083 62.625 C 8.083 32.709 32.334 8.458 62.25 8.458 C 92.166 8.458 116.417 32.709 116.417 62.625 C 116.417 92.541 92.166 116.792 62.25 116.792 z M 102.875 57.833 C 102.875 55.083 100.625 52.833 97.875 52.833 L 24.542 52.833 C 21.792 52.833 19.542 55.083 19.542 57.833 L 19.542 67 C 19.542 69.75 21.792 72 24.542 72 L 97.875 72 C 100.625 72 102.875 69.75 102.875 67 L 102.875 57.833 z "
   style="fill:url(#XMLID_2_);stroke:none;"
   id="path620" /><path
   d="M 62.25 116.792 C 32.334 116.792 8.083 92.541 8.083 62.625 C 8.083 32.709 32.334 8.458 62.25 8.458 C 92.166 8.458 116.417 32.709 116.417 62.625 C 116.417 92.541 92.166 116.792 62.25 116.792 z M 102.875 57.833 C 102.875 55.083 100.625 52.833 97.875 52.833 L 24.542 52.833 C 21.792 52.833 19.542 55.083 19.542 57.833 L 19.542 67 C 19.542 69.75 21.792 72 24.542 72 L 97.875 72 C 100.625 72 102.875 69.75 102.875 67 L 102.875 57.833 z "
   style="fill:none;stroke:#404040;"
   id="path621" /></g><path
   d="M 65.30672 116.0278 C 33.70252 116.0278 8.083 90.4083 8.083 58.8041 C 8.083 27.1999 33.70252 1.58038 65.30672 1.58038 C 96.91092 1.58038 122.5304 27.1999 122.5304 58.8041 C 122.5304 90.4083 96.91092 116.0278 65.30672 116.0278 z M 117.6889 58.8041 C 117.6889 29.87478 94.23709 6.422005 65.30672 6.422005 C 36.37741 6.422005 12.92462 29.87478 12.92462 58.8041 C 12.92462 87.73448 36.37741 111.1861 65.30672 111.1861 C 94.23709 111.1861 117.6889 87.73448 117.6889 58.8041 z "
   style="font-size:12;fill:url(#XMLID_3_);stroke:#404040;stroke-width:1.056431;"
   id="path628" /><g
   transform="matrix(1.056431,0,0,1.056431,-0.456134,-7.354912)"
   style="font-size:12;fill:#fcf8f8;fill-opacity:0.1765;stroke:#fcf8f8;stroke-opacity:0.0308;"
   id="g631"><path
   d="M 62.25 66.792 C 35.833 93.209 8.083 62.625 8.083 62.625 C 8.083 32.709 32.334 8.458 62.25 8.458 C 92.166 8.458 116.417 32.709 116.417 62.625 C 116.417 62.625 88.667 40.375 62.25 66.792 z "
   id="path632" /><path
   d="M 62.25 66.792 C 35.833 93.209 8.083 62.625 8.083 62.625 C 8.083 32.709 32.334 8.458 62.25 8.458 C 92.166 8.458 116.417 32.709 116.417 62.625 C 116.417 62.625 88.667 40.375 62.25 66.792 z "
   id="path633" /></g></svg>
