<?xml version="1.0" encoding="UTF-8" standalone="no"?>
<!DOCTYPE svg PUBLIC "-//W3C//DTD SVG 1.0//EN"
"http://www.w3.org/TR/2001/REC-SVG-20010904/DTD/svg10.dtd">
<!-- Created with Sodipodi ("http://www.sodipodi.com/") -->
<svg
   xmlns="http://www.w3.org/2000/svg"
   xmlns:xlink="http://www.w3.org/1999/xlink"
   version="1.0"
   x="0"
   y="0"
   width="40"
   height="25"
   viewBox="0 0 164 59"
   id="svg602"
   xml:space="preserve"><defs
   id="defs671"><linearGradient
   x1="44.8833008"
   y1="-7.75150013"
   x2="115.907501"
   y2="63.2727013"
   id="XMLID_2_"
   gradientUnits="userSpaceOnUse"><stop
   style="stop-color:#d9d9d9;stop-opacity:1;"
   offset="0"
   id="stop616" /><stop
   style="stop-color:#ff0000;stop-opacity:1;"
   offset="1"
   id="stop617" /><a:midPointStop
   offset="0"
   style="stop-color:#D9D9D9"
   id="midPointStop618" /><a:midPointStop
   offset="0.5"
   style="stop-color:#D9D9D9"
   id="midPointStop619" /><a:midPointStop
   offset="1"
   style="stop-color:#FF0000"
   id="midPointStop620" /></linearGradient></defs><g
   transform="matrix(1.055755,0,0,2.286644,-0.468116,-32.70649)"
   style="font-size:12;stroke:#000000;"
   id="g606"><linearGradient
   x1="37.5830002"
   y1="-15.0517998"
   x2="123.209198"
   y2="70.574501"
   id="XMLID_1_"
   gradientUnits="userSpaceOnUse"><stop
   style="stop-color:#d9d9d9;stop-opacity:1;"
   offset="0"
   id="stop608" /><stop
   style="stop-color:#404040;stop-opacity:1;"
   offset="1"
   id="stop609" /><a:midPointStop
   offset="0"
   style="stop-color:#D9D9D9"
   id="midPointStop610" /><a:midPointStop
   offset="0.5"
   style="stop-color:#D9D9D9"
   id="midPointStop611" /><a:midPointStop
   offset="1"
   style="stop-color:#404040"
   id="midPointStop612" /></linearGradient><path
   d="M 152.396 18.26 C 152.396 12.76 147.896 8.26 142.396 8.26 L 18.396 8.26 C 12.896 8.26 8.396 12.76 8.396 18.26 L 8.396 37.26 C 8.396 42.76 12.896 47.26 18.396 47.26 L 142.396 47.26 C 147.896 47.26 152.396 42.76 152.396 37.26 L 152.396 18.26 z "
   style="fill:url(#XMLID_1_);stroke:none;"
   id="path613" /><path
   d="M 152.396 18.26 C 152.396 12.76 147.896 8.26 142.396 8.26 L 18.396 8.26 C 12.896 8.26 8.396 12.76 8.396 18.26 L 8.396 37.26 C 8.396 42.76 12.896 47.26 18.396 47.26 L 142.396 47.26 C 147.896 47.26 152.396 42.76 152.396 37.26 L 152.396 18.26 z "
   style="fill:none;stroke:#404040;stroke-width:0.9928;"
   id="path614" /></g><path
   d="M 157.2574 30.77303 C 157.2574 9.30373 124.642 -8.099917 84.41034 -8.099917 C 44.17764 -8.099917 11.56327 9.30373 11.56327 30.77303 C 11.56327 52.24233 44.1787 69.64597 84.41034 69.64597 C 124.642 69.64597 157.2574 52.24004 157.2574 30.77303 z "
   style="font-size:12;fill:url(#XMLID_2_);stroke:#404040;stroke-width:1.542562;"
   id="path621" /><g
   transform="matrix(1.055755,0,0,2.286644,-0.468116,-32.70649)"
   style="font-size:12;stroke:#000000;"
   id="g622"><linearGradient
   x1="29.9160004"
   y1="20.9736004"
   x2="43.3469009"
   y2="34.4044991"
   id="XMLID_3_"
   gradientUnits="userSpaceOnUse"><stop
   style="stop-color:#7f7f7f;stop-opacity:1;"
   offset="0"
   id="stop624" /><stop
   style="stop-color:#000000;stop-opacity:1;"
   offset="1"
   id="stop625" /><a:midPointStop
   offset="0"
   style="stop-color:#7F7F7F"
   id="midPointStop626" /><a:midPointStop
   offset="0.5"
   style="stop-color:#7F7F7F"
   id="midPointStop627" /><a:midPointStop
   offset="1"
   style="stop-color:#000000"
   id="midPointStop628" /></linearGradient><path
   d="M 45.956 27.636 C 45.956 30.257 45.046 32.553 43.228 34.524 C 41.41 36.495 39.221 37.48 36.664 37.48 L 33.546 37.48 C 33.126 37.48 32.761 37.33 32.452 37.03 C 32.143 36.73 31.988 36.36 31.988 35.92 L 31.988 19.443 C 31.988 18.743 32.278 18.273 32.857 18.032 C 33.197 17.892 33.756 17.822 34.536 17.822 L 36.664 17.822 C 39.222 17.822 41.41 18.802 43.228 20.764 C 45.046 22.726 45.956 25.016 45.956 27.636 z M 42.831 27.651 C 42.831 25.868 42.223 24.315 41.006 22.993 C 39.789 21.672 38.343 21.011 36.668 21.011 L 35.112 21.011 L 35.112 34.261 L 36.668 34.261 C 38.343 34.261 39.789 33.601 41.006 32.279 C 42.223 30.957 42.831 29.413 42.831 27.651 z "
   style="fill:url(#XMLID_3_);stroke:#404040;"
   id="path629" /><linearGradient
   x1="48.6049995"
   y1="22.0937996"
   x2="64.600502"
   y2="38.0892982"
   id="XMLID_4_"
   gradientUnits="userSpaceOnUse"><stop
   style="stop-color:#7f7f7f;stop-opacity:1;"
   offset="0"
   id="stop631" /><stop
   style="stop-color:#000000;stop-opacity:1;"
   offset="1"
   id="stop632" /><a:midPointStop
   offset="0"
   style="stop-color:#7F7F7F"
   id="midPointStop633" /><a:midPointStop
   offset="0.5"
   style="stop-color:#7F7F7F"
   id="midPointStop634" /><a:midPointStop
   offset="1"
   style="stop-color:#000000"
   id="midPointStop635" /></linearGradient><path
   d="M 66.104 35.921 C 66.104 36.36 65.95 36.735 65.643 37.046 C 65.336 37.357 64.963 37.511 64.526 37.511 C 64.089 37.511 63.717 37.357 63.409 37.046 C 63.101 36.737 62.948 36.362 62.948 35.922 L 62.948 30.167 L 50.261 30.167 L 50.261 35.915 C 50.261 36.356 50.107 36.733 49.8 37.044 C 49.492 37.356 49.12 37.511 48.683 37.511 C 48.246 37.511 47.874 37.361 47.566 37.06 C 47.258 36.76 47.105 36.39 47.105 35.949 L 47.105 27.536 C 47.105 24.912 48.034 22.669 49.892 20.807 C 51.75 18.943 53.988 18.012 56.605 18.012 C 59.222 18.012 61.459 18.942 63.318 20.803 C 65.176 22.663 66.105 24.904 66.105 27.523 L 66.105 35.921 L 66.104 35.921 z M 62.948 26.948 C 62.807 25.331 62.127 23.969 60.909 22.86 C 59.69 21.753 58.256 21.198 56.604 21.198 C 54.952 21.198 53.522 21.753 52.314 22.86 C 51.106 23.968 50.421 25.331 50.26 26.948 L 62.948 26.948 z "
   style="fill:url(#XMLID_4_);stroke:#404040;"
   id="path636" /><linearGradient
   x1="69.1352997"
   y1="22.0928001"
   x2="85.1315002"
   y2="38.0890007"
   id="XMLID_5_"
   gradientUnits="userSpaceOnUse"><stop
   style="stop-color:#7f7f7f;stop-opacity:1;"
   offset="0"
   id="stop638" /><stop
   style="stop-color:#000000;stop-opacity:1;"
   offset="1"
   id="stop639" /><a:midPointStop
   offset="0"
   style="stop-color:#7F7F7F"
   id="midPointStop640" /><a:midPointStop
   offset="0.5"
   style="stop-color:#7F7F7F"
   id="midPointStop641" /><a:midPointStop
   offset="1"
   style="stop-color:#000000"
   id="midPointStop642" /></linearGradient><path
   d="M 86.636 35.921 C 86.636 36.36 86.482 36.735 86.174 37.046 C 85.866 37.357 85.493 37.511 85.058 37.511 C 84.62 37.511 84.248 37.357 83.941 37.046 C 83.633 36.736 83.48 36.361 83.48 35.921 L 83.48 27.525 C 83.48 25.786 82.863 24.296 81.63 23.057 C 80.397 21.818 78.899 21.198 77.135 21.198 C 75.391 21.198 73.898 21.819 72.655 23.061 C 71.412 24.302 70.791 25.794 70.791 27.537 L 70.791 35.919 C 70.791 36.359 70.637 36.735 70.33 37.046 C 70.023 37.357 69.65 37.511 69.213 37.511 C 68.776 37.511 68.404 37.361 68.096 37.06 C 67.788 36.76 67.635 36.39 67.635 35.949 L 67.635 27.536 C 67.635 24.912 68.564 22.669 70.422 20.807 C 72.28 18.943 74.518 18.012 77.135 18.012 C 79.753 18.012 81.989 18.942 83.848 20.803 C 85.705 22.663 86.635 24.904 86.635 27.523 L 86.635 35.921 L 86.636 35.921 z "
   style="fill:url(#XMLID_5_);stroke:#404040;"
   id="path643" /><linearGradient
   x1="90.4394989"
   y1="21.5175991"
   x2="103.714996"
   y2="34.7930984"
   id="XMLID_6_"
   gradientUnits="userSpaceOnUse"><stop
   style="stop-color:#7f7f7f;stop-opacity:1;"
   offset="0"
   id="stop645" /><stop
   style="stop-color:#000000;stop-opacity:1;"
   offset="1"
   id="stop646" /><a:midPointStop
   offset="0"
   style="stop-color:#7F7F7F"
   id="midPointStop647" /><a:midPointStop
   offset="0.5"
   style="stop-color:#7F7F7F"
   id="midPointStop648" /><a:midPointStop
   offset="1"
   style="stop-color:#000000"
   id="midPointStop649" /></linearGradient><path
   d="M 100.902 37.604 L 97.36 37.604 C 94.839 37.604 92.642 36.639 90.771 34.71 C 88.9 32.781 87.964 30.526 87.964 27.947 C 87.964 25.448 88.849 23.244 90.619 21.335 C 92.389 19.425 94.494 18.411 96.933 18.291 L 99.478 18.291 C 99.88 18.291 100.219 18.431 100.492 18.71 C 100.765 18.989 100.901 19.329 100.901 19.728 C 100.901 20.128 100.765 20.468 100.494 20.747 C 100.223 21.026 99.887 21.166 99.484 21.166 L 97.375 21.166 C 95.627 21.166 94.091 21.846 92.766 23.207 C 91.44 24.566 90.777 26.146 90.777 27.947 C 90.777 29.726 91.438 31.297 92.762 32.657 C 94.086 34.017 95.621 34.697 97.367 34.697 C 97.527 34.697 97.767 34.697 98.089 34.697 L 98.089 28.54 C 98.089 28.14 98.229 27.795 98.508 27.504 C 98.787 27.214 99.116 27.068 99.495 27.068 C 99.894 27.068 100.228 27.214 100.498 27.504 C 100.767 27.794 100.901 28.139 100.901 28.539 L 100.901 37.604 L 100.902 37.604 z "
   style="fill:url(#XMLID_6_);stroke:#404040;"
   id="path650" /><linearGradient
   x1="105.028297"
   y1="21.5186005"
   x2="117.865997"
   y2="34.3563004"
   id="XMLID_7_"
   gradientUnits="userSpaceOnUse"><stop
   style="stop-color:#7f7f7f;stop-opacity:1;"
   offset="0"
   id="stop652" /><stop
   style="stop-color:#000000;stop-opacity:1;"
   offset="1"
   id="stop653" /><a:midPointStop
   offset="0"
   style="stop-color:#7F7F7F"
   id="midPointStop654" /><a:midPointStop
   offset="0.5"
   style="stop-color:#7F7F7F"
   id="midPointStop655" /><a:midPointStop
   offset="1"
   style="stop-color:#000000"
   id="midPointStop656" /></linearGradient><path
   d="M 115.815 27.917 C 115.815 28.316 115.68 28.656 115.41 28.936 C 115.14 29.216 114.806 29.355 114.405 29.355 L 105.555 29.355 C 105.914 30.865 106.705 32.132 107.925 33.16 C 109.145 34.185 110.494 34.699 111.975 34.699 C 112.195 34.699 112.539 34.699 113.01 34.699 C 113.48 34.699 113.824 34.699 114.045 34.699 C 114.444 34.699 114.779 34.84 115.049 35.119 C 115.32 35.398 115.455 35.738 115.455 36.137 C 115.455 36.518 115.324 36.857 115.064 37.157 C 114.804 37.457 114.474 37.606 114.074 37.606 C 113.834 37.606 113.479 37.606 113.01 37.606 C 112.539 37.606 112.195 37.606 111.975 37.606 C 109.435 37.606 107.23 36.641 105.36 34.712 C 103.49 32.783 102.555 30.528 102.555 27.949 C 102.555 25.45 103.44 23.246 105.209 21.337 C 106.98 19.427 109.084 18.413 111.524 18.293 L 114.074 18.293 C 114.474 18.293 114.809 18.433 115.08 18.712 C 115.35 18.991 115.484 19.331 115.484 19.73 C 115.484 20.13 115.349 20.47 115.08 20.749 C 114.809 21.028 114.475 21.168 114.074 21.168 L 111.974 21.168 C 110.494 21.168 109.139 21.681 107.91 22.705 C 106.68 23.73 105.894 24.988 105.555 26.48 L 114.405 26.48 C 114.805 26.48 115.139 26.621 115.41 26.9 C 115.681 27.179 115.815 27.518 115.815 27.917 z "
   style="fill:url(#XMLID_7_);stroke:#404040;"
   id="path657" /><linearGradient
   x1="114.747101"
   y1="21.4267998"
   x2="129.370499"
   y2="36.0502014"
   id="XMLID_8_"
   gradientUnits="userSpaceOnUse"><stop
   style="stop-color:#7f7f7f;stop-opacity:1;"
   offset="0"
   id="stop659" /><stop
   style="stop-color:#000000;stop-opacity:1;"
   offset="1"
   id="stop660" /><a:midPointStop
   offset="0"
   style="stop-color:#7F7F7F"
   id="midPointStop661" /><a:midPointStop
   offset="0.5"
   style="stop-color:#7F7F7F"
   id="midPointStop662" /><a:midPointStop
   offset="1"
   style="stop-color:#000000"
   id="midPointStop663" /></linearGradient><path
   d="M 128.804 35.837 C 128.804 36.218 128.683 36.598 128.443 36.978 C 128.123 37.458 127.732 37.699 127.273 37.699 C 126.852 37.699 126.492 37.543 126.191 37.232 C 125.891 36.921 125.742 36.546 125.742 36.105 C 125.742 33.417 124.412 32.074 121.754 32.074 C 121.291 32.074 120.808 32.135 120.305 32.254 L 120.305 35.982 C 120.305 36.422 120.155 36.798 119.854 37.109 C 119.553 37.42 119.194 37.575 118.774 37.575 C 118.353 37.575 117.993 37.425 117.692 37.125 C 117.392 36.825 117.243 36.455 117.243 36.015 L 117.243 19.443 C 117.243 18.703 117.562 18.213 118.202 17.972 C 118.542 17.872 119.151 17.822 120.031 17.822 C 122.25 17.822 124.139 18.423 125.698 19.623 C 127.477 20.984 128.368 22.816 128.368 25.117 C 128.368 27.138 127.559 28.81 125.942 30.131 C 126.886 30.592 127.62 31.402 128.141 32.564 C 128.582 33.565 128.804 34.656 128.804 35.837 z M 125.241 25.117 C 125.241 22.539 123.595 21.179 120.303 21.04 L 120.303 29.104 C 123.595 28.944 125.241 27.616 125.241 25.117 z "
   style="fill:url(#XMLID_8_);stroke:#404040;"
   id="path664" /></g><path
   d="M 150.7867 21.4138 C 156.0876 26.54731 160.4247 20.72094 160.4247 8.464531 C 160.4247 -3.789594 155.6737 -13.81881 149.8672 -13.81881 L 18.95355 -13.81881 C 13.14689 -13.81881 8.396001 -3.528916 8.396001 9.047626 L 8.396001 10.16808 C 8.396001 22.74462 12.71826 37.30597 18.00125 42.52638 C 18.00125 42.52638 61.03065 85.05568 85.04907 33.03452 C 109.0675 -18.98663 150.7867 21.4138 150.7867 21.4138 z "
   style="font-size:12;fill:#ffffff;fill-opacity:0.1385;"
   id="path668" /><path
   d="M 150.7867 21.4138 C 156.0876 26.54731 160.4247 20.72094 160.4247 8.464531 C 160.4247 -3.789594 155.6737 -13.81881 149.8672 -13.81881 L 18.95355 -13.81881 C 13.14689 -13.81881 8.396001 -3.528916 8.396001 9.047626 L 8.396001 10.16808 C 8.396001 22.74462 12.71826 37.30597 18.00125 42.52638 C 18.00125 42.52638 61.03065 85.05568 85.04907 33.03452 C 109.0675 -18.98663 150.7867 21.4138 150.7867 21.4138 z "
   style="font-size:12;fill:#ffffff;fill-opacity:0.0692;stroke:#ffffff;stroke-width:1.542562;stroke-opacity:0;"
   id="path669" /></svg>
