<?xml version="1.0" encoding="UTF-8" standalone="no"?>
<!DOCTYPE svg PUBLIC "-//W3C//DTD SVG 20010904//EN"
"http://www.w3.org/TR/2001/REC-SVG-20010904/DTD/svg10.dtd">
<!-- Created with Sodipodi ("http://www.sodipodi.com/") -->
<svg
   i:viewOrigin="243 438"
   i:rulerOrigin="-242 -332"
   i:pageBounds="242 460 370 332"
   width="32pt"
   height="28pt"
   viewBox="0 0 128 84"
   overflow="visible"
   enable-background="new 0 0 128 84"
   xml:space="preserve"
   id="svg548"
   sodipodi:version="0.32"
   sodipodi:docname="/home/cschalle/gnome-themes-extras/Amaranth/icons/scalable/emblems/emblem-camera.svg"
   sodipodi:docbase="/home/cschalle/gnome-themes-extras/Amaranth/icons/scalable/emblems/"
   xmlns="http://www.w3.org/2000/svg"
   xmlns:sodipodi="http://sodipodi.sourceforge.net/DTD/sodipodi-0.dtd"
   xmlns:ns="http://ns.adobe.com/Variables/1.0/"
   xmlns:i="http://ns.adobe.com/AdobeIllustrator/10.0/"
   xmlns:xml="http://www.w3.org/XML/1998/namespace"
   xmlns:a="http://ns.adobe.com/AdobeSVGViewerExtensions/3.0/"
   xmlns:xlink="http://www.w3.org/1999/xlink">
  <defs
     id="defs607">
    <linearGradient
       id="XMLID_3_"
       gradientUnits="userSpaceOnUse"
       x1="72.1807"
       y1="52.4307"
       x2="51.321"
       y2="31.571">
      <stop
         offset="0"
         style="stop-color:#404040"
         id="stop574" />
      <stop
         offset="1"
         style="stop-color:#000000"
         id="stop575" />
      <a:midPointStop
         offset="0"
         style="stop-color:#404040"
         id="midPointStop576" />
      <a:midPointStop
         offset="0.5"
         style="stop-color:#404040"
         id="midPointStop577" />
      <a:midPointStop
         offset="1"
         style="stop-color:#000000"
         id="midPointStop578" />
    </linearGradient>
  </defs>
  <sodipodi:namedview
     id="base" />
  <metadata
     id="metadata549">
    <sfw>
      <slices />
      <sliceSourceBounds
         y="354"
         x="243"
         width="128"
         height="84"
         bottomLeftOrigin="true" />
    </sfw>
    <ns:variableSets>
      <ns:variableSet
         varSetName="binding1"
         locked="none">
        <ns:variables />
        <ns:sampleDataSets />
      </ns:variableSet>
    </ns:variableSets>
  </metadata>
  <g
     id="g553"
     style="font-size:12;stroke:#000000;">
    <linearGradient
       id="XMLID_1_"
       gradientUnits="userSpaceOnUse"
       x1="22.5635"
       y1="2.8135"
       x2="100.9377"
       y2="81.1877">
      <stop
         offset="0"
         style="stop-color:#FFFFFF"
         id="stop555" />
      <stop
         offset="1"
         style="stop-color:#BFBFBF"
         id="stop556" />
      <a:midPointStop
         offset="0"
         style="stop-color:#FFFFFF"
         id="midPointStop557" />
      <a:midPointStop
         offset="0.5"
         style="stop-color:#FFFFFF"
         id="midPointStop558" />
      <a:midPointStop
         offset="1"
         style="stop-color:#BFBFBF"
         id="midPointStop559" />
    </linearGradient>
    <path
       i:knockout="Off"
       fill="url(#XMLID_1_)"
       stroke="none"
       d="M116,62c0,5.5-4.5,10-10,10H17.5c-5.5,0-10-4.5-10-10V22      c0-5.5,4.5-10,10-10h1.167c5.5,0,9.99-0.9,9.979-2c-0.012-1.1,4.479-2,9.979-2H41c5.5,0,10,0.9,10,2c0,1.1,4.5,2,10,2h45      c5.5,0,10,4.5,10,10V62z"
       id="path560" />
    <path
       i:knockout="Off"
       fill="none"
       d="M116,62c0,5.5-4.5,10-10,10H17.5c-5.5,0-10-4.5-10-10V22c0-5.5,4.5-10,10-10h1.167      c5.5,0,9.99-0.9,9.979-2c-0.012-1.1,4.479-2,9.979-2H41c5.5,0,10,0.9,10,2c0,1.1,4.5,2,10,2h45c5.5,0,10,4.5,10,10V62z"
       id="path561" />
  </g>
  <g
     id="g564"
     style="font-size:12;stroke:#000000;">
    <linearGradient
       id="XMLID_2_"
       gradientUnits="userSpaceOnUse"
       x1="48.8452"
       y1="29.0952"
       x2="74.6546"
       y2="54.9046">
      <stop
         offset="0"
         style="stop-color:#404040"
         id="stop566" />
      <stop
         offset="1"
         style="stop-color:#000000"
         id="stop567" />
      <a:midPointStop
         offset="0"
         style="stop-color:#404040"
         id="midPointStop568" />
      <a:midPointStop
         offset="0.5"
         style="stop-color:#404040"
         id="midPointStop569" />
      <a:midPointStop
         offset="1"
         style="stop-color:#000000"
         id="midPointStop570" />
    </linearGradient>
    <path
       i:knockout="Off"
       fill="url(#XMLID_2_)"
       stroke="none"
       d="M80,42c0-10.079-8.171-18.25-18.25-18.25S43.5,31.921,43.5,42      s8.171,18.25,18.25,18.25S80,52.079,80,42z"
       id="path571" />
    <path
       i:knockout="Off"
       fill="none"
       d="M80,42c0-10.079-8.171-18.25-18.25-18.25S43.5,31.921,43.5,42s8.171,18.25,18.25,18.25      S80,52.079,80,42z"
       id="path572" />
  </g>
  <path
     i:knockout="Off"
     fill="url(#XMLID_3_)"
     d="M76.5,42c0-8.146-6.604-14.75-14.75-14.75C53.604,27.25,47,33.854,47,42    s6.604,14.75,14.75,14.75C69.896,56.75,76.5,50.146,76.5,42z"
     id="path579"
     style="font-size:12;fill:url(#XMLID_3_);stroke:#000000;" />
  <g
     id="g582"
     style="font-size:12;stroke:#000000;">
    <linearGradient
       id="XMLID_4_"
       gradientUnits="userSpaceOnUse"
       x1="15.5811"
       y1="18.0811"
       x2="24.4199"
       y2="26.9199">
      <stop
         offset="0"
         style="stop-color:#404040"
         id="stop584" />
      <stop
         offset="1"
         style="stop-color:#000000"
         id="stop585" />
      <a:midPointStop
         offset="0"
         style="stop-color:#404040"
         id="midPointStop586" />
      <a:midPointStop
         offset="0.5"
         style="stop-color:#404040"
         id="midPointStop587" />
      <a:midPointStop
         offset="1"
         style="stop-color:#000000"
         id="midPointStop588" />
    </linearGradient>
    <path
       i:knockout="Off"
       fill="url(#XMLID_4_)"
       stroke="none"
       d="M26.25,22.5c0-3.452-2.798-6.25-6.25-6.25s-6.25,2.798-6.25,6.25      s2.798,6.25,6.25,6.25S26.25,25.952,26.25,22.5z"
       id="path589" />
    <path
       i:knockout="Off"
       fill="none"
       d="M26.25,22.5c0-3.452-2.798-6.25-6.25-6.25s-6.25,2.798-6.25,6.25s2.798,6.25,6.25,6.25      S26.25,25.952,26.25,22.5z"
       id="path590" />
  </g>
  <g
     id="g593"
     transform="translate(0.000000,-3.814697e-6)"
     style="font-size:12;stroke:#000000;">
    <linearGradient
       id="XMLID_5_"
       gradientUnits="userSpaceOnUse"
       x1="90.876"
       y1="13.3755"
       x2="105.1258"
       y2="27.6253">
      <stop
         offset="0"
         style="stop-color:#404040"
         id="stop595" />
      <stop
         offset="1"
         style="stop-color:#000000"
         id="stop596" />
      <a:midPointStop
         offset="0"
         style="stop-color:#404040"
         id="midPointStop597" />
      <a:midPointStop
         offset="0.5"
         style="stop-color:#404040"
         id="midPointStop598" />
      <a:midPointStop
         offset="1"
         style="stop-color:#000000"
         id="midPointStop599" />
    </linearGradient>
    <path
       i:knockout="Off"
       fill="url(#XMLID_5_)"
       stroke="none"
       d="M110.5,18.75c0-1.1-0.9-2-2-2h-21c-1.1,0-2,0.9-2,2v3.5      c0,1.1,0.9,2,2,2h21c1.1,0,2-0.9,2-2V18.75z"
       id="path600" />
    <path
       i:knockout="Off"
       fill="none"
       d="M110.5,18.75c0-1.1-0.9-2-2-2h-21c-1.1,0-2,0.9-2,2v3.5c0,1.1,0.9,2,2,2h21      c1.1,0,2-0.9,2-2V18.75z"
       id="path601" />
  </g>
</svg>
