<?xml version="1.0" encoding="UTF-8" standalone="no"?>
<!DOCTYPE svg PUBLIC "-//W3C//DTD SVG 20010904//EN"
"http://www.w3.org/TR/2001/REC-SVG-20010904/DTD/svg10.dtd">
<!-- Created with Sodipodi ("http://www.sodipodi.com/") -->
<svg
   i:viewOrigin="226.7051 456.2026"
   i:rulerOrigin="-242 -332"
   i:pageBounds="242 460 370 332"
   width="32pt"
   height="32pt"
   viewBox="0 0 160.339 133.196"
   overflow="visible"
   enable-background="new 0 0 160.339 133.196"
   xml:space="preserve"
   id="svg153"
   sodipodi:version="0.32pre"
   sodipodi:docname="/home/cschalle/gnome-themes-extras/Amaranth/icons/scalable/emblems/emblem-documents.svg"
   sodipodi:docbase="/home/cschalle/gnome-themes-extras/Amaranth/icons/scalable/emblems"
   xmlns="http://www.w3.org/2000/svg"
   xmlns:sodipodi="http://sodipodi.sourceforge.net/DTD/sodipodi-0.dtd"
   xmlns:ns="http://ns.adobe.com/Variables/1.0/"
   xmlns:i="http://ns.adobe.com/AdobeIllustrator/10.0/"
   xmlns:xml="http://www.w3.org/XML/1998/namespace"
   xmlns:a="http://ns.adobe.com/AdobeSVGViewerExtensions/3.0/"
   xmlns:xlink="http://www.w3.org/1999/xlink">
  <defs
     id="defs196" />
  <sodipodi:namedview
     id="base" />
  <metadata
     id="metadata154">
    <sfw>
      <slices />
      <sliceSourceBounds
         y="323.007"
         x="226.705"
         width="160.339"
         height="133.196"
         bottomLeftOrigin="true" />
    </sfw>
    <ns:variableSets>
      <ns:variableSet
         varSetName="binding1"
         locked="none">
        <ns:variables />
        <ns:sampleDataSets />
      </ns:variableSet>
    </ns:variableSets>
  </metadata>
  <g
     id="g191"
     transform="matrix(1.05441,0,0,1.01324,-0.515144,4.73969)">
    <g
       i:knockout="On"
       id="g158"
       style="font-size:12;stroke:#000000;">
      <path
         i:knockout="Off"
         fill="none"
         stroke-width="2"
         stroke-linecap="round"
         stroke-linejoin="round"
         d="M149.662,100.766      c-22.36,3.207-44.722,6.413-67.082,9.619C85.152,78.682,67.608,47.47,70.34,16.75c18.28,2.468,36.562,4.937,54.842,7.405      C127.914,50.184,147.09,75.721,149.662,100.766z"
         id="path159" />
      <linearGradient
         id="XMLID_1_"
         gradientUnits="userSpaceOnUse"
         x1="61.8511"
         y1="25.2402"
         x2="143.5198"
         y2="106.909">
        <stop
           offset="0"
           style="stop-color:#FFFFFF"
           id="stop161" />
        <stop
           offset="1"
           style="stop-color:#9FA5A6"
           id="stop162" />
        <a:midPointStop
           offset="0"
           style="stop-color:#FFFFFF"
           id="midPointStop163" />
        <a:midPointStop
           offset="0.5"
           style="stop-color:#FFFFFF"
           id="midPointStop164" />
        <a:midPointStop
           offset="1"
           style="stop-color:#9FA5A6"
           id="midPointStop165" />
      </linearGradient>
      <path
         i:knockout="Off"
         fill="url(#XMLID_1_)"
         stroke="none"
         d="M149.662,100.766c-22.36,3.207-44.722,6.413-67.082,9.619      C85.152,78.682,67.608,47.47,70.34,16.75c18.28,2.468,36.562,4.937,54.842,7.405C127.914,50.184,147.09,75.721,149.662,100.766z      "
         id="path166" />
    </g>
    <g
       i:knockout="On"
       opacity="0.3"
       id="g167"
       style="font-size:12;opacity:0.3;stroke:#000000;">
      <path
         i:knockout="Off"
         fill="#FFFFFF"
         stroke="none"
         d="M71.471,39.942c-1.227-7.762-1.816-15.493-1.131-23.192      c18.281,2.468,36.562,4.937,54.842,7.405c1.313,12.51,6.425,24.906,11.665,37.188c5.664,13.274,11.479,26.414,12.815,39.423      c-5.937-4.312-13.805-14.014-21.014-19.495c-7.28-6.011-13.044-7.477-18.323-7.57c-5.327-0.264-10.296,0.902-16.769-3.771      C87.332,65.601,78.904,55.25,71.471,39.942z"
         id="path168" />
    </g>
    <g
       i:knockout="On"
       id="g172"
       style="font-size:12;stroke:#000000;">
      <path
         i:knockout="Off"
         fill="none"
         stroke-width="2"
         stroke-linecap="round"
         stroke-linejoin="round"
         d="M79.315,85.016      c-23.283,3.206-46.565,6.413-69.848,9.619C12.146,62.932,21.529,31.72,24.155,1c17.571,2.468,35.142,4.937,52.712,7.405      C79.493,34.434,76.637,59.972,79.315,85.016z"
         id="path173" />
      <linearGradient
         id="XMLID_2_"
         gradientUnits="userSpaceOnUse"
         x1="8.4014"
         y1="16.7544"
         x2="77.9892"
         y2="86.3423">
        <stop
           offset="0"
           style="stop-color:#FFFFFF"
           id="stop175" />
        <stop
           offset="1"
           style="stop-color:#9FA5A6"
           id="stop176" />
        <a:midPointStop
           offset="0"
           style="stop-color:#FFFFFF"
           id="midPointStop177" />
        <a:midPointStop
           offset="0.5"
           style="stop-color:#FFFFFF"
           id="midPointStop178" />
        <a:midPointStop
           offset="1"
           style="stop-color:#9FA5A6"
           id="midPointStop179" />
      </linearGradient>
      <path
         i:knockout="Off"
         fill="url(#XMLID_2_)"
         stroke="none"
         d="M79.315,85.016c-23.283,3.206-46.565,6.413-69.848,9.619      C12.146,62.932,21.529,31.72,24.155,1c17.571,2.468,35.142,4.937,52.712,7.405C79.493,34.434,76.637,59.972,79.315,85.016z"
         id="path180" />
    </g>
    <g
       i:knockout="On"
       opacity="0.3"
       id="g181"
       style="font-size:12;opacity:0.3;stroke:#000000;">
      <path
         i:knockout="Off"
         fill="#FFFFFF"
         stroke="none"
         d="M21.119,24.192C22.414,16.43,23.497,8.7,24.155,1      c17.571,2.468,35.142,4.937,52.712,7.405c1.262,12.51,1.257,24.906,1.21,37.188c-0.051,13.273-0.153,26.415,1.238,39.422      c-6.483-4.312-12.362-14.014-17.494-19.495c-5.177-6.01-10.218-7.477-15.499-7.57c-5.214-0.264-10.692,0.902-15.214-3.772      C26.506,49.852,23.283,39.5,21.119,24.192z"
         id="path182" />
    </g>
    <g
       id="g183"
       style="font-size:12;stroke:#000000;">
      <g
         i:knockout="On"
         id="g184">
        <path
           i:knockout="Off"
           fill="none"
           stroke-width="2"
           stroke-linecap="round"
           stroke-linejoin="round"
           d="M98.517,111.016      c-23.744,3.206-47.487,6.413-71.231,9.619C30.017,88.932,52.865,57.72,55.438,27c17.216,2.468,34.432,4.937,51.647,7.405      C109.657,60.434,95.785,85.971,98.517,111.016z"
           id="path185" />
        <linearGradient
           id="XMLID_3_"
           gradientUnits="userSpaceOnUse"
           x1="36.0518"
           y1="46.3867"
           x2="99.5995"
           y2="109.9345">
          <stop
             offset="0"
             style="stop-color:#FFFFFF"
             id="stop187" />
          <stop
             offset="1"
             style="stop-color:#9FA5A6"
             id="stop188" />
          <a:midPointStop
             offset="0"
             style="stop-color:#FFFFFF"
             id="midPointStop189" />
          <a:midPointStop
             offset="0.5"
             style="stop-color:#FFFFFF"
             id="midPointStop190" />
          <a:midPointStop
             offset="1"
             style="stop-color:#9FA5A6"
             id="midPointStop191" />
        </linearGradient>
        <path
           i:knockout="Off"
           fill="url(#XMLID_3_)"
           stroke="none"
           d="M98.517,111.016c-23.744,3.206-47.487,6.413-71.231,9.619      C30.017,88.932,52.865,57.72,55.438,27c17.216,2.468,34.432,4.937,51.647,7.405C109.657,60.434,95.785,85.971,98.517,111.016z"
           id="path192" />
      </g>
      <g
         i:knockout="On"
         opacity="0.3"
         id="g193">
        <path
           i:knockout="Off"
           fill="#FFFFFF"
           stroke="none"
           d="M50.317,50.192C52.874,42.431,54.792,34.7,55.438,27      c17.216,2.468,34.432,4.937,51.647,7.405c1.236,12.51-1.326,24.907-4.018,37.189c-2.909,13.273-5.97,26.414-4.551,39.422      c-6.757-4.312-11.641-14.014-15.733-19.495c-4.125-6.009-8.806-7.477-14.087-7.57c-5.157-0.264-10.89,0.902-14.438-3.772      C50.469,75.852,49.846,65.5,50.317,50.192z"
           id="path194" />
      </g>
    </g>
  </g>
</svg>
