<?xml version="1.0" encoding="UTF-8" standalone="no"?>
<!DOCTYPE svg PUBLIC "-//W3C//DTD SVG 1.0//EN"
"http://www.w3.org/TR/2001/REC-SVG-20010904/DTD/svg10.dtd">
<!-- Created with Sodipodi ("http://www.sodipodi.com/") -->
<svg
   xmlns="http://www.w3.org/2000/svg"
   xmlns:xlink="http://www.w3.org/1999/xlink"
   version="1.0"
   x="0"
   y="0"
   width="40"
   height="40"
   viewBox="0 0 123 122"
   id="svg602"
   xml:space="preserve"><defs
   id="defs630" /><g
   transform="matrix(1.144039,0,0,1.144039,-6.214347,-6.15505)"
   style="font-size:12;stroke:#000000;"
   id="g606"><linearGradient
   x1="85.9922028"
   y1="85.5811005"
   x2="32.664299"
   y2="32.2532005"
   id="XMLID_1_"
   gradientUnits="userSpaceOnUse"><stop
   style="stop-color:#404040;stop-opacity:1;"
   offset="0"
   id="stop608" /><stop
   style="stop-color:#7f7f7f;stop-opacity:1;"
   offset="1"
   id="stop609" /><a:midPointStop
   offset="0"
   style="stop-color:#404040"
   id="midPointStop610" /><a:midPointStop
   offset="0.5"
   style="stop-color:#404040"
   id="midPointStop611" /><a:midPointStop
   offset="1"
   style="stop-color:#7F7F7F"
   id="midPointStop612" /></linearGradient><path
   d="M 109.121 62.452 C 111.065 60.508 111.065 57.326 109.121 55.381 L 62.863 9.124 C 60.919 7.179 57.737 7.179 55.793 9.124 L 9.536 55.381 C 7.591 57.326 7.591 60.507 9.536 62.452 L 55.793 108.71 C 57.737 110.654 60.919 110.654 62.863 108.71 L 109.121 62.452 z "
   style="fill:url(#XMLID_1_);stroke:none;"
   id="path613" /><path
   d="M 109.121 62.452 C 111.065 60.508 111.065 57.326 109.121 55.381 L 62.863 9.124 C 60.919 7.179 57.737 7.179 55.793 9.124 L 9.536 55.381 C 7.591 57.326 7.591 60.507 9.536 62.452 L 55.793 108.71 C 57.737 110.654 60.919 110.654 62.863 108.71 L 109.121 62.452 z "
   style="fill:none;stroke:#404040;"
   id="path614" /></g><g
   transform="matrix(1.144039,0,0,1.144039,-6.214347,-6.15505)"
   style="font-size:12;stroke:#000000;"
   id="g617"><g
   id="g618"><linearGradient
   x1="78.5996017"
   y1="77.2900009"
   x2="40.5698013"
   y2="39.2602997"
   id="XMLID_2_"
   gradientUnits="userSpaceOnUse"><stop
   style="stop-color:#ff7f00;stop-opacity:1;"
   offset="0"
   id="stop620" /><stop
   style="stop-color:#ffff00;stop-opacity:1;"
   offset="1"
   id="stop621" /><a:midPointStop
   offset="0"
   style="stop-color:#FF7F00"
   id="midPointStop622" /><a:midPointStop
   offset="0.5"
   style="stop-color:#FF7F00"
   id="midPointStop623" /><a:midPointStop
   offset="1"
   style="stop-color:#FFFF00"
   id="midPointStop624" /></linearGradient><path
   d="M 60.703 70.084 L 58.578 70.084 C 58.348 66.369 57.596 61.871 56.318 56.59 L 53.761 45.932 C 52.222 39.545 51.453 34.965 51.453 32.194 C 51.453 29.686 52.201 27.665 53.697 26.133 C 55.193 24.602 57.146 23.834 59.554 23.834 C 61.894 23.834 63.837 24.609 65.384 26.156 C 66.929 27.705 67.702 29.668 67.702 32.047 C 67.702 34.526 66.891 39.154 65.272 45.932 L 62.695 56.59 C 61.789 60.371 61.125 64.869 60.703 70.084 z M 59.641 77.084 C 61.829 77.084 63.7 77.857 65.25 79.404 C 66.8 80.951 67.578 82.832 67.578 85.047 C 67.578 87.229 66.801 89.092 65.25 90.639 C 63.699 92.186 61.828 92.959 59.641 92.959 C 57.452 92.959 55.58 92.186 54.03 90.639 C 52.48 89.092 51.704 87.229 51.704 85.047 C 51.704 82.865 52.472 80.992 54.006 79.43 C 55.541 77.867 57.418 77.084 59.641 77.084 z "
   style="fill:url(#XMLID_2_);stroke:#404040;"
   id="path625" /></g></g><g
   transform="matrix(1.144039,0,0,1.144039,-6.214347,-6.15505)"
   style="font-size:12;opacity:0.3;stroke:#000000;"
   id="g626"><path
   d="M 108.738 55.812 C 110.892 57.52 111.066 57.327 109.121 55.382 L 62.863 9.124 C 60.92 7.179 57.738 7.179 55.793 9.124 L 9.536 55.381 C 7.591 57.326 7.759 60.32 9.908 62.036 C 9.908 62.036 35.704 82.625 59.328 59 C 82.953 35.375 108.738 55.812 108.738 55.812 z "
   style="fill:#ffffff;stroke:none;"
   id="path627" /><path
   d="M 108.738 55.812 C 110.892 57.52 111.066 57.327 109.121 55.382 L 62.863 9.124 C 60.92 7.179 57.738 7.179 55.793 9.124 L 9.536 55.381 C 7.591 57.326 7.759 60.32 9.908 62.036 C 9.908 62.036 35.704 82.625 59.328 59 C 82.953 35.375 108.738 55.812 108.738 55.812 z "
   style="fill:none;stroke:#ffffff;"
   id="path628" /></g></svg>
