<?xml version="1.0" encoding="UTF-8" standalone="no"?>
<!DOCTYPE svg PUBLIC "-//W3C//DTD SVG 1.0//EN"
"http://www.w3.org/TR/2001/REC-SVG-20010904/DTD/svg10.dtd">
<!-- Created with Sodipodi ("http://www.sodipodi.com/") -->
<svg
   xmlns="http://www.w3.org/2000/svg"
   xmlns:xlink="http://www.w3.org/1999/xlink"
   version="1.0"
   x="0"
   y="0"
   width="40"
   height="40"
   viewBox="0 0 128 117.292"
   id="svg602"
   xml:space="preserve"><defs
   id="defs639"><linearGradient
   x1="23.9902"
   y1="24.3237"
   x2="100.593903"
   y2="100.927399"
   id="XMLID_3_"
   gradientUnits="userSpaceOnUse"><stop
   style="stop-color:#808080;stop-opacity:1;"
   offset="0"
   id="stop627" /><stop
   style="stop-color:#404040;stop-opacity:1;"
   offset="1"
   id="stop628" /><a:midPointStop
   offset="0"
   style="stop-color:#808080"
   id="midPointStop629" /><a:midPointStop
   offset="0.5"
   style="stop-color:#808080"
   id="midPointStop630" /><a:midPointStop
   offset="1"
   style="stop-color:#404040"
   id="midPointStop631" /></linearGradient></defs><g
   transform="matrix(1.028648,0,0,1.028648,-0.23156,-5.828661)"
   style="font-size:12;stroke:#000000;"
   id="g604"><image
   xlink:href="233C1872.png"
   width="79"
   height="79"
   transform="translate(24.6738,24.7983)"
   style="opacity:0.5;"
   id="image605" /><g
   id="g606"><linearGradient
   x1="35.5054016"
   y1="35.8378983"
   x2="89.0791016"
   y2="89.4115982"
   id="XMLID_1_"
   gradientUnits="userSpaceOnUse"><stop
   style="stop-color:#ffffff;stop-opacity:1;"
   offset="0"
   id="stop608" /><stop
   style="stop-color:#b3b3b3;stop-opacity:1;"
   offset="1"
   id="stop609" /><a:midPointStop
   offset="0"
   style="stop-color:#FFFFFF"
   id="midPointStop610" /><a:midPointStop
   offset="0.5"
   style="stop-color:#FFFFFF"
   id="midPointStop611" /><a:midPointStop
   offset="1"
   style="stop-color:#B3B3B3"
   id="midPointStop612" /></linearGradient><path
   d="M 44.577 32.588 C 42.976 30.986 40.357 30.986 38.756 32.587 L 32.255 39.088 C 30.654 40.689 30.662 43.301 32.272 44.893 L 47.16 59.614 C 48.77 61.206 48.777 63.818 47.177 65.419 L 32.255 80.339 C 30.654 81.941 30.654 84.56 32.255 86.161 L 38.756 92.662 C 40.357 94.264 42.977 94.264 44.577 92.662 L 59.296 77.944 C 60.897 76.342 63.522 76.338 65.129 77.931 L 79.994 92.674 C 81.601 94.268 84.226 94.263 85.827 92.661 L 92.329 86.16 C 93.93 84.558 93.933 81.936 92.335 80.332 L 77.565 65.495 C 75.967 63.891 75.97 61.268 77.572 59.667 L 92.329 44.91 C 93.931 43.309 93.931 40.689 92.329 39.089 L 85.829 32.588 C 84.227 30.987 81.608 30.987 80.008 32.588 L 65.199 47.398 C 63.597 48.999 60.978 48.999 59.378 47.397 L 44.577 32.588 z "
   style="fill:url(#XMLID_1_);stroke:none;"
   id="path613" /><path
   d="M 44.577 32.588 C 42.976 30.986 40.357 30.986 38.756 32.587 L 32.255 39.088 C 30.654 40.689 30.662 43.301 32.272 44.893 L 47.16 59.614 C 48.77 61.206 48.777 63.818 47.177 65.419 L 32.255 80.339 C 30.654 81.941 30.654 84.56 32.255 86.161 L 38.756 92.662 C 40.357 94.264 42.977 94.264 44.577 92.662 L 59.296 77.944 C 60.897 76.342 63.522 76.338 65.129 77.931 L 79.994 92.674 C 81.601 94.268 84.226 94.263 85.827 92.661 L 92.329 86.16 C 93.93 84.558 93.933 81.936 92.335 80.332 L 77.565 65.495 C 75.967 63.891 75.97 61.268 77.572 59.667 L 92.329 44.91 C 93.931 43.309 93.931 40.689 92.329 39.089 L 85.829 32.588 C 84.227 30.987 81.608 30.987 80.008 32.588 L 65.199 47.398 C 63.597 48.999 60.978 48.999 59.378 47.397 L 44.577 32.588 z "
   style="fill:none;stroke:#404040;stroke-width:0.8233;"
   id="path614" /></g></g><g
   transform="matrix(1.028648,0,0,1.028648,-0.23156,-5.828661)"
   style="font-size:12;stroke:#000000;"
   id="g617"><linearGradient
   x1="23.9902"
   y1="24.3237"
   x2="100.593903"
   y2="100.927399"
   id="XMLID_2_"
   gradientUnits="userSpaceOnUse"><stop
   style="stop-color:#d7b9ab;stop-opacity:1;"
   offset="0"
   id="stop619" /><stop
   style="stop-color:#ff0000;stop-opacity:1;"
   offset="1"
   id="stop620" /><a:midPointStop
   offset="0"
   style="stop-color:#D7B9AB"
   id="midPointStop621" /><a:midPointStop
   offset="0.5"
   style="stop-color:#D7B9AB"
   id="midPointStop622" /><a:midPointStop
   offset="1"
   style="stop-color:#FF0000"
   id="midPointStop623" /></linearGradient><path
   d="M 62.292 116.792 C 32.377 116.792 8.125 92.541 8.125 62.625 C 8.125 32.709 32.377 8.458 62.292 8.458 C 92.208 8.458 116.459 32.709 116.459 62.625 C 116.458 92.541 92.208 116.792 62.292 116.792 z M 45.201 33.213 C 43.257 31.268 40.076 31.268 38.131 33.213 L 32.88 38.464 C 30.935 40.409 30.944 43.582 32.9 45.515 L 46.532 58.993 C 48.488 60.927 48.497 64.099 46.552 66.044 L 32.88 79.715 C 30.935 81.659 30.935 84.841 32.88 86.786 L 38.132 92.037 C 40.076 93.982 43.258 93.982 45.203 92.038 L 58.672 78.568 C 60.617 76.624 63.805 76.617 65.757 78.553 L 79.368 92.052 C 81.32 93.989 84.509 93.982 86.453 92.036 L 91.705 86.785 C 93.649 84.84 93.652 81.654 91.713 79.705 L 78.188 66.122 C 76.249 64.173 76.251 60.987 78.196 59.042 L 91.705 45.534 C 93.649 43.589 93.649 40.408 91.705 38.463 L 86.453 33.212 C 84.509 31.267 81.327 31.267 79.383 33.212 L 65.823 46.772 C 63.879 48.717 60.697 48.716 58.753 46.772 L 45.201 33.213 z "
   style="fill:url(#XMLID_2_);stroke:none;"
   id="path624" /><path
   d="M 62.292 116.792 C 32.377 116.792 8.125 92.541 8.125 62.625 C 8.125 32.709 32.377 8.458 62.292 8.458 C 92.208 8.458 116.459 32.709 116.459 62.625 C 116.458 92.541 92.208 116.792 62.292 116.792 z M 45.201 33.213 C 43.257 31.268 40.076 31.268 38.131 33.213 L 32.88 38.464 C 30.935 40.409 30.944 43.582 32.9 45.515 L 46.532 58.993 C 48.488 60.927 48.497 64.099 46.552 66.044 L 32.88 79.715 C 30.935 81.659 30.935 84.841 32.88 86.786 L 38.132 92.037 C 40.076 93.982 43.258 93.982 45.203 92.038 L 58.672 78.568 C 60.617 76.624 63.805 76.617 65.757 78.553 L 79.368 92.052 C 81.32 93.989 84.509 93.982 86.453 92.036 L 91.705 86.785 C 93.649 84.84 93.652 81.654 91.713 79.705 L 78.188 66.122 C 76.249 64.173 76.251 60.987 78.196 59.042 L 91.705 45.534 C 93.649 43.589 93.649 40.408 91.705 38.463 L 86.453 33.212 C 84.509 31.267 81.327 31.267 79.383 33.212 L 65.823 46.772 C 63.879 48.717 60.697 48.716 58.753 46.772 L 45.201 33.213 z "
   style="fill:none;stroke:#404040;"
   id="path625" /></g><path
   d="M 63.84498 114.3092 C 33.07298 114.3092 8.126204 89.36345 8.126204 58.59041 C 8.126204 27.81738 33.07298 2.871641 63.84498 2.871641 C 94.61801 2.871641 119.5637 27.81738 119.5637 58.59041 C 119.5627 89.36345 94.61801 114.3092 63.84498 114.3092 z M 114.8485 58.59041 C 114.8485 30.42192 92.01348 7.585935 63.84395 7.585935 C 35.67545 7.585935 12.83947 30.42192 12.83947 58.59041 C 12.83947 86.75994 35.67545 109.5949 63.84395 109.5949 C 92.01348 109.5949 114.8485 86.75994 114.8485 58.59041 z "
   style="font-size:12;fill:url(#XMLID_3_);stroke:#404040;stroke-width:1.028648;"
   id="path632" /><g
   transform="matrix(1.028648,0,0,1.028648,-0.23156,-5.828661)"
   style="font-size:12;fill:#fff8f4;fill-opacity:0.1538;stroke:#fff8f4;stroke-opacity:0.0538;"
   id="g635"><path
   d="M 62.25 66.792 C 35.833 93.209 8.083 62.625 8.083 62.625 C 8.083 32.709 32.334 8.458 62.25 8.458 C 92.166 8.458 116.418 32.709 116.418 62.625 C 116.417 62.625 88.667 40.375 62.25 66.792 z "
   id="path636" /><path
   d="M 62.25 66.792 C 35.833 93.209 8.083 62.625 8.083 62.625 C 8.083 32.709 32.334 8.458 62.25 8.458 C 92.166 8.458 116.418 32.709 116.418 62.625 C 116.417 62.625 88.667 40.375 62.25 66.792 z "
   id="path637" /></g></svg>
