<?xml version="1.0" encoding="UTF-8" standalone="no"?>
<!DOCTYPE svg PUBLIC "-//W3C//DTD SVG 1.0//EN"
"http://www.w3.org/TR/2001/REC-SVG-20010904/DTD/svg10.dtd">
<!-- Created with Sodipodi ("http://www.sodipodi.com/") -->
<svg
   xmlns="http://www.w3.org/2000/svg"
   xmlns:xlink="http://www.w3.org/1999/xlink"
   version="1.0"
   x="0"
   y="0"
   width="40"
   height="40"
   viewBox="0 0 131 131"
   id="svg602"
   xml:space="preserve"><defs
   id="defs619" /><g
   transform="matrix(1.074559,0,0,1.074559,-0.593357,-0.602678)"
   style="font-size:12;stroke:#000000;"
   id="g606"><linearGradient
   x1="34.607399"
   y1="34.732399"
   x2="92.0605011"
   y2="92.1855011"
   id="XMLID_1_"
   gradientUnits="userSpaceOnUse"><stop
   style="stop-color:#bfbfbf;stop-opacity:1;"
   offset="0"
   id="stop608" /><stop
   style="stop-color:#404040;stop-opacity:1;"
   offset="0.9831"
   id="stop609" /><a:midPointStop
   offset="0"
   style="stop-color:#BFBFBF"
   id="midPointStop610" /><a:midPointStop
   offset="0.5"
   style="stop-color:#BFBFBF"
   id="midPointStop611" /><a:midPointStop
   offset="0.9831"
   style="stop-color:#404040"
   id="midPointStop612" /></linearGradient><path
   d="M 117.251 66.994 C 119.195 65.05 119.195 61.868 117.251 59.923 L 66.869 9.542 C 64.925 7.597 61.743 7.597 59.799 9.542 L 9.417 59.923 C 7.472 61.868 7.472 65.049 9.417 66.994 L 59.799 117.376 C 61.743 119.32 64.925 119.32 66.869 117.376 L 117.251 66.994 z "
   style="fill:url(#XMLID_1_);stroke:none;"
   id="path613" /><path
   d="M 117.251 66.994 C 119.195 65.05 119.195 61.868 117.251 59.923 L 66.869 9.542 C 64.925 7.597 61.743 7.597 59.799 9.542 L 9.417 59.923 C 7.472 61.868 7.472 65.049 9.417 66.994 L 59.799 117.376 C 61.743 119.32 64.925 119.32 66.869 117.376 L 117.251 66.994 z "
   style="fill:none;stroke:#404040;"
   id="path614" /></g><g
   transform="matrix(1.074559,0,0,1.074559,-0.593357,-0.602678)"
   style="font-size:12;opacity:0.3;stroke:#000000;"
   id="g615"><path
   d="M 116.677 60.61 C 118.937 62.176 119.196 61.868 117.251 59.923 L 66.869 9.542 C 64.925 7.597 61.743 7.597 59.799 9.542 L 9.417 59.923 C 7.472 61.868 7.707 64.773 9.939 66.381 C 9.939 66.381 39.546 87.699 63.335 63.911 C 87.124 40.123 116.677 60.61 116.677 60.61 z "
   style="fill:#ffffff;stroke:none;"
   id="path616" /><path
   d="M 116.677 60.61 C 118.937 62.176 119.196 61.868 117.251 59.923 L 66.869 9.542 C 64.925 7.597 61.743 7.597 59.799 9.542 L 9.417 59.923 C 7.472 61.868 7.707 64.773 9.939 66.381 C 9.939 66.381 39.546 87.699 63.335 63.911 C 87.124 40.123 116.677 60.61 116.677 60.61 z "
   style="fill:none;stroke:#ffffff;"
   id="path617" /></g></svg>
