<?xml version="1.0" encoding="UTF-8" standalone="no"?>
<!DOCTYPE svg PUBLIC "-//W3C//DTD SVG 20010904//EN"
"http://www.w3.org/TR/2001/REC-SVG-20010904/DTD/svg10.dtd">
<!-- Created with Sodipodi ("http://www.sodipodi.com/") -->
<svg
   i:viewOrigin="249.2485 453.7085"
   i:rulerOrigin="-242 -332"
   i:pageBounds="242 460 370 332"
   width="32pt"
   height="32pt"
   viewBox="0 0 128.251 121.702"
   overflow="visible"
   enable-background="new 0 0 128.251 121.702"
   xml:space="preserve"
   id="svg153"
   sodipodi:version="0.32pre"
   sodipodi:docname="/home/cschalle/gnome-themes-extras/Amaranth/icons/scalable/emblems/emblem-pictures.svg"
   sodipodi:docbase="/home/cschalle/gnome-themes-extras/Amaranth/icons/scalable/emblems"
   xmlns="http://www.w3.org/2000/svg"
   xmlns:sodipodi="http://sodipodi.sourceforge.net/DTD/sodipodi-0.dtd"
   xmlns:ns="http://ns.adobe.com/Variables/1.0/"
   xmlns:i="http://ns.adobe.com/AdobeIllustrator/10.0/"
   xmlns:xml="http://www.w3.org/XML/1998/namespace"
   xmlns:a="http://ns.adobe.com/AdobeSVGViewerExtensions/3.0/"
   xmlns:xlink="http://www.w3.org/1999/xlink">
  <defs
     id="defs377">
    <linearGradient
       id="XMLID_2_"
       gradientUnits="userSpaceOnUse"
       x1="53.8228"
       y1="87.9888"
       x2="18.8507"
       y2="53.0167">
      <stop
         offset="0"
         style="stop-color:#FFFFFF"
         id="stop169" />
      <stop
         offset="1"
         style="stop-color:#023555"
         id="stop170" />
      <a:midPointStop
         offset="0"
         style="stop-color:#FFFFFF"
         id="midPointStop171" />
      <a:midPointStop
         offset="0.5"
         style="stop-color:#FFFFFF"
         id="midPointStop172" />
      <a:midPointStop
         offset="1"
         style="stop-color:#023555"
         id="midPointStop173" />
    </linearGradient>
    <linearGradient
       id="XMLID_12_"
       gradientUnits="userSpaceOnUse"
       x1="30.7324"
       y1="59.5679"
       x2="42.2422"
       y2="84.2506">
      <stop
         offset="0"
         style="stop-color:#FFFFFF"
         id="stop346" />
      <stop
         offset="1"
         style="stop-color:#C4525E"
         id="stop347" />
      <a:midPointStop
         offset="0"
         style="stop-color:#FFFFFF"
         id="midPointStop348" />
      <a:midPointStop
         offset="0.5"
         style="stop-color:#FFFFFF"
         id="midPointStop349" />
      <a:midPointStop
         offset="1"
         style="stop-color:#C4525E"
         id="midPointStop350" />
    </linearGradient>
  </defs>
  <sodipodi:namedview
     id="base" />
  <metadata
     id="metadata154">
    <sfw>
      <slices />
      <sliceSourceBounds
         x="249.249"
         y="332.007"
         width="128.251"
         height="121.702"
         bottomLeftOrigin="true" />
    </sfw>
    <ns:variableSets>
      <ns:variableSet
         varSetName="binding1"
         locked="none">
        <ns:variables />
        <ns:sampleDataSets />
      </ns:variableSet>
    </ns:variableSets>
  </metadata>
  <g
     id="g352"
     transform="matrix(1.2709,0,0,1.32178,16.7553,-7.77695)">
    <path
       i:knockout="Off"
       fill="url(#XMLID_2_)"
       d="M55.756,54.951c0,0-6.81-6.189-19.498-6.189c-12.689,0-19.343,6.189-19.343,6.189    v31.104c0,0,8.047-6.189,19.188-6.189s19.652,6.189,19.652,6.189V54.951z"
       id="path174"
       style="font-size:12;fill:url(#XMLID_2_);stroke:#000000;" />
    <path
       i:knockout="Off"
       opacity="0.3"
       fill="#FFFFFF"
       stroke="none"
       d="M55.756,54.951c0,0-1.078-0.98-3.177-2.16    c-3.174-1.786-8.682-4.029-16.321-4.029c-12.689,0-19.343,6.189-19.343,6.189s7.175,5.714,13.24,6.067    c2.562,0.149,5.025-3.609,6.317-4.901C41.135,51.455,55.756,54.951,55.756,54.951z"
       id="path175"
       style="font-size:12;opacity:0.3;fill:#ffffff;" />
    <g
       id="g179"
       style="font-size:12;stroke:#000000;">
      <linearGradient
         id="XMLID_3_"
         gradientUnits="userSpaceOnUse"
         x1="49.5146"
         y1="48.6831"
         x2="55.2158"
         y2="48.6831"
         gradientTransform="matrix(-0.3265 -0.9452 0.9452 -0.3265 -19.7179 85.7829)">
        <stop
           offset="0"
           style="stop-color:#F4A279"
           id="stop181" />
        <stop
           offset="1"
           style="stop-color:#FAACD5"
           id="stop182" />
        <a:midPointStop
           offset="0"
           style="stop-color:#F4A279"
           id="midPointStop183" />
        <a:midPointStop
           offset="0.5"
           style="stop-color:#F4A279"
           id="midPointStop184" />
        <a:midPointStop
           offset="1"
           style="stop-color:#FAACD5"
           id="midPointStop185" />
      </linearGradient>
      <path
         i:knockout="Off"
         fill="url(#XMLID_3_)"
         stroke="none"
         d="M13.29,21.995l-1.091-3.159c0,0-2.072-1.78-4.116-1.074       c-2.042,0.705-2.202,3.256-2.202,3.256l1.091,3.158"
         id="path186" />
      <path
         i:knockout="Off"
         fill="none"
         d="M13.29,21.995l-1.091-3.159c0,0-2.072-1.78-4.116-1.074       c-2.042,0.705-2.202,3.256-2.202,3.256l1.091,3.158"
         id="path187" />
    </g>
    <g
       id="g190"
       style="font-size:12;stroke:#000000;">
      <linearGradient
         id="XMLID_4_"
         gradientUnits="userSpaceOnUse"
         x1="22.0938"
         y1="52.0234"
         x2="22.0938"
         y2="45.3384"
         gradientTransform="matrix(-0.3265 -0.9452 0.9452 -0.3265 -19.7179 85.7829)">
        <stop
           offset="0"
           style="stop-color:#F7EB8F"
           id="stop192" />
        <stop
           offset="0.138"
           style="stop-color:#F7EA8D"
           id="stop193" />
        <stop
           offset="0.1877"
           style="stop-color:#F6E585"
           id="stop194" />
        <stop
           offset="0.223"
           style="stop-color:#F7DE78"
           id="stop195" />
        <stop
           offset="0.2472"
           style="stop-color:#F8D569"
           id="stop196" />
        <stop
           offset="0.2652"
           style="stop-color:#F8CE5F"
           id="stop197" />
        <stop
           offset="0.2988"
           style="stop-color:#F9C752"
           id="stop198" />
        <stop
           offset="0.3461"
           style="stop-color:#F9C24B"
           id="stop199" />
        <stop
           offset="0.4775"
           style="stop-color:#FAC149"
           id="stop200" />
        <stop
           offset="0.5976"
           style="stop-color:#FAC048"
           id="stop201" />
        <stop
           offset="0.6408"
           style="stop-color:#FABB42"
           id="stop202" />
        <stop
           offset="0.6715"
           style="stop-color:#FBB336"
           id="stop203" />
        <stop
           offset="0.6963"
           style="stop-color:#FCA927"
           id="stop204" />
        <stop
           offset="0.6966"
           style="stop-color:#FCA927"
           id="stop205" />
        <stop
           offset="0.7091"
           style="stop-color:#FCA320"
           id="stop206" />
        <stop
           offset="0.742"
           style="stop-color:#FE9812"
           id="stop207" />
        <stop
           offset="0.783"
           style="stop-color:#FF900B"
           id="stop208" />
        <stop
           offset="0.8405"
           style="stop-color:#FF8B03"
           id="stop209" />
        <stop
           offset="1"
           style="stop-color:#FF8A00"
           id="stop210" />
        <a:midPointStop
           offset="0"
           style="stop-color:#F7EB8F"
           id="midPointStop211" />
        <a:midPointStop
           offset="0.87"
           style="stop-color:#F7EB8F"
           id="midPointStop212" />
        <a:midPointStop
           offset="0.2472"
           style="stop-color:#F8D569"
           id="midPointStop213" />
        <a:midPointStop
           offset="0.13"
           style="stop-color:#F8D569"
           id="midPointStop214" />
        <a:midPointStop
           offset="0.4775"
           style="stop-color:#FAC149"
           id="midPointStop215" />
        <a:midPointStop
           offset="0.87"
           style="stop-color:#FAC149"
           id="midPointStop216" />
        <a:midPointStop
           offset="0.6966"
           style="stop-color:#FCA927"
           id="midPointStop217" />
        <a:midPointStop
           offset="0.13"
           style="stop-color:#FCA927"
           id="midPointStop218" />
        <a:midPointStop
           offset="1"
           style="stop-color:#FF8A00"
           id="midPointStop219" />
      </linearGradient>
      <path
         i:knockout="Off"
         fill="url(#XMLID_4_)"
         stroke="none"
         d="M9.11,20.735c-2.044,0.705-2.202,3.256-2.202,3.256       L25.71,78.429c0,0-0.028-2.486,2.203-3.257c2.229-0.77,4.114,1.076,4.114,1.076L13.225,21.81       C13.225,21.81,11.153,20.029,9.11,20.735z"
         id="path220" />
      <path
         i:knockout="Off"
         fill="none"
         d="M9.11,20.735c-2.044,0.705-2.202,3.256-2.202,3.256L25.71,78.429       c0,0-0.028-2.486,2.203-3.257c2.229-0.77,4.114,1.076,4.114,1.076L13.225,21.81C13.225,21.81,11.153,20.029,9.11,20.735z"
         id="path221" />
    </g>
    <g
       id="g224"
       style="font-size:12;stroke:#000000;">
      <linearGradient
         id="XMLID_5_"
         gradientUnits="userSpaceOnUse"
         x1="-11.0269"
         y1="52.021"
         x2="-11.0269"
         y2="45.3384"
         gradientTransform="matrix(-0.3265 -0.9452 0.9452 -0.3265 -19.7179 85.7829)">
        <stop
           offset="0"
           style="stop-color:#F7EB8F"
           id="stop226" />
        <stop
           offset="0.2978"
           style="stop-color:#C29B2F"
           id="stop227" />
        <stop
           offset="0.5506"
           style="stop-color:#FBDD40"
           id="stop228" />
        <stop
           offset="1"
           style="stop-color:#FF8A00"
           id="stop229" />
        <a:midPointStop
           offset="0"
           style="stop-color:#F7EB8F"
           id="midPointStop230" />
        <a:midPointStop
           offset="0.5"
           style="stop-color:#F7EB8F"
           id="midPointStop231" />
        <a:midPointStop
           offset="0.2978"
           style="stop-color:#C29B2F"
           id="midPointStop232" />
        <a:midPointStop
           offset="0.5"
           style="stop-color:#C29B2F"
           id="midPointStop233" />
        <a:midPointStop
           offset="0.5506"
           style="stop-color:#FBDD40"
           id="midPointStop234" />
        <a:midPointStop
           offset="0.5"
           style="stop-color:#FBDD40"
           id="midPointStop235" />
        <a:midPointStop
           offset="1"
           style="stop-color:#FF8A00"
           id="midPointStop236" />
      </linearGradient>
      <path
         i:knockout="Off"
         fill="url(#XMLID_5_)"
         stroke="none"
         d="M25.71,78.429l4.681,7.534c0,0,0.3-0.936,0.797-1.107       c0.494-0.17,1.433,0.337,1.433,0.337l-0.595-8.944c0,0-1.512-1.973-4.114-1.076C25.311,76.072,25.71,78.429,25.71,78.429z"
         id="path237" />
      <path
         i:knockout="Off"
         fill="none"
         d="M25.71,78.429l4.681,7.534c0,0,0.3-0.936,0.797-1.107       c0.494-0.17,1.433,0.337,1.433,0.337l-0.595-8.944c0,0-1.512-1.973-4.114-1.076C25.311,76.072,25.71,78.429,25.71,78.429z"
         id="path238" />
    </g>
    <g
       id="g241"
       style="font-size:12;stroke:#000000;">
      <path
         i:knockout="Off"
         fill="#515151"
         stroke="none"
         d="M30.391,85.963l2.69,3.576l-0.46-4.347c0,0-0.836-0.611-1.433-0.337       C30.59,85.132,30.391,85.963,30.391,85.963z"
         id="path242" />
      <path
         i:knockout="Off"
         fill="none"
         d="M30.391,85.963l2.69,3.576l-0.46-4.347c0,0-0.836-0.611-1.433-0.337       C30.59,85.132,30.391,85.963,30.391,85.963z"
         id="path243" />
    </g>
    <path
       i:knockout="Off"
       fill="none"
       d="M29.713,74.968L11.061,20.961"
       id="path244"
       style="font-size:12;fill:none;stroke:#000000;" />
    <path
       i:knockout="Off"
       fill="none"
       d="M27.227,74.995L8.617,21.113"
       id="path245"
       style="font-size:12;fill:none;stroke:#000000;" />
    <g
       id="g249"
       style="font-size:12;stroke:#000000;">
      <linearGradient
         id="XMLID_6_"
         gradientUnits="userSpaceOnUse"
         x1="27.25"
         y1="88.5269"
         x2="27.25"
         y2="81.8403"
         gradientTransform="matrix(0.3798 -0.9251 0.9251 0.3798 -33.6356 37.8298)">
        <stop
           offset="0"
           style="stop-color:#83C0AF"
           id="stop251" />
        <stop
           offset="0.1492"
           style="stop-color:#84BFB0"
           id="stop252" />
        <stop
           offset="0.2029"
           style="stop-color:#86BAB1"
           id="stop253" />
        <stop
           offset="0.2411"
           style="stop-color:#8AB3B4"
           id="stop254" />
        <stop
           offset="0.2472"
           style="stop-color:#8BB1B4"
           id="stop255" />
        <stop
           offset="0.2614"
           style="stop-color:#83AAB2"
           id="stop256" />
        <stop
           offset="0.2956"
           style="stop-color:#77A0AF"
           id="stop257" />
        <stop
           offset="0.3438"
           style="stop-color:#719AAD"
           id="stop258" />
        <stop
           offset="0.4775"
           style="stop-color:#7098AD"
           id="stop259" />
        <stop
           offset="0.5837"
           style="stop-color:#6E96AB"
           id="stop260" />
        <stop
           offset="0.622"
           style="stop-color:#678FA8"
           id="stop261" />
        <stop
           offset="0.6493"
           style="stop-color:#5C84A2"
           id="stop262" />
        <stop
           offset="0.6713"
           style="stop-color:#4C759A"
           id="stop263" />
        <stop
           offset="0.69"
           style="stop-color:#38618F"
           id="stop264" />
        <stop
           offset="0.6966"
           style="stop-color:#2F5A8B"
           id="stop265" />
        <stop
           offset="0.7519"
           style="stop-color:#2F5C8C"
           id="stop266" />
        <stop
           offset="1"
           style="stop-color:#2F5D8C"
           id="stop267" />
        <a:midPointStop
           offset="0"
           style="stop-color:#83C0AF"
           id="midPointStop268" />
        <a:midPointStop
           offset="0.87"
           style="stop-color:#83C0AF"
           id="midPointStop269" />
        <a:midPointStop
           offset="0.2472"
           style="stop-color:#8BB1B4"
           id="midPointStop270" />
        <a:midPointStop
           offset="0.13"
           style="stop-color:#8BB1B4"
           id="midPointStop271" />
        <a:midPointStop
           offset="0.4775"
           style="stop-color:#7098AD"
           id="midPointStop272" />
        <a:midPointStop
           offset="0.87"
           style="stop-color:#7098AD"
           id="midPointStop273" />
        <a:midPointStop
           offset="0.6966"
           style="stop-color:#2F5A8B"
           id="midPointStop274" />
        <a:midPointStop
           offset="0.13"
           style="stop-color:#2F5A8B"
           id="midPointStop275" />
        <a:midPointStop
           offset="1"
           style="stop-color:#2F5D8C"
           id="midPointStop276" />
      </linearGradient>
      <path
         i:knockout="Off"
         fill="url(#XMLID_6_)"
         stroke="none"
         d="M66.718,17.168c-1.999-0.822-3.805,0.988-3.805,0.988       L41.042,71.435c0,0,1.622-1.885,3.806-0.988c2.183,0.896,2.377,3.527,2.377,3.527l21.871-53.28       C69.096,20.694,68.719,17.989,66.718,17.168z"
         id="path277" />
      <path
         i:knockout="Off"
         fill="none"
         d="M66.718,17.168c-1.999-0.822-3.805,0.988-3.805,0.988L41.042,71.435       c0,0,1.622-1.885,3.806-0.988c2.183,0.896,2.377,3.527,2.377,3.527l21.871-53.28C69.096,20.694,68.719,17.989,66.718,17.168z"
         id="path278" />
    </g>
    <g
       id="g281"
       style="font-size:12;stroke:#000000;">
      <linearGradient
         id="XMLID_7_"
         gradientUnits="userSpaceOnUse"
         x1="-5.8701"
         y1="88.5269"
         x2="-5.8701"
         y2="81.8433"
         gradientTransform="matrix(0.3798 -0.9251 0.9251 0.3798 -33.6356 37.8298)">
        <stop
           offset="0"
           style="stop-color:#F7EB8F"
           id="stop283" />
        <stop
           offset="0.2978"
           style="stop-color:#C29B2F"
           id="stop284" />
        <stop
           offset="0.5506"
           style="stop-color:#FBDD40"
           id="stop285" />
        <stop
           offset="1"
           style="stop-color:#FF8A00"
           id="stop286" />
        <a:midPointStop
           offset="0"
           style="stop-color:#F7EB8F"
           id="midPointStop287" />
        <a:midPointStop
           offset="0.5"
           style="stop-color:#F7EB8F"
           id="midPointStop288" />
        <a:midPointStop
           offset="0.2978"
           style="stop-color:#C29B2F"
           id="midPointStop289" />
        <a:midPointStop
           offset="0.5"
           style="stop-color:#C29B2F"
           id="midPointStop290" />
        <a:midPointStop
           offset="0.5506"
           style="stop-color:#FBDD40"
           id="midPointStop291" />
        <a:midPointStop
           offset="0.5"
           style="stop-color:#FBDD40"
           id="midPointStop292" />
        <a:midPointStop
           offset="1"
           style="stop-color:#FF8A00"
           id="midPointStop293" />
      </linearGradient>
      <path
         i:knockout="Off"
         fill="url(#XMLID_7_)"
         stroke="none"
         d="M41.042,71.435l-1.467,8.748c0,0,0.844-0.503,1.33-0.304       c0.483,0.198,0.853,1.2,0.853,1.2l5.467-7.105c0,0,0.168-2.479-2.377-3.527C42.301,69.402,41.042,71.435,41.042,71.435z"
         id="path294" />
      <path
         i:knockout="Off"
         fill="none"
         d="M41.042,71.435l-1.467,8.748c0,0,0.844-0.503,1.33-0.304       c0.483,0.198,0.853,1.2,0.853,1.2l5.467-7.105c0,0,0.168-2.479-2.377-3.527C42.301,69.402,41.042,71.435,41.042,71.435z"
         id="path295" />
    </g>
    <g
       id="g298"
       style="font-size:12;stroke:#000000;">
      <path
         i:knockout="Off"
         fill="#515151"
         stroke="none"
         d="M39.576,80.183l-0.345,4.462l2.527-3.565c0,0-0.224-1.013-0.853-1.2       C40.275,79.691,39.576,80.183,39.576,80.183z"
         id="path299" />
      <path
         i:knockout="Off"
         fill="none"
         d="M39.576,80.183l-0.345,4.462l2.527-3.565c0,0-0.224-1.013-0.853-1.2       C40.275,79.691,39.576,80.183,39.576,80.183z"
         id="path300" />
    </g>
    <g
       id="g303"
       style="font-size:12;stroke:#000000;">
      <linearGradient
         id="XMLID_8_"
         gradientUnits="userSpaceOnUse"
         x1="14.8877"
         y1="39.3838"
         x2="42.594"
         y2="67.0901"
         gradientTransform="matrix(0.9928 -0.1198 0.1198 0.9928 -5.7178 4.343)">
        <stop
           offset="0"
           style="stop-color:#DBDBDB"
           id="stop305" />
        <stop
           offset="1"
           style="stop-color:#454545"
           id="stop306" />
        <a:midPointStop
           offset="0"
           style="stop-color:#DBDBDB"
           id="midPointStop307" />
        <a:midPointStop
           offset="0.5"
           style="stop-color:#DBDBDB"
           id="midPointStop308" />
        <a:midPointStop
           offset="1"
           style="stop-color:#454545"
           id="midPointStop309" />
      </linearGradient>
      <path
         i:knockout="Off"
         fill="url(#XMLID_8_)"
         stroke="none"
         d="M33.198,78.105c0.154,1.644-0.134,3.037-0.641,3.099      c-0.507,0.062-1.124-1.224-1.371-2.854L23.92,30.401c-0.247-1.631,0.657-3.1,2.009-3.263c1.353-0.163,2.584,1.048,2.739,2.69      L33.198,78.105z"
         id="path310" />
      <path
         i:knockout="Off"
         fill="none"
         d="M33.198,78.105c0.154,1.644-0.134,3.037-0.641,3.099      c-0.507,0.062-1.124-1.224-1.371-2.854L23.92,30.401c-0.247-1.631,0.657-3.1,2.009-3.263c1.353-0.163,2.584,1.048,2.739,2.69      L33.198,78.105z"
         id="path311" />
    </g>
    <g
       id="g314"
       style="font-size:12;stroke:#000000;">
      <linearGradient
         id="XMLID_9_"
         gradientUnits="userSpaceOnUse"
         x1="18.8501"
         y1="53.4814"
         x2="53.8222"
         y2="88.4535">
        <stop
           offset="0"
           style="stop-color:#FFFFFF"
           id="stop316" />
        <stop
           offset="1"
           style="stop-color:#023555"
           id="stop317" />
        <a:midPointStop
           offset="0"
           style="stop-color:#FFFFFF"
           id="midPointStop318" />
        <a:midPointStop
           offset="0.5"
           style="stop-color:#FFFFFF"
           id="midPointStop319" />
        <a:midPointStop
           offset="1"
           style="stop-color:#023555"
           id="midPointStop320" />
      </linearGradient>
      <path
         i:knockout="Off"
         fill="url(#XMLID_9_)"
         stroke="none"
         d="M55.756,86.519c0,0-6.81,6.189-19.498,6.189      s-19.343-6.189-19.343-6.189V55.415c0,0,8.047,6.19,19.188,6.19s19.652-6.19,19.652-6.19V86.519z"
         id="path321" />
      <path
         i:knockout="Off"
         fill="none"
         d="M55.756,86.519c0,0-6.81,6.189-19.498,6.189s-19.343-6.189-19.343-6.189V55.415      c0,0,8.047,6.19,19.188,6.19s19.652-6.19,19.652-6.19V86.519z"
         id="path322" />
    </g>
    <g
       id="g325"
       style="font-size:12;stroke:#000000;">
      <linearGradient
         id="XMLID_10_"
         gradientUnits="userSpaceOnUse"
         x1="55.4951"
         y1="30.9951"
         x2="63.0399"
         y2="38.5399">
        <stop
           offset="0"
           style="stop-color:#DBDBDB"
           id="stop327" />
        <stop
           offset="1"
           style="stop-color:#454545"
           id="stop328" />
        <a:midPointStop
           offset="0"
           style="stop-color:#DBDBDB"
           id="midPointStop329" />
        <a:midPointStop
           offset="0.5"
           style="stop-color:#DBDBDB"
           id="midPointStop330" />
        <a:midPointStop
           offset="1"
           style="stop-color:#454545"
           id="midPointStop331" />
      </linearGradient>
      <path
         i:knockout="Off"
         fill="url(#XMLID_10_)"
         stroke="none"
         d="M60.327,37.656c-0.607,1.534-1.355,2.713-1.663,2.621      s-1.1,1.067-1.762,2.579l-0.784,1.789c-0.662,1.512-1.438,2.655-1.725,2.542s-0.009-1.456,0.617-2.982l0.862-2.102      c0.626-1.527,0.914-2.81,0.639-2.852s-0.002-1.332,0.604-2.866l4.594-11.605c0.607-1.534,1.827-2.503,2.71-2.154      c0.882,0.35,1.107,1.891,0.5,3.425L60.327,37.656z"
         id="path332" />
      <path
         i:knockout="Off"
         fill="none"
         d="M60.327,37.656c-0.607,1.534-1.355,2.713-1.663,2.621s-1.1,1.067-1.762,2.579      l-0.784,1.789c-0.662,1.512-1.438,2.655-1.725,2.542s-0.009-1.456,0.617-2.982l0.862-2.102c0.626-1.527,0.914-2.81,0.639-2.852      s-0.002-1.332,0.604-2.866l4.594-11.605c0.607-1.534,1.827-2.503,2.71-2.154c0.882,0.35,1.107,1.891,0.5,3.425L60.327,37.656z"
         id="path333" />
    </g>
    <g
       id="g336"
       style="font-size:12;stroke:#000000;">
      <linearGradient
         id="XMLID_11_"
         gradientUnits="userSpaceOnUse"
         x1="26.418"
         y1="19.0381"
         x2="38.3911"
         y2="31.0113">
        <stop
           offset="0"
           style="stop-color:#6DAD6D"
           id="stop338" />
        <stop
           offset="1"
           style="stop-color:#71793F"
           id="stop339" />
        <a:midPointStop
           offset="0"
           style="stop-color:#6DAD6D"
           id="midPointStop340" />
        <a:midPointStop
           offset="0.5"
           style="stop-color:#6DAD6D"
           id="midPointStop341" />
        <a:midPointStop
           offset="1"
           style="stop-color:#71793F"
           id="midPointStop342" />
      </linearGradient>
      <path
         i:knockout="Off"
         fill="url(#XMLID_11_)"
         stroke="none"
         d="M26.428,26.927c-1.626,0.28-2.936-0.841-2.91-2.491      c0,0,0.103-6.572,7.118-6.572s11.058,8.242,11.058,8.242c0.727,1.481,0.238,1.887-1.085,0.902c0,0-6.464-4.811-9.766-2.542      C27.542,26.735,26.428,26.927,26.428,26.927z"
         id="path343" />
      <path
         i:knockout="Off"
         fill="none"
         d="M26.428,26.927c-1.626,0.28-2.936-0.841-2.91-2.491c0,0,0.103-6.572,7.118-6.572      s11.058,8.242,11.058,8.242c0.727,1.481,0.238,1.887-1.085,0.902c0,0-6.464-4.811-9.766-2.542      C27.542,26.735,26.428,26.927,26.428,26.927z"
         id="path344" />
    </g>
    <path
       i:knockout="Off"
       fill="url(#XMLID_12_)"
       stroke-width="0.5"
       d="M55.602,77.234c0,0-6.755,6.189-19.343,6.189    S17.07,77.234,17.07,77.234V65.938c0,0,7.983,6.189,19.036,6.189s19.496-6.189,19.496-6.189V77.234z"
       id="path351"
       style="font-size:12;fill:url(#XMLID_12_);stroke:#000000;stroke-width:0.5;" />
    <g
       i:knockout="Off"
       id="g501"
       style="font-size:12;stroke:#000000;">
      <g
         id="g353">
        <linearGradient
           id="XMLID_13_"
           gradientUnits="userSpaceOnUse"
           x1="23.8657"
           y1="75.2378"
           x2="34.3486"
           y2="75.2378">
          <stop
             offset="0"
             style="stop-color:#B0B0B0"
             id="stop355" />
          <stop
             offset="1"
             style="stop-color:#575757"
             id="stop356" />
          <a:midPointStop
             offset="0"
             style="stop-color:#B0B0B0"
             id="midPointStop357" />
          <a:midPointStop
             offset="0.5"
             style="stop-color:#B0B0B0"
             id="midPointStop358" />
          <a:midPointStop
             offset="1"
             style="stop-color:#575757"
             id="midPointStop359" />
        </linearGradient>
        <path
           i:knockout="Off"
           fill="url(#XMLID_13_)"
           stroke="#575757"
           stroke-width="0.5"
           d="M33.986,81.036      c-0.006,0.137-0.083,0.249-0.234,0.338c-0.15,0.088-0.331,0.128-0.541,0.115c-0.209-0.012-0.385-0.071-0.525-0.177      c-0.139-0.105-0.204-0.226-0.194-0.362c0.074-1.016,0.148-2.031,0.222-3.047c-3.079-0.225-6.139-0.771-9.131-1.639      c-0.284,0.978-0.567,1.955-0.85,2.933c-0.039,0.133-0.142,0.224-0.311,0.274c-0.169,0.05-0.355,0.044-0.558-0.019      c-0.203-0.063-0.363-0.16-0.476-0.292c-0.112-0.133-0.147-0.265-0.105-0.395c0.419-1.288,0.837-2.577,1.256-3.866      c0.367-1.125,1.226-1.899,2.492-2.413c1.269-0.516,2.573-0.627,4.017-0.367c1.443,0.258,2.622,0.813,3.624,1.737      c0.999,0.921,1.527,1.945,1.479,3.128C34.097,78.335,34.042,79.685,33.986,81.036z M32.786,76.917      c0.065-0.907-0.315-1.708-1.079-2.436c-0.765-0.73-1.695-1.177-2.842-1.382c-1.136-0.204-2.163-0.108-3.139,0.31      c-0.975,0.416-1.614,1.033-1.868,1.906C26.784,76.165,29.776,76.699,32.786,76.917z"
           id="path360" />
        <linearGradient
           id="XMLID_14_"
           gradientUnits="userSpaceOnUse"
           x1="35.2544"
           y1="76.2026"
           x2="41.2017"
           y2="76.2026">
          <stop
             offset="0"
             style="stop-color:#B0B0B0"
             id="stop362" />
          <stop
             offset="1"
             style="stop-color:#575757"
             id="stop363" />
          <a:midPointStop
             offset="0"
             style="stop-color:#B0B0B0"
             id="midPointStop364" />
          <a:midPointStop
             offset="0.5"
             style="stop-color:#B0B0B0"
             id="midPointStop365" />
          <a:midPointStop
             offset="1"
             style="stop-color:#575757"
             id="midPointStop366" />
        </linearGradient>
        <path
           i:knockout="Off"
           fill="url(#XMLID_14_)"
           stroke="#575757"
           stroke-width="0.5"
           d="M39.714,74.489      c0.38-0.035,0.76-0.075,1.139-0.121c0.175-0.021,0.336,0.008,0.484,0.089c0.147,0.08,0.231,0.187,0.25,0.32      c0.02,0.143-0.027,0.269-0.14,0.38c-0.113,0.11-0.261,0.177-0.441,0.198c-0.145,0.018-0.348,0.042-0.612,0.07      c-0.266,0.028-0.458,0.047-0.579,0.058c-0.915,0.084-1.673,0.369-2.309,0.876c-0.633,0.508-0.961,1.091-0.953,1.769      c0.014,0.982,0.027,1.965,0.041,2.946c0.002,0.136-0.073,0.251-0.227,0.35c-0.153,0.095-0.331,0.144-0.531,0.144      c-0.498-0.002-0.744-0.166-0.737-0.482c0.018-0.987,0.035-1.976,0.052-2.963c0.018-0.952,0.505-1.752,1.396-2.442      C37.44,74.986,38.475,74.603,39.714,74.489c0.38-0.035,0.76-0.075,1.139-0.121C40.474,74.414,40.094,74.454,39.714,74.489z"
           id="path367" />
        <linearGradient
           id="XMLID_15_"
           gradientUnits="userSpaceOnUse"
           x1="42.0425"
           y1="75.4487"
           x2="48.0073"
           y2="75.4487">
          <stop
             offset="0"
             style="stop-color:#B0B0B0"
             id="stop369" />
          <stop
             offset="1"
             style="stop-color:#575757"
             id="stop370" />
          <a:midPointStop
             offset="0"
             style="stop-color:#B0B0B0"
             id="midPointStop371" />
          <a:midPointStop
             offset="0.5"
             style="stop-color:#B0B0B0"
             id="midPointStop372" />
          <a:midPointStop
             offset="1"
             style="stop-color:#575757"
             id="midPointStop373" />
        </linearGradient>
        <path
           i:knockout="Off"
           fill="url(#XMLID_15_)"
           stroke="#575757"
           stroke-width="0.5"
           d="M50.605,78.815      c0.096,0.294-0.089,0.529-0.563,0.694c-0.603,0.215-1.047,0.354-1.327,0.431c-1.417,0.392-2.727,0.346-3.852-0.104      c-1.127-0.449-1.739-1.175-1.887-2.114c-0.25-1.565-0.5-3.131-0.75-4.695c-0.02-0.125,0.024-0.245,0.129-0.358      c0.106-0.113,0.239-0.185,0.403-0.214c0.164-0.028,0.315-0.003,0.454,0.077c0.14,0.081,0.228,0.186,0.265,0.318      c0.076,0.393,0.151,0.786,0.227,1.18c1.441-0.277,2.872-0.633,4.284-1.066c0.388-0.119,0.632-0.026,0.733,0.285      c0.044,0.136,0.015,0.271-0.09,0.407c-0.105,0.136-0.245,0.229-0.422,0.283c-1.424,0.435-2.865,0.791-4.317,1.07      c0.153,0.794,0.306,1.588,0.458,2.383c0.128,0.667,0.582,1.174,1.39,1.487c0.807,0.313,1.723,0.338,2.707,0.056      c0.106-0.029,0.316-0.088,0.631-0.179c0.262-0.076,0.472-0.141,0.627-0.188c0.197-0.061,0.383-0.066,0.566-0.018      C50.452,78.6,50.564,78.688,50.605,78.815z"
           id="path374" />
      </g>
    </g>
    <path
       i:knockout="Off"
       opacity="0.3"
       fill="#FFFFFF"
       stroke="none"
       d="M55.756,54.951c0,0-7.428,6.809-20.117,6.809    s-18.724-6.809-18.724-6.809v31.104c0,0,7.737-14.959,20.529-14.959S55.756,54.951,55.756,54.951z"
       id="path375"
       style="font-size:12;opacity:0.3;fill:#ffffff;" />
  </g>
</svg>
