<?xml version="1.0" encoding="UTF-8" standalone="no"?>
<!DOCTYPE svg PUBLIC "-//W3C//DTD SVG 20010904//EN"
"http://www.w3.org/TR/2001/REC-SVG-20010904/DTD/svg10.dtd">
<!-- Created with Sodipodi ("http://www.sodipodi.com/") -->
<svg
   width="32pt"
   height="32pt"
   viewBox="0 0 256 256"
   overflow="visible"
   enable-background="new 0 0 256 256"
   xml:space="preserve"
   xmlns="http://www.w3.org/2000/svg"
   xmlns:xml="http://www.w3.org/XML/1998/namespace"
   xmlns:sodipodi="http://sodipodi.sourceforge.net/DTD/sodipodi-0.dtd"
   xmlns:xlink="http://www.w3.org/1999/xlink"
   id="svg153"
   sodipodi:version="0.32pre"
   sodipodi:docname="/home/cschalle/gnome-themes-extras/Lush/icons/scalable/emblems/emblem-multimedia.svg"
   sodipodi:docbase="/home/cschalle/gnome-themes-extras/Lush/icons/scalable/emblems">
  <defs
     id="defs238">
    <linearGradient
       id="XMLID_1_"
       gradientUnits="userSpaceOnUse"
       x1="153.665"
       y1="101.3379"
       x2="153.665"
       y2="144.0038">
      <stop
         offset="0"
         style="stop-color:#FFFFFF"
         id="stop161" />
      <stop
         offset="1"
         style="stop-color:#000000"
         id="stop162" />
    </linearGradient>
    <linearGradient
       id="XMLID_2_"
       gradientUnits="userSpaceOnUse"
       x1="59.7622"
       y1="60.7207"
       x2="59.0957"
       y2="74.7204">
      <stop
         offset="0"
         style="stop-color:#CFECCF"
         id="stop171" />
      <stop
         offset="1"
         style="stop-color:#91D290"
         id="stop172" />
    </linearGradient>
    <linearGradient
       id="XMLID_3_"
       gradientUnits="userSpaceOnUse"
       x1="112.2666"
       y1="107.6689"
       x2="112.2666"
       y2="259.008">
      <stop
         offset="0"
         style="stop-color:#CFECCF"
         id="stop179" />
      <stop
         offset="1"
         style="stop-color:#91D290"
         id="stop180" />
    </linearGradient>
    <linearGradient
       id="XMLID_4_"
       gradientUnits="userSpaceOnUse"
       x1="112.2666"
       y1="196.6709"
       x2="112.2666"
       y2="208.6674">
      <stop
         offset="0"
         style="stop-color:#FFFFFF"
         id="stop186" />
      <stop
         offset="1"
         style="stop-color:#15807D"
         id="stop187" />
    </linearGradient>
    <radialGradient
       id="XMLID_5_"
       cx="167.3779"
       cy="82.6641"
       r="128.6971"
       fx="167.3779"
       fy="82.6641"
       gradientUnits="userSpaceOnUse">
      <stop
         offset="0"
         style="stop-color:#FFFFFF"
         id="stop193" />
      <stop
         offset="1"
         style="stop-color:#CCFFCC"
         id="stop194" />
    </radialGradient>
  </defs>
  <sodipodi:namedview
     id="base" />
  <g
     id="Layer_2"
     stroke="#000000">
    <path
       fill="none"
       stroke="none"
       d="M256,256H0V0h256V256z"
       id="path155" />
  </g>
  <path
     opacity="0.6"
     fill="#FFFFFF"
     stroke="none"
     d="M67.554,52.498l-22.917-0.179c-5.292-0.041-8.521,6.154-7.212,13.839    l0.79,4.638c-1.31-7.684,1.921-13.881,7.212-13.839l22.918,0.182c5.292,0.041,10.641,6.304,11.95,13.989l-0.79-4.638    C78.196,58.802,72.846,52.541,67.554,52.498z"
     id="path177"
     style="font-size:12;opacity:0.6;fill:#ffffff;" />
  <path
     opacity="0.8"
     fill="#FFFFFF"
     stroke="none"
     d="M22.288,90.247c-1.391-5.644,2.265-10.215,8.165-10.212l146.288-7.259    c-1.481-0.58-3.046-0.911-4.611-0.912L19.675,71.772c-5.9-0.003-9.555,4.568-8.167,10.212l27.223,110.538L22.288,90.247z"
     id="path199"
     style="font-size:12;opacity:0.8;fill:#ffffff;" />
  <g
     id="g201"
     style="font-size:12;stroke:#000000;"
     transform="matrix(1.76631,0,0,1.92588,4.63035,-252.675)">
    <g
       id="g202">
      <g
         id="g203">
        <g
           id="g204">
          <path
             stroke="none"
             d="M17.285,139.086c-5.739,23.457-11.384,49.021-16.903,76.693c38.878,23.554,84.003,24.157,124.434,1.81        c5.739-16.081,11.384-30.055,16.903-41.92C102.841,186.425,57.716,174.23,17.285,139.086z M114.55,182.33        c1.45-0.057,2.896-0.141,4.335-0.254c-0.468,1.153-0.938,2.32-1.407,3.5c-1.445,0.147-2.895,0.266-4.349,0.354        C113.604,184.717,114.077,183.517,114.55,182.33z M106.239,182.342c1.467,0.053,2.93,0.076,4.388,0.071        c-0.476,1.216-0.952,2.446-1.428,3.689c-1.461,0.038-2.927,0.048-4.396,0.029        C105.283,184.854,105.761,183.592,106.239,182.342z M97.847,181.737c1.48,0.16,2.957,0.293,4.43,0.396        c-0.48,1.278-0.96,2.571-1.441,3.878c-1.476-0.07-2.955-0.169-4.436-0.297C96.882,184.375,97.364,183.05,97.847,181.737z         M89.392,180.515c1.489,0.27,2.976,0.51,4.46,0.722c-0.484,1.342-0.968,2.697-1.452,4.066        c-1.486-0.179-2.974-0.387-4.464-0.622C88.421,183.278,88.907,181.89,89.392,180.515z M80.894,178.676        c1.495,0.377,2.988,0.726,4.48,1.046c-0.486,1.405-0.972,2.823-1.458,4.255c-1.493-0.287-2.988-0.603-4.483-0.947        C79.92,181.564,80.407,180.113,80.894,178.676z M72.375,176.219c1.497,0.486,2.993,0.943,4.488,1.372        c-0.487,1.467-0.975,2.948-1.462,4.443c-1.496-0.396-2.993-0.819-4.489-1.271C71.399,179.234,71.887,177.72,72.375,176.219z         M63.852,173.146c1.495,0.594,2.991,1.159,4.488,1.696c-0.487,1.53-0.975,3.074-1.462,4.632        c-1.497-0.504-2.993-1.036-4.488-1.597C62.877,176.286,63.365,174.709,63.852,173.146z M55.346,169.454        c1.491,0.703,2.983,1.377,4.478,2.022c-0.487,1.593-0.973,3.199-1.459,4.82c-1.493-0.612-2.985-1.254-4.475-1.923        C54.374,172.72,54.86,171.08,55.346,169.454z M46.876,165.146c1.482,0.811,2.967,1.593,4.455,2.347        c-0.484,1.655-0.969,3.325-1.453,5.009c-1.486-0.721-2.97-1.47-4.451-2.247C45.91,168.538,46.393,166.835,46.876,165.146z         M38.462,160.221c1.471,0.919,2.946,1.811,4.424,2.673c-0.481,1.718-0.963,3.45-1.444,5.196        c-1.476-0.828-2.949-1.686-4.418-2.571C37.503,163.738,37.982,161.973,38.462,160.221z M30.124,154.678        c1.457,1.028,2.917,2.027,4.382,2.998c-0.478,1.781-0.954,3.576-1.431,5.386c-1.462-0.938-2.92-1.904-4.374-2.898        C29.175,158.32,29.649,156.492,30.124,154.678z M21.881,148.519c1.438,1.136,2.881,2.243,4.329,3.322        c-0.472,1.845-0.943,3.702-1.414,5.574c-1.445-1.046-2.885-2.12-4.319-3.224C20.944,152.286,21.412,150.396,21.881,148.519z         M11.216,215.998c-1.408-0.724-2.81-1.475-4.204-2.255c0.454-2.173,0.909-4.333,1.365-6.479        c1.399,0.813,2.806,1.598,4.218,2.354C12.135,211.731,11.675,213.857,11.216,215.998z M19.304,219.811        c-1.432-0.615-2.857-1.259-4.277-1.932c0.462-2.11,0.926-4.207,1.389-6.29c1.424,0.705,2.854,1.381,4.289,2.028        C20.237,215.668,19.771,217.732,19.304,219.811z M27.513,223.004c-1.451-0.506-2.897-1.041-4.338-1.605        c0.47-2.048,0.94-4.081,1.411-6.102c1.444,0.597,2.893,1.165,4.346,1.705C28.458,218.989,27.985,220.989,27.513,223.004z         M35.822,225.582c-1.467-0.397-2.93-0.824-4.388-1.278c0.476-1.986,0.951-3.958,1.428-5.917        c1.461,0.488,2.927,0.948,4.396,1.38C36.778,221.691,36.3,223.629,35.822,225.582z M44.215,227.542        c-1.48-0.29-2.957-0.607-4.43-0.954c0.48-1.923,0.96-3.832,1.441-5.728c1.475,0.38,2.954,0.731,4.435,1.055        C45.179,223.777,44.697,225.652,44.215,227.542z M52.668,228.886c-1.489-0.182-2.976-0.392-4.461-0.63        c0.484-1.859,0.969-3.705,1.453-5.538c1.486,0.271,2.974,0.515,4.463,0.729C53.639,225.246,53.154,227.06,52.668,228.886z         M61.166,229.611c-1.495-0.073-2.988-0.176-4.48-0.306c0.486-1.797,0.973-3.58,1.459-5.35c1.493,0.164,2.987,0.3,4.482,0.406        C62.14,226.098,61.652,227.848,61.166,229.611z M69.686,229.72c-1.497,0.035-2.993,0.042-4.489,0.021        c0.487-1.734,0.974-3.455,1.461-5.161c1.497,0.055,2.994,0.082,4.491,0.08C70.661,226.332,70.173,228.019,69.686,229.72z         M78.209,229.212c-1.496,0.143-2.993,0.257-4.489,0.343c0.488-1.67,0.976-3.327,1.463-4.97        c1.496-0.054,2.992-0.135,4.487-0.245C79.183,225.95,78.696,227.574,78.209,229.212z M86.714,228.086        c-1.491,0.252-2.983,0.476-4.477,0.67c0.487-1.608,0.974-3.203,1.46-4.783c1.493-0.162,2.984-0.353,4.474-0.571        C87.686,224.949,87.2,226.511,86.714,228.086z M95.185,226.343c-1.483,0.36-2.969,0.691-4.457,0.995        c0.485-1.546,0.97-3.078,1.455-4.596c1.486-0.27,2.969-0.568,4.45-0.895C96.151,223.332,95.668,224.83,95.185,226.343z         M103.599,223.982c-1.471,0.469-2.946,0.909-4.424,1.321c0.481-1.483,0.963-2.952,1.444-4.408        c1.476-0.378,2.949-0.785,4.418-1.22C104.557,221.098,104.078,222.533,103.599,223.982z M111.938,221.004        c-1.457,0.577-2.918,1.127-4.383,1.646c0.477-1.42,0.954-2.826,1.431-4.219c1.462-0.487,2.92-1.002,4.375-1.546        C112.887,218.244,112.413,219.617,111.938,221.004z M120.181,217.41c-1.438,0.686-2.882,1.343-4.33,1.971        c0.472-1.356,0.943-2.7,1.415-4.03c1.445-0.595,2.885-1.218,4.319-1.87C121.118,214.776,120.65,216.087,120.181,217.41z         M125.646,184.434c-1.424,0.255-2.853,0.481-4.288,0.68c0.467-1.151,0.934-2.289,1.4-3.412        c1.432-0.165,2.857-0.358,4.277-0.58C126.572,182.212,126.109,183.316,125.646,184.434z M129.467,183.679        c0.46-1.089,0.92-2.163,1.379-3.224c1.409-0.273,2.812-0.576,4.206-0.906c-0.455,1.028-0.91,2.07-1.367,3.126        C132.285,183.038,130.879,183.372,129.467,183.679z"
             id="path205" />
        </g>
      </g>
      <g
         id="g206">
        <linearGradient
           id="XMLID_6_"
           gradientUnits="userSpaceOnUse"
           x1="51.6382"
           y1="170.5684"
           x2="52.8492"
           y2="230.3121"
           gradientTransform="matrix(0.9324 0.1446 -0.3038 1.0254 42.2358 -17.3043)">
          <stop
             offset="0"
             style="stop-color:#FFFFFF"
             id="stop208" />
          <stop
             offset="0.5"
             style="stop-color:#FFD100"
             id="stop209" />
          <stop
             offset="1"
             style="stop-color:#FFB30F"
             id="stop210" />
        </linearGradient>
        <path
           fill="url(#XMLID_6_)"
           stroke="none"
           d="M42.147,215.259c-10.078-2.855-20.011-7.039-29.648-12.553       c3.14-14.313,6.311-27.981,9.509-41.008c9.814,7.055,19.875,12.78,30.031,17.176C48.729,190.359,45.431,202.487,42.147,215.259       z"
           id="path216" />
        <linearGradient
           id="XMLID_7_"
           gradientUnits="userSpaceOnUse"
           x1="96.1904"
           y1="183.0225"
           x2="97.0592"
           y2="225.8812"
           gradientTransform="matrix(0.9324 0.1446 -0.3038 1.0254 42.2358 -17.3043)">
          <stop
             offset="0"
             style="stop-color:#FFFFFF"
             id="stop218" />
          <stop
             offset="0.5"
             style="stop-color:#FFD100"
             id="stop219" />
          <stop
             offset="1"
             style="stop-color:#FFB30F"
             id="stop220" />
        </linearGradient>
        <path
           fill="url(#XMLID_7_)"
           stroke="none"
           d="M81.374,219.683c-10.198,0.56-20.446-0.211-30.594-2.31       c3.306-12.334,6.623-24.023,9.945-35.07c10.198,3.64,20.447,5.95,30.595,6.932C88.014,198.74,84.697,208.89,81.374,219.683z"
           id="path226" />
        <linearGradient
           id="XMLID_8_"
           gradientUnits="userSpaceOnUse"
           x1="135.7578"
           y1="176.668"
           x2="136.6538"
           y2="220.8703"
           gradientTransform="matrix(0.9324 0.1446 -0.3038 1.0254 42.2358 -17.3043)">
          <stop
             offset="0"
             style="stop-color:#FFFFFF"
             id="stop228" />
          <stop
             offset="0.5"
             style="stop-color:#FFD100"
             id="stop229" />
          <stop
             offset="1"
             style="stop-color:#FFB30F"
             id="stop230" />
        </linearGradient>
        <path
           fill="url(#XMLID_8_)"
           stroke="none"
           d="M120.095,210.944c-9.814,3.976-19.876,6.621-30.033,7.938       c3.309-10.354,6.607-20.065,9.891-29.134c10.078,0.225,20.012-0.879,29.649-3.313       C126.462,193.962,123.292,202.132,120.095,210.944z"
           id="path236" />
      </g>
    </g>
  </g>
</svg>
