<?xml version="1.0" encoding="UTF-8" standalone="no"?>
<!DOCTYPE svg PUBLIC "-//W3C//DTD SVG 20010904//EN"
"http://www.w3.org/TR/2001/REC-SVG-20010904/DTD/svg10.dtd">
<!-- Created with Sodipodi ("http://www.sodipodi.com/") -->
<svg
   width="32pt"
   height="32pt"
   viewBox="0 0 256 256"
   overflow="visible"
   enable-background="new 0 0 256 256"
   xml:space="preserve"
   id="svg153"
   sodipodi:version="0.32pre"
   sodipodi:docname="/home/cschalle/gnome-themes-extras/Lush/icons/scalable/emblems/emblem-package.svg"
   sodipodi:docbase="/home/cschalle/gnome-themes-extras/Lush/icons/scalable/emblems/"
   xmlns="http://www.w3.org/2000/svg"
   xmlns:sodipodi="http://sodipodi.sourceforge.net/DTD/sodipodi-0.dtd"
   xmlns:xml="http://www.w3.org/XML/1998/namespace"
   xmlns:xlink="http://www.w3.org/1999/xlink">
  <defs
     id="defs237">
    <linearGradient
       id="XMLID_1_"
       gradientUnits="userSpaceOnUse"
       x1="153.665"
       y1="101.3379"
       x2="153.665"
       y2="144.0038">
      <stop
         offset="0"
         style="stop-color:#FFFFFF"
         id="stop161" />
      <stop
         offset="1"
         style="stop-color:#000000"
         id="stop162" />
    </linearGradient>
    <linearGradient
       id="XMLID_2_"
       gradientUnits="userSpaceOnUse"
       x1="59.7622"
       y1="60.7207"
       x2="59.0957"
       y2="74.7204">
      <stop
         offset="0"
         style="stop-color:#CFECCF"
         id="stop171" />
      <stop
         offset="1"
         style="stop-color:#91D290"
         id="stop172" />
    </linearGradient>
    <linearGradient
       id="XMLID_3_"
       gradientUnits="userSpaceOnUse"
       x1="112.2666"
       y1="107.6689"
       x2="112.2666"
       y2="259.008">
      <stop
         offset="0"
         style="stop-color:#CFECCF"
         id="stop179" />
      <stop
         offset="1"
         style="stop-color:#91D290"
         id="stop180" />
    </linearGradient>
    <linearGradient
       id="XMLID_4_"
       gradientUnits="userSpaceOnUse"
       x1="112.2666"
       y1="196.6709"
       x2="112.2666"
       y2="208.6674">
      <stop
         offset="0"
         style="stop-color:#FFFFFF"
         id="stop186" />
      <stop
         offset="1"
         style="stop-color:#15807D"
         id="stop187" />
    </linearGradient>
    <radialGradient
       id="XMLID_5_"
       cx="167.3779"
       cy="82.6641"
       r="128.6971"
       fx="167.3779"
       fy="82.6641"
       gradientUnits="userSpaceOnUse">
      <stop
         offset="0"
         style="stop-color:#FFFFFF"
         id="stop193" />
      <stop
         offset="1"
         style="stop-color:#CCFFCC"
         id="stop194" />
    </radialGradient>
  </defs>
  <sodipodi:namedview
     id="base" />
  <g
     id="g201"
     style="font-size:12;stroke:#000000;"
     transform="matrix(1.81934,0,0,1.67389,-3.55019,-167.643)">
    <path
       stroke="none"
       d="M71.006,109.177L4.333,133.841v89.612l2.238,0.811l66.758,24.505l67.199-23.627v-92.318l-68.361-24.076     L71.006,109.177z"
       id="path202" />
    <path
       fill="#FEBF59"
       stroke="none"
       d="M72.395,136.175H7.685v85.614h0.051l64.432,23.836l0.227-0.085V136.175z"
       id="path203" />
    <g
       id="g204">
      <path
         fill="#FFFFE6"
         stroke="none"
         d="M72.395,136.175V245.54l-0.227,0.085l64.432-23.836h0.576v-85.614H72.395z"
         id="path205" />
      <path
         fill="#FFFFE6"
         stroke="none"
         d="M7.685,136.175l64.483,23.854l64.482-23.854L72.168,112.32L7.685,136.175z"
         id="path206" />
      <path
         fill="#FFFFE6"
         stroke="none"
         d="M7.685,136.175 M72.168,160.028L7.685,136.175v84.944h0.051l64.432,23.835l0.227-0.083      v-84.927L72.168,160.028z"
         id="path207" />
    </g>
    <linearGradient
       id="XMLID_6_"
       gradientUnits="userSpaceOnUse"
       x1="72.168"
       y1="196.3945"
       x2="72.168"
       y2="109.358">
      <stop
         offset="0"
         style="stop-color:#FFFF73"
         id="stop209" />
      <stop
         offset="1"
         style="stop-color:#FFF7E2"
         id="stop210" />
    </linearGradient>
    <path
       fill="url(#XMLID_6_)"
       stroke="none"
       d="M72.168,112.32L8.591,135.839c10.446,3.863,20.891,7.729,31.336,11.592     c7.143,2.643,14.287,5.285,21.43,7.928c2.912,1.077,7.65,3.999,10.811,3.999c2.736,0,6.84-2.53,9.359-3.462     c7.629-2.822,15.254-5.644,22.883-8.465c10.445-3.863,20.889-7.729,31.334-11.592L72.168,112.32z"
       id="path214" />
    <linearGradient
       id="XMLID_7_"
       gradientUnits="userSpaceOnUse"
       x1="72.5698"
       y1="161.9668"
       x2="22.5702"
       y2="206.4108">
      <stop
         offset="0"
         style="stop-color:#FEE679"
         id="stop216" />
      <stop
         offset="1"
         style="stop-color:#FFF7B0"
         id="stop217" />
    </linearGradient>
    <path
       fill="url(#XMLID_7_)"
       stroke="none"
       d="M7.685,138.248v83.125h0.05l63.224,23.418c0.014-27.571,0.799-56.214-0.225-83.19     C49.717,153.816,28.701,146.032,7.685,138.248z"
       id="path221" />
    <linearGradient
       id="XMLID_8_"
       gradientUnits="userSpaceOnUse"
       x1="117.021"
       y1="217.8516"
       x2="77.5161"
       y2="129.5827">
      <stop
         offset="0.0056"
         style="stop-color:#FEE69E"
         id="stop223" />
      <stop
         offset="1"
         style="stop-color:#FFCC00"
         id="stop224" />
    </linearGradient>
    <path
       fill="url(#XMLID_8_)"
       stroke="none"
       d="M73.883,245.203l62.723-23.12h0.57v-82.936c-7.266,2.529-61.639,21.5-62.869,23.191     C73.016,164.108,73.844,241.664,73.883,245.203z"
       id="path228" />
    <linearGradient
       id="XMLID_9_"
       gradientUnits="userSpaceOnUse"
       x1="72.0049"
       y1="138.9883"
       x2="72.0049"
       y2="121.7057">
      <stop
         offset="0"
         style="stop-color:#FD993E"
         id="stop230" />
      <stop
         offset="1"
         style="stop-color:#E65C00"
         id="stop231" />
    </linearGradient>
    <path
       fill="url(#XMLID_9_)"
       stroke="none"
       d="M72.545,135.901l63.428-0.154l-63.736-3.858V111.98c0,0-2.57,18.86-3.24,19.754     c-0.67,0.895-60.959,4.167-60.959,4.167l60.805-0.926l3.086,24.537L72.545,135.901z"
       id="path235" />
  </g>
  <g
     id="Layer_2"
     stroke="#000000">
    <path
       fill="none"
       stroke="none"
       d="M256,256H0V0h256V256z"
       id="path155" />
  </g>
</svg>
