<?xml version="1.0" encoding="UTF-8" standalone="no"?>
<!DOCTYPE svg PUBLIC "-//W3C//DTD SVG 20010904//EN"
"http://www.w3.org/TR/2001/REC-SVG-20010904/DTD/svg10.dtd">
<!-- Created with Sodipodi ("http://www.sodipodi.com/") -->
<svg
   i:viewOrigin="178 524"
   i:rulerOrigin="-178 -268"
   i:pageBounds="178 524 434 268"
   width="48pt"
   height="48pt"
   viewBox="0 0 256 256"
   style="overflow:visible;enable-background:new 0 0 256 256"
   xml:space="preserve"
   xmlns="http://www.w3.org/2000/svg"
   xmlns:ns="http://ns.adobe.com/Variables/1.0/"
   xmlns:i="http://ns.adobe.com/AdobeIllustrator/10.0/"
   xmlns:xml="http://www.w3.org/XML/1998/namespace"
   xmlns:a="http://ns.adobe.com/AdobeSVGViewerExtensions/3.0/"
   xmlns:sodipodi="http://sodipodi.sourceforge.net/DTD/sodipodi-0.dtd"
   xmlns:xlink="http://www.w3.org/1999/xlink"
   id="svg153"
   sodipodi:version="0.32pre"
   sodipodi:docname="/home/cschalle/gnome-themes-extras/Lush/icons/scalable/apps/mozilla.svgz"
   sodipodi:docbase="/home/cschalle/gnome-themes-extras/Lush/icons/scalable/apps/">
  <defs
     id="defs204" />
  <sodipodi:namedview
     id="base" />
  <metadata
     id="metadata154">
    <ns:variableSets>
      <ns:variableSet
         varSetName="binding1"
         locked="none">
        <ns:variables />
        <ns:sampleDataSets />
      </ns:variableSet>
    </ns:variableSets>
  </metadata>
  <g
     id="Layer_2"
     i:layer="yes"
     i:editable="no"
     i:dimmedPercent="50"
     i:rgbTrio="#FFFF4F004F00"
     style="stroke:#000000;">
    <path
       i:knockout="Off"
       style="fill:none;stroke:none;"
       d="M0,0h256v256H0V0z"
       id="path156" />
  </g>
  <g
     id="Layer_1"
     i:layer="yes"
     i:dimmedPercent="50"
     i:rgbTrio="#4F008000FFFF"
     style="stroke:#000000;">
    <path
       i:knockout="Off"
       style="opacity:0.36;fill:#999999;stroke:none;"
       d="M35.852,22.702c-12.131,0-22,9.869-22,22v185.797c0,12.131,9.869,22,22,22h185.797    c12.131,0,22-9.869,22-22V44.702c0-12.131-9.869-22-22-22H35.852z"
       id="path158" />
    <path
       i:knockout="Off"
       style="fill:#FA7100;stroke:none;"
       d="M27.852,14.702c-12.131,0-22,9.869-22,22v185.797c0,12.131,9.869,22,22,22h185.797    c12.131,0,22-9.869,22-22V36.702c0-12.131-9.869-22-22-22H27.852z"
       id="path159" />
    <linearGradient
       id="XMLID_1_"
       gradientUnits="userSpaceOnUse"
       x1="15.8516"
       y1="129.6006"
       x2="225.6484"
       y2="129.6006">
      <stop
         offset="0"
         style="stop-color:#FEA13C"
         id="stop161" />
      <stop
         offset="1"
         style="stop-color:#FDB865"
         id="stop162" />
      <a:midPointStop
         offset="0"
         style="stop-color:#FEA13C"
         id="midPointStop163" />
      <a:midPointStop
         offset="0.5"
         style="stop-color:#FEA13C"
         id="midPointStop164" />
      <a:midPointStop
         offset="1"
         style="stop-color:#FDB865"
         id="midPointStop165" />
    </linearGradient>
    <path
       i:knockout="Off"
       style="fill:url(#XMLID_1_);stroke:none;"
       d="M225.648,222.499c0,6.627-5.373,12-12,12H27.852c-6.627,0-12-5.373-12-12V36.702    c0-6.627,5.373-12,12-12h185.797c6.627,0,12,5.373,12,12V222.499z"
       id="path166" />
    <path
       i:knockout="Off"
       style="opacity:0.36;fill:#999999;stroke:none;adobe-blending-mode:multiply;"
       d="M235.648,36.702c0-3.333-0.749-6.494-2.082-9.328c-2.976-2.244-6.666-3.59-10.68-3.59    H20.222c-5.259,0-9.971,2.297-13.226,5.928c-0.739,2.198-1.145,4.547-1.145,6.991v185.797c0,12.131,9.869,22,22,22h9.872    L235.648,46.575V36.702z"
       id="path167" />
    <linearGradient
       id="XMLID_2_"
       gradientUnits="userSpaceOnUse"
       x1="240.6631"
       y1="129.1846"
       x2="2.4463"
       y2="129.1846">
      <stop
         offset="0"
         style="stop-color:#3399FF"
         id="stop169" />
      <stop
         offset="1"
         style="stop-color:#0066CC"
         id="stop170" />
      <a:midPointStop
         offset="0"
         style="stop-color:#3399FF"
         id="midPointStop171" />
      <a:midPointStop
         offset="0.5"
         style="stop-color:#3399FF"
         id="midPointStop172" />
      <a:midPointStop
         offset="1"
         style="stop-color:#0066CC"
         id="midPointStop173" />
    </linearGradient>
    <path
       i:knockout="Off"
       style="fill:url(#XMLID_2_);stroke:none;"
       d="M222.887,10.077H20.222c-9.818,0-17.776,7.959-17.776,17.776v202.664    c0,9.817,7.958,17.776,17.776,17.776l220.441-220.44C240.663,18.036,232.704,10.077,222.887,10.077z"
       id="path174" />
    <path
       i:knockout="Off"
       style="stroke:none;"
       d="M240.663,27.853c0-9.817-7.959-17.776-17.776-17.776H20.222    c-9.818,0-17.776,7.959-17.776,17.776v202.664c0,9.817,7.958,17.776,17.776,17.776l4.083-4.084c1.155,0.188,2.339,0.29,3.546,0.29    h185.797c12.131,0,22-9.869,22-22V36.702c0-1.207-0.102-2.39-0.29-3.545L240.663,27.853z M230.011,31.434l0.413,2.529    c0.149,0.914,0.225,1.835,0.225,2.739v185.797c0,9.374-7.626,17-17,17H27.852c-0.904,0-1.827-0.075-2.741-0.225l-2.529-0.413    c0,0-3.07,3.07-4.24,4.241c-6.149-0.919-10.896-6.186-10.896-12.586V27.853c0-7.045,5.731-12.776,12.776-12.776h202.665    c6.4,0,11.668,4.747,12.586,10.896C233.906,27.539,230.011,31.434,230.011,31.434z"
       id="path175" />
    <path
       i:knockout="Off"
       style="opacity:0.36;fill:#999999;stroke:none;adobe-blending-mode:multiply;"
       d="M242.979,224.226c-2.001-3.504-29.026-7.508-23.521-9.51    c5.503-2.003,8.506,5.005,8.006,0.5c-0.501-4.502-23.02-12.01-23.02-12.01s16.014,2.002,16.014-1.001s-18.516-9.01-18.516-9.01    s15.514,1.001,13.01-2.002c-2.499-3.003-18.016-10.008-18.016-10.008s12.009,2.503,8.008-1.502    c-4.004-4.001-20.019-10.509-20.019-10.509l10.51-0.501l-19.018-13.013c0,0,7.007,0,4.005-1c-1.672-0.557-4.428-4.214-6.543-7.348    c8.282,1.69,14.386,16.778,11.547,6.848c-3.002-10.511-13.014-13.513-5.505-12.512c7.504,1,13.511,11.009,13.511,6.006    c0-5.005-22.521-21.519-13.01-19.519c9.507,2.002,22.02,17.016,20.017,9.509c-2.002-7.507-19.517-24.022-15.514-24.522    c4.005-0.5,22.522,12.011,20.52,9.009c-1.391-2.086-12.438-14.552-19.057-21.972c15.248,4.613,28.859,17.639,24.059,9.961    c-5.004-8.008-31.027-28.526-28.022-28.526c3,0,26.021,5.004,26.021,5.004s-43.538-38.535-48.042-40.537    s-21.521-9.509-21.521-9.509l-15.013-1.501L96.846,43.06c0,0-4.503-0.5-6.005-1c-1.501-0.5-18.017-0.5-18.017-0.5l-11.51,12.01    c0,0-1.001,8.509-1.001,10.51c0,2.001-4.004,9.008-19.518,13.512C25.282,82.095,8.267,93.105,8.267,93.105l-2.002,30.527    l7.507,17.016c0,0,10.009,0,11.51,0.5c1.5,0.5,12.512,10.01,12.512,10.01s3.503,0,10.509-1.002c7.006-1,16.515-5.505,16.515-5.505    s8.007,0,11.01,1.001c3.003,1.001,20.52,9.509,22.02,15.015c1.5,5.507,8.507,27.525,7.508,30.526    c-1,3.003-3.503,13.013-3.503,13.013s0.035-0.002,0.084-0.006l-5.543,23.922c5.761,1.157,11.522,2.8,17.284,3.516    c4.979-3.757,13.295-10.34,13.295-12.405c0-2.947-14.733,7.734-14.733,7.734l15.47-21.731c0,0-13.261,5.894-16.944,5.894    c-2.028,0-0.929-5.358,0.467-10.175c1.006-0.741,1.922-1.641,2.63-2.755c2.639-4.144,8.682-15.953,11.292-20.463    c-3.067,2.592-10.791,5.952-10.791,5.952l-1.501-4.505c0,0,5.385-9.058,8.623-13.818c-4.235,3.495-12.628,8.431-12.628,5.81    c0-3.504-5.504-14.513-5.504-14.513l12.01,5.006l-3.503-7.507c0,0-9.008-7.007-7.506-7.507c1.501-0.501,5.004-2.003,7.506-3.003    c2.503-1.001,14.013-28.526,9.009-19.017c-5.004,9.508-25.523,15.013-25.523,15.013l-28.527-6.005l-14.013,8.007    c0,0-6.005,1.502-12.011,0c-6.006-1.503-4.003-3.503-4.003-3.503l3.001-3.503c0,0,6.006-0.501,11.01-2.004    c5.005-1.5,20.019-8.507,23.522-10.008c3.502-1.502,9.509-5.504,9.509-5.504l-1.001,3.503l-3.503,6.006    c0,0,2.502-1.502,7.006-2.002c4.504-0.501,12.511-10.009,13.512-13.513c1.001-3.503-1.001-15.013-1.001-15.013l-2.002-1.501    l-1,8.007l-3.504,4.504c0,0-5.505-5.505-2.502-11.511c3.002-6.005,10.009-13.512,8.507-13.512s-13.511,6.006-19.517,13.011    c-6.006,7.006-33.531,23.021-39.036,24.522c-5.505,1.503-24.021,3.003-24.021,3.003l-3.003-8.007l3.503-7.507l3.003,1.001    c0,0-2.503,6.506,0,6.506c2.502,0,4.503-11.01,4.503-11.01s-5.004-6.506-5.004-8.509c0-2.001,39.035-17.015,39.035-17.015    l12.512-9.008l-6.006,11.01c0,0,10.51-1.501,13.012-1.501s8.507-6.006,8.507-6.006s3.503-3.002,1.502-6.004    c-2.002-3.003-9.509-4.005-9.509-4.005s2.502-2.502,4.504-2.502s8.007,2.002,11.01,4.504c3.003,2.502-5.505,14.013-1.001,12.511    c4.505-1.501,3.003-10.009,6.005-10.009c3.002,0,13.513-4.003,13.513-4.003s-7.005,1.001-11.01-2.001s-21.019-9.008-21.019-9.008    l-10.51,3.503c0,0,5.505-5.005,6.505-7.507c1-2.502,33.03,6.505,33.03,6.505l-3.502-5.004c0,0,10.008-9.009,26.524-5.505    c16.517,3.502,38.035,28.525,32.529,27.025s-13.512-7.007-5.004,5.004c8.508,12.012,2.5,33.03,5.505,26.023    c3.003-7.006,4.505-10.009,4.505-10.009l3.264,5.079c0.119,6.146,0.236,12.779,0.236,15.439c0,5.505-7.005,15.013-9.507,18.017    c-2.504,3.003-4.504,5.505-4.003,7.507c0.5,2,4.003,9.008,4.003,9.008s0.011,0,1.251,0l-0.25,7.507l-12.012-0.5l20.518,14.513    l-17.515-4.004l22.521,14.013l-10.008,1.001l15.013,9.009l-9.51-1l16.516,11.009c0,0,2.503,11.51,5.004,13.512    c2.504,2.003,17.017,15.013,22.021,17.015c1.753,0.701,3.378,2.144,4.757,3.717c4.21-2.251,8.693-4.33,13.261-5.666    c-0.318-0.349-0.502-0.7-0.502-1.051C234.472,223.225,244.98,227.727,242.979,224.226z"
       id="path176" />
    <path
       i:knockout="Off"
       style="opacity:0.8;fill:#FFFFFF;stroke:none;"
       d="M20.222,24.89c-1.634,0-2.963,1.329-2.963,2.963c0,0,0,202.033,0,202.452    C30.783,216.782,209.152,38.414,222.676,24.89C222.257,24.89,20.222,24.89,20.222,24.89z M24.666,212.426    c0-29.009,0-172.395,0-180.129c7.734,0,151.121,0,180.126,0C182.891,54.2,29.818,207.272,24.666,212.426z"
       id="path177" />
    <linearGradient
       id="XMLID_3_"
       gradientUnits="userSpaceOnUse"
       x1="95.7925"
       y1="130.8398"
       x2="213.7327"
       y2="130.8398">
      <stop
         offset="0"
         style="stop-color:#FF6666"
         id="stop179" />
      <stop
         offset="1"
         style="stop-color:#FF0000"
         id="stop180" />
      <a:midPointStop
         offset="0"
         style="stop-color:#FF6666"
         id="midPointStop181" />
      <a:midPointStop
         offset="0.5"
         style="stop-color:#FF6666"
         id="midPointStop182" />
      <a:midPointStop
         offset="1"
         style="stop-color:#FF0000"
         id="midPointStop183" />
    </linearGradient>
    <path
       i:knockout="Off"
       style="fill:url(#XMLID_3_);stroke:none;"
       d="M227.702,220.846l-18.017-19.018l-31.53-40.538c0,0-3-10.51-3-12.011    s-5.008-16.515-5.008-16.515l12.513-15.514l-6.007-41.539V65.203l-41.536-31.028l-30.028,6.005l-24.021-3.002L71.059,48.688    L69.557,61.7l-7.006,7.005l-43.54,18.517l-4.504,24.022l2.502,9.009l3.003,11.51l18.517,4.003l10.509,5.006l26.525-7.007    l25.523,7.507l13.011,40.538l-2.501,13.511l1.731,0.48l-4.177,25.061l4.42,4.052l112.029,2.049l1.948,0.541    c1.246-0.653,2.513-1.29,3.8-1.893L227.702,220.846z"
       id="path184" />
    <path
       i:knockout="Off"
       style="stroke:none;"
       d="M121.864,50.07l11.011,8.007l0.5,15.014c0,0,8.508-8.008,8.008-10.509    c-0.501-2.502,5.505,1.001,7.006,2.001c1.501,1.001-7.507-13.011-7.507-13.011L121.864,50.07z"
       id="path185" />
    <path
       i:knockout="Off"
       style="stroke:none;"
       d="M141.383,83.101c0.5,1.501,7.006,10.009,7.006,10.009l1.501,24.022l-14.513,13.011    l8.008-14.513l-12.011,1.502l11.51-17.517V93.11L141.383,83.101z"
       id="path186" />
    <path
       i:knockout="Off"
       style="stroke:none;"
       d="M136.879,82.6l-27.525,0.501l3.002-8.008l-5.504-3.003l13.012-9.508l-2.502,7.007    l11.009,2.001l-4.003,3.003l12.511,6.505V82.6z"
       id="path187" />
    <path
       i:knockout="Off"
       style="stroke:none;"
       d="M94.34,70.089l-5.004,9.008l-15.014-1.001l11.009-3.002L94.34,70.089z"
       id="path188" />
    <path
       i:knockout="Off"
       style="stroke:none;"
       d="M131.374,171.181c0.123-0.618-0.364,0.079-1.22,1.556    C130.83,172.165,131.283,171.631,131.374,171.181z"
       id="path189" />
    <path
       i:knockout="Off"
       style="stroke:none;"
       d="M128.871,157.668c0-0.6-0.997,0.654-2.386,2.697    C127.915,159.188,128.871,158.173,128.871,157.668z"
       id="path190" />
    <path
       i:knockout="Off"
       style="stroke:none;"
       d="M247.979,219.226c-2.001-3.504-29.026-7.508-23.521-9.51    c5.503-2.003,8.506,5.005,8.006,0.5c-0.501-4.502-23.02-12.01-23.02-12.01s16.014,2.002,16.014-1.001s-18.516-9.01-18.516-9.01    s15.514,1.001,13.01-2.002c-2.499-3.003-18.016-10.008-18.016-10.008s12.009,2.503,8.008-1.502    c-4.004-4.001-20.019-10.509-20.019-10.509l10.51-0.501l-19.018-13.013c0,0,7.007,0,4.005-1c-1.672-0.557-4.428-4.214-6.543-7.348    c8.282,1.69,14.386,16.778,11.547,6.848c-3.002-10.511-13.014-13.513-5.505-12.512c7.504,1,13.511,11.009,13.511,6.006    c0-5.005-22.521-21.519-13.01-19.519c9.507,2.001,22.02,17.016,20.017,9.509c-2.002-7.507-19.517-24.022-15.514-24.522    c4.005-0.5,22.522,12.011,20.52,9.009c-1.391-2.086-12.438-14.552-19.057-21.972c15.248,4.613,28.859,17.639,24.059,9.961    c-5.004-8.008-31.027-28.526-28.022-28.526c3,0,26.021,5.004,26.021,5.004s-43.538-38.535-48.042-40.537    s-21.521-9.509-21.521-9.509l-15.013-1.501l-27.025,8.007c0,0-4.503-0.5-6.005-1c-1.501-0.5-18.017-0.5-18.017-0.5l-11.51,12.01    c0,0-1.001,8.509-1.001,10.51c0,2.001-4.004,9.008-19.518,13.512c-15.514,4.504-32.529,15.515-32.529,15.515l-2.002,30.527    l7.507,17.016c0,0,10.009,0,11.51,0.5c1.5,0.5,12.512,10.01,12.512,10.01s3.503,0,10.509-1.002c7.006-1,16.515-5.505,16.515-5.505    s8.007,0,11.01,1.001c3.003,1.001,20.52,9.509,22.02,15.015c1.5,5.507,8.507,27.525,7.508,30.526    c-1,3.003-3.503,13.013-3.503,13.013s0.035-0.002,0.084-0.006l-5.543,23.922c5.761,1.157,11.522,2.8,17.284,3.516    c4.979-3.757,13.295-10.34,13.295-12.405c0-2.947-14.733,7.734-14.733,7.734l15.47-21.731c0,0-13.261,5.894-16.944,5.894    c-2.028,0-0.929-5.358,0.467-10.175c1.006-0.741,1.922-1.641,2.63-2.755c2.639-4.144,8.682-15.953,11.292-20.463    c-3.067,2.592-10.791,5.952-10.791,5.952l-1.501-4.505c0,0,5.385-9.058,8.623-13.818c-4.235,3.495-12.628,8.431-12.628,5.81    c0-3.504-5.504-14.513-5.504-14.513l12.01,5.006l-3.503-7.507c0,0-9.008-7.007-7.506-7.507c1.501-0.501,5.004-2.003,7.506-3.003    c2.503-1.001,14.013-28.526,9.009-19.017c-5.004,9.508-25.523,15.013-25.523,15.013l-28.527-6.005l-14.013,8.007    c0,0-6.005,1.502-12.011,0c-6.006-1.503-4.003-3.503-4.003-3.503l3.001-3.503c0,0,6.006-0.501,11.01-2.004    c5.005-1.5,20.019-8.507,23.522-10.008c3.502-1.502,9.509-5.504,9.509-5.504l-1.001,3.503l-3.503,6.006    c0,0,2.502-1.502,7.006-2.002c4.504-0.501,12.511-10.009,13.512-13.513c1.001-3.503-1.001-15.013-1.001-15.013l-2.002-1.501    l-1,8.007l-3.504,4.504c0,0-5.505-5.505-2.502-11.511c3.002-6.005,10.009-13.512,8.507-13.512s-13.511,6.006-19.517,13.011    c-6.006,7.006-33.531,23.021-39.036,24.522c-5.505,1.503-24.021,3.003-24.021,3.003l-3.003-8.007l3.503-7.507l3.003,1.001    c0,0-2.503,6.506,0,6.506c2.502,0,4.503-11.01,4.503-11.01s-5.004-6.506-5.004-8.509c0-2.001,39.035-17.015,39.035-17.015    l12.512-9.008l-6.006,11.01c0,0,10.51-1.501,13.012-1.501s8.507-6.006,8.507-6.006s3.503-3.002,1.502-6.004    c-2.002-3.003-9.509-4.005-9.509-4.005s2.502-2.502,4.504-2.502s8.007,2.002,11.01,4.504c3.003,2.502-5.505,14.013-1.001,12.511    c4.505-1.501,3.003-10.009,6.005-10.009c3.002,0,13.513-4.003,13.513-4.003s-7.005,1.001-11.01-2.001s-21.019-9.008-21.019-9.008    l-10.51,3.503c0,0,5.505-5.005,6.505-7.507c1-2.502,33.03,6.505,33.03,6.505l-3.502-5.004c0,0,10.008-9.009,26.524-5.505    c16.517,3.502,38.035,28.525,32.529,27.025s-13.512-7.007-5.004,5.004c8.508,12.012,2.5,33.03,5.505,26.023    c3.003-7.006,4.505-10.009,4.505-10.009l3.264,5.079c0.119,6.146,0.236,12.779,0.236,15.439c0,5.505-7.005,15.013-9.507,18.017    c-2.504,3.003-4.504,5.505-4.003,7.507c0.5,2,4.003,9.008,4.003,9.008s0.011,0,1.251,0l-0.25,7.507l-12.012-0.5l20.518,14.513    l-17.515-4.004l22.521,14.013l-10.008,1.001l15.013,9.009l-9.51-1l16.516,11.009c0,0,2.503,11.51,5.004,13.512    c2.504,2.003,17.017,15.013,22.021,17.015c1.753,0.701,3.378,2.144,4.757,3.717c4.21-2.251,8.693-4.33,13.261-5.666    c-0.318-0.349-0.502-0.7-0.502-1.051C239.472,218.225,249.98,222.727,247.979,219.226z"
       id="path191" />
    <g
       id="g192">
      <path
         i:knockout="Off"
         style="fill:#FFFFFF;stroke:none;"
         d="M80.327,63.583c0,0,0.5,3.002,2.502,4.504c2.003,1.502-6.506,1.502-6.506,1.502     L80.327,63.583z"
         id="path193" />
      <path
         i:knockout="Off"
         style="fill:#FFFFFF;stroke:none;"
         d="M87.333,65.585l-3.002-3.504c0,0,2.001-0.501,3.503,0.501     C89.336,63.583,87.333,65.585,87.333,65.585z"
         id="path194" />
    </g>
    <g
       id="g195">
      <path
         i:knockout="Off"
         style="fill:#FFFFFF;stroke:none;"
         d="M21.774,124.139l4.003,6.005l1.502-6.005H21.774z"
         id="path196" />
      <path
         i:knockout="Off"
         style="fill:#FFFFFF;stroke:none;"
         d="M30.782,123.137l3.503-0.5l-0.501,4.504C33.785,127.141,32.283,123.137,30.782,123.137z"
         id="path197" />
      <path
         i:knockout="Off"
         style="fill:#FFFFFF;stroke:none;"
         d="M37.288,120.636h4.003v5.505C41.292,126.141,35.287,120.636,37.288,120.636z"
         id="path198" />
      <path
         i:knockout="Off"
         style="fill:#FFFFFF;stroke:none;"
         d="M45.295,120.135h3.003l-0.5,5.004C47.798,125.139,43.794,120.636,45.295,120.135z"
         id="path199" />
      <path
         i:knockout="Off"
         style="fill:#FFFFFF;stroke:none;"
         d="M50.8,118.632l3.003-1l0.5,4.005L50.8,118.632z"
         id="path200" />
      <path
         i:knockout="Off"
         style="fill:#FFFFFF;stroke:none;"
         d="M55.805,115.13h5.005l-1.001,4.504L55.805,115.13z"
         id="path201" />
      <path
         i:knockout="Off"
         style="fill:#FFFFFF;stroke:none;"
         d="M63.312,110.625h5.005l-1.502,4.003C66.814,114.629,61.81,111.126,63.312,110.625z"
         id="path202" />
    </g>
  </g>
</svg>
