<?xml version="1.0" encoding="UTF-8" standalone="no"?>
<!DOCTYPE svg PUBLIC "-//W3C//DTD SVG 20010904//EN"
"http://www.w3.org/TR/2001/REC-SVG-20010904/DTD/svg10.dtd">
<!-- Created with Sodipodi ("http://www.sodipodi.com/") -->
<svg
   width="48pt"
   height="48pt"
   viewBox="0 0 256 256"
   overflow="visible"
   enable-background="new 0 0 256 256"
   xml:space="preserve"
   xmlns="http://www.w3.org/2000/svg"
   xmlns:xml="http://www.w3.org/XML/1998/namespace"
   xmlns:a="http://ns.adobe.com/AdobeSVGViewerExtensions/3.0/"
   xmlns:sodipodi="http://sodipodi.sourceforge.net/DTD/sodipodi-0.dtd"
   xmlns:xlink="http://www.w3.org/1999/xlink"
   id="svg153"
   sodipodi:version="0.32pre"
   sodipodi:docname="/home/cschalle/gnome-themes-extras/Lush/icons/scalable/apps/web-browser.svg"
   sodipodi:docbase="/home/cschalle/gnome-themes-extras/Lush/icons/scalable/apps">
  <defs
     id="defs236" />
  <sodipodi:namedview
     id="base" />
  <g
     id="Layer_1"
     stroke="#000000">
    <path
       opacity="0.2"
       fill="none"
       stroke="none"
       d="M256,256H0V0h256V256z"
       id="path155" />
    <radialGradient
       id="XMLID_1_"
       cx="116.8169"
       cy="47.0796"
       r="182.3371"
       fx="116.8169"
       fy="47.0796"
       gradientUnits="userSpaceOnUse">
      <stop
         offset="0"
         style="stop-color:#FFFFFF"
         id="stop157" />
      <stop
         offset="0.5955"
         style="stop-color:#99CCFF"
         id="stop158" />
      <stop
         offset="0.9944"
         style="stop-color:#3399FF"
         id="stop159" />
      <a:midPointStop
         offset="0"
         style="stop-color:#FFFFFF"
         id="midPointStop160" />
      <a:midPointStop
         offset="0.5"
         style="stop-color:#FFFFFF"
         id="midPointStop161" />
      <a:midPointStop
         offset="0.5955"
         style="stop-color:#99CCFF"
         id="midPointStop162" />
      <a:midPointStop
         offset="0.5"
         style="stop-color:#99CCFF"
         id="midPointStop163" />
      <a:midPointStop
         offset="0.9944"
         style="stop-color:#3399FF"
         id="midPointStop164" />
    </radialGradient>
    <path
       fill="url(#XMLID_1_)"
       stroke="none"
       d="M126.148,237.98c61.959,0,112.223-50.473,112.223-112.395    c0-61.528-50.262-112.01-112.223-112.01c-61.52,0.003-112.213,50.482-112.213,112.01C13.936,187.508,64.629,237.98,126.148,237.98    z"
       id="path165" />
    <path
       fill="#003366"
       stroke="none"
       d="M126.148,8.576C95.048,8.578,65.675,20.792,43.441,42.969    C21.19,65.163,8.936,94.504,8.936,125.586c0,64.731,52.582,117.395,117.213,117.395c64.637,0,117.223-52.663,117.223-117.395    C243.371,61.066,190.785,8.576,126.148,8.576z M126.148,237.98c-61.52,0-112.213-50.473-112.213-112.395    c0-61.528,50.693-112.007,112.213-112.01c61.961,0,112.223,50.482,112.223,112.01C238.371,187.508,188.107,237.98,126.148,237.98z    "
       id="path166" />
    <path
       opacity="0.2"
       stroke="none"
       d="M212.02,53.625c16.439,19.511,26.352,44.645,26.352,71.961    c0,61.922-50.264,112.395-112.223,112.395c-27.129,0-52.15-9.819-71.649-26.104c20.659,24.496,51.51,40.104,85.714,40.104    c61.959,0,112.223-50.473,112.223-112.395C252.436,105.177,236.713,74.227,212.02,53.625z"
       id="path167" />
    <path
       fill="#006633"
       stroke="none"
       d="M88.875,25.919c-0.555,0-1.162,0.229-1.785,0.581C88.55,26.071,89.237,25.919,88.875,25.919    z M125.005,32.969l0.364-5.285l-5.579,0.351l0.738,4.935H125.005z M62.056,124.314c-1.121-1.06-0.371-5.646-0.371-5.646    s-16.764-8.811-35.015-14.105c-2.251-0.653-1.114-5.287,1.112-7.045l-0.743-4.953c-0.369-2.459,3.728-14.449,7.825-15.502    c4.099-1.064-0.372,7.048-0.372,7.048l-4.097,2.469c0,0,4.839,5.638,5.962,5.638c1.114,0,2.977-2.822,2.977-2.822l-5.213-3.516    l4.844-2.123l0.303-1.859l0.813-0.257l8.016-12.143c5.541-2.267,12.349-5.076,13.216-5.491c1.49-0.701,11.919-6.69,13.781-8.104    c1.867-1.416,5.957-1.057,7.443-1.057c1.497,0,3.731-0.708,4.101-4.593c0.372-3.878,1.865-4.584,2.984-3.523    c1.116,1.053-1.122,2.818,1.488,3.523c2.607,0.709,4.837,2.472,6.704,0.709c1.362-1.293-0.46-2.763-1.688-3.874h20.681l2.24-6.358    l-4.842-0.704l-17.886-1.762v-2.117l-1.426,0.241c1.937-10.639,13.438-8.886,4.781-15.045    c-0.526-0.378-8.101,11.936-10.028,11.696c-3.492-0.46-8.004-0.496-8.968,0.638c-1.269,1.499,2.857-5.158,6.412-7.177    c-5.672,1.672-23.594,7.803-42.542,27.986c-18.112,19.294-25.334,45.287-25.334,46.197c0,1.761,3.728,2.469,4.101,4.587    c0.373,2.106-7.074,9.167-7.074,12.693c0,1.625-1.758,23.361,4.463,41.267c7.269,20.896,22.783,38.348,24.587,39.496l3.721-1.77    c0,0-8.566-15.16-8.938-16.576c-0.369-1.404,9.684-21.861,14.529-21.15c4.839,0.693,3.725,2.115,6.705,0.35    c2.978-1.76,4.84-16.229,8.192-17.629c3.355-1.418,7.077-3.178,6.711-6.703c-0.379-3.535-13.041-9.877-14.159-10.934H62.056z     M142.884,20.629l-10.056-3.53l1.863,5.648L142.884,20.629z M105.261,33.678c1.121,0,23.469-14.806,21.232-15.164    c-2.23-0.35-2.606,0-8.573-0.705c-5.955-0.707-12.294,8.465-13.778,9.877C102.656,29.101,103.157,33.678,105.261,33.678z     M207.816,140.012l2.885-3.742l-2.885-1.016l-2.163,2.721l-2.521,3.73l2.162,1.023L207.816,140.012z M220.43,152.256l-0.722-5.441    h-4.677l-0.363,4.074l-4.333-0.672l-1.075-4.424l-2.161-1.357l-2.53,3.055l-2.516-0.676l-0.726,2.371l2.887,0.691v22.088    l10.202,2.455c-0.234,0.408-0.411,0.752-0.471,0.938c-0.727,2.383,2.881,3.41,5.399,2.383c0.942-0.375,3.908-3.375,5.771-7.809    c2.598-6.178,4.866-14.334,5.322-17.217l1.169-2.496l-7.212,2.715l-3.967-0.674L220.43,152.256z M235.574,111.124l-1.882-3.645    c-2.229-12.572-7.343-28.67-18.3-45.3c-16.493-25.001-62.38-39.422-62.38-39.422l-2.518,3.052l-1.445-2.372l-3.607-1.365v3.059    l3.25,2.725l-2.164,1.018l-8.294,0.676l-18.746,10.201l1.797,8.155l-2.166,0.686l-1.072,1.695l6.126,9.172l0.361,3.065    l-5.046,1.018v6.114l-2.882,0.679l0.363,4.761L92.448,92.096l0.723,9.507c1.798,2.383,15.865,16.662,15.865,16.662    s16.218,0.671,19.826-1.361c3.605-2.039,1.08,2.036,2.164,3.057c1.08,1.027,1.441,8.156,2.52,8.839c1.08,0.678,0,4.753,1.443,6.12    c1.441,1.35,1.441,17.676,1.441,17.676s8.653,14.607,8.653,18.352c0,3.736-0.361,3.396,6.492,3.059    c6.85-0.34,8.289-3.059,9.728-4.074c1.448-1.023,1.448-3.404,2.892-5.445c1.445-2.043,3.959-9.855,7.21-12.57    c3.241-2.727,11.895-4.768,12.612-9.52c0.721-4.76,3.966-8.502,3.966-8.502l15.587-16.487l-0.438,2.217l-0.363,8.488l4.688-1.695    l-0.357-9.183l-1.686-1.779l0.24-0.259c0,0-1.085-2.036-2.521-2.036c-1.442,0-10.101,2.036-11.537,1.699    c-1.445-0.342-7.578-16.658-8.658-17.331c-1.082-0.681-7.928-11.899-7.928-11.899s15.86,19.036,18.384,26.509    c1.464,4.354,6.966,0.302,11.443-4.243l1.184,2.888l2.88-0.687l-0.361-3.397h3.243v5.099l-1.08,2.72l-0.371,4.415l2.889,2.726    l1.446-2.376l4.677-4.423l5.413-2.721l1.443,2.721l0.723,3.741l-1.448,4.076l-2.88,2.379l-1.443,6.12v3.051l-3.24-2.035    l-0.361-6.455l-4.686,0.344l-2.161,5.77l3.244,4.769l7.568,1.018l6.133-5.786l0.718-11.206l2.726-3.601    c1.777,4.566,3.046,9.345,3.046,13.795c0,4.88,2.23-3.381,0.332-18.264l1.106-1.453V111.124z M144.722,76.456l-19.466-0.69    l8.285-6.793h4.33l6.85,4.754v2.728L144.722,76.456z M168.521,74.078v3.059h-8.291l0.72,2.042l-5.051,0.684l-0.358,1.693    l-3.604-0.674l-6.492-1.368l1.084-1.694l1.083-2.048l3.603-3.734l1.445,2.721l5.41-0.342l2.881-3.061l11.172,2.04l-3.601,0.686    V74.078z M169.235,69.654l-4.321,0.679l-0.72-3.063l5.4-0.677l0.726-3.057l3.973,4.084l-5.058,2.029V69.654z M190.149,175.355    l-2.526,2.039l0.359,5.105h3.246v-4.412l2.889-3.748v-7.814l-1.805-0.35l-2.159,9.18H190.149z M166,165.17    c0,0-2.525,0.664,0.355,1.691c2.88,1.025,14.42-16.645,14.42-16.645l-9.735,6.109l-5.044,8.844H166z M146.374,230.313    l-2.156-2.055l-4.328-0.689l-0.718,2.057l-5.766-0.678l-0.362-2.738h-4.324l-4.685,2.738h-8.286l-0.719-2.057l-13.33-1.375    l-2.166,2.053l-5.401-1.359l-0.721-4.801l-2.522-0.35l-2.883,5.15l-9.726-0.346c1.737,0.824,16.267,9.488,38.545,11.301    c29.547,2.389,43.601-4.793,43.601-4.793l-1.082-1.031l-12.972-1.023V230.313z"
       id="path168" />
    <linearGradient
       id="XMLID_2_"
       gradientUnits="userSpaceOnUse"
       x1="125.3477"
       y1="-1.3052"
       x2="125.3476"
       y2="167.3438">
      <stop
         offset="0"
         style="stop-color:#FFFFFF"
         id="stop170" />
      <stop
         offset="0.9944"
         style="stop-color:#74B2FF"
         id="stop171" />
      <a:midPointStop
         offset="0"
         style="stop-color:#FFFFFF"
         id="midPointStop172" />
      <a:midPointStop
         offset="0.5"
         style="stop-color:#FFFFFF"
         id="midPointStop173" />
      <a:midPointStop
         offset="0.9944"
         style="stop-color:#74B2FF"
         id="midPointStop174" />
    </linearGradient>
    <path
       opacity="0.5"
       fill="url(#XMLID_2_)"
       stroke="none"
       d="M202.805,135.385c3.942-14.055,6.133-29.413,6.133-45.519    c0-15.731-2.095-30.745-5.865-44.534c-22.566-14.941-29.775-31.756-76.924-31.756S70.194,30.393,47.622,45.335    c-3.77,13.788-5.863,28.801-5.863,44.531c0,16.071,2.181,31.396,6.107,45.427c22.486,8.743,49.078,13.809,77.589,13.809    C153.865,149.102,180.369,144.072,202.805,135.385z"
       id="path175" />
    <g
       id="g176">
      <path
         fill="#990000"
         stroke="none"
         d="M138.426,140.354C129.977,168.383,101.582,189,67.833,189     c-30.502,0-56.635-16.841-67.62-40.774C0.087,149.474,0,150.729,0,152c0,29.64,34.996,53.667,78.167,53.667     S156.333,181.64,156.333,152c0-0.626-0.024-1.247-0.056-1.868C150.636,146.251,144.799,142.653,138.426,140.354z"
         id="path177" />
      <path
         fill="#FF0000"
         stroke="none"
         d="M67.833,191c-27.496,0-52.321-13.418-65.515-34.734     c3.215,26.497,35.972,47.401,75.848,47.401c41.999,0,76.167-23.178,76.167-51.667c0,0-0.012-0.395-0.023-0.777     c-4.283-2.916-9.263-5.984-14.703-8.206C129.961,171.363,100.825,191,67.833,191z"
         id="path178" />
      <path
         fill="#FF9933"
         stroke="none"
         d="M125.404,168.794c-21.7,28.721-74.297,22.619-74.826,22.554l-0.755,3.919     c61.131,16.123,83.836-12.819,84.772-14.061l0.813-1.077l-8.219-13.698L125.404,168.794z"
         id="path179" />
      <path
         fill="#FFFF00"
         stroke="none"
         d="M50.333,193.333c0,0,54,6.667,76.667-23.333l6,10C133,180,111,209.333,50.333,193.333z"
         id="path180" />
    </g>
    <path
       opacity="0.2"
       stroke="none"
       adobe-blending-mode="screen"
       d="M225.341,96.574c-9.783-9.786-27.953-6.247-43.23,8.404    c-0.062,0.058-0.359,0.337-0.359,0.337l-3.607,3.604c-8.202,0.056-19.132,6.725-28.459,15.216c-17.466,0.442-38.992,1.32-49,3.034    l-1.121,0.19l-20.747,14.363l47.037,22.916c-0.453,1.579-0.698,3.211-0.698,4.851c0,0.002,0,0.007,0,0.009    c0.003,4.374,1.649,8.426,4.633,11.406l11.245,11.244c2.981,2.988,7.036,4.631,11.412,4.631c2.543-0.004,5.073-0.584,7.42-1.641    L202.858,255l11.835-25.403v-1.138c0-16.342-6.099-57.427-9.186-77.188l11.12-11.124l0.278-0.29    C231.59,124.584,235.146,106.373,225.341,96.574z"
       id="path181" />
    <path
       fill="#333333"
       stroke="none"
       d="M166.66,115.117c-2.327,0.017-57.186,0.406-75.108,3.475l-1.119,0.191l-20.75,14.363    l69.173,33.697l2.573-2.319c3.021-2.721,29.545-27.079,30.392-44.016l0.27-5.427L166.66,115.117z"
       id="path182" />
    <linearGradient
       id="XMLID_3_"
       gradientUnits="userSpaceOnUse"
       x1="107.6216"
       y1="154.6143"
       x2="135.4528"
       y2="108.5184">
      <stop
         offset="0"
         style="stop-color:#CCCCCC"
         id="stop184" />
      <stop
         offset="1"
         style="stop-color:#FFFFFF"
         id="stop185" />
      <a:midPointStop
         offset="0"
         style="stop-color:#CCCCCC"
         id="midPointStop186" />
      <a:midPointStop
         offset="0.5"
         style="stop-color:#CCCCCC"
         id="midPointStop187" />
      <a:midPointStop
         offset="1"
         style="stop-color:#FFFFFF"
         id="midPointStop188" />
    </linearGradient>
    <path
       fill="url(#XMLID_3_)"
       stroke="none"
       d="M137.993,160.712c0,0,27.936-25.167,28.7-40.46c0,0-56.56,0.367-74.276,3.399    l-12.598,8.721L137.993,160.712z"
       id="path189" />
    <path
       opacity="0.5"
       stroke="none"
       d="M89.566,137.121l48.427,23.591c0,0,7.512-6.771,14.853-15.423    C138.085,134.77,117.696,130.203,89.566,137.121z"
       id="path190" />
    <path
       fill="#333333"
       stroke="none"
       d="M216.208,87.999c-9.784-9.789-27.952-6.251-43.23,8.404    c-0.061,0.056-0.361,0.333-0.361,0.333l-3.604,3.607c-9.208,0.062-21.864,8.454-31.818,18.408    c-10.235,10.235-18.81,23.32-18.382,32.583c-1.789,2.909-2.785,6.232-2.785,9.58c0,0,0,0.002,0,0.004    c0,4.379,1.645,8.43,4.629,11.408l11.247,11.247c2.98,2.984,7.036,4.629,11.412,4.627c4.815-0.001,9.608-2.034,13.145-5.58    l51.038-51.054l0.275-0.288C222.46,116.003,226.015,97.794,216.208,87.999z"
       id="path191" />
    <linearGradient
       id="XMLID_4_"
       gradientUnits="userSpaceOnUse"
       x1="168.4639"
       y1="130.0918"
       x2="174.6246"
       y2="147.5473">
      <stop
         offset="0"
         style="stop-color:#FF0000"
         id="stop193" />
      <stop
         offset="1"
         style="stop-color:#CC0000"
         id="stop194" />
      <a:midPointStop
         offset="0"
         style="stop-color:#FF0000"
         id="midPointStop195" />
      <a:midPointStop
         offset="0.5"
         style="stop-color:#FF0000"
         id="midPointStop196" />
      <a:midPointStop
         offset="1"
         style="stop-color:#CC0000"
         id="midPointStop197" />
    </linearGradient>
    <path
       fill="url(#XMLID_4_)"
       stroke="none"
       d="M176.472,100.161l0.036-0.033l-0.329,0.306l-50.955,50.965    c-5.028,5.027-5.451,12.79-0.94,17.293l11.249,11.249c4.509,4.514,12.267,4.088,17.293-0.948l50.954-50.962l0.274-0.292    c12.478-12.975,16.146-28.499,8.526-36.111C204.969,84.012,189.445,87.684,176.472,100.161z"
       id="path198" />
    <path
       fill="#333333"
       stroke="none"
       d="M188.455,127.655c-19.19,4.28-42.091,39.744-44.637,43.774l-1.851,2.928l51.759,72.064    l11.836-25.402v-1.137c0-21.422-10.477-85.341-10.923-88.054l-0.88-5.359L188.455,127.655z"
       id="path199" />
    <linearGradient
       id="XMLID_5_"
       gradientUnits="userSpaceOnUse"
       x1="177.585"
       y1="139.8057"
       x2="152.9435"
       y2="115.1637">
      <stop
         offset="0"
         style="stop-color:#FFFFFF"
         id="stop201" />
      <stop
         offset="1"
         style="stop-color:#CCDEED"
         id="stop202" />
      <a:midPointStop
         offset="0"
         style="stop-color:#FFFFFF"
         id="midPointStop203" />
      <a:midPointStop
         offset="0.5"
         style="stop-color:#FFFFFF"
         id="midPointStop204" />
      <a:midPointStop
         offset="1"
         style="stop-color:#CCDEED"
         id="midPointStop205" />
    </linearGradient>
    <path
       fill="url(#XMLID_5_)"
       stroke="none"
       d="M209.175,89.205c-8.263-4.066-21.442,0.124-32.703,10.956l0.036-0.033l-0.329,0.306    l-50.955,50.965c-5.028,5.027-5.451,12.79-0.94,17.293l10.074,10.076c4.463,2.08,10.267,1.016,14.308-3.034l50.952-50.962    l0.275-0.288C211.932,111.959,215.765,97.069,209.175,89.205z"
       id="path206" />
    <path
       fill="#FFFFFF"
       stroke="none"
       d="M139.241,137.379c22.013-8.463,42.392-17.707,49.901-25.215    c7.288-7.292,10.066-16.159,10.722-24.358c-7.266,0.744-15.767,5.018-23.393,12.355l0.036-0.033l-0.329,0.306L139.241,137.379z"
       id="path207" />
    <path
       fill="#CC3300"
       stroke="none"
       d="M140.824,122.381c-13.207,13.207-20.127,27.703-15.453,32.376    c4.675,4.674,19.17-2.245,32.377-15.451c13.21-13.207,20.128-27.705,15.453-32.378    C168.529,102.255,154.032,109.172,140.824,122.381z"
       id="path208" />
    <linearGradient
       id="XMLID_6_"
       gradientUnits="userSpaceOnUse"
       x1="140.1943"
       y1="123.4614"
       x2="171.8539"
       y2="155.1215">
      <stop
         offset="0.0056"
         style="stop-color:#FFFFFF"
         id="stop210" />
      <stop
         offset="0.309"
         style="stop-color:#99CCFF"
         id="stop211" />
      <stop
         offset="1"
         style="stop-color:#3399FF"
         id="stop212" />
      <a:midPointStop
         offset="0.0056"
         style="stop-color:#FFFFFF"
         id="midPointStop213" />
      <a:midPointStop
         offset="0.5"
         style="stop-color:#FFFFFF"
         id="midPointStop214" />
      <a:midPointStop
         offset="0.309"
         style="stop-color:#99CCFF"
         id="midPointStop215" />
      <a:midPointStop
         offset="0.5"
         style="stop-color:#99CCFF"
         id="midPointStop216" />
      <a:midPointStop
         offset="1"
         style="stop-color:#3399FF"
         id="midPointStop217" />
    </linearGradient>
    <path
       fill="url(#XMLID_6_)"
       stroke="none"
       d="M153.644,138.62c13.209-13.206,20.125-27.701,15.451-32.376    c-0.288-0.29-0.615-0.532-0.978-0.735c-6.66,0.545-17.342,6.923-27.293,16.872c-13.207,13.207-20.127,27.703-15.453,32.376    c0.29,0.29,0.617,0.536,0.978,0.737C133.012,154.951,143.691,148.573,153.644,138.62z"
       id="path218" />
    <path
       fill="#999999"
       stroke="none"
       d="M194.811,129.633c-17.071-1.022-53.833,39.29-49.331,49.453    c0.537-0.409,1.06-0.856,1.552-1.349l48.129-48.169C195.044,129.59,194.928,129.604,194.811,129.633z"
       id="path219" />
    <linearGradient
       id="XMLID_7_"
       gradientUnits="userSpaceOnUse"
       x1="167.3564"
       y1="195.2578"
       x2="207.0592"
       y2="177.1186">
      <stop
         offset="0"
         style="stop-color:#CCCCCC"
         id="stop221" />
      <stop
         offset="0.2966"
         style="stop-color:#D0D0D0"
         id="stop222" />
      <stop
         offset="0.5627"
         style="stop-color:#DADADA"
         id="stop223" />
      <stop
         offset="0.8163"
         style="stop-color:#EDEDED"
         id="stop224" />
      <stop
         offset="1"
         style="stop-color:#FFFFFF"
         id="stop225" />
      <a:midPointStop
         offset="0"
         style="stop-color:#CCCCCC"
         id="midPointStop226" />
      <a:midPointStop
         offset="0.7288"
         style="stop-color:#CCCCCC"
         id="midPointStop227" />
      <a:midPointStop
         offset="1"
         style="stop-color:#FFFFFF"
         id="midPointStop228" />
    </linearGradient>
    <path
       fill="url(#XMLID_7_)"
       stroke="none"
       d="M148.159,174.173c0,0,23.749-37.567,41.416-41.508c0,0,10.853,65.97,10.853,87.218    l-7.65,16.417L148.159,174.173z"
       id="path229" />
    <path
       opacity="0.5"
       fill="#FFFFFF"
       stroke="none"
       d="M148.68,143.24c1.658-1.437,3.32-2.978,4.964-4.62    c1.457-1.457,2.832-2.928,4.13-4.399c-15.176,5.168-27.158,6.689-27.158,6.689l-1.111,6.464    C135.155,145.205,142.391,143.954,148.68,143.24z"
       id="path230" />
    <path
       fill="#FF0000"
       stroke="none"
       d="M140.178,149.684c-3.694-5.76-8.172-10.058-11.206-12.602    c-2.395,3.881-4.007,7.487-4.688,10.508l-0.172,1.881l3.777,5.799C131.326,154.609,135.592,152.666,140.178,149.684z"
       id="path231" />
    <path
       fill="#CC0000"
       stroke="none"
       d="M127.883,140.019c-0.038-0.031-0.079-0.059-0.116-0.092    c-3.585,6.688-4.538,12.254-1.961,14.832c0.29,0.288,0.618,0.534,0.979,0.735c2.71-0.22,6.09-1.419,9.809-3.42    C135.516,148.269,132.428,143.804,127.883,140.019z"
       id="path232" />
    <path
       opacity="0.5"
       stroke="none"
       d="M162.857,154.16c-8.458,10.147-14.698,20.013-14.698,20.013l42.774,59.561    C189.377,212.514,183.589,176.664,162.857,154.16z"
       id="path233" />
    <path
       opacity="0.6"
       fill="#FFFFFF"
       stroke="none"
       d="M169.095,106.244c-0.288-0.29-0.615-0.532-0.978-0.735    c-4.569,0.373-11.027,3.491-17.849,8.626c13.758-6.767,16.532-2.091,4.306,4.189c-12.664,6.504-10.953,14.376,0.343,4.79    c6.486-5.502,11.502-7.055,14.599-7.378C170.975,111.495,170.946,108.095,169.095,106.244z"
       id="path234" />
  </g>
</svg>
