<?xml version="1.0" encoding="UTF-8" standalone="no"?>
<!DOCTYPE svg PUBLIC "-//W3C//DTD SVG 1.0//EN"
"http://www.w3.org/TR/2001/REC-SVG-20010904/DTD/svg10.dtd">
<!-- Created with Sodipodi ("http://www.sodipodi.com/") -->
<svg
   xmlns="http://www.w3.org/2000/svg"
   xmlns:xlink="http://www.w3.org/1999/xlink"
   version="1.0"
   x="0"
   y="0"
   width="60"
   height="60"
   viewBox="0 0 152 153.985"
   id="svg602"
   xml:space="preserve"><defs
   id="defs711" /><g
   style="font-size:12;"
   id="g1006"><g
   transform="translate(1.949177,5.847527)"
   style="stroke:#000000;"
   id="g607"><linearGradient
   x1="40.3506012"
   y1="99.6255035"
   x2="107.766701"
   y2="167.041595"
   id="XMLID_1_"
   gradientUnits="userSpaceOnUse"><stop
   style="stop-color:#7f7f7f;stop-opacity:1;"
   offset="0"
   id="stop609" /><stop
   style="stop-color:#404040;stop-opacity:1;"
   offset="0.99440002"
   id="stop610" /><a:midPointStop
   offset="0"
   style="stop-color:#7F7F7F"
   id="midPointStop611" /><a:midPointStop
   offset="0.5"
   style="stop-color:#7F7F7F"
   id="midPointStop612" /><a:midPointStop
   offset="0.9944"
   style="stop-color:#404040"
   id="midPointStop613" /></linearGradient><path
   d="M 139.725 135.083 C 139.725 136.183 138.825 137.083 137.725 137.083 L 10.392 137.083 C 9.292 137.083 8.392 136.183 8.392 135.083 L 8.392 131.583 C 8.392 130.483 9.292 129.583 10.392 129.583 L 137.725 129.583 C 138.825 129.583 139.725 130.483 139.725 131.583 L 139.725 135.083 z "
   style="fill:url(#XMLID_1_);stroke:none;"
   id="path614" /><path
   d="M 139.725 135.083 C 139.725 136.183 138.825 137.083 137.725 137.083 L 10.392 137.083 C 9.292 137.083 8.392 136.183 8.392 135.083 L 8.392 131.583 C 8.392 130.483 9.292 129.583 10.392 129.583 L 137.725 129.583 C 138.825 129.583 139.725 130.483 139.725 131.583 L 139.725 135.083 z "
   style="fill:none;"
   id="path615" /></g><g
   transform="translate(1.949177,5.847527)"
   style="stroke:#000000;"
   id="g618"><linearGradient
   x1="54.4653015"
   y1="113.4907"
   x2="93.6503983"
   y2="152.675797"
   id="XMLID_2_"
   gradientUnits="userSpaceOnUse"><stop
   style="stop-color:#7f7f7f;stop-opacity:1;"
   offset="0"
   id="stop620" /><stop
   style="stop-color:#404040;stop-opacity:1;"
   offset="0.99440002"
   id="stop621" /><a:midPointStop
   offset="0"
   style="stop-color:#7F7F7F"
   id="midPointStop622" /><a:midPointStop
   offset="0.5"
   style="stop-color:#7F7F7F"
   id="midPointStop623" /><a:midPointStop
   offset="0.9944"
   style="stop-color:#404040"
   id="midPointStop624" /></linearGradient><path
   d="M 65.309 118.668 C 65.309 120.913 63.472 122.75 61.226 122.75 L 46.891 122.75 C 44.645 122.75 42.808 124.587 42.808 126.832 L 42.808 139.334 C 42.808 141.579 44.645 143.416 46.891 143.416 L 101.226 143.416 C 103.471 143.416 105.308 141.579 105.308 139.334 L 105.308 126.832 C 105.308 124.587 103.471 122.75 101.226 122.75 L 86.89 122.75 C 84.645 122.75 82.808 120.913 82.808 118.668 L 82.808 106.832 C 82.808 104.587 80.971 102.75 78.725 102.75 L 69.391 102.75 C 67.145 102.75 65.308 104.587 65.308 106.832 L 65.309 118.668 z "
   style="fill:url(#XMLID_2_);stroke:none;"
   id="path625" /><path
   d="M 65.309 118.668 C 65.309 120.913 63.472 122.75 61.226 122.75 L 46.891 122.75 C 44.645 122.75 42.808 124.587 42.808 126.832 L 42.808 139.334 C 42.808 141.579 44.645 143.416 46.891 143.416 L 101.226 143.416 C 103.471 143.416 105.308 141.579 105.308 139.334 L 105.308 126.832 C 105.308 124.587 103.471 122.75 101.226 122.75 L 86.89 122.75 C 84.645 122.75 82.808 120.913 82.808 118.668 L 82.808 106.832 C 82.808 104.587 80.971 102.75 78.725 102.75 L 69.391 102.75 C 67.145 102.75 65.308 104.587 65.308 106.832 L 65.309 118.668 z "
   style="fill:none;stroke-width:0.8165;"
   id="path626" /></g><g
   transform="translate(1.949177,5.847527)"
   style="fill:#f8f6ff;fill-opacity:0.0687;stroke:#f8f6ff;stroke-opacity:0.0229;"
   id="g629"><path
   d="M 65.309 118.668 C 65.309 120.913 63.472 122.75 61.226 122.75 L 46.891 122.75 C 44.645 122.75 42.808 124.587 42.808 126.832 L 42.808 139.334 C 42.808 141.579 43.558 141.739 44.475 139.689 C 44.475 139.689 47.281 133.416 73.781 133.416 C 100.281 133.416 103.568 126.442 103.568 126.442 C 104.525 124.412 103.471 122.75 101.226 122.75 L 86.89 122.75 C 84.645 122.75 82.808 120.913 82.808 118.668 L 82.808 106.832 C 82.808 104.587 80.971 102.75 78.725 102.75 L 69.391 102.75 C 67.145 102.75 65.308 104.587 65.308 106.832 L 65.309 118.668 z "
   id="path630" /><path
   d="M 65.309 118.668 C 65.309 120.913 63.472 122.75 61.226 122.75 L 46.891 122.75 C 44.645 122.75 42.808 124.587 42.808 126.832 L 42.808 139.334 C 42.808 141.579 43.558 141.739 44.475 139.689 C 44.475 139.689 47.281 133.416 73.781 133.416 C 100.281 133.416 103.568 126.442 103.568 126.442 C 104.525 124.412 103.471 122.75 101.226 122.75 L 86.89 122.75 C 84.645 122.75 82.808 120.913 82.808 118.668 L 82.808 106.832 C 82.808 104.587 80.971 102.75 78.725 102.75 L 69.391 102.75 C 67.145 102.75 65.308 104.587 65.308 106.832 L 65.309 118.668 z "
   style="stroke-width:0.8165;"
   id="path631" /></g><g
   transform="translate(1.949177,5.847527)"
   style="stroke:#000000;"
   id="g634"><linearGradient
   x1="92.5986023"
   y1="130.151901"
   x2="98.9633026"
   y2="136.516495"
   id="XMLID_3_"
   gradientUnits="userSpaceOnUse"><stop
   style="stop-color:#7fc31c;stop-opacity:1;"
   offset="0"
   id="stop636" /><stop
   style="stop-color:#008837;stop-opacity:1;"
   offset="0.99440002"
   id="stop637" /><a:midPointStop
   offset="0"
   style="stop-color:#7FC31C"
   id="midPointStop638" /><a:midPointStop
   offset="0.5"
   style="stop-color:#7FC31C"
   id="midPointStop639" /><a:midPointStop
   offset="0.9944"
   style="stop-color:#008837"
   id="midPointStop640" /></linearGradient><path
   d="M 100.28 133.333 C 100.28 130.848 98.265 128.833 95.78 128.833 C 93.295 128.833 91.28 130.848 91.28 133.333 C 91.28 135.818 93.295 137.833 95.78 137.833 C 98.265 137.833 100.28 135.819 100.28 133.333 z "
   style="fill:url(#XMLID_3_);stroke:none;"
   id="path641" /><path
   d="M 100.28 133.333 C 100.28 130.848 98.265 128.833 95.78 128.833 C 93.295 128.833 91.28 130.848 91.28 133.333 C 91.28 135.818 93.295 137.833 95.78 137.833 C 98.265 137.833 100.28 135.819 100.28 133.333 z "
   style="fill:none;stroke-width:0.25;"
   id="path642" /></g><g
   transform="translate(1.949177,5.847527)"
   style="stroke:#000000;"
   id="g645"><linearGradient
   x1="81.5986023"
   y1="130.151901"
   x2="87.9626007"
   y2="136.515793"
   id="XMLID_4_"
   gradientUnits="userSpaceOnUse"><stop
   style="stop-color:#ff7f00;stop-opacity:1;"
   offset="0"
   id="stop647" /><stop
   style="stop-color:#ff0000;stop-opacity:1;"
   offset="0.99440002"
   id="stop648" /><a:midPointStop
   offset="0"
   style="stop-color:#FF7F00"
   id="midPointStop649" /><a:midPointStop
   offset="0.5"
   style="stop-color:#FF7F00"
   id="midPointStop650" /><a:midPointStop
   offset="0.9944"
   style="stop-color:#FF0000"
   id="midPointStop651" /></linearGradient><path
   d="M 89.28 133.333 C 89.28 130.848 87.265 128.833 84.78 128.833 C 82.295 128.833 80.28 130.848 80.28 133.333 C 80.28 135.818 82.295 137.833 84.78 137.833 C 87.265 137.833 89.28 135.819 89.28 133.333 z "
   style="fill:url(#XMLID_4_);stroke:none;"
   id="path652" /><path
   d="M 89.28 133.333 C 89.28 130.848 87.265 128.833 84.78 128.833 C 82.295 128.833 80.28 130.848 80.28 133.333 C 80.28 135.818 82.295 137.833 84.78 137.833 C 87.265 137.833 89.28 135.819 89.28 133.333 z "
   style="fill:none;stroke-width:0.25;"
   id="path653" /></g><g
   transform="translate(1.949177,5.847527)"
   style="stroke:#000000;"
   id="g657"><linearGradient
   x1="38.4346008"
   y1="103.243698"
   x2="108.544899"
   y2="103.243698"
   id="XMLID_5_"
   gradientUnits="userSpaceOnUse"><stop
   style="stop-color:#9e9e9e;stop-opacity:1;"
   offset="0"
   id="stop659" /><stop
   style="stop-color:#616161;stop-opacity:1;"
   offset="1"
   id="stop660" /><a:midPointStop
   offset="0"
   style="stop-color:#9E9E9E"
   id="midPointStop661" /><a:midPointStop
   offset="0.5"
   style="stop-color:#9E9E9E"
   id="midPointStop662" /><a:midPointStop
   offset="1"
   style="stop-color:#616161"
   id="midPointStop663" /></linearGradient><path
   d="M 108.545 103.244 C 108.545 99.467 92.851 96.404 73.49 96.404 C 54.129 96.404 38.434 99.467 38.434 103.244 C 38.434 107.021 54.129 110.084 73.49 110.084 C 92.851 110.083 108.545 107.021 108.545 103.244 z "
   style="fill:url(#XMLID_5_);stroke:none;"
   id="path664" /><path
   d="M 108.545 103.244 C 108.545 99.467 92.851 96.404 73.49 96.404 C 54.129 96.404 38.434 99.467 38.434 103.244 C 38.434 107.021 54.129 110.084 73.49 110.084 C 92.851 110.083 108.545 107.021 108.545 103.244 z "
   style="fill:none;"
   id="path665" /></g><g
   transform="translate(1.949177,5.847527)"
   style="stroke:#000000;"
   id="g668"><linearGradient
   x1="66.6875"
   y1="99.6753006"
   x2="80.7188034"
   y2="99.6753006"
   id="XMLID_6_"
   gradientUnits="userSpaceOnUse"><stop
   style="stop-color:#9e9e9e;stop-opacity:1;"
   offset="0"
   id="stop670" /><stop
   style="stop-color:#616161;stop-opacity:1;"
   offset="1"
   id="stop671" /><a:midPointStop
   offset="0"
   style="stop-color:#9E9E9E"
   id="midPointStop672" /><a:midPointStop
   offset="0.5"
   style="stop-color:#9E9E9E"
   id="midPointStop673" /><a:midPointStop
   offset="1"
   style="stop-color:#616161"
   id="midPointStop674" /></linearGradient><path
   d="M 80.719 94.398 C 76.071 93.662 71.336 93.662 66.688 94.398 C 67.245 97.917 67.803 101.435 68.36 104.954 C 71.901 104.393 75.507 104.393 79.048 104.954 C 79.604 101.435 80.162 97.917 80.719 94.398 z "
   style="fill:url(#XMLID_6_);stroke:none;"
   id="path675" /><path
   d="M 80.719 94.398 C 76.071 93.662 71.336 93.662 66.688 94.398 C 67.245 97.917 67.803 101.435 68.36 104.954 C 71.901 104.393 75.507 104.393 79.048 104.954 C 79.604 101.435 80.162 97.917 80.719 94.398 z "
   style="fill:none;"
   id="path676" /></g><g
   transform="translate(1.949177,5.847527)"
   style="stroke:#000000;"
   id="g679"><linearGradient
   x1="22.5459003"
   y1="84.8608017"
   x2="128.351593"
   y2="84.8608017"
   id="XMLID_7_"
   gradientUnits="userSpaceOnUse"><stop
   style="stop-color:#9e9e9e;stop-opacity:1;"
   offset="0"
   id="stop681" /><stop
   style="stop-color:#616161;stop-opacity:1;"
   offset="1"
   id="stop682" /><a:midPointStop
   offset="0"
   style="stop-color:#9E9E9E"
   id="midPointStop683" /><a:midPointStop
   offset="0.5"
   style="stop-color:#9E9E9E"
   id="midPointStop684" /><a:midPointStop
   offset="1"
   style="stop-color:#616161"
   id="midPointStop685" /></linearGradient><path
   d="M 22.546 80.373 L 128.352 80.373 C 128.352 80.373 115.529 99.61 72.778 99.61 C 30.027 99.61 22.546 80.373 22.546 80.373 z M 22.546 70.112 C 22.546 70.112 30.027 89.35 72.777 89.35 C 115.528 89.35 128.351 70.112 128.351 70.112 "
   style="fill:url(#XMLID_7_);stroke:none;"
   id="path686" /><path
   d="M 22.546 80.373 L 128.352 80.373 C 128.352 80.373 115.529 99.61 72.778 99.61 C 30.027 99.61 22.546 80.373 22.546 80.373 z M 22.546 70.112 C 22.546 70.112 30.027 89.35 72.777 89.35 C 115.528 89.35 128.351 70.112 128.351 70.112 "
   style="fill:none;"
   id="path687" /></g><g
   transform="translate(1.949177,5.847527)"
   style="stroke:#000000;"
   id="g690"><linearGradient
   x1="25.6522999"
   y1="-5.29930019"
   x2="127.025497"
   y2="96.0737991"
   id="XMLID_8_"
   gradientUnits="userSpaceOnUse"><stop
   style="stop-color:#636363;stop-opacity:1;"
   offset="0"
   id="stop692" /><stop
   style="stop-color:#000000;stop-opacity:1;"
   offset="1"
   id="stop693" /><a:midPointStop
   offset="0"
   style="stop-color:#636363"
   id="midPointStop694" /><a:midPointStop
   offset="0.5"
   style="stop-color:#636363"
   id="midPointStop695" /><a:midPointStop
   offset="1"
   style="stop-color:#000000"
   id="midPointStop696" /></linearGradient><path
   d="M 135.762 85.275 C 135.762 88.025 133.512 90.275 130.762 90.275 L 21.917 90.275 C 19.167 90.275 16.917 88.025 16.917 85.275 L 16.917 5.5 C 16.917 2.75 19.167 0.5 21.917 0.5 L 130.762 0.5 C 133.512 0.5 135.762 2.75 135.762 5.5 L 135.762 85.275 z M 126.143 12.768 C 126.143 10.018 123.893 7.768 121.143 7.768 L 31.538 7.768 C 28.788 7.768 26.538 10.018 26.538 12.768 L 26.538 78.008 C 26.538 80.758 28.788 83.008 31.538 83.008 L 121.143 83.008 C 123.893 83.008 126.143 80.758 126.143 78.008 L 126.143 12.768 z "
   style="fill:url(#XMLID_8_);stroke:none;"
   id="path697" /><path
   d="M 135.762 85.275 C 135.762 88.025 133.512 90.275 130.762 90.275 L 21.917 90.275 C 19.167 90.275 16.917 88.025 16.917 85.275 L 16.917 5.5 C 16.917 2.75 19.167 0.5 21.917 0.5 L 130.762 0.5 C 133.512 0.5 135.762 2.75 135.762 5.5 L 135.762 85.275 z M 126.143 12.768 C 126.143 10.018 123.893 7.768 121.143 7.768 L 31.538 7.768 C 28.788 7.768 26.538 10.018 26.538 12.768 L 26.538 78.008 C 26.538 80.758 28.788 83.008 31.538 83.008 L 121.143 83.008 C 123.893 83.008 126.143 80.758 126.143 78.008 L 126.143 12.768 z "
   style="fill:none;"
   id="path698" /></g><g
   transform="translate(1.949177,5.847527)"
   style="stroke:#000000;"
   id="g699"><linearGradient
   x1="118.583"
   y1="87.6304016"
   x2="34.0982018"
   y2="3.14560008"
   id="XMLID_9_"
   gradientUnits="userSpaceOnUse"><stop
   style="stop-color:#ffffff;stop-opacity:1;"
   offset="0"
   id="stop701" /><stop
   style="stop-color:#adadad;stop-opacity:1;"
   offset="1"
   id="stop702" /><a:midPointStop
   offset="0"
   style="stop-color:#FFFFFF"
   id="midPointStop703" /><a:midPointStop
   offset="0.5"
   style="stop-color:#FFFFFF"
   id="midPointStop704" /><a:midPointStop
   offset="1"
   style="stop-color:#ADADAD"
   id="midPointStop705" /></linearGradient><path
   d="M 126.143 78.007 C 126.143 80.757 123.893 83.007 121.143 83.007 L 31.538 83.007 C 28.788 83.007 26.538 80.757 26.538 78.007 L 26.538 12.767 C 26.538 10.017 28.788 7.767 31.538 7.767 L 121.143 7.767 C 123.893 7.767 126.143 10.017 126.143 12.767 L 126.143 78.007 z "
   style="fill:url(#XMLID_9_);stroke:none;"
   id="path706" /><path
   d="M 126.143 78.007 C 126.143 80.757 123.893 83.007 121.143 83.007 L 31.538 83.007 C 28.788 83.007 26.538 80.757 26.538 78.007 L 26.538 12.767 C 26.538 10.017 28.788 7.767 31.538 7.767 L 121.143 7.767 C 123.893 7.767 126.143 10.017 126.143 12.767 L 126.143 78.007 z "
   style="fill:none;"
   id="path707" /></g><g
   transform="translate(1.949177,5.847527)"
   style="stroke:#000000;"
   id="g708"><path
   d="M 135.762 10.533 C 135.762 13.283 134.901 17.612 133.848 20.152 C 133.848 20.152 123.365 45.46 76.34 45.46 C 29.314 45.46 18.517 77.417 18.517 77.417 C 17.637 80.022 16.916 79.904 16.916 77.154 L 16.916 5.5 C 16.916 2.75 19.166 0.5 21.916 0.5 L 130.761 0.5 C 133.511 0.5 135.761 2.75 135.761 5.5 L 135.761 10.533 L 135.762 10.533 z "
   style="opacity:0.3;fill:#ffffff;stroke:none;"
   id="path709" /></g></g></svg>
