<?xml version="1.0" encoding="UTF-8" standalone="no"?>
<!DOCTYPE svg PUBLIC "-//W3C//DTD SVG 20010904//EN"
"http://www.w3.org/TR/2001/REC-SVG-20010904/DTD/svg10.dtd">
<!-- Created with Sodipodi ("http://www.sodipodi.com/") -->
<svg
   i:viewOrigin="263 439.5"
   i:rulerOrigin="-242 -332"
   i:pageBounds="242 460 370 332"
   width="48pt"
   height="48pt"
   viewBox="0 0 103 111.5"
   overflow="visible"
   enable-background="new 0 0 103 111.5"
   xml:space="preserve"
   id="svg153"
   sodipodi:version="0.32"
   sodipodi:docname="/home/yishay/temp/gnome-fs-trash-empty1.svg"
   sodipodi:docbase="/home/yishay/temp"
   xmlns="http://www.w3.org/2000/svg"
   xmlns:sodipodi="http://sodipodi.sourceforge.net/DTD/sodipodi-0.dtd"
   xmlns:ns="http://ns.adobe.com/Variables/1.0/"
   xmlns:i="http://ns.adobe.com/AdobeIllustrator/10.0/"
   xmlns:xml="http://www.w3.org/XML/1998/namespace"
   xmlns:xlink="http://www.w3.org/1999/xlink">
  <defs
     id="defs228">
    <linearGradient
       id="linearGradient660"
       gradientUnits="userSpaceOnUse"
       x1="21.9858"
       y1="-4.4873"
       x2="77.6482"
       y2="34.4879">
      <stop
         offset="0.005600"
         style="stop-color:#42454c;stop-opacity:1;"
         id="stop661" />
      <stop
         offset="0.983100"
         style="stop-color:#ffffff;stop-opacity:1;"
         id="stop662" />
    </linearGradient>
    <linearGradient
       id="linearGradient656"
       gradientUnits="userSpaceOnUse"
       x1="21.9858"
       y1="-4.4873"
       x2="77.6482"
       y2="34.4879">
      <stop
         offset="0.005600"
         style="stop-color:#42454c;stop-opacity:1;"
         id="stop657" />
      <stop
         offset="0.983100"
         style="stop-color:#ffffff;stop-opacity:1;"
         id="stop658" />
    </linearGradient>
    <linearGradient
       id="linearGradient627">
      <stop
         offset="0.005600"
         style="stop-color:#ffffd6;stop-opacity:1;"
         id="stop629" />
      <stop
         offset="1.000000"
         style="stop-color:#7ac448;stop-opacity:1;"
         id="stop628" />
    </linearGradient>
    <linearGradient
       id="XMLID_2_"
       gradientUnits="userSpaceOnUse"
       x1="21.9858"
       y1="-4.4873"
       x2="77.6482"
       y2="34.4879">
      <stop
         offset="0.005600"
         style="stop-color:#ffffff;stop-opacity:1;"
         id="stop166" />
      <stop
         offset="0.983100"
         style="stop-color:#1c1c1c;stop-opacity:0.921569;"
         id="stop167" />
    </linearGradient>
    <linearGradient
       id="XMLID_1_"
       gradientUnits="userSpaceOnUse"
       x1="5.5474"
       y1="21.7935"
       x2="94.2374"
       y2="83.8949">
      <stop
         offset="0.0056"
         style="stop-color:#FFFFFF"
         id="stop159" />
      <stop
         offset="0.9831"
         style="stop-color:#1C1C1C"
         id="stop160" />
    </linearGradient>
    <linearGradient
       xlink:href="#linearGradient660"
       id="linearGradient626"
       x1="90.2417068"
       y1="57.9416389"
       x2="9.15005207"
       y2="57.9416389"
       gradientUnits="userSpaceOnUse"
       spreadMethod="pad" />
    <radialGradient
       xlink:href="#linearGradient656"
       id="radialGradient654"
       cx="0.50000000"
       cy="0.50000000"
       fx="0.50000000"
       fy="0.50000000"
       r="0.50000000"
       gradientUnits="userSpaceOnUse"
       spreadMethod="pad" />
    <linearGradient
       xlink:href="#linearGradient656"
       id="linearGradient655"
       x1="46.2686234"
       y1="39.1449280"
       x2="63.5428276"
       y2="-8.33333588"
       gradientUnits="userSpaceOnUse"
       spreadMethod="pad" />
  </defs>
  <sodipodi:namedview
     id="base" />
  <metadata
     id="metadata154">
    <sfw>
      <slices />
      <sliceSourceBounds
         x="263"
         y="328"
         width="103"
         height="111.5"
         bottomLeftOrigin="true" />
    </sfw>
    <ns:variableSets>
      <ns:variableSet
         varSetName="binding1"
         locked="none">
        <ns:variables />
        <ns:sampleDataSets />
      </ns:variableSet>
    </ns:variableSets>
  </metadata>
  <path
     i:knockout="Off"
     fill="url(#XMLID_2_)"
     stroke-width="2"
     d="M90.688,15c0-7.732-18.297-14-40.872-14    C27.243,1,8.944,7.268,8.944,15s18.299,14,40.873,14C72.392,29,90.688,22.732,90.688,15z"
     id="path630"
     style="font-size:12;fill:url(#XMLID_2_);stroke:#000000;stroke-width:2;"
     transform="matrix(1.000000,0.000000,0.000000,1.101456,0.000000,71.09520)" />
  <path
     style="fill:url(#linearGradient626);fill-rule:evenodd;stroke:#000000;stroke-opacity:1;stroke-width:1.80842;stroke-linejoin:miter;stroke-linecap:butt;fill-opacity:1;stroke-dasharray:none;"
     d="M 8.85669 15.8017 L 8.52866 86.8209 C 8.74734 94.9881 21.9231 99.0716 28.3743 100.847 C 36.3015 102.919 54.0696 104.101 68.2293 101.379 C 78.9994 99.4268 90.7538 94.8105 90.8631 87.5311 L 90.699 15.2691 L 68.0653 18.9976 L 31.8185 18.9976 L 8.85669 15.8017 z "
     id="path653"
     sodipodi:nodetypes="ccccccccc" />
  <g
     i:knockout="On"
     id="g206"
     style="font-size:12;stroke:#000000;">
    <g
       i:knockout="Off"
       id="g207">
      <linearGradient
         id="XMLID_7_"
         gradientUnits="userSpaceOnUse"
         x1="-5.3267"
         y1="38.6973"
         x2="8.7125"
         y2="48.5276"
         gradientTransform="matrix(-0.418 0.9085 -0.9085 -0.418 104.5051 87.8782)">
        <stop
           offset="0.0056"
           style="stop-color:#FFFFFF"
           id="stop209" />
        <stop
           offset="0.9831"
           style="stop-color:#1C1C1C"
           id="stop210" />
      </linearGradient>
      <path
         i:knockout="Off"
         opacity="0"
         fill="url(#XMLID_7_)"
         stroke="none"
         d="M67.863,60.509c0,0,6.491,10.416,5.026,13.596      c-1.461,3.179-13.926,5.149-13.926,5.149"
         id="path214" />
      <path
         i:knockout="Off"
         fill="none"
         stroke="#5EB423"
         stroke-width="6"
         d="M67.863,60.509c0,0,6.491,10.416,5.026,13.596      c-1.461,3.179-13.926,5.149-13.926,5.149"
         id="path215" />
    </g>
    <radialGradient
       id="XMLID_8_"
       cx="56.2246"
       cy="78.4707"
       r="9.2892"
       fx="56.2246"
       fy="78.4707"
       gradientUnits="userSpaceOnUse">
      <stop
         offset="0.0056"
         style="stop-color:#FFFFD6"
         id="stop217" />
      <stop
         offset="1"
         style="stop-color:#7AC448"
         id="stop218" />
    </radialGradient>
    <path
       i:knockout="Off"
       fill="url(#XMLID_8_)"
       stroke="#5EB423"
       d="M47.041,81.139c5.281-2.969,11.681-7.62,15.398-12.062     l-1.912,9.93l4.882,8.856C60.503,84.785,52.98,82.333,47.041,81.139z"
       id="path222" />
  </g>
  <g
     i:knockout="On"
     id="g172"
     style="font-size:12;stroke:#000000;">
    <g
       i:knockout="Off"
       id="g173">
      <linearGradient
         id="XMLID_3_"
         gradientUnits="userSpaceOnUse"
         x1="7.9258"
         y1="27.6348"
         x2="21.9674"
         y2="37.4668"
         gradientTransform="matrix(-0.5052 -0.863 0.863 -0.5052 16.2135 100.5125)">
        <stop
           offset="0.0056"
           style="stop-color:#FFFFFF"
           id="stop175" />
        <stop
           offset="0.9831"
           style="stop-color:#1C1C1C"
           id="stop176" />
      </linearGradient>
      <path
         i:knockout="Off"
         opacity="0"
         fill="url(#XMLID_3_)"
         stroke="none"
         d="M43.394,80.31c0,0-12.256-0.647-14.024-3.668      s3.757-14.366,3.757-14.366"
         id="path180" />
      <path
         i:knockout="Off"
         fill="none"
         stroke="#5EB423"
         stroke-width="6"
         d="M43.394,80.31c0,0-12.256-0.647-14.024-3.668      s3.757-14.366,3.757-14.366"
         id="path181" />
    </g>
    <radialGradient
       id="XMLID_4_"
       cx="30.927700"
       cy="61.189499"
       r="9.178400"
       fx="30.927700"
       fy="61.189499"
       gradientUnits="userSpaceOnUse"
       xlink:href="#linearGradient627" />
    <path
       i:knockout="Off"
       fill="url(#XMLID_4_)"
       stroke="#5EB423"
       d="M38.412,51.424c-0.592,6.029-0.445,13.939,1.065,19.532     L32.434,63.7l-10.056-1.072C27.712,60.369,34.031,55.608,38.412,51.424z"
       id="path188" />
  </g>
  <g
     i:knockout="On"
     id="g189"
     style="font-size:12;stroke:#000000;">
    <g
       i:knockout="Off"
       id="g190">
      <linearGradient
         id="XMLID_5_"
         gradientUnits="userSpaceOnUse"
         x1="43.4312"
         y1="41.7949"
         x2="57.4719"
         y2="51.6264">
        <stop
           offset="0.0056"
           style="stop-color:#FFFFFF"
           id="stop192" />
        <stop
           offset="0.9831"
           style="stop-color:#1C1C1C"
           id="stop193" />
      </linearGradient>
      <path
         i:knockout="Off"
         opacity="0"
         fill="url(#XMLID_5_)"
         stroke="none"
         d="M39.209,47.823c0,0,6.75-10.25,10.25-10.25      s10.5,10.5,10.5,10.5"
         id="path197" />
      <path
         i:knockout="Off"
         fill="none"
         stroke="#5EB423"
         stroke-width="6"
         d="M39.209,47.823c0,0,6.75-10.25,10.25-10.25      s10.5,10.5,10.5,10.5"
         id="path198" />
    </g>
    <radialGradient
       id="XMLID_6_"
       cx="57.957"
       cy="48.3672"
       r="9.2381"
       fx="57.957"
       fy="48.3672"
       gradientUnits="userSpaceOnUse">
      <stop
         offset="0.0056"
         style="stop-color:#FFFFD6"
         id="stop200" />
      <stop
         offset="1"
         style="stop-color:#7AC448"
         id="stop201" />
    </radialGradient>
    <path
       i:knockout="Off"
       fill="url(#XMLID_6_)"
       stroke="#5EB423"
       d="M66.654,58.116C61.75,54.56,54.85,50.69,49.26,49.169     l9.82-2.414l6.005-8.137C64.34,44.363,65.257,52.222,66.654,58.116z"
       id="path205" />
  </g>
  <path
     i:knockout="Off"
     fill="url(#XMLID_2_)"
     stroke-width="2"
     d="M90.688,15c0-7.732-18.297-14-40.872-14    C27.243,1,8.944,7.268,8.944,15s18.299,14,40.873,14C72.392,29,90.688,22.732,90.688,15z"
     id="path171"
     style="font-size:12;fill:url(#linearGradient655);stroke:#000000;stroke-width:2.00964;stroke-dasharray:none;"
     transform="matrix(1.000000,0.000000,0.000000,0.809770,0.000000,3.030987)" />
  <g
     i:knockout="Off"
     opacity="0.3"
     id="g223"
     style="font-size:12;opacity:0.3;stroke:#000000;"
     transform="matrix(-1.000000,0.000000,0.000000,0.819824,99.71683,2.665833)">
    <path
       i:knockout="Off"
       fill="#FFFFFF"
       stroke="none"
       d="M80.112,5.603C72.635,2.775,61.831,1,49.816,1     C27.243,1,8.944,7.268,8.944,15c0,3.455,3.653,6.617,9.708,9.058c7.497,3.023,15.107-6.516,35.023-6.516     S80.112,5.603,80.112,5.603z"
       id="path224" />
  </g>
  <g
     i:knockout="Off"
     opacity="0.3"
     id="g225"
     style="font-size:12;opacity:0.3;stroke:#000000;"
     transform="matrix(0.979991,0.000000,0.000000,0.872932,0.834256,2.058547)">
    <path
       i:knockout="Off"
       fill="#FFFFFF"
       stroke="none"
       d="M49.691,59.116C28.099,67.712,8.907,49.054,8.907,49.054V18.995     c0,0,12.277,10,41.15,10c28.874,0,40.82-10,40.82-10v51.699C90.877,70.693,71.284,50.521,49.691,59.116z"
       id="path226" />
  </g>
</svg>
