<?xml version="1.0" encoding="UTF-8" standalone="no"?>
<!DOCTYPE svg PUBLIC "-//W3C//DTD SVG 1.0//EN"
"http://www.w3.org/TR/2001/REC-SVG-20010904/DTD/svg10.dtd">
<!-- Created with Sodipodi ("http://www.sodipodi.com/") -->
<svg
   xmlns="http://www.w3.org/2000/svg"
   xmlns:xlink="http://www.w3.org/1999/xlink"
   version="1.0"
   x="0"
   y="0"
   width="60"
   height="60"
   viewBox="0 0 151 153.7"
   id="svg602"
   xml:space="preserve"><defs
   id="defs695" /><g
   style="font-size:12;stroke:#000000;"
   id="g606"><linearGradient
   x1="40.0698013"
   y1="99.3403015"
   x2="107.486702"
   y2="166.757202"
   id="XMLID_1_"
   gradientUnits="userSpaceOnUse"><stop
   style="stop-color:#7f7f7f;stop-opacity:1;"
   offset="5.5999998e-3"
   id="stop608" /><stop
   style="stop-color:#404040;stop-opacity:1;"
   offset="0.99440002"
   id="stop609" /><a:midPointStop
   offset="0.0056"
   style="stop-color:#7F7F7F"
   id="midPointStop610" /><a:midPointStop
   offset="0.5"
   style="stop-color:#7F7F7F"
   id="midPointStop611" /><a:midPointStop
   offset="0.9944"
   style="stop-color:#404040"
   id="midPointStop612" /></linearGradient><path
   d="M 139.444 134.798 C 139.444 135.898 138.544 136.798 137.444 136.798 L 10.111 136.798 C 9.011 136.798 8.111 135.898 8.111 134.798 L 8.111 131.298 C 8.111 130.198 9.011 129.298 10.111 129.298 L 137.444 129.298 C 138.544 129.298 139.444 130.198 139.444 131.298 L 139.444 134.798 z "
   style="fill:url(#XMLID_1_);stroke:none;"
   id="path613" /><path
   d="M 139.444 134.798 C 139.444 135.898 138.544 136.798 137.444 136.798 L 10.111 136.798 C 9.011 136.798 8.111 135.898 8.111 134.798 L 8.111 131.298 C 8.111 130.198 9.011 129.298 10.111 129.298 L 137.444 129.298 C 138.544 129.298 139.444 130.198 139.444 131.298 L 139.444 134.798 z "
   style="fill:none;"
   id="path614" /></g><g
   style="font-size:12;stroke:#000000;"
   id="g617"><linearGradient
   x1="54.1855011"
   y1="113.206497"
   x2="93.3705978"
   y2="152.391602"
   id="XMLID_2_"
   gradientUnits="userSpaceOnUse"><stop
   style="stop-color:#7f7f7f;stop-opacity:1;"
   offset="5.5999998e-3"
   id="stop619" /><stop
   style="stop-color:#404040;stop-opacity:1;"
   offset="0.99440002"
   id="stop620" /><a:midPointStop
   offset="0.0056"
   style="stop-color:#7F7F7F"
   id="midPointStop621" /><a:midPointStop
   offset="0.5"
   style="stop-color:#7F7F7F"
   id="midPointStop622" /><a:midPointStop
   offset="0.9944"
   style="stop-color:#404040"
   id="midPointStop623" /></linearGradient><path
   d="M 65.028 118.383 C 65.028 120.628 63.191 122.465 60.945 122.465 L 46.61 122.465 C 44.364 122.465 42.527 124.302 42.527 126.547 L 42.527 139.049 C 42.527 141.294 44.364 143.131 46.61 143.131 L 100.945 143.131 C 103.19 143.131 105.027 141.294 105.027 139.049 L 105.027 126.547 C 105.027 124.302 103.19 122.465 100.945 122.465 L 86.609 122.465 C 84.364 122.465 82.527 120.628 82.527 118.383 L 82.527 106.547 C 82.527 104.302 80.69 102.465 78.445 102.465 L 69.11 102.465 C 66.864 102.465 65.027 104.302 65.027 106.547 L 65.028 118.383 z "
   style="fill:url(#XMLID_2_);stroke:none;"
   id="path624" /><path
   d="M 65.028 118.383 C 65.028 120.628 63.191 122.465 60.945 122.465 L 46.61 122.465 C 44.364 122.465 42.527 124.302 42.527 126.547 L 42.527 139.049 C 42.527 141.294 44.364 143.131 46.61 143.131 L 100.945 143.131 C 103.19 143.131 105.027 141.294 105.027 139.049 L 105.027 126.547 C 105.027 124.302 103.19 122.465 100.945 122.465 L 86.609 122.465 C 84.364 122.465 82.527 120.628 82.527 118.383 L 82.527 106.547 C 82.527 104.302 80.69 102.465 78.445 102.465 L 69.11 102.465 C 66.864 102.465 65.027 104.302 65.027 106.547 L 65.028 118.383 z "
   style="fill:none;stroke-width:0.8165;"
   id="path625" /></g><g
   style="font-size:12;fill:#f8fcff;fill-opacity:0.0611;stroke:#f8fcff;stroke-opacity:0;"
   id="g628"><path
   d="M 65.028 118.383 C 65.028 120.628 63.191 122.465 60.945 122.465 L 46.61 122.465 C 44.364 122.465 42.527 124.302 42.527 126.547 L 42.527 139.049 C 42.527 141.294 43.277 141.454 44.194 139.404 C 44.194 139.404 47 133.131 73.5 133.131 C 100 133.131 103.287 126.157 103.287 126.157 C 104.244 124.127 103.19 122.465 100.945 122.465 L 86.609 122.465 C 84.364 122.465 82.527 120.628 82.527 118.383 L 82.527 106.547 C 82.527 104.302 80.69 102.465 78.445 102.465 L 69.11 102.465 C 66.864 102.465 65.027 104.302 65.027 106.547 L 65.028 118.383 z "
   id="path629" /><path
   d="M 65.028 118.383 C 65.028 120.628 63.191 122.465 60.945 122.465 L 46.61 122.465 C 44.364 122.465 42.527 124.302 42.527 126.547 L 42.527 139.049 C 42.527 141.294 43.277 141.454 44.194 139.404 C 44.194 139.404 47 133.131 73.5 133.131 C 100 133.131 103.287 126.157 103.287 126.157 C 104.244 124.127 103.19 122.465 100.945 122.465 L 86.609 122.465 C 84.364 122.465 82.527 120.628 82.527 118.383 L 82.527 106.547 C 82.527 104.302 80.69 102.465 78.445 102.465 L 69.11 102.465 C 66.864 102.465 65.027 104.302 65.027 106.547 L 65.028 118.383 z "
   style="stroke-width:0.8165;"
   id="path630" /></g><g
   style="font-size:12;stroke:#000000;"
   id="g634"><linearGradient
   x1="37.8916016"
   y1="22.4125996"
   x2="109.662903"
   y2="94.1838989"
   id="XMLID_3_"
   gradientUnits="userSpaceOnUse"><stop
   style="stop-color:#ffffff;stop-opacity:1;"
   offset="5.5999998e-3"
   id="stop636" /><stop
   style="stop-color:#80cfe2;stop-opacity:1;"
   offset="1"
   id="stop637" /><a:midPointStop
   offset="0.0056"
   style="stop-color:#FFFFFF"
   id="midPointStop638" /><a:midPointStop
   offset="0.5"
   style="stop-color:#FFFFFF"
   id="midPointStop639" /><a:midPointStop
   offset="1"
   style="stop-color:#80CFE2"
   id="midPointStop640" /></linearGradient><path
   d="M 124.527 58.298 C 124.527 30.269 101.804 7.548 73.777 7.548 C 45.749 7.548 23.027 30.269 23.027 58.298 C 23.027 86.326 45.748 109.048 73.777 109.048 C 101.805 109.048 124.527 86.327 124.527 58.298 z "
   style="fill:url(#XMLID_3_);stroke:none;"
   id="path641" /><path
   d="M 124.527 58.298 C 124.527 30.269 101.804 7.548 73.777 7.548 C 45.749 7.548 23.027 30.269 23.027 58.298 C 23.027 86.326 45.748 109.048 73.777 109.048 C 101.805 109.048 124.527 86.327 124.527 58.298 z "
   style="fill:none;stroke:#032850;stroke-width:0.8943;"
   id="path642" /></g><g
   style="font-size:12;stroke:#000000;"
   id="g645"><g
   id="g646"><linearGradient
   x1="103.738297"
   y1="99.4340973"
   x2="32.6292"
   y2="28.3250008"
   id="XMLID_4_"
   gradientUnits="userSpaceOnUse"><stop
   style="stop-color:#80cfe2;stop-opacity:1;"
   offset="0"
   id="stop648" /><stop
   style="stop-color:#0a50a1;stop-opacity:1;"
   offset="0.99440002"
   id="stop649" /><a:midPointStop
   offset="0"
   style="stop-color:#80CFE2"
   id="midPointStop650" /><a:midPointStop
   offset="0.5"
   style="stop-color:#80CFE2"
   id="midPointStop651" /><a:midPointStop
   offset="0.9944"
   style="stop-color:#0A50A1"
   id="midPointStop652" /></linearGradient><path
   d="M 28.17 36.389 C 28.17 36.389 31.97 34.824 32.418 36.165 C 32.865 37.507 31.3 46.226 33.313 47.12 C 35.325 48.014 30.407 54.721 31.301 58.298 C 32.195 61.875 37.114 66.57 40.914 71.041 C 44.715 75.513 44.044 76.406 45.832 77.972 C 47.621 79.536 55.893 81.549 61.258 81.549 C 66.623 81.549 66.847 84.455 68.859 84.232 C 70.871 84.009 73.33 81.549 74.672 83.114 C 76.014 84.679 70.648 89.821 75.789 93.622 C 80.932 97.423 87.191 94.517 88.086 96.752 C 88.981 98.988 84.807 105.844 87.266 106.961 C 88.735 107.628 102.17 101 104.184 98.988 C 106.196 96.975 108.655 86.691 111.784 84.679 C 114.915 82.667 116.927 72.83 112.679 71.936 C 108.431 71.042 104.185 73.5 103.29 75.513 C 102.395 77.525 92.782 75.066 91.663 74.618 C 90.546 74.171 78.921 76.406 76.462 78.195 C 74.003 79.983 70.872 83.337 68.86 82.667 C 66.848 81.996 66.848 77.972 62.153 77.972 C 57.458 77.972 63.048 73.948 59.918 73.724 C 56.788 73.5 57.906 76.63 55.67 76.854 C 53.434 77.078 44.268 73.5 51.869 67.464 C 59.471 61.428 61.036 65.899 63.271 67.911 C 65.507 69.923 64.389 65.675 62.377 63.663 C 60.365 61.651 63.048 58.521 64.166 57.85 C 65.284 57.18 62.377 50.025 66.849 45.554 C 71.32 41.082 67.52 40.636 66.179 39.965 C 64.837 39.295 71.768 36.835 71.544 35.047 C 71.32 33.259 58.575 29.905 57.01 30.8 C 55.445 31.694 59.246 41.531 57.234 41.307 C 55.222 41.083 48.515 39.966 47.173 36.612 C 45.831 33.258 52.315 29.681 49.409 28.116 C 46.503 26.551 45.161 30.128 43.373 29.458 C 41.584 28.787 36.89 25.881 36.89 24.316 C 36.89 22.751 29.958 31.023 28.17 36.389 z "
   style="fill:url(#XMLID_4_);stroke:#032850;stroke-width:0.8943;"
   id="path653" /><linearGradient
   x1="103.096703"
   y1="22.2719994"
   x2="126.123901"
   y2="45.2991982"
   id="XMLID_5_"
   gradientUnits="userSpaceOnUse"><stop
   style="stop-color:#80cfe2;stop-opacity:1;"
   offset="0"
   id="stop655" /><stop
   style="stop-color:#0a50a1;stop-opacity:1;"
   offset="0.99440002"
   id="stop656" /><a:midPointStop
   offset="0"
   style="stop-color:#80CFE2"
   id="midPointStop657" /><a:midPointStop
   offset="0.5"
   style="stop-color:#80CFE2"
   id="midPointStop658" /><a:midPointStop
   offset="0.9944"
   style="stop-color:#0A50A1"
   id="midPointStop659" /></linearGradient><path
   d="M 105.971 19.397 C 105.971 19.397 105.971 29.234 111.784 37.059 C 113.68 39.611 115.552 39.005 117.216 40.645 C 120.65 44.032 123.187 48.237 123.187 48.237 C 123.187 48.237 117.598 25.881 105.971 19.397 z "
   style="fill:url(#XMLID_5_);stroke:#032850;stroke-width:0.8943;"
   id="path660" /><linearGradient
   x1="86.2782974"
   y1="9.13379955"
   x2="103.241302"
   y2="26.0967999"
   id="XMLID_6_"
   gradientUnits="userSpaceOnUse"><stop
   style="stop-color:#80cfe2;stop-opacity:1;"
   offset="0"
   id="stop662" /><stop
   style="stop-color:#0a50a1;stop-opacity:1;"
   offset="0.99440002"
   id="stop663" /><a:midPointStop
   offset="0"
   style="stop-color:#80CFE2"
   id="midPointStop664" /><a:midPointStop
   offset="0.5"
   style="stop-color:#80CFE2"
   id="midPointStop665" /><a:midPointStop
   offset="0.9944"
   style="stop-color:#0A50A1"
   id="midPointStop666" /></linearGradient><path
   d="M 86.074 9.337 C 86.074 9.337 92.109 12.243 90.322 14.032 C 88.533 15.821 82.273 14.927 86.521 16.715 C 90.769 18.504 93.898 15.597 95.015 17.61 C 96.134 19.622 97.029 18.951 97.923 19.175 C 98.816 19.399 101.499 27.224 103.064 26.106 C 104.63 24.988 106.642 23.87 103.736 21.411 C 100.83 18.952 98.593 14.48 100.382 15.374 C 102.17 16.268 90.992 8.89 86.074 9.337 z "
   style="fill:url(#XMLID_6_);stroke:#032850;stroke-width:0.8943;"
   id="path667" /></g></g><path
   d="M 124.527 58.298 C 124.527 30.269 101.804 7.548 73.777 7.548 C 45.749 7.548 23.027 30.269 23.027 58.298 C 23.027 58.857 45.775 84.251 73.777 56.249 C 101.779 28.248 124.527 58.298 124.527 58.298 z "
   style="font-size:12;opacity:0.3;fill:#ffffff;stroke:#ffffff;stroke-width:0.8943;"
   id="path668" /><g
   style="font-size:12;opacity:0.3;stroke:#000000;"
   id="g669"><path
   d="M 73.676 14.475 C 71.349 11.737 55.261 13.812 42.628 25.083 C 29.901 36.203 26.387 50.2 28.812 51.627 C 31.301 53.299 39.098 42.576 51.857 32.665 C 64.463 22.64 76.237 17.272 73.676 14.475 z "
   style="fill:#ffffff;stroke:none;"
   id="path670" /><path
   d="M 73.676 14.475 C 71.349 11.737 55.261 13.812 42.628 25.083 C 29.901 36.203 26.387 50.2 28.812 51.627 C 31.301 53.299 39.098 42.576 51.857 32.665 C 64.463 22.64 76.237 17.272 73.676 14.475 z "
   style="fill:none;stroke:#ffffff;stroke-width:0.8943;"
   id="path671" /></g><g
   style="font-size:12;stroke:#000000;"
   id="g674"><linearGradient
   x1="92.3183975"
   y1="129.866699"
   x2="98.6822968"
   y2="136.230698"
   id="XMLID_7_"
   gradientUnits="userSpaceOnUse"><stop
   style="stop-color:#7fc31c;stop-opacity:1;"
   offset="0"
   id="stop676" /><stop
   style="stop-color:#008837;stop-opacity:1;"
   offset="0.99440002"
   id="stop677" /><a:midPointStop
   offset="0"
   style="stop-color:#7FC31C"
   id="midPointStop678" /><a:midPointStop
   offset="0.5"
   style="stop-color:#7FC31C"
   id="midPointStop679" /><a:midPointStop
   offset="0.9944"
   style="stop-color:#008837"
   id="midPointStop680" /></linearGradient><path
   d="M 100 133.048 C 100 130.563 97.985 128.548 95.5 128.548 C 93.015 128.548 91 130.563 91 133.048 C 91 135.533 93.015 137.548 95.5 137.548 C 97.985 137.548 100 135.534 100 133.048 z "
   style="fill:url(#XMLID_7_);stroke:none;"
   id="path681" /><path
   d="M 100 133.048 C 100 130.563 97.985 128.548 95.5 128.548 C 93.015 128.548 91 130.563 91 133.048 C 91 135.533 93.015 137.548 95.5 137.548 C 97.985 137.548 100 135.534 100 133.048 z "
   style="fill:none;stroke-width:0.25;"
   id="path682" /></g><g
   style="font-size:12;stroke:#000000;"
   id="g685"><linearGradient
   x1="81.3183975"
   y1="129.866699"
   x2="87.6822968"
   y2="136.230698"
   id="XMLID_8_"
   gradientUnits="userSpaceOnUse"><stop
   style="stop-color:#ff7f00;stop-opacity:1;"
   offset="0"
   id="stop687" /><stop
   style="stop-color:#ff0000;stop-opacity:1;"
   offset="0.99440002"
   id="stop688" /><a:midPointStop
   offset="0"
   style="stop-color:#FF7F00"
   id="midPointStop689" /><a:midPointStop
   offset="0.5"
   style="stop-color:#FF7F00"
   id="midPointStop690" /><a:midPointStop
   offset="0.9944"
   style="stop-color:#FF0000"
   id="midPointStop691" /></linearGradient><path
   d="M 89 133.048 C 89 130.563 86.985 128.548 84.5 128.548 C 82.015 128.548 80 130.563 80 133.048 C 80 135.533 82.015 137.548 84.5 137.548 C 86.985 137.548 89 135.534 89 133.048 z "
   style="fill:url(#XMLID_8_);stroke:none;"
   id="path692" /><path
   d="M 89 133.048 C 89 130.563 86.985 128.548 84.5 128.548 C 82.015 128.548 80 130.563 80 133.048 C 80 135.533 82.015 137.548 84.5 137.548 C 86.985 137.548 89 135.534 89 133.048 z "
   style="fill:none;stroke-width:0.25;"
   id="path693" /></g></svg>
