<?xml version="1.0" encoding="UTF-8" standalone="no"?>
<!DOCTYPE svg PUBLIC "-//W3C//DTD SVG 20010904//EN"
"http://www.w3.org/TR/2001/REC-SVG-20010904/DTD/svg10.dtd">
<!-- Created with Sodipodi ("http://www.sodipodi.com/") -->
<svg
   i:viewOrigin="239 463"
   i:rulerOrigin="-242 -332"
   i:pageBounds="242 460 370 332"
   width="48pt"
   height="48pt"
   viewBox="0 0 130 133"
   overflow="visible"
   enable-background="new 0 0 130 133"
   xml:space="preserve"
   id="svg153"
   sodipodi:version="0.32pre"
   sodipodi:docname="/home/cschalle/gnome-themes-extras/Amaranth/icons/scalable/filesystems/gnome-fs-home.svg"
   sodipodi:docbase="/home/cschalle/gnome-themes-extras/Amaranth/icons/scalable/filesystems"
   xmlns="http://www.w3.org/2000/svg"
   xmlns:sodipodi="http://sodipodi.sourceforge.net/DTD/sodipodi-0.dtd"
   xmlns:ns="http://ns.adobe.com/Variables/1.0/"
   xmlns:i="http://ns.adobe.com/AdobeIllustrator/10.0/"
   xmlns:xml="http://www.w3.org/XML/1998/namespace"
   xmlns:a="http://ns.adobe.com/AdobeSVGViewerExtensions/3.0/"
   xmlns:xlink="http://www.w3.org/1999/xlink">
  <defs
     id="defs179">
    <linearGradient
       id="XMLID_2_"
       gradientUnits="userSpaceOnUse"
       x1="27.7476"
       y1="21.8008"
       x2="101.0025"
       y2="73.0944">
      <stop
         offset="0.0056"
         style="stop-color:#FFFFFF"
         id="stop170" />
      <stop
         offset="1"
         style="stop-color:#3F5155"
         id="stop171" />
      <a:midPointStop
         offset="0.0056"
         style="stop-color:#FFFFFF"
         id="midPointStop172" />
      <a:midPointStop
         offset="0.5"
         style="stop-color:#FFFFFF"
         id="midPointStop173" />
      <a:midPointStop
         offset="1"
         style="stop-color:#3F5155"
         id="midPointStop174" />
    </linearGradient>
    <linearGradient
       id="XMLID_1_"
       gradientUnits="userSpaceOnUse"
       x1="17.7974"
       y1="52.5737"
       x2="110.9047"
       y2="117.7682">
      <stop
         offset="0.0056"
         style="stop-color:#FFFFFF"
         id="stop160" />
      <stop
         offset="1"
         style="stop-color:#3F5155"
         id="stop161" />
      <a:midPointStop
         offset="0.0056"
         style="stop-color:#FFFFFF"
         id="midPointStop162" />
      <a:midPointStop
         offset="0.5"
         style="stop-color:#FFFFFF"
         id="midPointStop163" />
      <a:midPointStop
         offset="1"
         style="stop-color:#3F5155"
         id="midPointStop164" />
    </linearGradient>
  </defs>
  <sodipodi:namedview
     id="base" />
  <metadata
     id="metadata154">
    <sfw>
      <slices />
      <sliceSourceBounds
         x="239"
         y="330"
         width="130"
         height="133"
         bottomLeftOrigin="true" />
    </sfw>
    <ns:variableSets>
      <ns:variableSet
         varSetName="binding1"
         locked="none">
        <ns:variables />
        <ns:sampleDataSets />
      </ns:variableSet>
    </ns:variableSets>
  </metadata>
  <path
     i:knockout="Off"
     fill="url(#XMLID_1_)"
     stroke-width="2"
     d="M18.146,52.075c0-1.1,0.9-2,2-2h88.408c1.1,0,2,0.9,2,2      v66.192c0,1.1-0.9,2-2,2H20.146c-1.1,0-2-0.9-2-2V52.075z M60.5,94.189c0-1.1-0.9-2-2-2H42.093c-1.1,0-2,0.9-2,2v22.615      c0,1.1,0.9,2,2,2H58.5c1.1,0,2-0.9,2-2V94.189z M99.004,71.085c0-1.1-0.9-2-2-2h-5.626c-1.1,0-2,0.9-2,2v3.312c0,1.1,0.9,2,2,2      h5.626c1.1,0,2-0.9,2-2V71.085z M85.143,81.614c0-1.1-0.9-2-2-2h-5.626c-1.1,0-2,0.9-2,2v3.312c0,1.1,0.9,2,2,2h5.626      c1.1,0,2-0.9,2-2V81.614z M99.004,81.614c0-1.1-0.9-2-2-2h-5.626c-1.1,0-2,0.9-2,2v3.312c0,1.1,0.9,2,2,2h5.626c1.1,0,2-0.9,2-2      V81.614z M85.143,71.085c0-1.1-0.9-2-2-2h-5.626c-1.1,0-2,0.9-2,2v3.312c0,1.1,0.9,2,2,2h5.626c1.1,0,2-0.9,2-2V71.085z"
     id="path165"
     style="font-size:12;fill:url(#XMLID_1_);stroke:#000000;stroke-width:2;" />
  <path
     i:knockout="Off"
     fill="url(#XMLID_2_)"
     stroke-width="2"
     d="M62.682,49.294H9.75c-1.1,0-1.283-0.544-0.407-1.21L62.115,8      c0.876-0.666,2.31-0.666,3.186,0l52.772,40.085c0.876,0.666,0.692,1.21-0.407,1.21L62.682,49.294"
     id="path175"
     transform="translate(0,-1.90735e-06)"
     style="font-size:12;fill:url(#XMLID_2_);stroke:#000000;stroke-width:2;" />
  <g
     i:knockout="Off"
     id="g176"
     style="font-size:12;stroke:#000000;">
    <path
       i:knockout="Off"
       opacity="0.25"
       fill="#FFFFFF"
       stroke="none"
       d="M63.629,8l54.716,41.218c0,0-30.188-10.902-50.524,7.337     S18.136,65.99,18.136,65.99V49.428H8.702L63.629,8z"
       id="path177" />
  </g>
</svg>
