<?xml version="1.0" encoding="UTF-8" standalone="no"?>
<!DOCTYPE svg PUBLIC "-//W3C//DTD SVG 20010904//EN"
"http://www.w3.org/TR/2001/REC-SVG-20010904/DTD/svg10.dtd">
<!-- Created with Sodipodi ("http://www.sodipodi.com/") -->
<svg
   i:viewOrigin="263 439.5"
   i:rulerOrigin="-242 -332"
   i:pageBounds="242 460 370 332"
   width="48pt"
   height="48pt"
   viewBox="0 0 103 111.5"
   overflow="visible"
   enable-background="new 0 0 103 111.5"
   xml:space="preserve"
   id="svg153"
   sodipodi:version="0.32"
   sodipodi:docname="/home/yishay/temp/gnome-fs-trash-full.svg"
   sodipodi:docbase="/home/yishay/temp"
   xmlns="http://www.w3.org/2000/svg"
   xmlns:sodipodi="http://sodipodi.sourceforge.net/DTD/sodipodi-0.dtd"
   xmlns:ns="http://ns.adobe.com/Variables/1.0/"
   xmlns:i="http://ns.adobe.com/AdobeIllustrator/10.0/"
   xmlns:xml="http://www.w3.org/XML/1998/namespace"
   xmlns:xlink="http://www.w3.org/1999/xlink">
  <defs
     id="defs228">
    <linearGradient
       id="linearGradient660"
       gradientUnits="userSpaceOnUse"
       x1="21.9858"
       y1="-4.4873"
       x2="77.6482"
       y2="34.4879">
      <stop
         offset="0.005600"
         style="stop-color:#42454c;stop-opacity:1;"
         id="stop661" />
      <stop
         offset="0.983100"
         style="stop-color:#ffffff;stop-opacity:1;"
         id="stop662" />
    </linearGradient>
    <linearGradient
       id="linearGradient656"
       gradientUnits="userSpaceOnUse"
       x1="21.9858"
       y1="-4.4873"
       x2="77.6482"
       y2="34.4879">
      <stop
         offset="0.005600"
         style="stop-color:#42454c;stop-opacity:1;"
         id="stop657" />
      <stop
         offset="0.983100"
         style="stop-color:#ffffff;stop-opacity:1;"
         id="stop658" />
    </linearGradient>
    <linearGradient
       id="linearGradient627">
      <stop
         offset="0.005600"
         style="stop-color:#ffffd6;stop-opacity:1;"
         id="stop629" />
      <stop
         offset="1.000000"
         style="stop-color:#7ac448;stop-opacity:1;"
         id="stop628" />
    </linearGradient>
    <linearGradient
       id="XMLID_2_"
       gradientUnits="userSpaceOnUse"
       x1="21.9858"
       y1="-4.4873"
       x2="77.6482"
       y2="34.4879">
      <stop
         offset="0.005600"
         style="stop-color:#ffffff;stop-opacity:1;"
         id="stop166" />
      <stop
         offset="0.983100"
         style="stop-color:#1c1c1c;stop-opacity:0.921569;"
         id="stop167" />
    </linearGradient>
    <linearGradient
       id="XMLID_1_"
       gradientUnits="userSpaceOnUse"
       x1="5.5474"
       y1="21.7935"
       x2="94.2374"
       y2="83.8949">
      <stop
         offset="0.0056"
         style="stop-color:#FFFFFF"
         id="stop159" />
      <stop
         offset="0.9831"
         style="stop-color:#1C1C1C"
         id="stop160" />
    </linearGradient>
    <linearGradient
       xlink:href="#linearGradient660"
       id="linearGradient626"
       x1="90.2417068"
       y1="57.9416389"
       x2="9.15005207"
       y2="57.9416389"
       gradientUnits="userSpaceOnUse"
       spreadMethod="pad" />
    <radialGradient
       xlink:href="#linearGradient656"
       id="radialGradient654"
       cx="0.50000000"
       cy="0.50000000"
       fx="0.50000000"
       fy="0.50000000"
       r="0.50000000"
       gradientUnits="userSpaceOnUse"
       spreadMethod="pad" />
    <linearGradient
       xlink:href="#linearGradient656"
       id="linearGradient655"
       x1="46.2686234"
       y1="39.1449280"
       x2="63.5428276"
       y2="-8.33333588"
       gradientUnits="userSpaceOnUse"
       spreadMethod="pad" />
  </defs>
  <sodipodi:namedview
     id="base" />
  <metadata
     id="metadata154">
    <sfw>
      <slices />
      <sliceSourceBounds
         x="263"
         y="328"
         width="103"
         height="111.5"
         bottomLeftOrigin="true" />
    </sfw>
    <ns:variableSets>
      <ns:variableSet
         varSetName="binding1"
         locked="none">
        <ns:variables />
        <ns:sampleDataSets />
      </ns:variableSet>
    </ns:variableSets>
  </metadata>
  <path
     i:knockout="Off"
     fill="url(#XMLID_2_)"
     stroke-width="2"
     d="M90.688,15c0-7.732-18.297-14-40.872-14    C27.243,1,8.944,7.268,8.944,15s18.299,14,40.873,14C72.392,29,90.688,22.732,90.688,15z"
     id="path771"
     style="font-size:12;fill:url(#linearGradient655);stroke:#000000;stroke-width:2.00964;stroke-dasharray:none;"
     transform="matrix(1.000000,0.000000,0.000000,0.809770,0.000000,3.030987)" />
  <path
     i:knockout="Off"
     fill="url(#XMLID_2_)"
     stroke-width="2"
     d="M90.688,15c0-7.732-18.297-14-40.872-14    C27.243,1,8.944,7.268,8.944,15s18.299,14,40.873,14C72.392,29,90.688,22.732,90.688,15z"
     id="path630"
     style="font-size:12;fill:url(#XMLID_2_);stroke:#000000;stroke-width:2;"
     transform="matrix(1.000000,0.000000,0.000000,1.101456,0.000000,71.09520)" />
  <g
     id="g165"
     style="font-size:12;stroke:#000000;">
    <path
       i:knockout="Off"
       fill="#FFFFFF"
       d="M53.162,50.465c0.108,1.095-0.699,2.079-1.793,2.188l-32.946,3.264     c-1.095,0.108-2.079-0.698-2.188-1.793L11.463,5.949c-0.108-1.095,0.698-2.079,1.793-2.188l32.946-3.264     c1.094-0.108,2.079,0.698,2.188,1.793L53.162,50.465z"
       id="path166" />
    <path
       i:knockout="Off"
       fill="#FFFFFF"
       d="M67.516,61.196c-0.186,1.085-1.225,1.819-2.309,1.634l-32.633-5.586     c-1.084-0.186-1.819-1.225-1.634-2.309l8.168-47.716c0.186-1.084,1.225-1.82,2.309-1.634l32.633,5.586     c1.083,0.186,1.819,1.224,1.634,2.309L67.516,61.196z"
       id="path167" />
  </g>
  <path
     style="fill:url(#linearGradient626);fill-rule:evenodd;stroke:#000000;stroke-opacity:1;stroke-width:1.80842;stroke-linejoin:miter;stroke-linecap:butt;fill-opacity:1;stroke-dasharray:none;"
     d="M 8.85669 15.8017 L 8.52866 86.8209 C 8.74734 94.9881 21.9231 99.0716 28.3743 100.847 C 36.3015 102.919 54.0696 104.101 68.2293 101.379 C 78.9994 99.4268 90.7538 94.8105 90.8631 87.5311 L 90.699 15.2691 C 90.371 20.418 74.084 25.0289 63.8009 25.922 C 50.3032 27.0801 38.4755 26.387 30.1783 25.0343 C 24.1545 24.0714 8.96604 20.7139 8.85669 15.8017 z "
     id="path653"
     sodipodi:nodetypes="ccccccssc" />
  <g
     i:knockout="Off"
     opacity="0.3"
     id="g223"
     style="font-size:12;opacity:0.3;stroke:#000000;"
     transform="matrix(-1.000000,0.000000,0.000000,0.819824,99.71683,2.665833)">
    <path
       i:knockout="Off"
       fill="#FFFFFF"
       stroke="none"
       d="M80.112,5.603C72.635,2.775,61.831,1,49.816,1     C27.243,1,8.944,7.268,8.944,15c0,3.455,3.653,6.617,9.708,9.058c7.497,3.023,15.107-6.516,35.023-6.516     S80.112,5.603,80.112,5.603z"
       id="path224" />
  </g>
  <g
     id="g817"
     transform="translate(-0.164013,-4.793793)">
    <g
       i:knockout="On"
       id="g211"
       style="font-size:12;stroke:#000000;">
      <g
         i:knockout="Off"
         id="g212">
        <linearGradient
           id="XMLID_7_"
           gradientUnits="userSpaceOnUse"
           x1="-5.3267"
           y1="43.4468"
           x2="8.7125"
           y2="53.2771"
           gradientTransform="matrix(-0.418 0.9085 -0.9085 -0.418 108.82 94.613)">
          <stop
             offset="0.0056"
             style="stop-color:#FFFFFF"
             id="stop214" />
          <stop
             offset="0.9831"
             style="stop-color:#1C1C1C"
             id="stop215" />
        </linearGradient>
        <path
           i:knockout="Off"
           opacity="0"
           fill="url(#XMLID_7_)"
           stroke="none"
           d="M67.863,65.258c0,0,6.491,10.416,5.026,13.596      c-1.461,3.179-13.926,5.149-13.926,5.149"
           id="path219" />
        <path
           i:knockout="Off"
           fill="none"
           stroke="#FF4F00"
           stroke-width="6"
           d="M67.863,65.258c0,0,6.491,10.416,5.026,13.596      c-1.461,3.179-13.926,5.149-13.926,5.149"
           id="path220" />
      </g>
      <radialGradient
         id="XMLID_8_"
         cx="56.2246"
         cy="83.2202"
         r="9.2892"
         fx="56.2246"
         fy="83.2202"
         gradientUnits="userSpaceOnUse">
        <stop
           offset="0.0056"
           style="stop-color:#FFFFD6"
           id="stop222" />
        <stop
           offset="1"
           style="stop-color:#FF0000"
           id="stop223" />
      </radialGradient>
      <path
         i:knockout="Off"
         fill="url(#XMLID_8_)"
         stroke="#FF4A00"
         d="M47.041,85.888c5.281-2.969,11.681-7.62,15.398-12.062     l-1.912,9.93l4.882,8.856C60.503,89.535,52.98,87.083,47.041,85.888z"
         id="path227" />
    </g>
    <g
       i:knockout="On"
       id="g177"
       style="font-size:12;stroke:#000000;">
      <g
         i:knockout="Off"
         id="g178">
        <linearGradient
           id="XMLID_3_"
           gradientUnits="userSpaceOnUse"
           x1="7.9258"
           y1="32.3843"
           x2="21.9674"
           y2="42.2163"
           gradientTransform="matrix(-0.5052 -0.863 0.863 -0.5052 12.1147 107.6615)">
          <stop
             offset="0.0056"
             style="stop-color:#FFFFFF"
             id="stop180" />
          <stop
             offset="0.9831"
             style="stop-color:#1C1C1C"
             id="stop181" />
        </linearGradient>
        <path
           i:knockout="Off"
           opacity="0"
           fill="url(#XMLID_3_)"
           stroke="none"
           d="M43.394,85.059c0,0-12.256-0.647-14.024-3.668      s3.757-14.366,3.757-14.366"
           id="path185" />
        <path
           i:knockout="Off"
           fill="none"
           stroke="#FF4F00"
           stroke-width="6"
           d="M43.394,85.059c0,0-12.256-0.647-14.024-3.668      s3.757-14.366,3.757-14.366"
           id="path186" />
      </g>
      <radialGradient
         id="XMLID_4_"
         cx="30.9277"
         cy="65.939"
         r="9.1784"
         fx="30.9277"
         fy="65.939"
         gradientUnits="userSpaceOnUse">
        <stop
           offset="0.0056"
           style="stop-color:#FFFFD6"
           id="stop188" />
        <stop
           offset="1"
           style="stop-color:#FF0000"
           id="stop189" />
      </radialGradient>
      <path
         i:knockout="Off"
         fill="url(#XMLID_4_)"
         stroke="#FF4A00"
         d="M38.412,56.173c-0.592,6.029-0.445,13.939,1.065,19.532     l-7.044-7.256l-10.056-1.072C27.712,65.119,34.031,60.358,38.412,56.173z"
         id="path193" />
    </g>
    <g
       i:knockout="On"
       id="g194"
       style="font-size:12;stroke:#000000;">
      <g
         i:knockout="Off"
         id="g195">
        <linearGradient
           id="XMLID_5_"
           gradientUnits="userSpaceOnUse"
           x1="43.4312"
           y1="46.5444"
           x2="57.4719"
           y2="56.3759">
          <stop
             offset="0.0056"
             style="stop-color:#FFFFFF"
             id="stop197" />
          <stop
             offset="0.9831"
             style="stop-color:#1C1C1C"
             id="stop198" />
        </linearGradient>
        <path
           i:knockout="Off"
           opacity="0"
           fill="url(#XMLID_5_)"
           stroke="none"
           d="M39.209,52.573c0,0,6.75-10.25,10.25-10.25      s10.5,10.5,10.5,10.5"
           id="path202" />
        <path
           i:knockout="Off"
           fill="none"
           stroke="#FF4F00"
           stroke-width="6"
           d="M39.209,52.573c0,0,6.75-10.25,10.25-10.25      s10.5,10.5,10.5,10.5"
           id="path203" />
      </g>
      <radialGradient
         id="XMLID_6_"
         cx="57.957"
         cy="53.1167"
         r="9.2381"
         fx="57.957"
         fy="53.1167"
         gradientUnits="userSpaceOnUse">
        <stop
           offset="0.0056"
           style="stop-color:#FFFFD6"
           id="stop205" />
        <stop
           offset="1"
           style="stop-color:#FF0000"
           id="stop206" />
      </radialGradient>
      <path
         i:knockout="Off"
         fill="url(#XMLID_6_)"
         stroke="#FF4A00"
         d="M66.654,62.866C61.75,59.309,54.85,55.44,49.26,53.918     l9.82-2.414l6.005-8.137C64.34,49.113,65.257,56.971,66.654,62.866z"
         id="path210" />
    </g>
  </g>
  <g
     i:knockout="Off"
     opacity="0.3"
     id="g225"
     style="font-size:12;opacity:0.3;stroke:#000000;"
     transform="matrix(0.979991,0.000000,0.000000,0.872932,0.834256,2.058547)">
    <path
       i:knockout="Off"
       fill="#FFFFFF"
       stroke="none"
       d="M49.691,59.116C28.099,67.712,8.907,49.054,8.907,49.054V18.995     c0,0,12.277,10,41.15,10c28.874,0,40.82-10,40.82-10v51.699C90.877,70.693,71.284,50.521,49.691,59.116z"
       id="path226" />
  </g>
</svg>
