<?xml version="1.0" encoding="UTF-8" standalone="no"?>
<!DOCTYPE svg PUBLIC "-//W3C//DTD SVG 20010904//EN"
"http://www.w3.org/TR/2001/REC-SVG-20010904/DTD/svg10.dtd">
<!-- Created with Sodipodi ("http://www.sodipodi.com/") -->
<svg
   width="48pt"
   height="48pt"
   viewBox="0 0 256 256"
   overflow="visible"
   enable-background="new 0 0 256 256"
   xml:space="preserve"
   xmlns="http://www.w3.org/2000/svg"
   xmlns:xml="http://www.w3.org/XML/1998/namespace"
   xmlns:sodipodi="http://sodipodi.sourceforge.net/DTD/sodipodi-0.dtd"
   xmlns:xlink="http://www.w3.org/1999/xlink"
   id="svg153"
   sodipodi:version="0.32pre"
   sodipodi:docname="/home/cschalle/gnome-themes-extras/Lush/icons/scalable/stock/editpaste.svgz"
   sodipodi:docbase="/home/cschalle/gnome-themes-extras/Lush/icons/scalable/stock/">
  <defs
     id="defs207" />
  <sodipodi:namedview
     id="base" />
  <g
     id="Layer_2"
     stroke="#000000">
    <path
       fill="none"
       stroke="none"
       d="M256,256H0V0h256V256z"
       id="path155" />
  </g>
  <g
     id="Layer_1"
     stroke="#000000">
    <path
       opacity="0.2"
       stroke="none"
       d="M238.501,48.957L114.34,37.281l0.885,0.117C101.813,35.13,81.457,47.649,78.661,55.68    l0.231-0.558L11.287,195.837l-0.099,0.284c-3.059,8.786,4.296,17.598,16.392,19.642l144.797,24.477    c12.096,2.044,24.426-3.439,27.483-12.225L255.33,68.673c3.059-8.786-4.295-17.598-16.391-19.643L238.501,48.957z"
       id="path157" />
    <path
       stroke="none"
       d="M236.5,40.957L112.339,29.281l0.885,0.117C99.812,27.13,79.456,39.649,76.66,47.68l0.231-0.558    L9.286,187.837l-0.099,0.284c-3.059,8.786,4.296,17.598,16.392,19.642l144.797,24.477c12.096,2.044,24.426-3.439,27.483-12.225    l55.469-159.341c3.059-8.786-4.295-17.598-16.391-19.643L236.5,40.957z"
       id="path158" />
    <linearGradient
       id="XMLID_1_"
       gradientUnits="userSpaceOnUse"
       x1="107.3862"
       y1="45.4961"
       x2="137.5273"
       y2="152.2042">
      <stop
         offset="0"
         style="stop-color:#E6E9F3"
         id="stop160" />
      <stop
         offset="1"
         style="stop-color:#FFFFFF"
         id="stop161" />
    </linearGradient>
    <path
       fill="url(#XMLID_1_)"
       stroke="none"
       d="M16.047,188.436c-1.838,5.282,2.565,10.556,9.835,11.786l144.796,24.476    c7.271,1.229,14.653-2.054,16.491-7.336l55.468-159.338c1.839-5.281-2.565-10.558-9.834-11.787L109.088,34.604    c-7.27-1.229-23.73,8.113-25.568,13.393L16.047,188.436z"
       id="path165" />
    <path
       fill="none"
       stroke="none"
       d="M18.326,191.784L85.797,51.345c1.838-5.281,18.3-14.623,25.569-13.393L238.015,48.06    c-1.484-0.85-3.238-1.49-5.211-1.824L109.088,34.604c-7.27-1.229-23.73,8.113-25.568,13.393L16.047,188.436    c-1.048,3.011-0.062,6.021,2.325,8.279C17.795,195.158,17.738,193.474,18.326,191.784z"
       id="path166" />
    <g
       id="g167" />
    <linearGradient
       id="XMLID_2_"
       gradientUnits="userSpaceOnUse"
       x1="112.8877"
       y1="174.9316"
       x2="174.3884"
       y2="22.4301">
      <stop
         offset="0"
         style="stop-color:#FEBF2D"
         id="stop169" />
      <stop
         offset="1"
         style="stop-color:#FFF2C7"
         id="stop170" />
    </linearGradient>
    <path
       opacity="0.7"
       fill="url(#XMLID_2_)"
       stroke="none"
       d="M16.047,188.436c-1.838,5.282,2.565,10.556,9.835,11.786    l144.796,24.476c7.271,1.229,14.653-2.054,16.491-7.336l55.468-159.338c1.839-5.281-2.565-10.558-9.834-11.787L109.088,34.604    c-7.27-1.229-23.73,8.113-25.568,13.393L16.047,188.436z"
       id="path174" />
    <path
       fill="#FFFFFF"
       stroke="none"
       adobe-blending-mode="screen"
       d="M17.261,193.436L84.733,52.996    c1.838-5.28,18.299-14.622,25.568-13.393l82.363,3.745l-82.363-7.745c-7.27-1.229-23.73,8.113-25.568,13.393L17.261,189.436    c-0.523,1.505-0.525,3.005-0.114,4.415C17.187,193.712,17.213,193.574,17.261,193.436z"
       id="path175" />
    <path
       fill="#FFA600"
       stroke="none"
       d="M181.202,211.416c-1.839,5.28-9.221,8.564-16.491,7.335L67.354,207.23l103.325,17.467    c7.271,1.229,14.653-2.054,16.491-7.336l50.367-144.687L181.202,211.416z"
       id="path176" />
    <g
       id="g177">
      <path
         opacity="0.2"
         stroke="none"
         adobe-blending-mode="multiply"
         d="M212.401,42.245l-81.996-8.121l0.585,0.081     c-8.858-1.578-22.301,7.131-24.147,12.716l0.153-0.388L62.35,144.411l-0.065,0.198c-2.02,6.11,2.837,12.24,10.826,13.662     l95.625,17.024c7.988,1.423,16.131-2.392,18.15-8.503l36.632-110.834c2.021-6.11-2.837-12.24-10.825-13.663L212.401,42.245z"
         id="path178" />
      <path
         stroke="none"
         d="M209.401,38.245l-81.996-8.121l0.585,0.081c-8.858-1.578-22.301,7.131-24.147,12.716l0.153-0.388     L59.35,140.411l-0.065,0.198c-2.02,6.11,2.837,12.24,10.826,13.662l95.625,17.024c7.988,1.423,16.131-2.392,18.15-8.503     l36.632-110.834c2.021-6.11-2.837-12.24-10.825-13.663L209.401,38.245z"
         id="path179" />
      <linearGradient
         id="XMLID_3_"
         gradientUnits="userSpaceOnUse"
         x1="123.4219"
         y1="41.6123"
         x2="144.278"
         y2="115.4492">
        <stop
           offset="0"
           style="stop-color:#E6E9F3"
           id="stop181" />
        <stop
           offset="1"
           style="stop-color:#FFFFFF"
           id="stop182" />
      </linearGradient>
      <path
         fill="url(#XMLID_3_)"
         stroke="none"
         d="M63.814,140.828c-1.214,3.673,1.694,7.342,6.495,8.197l95.624,17.024     c4.802,0.854,9.677-1.428,10.892-5.102l36.631-110.832c1.214-3.673-1.694-7.344-6.494-8.199l-81.703-8.091     c-4.801-0.854-15.672,5.643-16.885,9.315L63.814,140.828z"
         id="path186" />
      <path
         fill="none"
         stroke="none"
         d="M65.319,143.157l44.559-97.687c1.214-3.673,12.086-10.171,16.886-9.316l83.64,7.031     c-0.981-0.591-2.141-1.036-3.441-1.269l-81.703-8.091c-4.801-0.854-15.672,5.643-16.885,9.315l-44.559,97.687     c-0.692,2.094-0.04,4.188,1.535,5.759C64.968,145.503,64.931,144.332,65.319,143.157z"
         id="path187" />
      <g
         id="g188" />
      <path
         fill="#CBD5E8"
         stroke="none"
         d="M172.883,156.812c-1.214,3.675-6.09,5.958-10.891,5.103l-64.295-8.013l68.236,12.148     c4.802,0.854,9.677-1.428,10.892-5.102l33.261-100.641L172.883,156.812z"
         id="path189" />
      <radialGradient
         id="XMLID_4_"
         cx="136.8174"
         cy="50.6001"
         r="5.2939"
         fx="136.8174"
         fy="50.6001"
         gradientTransform="matrix(0.8964 0.0346 -0.3107 1.1036 32.3881 -10.5311)"
         gradientUnits="userSpaceOnUse">
        <stop
           offset="0.8595"
           style="stop-color:#C2C2C2"
           id="stop191" />
        <stop
           offset="1"
           style="stop-color:#000000"
           id="stop192" />
      </radialGradient>
      <path
         fill="url(#XMLID_4_)"
         stroke="none"
         d="M134.035,48.534c-0.895,2.928,0.471,5.377,3.047,5.469     c2.575,0.093,5.387-2.209,6.281-5.138c0.893-2.929-0.474-5.377-3.048-5.47C137.738,43.304,134.927,45.604,134.035,48.534z"
         id="path196" />
      <radialGradient
         id="XMLID_5_"
         cx="179.5957"
         cy="53.6611"
         r="5.772"
         fx="179.5957"
         fy="53.6611"
         gradientTransform="matrix(0.8964 0.0346 -0.3107 1.1036 32.3881 -10.5311)"
         gradientUnits="userSpaceOnUse">
        <stop
           offset="0.8595"
           style="stop-color:#C2C2C2"
           id="stop198" />
        <stop
           offset="1"
           style="stop-color:#000000"
           id="stop199" />
      </radialGradient>
      <path
         fill="url(#XMLID_5_)"
         stroke="none"
         d="M170.954,53.255c-0.974,3.193,0.513,5.864,3.322,5.964     c2.809,0.102,5.876-2.408,6.849-5.602c0.974-3.194-0.515-5.864-3.322-5.964C174.994,47.553,171.928,50.061,170.954,53.255z"
         id="path203" />
      <path
         stroke="none"
         d="M135.813,42.697c0-8.425,5.234-15.255,11.691-15.255c2.664,0,4.676,5.139,6.641,7.095     c-1.852-5.235-3.271-13.126-9.238-12.771c-6.059,0.361-10.983,7.466-10.983,16.674c0,5.036,1.472,9.545,3.796,12.604     C136.516,48.644,135.813,45.778,135.813,42.697z"
         id="path204" />
      <path
         stroke="none"
         d="M172.708,46.245c0-8.425,5.235-15.254,11.691-15.254c2.664,0,4.676,5.138,6.641,7.095     c-1.852-5.235-3.27-13.126-9.238-12.772c-6.059,0.36-10.983,7.465-10.983,16.674c0,5.035,1.473,9.544,3.797,12.602     C173.41,52.191,172.708,49.326,172.708,46.245z"
         id="path205" />
    </g>
  </g>
</svg>
