<?xml version="1.0" encoding="UTF-8" standalone="no"?>
<!DOCTYPE svg PUBLIC "-//W3C//DTD SVG 20010904//EN"
"http://www.w3.org/TR/2001/REC-SVG-20010904/DTD/svg10.dtd">
<!-- Created with Sodipodi ("http://www.sodipodi.com/") -->
<svg
   width="48pt"
   height="48pt"
   viewBox="0 0 256 256"
   overflow="visible"
   enable-background="new 0 0 256 256"
   xml:space="preserve"
   xmlns="http://www.w3.org/2000/svg"
   xmlns:xml="http://www.w3.org/XML/1998/namespace"
   xmlns:sodipodi="http://sodipodi.sourceforge.net/DTD/sodipodi-0.dtd"
   xmlns:xlink="http://www.w3.org/1999/xlink"
   id="svg153"
   sodipodi:version="0.32pre"
   sodipodi:docname="/home/cschalle/gnome-themes-extras/Lush/icons/scalable/stock/editcopy.svgz"
   sodipodi:docbase="/home/cschalle/gnome-themes-extras/Lush/icons/scalable/stock/">
  <defs
     id="defs215" />
  <sodipodi:namedview
     id="base" />
  <g
     id="Layer_2"
     stroke="#000000">
    <path
       fill="none"
       stroke="none"
       d="M256,256H0V0h256V256z"
       id="path155" />
  </g>
  <g
     id="Layer_1"
     stroke="#000000">
    <g
       id="g157">
      <path
         opacity="0.2"
         stroke="none"
         d="M240.12,51.797l-0.408-0.072L124.179,40.282c-12.212-1.557-29.905,9.821-33.043,17.533     L78.639,85.212l-1.862-0.185c-9.47-1.212-23.195,7.614-25.626,13.595L2.382,205.536l-0.071,0.216     c-2.207,6.678,3.1,13.375,11.829,14.929l104.489,18.604c7.81,1.391,15.738-1.806,18.905-7.275l40.634,7.234     c11.258,2.004,22.734-3.372,25.58-11.984l51.628-156.205C258.223,62.441,251.378,53.802,240.12,51.797z"
         id="path158" />
      <path
         stroke="none"
         d="M237.712,44.725L122.149,33.279l0.824,0.114c-12.484-2.223-31.43,10.05-34.033,17.923l0.215-0.547     L26.233,188.715l-0.092,0.278c-2.847,8.613,3.999,17.251,15.257,19.255l134.77,23.995c11.258,2.004,22.734-3.372,25.58-11.984     l51.628-156.205c2.847-8.613-3.998-17.251-15.256-19.256L237.712,44.725z"
         id="path159" />
      <linearGradient
         id="XMLID_1_"
         gradientUnits="userSpaceOnUse"
         x1="116.5342"
         y1="49.4717"
         x2="145.9278"
         y2="153.5337">
        <stop
           offset="0"
           style="stop-color:#E6E9F3"
           id="stop161" />
        <stop
           offset="1"
           style="stop-color:#FFFFFF"
           id="stop162" />
      </linearGradient>
      <path
         fill="url(#XMLID_1_)"
         stroke="none"
         d="M32.526,189.302c-1.711,5.178,2.388,10.348,9.154,11.554l134.769,23.994     c6.767,1.204,13.638-2.014,15.349-7.191l51.627-156.203c1.711-5.177-2.388-10.35-9.153-11.555L119.123,38.497     c-6.766-1.205-22.087,7.953-23.797,13.129L32.526,189.302z"
         id="path166" />
      <path
         fill="none"
         stroke="none"
         d="M34.646,192.584L97.446,54.909c1.711-5.177,17.033-14.334,23.798-13.129l117.878,9.91     c-1.382-0.833-3.015-1.461-4.851-1.788L119.123,38.497c-6.766-1.205-22.087,7.953-23.797,13.129l-62.8,137.676     c-0.975,2.951-0.057,5.901,2.164,8.116C34.152,195.892,34.099,194.24,34.646,192.584z"
         id="path167" />
      <g
         id="g168" />
      <path
         fill="#B3C1DD"
         stroke="none"
         d="M186.243,211.829c-1.711,5.177-8.582,8.396-15.349,7.191l-90.616-11.294l96.17,17.123     c6.767,1.204,13.638-2.014,15.349-7.191l46.879-141.839L186.243,211.829z"
         id="path169" />
      <radialGradient
         id="XMLID_2_"
         cx="139.9082"
         cy="60.7524"
         r="7.46"
         fx="139.9082"
         fy="60.7524"
         gradientTransform="matrix(0.8964 0.0346 -0.3107 1.1036 32.3881 -10.5311)"
         gradientUnits="userSpaceOnUse">
        <stop
           offset="0.8595"
           style="stop-color:#C2C2C2"
           id="stop171" />
        <stop
           offset="1"
           style="stop-color:#000000"
           id="stop172" />
      </radialGradient>
      <path
         fill="url(#XMLID_2_)"
         stroke="none"
         d="M131.492,59.226c-1.26,4.127,0.662,7.579,4.293,7.708s7.594-3.113,8.853-7.241     c1.259-4.128-0.665-7.579-4.294-7.708C136.713,51.855,132.75,55.097,131.492,59.226z"
         id="path176" />
      <radialGradient
         id="XMLID_3_"
         cx="200.2012"
         cy="65.0664"
         r="8.1337"
         fx="200.2012"
         fy="65.0664"
         gradientTransform="matrix(0.8964 0.0346 -0.3107 1.1036 32.3881 -10.5311)"
         gradientUnits="userSpaceOnUse">
        <stop
           offset="0.8595"
           style="stop-color:#C2C2C2"
           id="stop178" />
        <stop
           offset="1"
           style="stop-color:#000000"
           id="stop179" />
      </radialGradient>
      <path
         fill="url(#XMLID_3_)"
         stroke="none"
         d="M183.525,65.88c-1.373,4.5,0.723,8.264,4.682,8.405     c3.958,0.142,8.28-3.395,9.652-7.896c1.372-4.501-0.726-8.264-4.683-8.405C189.218,57.843,184.896,61.378,183.525,65.88z"
         id="path183" />
      <path
         stroke="none"
         d="M133.997,51c0-11.875,7.378-21.5,16.478-21.5c3.754,0,6.589,7.242,9.359,10     c-2.61-7.379-4.61-18.5-13.021-18c-8.538,0.508-15.479,10.521-15.479,23.5c0,7.096,2.074,13.452,5.35,17.761     C134.986,59.381,133.997,55.342,133.997,51z"
         id="path184" />
      <path
         stroke="none"
         d="M185.997,56c0-11.875,7.378-21.5,16.478-21.5c3.754,0,6.589,7.242,9.359,10     c-2.61-7.379-4.61-18.5-13.021-18c-8.538,0.508-15.479,10.521-15.479,23.5c0,7.096,2.074,13.452,5.35,17.761     C186.986,64.381,185.997,60.342,185.997,56z"
         id="path185" />
    </g>
    <g
       id="g186">
      <path
         stroke="none"
         d="M167.345,86.898l-89.598-8.874l0.64,0.088C68.707,76.389,54.018,85.905,52,92.008l0.167-0.424     L3.382,198.536l-0.071,0.216c-2.207,6.678,3.1,13.375,11.829,14.929l104.489,18.604c8.729,1.555,17.627-2.613,19.833-9.292     l40.028-121.108c2.208-6.677-3.1-13.375-11.829-14.93L167.345,86.898z"
         id="path187" />
      <linearGradient
         id="XMLID_4_"
         gradientUnits="userSpaceOnUse"
         x1="73.394"
         y1="90.5771"
         x2="96.1838"
         y2="171.2595">
        <stop
           offset="0"
           style="stop-color:#E6E9F3"
           id="stop189" />
        <stop
           offset="1"
           style="stop-color:#FFFFFF"
           id="stop190" />
      </linearGradient>
      <path
         fill="url(#XMLID_4_)"
         stroke="none"
         d="M8.261,198.991c-1.327,4.014,1.851,8.022,7.097,8.957l104.489,18.604     c5.247,0.934,10.574-1.561,11.901-5.575L171.775,99.87c1.326-4.014-1.852-8.025-7.097-8.958L75.401,82.07     c-5.246-0.934-17.125,6.166-18.451,10.179L8.261,198.991z"
         id="path194" />
      <path
         fill="none"
         stroke="none"
         d="M9.905,201.536L58.594,94.794C59.921,90.78,71.8,83.68,77.046,84.614l91.394,7.683     c-1.072-0.646-2.339-1.132-3.761-1.386L75.401,82.07c-5.246-0.934-17.125,6.166-18.451,10.179L8.261,198.991     c-0.756,2.288-0.044,4.576,1.678,6.293C9.521,204.1,9.48,202.82,9.905,201.536z"
         id="path195" />
      <g
         id="g196" />
      <path
         fill="#CBD5E8"
         stroke="none"
         d="M127.441,216.457c-1.327,4.015-6.654,6.51-11.9,5.575l-70.256-8.756l74.563,13.275     c5.247,0.934,10.574-1.561,11.901-5.575l36.345-109.971L127.441,216.457z"
         id="path197" />
      <radialGradient
         id="XMLID_5_"
         cx="98.6895"
         cy="96.8726"
         r="5.7844"
         fx="98.6895"
         fy="96.8726"
         gradientTransform="matrix(0.8964 0.0346 -0.3107 1.1036 32.3881 -10.5311)"
         gradientUnits="userSpaceOnUse">
        <stop
           offset="0.8595"
           style="stop-color:#C2C2C2"
           id="stop199" />
        <stop
           offset="1"
           style="stop-color:#000000"
           id="stop200" />
      </radialGradient>
      <path
         fill="url(#XMLID_5_)"
         stroke="none"
         d="M84.991,98.141c-0.977,3.2,0.515,5.876,3.33,5.977     c2.814,0.101,5.887-2.414,6.863-5.614c0.976-3.201-0.517-5.876-3.33-5.977C89.038,92.426,85.966,94.939,84.991,98.141z"
         id="path204" />
      <radialGradient
         id="XMLID_6_"
         cx="145.4346"
         cy="100.2173"
         r="6.3073"
         fx="145.4346"
         fy="100.2173"
         gradientTransform="matrix(0.8964 0.0346 -0.3107 1.1036 32.3881 -10.5311)"
         gradientUnits="userSpaceOnUse">
        <stop
           offset="0.8595"
           style="stop-color:#C2C2C2"
           id="stop206" />
        <stop
           offset="1"
           style="stop-color:#000000"
           id="stop207" />
      </radialGradient>
      <path
         fill="url(#XMLID_6_)"
         stroke="none"
         d="M125.333,103.3c-1.065,3.489,0.56,6.407,3.63,6.517     c3.069,0.11,6.42-2.632,7.484-6.122s-0.563-6.407-3.631-6.517C129.747,97.069,126.396,99.81,125.333,103.3z"
         id="path211" />
      <path
         stroke="none"
         d="M86.933,91.763c0-9.207,5.72-16.669,12.775-16.669c2.911,0,5.109,5.615,7.256,7.752     c-2.023-5.72-3.574-14.343-10.095-13.956c-6.62,0.394-12.001,8.158-12.001,18.22c0,5.502,1.608,10.43,4.147,13.771     C87.701,98.261,86.933,95.13,86.933,91.763z"
         id="path212" />
      <path
         stroke="none"
         d="M127.25,95.64c0-9.207,5.72-16.669,12.774-16.669c2.911,0,5.109,5.615,7.257,7.752     c-2.023-5.721-3.573-14.343-10.095-13.956c-6.62,0.394-12.001,8.157-12.001,18.22c0,5.501,1.608,10.43,4.148,13.771     C128.017,102.138,127.25,99.006,127.25,95.64z"
         id="path213" />
    </g>
  </g>
</svg>
