<?xml version="1.0" encoding="UTF-8" standalone="no"?>
<!DOCTYPE svg PUBLIC "-//W3C//DTD SVG 20010904//EN"
"http://www.w3.org/TR/2001/REC-SVG-20010904/DTD/svg10.dtd">
<!-- Created with Sodipodi ("http://www.sodipodi.com/") -->
<svg
   width="48pt"
   height="48pt"
   viewBox="0 0 256 256"
   overflow="visible"
   enable-background="new 0 0 256 256"
   xml:space="preserve"
   xmlns="http://www.w3.org/2000/svg"
   xmlns:xml="http://www.w3.org/XML/1998/namespace"
   xmlns:sodipodi="http://sodipodi.sourceforge.net/DTD/sodipodi-0.dtd"
   xmlns:xlink="http://www.w3.org/1999/xlink"
   id="svg153"
   sodipodi:version="0.32pre"
   sodipodi:docname="/home/cschalle/gnome-themes-extras/Lush/icons/scalable/stock/edittrash.svgz"
   sodipodi:docbase="/home/cschalle/gnome-themes-extras/Lush/icons/scalable/stock/">
  <defs
     id="defs217" />
  <sodipodi:namedview
     id="base" />
  <g
     id="Layer_2"
     stroke="#000000">
    <path
       opacity="0.36"
       fill="none"
       stroke="none"
       d="M256,256H0V0h256V256z"
       id="path155" />
  </g>
  <g
     id="Layer_1"
     stroke="#000000" />
  <g
     id="Layer_3"
     stroke="#000000">
    <path
       fill="#005A55"
       stroke="none"
       d="M40.813,63.675c0,0,1.413,148.141,2.286,148.141c9.079,24.189,45.58,41.621,89.927,41.621    c51.709,0,92.214-23.455,92.214-53.399c0-1.521,0-135,0-136.363c0-29.944-40.505-53.401-92.214-53.401    C81.319,10.274,40.813,33.731,40.813,63.675z M133.026,36.77c32.935,0,54.193,10.691,62.096,19.753c-18.807,0-105.38,0-124.188,0    C78.835,47.461,100.094,36.77,133.026,36.77z"
       id="path158" />
    <linearGradient
       id="XMLID_1_"
       gradientUnits="userSpaceOnUse"
       x1="66.8125"
       y1="65.7788"
       x2="202.9854"
       y2="201.9517">
      <stop
         offset="0"
         style="stop-color:#FFFFFF"
         id="stop160" />
      <stop
         offset="1"
         style="stop-color:#A3DAAF"
         id="stop161" />
    </linearGradient>
    <path
       fill="url(#XMLID_1_)"
       stroke="none"
       d="M215.994,67.842c0.241-1.373,0.377-2.761,0.377-4.167    c0-24.615-37.315-44.57-83.345-44.57c-46.028,0-83.342,19.955-83.342,44.57c0,0.565,0.04,1.122,0.08,1.68h-0.08v137.627h0.202    c2.838,23.238,38.965,41.624,83.14,41.624c46.029,0,83.345-19.956,83.345-44.568c0-1.406-0.136-2.795-0.377-4.166V67.842z     M58.554,63.675c0-16.904,30.585-35.737,74.472-35.737c43.89,0,74.477,18.833,74.477,35.737c0,0.558-0.039,1.118-0.108,1.68    H58.658C58.592,64.793,58.554,64.233,58.554,63.675z"
       id="path165" />
    <linearGradient
       id="XMLID_2_"
       gradientUnits="userSpaceOnUse"
       x1="49.6841"
       y1="154.9805"
       x2="216.3711"
       y2="154.9805">
      <stop
         offset="0"
         style="stop-color:#FFFFFF"
         id="stop167" />
      <stop
         offset="1"
         style="stop-color:#A3DAAF"
         id="stop168" />
    </linearGradient>
    <path
       fill="url(#XMLID_2_)"
       stroke="none"
       d="M215.994,195.872V65.355H49.684v137.627h0.202    c2.838,23.238,38.965,41.624,83.14,41.624c46.029,0,83.345-19.956,83.345-44.568C216.371,198.632,216.235,197.243,215.994,195.872    z"
       id="path172" />
    <linearGradient
       id="XMLID_3_"
       gradientUnits="userSpaceOnUse"
       x1="49.6841"
       y1="154.9805"
       x2="216.3711"
       y2="154.9805">
      <stop
         offset="0"
         style="stop-color:#FFFFFF"
         id="stop174" />
      <stop
         offset="0.0562"
         style="stop-color:#B0E0C1"
         id="stop175" />
      <stop
         offset="0.6966"
         style="stop-color:#87CFA3"
         id="stop176" />
      <stop
         offset="1"
         style="stop-color:#2BA475"
         id="stop177" />
    </linearGradient>
    <path
       fill="url(#XMLID_3_)"
       stroke="none"
       d="M215.994,195.872V65.355H49.684v137.627h0.202    c2.838,23.238,38.965,41.624,83.14,41.624c46.029,0,83.345-19.956,83.345-44.568C216.371,198.632,216.235,197.243,215.994,195.872    z"
       id="path185" />
    <linearGradient
       id="XMLID_4_"
       gradientUnits="userSpaceOnUse"
       x1="159.6768"
       y1="85.1992"
       x2="72.0759"
       y2="14.445">
      <stop
         offset="0"
         style="stop-color:#71C6AD"
         id="stop187" />
      <stop
         offset="1"
         style="stop-color:#017F71"
         id="stop188" />
    </linearGradient>
    <path
       fill="url(#XMLID_4_)"
       stroke="none"
       d="M58.554,63.675c0,16.905,30.585,35.739,74.472,35.739    c43.89,0,74.477-18.833,74.477-35.739c0-16.904-30.587-35.737-74.477-35.737C89.14,27.938,58.554,46.771,58.554,63.675z"
       id="path192" />
    <linearGradient
       id="XMLID_5_"
       gradientUnits="userSpaceOnUse"
       x1="174.3916"
       y1="204.2168"
       x2="38.4167"
       y2="204.2168">
      <stop
         offset="0"
         style="stop-color:#1B9F80"
         id="stop194" />
      <stop
         offset="1"
         style="stop-color:#017660"
         id="stop195" />
    </linearGradient>
    <path
       opacity="0.67"
       fill="url(#XMLID_5_)"
       stroke="none"
       d="M58.554,204.217c0,16.904,30.585,35.738,74.472,35.738    c43.89,0,74.477-18.834,74.477-35.738s-30.587-35.738-74.477-35.738C89.14,168.479,58.554,187.313,58.554,204.217z"
       id="path199" />
    <path
       fill="#FFFFFF"
       stroke="none"
       d="M135.063,99.939l2.9-0.51C137.963,99.429,136.883,99.493,135.063,99.939z M135.063,99.939    l-15.947,2.802h-10.533c0,0-27.719-17.111-32.154-6.071c-7.301,19.869-3.492,112.475-2.453,134.796    c5.758,3.098,12.359,5.741,19.607,7.826c-0.271-7.491-0.625-16.666-1.077-27.806C88.721,118.235,124.479,102.54,135.063,99.939z"
       id="path200" />
    <path
       opacity="0.8"
       fill="#FFFFFF"
       stroke="none"
       d="M62.57,81.214c0,0-3.711,115.448-2.646,140.211    c1.789,1.743,3.78,3.422,5.976,5.015c0.031-19.567,0.405-138.974,4.985-136.945C75.874,91.701,62.57,81.214,62.57,81.214z"
       id="path201" />
    <linearGradient
       id="XMLID_6_"
       gradientUnits="userSpaceOnUse"
       x1="92.4146"
       y1="23.063"
       x2="177.5665"
       y2="108.2149">
      <stop
         offset="0"
         style="stop-color:#C2E7CD"
         id="stop203" />
      <stop
         offset="1"
         style="stop-color:#91D3AE"
         id="stop204" />
    </linearGradient>
    <path
       fill="url(#XMLID_6_)"
       stroke="none"
       d="M133.026,19.105c-46.028,0-83.342,19.955-83.342,44.57    c0,24.617,37.314,44.572,83.342,44.572c46.029,0,83.345-19.955,83.345-44.572C216.371,39.06,179.056,19.105,133.026,19.105z     M133.026,99.414c-43.887,0-74.472-18.833-74.472-35.739c0-16.904,30.585-35.737,74.472-35.737    c43.89,0,74.477,18.833,74.477,35.737C207.503,80.581,176.916,99.414,133.026,99.414z"
       id="path208" />
    <linearGradient
       id="XMLID_7_"
       gradientUnits="userSpaceOnUse"
       x1="49.6841"
       y1="59.4238"
       x2="216.3711"
       y2="59.4238">
      <stop
         offset="0"
         style="stop-color:#C2E7CD"
         id="stop210" />
      <stop
         offset="1"
         style="stop-color:#009272"
         id="stop211" />
    </linearGradient>
    <path
       fill="url(#XMLID_7_)"
       stroke="none"
       d="M133.026,22.418c45.503,0,82.461,18.777,83.306,42.101    c0.008-0.28,0.039-0.562,0.039-0.844c0-24.615-37.315-44.57-83.345-44.57c-46.028,0-83.342,19.955-83.342,44.57    c0,0.283,0.031,0.564,0.04,0.844C50.569,41.195,87.528,22.418,133.026,22.418z M207.503,65.332c0-0.271-0.03-0.542-0.049-0.813    c-0.993,16.681-31.264,34.895-74.428,34.895c-43.159,0-73.432-18.213-74.425-34.895c-0.018,0.271-0.047,0.542-0.047,0.813    c0,16.275,30.585,34.41,74.472,34.41C176.916,99.742,207.503,81.607,207.503,65.332z"
       id="path215" />
  </g>
</svg>
