<?xml version="1.0" encoding="UTF-8" standalone="no"?>
<!DOCTYPE svg PUBLIC "-//W3C//DTD SVG 20010904//EN"
"http://www.w3.org/TR/2001/REC-SVG-20010904/DTD/svg10.dtd">
<!-- Created with Sodipodi ("http://www.sodipodi.com/") -->
<svg
   width="48pt"
   height="48pt"
   viewBox="0 0 256 256"
   overflow="visible"
   enable-background="new 0 0 256 256"
   xml:space="preserve"
   xmlns="http://www.w3.org/2000/svg"
   xmlns:xml="http://www.w3.org/XML/1998/namespace"
   xmlns:sodipodi="http://sodipodi.sourceforge.net/DTD/sodipodi-0.dtd"
   xmlns:xlink="http://www.w3.org/1999/xlink"
   id="svg153"
   sodipodi:version="0.32pre"
   sodipodi:docname="/home/cschalle/gnome-themes-extras/Lush/icons/scalable/stock/help.svgz"
   sodipodi:docbase="/home/cschalle/gnome-themes-extras/Lush/icons/scalable/stock/">
  <defs
     id="defs178" />
  <sodipodi:namedview
     id="base" />
  <g
     id="Layer_1"
     stroke="#000000">
    <path
       fill="none"
       stroke="none"
       d="M256,256H0V0h256V256z"
       id="path155" />
  </g>
  <g
     id="Layer_2"
     stroke="#000000">
    <path
       fill="#0066CC"
       stroke="none"
       d="M10.235,129.628c0,64.711,52.646,117.357,117.357,117.357S244.95,194.339,244.95,129.628    c0-64.711-52.646-117.358-117.357-117.358S10.235,64.917,10.235,129.628z"
       id="path157" />
    <linearGradient
       id="XMLID_1_"
       gradientUnits="userSpaceOnUse"
       x1="127.5923"
       y1="21.0103"
       x2="127.5923"
       y2="274.0162">
      <stop
         offset="0"
         style="stop-color:#3399FF"
         id="stop159" />
      <stop
         offset="1"
         style="stop-color:#0066CC"
         id="stop160" />
    </linearGradient>
    <path
       fill="url(#XMLID_1_)"
       stroke="none"
       d="M13.235,129.628c0,63.158,51.199,114.357,114.357,114.357    S241.95,192.786,241.95,129.628S190.751,15.27,127.593,15.27S13.235,66.47,13.235,129.628z"
       id="path164" />
    <path
       opacity="0.7"
       fill="#FFFFFF"
       stroke="none"
       d="M16.235,133.643c0-63.158,51.199-114.358,114.357-114.358    c36.628,0,69.23,17.222,90.16,44.007c-20.735-29.068-54.733-48.022-93.16-48.022c-63.158,0-114.357,51.2-114.357,114.358    c0,26.53,9.037,50.947,24.196,70.349C24.087,181.27,16.235,158.373,16.235,133.643z"
       id="path165" />
    <path
       fill="#0066CC"
       stroke="none"
       d="M38.235,129.628c0,49.271,40.086,89.357,89.357,89.357s89.357-40.086,89.357-89.357    c0-49.272-40.086-89.358-89.357-89.358S38.235,80.355,38.235,129.628z"
       id="path166" />
    <linearGradient
       id="XMLID_2_"
       gradientUnits="userSpaceOnUse"
       x1="41.2354"
       y1="129.627"
       x2="213.9502"
       y2="129.627">
      <stop
         offset="0"
         style="stop-color:#FFFFFF"
         id="stop168" />
      <stop
         offset="1"
         style="stop-color:#99CCFF"
         id="stop169" />
    </linearGradient>
    <path
       fill="url(#XMLID_2_)"
       stroke="none"
       d="M41.235,129.628c0,47.617,38.74,86.357,86.357,86.357    c47.617,0,86.357-38.74,86.357-86.357c0-47.618-38.74-86.358-86.357-86.358C79.975,43.27,41.235,82.01,41.235,129.628z"
       id="path173" />
    <path
       opacity="0.2"
       fill="#FFFFFF"
       stroke="none"
       d="M192.713,68.507c15.021,15.994,24.237,37.5,24.237,61.121    c0,49.271-40.086,89.357-89.357,89.357c-23.621,0-45.126-9.217-61.12-24.237c16.312,17.369,39.469,28.237,65.12,28.237    c49.271,0,89.357-40.086,89.357-89.357C220.95,107.977,210.082,84.818,192.713,68.507z"
       id="path174" />
    <path
       fill="#3399FF"
       stroke="none"
       d="M98.229,68.94C90.944,75.304,87.25,82.869,87.25,91.426c0,5.023,1.526,9.16,4.536,12.293    c3.042,3.172,6.851,4.781,11.32,4.781c4.046,0,7.49-1.367,10.235-4.063c2.76-2.711,4.16-6.108,4.16-10.098    c0-4.045-1.499-8.683-4.583-14.179c-1.417-2.511-1.47-3.357-1.472-3.392c0-0.541,0.577-1.307,1.582-2.092    c1.878-1.463,4.189-2.176,7.063-2.176c3.734,0,6.923,1.656,9.749,5.063c2.927,3.532,4.411,9.324,4.411,17.214    c0,5.292-0.513,9.759-1.523,13.277c-1.024,3.564-3.245,8.444-6.601,14.504c-3.646,6.588-5.856,11.679-6.755,15.566    c-0.892,3.855-1.258,9.394-1.12,16.932l0.054,2.944h9.502l0.187-2.801c0.426-6.394,1.557-11.116,3.36-14.037    c1.829-2.968,5.889-6.523,12.067-10.57c10.248-6.684,17.024-12.686,20.71-18.345c3.729-5.72,5.619-12.051,5.619-18.817    c0-9.379-3.661-17.483-10.881-24.088c-7.144-6.53-17.525-9.841-30.857-9.841C115.417,59.5,105.396,62.676,98.229,68.94z     M110.98,171.711c-3.636,3.623-5.48,8.078-5.48,13.242c0,5.158,1.84,9.626,5.47,13.278c3.633,3.661,8.102,5.519,13.28,5.519    c5.174,0,9.642-1.856,13.28-5.519c3.63-3.657,5.47-8.124,5.47-13.278c0-5.16-1.844-9.615-5.479-13.241    c-3.638-3.625-8.103-5.462-13.271-5.462C119.078,166.25,114.613,168.088,110.98,171.711z"
       id="path175" />
    <path
       fill="#0066CC"
       stroke="none"
       d="M125,155h-3.75c-0.133-7.219,0.215-12.621,1.043-16.199s2.98-8.508,6.457-14.789    c3.477-6.277,5.766-11.32,6.859-15.129c1.094-3.805,1.641-8.508,1.641-14.105c0-8.652-1.703-15.027-5.102-19.129    c-3.398-4.098-7.418-6.148-12.059-6.148c-3.531,0-6.504,0.938-8.91,2.813c-1.824,1.426-2.734,2.914-2.734,4.465    c0,1.039,0.617,2.656,1.855,4.852c2.797,4.984,4.199,9.219,4.199,12.711c0,3.172-1.09,5.824-3.262,7.957    c-2.176,2.137-4.887,3.203-8.133,3.203c-3.637,0-6.688-1.285-9.156-3.859c-2.469-2.57-3.699-5.977-3.699-10.215    c0-7.688,3.316-14.43,9.953-20.227c6.633-5.797,15.902-8.699,27.809-8.699c12.617,0,22.23,3.02,28.832,9.055    c6.602,6.039,9.906,13.328,9.906,21.875c0,6.203-1.711,11.93-5.133,17.18c-3.422,5.254-10.035,11.078-19.84,17.473    c-6.578,4.309-10.906,8.145-12.977,11.504C126.727,142.945,125.461,148.086,125,155z M124.25,169.25    c4.367,0,8.086,1.531,11.152,4.586c3.063,3.055,4.598,6.762,4.598,11.117s-1.535,8.078-4.598,11.164    c-3.066,3.086-6.785,4.633-11.152,4.633c-4.371,0-8.09-1.547-11.152-4.633c-3.066-3.086-4.598-6.809-4.598-11.164    s1.531-8.063,4.598-11.117C116.16,170.781,119.879,169.25,124.25,169.25z"
       id="path176" />
  </g>
</svg>
