<?xml version="1.0" encoding="UTF-8" standalone="no"?>
<!DOCTYPE svg PUBLIC "-//W3C//DTD SVG 20010904//EN"
"http://www.w3.org/TR/2001/REC-SVG-20010904/DTD/svg10.dtd">
<!-- Created with Sodipodi ("http://www.sodipodi.com/") -->
<svg
   width="48pt"
   height="48pt"
   viewBox="0 0 256 256"
   overflow="visible"
   enable-background="new 0 0 256 256"
   xml:space="preserve"
   xmlns="http://www.w3.org/2000/svg"
   xmlns:xml="http://www.w3.org/XML/1998/namespace"
   xmlns:sodipodi="http://sodipodi.sourceforge.net/DTD/sodipodi-0.dtd"
   xmlns:xlink="http://www.w3.org/1999/xlink"
   id="svg153"
   sodipodi:version="0.32pre"
   sodipodi:docname="/home/cschalle/gnome-themes-extras/Lush/icons/scalable/stock/reload.svgz"
   sodipodi:docbase="/home/cschalle/gnome-themes-extras/Lush/icons/scalable/stock/">
  <defs
     id="defs198" />
  <sodipodi:namedview
     id="base" />
  <g
     id="Layer_1"
     stroke="#000000">
    <path
       fill="none"
       stroke="none"
       d="M256,256H0V0h256V256z"
       id="path155" />
  </g>
  <g
     id="Layer_2"
     stroke="#000000">
    <path
       fill="#157D53"
       stroke="none"
       d="M10.235,129.628c0,64.711,52.646,117.357,117.357,117.357S244.95,194.339,244.95,129.628    c0-64.711-52.646-117.358-117.357-117.358S10.235,64.917,10.235,129.628z"
       id="path157" />
    <linearGradient
       id="XMLID_1_"
       gradientUnits="userSpaceOnUse"
       x1="127.5923"
       y1="21.0103"
       x2="127.5923"
       y2="274.0162">
      <stop
         offset="0"
         style="stop-color:#33A76E"
         id="stop159" />
      <stop
         offset="1"
         style="stop-color:#008159"
         id="stop160" />
    </linearGradient>
    <path
       fill="url(#XMLID_1_)"
       stroke="none"
       d="M13.235,129.628c0,63.158,51.199,114.357,114.357,114.357    S241.95,192.786,241.95,129.628S190.751,15.27,127.593,15.27S13.235,66.47,13.235,129.628z"
       id="path164" />
    <path
       opacity="0.7"
       fill="#FFFFFF"
       stroke="none"
       d="M16.235,133.643c0-63.158,51.199-114.358,114.357-114.358    c36.628,0,69.23,17.222,90.16,44.007c-20.735-29.068-54.733-48.022-93.16-48.022c-63.158,0-114.357,51.2-114.357,114.358    c0,26.53,9.037,50.947,24.196,70.349C24.087,181.27,16.235,158.373,16.235,133.643z"
       id="path165" />
    <path
       fill="#008159"
       stroke="none"
       d="M38.235,129.628c0,49.271,40.086,89.357,89.357,89.357s89.357-40.086,89.357-89.357    c0-49.272-40.086-89.358-89.357-89.358S38.235,80.355,38.235,129.628z"
       id="path166" />
    <linearGradient
       id="XMLID_2_"
       gradientUnits="userSpaceOnUse"
       x1="41.2354"
       y1="129.627"
       x2="213.9502"
       y2="129.627">
      <stop
         offset="0"
         style="stop-color:#D9F0DF"
         id="stop168" />
      <stop
         offset="1"
         style="stop-color:#99D7B3"
         id="stop169" />
    </linearGradient>
    <path
       fill="url(#XMLID_2_)"
       stroke="none"
       d="M41.235,129.628c0,47.617,38.74,86.357,86.357,86.357    c47.617,0,86.357-38.74,86.357-86.357c0-47.618-38.74-86.358-86.357-86.358C79.975,43.27,41.235,82.01,41.235,129.628z"
       id="path173" />
    <path
       opacity="0.2"
       fill="#FFFFFF"
       stroke="none"
       d="M192.713,68.507c15.021,15.994,24.237,37.5,24.237,61.121    c0,49.271-40.086,89.357-89.357,89.357c-23.621,0-45.126-9.217-61.12-24.237c16.312,17.369,39.469,28.237,65.12,28.237    c49.271,0,89.357-40.086,89.357-89.357C220.95,107.977,210.082,84.818,192.713,68.507z"
       id="path174" />
    <path
       fill="#157D53"
       stroke="none"
       d="M88.898,95.973c-0.958-0.958-11.107-11.107-11.107-11.107l-28.724,72.643    c0,0,28.506-11.271,30.847-12.197C86.941,165.396,105.741,179,127.5,179c14.224,0,27.776-6.079,37.289-16.484    c2.943,2.944,11.595,11.596,11.595,11.596l28.724-72.643c0,0-23.132,9.147-29.539,11.681C168.982,92.478,149.656,78,127.5,78    C112.47,78,98.443,84.63,88.898,95.973z M127.5,98c13.845,0,25.852,9.457,29.403,22.53c-4.768,1.885-24.437,9.663-24.437,9.663    s14.165,14.165,18.153,18.154C144.851,155.075,136.469,159,127.5,159c-13.347,0-24.934-8.65-28.965-21.052    c5.21-2.061,23.174-9.165,23.174-9.165s-14.679-14.678-18.568-18.568C108.871,102.608,117.893,98,127.5,98z"
       id="path175" />
    <linearGradient
       id="XMLID_3_"
       gradientUnits="userSpaceOnUse"
       x1="119.5273"
       y1="112.0078"
       x2="193.2857"
       y2="264.576">
      <stop
         offset="0"
         style="stop-color:#33A76E"
         id="stop177" />
      <stop
         offset="1"
         style="stop-color:#008159"
         id="stop178" />
    </linearGradient>
    <path
       fill="url(#XMLID_3_)"
       stroke="none"
       d="M127.5,83C102.371,83,82,103.371,82,128.5s20.371,45.5,45.5,45.5    s45.5-20.371,45.5-45.5S152.629,83,127.5,83z M127.5,164c-19.575,0-35.5-15.925-35.5-35.5c0-19.575,15.925-35.5,35.5-35.5    c19.575,0,35.5,15.925,35.5,35.5C163,148.075,147.075,164,127.5,164z"
       id="path182" />
    <linearGradient
       id="XMLID_4_"
       gradientUnits="userSpaceOnUse"
       x1="161.1387"
       y1="121.2603"
       x2="197.3642"
       y2="196.1923"
       gradientTransform="matrix(0.7071 -0.7071 0.7071 0.7071 -42.7355 156.0762)">
      <stop
         offset="0"
         style="stop-color:#33A76E"
         id="stop184" />
      <stop
         offset="1"
         style="stop-color:#008159"
         id="stop185" />
    </linearGradient>
    <path
       fill="url(#XMLID_4_)"
       stroke="none"
       d="M196.214,110.362c-7.028,2.779-50.074,19.8-54.827,21.68    c3.57,3.571,29.577,29.577,33.147,33.148C176.414,160.437,193.436,117.39,196.214,110.362z"
       id="path189" />
    <linearGradient
       id="XMLID_5_"
       gradientUnits="userSpaceOnUse"
       x1="251.1387"
       y1="121.2593"
       x2="287.3642"
       y2="196.1913"
       gradientTransform="matrix(-0.7071 0.7071 -0.7071 -0.7071 360.548 39.2613)">
      <stop
         offset="0"
         style="stop-color:#33A76E"
         id="stop191" />
      <stop
         offset="1"
         style="stop-color:#008159"
         id="stop192" />
    </linearGradient>
    <path
       fill="url(#XMLID_5_)"
       stroke="none"
       d="M57.961,148.615c7.028-2.778,50.075-19.8,54.828-21.681    c-3.571-3.571-29.577-29.577-33.147-33.147C77.761,98.541,60.74,141.587,57.961,148.615z"
       id="path196" />
  </g>
</svg>
