<?xml version="1.0" encoding="UTF-8" standalone="no"?>
<!DOCTYPE svg PUBLIC "-//W3C//DTD SVG 20010904//EN"
"http://www.w3.org/TR/2001/REC-SVG-20010904/DTD/svg10.dtd">
<!-- Created with Sodipodi ("http://www.sodipodi.com/") -->
<svg
   xmlns="http://www.w3.org/2000/svg"
   xmlns:xlink="http://www.w3.org/1999/xlink"
   version="1"
   x="0.00000000"
   y="0.00000000"
   width="48pt"
   height="48pt"
   viewBox="0 0 119.862 144.729"
   id="svg548"
   xmlns:sodipodi="http://sodipodi.sourceforge.net/DTD/sodipodi-0.dtd"
   sodipodi:version="0.34"
   sodipodi:docname="/home/cschalle/Themes/gnome-themes-extras/Nuvola/icons/scalable/emblems/emblem-noread.svg"
   sodipodi:docbase="/home/cschalle/Themes/gnome-themes-extras/Nuvola/icons/scalable/emblems/">
  <sodipodi:namedview
     id="base" />
  <defs
     id="defs639" />
  <g
     style="font-size:12;stroke:#000000;"
     id="Layer_1">
    <g
       id="g550">
      <linearGradient
         x1="59.9320984"
         y1="2168.97168"
         x2="59.9319000"
         y2="-3248.82422"
         id="XMLID_1_"
         gradientUnits="userSpaceOnUse"
         spreadMethod="pad">
        <stop
           style="stop-color:#616161;stop-opacity:1;"
           offset="0.00000000"
           id="stop552" />
        <stop
           style="stop-color:#828282;stop-opacity:1;"
           offset="1.00000000"
           id="stop553" />
        <midPointStop
           offset="0"
           style="stop-color:#616161"
           id="midPointStop554" />
        <midPointStop
           offset="0.5"
           style="stop-color:#616161"
           id="midPointStop555" />
        <midPointStop
           offset="1"
           style="stop-color:#828282"
           id="midPointStop556" />
      </linearGradient>
      <path
         d="M 105.402 50.429 L 102.109 50.429 C 99.04 24.032 81.403 3.791 60.104 3.791 C 38.809 3.791 21.177 24.032 18.106 50.429 L 14.462 50.429 C 10.762 50.429 7.752 53.765 7.752 57.868 L 7.752 135.179 C 7.752 139.279 10.763 142.612 14.462 142.612 L 105.402 142.612 C 109.099 142.612 112.111 139.279 112.111 135.179 L 112.111 57.868 C 112.111 53.765 109.1 50.429 105.402 50.429 M 60.104 25.023 C 71.365 25.023 80.818 35.856 83.457 50.428 L 36.757 50.428 C 39.397 35.856 48.848 25.023 60.104 25.023 z "
         style="fill:url(#XMLID_1_);stroke:none;"
         id="path557" />
      <path
         d="M 14.211 58.645 C 14.211 90.982 34.798 117.293 60.105 117.293 C 85.415 117.293 106.006 90.982 106.006 58.645 C 106.006 26.31 85.414 0 60.104 0 C 34.798 0 14.211 26.31 14.211 58.645 z M 39.42 58.645 C 39.42 42.199 48.7 28.816 60.105 28.816 C 71.514 28.816 80.796 42.199 80.796 58.645 C 80.796 75.095 71.514 88.476 60.105 88.476 C 48.7 88.476 39.42 75.095 39.42 58.645 z "
         style="fill:#616161;stroke:none;"
         id="path558" />
      <path
         d="M 60.104 3.791 C 36.648 3.791 17.631 28.349 17.631 58.645 C 17.631 88.943 36.648 113.501 60.104 113.501 C 83.565 113.501 102.585 88.943 102.585 58.645 C 102.586 28.348 83.565 3.791 60.104 3.791 M 60.104 92.269 C 46.813 92.269 35.999 77.187 35.999 58.645 C 35.999 40.108 46.814 25.023 60.104 25.023 C 73.4 25.023 84.214 40.107 84.214 58.645 C 84.215 77.187 73.4 92.269 60.104 92.269 z "
         style="fill:#949494;stroke:none;"
         id="path559" />
      <path
         d="M 19.159 58.645 C 19.159 87.917 37.531 111.731 60.104 111.731 C 82.685 111.731 101.054 87.917 101.054 58.645 C 101.054 29.374 82.685 5.562 60.104 5.562 C 37.531 5.562 19.159 29.374 19.159 58.645 M 34.469 58.645 C 34.469 39.132 45.969 23.256 60.104 23.256 C 74.243 23.256 85.746 39.132 85.746 58.645 C 85.746 78.161 74.243 94.039 60.104 94.039 C 45.969 94.039 34.469 78.161 34.469 58.645 z "
         style="fill:#b1b1c5;stroke:none;"
         id="path560" />
      <linearGradient
         x1="60.1068993"
         y1="109.964798"
         x2="60.1068993"
         y2="7.33109999"
         id="XMLID_2_"
         gradientUnits="userSpaceOnUse"
         spreadMethod="pad">
        <stop
           style="stop-color:#828282;stop-opacity:1;"
           offset="0.00000000"
           id="stop562" />
        <stop
           style="stop-color:#dadada;stop-opacity:1;"
           offset="1.00000000"
           id="stop563" />
        <midPointStop
           offset="0"
           style="stop-color:#828282"
           id="midPointStop564" />
        <midPointStop
           offset="0.5"
           style="stop-color:#828282"
           id="midPointStop565" />
        <midPointStop
           offset="1"
           style="stop-color:#DADADA"
           id="midPointStop566" />
      </linearGradient>
      <path
         d="M 20.691 58.645 C 20.691 86.937 38.374 109.965 60.104 109.965 C 81.841 109.965 99.522 86.938 99.522 58.645 C 99.522 30.352 81.842 7.331 60.104 7.331 C 38.374 7.331 20.691 30.353 20.691 58.645 M 32.938 58.645 C 32.938 38.155 45.125 21.484 60.104 21.484 C 75.087 21.484 87.276 38.155 87.276 58.645 C 87.276 79.133 75.088 95.807 60.104 95.807 C 45.125 95.807 32.938 79.133 32.938 58.645 z "
         style="fill:url(#XMLID_2_);stroke:none;"
         id="path567" />
      <g
         style="opacity:0.5;"
         id="g568">
        <path
           d="M 37.517 100.658 C 43.918 106.51 51.708 109.965 60.105 109.965 C 68.506 109.965 76.295 106.514 82.7 100.661 C 89.046 92.109 93.014 80.008 93.014 66.611 C 93.014 40.753 78.252 19.715 60.105 19.715 C 41.962 19.715 27.197 40.752 27.197 66.611 C 27.197 80.008 31.168 92.104 37.517 100.658 M 60.104 21.484 C 75.087 21.484 87.276 38.155 87.276 58.645 C 87.276 59.247 87.231 59.827 87.212 60.415 C 87.232 61.005 87.276 61.587 87.276 62.186 C 87.276 76.997 80.894 89.776 71.701 95.741 C 68.306 98.786 64.347 100.566 60.104 100.566 C 55.866 100.566 51.907 98.786 48.514 95.741 C 39.321 89.776 32.938 76.997 32.938 62.186 C 32.938 61.586 32.983 61.005 33.005 60.415 C 32.984 59.827 32.938 59.247 32.938 58.645 C 32.938 38.155 45.125 21.484 60.104 21.484 z "
           style="fill:#ffffff;stroke:none;"
           id="path569" />
      </g>
      <g
         style="opacity:0.5;"
         id="g570">
        <path
           d="M 93.014 63.07 C 93.014 37.214 78.252 16.176 60.105 16.176 C 41.962 16.176 27.197 37.213 27.197 63.07 C 27.197 88.925 41.962 109.965 60.105 109.965 C 78.252 109.965 93.014 88.926 93.014 63.07 M 60.104 97.03 C 55.866 97.03 51.907 95.245 48.514 92.206 C 39.321 86.235 32.938 73.456 32.938 58.645 C 32.938 38.155 45.125 21.484 60.104 21.484 C 75.087 21.484 87.276 38.155 87.276 58.645 C 87.276 73.456 80.894 86.235 71.701 92.206 C 68.307 95.245 64.348 97.03 60.104 97.03 z "
           style="fill:#ffffff;stroke:none;"
           id="path571" />
      </g>
      <linearGradient
         x1="59.9315987"
         y1="1487.16309"
         x2="59.9314995"
         y2="-2107.71387"
         id="XMLID_3_"
         gradientUnits="userSpaceOnUse"
         spreadMethod="pad">
        <stop
           style="stop-color:#616161;stop-opacity:1;"
           offset="0.00000000"
           id="stop573" />
        <stop
           style="stop-color:#828282;stop-opacity:1;"
           offset="1.00000000"
           id="stop574" />
        <midPointStop
           offset="0"
           style="stop-color:#616161"
           id="midPointStop575" />
        <midPointStop
           offset="0.5"
           style="stop-color:#616161"
           id="midPointStop576" />
        <midPointStop
           offset="1"
           style="stop-color:#828282"
           id="midPointStop577" />
      </linearGradient>
      <path
         d="M 9.55 50.498 C 5.45 50.498 2.116 53.831 2.116 57.931 L 2.116 135.181 C 2.116 139.281 5.45 142.611 9.55 142.611 L 110.313 142.611 C 114.412 142.611 117.746 139.281 117.746 135.181 L 117.746 57.931 C 117.746 53.831 114.412 50.498 110.313 50.498 L 9.55 50.498 L 9.55 50.498 z "
         style="fill:url(#XMLID_3_);stroke:none;"
         id="path578" />
      <linearGradient
         x1="59.9311981"
         y1="1487.20117"
         x2="59.9309998"
         y2="-2107.78149"
         id="XMLID_4_"
         gradientUnits="userSpaceOnUse"
         spreadMethod="pad">
        <stop
           style="stop-color:#824f26;stop-opacity:1;"
           offset="0.00000000"
           id="stop580" />
        <stop
           style="stop-color:#a87d28;stop-opacity:1;"
           offset="1.00000000"
           id="stop581" />
        <midPointStop
           offset="0"
           style="stop-color:#824F26"
           id="midPointStop582" />
        <midPointStop
           offset="0.5"
           style="stop-color:#824F26"
           id="midPointStop583" />
        <midPointStop
           offset="1"
           style="stop-color:#A87D28"
           id="midPointStop584" />
      </linearGradient>
      <path
         d="M 9.55 48.381 C 4.285 48.381 0 52.666 0 57.931 L 0 135.181 C 0 140.445 4.286 144.728 9.55 144.728 L 110.313 144.728 C 115.579 144.728 119.862 140.445 119.862 135.181 L 119.862 57.931 C 119.862 52.665 115.579 48.381 110.313 48.381 L 9.55 48.381 L 9.55 48.381 z "
         style="fill:url(#XMLID_4_);stroke:none;"
         id="path585" />
      <linearGradient
         x1="59.9311981"
         y1="1487.18555"
         x2="59.9309998"
         y2="-2107.76343"
         id="XMLID_5_"
         gradientUnits="userSpaceOnUse"
         spreadMethod="pad">
        <stop
           style="stop-color:#a87d28;stop-opacity:1;"
           offset="0.00000000"
           id="stop587" />
        <stop
           style="stop-color:#d6a84a;stop-opacity:1;"
           offset="1.00000000"
           id="stop588" />
        <midPointStop
           offset="0"
           style="stop-color:#A87D28"
           id="midPointStop589" />
        <midPointStop
           offset="0.5"
           style="stop-color:#A87D28"
           id="midPointStop590" />
        <midPointStop
           offset="1"
           style="stop-color:#D6A84A"
           id="midPointStop591" />
      </linearGradient>
      <path
         d="M 116.073 135.182 C 116.073 138.365 113.498 140.94 110.313 140.94 L 9.55 140.94 C 6.368 140.94 3.789 138.365 3.789 135.182 L 3.789 57.932 C 3.789 54.75 6.368 52.171 9.55 52.171 L 110.313 52.171 C 113.498 52.171 116.073 54.75 116.073 57.932 L 116.073 135.182 L 116.073 135.182 z "
         style="fill:url(#XMLID_5_);stroke:none;"
         id="path592" />
      <linearGradient
         x1="59.9315987"
         y1="143.342804"
         x2="59.9315987"
         y2="20.5041008"
         id="XMLID_6_"
         gradientUnits="userSpaceOnUse"
         spreadMethod="pad">
        <stop
           style="stop-color:#a87d28;stop-opacity:1;"
           offset="0.00000000"
           id="stop594" />
        <stop
           style="stop-color:#d6a84a;stop-opacity:1;"
           offset="1.00000000"
           id="stop595" />
        <midPointStop
           offset="0"
           style="stop-color:#A87D28"
           id="midPointStop596" />
        <midPointStop
           offset="0.5"
           style="stop-color:#A87D28"
           id="midPointStop597" />
        <midPointStop
           offset="1"
           style="stop-color:#D6A84A"
           id="midPointStop598" />
      </linearGradient>
      <path
         d="M 9.55 53.132 C 6.901 53.132 4.751 55.282 4.751 57.931 L 4.751 135.181 C 4.751 137.827 6.9 139.981 9.55 139.981 L 110.313 139.981 C 112.961 139.981 115.111 137.827 115.111 135.181 L 115.111 57.931 C 115.111 55.282 112.962 53.132 110.313 53.132 L 9.55 53.132 L 9.55 53.132 z "
         style="fill:url(#XMLID_6_);stroke:none;"
         id="path599" />
      <linearGradient
         x1="59.9320984"
         y1="143.334000"
         x2="59.9320984"
         y2="20.5009003"
         id="XMLID_7_"
         gradientUnits="userSpaceOnUse"
         spreadMethod="pad">
        <stop
           style="stop-color:#ff9200;stop-opacity:1;"
           offset="0.00000000"
           id="stop601" />
        <stop
           style="stop-color:#fff030;stop-opacity:1;"
           offset="1.00000000"
           id="stop602" />
        <midPointStop
           offset="0"
           style="stop-color:#FF9200"
           id="midPointStop603" />
        <midPointStop
           offset="0.5"
           style="stop-color:#FF9200"
           id="midPointStop604" />
        <midPointStop
           offset="1"
           style="stop-color:#FFF030"
           id="midPointStop605" />
      </linearGradient>
      <path
         d="M 9.55 54.09 C 7.432 54.09 5.71 55.811 5.71 57.931 L 5.71 135.181 C 5.71 137.301 7.432 139.019 9.55 139.019 L 110.313 139.019 C 112.432 139.019 114.154 137.301 114.154 135.181 L 114.154 57.931 C 114.154 55.811 112.432 54.09 110.313 54.09 L 9.55 54.09 L 9.55 54.09 z "
         style="fill:url(#XMLID_7_);stroke:none;"
         id="path606" />
      <path
         d="M 9.55 54.09 C 7.432 54.09 5.71 55.811 5.71 57.931 L 5.71 135.181 C 5.71 137.301 7.432 139.019 9.55 139.019 L 110.313 139.019 C 112.432 139.019 114.154 137.301 114.154 135.181 L 114.154 57.931 C 114.154 55.811 112.432 54.09 110.313 54.09 L 9.55 54.09 L 9.55 54.09 z "
         style="opacity:0.5;fill:#ffffff;stroke:none;"
         id="path607" />
      <linearGradient
         x1="59.9301987"
         y1="55.5288010"
         x2="59.9301987"
         y2="135.667603"
         id="XMLID_8_"
         gradientUnits="userSpaceOnUse"
         spreadMethod="pad">
        <stop
           style="stop-color:#ffc957;stop-opacity:1;"
           offset="0.00000000"
           id="stop609" />
        <stop
           style="stop-color:#ffbd2f;stop-opacity:1;"
           offset="0.17120001"
           id="stop610" />
        <stop
           style="stop-color:#ffb20d;stop-opacity:1;"
           offset="0.34430000"
           id="stop611" />
        <stop
           style="stop-color:#ffae00;stop-opacity:1;"
           offset="0.43820000"
           id="stop612" />
        <stop
           style="stop-color:#fff030;stop-opacity:1;"
           offset="1.00000000"
           id="stop613" />
        <midPointStop
           offset="0"
           style="stop-color:#FFC957"
           id="midPointStop614" />
        <midPointStop
           offset="0.4299"
           style="stop-color:#FFC957"
           id="midPointStop615" />
        <midPointStop
           offset="0.4382"
           style="stop-color:#FFAE00"
           id="midPointStop616" />
        <midPointStop
           offset="0.5"
           style="stop-color:#FFAE00"
           id="midPointStop617" />
        <midPointStop
           offset="1"
           style="stop-color:#FFF030"
           id="midPointStop618" />
      </linearGradient>
      <path
         d="M 9.55 56.007 C 8.491 56.007 7.628 56.869 7.628 57.931 L 7.628 135.181 C 7.628 136.244 8.491 137.102 9.55 137.102 L 110.313 137.102 C 111.372 137.102 112.232 136.244 112.232 135.181 L 112.232 57.931 C 112.232 56.869 111.372 56.007 110.313 56.007 L 9.55 56.007 L 9.55 56.007 z "
         style="fill:url(#XMLID_8_);stroke:none;"
         id="path619" />
      <linearGradient
         x1="3.22560000"
         y1="46.4482002"
         x2="62.4692993"
         y2="105.691902"
         id="XMLID_9_"
         gradientUnits="userSpaceOnUse"
         spreadMethod="pad">
        <stop
           style="stop-color:#ffffff;stop-opacity:1;"
           offset="0.00000000"
           id="stop621" />
        <stop
           style="stop-color:#ffeabe;stop-opacity:1;"
           offset="0.32589999"
           id="stop622" />
        <stop
           style="stop-color:#ffd886;stop-opacity:1;"
           offset="0.64090002"
           id="stop623" />
        <stop
           style="stop-color:#ffcd64;stop-opacity:1;"
           offset="0.87419999"
           id="stop624" />
        <stop
           style="stop-color:#ffc957;stop-opacity:1;"
           offset="1.00000000"
           id="stop625" />
        <midPointStop
           offset="0"
           style="stop-color:#FFFFFF"
           id="midPointStop626" />
        <midPointStop
           offset="0.4299"
           style="stop-color:#FFFFFF"
           id="midPointStop627" />
        <midPointStop
           offset="1"
           style="stop-color:#FFC957"
           id="midPointStop628" />
      </linearGradient>
      <path
         d="M 9.395 113.67 C 13.813 114.721 18.454 115.29 23.241 115.29 C 52.783 115.29 76.732 93.918 76.732 67.552 C 76.732 64.199 76.34 60.932 75.606 57.776 C 47.805 57.776 11.325 57.776 9.396 57.776 C 9.395 59.855 9.395 92.401 9.395 113.67 z "
         style="opacity:0.8;fill:url(#XMLID_9_);stroke:none;"
         id="path629" />
      <linearGradient
         x1="59.9315987"
         y1="110.628899"
         x2="59.9315987"
         y2="63.3075981"
         id="XMLID_10_"
         gradientUnits="userSpaceOnUse"
         spreadMethod="pad">
        <stop
           style="stop-color:#ff9200;stop-opacity:1;"
           offset="0.00000000"
           id="stop631" />
        <stop
           style="stop-color:#ffffff;stop-opacity:1;"
           offset="1.00000000"
           id="stop632" />
        <midPointStop
           offset="0"
           style="stop-color:#FF9200"
           id="midPointStop633" />
        <midPointStop
           offset="0.5"
           style="stop-color:#FF9200"
           id="midPointStop634" />
        <midPointStop
           offset="1"
           style="stop-color:#FFFFFF"
           id="midPointStop635" />
      </linearGradient>
      <path
         d="M 43.994 79.243 C 43.994 83.673 45.901 87.772 49.066 90.759 C 48.036 93.985 42.723 110.629 42.723 110.629 L 77.141 110.629 C 77.141 110.629 71.825 93.984 70.797 90.759 C 73.96 87.773 75.869 83.673 75.869 79.243 C 75.869 70.456 68.718 63.307 59.931 63.307 C 51.144 63.307 43.994 70.456 43.994 79.243 z "
         style="fill:url(#XMLID_10_);stroke:none;"
         id="path636" />
      <path
         d="M 48.05 79.243 C 48.05 83.206 50.016 86.895 53.31 89.112 L 53.752 89.411 C 53.752 89.411 48.804 104.912 48.275 106.573 C 50 106.573 69.858 106.573 71.586 106.573 C 71.057 104.912 66.107 89.411 66.107 89.411 L 66.55 89.112 C 69.845 86.895 71.812 83.206 71.812 79.243 C 71.812 72.69 66.482 67.362 59.931 67.362 C 53.378 67.362 48.05 72.69 48.05 79.243 z "
         style="fill:#616161;stroke:none;"
         id="path637" />
    </g>
  </g>
</svg>
