<?xml version="1.0" encoding="UTF-8" standalone="no"?>
<!DOCTYPE svg PUBLIC "-//W3C//DTD SVG 20010904//EN"
"http://www.w3.org/TR/2001/REC-SVG-20010904/DTD/svg10.dtd">
<!-- Created with Sodipodi ("http://www.sodipodi.com/") -->
<svg
   xmlns="http://www.w3.org/2000/svg"
   xmlns:sodipodi="http://sodipodi.sourceforge.net/DTD/sodipodi-0.dtd"
   xmlns:xlink="http://www.w3.org/1999/xlink"
   width="48pt"
   height="48pt"
   viewBox="0 0 256 256"
   overflow="visible"
   enable-background="new 0 0 256 256"
   xml:space="preserve"
   id="svg153"
   sodipodi:version="0.34"
   sodipodi:docname="/home/cschalle/Themes/gnome-themes-extras/Nuvola/icons/scalable/emblems/emblem-documents.svg"
   sodipodi:docbase="/home/cschalle/Themes/gnome-themes-extras/Nuvola/icons/scalable/emblems/"><defs
   id="defs212" /><sodipodi:namedview
   id="base" /><g
   id="Layer_3"
   stroke="#000000"><g
   id="g155"><path
   opacity="0.2"
   stroke="none"
   d="M128.315,101.165c-5.521,0-10.014,4.492-10.014,10.014v117.808     c0,5.521,4.492,10.014,10.014,10.014h103.671c5.521,0,10.014-4.492,10.014-10.014V111.178c0-5.522-4.492-10.014-10.014-10.014     H128.315z"
   id="path156" /><linearGradient
   id="XMLID_1_"
   gradientUnits="userSpaceOnUse"
   x1="113"
   y1="166.5479"
   x2="236.6982"
   y2="166.5479"><stop
   offset="0"
   style="stop-color:#A7ABAC"
   id="stop158" /><stop
   offset="1"
   style="stop-color:#85898A"
   id="stop159" /></linearGradient><path
   fill="url(#XMLID_1_)"
   stroke="none"
   d="M123.014,97.63c-5.521,0-10.014,4.492-10.014,10.014v117.808     c0,5.521,4.492,10.014,10.014,10.014h103.671c5.522,0,10.014-4.492,10.014-10.014V107.644c0-5.522-4.491-10.014-10.014-10.014     H123.014z"
   id="path163" /><path
   fill="#99CCFF"
   stroke="none"
   d="M115.945,225.452c0,3.903,3.165,7.068,7.068,7.068h103.671     c3.904,0,7.069-3.165,7.069-7.068V107.644c0-3.904-3.165-7.069-7.069-7.069H123.014c-3.903,0-7.068,3.165-7.068,7.069V225.452z"
   id="path164" /><linearGradient
   id="XMLID_2_"
   gradientUnits="userSpaceOnUse"
   x1="149.2285"
   y1="140.9268"
   x2="288.83"
   y2="280.5282"><stop
   offset="0"
   style="stop-color:#FFFFFF"
   id="stop166" /><stop
   offset="1"
   style="stop-color:#99CCFF"
   id="stop167" /></linearGradient><path
   fill="url(#XMLID_2_)"
   stroke="none"
   d="M123.014,103.521c-2.273,0-4.123,1.85-4.123,4.124v117.808     c0,2.273,1.85,4.123,4.123,4.123h103.671c2.273,0,4.124-1.85,4.124-4.123V107.644c0-2.274-1.851-4.124-4.124-4.124H123.014z"
   id="path171" /><path
   opacity="0.4"
   fill="#FFFFFF"
   stroke="none"
   d="M195.466,153.589c10.952-10.268,24.114-15.318,38.288-17.827v-28.118     c0-3.904-3.165-7.069-7.069-7.069H123.014c-3.903,0-7.068,3.165-7.068,7.069v84.39     C145.151,194.238,172.774,173.917,195.466,153.589z"
   id="path172" /></g><g
   id="g173"><path
   opacity="0.2"
   stroke="none"
   d="M76.315,66.165c-5.521,0-10.014,4.492-10.014,10.014v117.808     c0,5.521,4.492,10.014,10.014,10.014h103.671c5.521,0,10.014-4.492,10.014-10.014V76.178c0-5.522-4.492-10.014-10.014-10.014     H76.315z"
   id="path174" /><linearGradient
   id="XMLID_3_"
   gradientUnits="userSpaceOnUse"
   x1="61"
   y1="131.5479"
   x2="184.6982"
   y2="131.5479"><stop
   offset="0"
   style="stop-color:#A7ABAC"
   id="stop176" /><stop
   offset="1"
   style="stop-color:#85898A"
   id="stop177" /></linearGradient><path
   fill="url(#XMLID_3_)"
   stroke="none"
   d="M71.014,62.63C65.492,62.63,61,67.122,61,72.644v117.808     c0,5.521,4.492,10.014,10.014,10.014h103.671c5.522,0,10.014-4.492,10.014-10.014V72.644c0-5.522-4.491-10.014-10.014-10.014     H71.014z"
   id="path181" /><path
   fill="#99CCFF"
   stroke="none"
   d="M63.945,190.452c0,3.903,3.165,7.068,7.068,7.068h103.671c3.904,0,7.069-3.165,7.069-7.068     V72.644c0-3.904-3.165-7.069-7.069-7.069H71.014c-3.903,0-7.068,3.165-7.068,7.069V190.452z"
   id="path182" /><linearGradient
   id="XMLID_4_"
   gradientUnits="userSpaceOnUse"
   x1="97.228"
   y1="105.9263"
   x2="236.8311"
   y2="245.5294"><stop
   offset="0"
   style="stop-color:#FFFFFF"
   id="stop184" /><stop
   offset="1"
   style="stop-color:#99CCFF"
   id="stop185" /></linearGradient><path
   fill="url(#XMLID_4_)"
   stroke="none"
   d="M71.014,68.521c-2.273,0-4.123,1.85-4.123,4.124v117.808     c0,2.273,1.85,4.123,4.123,4.123h103.671c2.273,0,4.124-1.85,4.124-4.123V72.644c0-2.274-1.851-4.124-4.124-4.124H71.014z"
   id="path189" /><path
   opacity="0.4"
   fill="#FFFFFF"
   stroke="none"
   d="M143.466,118.589c10.952-10.268,24.114-15.318,38.288-17.827V72.644     c0-3.904-3.165-7.069-7.069-7.069H71.014c-3.903,0-7.068,3.165-7.068,7.069v84.39     C93.151,159.238,120.774,138.917,143.466,118.589z"
   id="path190" /></g><g
   id="g191"><path
   opacity="0.2"
   stroke="none"
   d="M33.315,28.165c-5.521,0-10.014,4.492-10.014,10.014v117.808     c0,5.521,4.492,10.014,10.014,10.014h103.671c5.521,0,10.014-4.492,10.014-10.014V38.178c0-5.522-4.492-10.014-10.014-10.014     H33.315z"
   id="path192" /><linearGradient
   id="XMLID_5_"
   gradientUnits="userSpaceOnUse"
   x1="18"
   y1="93.5479"
   x2="141.6982"
   y2="93.5479"><stop
   offset="0"
   style="stop-color:#A7ABAC"
   id="stop194" /><stop
   offset="1"
   style="stop-color:#85898A"
   id="stop195" /></linearGradient><path
   fill="url(#XMLID_5_)"
   stroke="none"
   d="M28.014,24.63C22.492,24.63,18,29.122,18,34.644v117.808     c0,5.521,4.492,10.014,10.014,10.014h103.671c5.522,0,10.014-4.492,10.014-10.014V34.644c0-5.522-4.491-10.014-10.014-10.014     H28.014z"
   id="path199" /><path
   fill="#99CCFF"
   stroke="none"
   d="M20.945,152.452c0,3.903,3.165,7.068,7.068,7.068h103.671c3.904,0,7.069-3.165,7.069-7.068     V34.644c0-3.904-3.165-7.069-7.069-7.069H28.014c-3.903,0-7.068,3.165-7.068,7.069V152.452z"
   id="path200" /><linearGradient
   id="XMLID_6_"
   gradientUnits="userSpaceOnUse"
   x1="54.228"
   y1="67.9268"
   x2="193.8311"
   y2="207.5298"><stop
   offset="0"
   style="stop-color:#FFFFFF"
   id="stop202" /><stop
   offset="1"
   style="stop-color:#99CCFF"
   id="stop203" /></linearGradient><path
   fill="url(#XMLID_6_)"
   stroke="none"
   d="M28.014,30.521c-2.273,0-4.123,1.85-4.123,4.124v117.808     c0,2.273,1.85,4.123,4.123,4.123h103.671c2.273,0,4.124-1.85,4.124-4.123V34.644c0-2.274-1.851-4.124-4.124-4.124H28.014z"
   id="path207" /><path
   opacity="0.4"
   fill="#FFFFFF"
   stroke="none"
   d="M100.466,80.589c10.952-10.268,24.114-15.318,38.288-17.827V34.644     c0-3.904-3.165-7.069-7.069-7.069H28.014c-3.903,0-7.068,3.165-7.068,7.069v84.39C50.151,121.238,77.774,100.917,100.466,80.589z     "
   id="path208" /></g></g><g
   id="Layer_2"
   stroke="#000000"><path
   fill="none"
   stroke="none"
   d="M256,256H0V0h256V256z"
   id="path210" /></g></svg>
