<?xml version="1.0" encoding="UTF-8" standalone="no"?>
<!DOCTYPE svg PUBLIC "-//W3C//DTD SVG 20010904//EN"
"http://www.w3.org/TR/2001/REC-SVG-20010904/DTD/svg10.dtd">
<!-- Created with Sodipodi ("http://www.sodipodi.com/") -->
<svg
   xmlns="http://www.w3.org/2000/svg"
   xmlns:a="http://ns.adobe.com/AdobeSVGViewerExtensions/3.0/"
   xmlns:sodipodi="http://sodipodi.sourceforge.net/DTD/sodipodi-0.dtd"
   xmlns:xlink="http://www.w3.org/1999/xlink"
   width="48pt"
   height="48pt"
   viewBox="0 0 128 128"
   style="overflow:visible;enable-background:new 0 0 128 128"
   xml:space="preserve"
   id="svg548"
   sodipodi:version="0.34"
   sodipodi:docname="/home/cschalle/Themes/gnome-themes-extras/Nuvola/icons/scalable/emblems/emblem-important.svg"
   sodipodi:docbase="/home/cschalle/Themes/gnome-themes-extras/Nuvola/icons/scalable/emblems/"><defs
   id="defs600" /><sodipodi:namedview
   id="base" /><g
   id="Layer_2"
   style="stroke:#000000;"><path
   style="fill:none;stroke:none;"
   d="M128,128H0V0h128V128z"
   id="path550" /></g><g
   id="Layer_1"
   style="stroke:#000000;"><linearGradient
   id="XMLID_1_"
   gradientUnits="userSpaceOnUse"
   x1="64.061"
   y1="8.5"
   x2="64.061"
   y2="119.73"><stop
   offset="0.0056"
   style="stop-color:#BB0000"
   id="stop553" /><stop
   offset="1"
   style="stop-color:#880000"
   id="stop554" /><a:midPointStop
   offset="0.0056"
   style="stop-color:#BB0000"
   id="midPointStop555" /><a:midPointStop
   offset="0.5"
   style="stop-color:#BB0000"
   id="midPointStop556" /><a:midPointStop
   offset="1"
   style="stop-color:#880000"
   id="midPointStop557" /></linearGradient><path
   style="fill:url(#XMLID_1_);stroke:none;"
   d="M58.777,11.553c0,0.001-57.098,99.009-57.098,99.009c-1.086,1.885-1.086,4.227,0,6.112    c1.087,1.884,3.113,3.055,5.288,3.055h114.19c2.175,0,4.2-1.171,5.287-3.055c1.085-1.896,1.083-4.233,0-6.112L69.35,11.556    C68.26,9.67,66.235,8.5,64.063,8.5C61.891,8.5,59.865,9.67,58.777,11.553z"
   id="path558" /><linearGradient
   id="XMLID_2_"
   gradientUnits="userSpaceOnUse"
   x1="64.0625"
   y1="117.9102"
   x2="64.0625"
   y2="16.0583"><stop
   offset="0"
   style="stop-color:#FF0000"
   id="stop560" /><stop
   offset="0.5"
   style="stop-color:#EE0000"
   id="stop561" /><stop
   offset="1"
   style="stop-color:#FF6666"
   id="stop562" /><a:midPointStop
   offset="0"
   style="stop-color:#FF0000"
   id="midPointStop563" /><a:midPointStop
   offset="0.5"
   style="stop-color:#FF0000"
   id="midPointStop564" /><a:midPointStop
   offset="0.5"
   style="stop-color:#EE0000"
   id="midPointStop565" /><a:midPointStop
   offset="0.5"
   style="stop-color:#EE0000"
   id="midPointStop566" /><a:midPointStop
   offset="1"
   style="stop-color:#FF6666"
   id="midPointStop567" /></linearGradient><path
   style="fill:url(#XMLID_2_);stroke:none;"
   d="M64.063,13.593c-0.364,0-0.7,0.194-0.882,0.509L34.634,63.606L6.085,113.108    c-0.182,0.315-0.182,0.704,0,1.02c0.182,0.315,0.518,0.509,0.882,0.509h114.19c0.364,0,0.7-0.193,0.881-0.509s0.182-0.704,0-1.02    L64.944,14.102C64.762,13.787,64.426,13.593,64.063,13.593z"
   id="path568" /><linearGradient
   id="XMLID_3_"
   gradientUnits="userSpaceOnUse"
   x1="64.0503"
   y1="14.4565"
   x2="64.0503"
   y2="80.4043"><stop
   offset="0"
   style="stop-color:#FFFFFF"
   id="stop570" /><stop
   offset="1"
   style="stop-color:#FF6666"
   id="stop571" /><a:midPointStop
   offset="0"
   style="stop-color:#FFFFFF"
   id="midPointStop572" /><a:midPointStop
   offset="0.5"
   style="stop-color:#FFFFFF"
   id="midPointStop573" /><a:midPointStop
   offset="1"
   style="stop-color:#FF6666"
   id="midPointStop574" /></linearGradient><path
   style="fill:url(#XMLID_3_);stroke:none;"
   d="M36.366,64.605c0,0-2.592,4.495-6.191,10.736C40.202,79.58,51.729,82,64,82    c12.312,0,23.874-2.438,33.926-6.703C82.758,48.996,65.001,18.203,64.063,16.576C62.461,19.353,36.366,64.605,36.366,64.605z"
   id="path575" /><radialGradient
   id="XMLID_4_"
   cx="61.5029"
   cy="142.5"
   r="52.9991"
   fx="61.5029"
   fy="142.5"
   gradientUnits="userSpaceOnUse"><stop
   offset="0"
   style="stop-color:#BB0000"
   id="stop577" /><stop
   offset="1"
   style="stop-color:#FF0000"
   id="stop578" /><a:midPointStop
   offset="0"
   style="stop-color:#BB0000"
   id="midPointStop579" /><a:midPointStop
   offset="0.5"
   style="stop-color:#BB0000"
   id="midPointStop580" /><a:midPointStop
   offset="1"
   style="stop-color:#FF0000"
   id="midPointStop581" /></radialGradient><path
   style="fill:url(#XMLID_4_);stroke:none;"
   d="M14.655,114.637h98.69C101.296,107.199,83.662,102.5,64,102.5S26.704,107.199,14.655,114.637z"
   id="path582" /><linearGradient
   id="XMLID_5_"
   gradientUnits="userSpaceOnUse"
   x1="64.063"
   y1="36.063"
   x2="64.063"
   y2="107.0532"><stop
   offset="0"
   style="stop-color:#EE0000"
   id="stop584" /><stop
   offset="1"
   style="stop-color:#FF6666"
   id="stop585" /><a:midPointStop
   offset="0"
   style="stop-color:#EE0000"
   id="midPointStop586" /><a:midPointStop
   offset="0.5"
   style="stop-color:#EE0000"
   id="midPointStop587" /><a:midPointStop
   offset="1"
   style="stop-color:#FF6666"
   id="midPointStop588" /></linearGradient><path
   style="fill:url(#XMLID_5_);stroke:none;"
   d="M59.216,38.864L41.978,68.756L24.741,98.649c-1,1.732-1,3.869,0,5.602c0.999,1.734,2.847,2.802,4.845,2.802    h68.953c2,0,3.848-1.067,4.847-2.802c1-1.732,1-3.869,0-5.602L68.908,38.864c-0.999-1.733-2.848-2.801-4.846-2.801    C62.063,36.063,60.216,37.131,59.216,38.864z"
   id="path589" /><linearGradient
   id="XMLID_6_"
   gradientUnits="userSpaceOnUse"
   x1="61.9482"
   y1="86.6807"
   x2="107.8184"
   y2="132.5508"><stop
   offset="0"
   style="stop-color:#FFFFFF"
   id="stop591" /><stop
   offset="1"
   style="stop-color:#BBBBBB"
   id="stop592" /><a:midPointStop
   offset="0"
   style="stop-color:#FFFFFF"
   id="midPointStop593" /><a:midPointStop
   offset="0.5"
   style="stop-color:#FFFFFF"
   id="midPointStop594" /><a:midPointStop
   offset="1"
   style="stop-color:#BBBBBB"
   id="midPointStop595" /></linearGradient><path
   style="fill:url(#XMLID_6_);stroke:none;"
   d="M61.154,39.984L26.679,99.77c-0.599,1.037-0.599,2.325,0,3.36c0.597,1.036,1.711,1.681,2.907,1.681h68.953    c1.196,0,2.31-0.645,2.909-1.681c0.597-1.035,0.597-2.323,0-3.36L66.971,39.984c-0.598-1.036-1.712-1.68-2.908-1.68    C62.867,38.304,61.753,38.949,61.154,39.984z"
   id="path596" /><path
   style="stroke:none;"
   d="M63.937,101.087c-2.168,0-3.699-1.87-3.699-4.294c0-2.493,1.595-4.293,3.763-4.293    c2.295,0,3.762,1.8,3.762,4.293c0,2.424-1.467,4.294-3.762,4.294H63.937z"
   id="path597" /><path
   style="stroke:none;"
   d="M61.683,85.544l-0.955-35.611h6.543l-0.952,35.611H61.683z"
   id="path598" /></g></svg>
