<?xml version="1.0" encoding="UTF-8" standalone="no"?>
<!DOCTYPE svg PUBLIC "-//W3C//DTD SVG 20010904//EN"
"http://www.w3.org/TR/2001/REC-SVG-20010904/DTD/svg10.dtd">
<!-- Created with Sodipodi ("http://www.sodipodi.com/") -->
<svg
   xmlns="http://www.w3.org/2000/svg"
   xmlns:sodipodi="http://sodipodi.sourceforge.net/DTD/sodipodi-0.dtd"
   xmlns:xlink="http://www.w3.org/1999/xlink"
   sodipodi:version="0.34"
   sodipodi:docname="/home/cschalle/Themes/gnome-themes-extras/Nuvola/icons/scalable/emblems/emblem-multimedia.svg"
   sodipodi:docbase="/home/cschalle/Themes/gnome-themes-extras/Nuvola/icons/scalable/emblems/"
   width="48pt"
   height="48pt"
   viewBox="0 0 32 32.305"
   overflow="visible"
   enable-background="new 0 0 32 32.305"
   xml:space="preserve"
   id="svg153"><defs
   id="defs196" /><sodipodi:namedview
   id="base" /><g
   id="Layer_1"
   stroke="#000000"><g
   id="Layer_2"><path
   id="path291"
   fill="none"
   stroke="none"
   d="M32,32H0V0h32V32z" /></g><g
   id="g255_1_"
   opacity="0.2"><g
   id="g256_1_"><path
   stroke="none"
   d="M25.473,4.002C17.767,4.909,9.938,9.421,2.248,14.766c1.586,6.244,3.165,12.14,4.751,17.539      c7.746-7.325,15.623-14.421,23.272-18.323C28.685,11.424,27.08,8.069,25.473,4.002z M4.037,16.728      c-0.128-0.49-0.256-0.983-0.385-1.479c0.271-0.188,0.543-0.375,0.814-0.563c0.128,0.491,0.257,0.979,0.385,1.465      C4.581,16.342,4.309,16.534,4.037,16.728z M5.585,15.637c-0.128-0.481-0.257-0.965-0.385-1.451      c0.272-0.184,0.544-0.368,0.817-0.549c0.128,0.481,0.257,0.959,0.386,1.434C6.13,15.258,5.858,15.447,5.585,15.637z       M6.752,13.15c0.273-0.18,0.546-0.357,0.819-0.533c0.128,0.471,0.257,0.939,0.386,1.404c-0.273,0.182-0.546,0.364-0.82,0.55      C7.01,14.1,6.881,13.626,6.752,13.15z M7.786,30.246c-0.128-0.434-0.257-0.869-0.386-1.31c0.273-0.244,0.546-0.488,0.819-0.731      c0.129,0.433,0.257,0.862,0.386,1.289C8.333,29.744,8.059,29.995,7.786,30.246z M8.308,12.147      c0.273-0.173,0.547-0.344,0.82-0.513c0.129,0.46,0.258,0.918,0.387,1.372c-0.274,0.175-0.547,0.352-0.821,0.53      C8.566,13.076,8.437,12.613,8.308,12.147z M9.344,28.82c-0.129-0.42-0.258-0.844-0.387-1.27      c0.273-0.243,0.547-0.485,0.821-0.727c0.129,0.42,0.258,0.837,0.388,1.25C9.892,28.322,9.618,28.571,9.344,28.82z M9.866,11.183      c0.273-0.166,0.547-0.329,0.821-0.49c0.129,0.45,0.258,0.896,0.387,1.338c-0.274,0.167-0.548,0.337-0.822,0.508      C10.124,12.09,9.995,11.638,9.866,11.183z M10.905,27.408c-0.129-0.407-0.258-0.817-0.388-1.23      c0.274-0.24,0.548-0.479,0.823-0.715c0.129,0.406,0.259,0.809,0.389,1.208C11.454,26.916,11.179,27.161,10.905,27.408z       M11.425,10.264c0.274-0.157,0.548-0.312,0.822-0.464c0.129,0.438,0.259,0.873,0.388,1.304      c-0.274,0.158-0.548,0.319-0.822,0.482C11.684,11.148,11.555,10.708,11.425,10.264z M12.469,26.016      c-0.13-0.393-0.259-0.789-0.389-1.19c0.274-0.235,0.549-0.469,0.824-0.701c0.13,0.394,0.26,0.782,0.389,1.167      C13.019,25.531,12.744,25.772,12.469,26.016z M12.985,9.395c0.274-0.147,0.548-0.292,0.822-0.435      c0.129,0.426,0.259,0.849,0.388,1.268c-0.274,0.149-0.548,0.301-0.822,0.455C13.244,10.257,13.115,9.828,12.985,9.395z       M14.035,24.648c-0.13-0.379-0.26-0.761-0.39-1.147c0.274-0.229,0.55-0.458,0.825-0.685c0.13,0.379,0.26,0.754,0.39,1.125      C14.585,24.176,14.31,24.411,14.035,24.648z M14.545,8.583c0.273-0.137,0.547-0.272,0.821-0.403      c0.129,0.414,0.259,0.824,0.389,1.23c-0.274,0.138-0.547,0.279-0.821,0.423C14.804,9.42,14.675,9.003,14.545,8.583z       M15.601,23.314c-0.13-0.364-0.26-0.732-0.391-1.104c0.275-0.224,0.55-0.444,0.825-0.664c0.13,0.364,0.261,0.725,0.391,1.081      C16.151,22.854,15.876,23.084,15.601,23.314z M16.104,7.832c0.274-0.126,0.548-0.25,0.821-0.369      c0.13,0.401,0.26,0.799,0.39,1.192c-0.274,0.127-0.548,0.257-0.822,0.39C16.364,8.645,16.234,8.24,16.104,7.832z M17.167,22.019      c-0.13-0.349-0.26-0.702-0.391-1.06c0.274-0.217,0.55-0.431,0.824-0.643c0.13,0.35,0.261,0.695,0.391,1.036      C17.716,21.572,17.441,21.795,17.167,22.019z M17.663,7.147c0.273-0.114,0.547-0.225,0.82-0.333      c0.13,0.389,0.26,0.772,0.39,1.152c-0.273,0.115-0.547,0.233-0.82,0.354C17.921,7.934,17.792,7.542,17.663,7.147z       M18.731,20.766c-0.13-0.333-0.261-0.672-0.392-1.014c0.275-0.207,0.549-0.413,0.824-0.616c0.13,0.335,0.26,0.665,0.391,0.991      C19.28,20.338,19.005,20.551,18.731,20.766z M19.219,6.533c0.273-0.102,0.546-0.199,0.819-0.293      c0.131,0.375,0.26,0.745,0.391,1.111c-0.273,0.102-0.547,0.207-0.82,0.315C19.479,7.292,19.349,6.915,19.219,6.533z       M20.293,19.564c-0.13-0.318-0.261-0.642-0.392-0.969c0.274-0.198,0.549-0.395,0.822-0.588c0.131,0.319,0.261,0.635,0.392,0.944      C20.841,19.153,20.568,19.357,20.293,19.564z M20.775,5.993c0.273-0.088,0.546-0.172,0.818-0.252      c0.131,0.36,0.261,0.717,0.391,1.069c-0.273,0.088-0.546,0.18-0.818,0.275C21.035,6.725,20.905,6.361,20.775,5.993z       M21.853,18.416c-0.13-0.303-0.26-0.609-0.391-0.922c0.273-0.188,0.547-0.373,0.82-0.556c0.131,0.304,0.261,0.603,0.391,0.896      C22.4,18.025,22.126,18.22,21.853,18.416z M22.33,5.532c0.272-0.073,0.545-0.144,0.817-0.209c0.13,0.347,0.261,0.689,0.39,1.026      c-0.271,0.074-0.545,0.151-0.817,0.232C22.589,6.236,22.458,5.887,22.33,5.532z M23.41,17.327      c-0.129-0.286-0.26-0.577-0.391-0.874c0.273-0.176,0.547-0.351,0.82-0.521c0.129,0.287,0.26,0.57,0.39,0.848      C23.957,16.959,23.683,17.142,23.41,17.327z M23.882,5.154c0.272-0.059,0.545-0.114,0.818-0.165      c0.129,0.333,0.26,0.66,0.389,0.982c-0.271,0.059-0.545,0.122-0.817,0.188C24.142,5.829,24.012,5.494,23.882,5.154z       M24.964,16.303c-0.131-0.27-0.26-0.545-0.391-0.824c0.273-0.166,0.545-0.328,0.818-0.486c0.129,0.271,0.26,0.537,0.39,0.798      C25.509,15.958,25.237,16.129,24.964,16.303z M26.515,15.347c-0.13-0.253-0.26-0.513-0.39-0.775      c0.272-0.153,0.544-0.303,0.816-0.449c0.13,0.254,0.259,0.504,0.388,0.749C27.058,15.026,26.787,15.185,26.515,15.347z       M27.673,13.737c0.272-0.14,0.544-0.276,0.815-0.409c0.129,0.238,0.259,0.47,0.388,0.698c-0.271,0.141-0.543,0.288-0.814,0.436      C27.933,14.226,27.804,13.984,27.673,13.737z"
   id="path159" /></g></g><g
   id="g255"><g
   id="g256"><path
   stroke="none"
   d="M23.473,3.002C15.768,3.909,7.938,8.421,0.248,13.766c1.586,6.244,3.165,12.14,4.751,17.539      c7.746-7.325,15.623-14.421,23.272-18.323C26.685,10.424,25.08,7.069,23.473,3.002z M2.037,15.728      c-0.128-0.49-0.256-0.983-0.385-1.479c0.271-0.188,0.543-0.376,0.814-0.563c0.128,0.491,0.257,0.979,0.385,1.464      C2.581,15.341,2.309,15.534,2.037,15.728z M3.585,14.636c-0.128-0.481-0.257-0.964-0.385-1.45      c0.272-0.185,0.544-0.368,0.817-0.55c0.128,0.481,0.257,0.959,0.386,1.435C4.13,14.258,3.858,14.447,3.585,14.636z M4.752,12.15      c0.273-0.18,0.546-0.357,0.819-0.533c0.128,0.471,0.257,0.939,0.386,1.404c-0.273,0.182-0.546,0.365-0.82,0.55      C5.01,13.1,4.881,12.626,4.752,12.15z M5.786,29.246c-0.128-0.434-0.257-0.869-0.386-1.31c0.273-0.244,0.546-0.488,0.819-0.731      c0.129,0.433,0.257,0.862,0.386,1.289C6.333,28.744,6.059,28.995,5.786,29.246z M6.308,11.147      c0.273-0.173,0.547-0.344,0.82-0.513c0.129,0.46,0.258,0.918,0.387,1.372c-0.274,0.175-0.547,0.352-0.821,0.53      C6.566,12.076,6.437,11.613,6.308,11.147z M7.344,27.82c-0.129-0.42-0.258-0.844-0.387-1.27      c0.273-0.243,0.547-0.485,0.821-0.727c0.129,0.42,0.258,0.837,0.388,1.25C7.892,27.322,7.618,27.571,7.344,27.82z M7.866,10.183      c0.273-0.166,0.547-0.329,0.821-0.49c0.129,0.45,0.258,0.896,0.387,1.338c-0.274,0.167-0.548,0.337-0.822,0.508      C8.124,11.09,7.995,10.638,7.866,10.183z M8.905,26.408c-0.129-0.407-0.258-0.817-0.388-1.23      c0.274-0.24,0.548-0.479,0.823-0.715c0.129,0.406,0.259,0.809,0.389,1.208C9.454,25.916,9.179,26.161,8.905,26.408z       M9.425,9.264C9.699,9.106,9.973,8.952,10.247,8.8c0.129,0.438,0.259,0.873,0.388,1.304c-0.274,0.158-0.548,0.319-0.822,0.482      C9.684,10.148,9.555,9.708,9.425,9.264z M10.469,25.016c-0.13-0.393-0.259-0.789-0.389-1.19      c0.274-0.235,0.549-0.469,0.824-0.701c0.13,0.394,0.26,0.782,0.389,1.167C11.019,24.531,10.744,24.772,10.469,25.016z       M10.985,8.395c0.274-0.147,0.548-0.292,0.822-0.435c0.129,0.426,0.259,0.849,0.388,1.268c-0.274,0.149-0.548,0.301-0.822,0.455      C11.244,9.257,11.115,8.828,10.985,8.395z M12.035,23.648c-0.13-0.379-0.26-0.761-0.39-1.147      c0.274-0.229,0.55-0.458,0.825-0.685c0.13,0.379,0.26,0.754,0.39,1.125C12.585,23.176,12.31,23.411,12.035,23.648z       M12.545,7.583c0.273-0.137,0.547-0.272,0.821-0.403c0.129,0.414,0.259,0.824,0.389,1.23c-0.274,0.138-0.547,0.279-0.821,0.423      C12.804,8.42,12.675,8.003,12.545,7.583z M13.601,22.314c-0.13-0.364-0.26-0.732-0.391-1.104      c0.275-0.224,0.55-0.444,0.825-0.664c0.13,0.364,0.261,0.725,0.391,1.081C14.151,21.854,13.876,22.084,13.601,22.314z       M14.104,6.832c0.274-0.126,0.548-0.25,0.821-0.369c0.13,0.401,0.26,0.799,0.39,1.192c-0.274,0.127-0.548,0.257-0.822,0.39      C14.364,7.645,14.234,7.24,14.104,6.832z M15.167,21.019c-0.13-0.349-0.26-0.702-0.391-1.06      c0.274-0.217,0.549-0.431,0.824-0.643c0.13,0.35,0.26,0.695,0.391,1.036C15.716,20.572,15.441,20.795,15.167,21.019z       M15.663,6.147c0.273-0.114,0.547-0.225,0.82-0.333c0.13,0.389,0.26,0.772,0.39,1.152c-0.273,0.115-0.547,0.233-0.821,0.354      C15.922,6.934,15.792,6.542,15.663,6.147z M16.731,19.766c-0.13-0.333-0.261-0.672-0.391-1.014      c0.274-0.207,0.549-0.413,0.823-0.616c0.13,0.335,0.261,0.665,0.392,0.991C17.28,19.338,17.006,19.551,16.731,19.766z       M17.219,5.533c0.273-0.102,0.546-0.199,0.82-0.293c0.13,0.375,0.259,0.745,0.39,1.111c-0.273,0.102-0.547,0.207-0.82,0.315      C17.479,6.292,17.349,5.915,17.219,5.533z M18.293,18.564c-0.13-0.318-0.261-0.642-0.391-0.969      c0.274-0.198,0.548-0.395,0.822-0.588c0.131,0.319,0.261,0.635,0.392,0.944C18.841,18.153,18.568,18.357,18.293,18.564z       M18.775,4.993c0.273-0.088,0.546-0.172,0.818-0.252c0.131,0.36,0.261,0.717,0.391,1.069c-0.273,0.088-0.546,0.18-0.818,0.275      C19.035,5.725,18.905,5.361,18.775,4.993z M19.853,17.416c-0.13-0.303-0.26-0.609-0.391-0.922      c0.273-0.188,0.547-0.373,0.82-0.556c0.131,0.304,0.261,0.603,0.391,0.896C20.4,17.025,20.126,17.22,19.853,17.416z       M20.33,4.532c0.272-0.073,0.545-0.144,0.817-0.209c0.13,0.347,0.261,0.689,0.39,1.026c-0.271,0.074-0.545,0.151-0.817,0.232      C20.589,5.236,20.458,4.887,20.33,4.532z M21.41,16.327c-0.129-0.286-0.26-0.578-0.391-0.874      c0.273-0.177,0.547-0.351,0.82-0.522c0.129,0.288,0.26,0.57,0.39,0.848C21.957,15.959,21.683,16.142,21.41,16.327z       M21.882,4.154c0.272-0.059,0.545-0.114,0.818-0.165c0.129,0.333,0.26,0.66,0.389,0.982c-0.271,0.059-0.545,0.122-0.817,0.188      C22.142,4.829,22.012,4.494,21.882,4.154z M22.964,15.303c-0.131-0.27-0.26-0.545-0.391-0.825      c0.273-0.166,0.545-0.328,0.818-0.486c0.129,0.271,0.26,0.537,0.39,0.798C23.509,14.958,23.237,15.129,22.964,15.303z       M24.515,14.347c-0.13-0.253-0.26-0.512-0.39-0.775c0.272-0.153,0.544-0.303,0.816-0.449c0.13,0.255,0.259,0.504,0.388,0.749      C25.058,14.026,24.787,14.185,24.515,14.347z M25.673,12.737c0.272-0.14,0.544-0.276,0.815-0.409      c0.129,0.238,0.259,0.47,0.388,0.698c-0.271,0.142-0.543,0.287-0.814,0.436C25.933,13.226,25.804,12.984,25.673,12.737z"
   id="path162" /></g></g><g
   id="g258"><g
   id="g259"><linearGradient
   id="path269_1_"
   gradientUnits="userSpaceOnUse"
   x1="-59.6855"
   y1="562.9678"
   x2="-58.319"
   y2="495.5529"
   gradientTransform="matrix(0.1371 -0.0825 -0.0651 -0.1787 50.1248 110.5483)"><stop
   offset="0"
   style="stop-color:#FFFF99"
   id="stop166" /><stop
   offset="0.5"
   style="stop-color:#FFD100"
   id="stop167" /><stop
   offset="1"
   style="stop-color:#FFB30F"
   id="stop168" /></linearGradient><path
   id="path269"
   fill="url(#path269_1_)"
   stroke="none"
   d="M11.177,21.404c-1.875,1.595-3.748,3.26-5.599,4.903      c-0.873-3.131-1.744-6.429-2.618-9.85c1.842-1.335,3.705-2.658,5.572-3.879C9.411,15.711,10.292,18.666,11.177,21.404z" /><linearGradient
   id="path279_1_"
   gradientUnits="userSpaceOnUse"
   x1="-5.3628"
   y1="565.4512"
   x2="-4.1893"
   y2="507.5585"
   gradientTransform="matrix(0.1371 -0.0825 -0.0651 -0.1787 50.1248 110.5483)"><stop
   offset="0"
   style="stop-color:#FFFF99"
   id="stop176" /><stop
   offset="0.5"
   style="stop-color:#FFD100"
   id="stop177" /><stop
   offset="1"
   style="stop-color:#FFB30F"
   id="stop178" /></linearGradient><path
   id="path279"
   fill="url(#path279_1_)"
   stroke="none"
   d="M18.398,15.772c-1.867,1.288-3.743,2.741-5.62,4.29      c-0.887-2.617-1.771-5.463-2.651-8.5c1.87-1.158,3.741-2.191,5.607-3.033C16.62,11.191,17.508,13.616,18.398,15.772z" /><linearGradient
   id="path289_1_"
   gradientUnits="userSpaceOnUse"
   x1="47.3042"
   y1="563.6445"
   x2="48.3534"
   y2="511.8827"
   gradientTransform="matrix(0.1371 -0.0825 -0.0651 -0.1787 50.1248 110.5483)"><stop
   offset="0"
   style="stop-color:#FFFF99"
   id="stop186" /><stop
   offset="0.5"
   style="stop-color:#FFD100"
   id="stop187" /><stop
   offset="1"
   style="stop-color:#FFB30F"
   id="stop188" /></linearGradient><path
   id="path289"
   fill="url(#path289_1_)"
   stroke="none"
   d="M25.558,11.744c-1.85,0.773-3.704,1.78-5.567,2.971      c-0.89-2.017-1.778-4.312-2.666-6.854c1.864-0.728,3.723-1.247,5.583-1.51C23.794,8.442,24.68,10.247,25.558,11.744z" /></g></g></g></svg>
