<?xml version="1.0" encoding="UTF-8" standalone="no"?>
<!DOCTYPE svg PUBLIC "-//W3C//DTD SVG 20010904//EN"
"http://www.w3.org/TR/2001/REC-SVG-20010904/DTD/svg10.dtd">
<!-- Created with Sodipodi ("http://www.sodipodi.com/") -->
<svg
   i:viewOrigin="178 524"
   i:rulerOrigin="-178 -268"
   i:pageBounds="178 524 434 268"
   width="48pt"
   height="48pt"
   viewBox="0 0 256 256"
   style="overflow:visible;enable-background:new 0 0 256 256"
   xml:space="preserve"
   xmlns="http://www.w3.org/2000/svg"
   xmlns:ns="&amp;ns_vars;"
   xmlns:i="&amp;ns_ai;"
   xmlns:xml="http://www.w3.org/XML/1998/namespace"
   xmlns:sodipodi="http://sodipodi.sourceforge.net/DTD/sodipodi-0.dtd"
   xmlns:xlink="http://www.w3.org/1999/xlink"
   id="svg153"
   sodipodi:version="0.32pre"
   sodipodi:docname="/home/cschalle/gnome-themes-extras/Lush/icons/scalable/mimetypes/gnome-mime-image-xcf.svg"
   sodipodi:docbase="/home/cschalle/gnome-themes-extras/Lush/icons/scalable/mimetypes">
  <defs
     id="defs265" />
  <sodipodi:namedview
     id="base" />
  <metadata
     id="metadata154">
    <ns:variableSets>
      <ns:variableSet
         varSetName="binding1"
         locked="none">
        <ns:variables />
        <ns:sampleDataSets />
      </ns:variableSet>
    </ns:variableSets>
  </metadata>
  <g
     id="Layer_1"
     i:layer="yes"
     i:dimmedPercent="50"
     i:rgbTrio="#4F008000FFFF"
     style="stroke:#000000;">
    <linearGradient
       id="XMLID_1_"
       gradientUnits="userSpaceOnUse"
       x1="131.2803"
       y1="242.2021"
       x2="131.2803"
       y2="225.9855">
      <stop
         offset="0"
         style="stop-color:#CCCCCC"
         id="stop157" />
      <stop
         offset="1"
         style="stop-color:#000000"
         id="stop158" />
    </linearGradient>
    <path
       i:knockout="Off"
       style="opacity:0.36;fill:url(#XMLID_1_);stroke:none;"
       d="M21.45,228.51c-1.577,8.76,46.318,16.188,106.977,16.592    c60.658,0.402,111.107-6.375,112.685-15.134c1.576-8.759-46.316-16.187-106.975-16.589    C73.478,212.976,23.026,219.751,21.45,228.51z"
       id="path162" />
    <path
       i:knockout="Off"
       style="stroke:none;"
       d="M222.378,44.725L106.815,33.279l0.824,0.114c-12.484-2.223-31.43,10.05-34.033,17.923    l0.215-0.547L10.899,188.715l-0.092,0.278c-2.847,8.613,3.999,17.251,15.257,19.255l134.77,23.995    c11.258,2.004,22.734-3.372,25.58-11.984l51.628-156.205c2.847-8.613-3.998-17.251-15.256-19.256L222.378,44.725z"
       id="path163" />
    <linearGradient
       id="XMLID_2_"
       gradientUnits="userSpaceOnUse"
       x1="101.2012"
       y1="49.4717"
       x2="130.5948"
       y2="153.5337">
      <stop
         offset="0"
         style="stop-color:#D4D4D4"
         id="stop165" />
      <stop
         offset="1"
         style="stop-color:#F0F0F0"
         id="stop166" />
    </linearGradient>
    <path
       i:knockout="Off"
       style="fill:url(#XMLID_2_);stroke:none;"
       d="M17.192,189.302c-1.711,5.178,2.388,10.348,9.154,11.554l134.769,23.994    c6.767,1.204,13.638-2.014,15.349-7.191l51.627-156.203c1.711-5.177-2.388-10.35-9.153-11.555L103.789,38.497    c-6.766-1.205-22.087,7.953-23.797,13.129L17.192,189.302z"
       id="path170" />
    <path
       i:knockout="Off"
       style="fill:none;stroke:none;"
       d="M19.313,192.584L82.112,54.909c1.711-5.177,17.033-14.334,23.798-13.129l117.878,9.91    c-1.382-0.833-3.015-1.461-4.851-1.788L103.789,38.497c-6.766-1.205-22.087,7.953-23.797,13.129l-62.8,137.676    c-0.975,2.951-0.057,5.901,2.164,8.116C18.818,195.892,18.765,194.24,19.313,192.584z"
       id="path171" />
    <g
       i:knockout="Off"
       id="g172" />
    <path
       i:knockout="Off"
       style="fill:#C2C2C2;stroke:none;"
       d="M170.909,211.829c-1.711,5.177-8.582,8.396-15.349,7.191l-90.616-11.294l96.17,17.123    c6.767,1.204,13.638-2.014,15.349-7.191l46.879-141.839L170.909,211.829z"
       id="path173" />
    <radialGradient
       id="XMLID_3_"
       cx="122.9863"
       cy="61.2827"
       r="7.46"
       fx="122.9863"
       fy="61.2827"
       gradientTransform="matrix(0.8964 0.0346 -0.3107 1.1036 32.3881 -10.5311)"
       gradientUnits="userSpaceOnUse">
      <stop
         offset="0.8595"
         style="stop-color:#C2C2C2"
         id="stop175" />
      <stop
         offset="1"
         style="stop-color:#000000"
         id="stop176" />
    </radialGradient>
    <path
       i:knockout="Off"
       style="fill:url(#XMLID_3_);stroke:none;"
       d="M116.158,59.226c-1.259,4.127,0.663,7.579,4.294,7.708    c3.63,0.13,7.594-3.113,8.852-7.241c1.259-4.128-0.666-7.579-4.294-7.708C121.378,51.855,117.416,55.097,116.158,59.226z"
       id="path180" />
    <radialGradient
       id="XMLID_4_"
       cx="183.2773"
       cy="65.5967"
       r="8.1347"
       fx="183.2773"
       fy="65.5967"
       gradientTransform="matrix(0.8964 0.0346 -0.3107 1.1036 32.3881 -10.5311)"
       gradientUnits="userSpaceOnUse">
      <stop
         offset="0.8595"
         style="stop-color:#C2C2C2"
         id="stop182" />
      <stop
         offset="1"
         style="stop-color:#000000"
         id="stop183" />
    </radialGradient>
    <path
       i:knockout="Off"
       style="fill:url(#XMLID_4_);stroke:none;"
       d="M168.191,65.88c-1.373,4.5,0.723,8.264,4.682,8.405c3.958,0.142,8.28-3.395,9.652-7.896    c1.372-4.501-0.726-8.264-4.683-8.405C173.884,57.843,169.563,61.378,168.191,65.88z"
       id="path187" />
    <path
       i:knockout="Off"
       style="stroke:none;"
       d="M118.663,51c0-11.875,7.377-21.5,16.478-21.5c3.754,0,6.589,7.242,9.359,10    c-2.61-7.379-4.61-18.5-13.021-18C122.941,22.008,116,32.021,116,45c0,7.096,2.075,13.452,5.35,17.761    C119.653,59.381,118.663,55.342,118.663,51z"
       id="path188" />
    <path
       i:knockout="Off"
       style="stroke:none;"
       d="M170.663,56c0-11.875,7.378-21.5,16.478-21.5c3.754,0,6.589,7.242,9.359,10    c-2.61-7.379-4.61-18.5-13.021-18C174.941,27.008,168,37.021,168,50c0,7.096,2.074,13.452,5.35,17.761    C171.652,64.381,170.663,60.342,170.663,56z"
       id="path189" />
    <g
       id="g190">
      <path
         i:knockout="Off"
         style="fill:#FFFFFF;stroke:none;"
         d="M51.724,137.246c0-6.293,5.472-11.453,12.38-11.904c-0.761-0.182-1.553-0.288-2.37-0.288     c-5.654,0-10.253,4.601-10.253,10.255c0,0.781,0.095,1.539,0.262,2.271C51.74,137.468,51.724,137.358,51.724,137.246z"
         id="path191" />
      <g
         id="g192">
        <path
           i:knockout="Off"
           style="opacity:0.2;stroke:none;"
           d="M27.22,77.5c-5.64,0-10.228,4.588-10.228,10.229v109.623      c0,5.64,4.588,10.229,10.228,10.229h109.624c5.64,0,10.228-4.589,10.228-10.229V87.729c0-5.64-4.588-10.229-10.228-10.229H27.22      z"
           id="path193" />
        <path
           i:knockout="Off"
           style="stroke:none;"
           d="M21.693,71.5c-5.64,0-10.228,4.588-10.228,10.229v109.623      c0,5.64,4.588,10.229,10.228,10.229h109.624c5.64,0,10.228-4.589,10.228-10.229V81.729c0-5.64-4.588-10.229-10.228-10.229      H21.693z"
           id="path194" />
        <linearGradient
           id="XMLID_5_"
           gradientUnits="userSpaceOnUse"
           x1="76.5044"
           y1="208.8164"
           x2="76.5044"
           y2="71.4851">
          <stop
             offset="0"
             style="stop-color:#6A5B97"
             id="stop196" />
          <stop
             offset="1"
             style="stop-color:#6D7BB0"
             id="stop197" />
        </linearGradient>
        <path
           i:knockout="Off"
           style="fill:url(#XMLID_5_);stroke:none;"
           d="M138.544,191.352c0,3.991-3.235,7.229-7.228,7.229H21.693      c-3.992,0-7.228-3.237-7.228-7.229V81.729c0-3.992,3.236-7.229,7.228-7.229h109.624c3.992,0,7.228,3.236,7.228,7.229V191.352z"
           id="path201" />
        <linearGradient
           id="XMLID_6_"
           gradientUnits="userSpaceOnUse"
           x1="17.4766"
           y1="136.54"
           x2="135.5322"
           y2="136.54">
          <stop
             offset="0"
             style="stop-color:#EFEDF5"
             id="stop203" />
          <stop
             offset="1"
             style="stop-color:#99ACD2"
             id="stop204" />
        </linearGradient>
        <path
           i:knockout="Off"
           style="fill:url(#XMLID_6_);stroke:none;"
           d="M21.693,77.512c-2.325,0-4.216,1.892-4.216,4.217v109.623      c0,2.325,1.892,4.217,4.216,4.217h109.624c2.324,0,4.216-1.892,4.216-4.217V81.729c0-2.325-1.892-4.217-4.216-4.217H21.693z"
           id="path208" />
        <path
           i:knockout="Off"
           style="opacity:0.64;fill:#FFFFFF;stroke:none;"
           d="M23.5,146.214c3.968,0.37,8.017,0.565,12.136,0.565      c48.568,0,87.939-26.563,87.939-59.329c0-1.316-0.069-2.621-0.195-3.916c-22.273,0-96.906,0-99.88,0      C23.5,85.47,23.5,117.761,23.5,146.214z"
           id="path209" />
      </g>
      <g
         id="g210">
        <path
           i:knockout="Off"
           style="opacity:0.2;stroke:none;"
           d="M126.338,108.043c-3.855-1.211-8.627,2.032-15.956,10.841      c-2.723,3.273-5.208,6.631-6.837,8.902c-6.13-4.094-21.639-11.91-42.319-4.112c-3.251-2.788-7.421-5.804-12.804-9.204      c-1.575-0.995-5.758-3.636-8.582-0.903c-0.842,0.815-1.372,1.842-1.372,3.412c0,2.389,1.264,6.08,4.5,12.164      c-4.236,1.367-7.312,5.446-7.312,10.265c0,0.885,0.115,1.738,0.31,2.56c-0.542-0.076-1.052-0.159-1.547-0.243      c-0.583-1.697-1.369-3.402-2.357-5.067c-5.27-8.877-14.333-13.228-20.244-9.72c-5.911,3.509-6.43,13.55-1.16,22.427      c2.128,3.585,4.876,6.432,7.785,8.32c8.096,7.813,27.435,23.326,54.214,24.35c11.718,0.448,23.124-4.272,32.983-13.652      c15.162-14.423,24.722-38.155,24.884-51.872C130.579,111.782,129.171,108.933,126.338,108.043z"
           id="path211" />
        <path
           i:knockout="Off"
           style="stroke:none;"
           d="M105.838,112.068c-2.723,3.274-5.208,6.631-6.837,8.903      c-6.13-4.095-21.639-11.911-42.319-4.113c-3.251-2.788-7.421-5.804-12.804-9.204c-1.575-0.995-5.757-3.635-8.582-0.902      c-0.842,0.815-1.372,1.842-1.372,3.411c0,2.814,1.74,7.416,6.4,15.619c-0.472,0.626-0.818,1.367-0.818,2.225      c0,0.393,0.071,0.807,0.234,1.245c0.772,2.08,2.791,2.433,4.451,2.396c1.932,1.227,4.98,0.265,8.035-1.039      c-2.16,2.646-5.691,5.162-11.364,5.162c-13.278,0-19.197-3.234-19.255-3.267l-2.299-1.29l-1.743,1.985l-9.591,11.189      l1.743,2.088c0.933,1.118,23.263,27.4,58.395,28.743c11.718,0.447,23.124-4.274,32.984-13.653      c15.162-14.422,24.722-38.155,24.884-51.872c0.056-4.729-1.354-7.577-4.186-8.467      C117.938,100.016,113.166,103.258,105.838,112.068z"
           id="path212" />
        <linearGradient
           id="XMLID_7_"
           gradientUnits="userSpaceOnUse"
           x1="46.6221"
           y1="125.9897"
           x2="69.2147"
           y2="145.9754"
           gradientTransform="matrix(0.9808 0.1949 -0.1949 0.9808 23.874 -16.1906)">
          <stop
             offset="0"
             style="stop-color:#BD8C00"
             id="stop214" />
          <stop
             offset="1"
             style="stop-color:#7D5B00"
             id="stop215" />
        </linearGradient>
        <path
           i:knockout="Off"
           style="fill:url(#XMLID_7_);stroke:none;"
           d="M59.22,123.729c-1.493-1.404-4.268-5.277-17.06-13.356      c-12.792-8.079,2.833,16.953,3.645,18.444C46.617,130.307,59.22,123.729,59.22,123.729z"
           id="path219" />
        <linearGradient
           id="XMLID_8_"
           gradientUnits="userSpaceOnUse"
           x1="66.8408"
           y1="124.502"
           x2="101.3376"
           y2="169.8465">
          <stop
             offset="0"
             style="stop-color:#BD8C00"
             id="stop221" />
          <stop
             offset="1"
             style="stop-color:#7D5B00"
             id="stop222" />
        </linearGradient>
        <path
           i:knockout="Off"
           style="fill:url(#XMLID_8_);stroke:none;"
           d="M12.185,144.415c0,0,21.942,26.286,56.05,27.59s54.312-43.883,54.529-62.35      c0.217-18.466-23.028,15.859-23.028,15.859s-18.9-16.728-46.057-3.909c-27.156,12.817,4.779,3.691,4.779,3.691      s-3.042,13.688-17.597,13.688c-14.555,0-20.855-3.693-20.855-3.693L12.185,144.415z"
           id="path226" />
        <linearGradient
           id="XMLID_9_"
           gradientUnits="userSpaceOnUse"
           x1="108.2412"
           y1="134.6631"
           x2="66.5944"
           y2="134.2795">
          <stop
             offset="0"
             style="stop-color:#BD8C00"
             id="stop228" />
          <stop
             offset="1"
             style="stop-color:#D9B200"
             id="stop229" />
        </linearGradient>
        <path
           i:knockout="Off"
           style="fill:url(#XMLID_9_);stroke:none;"
           d="M106.077,128.924c0,0,9.866-14.568,16.684-19.616      c-0.082-16.387-19.835,11.588-22.682,15.707C103.941,127.035,106.077,128.924,106.077,128.924z M58.458,125.297      c0,0-0.044,0.195-0.142,0.53c0.543-0.263,1.104-0.53,1.704-0.814c15.978-7.541,29.095-4.854,37.189-1.364      c-6.001-3.971-22.223-12.101-43.53-2.043C26.523,134.423,58.458,125.297,58.458,125.297z M18.526,147.824l7.821-9.125      c0,0,6.3,3.693,20.855,3.693c14.556,0,17.597-13.687,17.597-13.687s-4.625,1.321-8.859,2.253      c-2.424,3.767-6.958,8.025-15.079,8.025c-14.555,0-20.855-3.693-20.855-3.693l-7.821,9.124c0,0,9.954,11.924,26.874,20.108      C26.022,156.801,18.526,147.824,18.526,147.824z"
           id="path233" />
        <path
           i:knockout="Off"
           style="fill:#999999;stroke:none;"
           d="M31.112,132.592c0,5.939,4.668,10.754,10.428,10.754s10.428-4.814,10.428-10.754      c0-5.938-4.669-10.753-10.428-10.753S31.112,126.653,31.112,132.592z"
           id="path234" />
        <path
           i:knockout="Off"
           style="fill:#999999;stroke:none;"
           d="M47.623,135.309c0,7.438,6.03,13.469,13.469,13.469c7.438,0,13.47-6.03,13.47-13.469      c0-7.439-6.031-13.47-13.47-13.47C53.653,121.839,47.623,127.869,47.623,135.309z"
           id="path235" />
        <radialGradient
           id="XMLID_10_"
           cx="45.0981"
           cy="136.1602"
           r="22.2674"
           fx="45.0981"
           fy="136.1602"
           gradientUnits="userSpaceOnUse">
          <stop
             offset="0"
             style="stop-color:#FFFFFF"
             id="stop237" />
          <stop
             offset="1"
             style="stop-color:#D4E1EE"
             id="stop238" />
        </radialGradient>
        <path
           i:knockout="Off"
           style="fill:url(#XMLID_10_);stroke:none;"
           d="M33.041,133.879c0,5.938,4.668,10.754,10.428,10.754      c5.759,0,10.428-4.815,10.428-10.754c0-5.939-4.669-10.754-10.428-10.754C37.709,123.125,33.041,127.939,33.041,133.879z"
           id="path242" />
        <path
           i:knockout="Off"
           style="stroke:none;"
           d="M6.112,142.547c5.27,8.878,14.333,13.229,20.244,9.721      c5.91-3.51,6.431-13.55,1.161-22.427c-5.27-8.876-14.333-13.228-20.244-9.72C1.362,123.631,0.843,133.671,6.112,142.547z"
           id="path243" />
        <radialGradient
           id="XMLID_11_"
           cx="66.4966"
           cy="137.7891"
           r="24.7658"
           fx="66.4966"
           fy="137.7891"
           gradientUnits="userSpaceOnUse">
          <stop
             offset="0"
             style="stop-color:#FFFFFF"
             id="stop245" />
          <stop
             offset="1"
             style="stop-color:#D4E1EE"
             id="stop246" />
        </radialGradient>
        <path
           i:knockout="Off"
           style="fill:url(#XMLID_11_);stroke:none;"
           d="M49.552,136.594c0,7.439,6.03,13.47,13.469,13.47c7.438,0,13.469-6.03,13.469-13.47      c0-7.438-6.031-13.469-13.469-13.469C55.582,123.125,49.552,129.156,49.552,136.594z"
           id="path250" />
        <radialGradient
           id="XMLID_12_"
           cx="6.9707"
           cy="119.8838"
           r="26.0442"
           fx="6.9707"
           fy="119.8838"
           gradientUnits="userSpaceOnUse">
          <stop
             offset="0"
             style="stop-color:#FFFFFF"
             id="stop252" />
          <stop
             offset="1"
             style="stop-color:#000000"
             id="stop253" />
        </radialGradient>
        <path
           i:knockout="Off"
           style="fill:url(#XMLID_12_);stroke:none;"
           d="M8.257,120.494c-2.542,1.51-3.826,4.672-3.826,8.457c0,3.515,1.107,7.564,3.339,11.325      c4.638,7.813,12.698,11.955,17.601,9.046c4.902-2.91,5.124-11.971,0.486-19.783C21.22,121.727,13.16,117.585,8.257,120.494z"
           id="path257" />
        <path
           i:knockout="Off"
           style="opacity:0.73;fill:#FFFFFF;stroke:none;"
           d="M45.624,166.833c0,0,47.794,9.624,46.926-13.404      C91.68,130.4,95.156,169.927,45.624,166.833z"
           id="path258" />
        <path
           i:knockout="Off"
           style="stroke:none;"
           d="M61.5,137.789c0,2.7,2.237,4.888,4.997,4.888c2.76,0,4.997-2.188,4.997-4.888      c0-2.699-2.236-4.888-4.997-4.888C63.737,132.901,61.5,135.09,61.5,137.789z"
           id="path259" />
        <path
           i:knockout="Off"
           style="stroke:none;"
           d="M41.513,136.16c0,1.919,1.605,3.476,3.585,3.476c1.979,0,3.584-1.557,3.584-3.476      c0-1.92-1.604-3.477-3.584-3.477C43.118,132.684,41.513,134.24,41.513,136.16z"
           id="path260" />
      </g>
    </g>
    <path
       i:knockout="Off"
       style="opacity:0.73;fill:#FFFFFF;stroke:none;"
       d="M51.23,136.217c0-6.354,5.204-11.505,11.623-11.505c0.489,0,0.969,0.04,1.443,0.098    c-1.025-0.348-2.118-0.541-3.255-0.541c-5.759,0-10.428,4.814-10.428,10.754c0,1.988,0.533,3.845,1.445,5.442    C51.529,139.149,51.23,137.719,51.23,136.217z"
       id="path261" />
  </g>
  <g
     id="Layer_2"
     i:layer="yes"
     i:editable="no"
     i:dimmedPercent="50"
     i:rgbTrio="#FFFF4F004F00"
     style="stroke:#000000;">
    <path
       i:knockout="Off"
       style="fill:none;stroke:none;"
       d="M256,256H0V0h256V256z"
       id="path263" />
  </g>
</svg>
