<?xml version="1.0" encoding="UTF-8" standalone="no"?>
<!DOCTYPE svg PUBLIC "-//W3C//DTD SVG 20010904//EN"
"http://www.w3.org/TR/2001/REC-SVG-20010904/DTD/svg10.dtd">
<!-- Created with Sodipodi ("http://www.sodipodi.com/") -->
<svg
   i:viewOrigin="178 524"
   i:rulerOrigin="-178 -268"
   i:pageBounds="178 524 434 268"
   width="48pt"
   height="48pt"
   viewBox="0 0 256 256"
   style="overflow:visible;enable-background:new 0 0 256 256"
   xml:space="preserve"
   xmlns="http://www.w3.org/2000/svg"
   xmlns:ns="&amp;ns_vars;"
   xmlns:i="&amp;ns_ai;"
   xmlns:xml="http://www.w3.org/XML/1998/namespace"
   xmlns:sodipodi="http://sodipodi.sourceforge.net/DTD/sodipodi-0.dtd"
   xmlns:xlink="http://www.w3.org/1999/xlink"
   id="svg153"
   sodipodi:version="0.32pre"
   sodipodi:docname="/home/cschalle/gnome-themes-extras/Lush/icons/scalable/mimetypes/gnome-mime-application-vnd.sun.xml.impress.svg"
   sodipodi:docbase="/home/cschalle/gnome-themes-extras/Lush/icons/scalable/mimetypes">
  <defs
     id="defs256" />
  <sodipodi:namedview
     id="base" />
  <metadata
     id="metadata154">
    <ns:variableSets>
      <ns:variableSet
         varSetName="binding1"
         locked="none">
        <ns:variables />
        <ns:sampleDataSets />
      </ns:variableSet>
    </ns:variableSets>
  </metadata>
  <g
     id="Layer_1"
     i:layer="yes"
     i:dimmedPercent="50"
     i:rgbTrio="#4F008000FFFF"
     style="stroke:#000000;">
    <linearGradient
       id="XMLID_1_"
       gradientUnits="userSpaceOnUse"
       x1="130.2803"
       y1="241.5361"
       x2="130.2803"
       y2="225.3195">
      <stop
         offset="0"
         style="stop-color:#CCCCCC"
         id="stop157" />
      <stop
         offset="1"
         style="stop-color:#000000"
         id="stop158" />
    </linearGradient>
    <path
       i:knockout="Off"
       style="opacity:0.36;fill:url(#XMLID_1_);stroke:none;"
       d="M20.45,227.844c-1.577,8.76,46.318,16.188,106.977,16.592    c60.658,0.402,111.107-6.375,112.685-15.134c1.576-8.759-46.316-16.187-106.975-16.589    C72.478,212.31,22.026,219.085,20.45,227.844z"
       id="path162" />
    <path
       i:knockout="Off"
       style="stroke:none;"
       d="M222.378,44.725L106.815,33.279l0.824,0.114c-12.484-2.223-31.43,10.05-34.033,17.923    l0.215-0.547L10.899,188.715l-0.092,0.278c-2.847,8.613,3.999,17.251,15.257,19.255l134.77,23.995    c11.258,2.004,22.734-3.372,25.58-11.984l51.628-156.205c2.847-8.613-3.998-17.251-15.256-19.256L222.378,44.725z"
       id="path163" />
    <linearGradient
       id="XMLID_2_"
       gradientUnits="userSpaceOnUse"
       x1="101.2012"
       y1="49.4717"
       x2="130.5948"
       y2="153.5337">
      <stop
         offset="0"
         style="stop-color:#D4D4D4"
         id="stop165" />
      <stop
         offset="1"
         style="stop-color:#F0F0F0"
         id="stop166" />
    </linearGradient>
    <path
       i:knockout="Off"
       style="fill:url(#XMLID_2_);stroke:none;"
       d="M17.192,189.302c-1.711,5.178,2.388,10.348,9.154,11.554l134.769,23.994    c6.767,1.204,13.638-2.014,15.349-7.191l51.627-156.203c1.711-5.177-2.388-10.35-9.153-11.555L103.789,38.497    c-6.766-1.205-22.087,7.953-23.797,13.129L17.192,189.302z"
       id="path170" />
    <path
       i:knockout="Off"
       style="fill:none;stroke:none;"
       d="M19.313,192.584L82.112,54.909c1.711-5.177,17.033-14.334,23.798-13.129l117.878,9.91    c-1.382-0.833-3.015-1.461-4.851-1.788L103.789,38.497c-6.766-1.205-22.087,7.953-23.797,13.129l-62.8,137.676    c-0.975,2.951-0.057,5.901,2.164,8.116C18.818,195.892,18.765,194.24,19.313,192.584z"
       id="path171" />
    <g
       i:knockout="Off"
       id="g172" />
    <path
       i:knockout="Off"
       style="fill:#C2C2C2;stroke:none;"
       d="M170.909,211.829c-1.711,5.177-8.582,8.396-15.349,7.191l-90.616-11.294l96.17,17.123    c6.767,1.204,13.638-2.014,15.349-7.191l46.879-141.839L170.909,211.829z"
       id="path173" />
    <radialGradient
       id="XMLID_3_"
       cx="122.9863"
       cy="61.2827"
       r="7.46"
       fx="122.9863"
       fy="61.2827"
       gradientTransform="matrix(0.8964 0.0346 -0.3107 1.1036 32.3881 -10.5311)"
       gradientUnits="userSpaceOnUse">
      <stop
         offset="0.8595"
         style="stop-color:#C2C2C2"
         id="stop175" />
      <stop
         offset="1"
         style="stop-color:#000000"
         id="stop176" />
    </radialGradient>
    <path
       i:knockout="Off"
       style="fill:url(#XMLID_3_);stroke:none;"
       d="M116.158,59.226c-1.259,4.127,0.663,7.579,4.294,7.708c3.63,0.13,7.594-3.113,8.852-7.241    c1.259-4.128-0.666-7.579-4.294-7.708C121.378,51.855,117.416,55.097,116.158,59.226z"
       id="path180" />
    <radialGradient
       id="XMLID_4_"
       cx="183.2773"
       cy="65.5967"
       r="8.1347"
       fx="183.2773"
       fy="65.5967"
       gradientTransform="matrix(0.8964 0.0346 -0.3107 1.1036 32.3881 -10.5311)"
       gradientUnits="userSpaceOnUse">
      <stop
         offset="0.8595"
         style="stop-color:#C2C2C2"
         id="stop182" />
      <stop
         offset="1"
         style="stop-color:#000000"
         id="stop183" />
    </radialGradient>
    <path
       i:knockout="Off"
       style="fill:url(#XMLID_4_);stroke:none;"
       d="M168.191,65.88c-1.373,4.5,0.723,8.264,4.682,8.405c3.958,0.142,8.28-3.395,9.652-7.896    c1.372-4.501-0.726-8.264-4.683-8.405C173.884,57.843,169.563,61.378,168.191,65.88z"
       id="path187" />
    <path
       i:knockout="Off"
       style="stroke:none;"
       d="M118.663,51c0-11.875,7.377-21.5,16.478-21.5c3.754,0,6.589,7.242,9.359,10    c-2.61-7.379-4.61-18.5-13.021-18C122.941,22.008,116,32.021,116,45c0,7.096,2.075,13.452,5.35,17.761    C119.653,59.381,118.663,55.342,118.663,51z"
       id="path188" />
    <path
       i:knockout="Off"
       style="opacity:0.36;fill:#999999;stroke:none;"
       d="M61.834,111.101c-3.391,0.495-6.681,1.158-9.863,1.954l-4.399,9.644    c32.172-3.538,60.641,0.979,75.943,10.968c-0.003-0.184-0.001-0.366,0.001-0.549C118.615,116.466,91.968,106.702,61.834,111.101z     M176.329,94.67c-29.968,4.375-52.627,21.188-52.813,38.448c0.067,0.226,0.146,0.448,0.204,0.678    c-0.066-0.044-0.138-0.086-0.205-0.129c0.002,0.147-0.007,0.295-0.001,0.443c12.618-15.076,41.822-28.457,77.113-33.609    c5.12-0.748,10.16-1.281,15.098-1.632l0.413-1.252C205.166,93.781,191.174,92.503,176.329,94.67z M66.52,81.16l-3.24,7.104    c9.223,2.103,16.811,5.331,21.862,9.345c0.009-0.122,0.022-0.243,0.035-0.364C83.791,90.15,76.637,84.308,66.52,81.16z     M85.176,97.245c0.03,0.154,0.069,0.307,0.093,0.462c-0.042-0.033-0.086-0.065-0.128-0.099c-0.008,0.099-0.023,0.196-0.028,0.295    c9.349-9.262,29.647-16.361,53.49-17.596c4.207-0.218,8.321-0.243,12.304-0.09c-7.267-3.799-17.243-5.875-28.135-5.311    C102.523,75.955,86.373,85.75,85.176,97.245z"
       id="path189" />
    <path
       i:knockout="Off"
       style="stroke:none;"
       d="M170.663,56c0-11.875,7.378-21.5,16.478-21.5c3.754,0,6.589,7.242,9.359,10    c-2.61-7.379-4.61-18.5-13.021-18C174.941,27.008,168,37.021,168,50c0,7.096,2.074,13.452,5.35,17.761    C171.652,64.381,170.663,60.342,170.663,56z"
       id="path190" />
    <g
       id="g191">
      <g
         id="g192">
        <path
           i:knockout="Off"
           style="stroke:none;"
           d="M32.718,113.636c-6.226,0.908-12.261,2.074-18.051,3.46      c9.536-7.687,23.546-13.641,39.667-15.995c30.544-4.459,57.521,5.628,61.887,22.695      C99.819,112.957,68.009,108.483,32.718,113.636z"
           id="path193" />
        <path
           i:knockout="Off"
           style="stroke:none;"
           d="M193.128,90.501c6.226-0.909,12.343-1.517,18.286-1.844      c-11.335-4.639-26.462-6.341-42.585-3.987c-30.542,4.459-53.511,21.837-52.814,39.44      C128.633,109.035,157.837,95.654,193.128,90.501z"
           id="path194" />
      </g>
      <g
         id="g195">
        <path
           i:knockout="Off"
           style="stroke:none;"
           d="M22.746,75.731c-4.205,0.218-8.301,0.62-12.246,1.182      c6.835-4.528,16.543-7.625,27.436-8.189c20.635-1.069,37.988,7.334,39.834,18.983C67.514,79.461,46.59,74.497,22.746,75.731z"
           id="path196" />
        <path
           i:knockout="Off"
           style="stroke:none;"
           d="M131.104,70.307c4.207-0.218,8.321-0.243,12.304-0.09      c-7.267-3.799-17.243-5.875-28.135-5.311c-20.635,1.069-37.026,11.22-37.659,22.997      C86.962,78.641,107.261,71.542,131.104,70.307z"
           id="path197" />
      </g>
    </g>
    <path
       i:knockout="Off"
       style="stroke:none;"
       d="M135.635,166.56h-8.02c0,0,0,29.712,0,31.587c-1.75,0-15.51,0-15.51,0v9.02h39.586v-9.02    c0,0-13.313,0-15.057,0c0-1.875,0-31.587,0-31.587H135.635z"
       id="path198" />
    <path
       i:knockout="Off"
       style="stroke:none;"
       d="M134.503,167.56h-5.888c0,0,0,29.482,0,31.587c-1.946,0-15.51,0-15.51,0v7.02h37.586    v-7.02c0,0-13.12,0-15.057,0c0-2.104,0-31.587,0-31.587H134.503z"
       id="path199" />
    <g
       id="g200">
      <linearGradient
         id="XMLID_5_"
         gradientUnits="userSpaceOnUse"
         x1="133.4834"
         y1="186.3535"
         x2="130.3127"
         y2="186.3535">
        <stop
           offset="0"
           style="stop-color:#C2C2C2"
           id="stop202" />
        <stop
           offset="1"
           style="stop-color:#D4D4D4"
           id="stop203" />
      </linearGradient>
      <path
         i:knockout="Off"
         style="fill:url(#XMLID_5_);stroke:none;"
         d="M129.747,204.015v-35.322h4.756v35.322H129.747z"
         id="path207" />
      <linearGradient
         id="XMLID_6_"
         gradientUnits="userSpaceOnUse"
         x1="145.7129"
         y1="202.7637"
         x2="116.5034"
         y2="202.5372">
        <stop
           offset="0"
           style="stop-color:#C2C2C2"
           id="stop209" />
        <stop
           offset="0.2104"
           style="stop-color:#C4C4C4"
           id="stop210" />
        <stop
           offset="0.2861"
           style="stop-color:#CBCBCB"
           id="stop211" />
        <stop
           offset="0.3315"
           style="stop-color:#D4D4D4"
           id="stop212" />
        <stop
           offset="0.5649"
           style="stop-color:#D6D6D6"
           id="stop213" />
        <stop
           offset="0.7019"
           style="stop-color:#DFDFDF"
           id="stop214" />
        <stop
           offset="0.8136"
           style="stop-color:#EDEDED"
           id="stop215" />
        <stop
           offset="0.9045"
           style="stop-color:#FFFFFF"
           id="stop216" />
        <stop
           offset="1"
           style="stop-color:#D4D4D4"
           id="stop217" />
      </linearGradient>
      <path
         i:knockout="Off"
         style="fill:url(#XMLID_6_);stroke:none;"
         d="M149.56,205.034h-35.323v-4.756h35.323V205.034z"
         id="path225" />
    </g>
    <path
       i:knockout="Off"
       style="stroke:none;"
       d="M164.164,131.03H97.633v57.438h68.531V131.03H164.164z"
       id="path226" />
    <path
       i:knockout="Off"
       style="stroke:none;"
       d="M163.032,133.03H99.633v53.438h64.531V133.03H163.032z"
       id="path227" />
    <path
       i:knockout="Off"
       style="stroke:none;"
       d="M97.469,127.181c-3.457,0-6.063,2.01-6.063,4.675v6.426c0,2.665,2.607,4.675,6.063,4.675    h68.405c3.457,0,6.063-2.01,6.063-4.675v-6.426c0-2.665-2.606-4.675-6.063-4.675H97.469z"
       id="path228" />
    <linearGradient
       id="XMLID_7_"
       gradientUnits="userSpaceOnUse"
       x1="131.8984"
       y1="130.3135"
       x2="131.8984"
       y2="174.6965">
      <stop
         offset="0"
         style="stop-color:#CCCCCC"
         id="stop230" />
      <stop
         offset="1"
         style="stop-color:#FFFFFF"
         id="stop231" />
    </linearGradient>
    <path
       i:knockout="Off"
       style="fill:url(#XMLID_7_);stroke:none;"
       d="M163.032,185.336h-62.268v-51.174h62.268V185.336z"
       id="path235" />
    <path
       i:knockout="Off"
       style="stroke:none;"
       d="M97.469,129.181c-2.316,0-4.063,1.15-4.063,2.675v6.426c0,1.524,1.747,2.675,4.063,2.675    h68.405c2.317,0,4.063-1.15,4.063-2.675v-6.426c0-1.524-1.746-2.675-4.063-2.675H97.469z"
       id="path236" />
    <linearGradient
       id="XMLID_8_"
       gradientUnits="userSpaceOnUse"
       x1="131.6709"
       y1="139.5977"
       x2="131.6709"
       y2="132.8034">
      <stop
         offset="0"
         style="stop-color:#E33000"
         id="stop238" />
      <stop
         offset="1"
         style="stop-color:#FE4110"
         id="stop239" />
    </linearGradient>
    <path
       i:knockout="Off"
       style="fill:url(#XMLID_8_);stroke:none;"
       d="M168.806,138.281c0,0.852-1.313,1.543-2.932,1.543H97.469    c-1.618,0-2.932-0.691-2.932-1.543v-6.426c0-0.852,1.313-1.543,2.932-1.543h68.405c1.619,0,2.932,0.691,2.932,1.543V138.281z"
       id="path243" />
    <path
       i:knockout="Off"
       style="opacity:0.52;fill:#FFFFFF;stroke:none;"
       d="M96.535,133.397c0-0.706,1.272-1.279,2.842-1.279h66.319c0.562,0,1.084,0.075,1.524,0.201    v-0.049c0-0.706-1.271-1.277-2.842-1.277H98.06c-1.569,0-2.842,0.571-2.842,1.277v5.327c0,0.454,0.526,0.851,1.317,1.078V133.397z    "
       id="path244" />
    <path
       i:knockout="Off"
       style="fill:#66BF7F;stroke:none;"
       d="M141,178.166h-6.667v-19.667H141V178.166z"
       id="path245" />
    <path
       i:knockout="Off"
       style="fill:#FC4128;stroke:none;"
       d="M148,178.166h-6.667v-27.667H148V178.166z"
       id="path246" />
    <path
       i:knockout="Off"
       style="fill:#2461AA;stroke:none;"
       d="M155,178.166h-6.667v-15.001H155V178.166z"
       id="path247" />
    <g
       id="g248">
      <path
         i:knockout="Off"
         style="fill:none;stroke:#999999;stroke-width:3;"
         d="M105,152.499h20"
         id="path249" />
      <path
         i:knockout="Off"
         style="fill:none;stroke:#999999;stroke-width:3;"
         d="M105,161.999h16.333"
         id="path250" />
      <path
         i:knockout="Off"
         style="fill:none;stroke:#999999;stroke-width:3;"
         d="M105,171.499h16"
         id="path251" />
    </g>
    <path
       i:knockout="Off"
       style="fill:none;stroke:#999999;stroke-width:3;"
       d="M157.334,178.165h-27"
       id="path252" />
  </g>
  <g
     id="Layer_2"
     i:layer="yes"
     i:editable="no"
     i:dimmedPercent="50"
     i:rgbTrio="#FFFF4F004F00"
     style="stroke:#000000;">
    <path
       i:knockout="Off"
       style="fill:none;stroke:none;"
       d="M256,256H0V0h256V256z"
       id="path254" />
  </g>
</svg>
